<svg width="240" height="72" viewBox="0 0 240 72" fill="none" xmlns="http://www.w3.org/2000/svg">
<rect x="1" y="1" width="238" height="70" rx="35" fill="url(#paint0_linear_83_12)" stroke="black" stroke-width="2"/>
<path d="M33.6952 45H28.9722L35.1068 26.8182H40.9573L47.0918 45H42.3688L38.0986 31.3991H37.9565L33.6952 45ZM33.0649 37.8445H42.937V41.1825H33.0649V37.8445ZM53.3907 26.8182V45H49.0494V26.8182H53.3907ZM60.4952 26.8182V45H56.1539V26.8182H60.4952ZM69.6238 45.2575C68.1915 45.2575 66.9604 44.9645 65.9306 44.3786C64.9067 43.7867 64.1166 42.964 63.5602 41.9105C63.0098 40.8511 62.7346 39.623 62.7346 38.2262C62.7346 36.8235 63.0098 35.5954 63.5602 34.5419C64.1166 33.4825 64.9067 32.6598 65.9306 32.0739C66.9604 31.482 68.1915 31.1861 69.6238 31.1861C71.0561 31.1861 72.2842 31.482 73.3081 32.0739C74.3379 32.6598 75.1281 33.4825 75.6785 34.5419C76.2348 35.5954 76.513 36.8235 76.513 38.2262C76.513 39.623 76.2348 40.8511 75.6785 41.9105C75.1281 42.964 74.3379 43.7867 73.3081 44.3786C72.2842 44.9645 71.0561 45.2575 69.6238 45.2575ZM69.6504 41.9815C70.1713 41.9815 70.6122 41.8217 70.9732 41.5021C71.3343 41.1825 71.6095 40.7386 71.7989 40.1705C71.9942 39.6023 72.0918 38.9453 72.0918 38.1996C72.0918 37.442 71.9942 36.7791 71.7989 36.2109C71.6095 35.6428 71.3343 35.1989 70.9732 34.8793C70.6122 34.5597 70.1713 34.3999 69.6504 34.3999C69.1118 34.3999 68.6561 34.5597 68.2832 34.8793C67.9163 35.1989 67.6352 35.6428 67.4399 36.2109C67.2505 36.7791 67.1558 37.442 67.1558 38.1996C67.1558 38.9453 67.2505 39.6023 67.4399 40.1705C67.6352 40.7386 67.9163 41.1825 68.2832 41.5021C68.6561 41.8217 69.1118 41.9815 69.6504 41.9815ZM80.9919 45L77.4407 31.3636H81.7998L83.6375 40.0994H83.7529L85.7238 31.3636H89.9763L92.0004 40.0373H92.1158L93.9003 31.3636H98.2593L94.6993 45H90.0562L87.9255 37.0543H87.7745L85.6439 45H80.9919ZM105.373 45V26.8182H109.767V41.4311H117.331V45H105.373ZM125.971 45.2575C124.539 45.2575 123.308 44.9645 122.278 44.3786C121.254 43.7867 120.464 42.964 119.908 41.9105C119.357 40.8511 119.082 39.623 119.082 38.2262C119.082 36.8235 119.357 35.5954 119.908 34.5419C120.464 33.4825 121.254 32.6598 122.278 32.0739C123.308 31.482 124.539 31.1861 125.971 31.1861C127.404 31.1861 128.632 31.482 129.656 32.0739C130.686 32.6598 131.476 33.4825 132.026 34.5419C132.582 35.5954 132.861 36.8235 132.861 38.2262C132.861 39.623 132.582 40.8511 132.026 41.9105C131.476 42.964 130.686 43.7867 129.656 44.3786C128.632 44.9645 127.404 45.2575 125.971 45.2575ZM125.998 41.9815C126.519 41.9815 126.96 41.8217 127.321 41.5021C127.682 41.1825 127.957 40.7386 128.147 40.1705C128.342 39.6023 128.439 38.9453 128.439 38.1996C128.439 37.442 128.342 36.7791 128.147 36.2109C127.957 35.6428 127.682 35.1989 127.321 34.8793C126.96 34.5597 126.519 34.3999 125.998 34.3999C125.46 34.3999 125.004 34.5597 124.631 34.8793C124.264 35.1989 123.983 35.6428 123.788 36.2109C123.598 36.7791 123.503 37.442 123.503 38.1996C123.503 38.9453 123.598 39.6023 123.788 40.1705C123.983 40.7386 124.264 41.1825 124.631 41.5021C125.004 41.8217 125.46 41.9815 125.998 41.9815ZM141.45 45.2575C140.012 45.2575 138.778 44.9615 137.748 44.3697C136.724 43.7778 135.937 42.9551 135.386 41.9016C134.836 40.8422 134.561 39.6171 134.561 38.2262C134.561 36.8294 134.836 35.6043 135.386 34.5508C135.943 33.4914 136.733 32.6657 137.757 32.0739C138.787 31.482 140.015 31.1861 141.441 31.1861C142.702 31.1861 143.8 31.4139 144.735 31.8697C145.676 32.3254 146.41 32.9705 146.936 33.805C147.469 34.6336 147.75 35.6072 147.78 36.7259H143.723C143.64 36.0275 143.403 35.48 143.012 35.0835C142.628 34.6869 142.125 34.4886 141.503 34.4886C141 34.4886 140.559 34.6307 140.18 34.9148C139.802 35.1929 139.506 35.6072 139.293 36.1577C139.086 36.7022 138.982 37.3769 138.982 38.1818C138.982 38.9867 139.086 39.6674 139.293 40.2237C139.506 40.7741 139.802 41.1914 140.18 41.4755C140.559 41.7537 141 41.8928 141.503 41.8928C141.906 41.8928 142.261 41.8069 142.569 41.6353C142.882 41.4637 143.14 41.2121 143.341 40.8807C143.542 40.5433 143.669 40.1349 143.723 39.6555H147.78C147.738 40.7801 147.457 41.7625 146.936 42.603C146.422 43.4434 145.697 44.0974 144.761 44.565C143.832 45.0266 142.728 45.2575 141.45 45.2575ZM153.846 45.2308C152.976 45.2308 152.203 45.0858 151.529 44.7958C150.86 44.4999 150.33 44.056 149.939 43.4641C149.555 42.8664 149.362 42.1177 149.362 41.218C149.362 40.4605 149.496 39.8213 149.762 39.3004C150.028 38.7796 150.395 38.3564 150.863 38.0309C151.33 37.7054 151.869 37.4598 152.478 37.294C153.088 37.1224 153.739 37.007 154.432 36.9478C155.207 36.8768 155.831 36.8028 156.305 36.7259C156.778 36.643 157.122 36.5276 157.335 36.3796C157.554 36.2257 157.663 36.0097 157.663 35.7315V35.6871C157.663 35.2314 157.506 34.8793 157.193 34.6307C156.879 34.3821 156.456 34.2578 155.923 34.2578C155.349 34.2578 154.887 34.3821 154.538 34.6307C154.189 34.8793 153.967 35.2225 153.872 35.6605L149.868 35.5185C149.987 34.6899 150.292 33.95 150.783 33.299C151.28 32.642 151.961 32.1271 152.825 31.7543C153.695 31.3755 154.739 31.1861 155.959 31.1861C156.829 31.1861 157.631 31.2897 158.364 31.4968C159.098 31.698 159.738 31.994 160.282 32.3846C160.827 32.7693 161.247 33.2428 161.543 33.805C161.845 34.3673 161.996 35.0095 161.996 35.7315V45H157.912V43.1001H157.805C157.563 43.5618 157.252 43.9524 156.873 44.272C156.5 44.5916 156.059 44.8313 155.55 44.9911C155.047 45.1509 154.479 45.2308 153.846 45.2308ZM155.186 42.3899C155.654 42.3899 156.074 42.2952 156.447 42.1058C156.826 41.9164 157.128 41.656 157.352 41.3246C157.577 40.9872 157.69 40.5966 157.69 40.1527V38.8565C157.565 38.9216 157.415 38.9808 157.237 39.0341C157.065 39.0874 156.876 39.1377 156.669 39.185C156.462 39.2324 156.249 39.2738 156.03 39.3093C155.811 39.3448 155.601 39.3774 155.399 39.407C154.991 39.4721 154.642 39.5727 154.352 39.7088C154.068 39.8449 153.849 40.0225 153.695 40.2415C153.547 40.4545 153.473 40.709 153.473 41.005C153.473 41.4548 153.633 41.7981 153.952 42.0348C154.278 42.2715 154.689 42.3899 155.186 42.3899ZM172.347 31.3636V34.5597H163.744V31.3636H172.347ZM165.547 28.0966H169.888V40.712C169.888 40.9783 169.929 41.1944 170.012 41.3601C170.101 41.5199 170.228 41.6353 170.394 41.7063C170.56 41.7714 170.758 41.804 170.989 41.804C171.154 41.804 171.329 41.7892 171.513 41.7596C171.702 41.7241 171.844 41.6945 171.939 41.6708L172.596 44.8047C172.389 44.8639 172.096 44.9379 171.717 45.0266C171.344 45.1154 170.897 45.1716 170.376 45.1953C169.358 45.2427 168.485 45.1243 167.757 44.8402C167.035 44.5502 166.482 44.1004 166.097 43.4908C165.718 42.8812 165.535 42.1147 165.547 41.1914V28.0966ZM174.562 45V31.3636H178.903V45H174.562ZM176.737 29.7745C176.128 29.7745 175.604 29.5733 175.166 29.1708C174.728 28.7624 174.509 28.2712 174.509 27.6971C174.509 27.1289 174.728 26.6436 175.166 26.2411C175.604 25.8327 176.128 25.6286 176.737 25.6286C177.353 25.6286 177.876 25.8327 178.309 26.2411C178.747 26.6436 178.966 27.1289 178.966 27.6971C178.966 28.2712 178.747 28.7624 178.309 29.1708C177.876 29.5733 177.353 29.7745 176.737 29.7745ZM188.032 45.2575C186.6 45.2575 185.369 44.9645 184.339 44.3786C183.315 43.7867 182.525 42.964 181.968 41.9105C181.418 40.8511 181.143 39.623 181.143 38.2262C181.143 36.8235 181.418 35.5954 181.968 34.5419C182.525 33.4825 183.315 32.6598 184.339 32.0739C185.369 31.482 186.6 31.1861 188.032 31.1861C189.464 31.1861 190.692 31.482 191.716 32.0739C192.746 32.6598 193.536 33.4825 194.087 34.5419C194.643 35.5954 194.921 36.8235 194.921 38.2262C194.921 39.623 194.643 40.8511 194.087 41.9105C193.536 42.964 192.746 43.7867 191.716 44.3786C190.692 44.9645 189.464 45.2575 188.032 45.2575ZM188.059 41.9815C188.579 41.9815 189.02 41.8217 189.381 41.5021C189.742 41.1825 190.018 40.7386 190.207 40.1705C190.402 39.6023 190.5 38.9453 190.5 38.1996C190.5 37.442 190.402 36.7791 190.207 36.2109C190.018 35.6428 189.742 35.1989 189.381 34.8793C189.02 34.5597 188.579 34.3999 188.059 34.3999C187.52 34.3999 187.064 34.5597 186.691 34.8793C186.324 35.1989 186.043 35.6428 185.848 36.2109C185.659 36.7791 185.564 37.442 185.564 38.1996C185.564 38.9453 185.659 39.6023 185.848 40.1705C186.043 40.7386 186.324 41.1825 186.691 41.5021C187.064 41.8217 187.52 41.9815 188.059 41.9815ZM201.486 37.223V45H197.145V31.3636H201.273V33.8672H201.424C201.726 33.0327 202.241 32.3787 202.969 31.9052C203.697 31.4258 204.564 31.1861 205.57 31.1861C206.529 31.1861 207.361 31.4021 208.065 31.8342C208.775 32.2603 209.326 32.8581 209.716 33.6275C210.113 34.391 210.308 35.2847 210.302 36.3086V45H205.961V37.1609C205.967 36.4033 205.774 35.8114 205.384 35.3853C204.999 34.9592 204.463 34.7461 203.777 34.7461C203.321 34.7461 202.919 34.8467 202.569 35.0479C202.226 35.2433 201.96 35.5244 201.77 35.8913C201.587 36.2583 201.492 36.7022 201.486 37.223Z" fill="white"/>
<defs>
<linearGradient id="paint0_linear_83_12" x1="0" y1="0" x2="250.527" y2="85.1599" gradientUnits="userSpaceOnUse">
<stop stop-color="#FFB7B7"/>
<stop offset="0.172137" stop-color="#FA2D2D"/>
<stop offset="0.651338" stop-color="#FC3232"/>
<stop offset="0.919254" stop-color="#F3B7B7"/>
</linearGradient>
</defs>
</svg>
