<svg width="319" height="78" viewBox="0 0 319 78" fill="none" xmlns="http://www.w3.org/2000/svg">
<g filter="url(#filter0_f_83_31)">
<rect x="19" y="34" width="296" height="40" fill="#D9D9D9"/>
<rect x="19.5" y="34.5" width="295" height="39" stroke="black"/>
</g>
<path d="M26.0811 19V4.45455H35.3993V6.66335H28.7161V10.6122H34.7601V12.821H28.7161V19H26.0811ZM43.9558 14.4119V8.09091H46.5268V19H44.0339V17.0611H43.9203C43.6741 17.6719 43.2692 18.1714 42.7058 18.5597C42.1471 18.9479 41.4582 19.142 40.639 19.142C39.9241 19.142 39.292 18.9834 38.7427 18.6662C38.1982 18.3442 37.7721 17.8778 37.4643 17.267C37.1565 16.6515 37.0027 15.9081 37.0027 15.0369V8.09091H39.5737V14.6392C39.5737 15.3305 39.7631 15.8797 40.1419 16.2869C40.5207 16.6941 41.0178 16.8977 41.6333 16.8977C42.0121 16.8977 42.3791 16.8054 42.7342 16.6207C43.0893 16.4361 43.3805 16.1615 43.6078 15.7969C43.8398 15.4276 43.9558 14.9659 43.9558 14.4119ZM51.7417 4.45455V19H49.1706V4.45455H51.7417ZM56.9565 4.45455V19H54.3855V4.45455H56.9565ZM76.628 4.45455V19H74.2843L67.4306 9.09233H67.3098V19H64.6749V4.45455H67.0328L73.8794 14.3693H74.0073V4.45455H76.628ZM82.5247 19.2202C81.8334 19.2202 81.2108 19.0971 80.6568 18.8509C80.1075 18.5999 79.6719 18.2306 79.35 17.7429C79.0327 17.2552 78.8741 16.6539 78.8741 15.9389C78.8741 15.3234 78.9877 14.8144 79.215 14.4119C79.4423 14.0095 79.7524 13.6875 80.1454 13.446C80.5384 13.2045 80.9811 13.0223 81.4735 12.8991C81.9707 12.7713 82.4844 12.679 83.0147 12.6222C83.6539 12.5559 84.1724 12.4967 84.5701 12.4446C84.9679 12.3878 85.2567 12.3026 85.4366 12.1889C85.6213 12.0705 85.7136 11.8883 85.7136 11.642V11.5994C85.7136 11.0644 85.555 10.6501 85.2377 10.3565C84.9205 10.063 84.4636 9.91619 83.867 9.91619C83.2373 9.91619 82.7377 10.0535 82.3684 10.3281C82.0038 10.6027 81.7576 10.9271 81.6298 11.3011L79.2292 10.9602C79.4186 10.2973 79.7311 9.74337 80.1667 9.2983C80.6023 8.84848 81.135 8.51231 81.7647 8.28977C82.3945 8.0625 83.0905 7.94886 83.8528 7.94886C84.3784 7.94886 84.9016 8.01042 85.4224 8.13352C85.9432 8.25663 86.4191 8.46023 86.85 8.74432C87.2808 9.02367 87.6265 9.40483 87.8869 9.88778C88.152 10.3707 88.2846 10.9744 88.2846 11.6989V19H85.813V17.5014H85.7278C85.5716 17.8045 85.3514 18.0885 85.0673 18.3537C84.7879 18.6141 84.4352 18.8248 84.0091 18.9858C83.5877 19.142 83.0929 19.2202 82.5247 19.2202ZM83.1923 17.331C83.7084 17.331 84.1558 17.2292 84.5346 17.0256C84.9134 16.8172 85.2046 16.5426 85.4082 16.2017C85.6165 15.8608 85.7207 15.4891 85.7207 15.0866V13.8011C85.6402 13.8674 85.5029 13.929 85.3088 13.9858C85.1194 14.0426 84.9063 14.0923 84.6696 14.1349C84.4328 14.1776 84.1984 14.2154 83.9664 14.2486C83.7344 14.2817 83.5332 14.3101 83.3627 14.3338C82.9792 14.3859 82.6359 14.4711 82.3329 14.5895C82.0299 14.7079 81.7908 14.8736 81.6156 15.0866C81.4404 15.295 81.3528 15.5649 81.3528 15.8963C81.3528 16.3698 81.5256 16.7273 81.8713 16.9688C82.2169 17.2102 82.6573 17.331 83.1923 17.331ZM90.8699 19V8.09091H93.3272V9.9446H93.4551C93.6824 9.3196 94.0588 8.83191 94.5843 8.48153C95.1099 8.12642 95.7373 7.94886 96.4664 7.94886C97.2051 7.94886 97.8277 8.12879 98.3343 8.48864C98.8457 8.84375 99.2056 9.32907 99.4139 9.9446H99.5275C99.769 9.33854 100.176 8.85559 100.749 8.49574C101.327 8.13116 102.011 7.94886 102.802 7.94886C103.805 7.94886 104.625 8.2661 105.259 8.90057C105.894 9.53504 106.211 10.4607 106.211 11.6776V19H103.633V12.0753C103.633 11.3982 103.453 10.9034 103.093 10.5909C102.733 10.2737 102.293 10.1151 101.772 10.1151C101.152 10.1151 100.666 10.3092 100.316 10.6974C99.9702 11.081 99.7974 11.5805 99.7974 12.196V19H97.2761V11.9688C97.2761 11.4053 97.1056 10.9555 96.7647 10.6193C96.4286 10.2831 95.9882 10.1151 95.4437 10.1151C95.0744 10.1151 94.7382 10.2098 94.4352 10.3991C94.1322 10.5838 93.8907 10.8466 93.7108 11.1875C93.5308 11.5237 93.4409 11.9167 93.4409 12.3665V19H90.8699ZM113.649 19.2131C112.555 19.2131 111.61 18.9858 110.815 18.5312C110.024 18.072 109.416 17.4233 108.99 16.5852C108.563 15.7424 108.35 14.7505 108.35 13.6094C108.35 12.4872 108.563 11.5024 108.99 10.6548C109.42 9.80256 110.022 9.13968 110.794 8.66619C111.565 8.18797 112.472 7.94886 113.514 7.94886C114.186 7.94886 114.82 8.05777 115.417 8.27557C116.018 8.48864 116.549 8.82008 117.008 9.26989C117.472 9.7197 117.837 10.2926 118.102 10.9886C118.367 11.6799 118.499 12.5038 118.499 13.4602V14.2486H109.558V12.5156H116.035C116.03 12.0232 115.924 11.5852 115.715 11.2017C115.507 10.8134 115.216 10.508 114.842 10.2855C114.472 10.063 114.042 9.9517 113.549 9.9517C113.024 9.9517 112.562 10.0795 112.164 10.3352C111.767 10.5862 111.456 10.9176 111.234 11.3295C111.016 11.7367 110.905 12.1842 110.9 12.6719V14.1847C110.9 14.8191 111.016 15.3636 111.248 15.8182C111.48 16.268 111.804 16.6136 112.221 16.8551C112.638 17.0919 113.125 17.2102 113.684 17.2102C114.058 17.2102 114.397 17.1581 114.7 17.054C115.003 16.9451 115.266 16.7865 115.488 16.5781C115.711 16.3698 115.879 16.1117 115.992 15.804L118.393 16.0739C118.241 16.7083 117.953 17.2623 117.526 17.7358C117.105 18.2045 116.565 18.5691 115.907 18.8295C115.249 19.0852 114.496 19.2131 113.649 19.2131Z" fill="black"/>
<defs>
<filter id="filter0_f_83_31" x="15" y="30" width="304" height="48" filterUnits="userSpaceOnUse" color-interpolation-filters="sRGB">
<feFlood flood-opacity="0" result="BackgroundImageFix"/>
<feBlend mode="normal" in="SourceGraphic" in2="BackgroundImageFix" result="shape"/>
<feGaussianBlur stdDeviation="2" result="effect1_foregroundBlur_83_31"/>
</filter>
</defs>
</svg>
