<svg width="337" height="59" viewBox="0 0 337 59" fill="none" xmlns="http://www.w3.org/2000/svg">
<path d="M34.9173 9.09943C34.7989 8.71591 34.6355 8.37263 34.4272 8.0696C34.2236 7.76184 33.9774 7.49905 33.6886 7.28125C33.4045 7.06345 33.0778 6.90009 32.7085 6.79119C32.3391 6.67756 31.9367 6.62074 31.5011 6.62074C30.7198 6.62074 30.0238 6.81723 29.413 7.21023C28.8022 7.60322 28.3216 8.18087 27.9712 8.94318C27.6256 9.70076 27.4528 10.6241 27.4528 11.7131C27.4528 12.8116 27.6256 13.742 27.9712 14.5043C28.3169 15.2666 28.7975 15.8466 29.413 16.2443C30.0285 16.6373 30.7435 16.8338 31.5579 16.8338C32.2965 16.8338 32.9357 16.6918 33.4755 16.4077C34.02 16.1236 34.439 15.7211 34.7326 15.2003C35.0262 14.6747 35.1729 14.0592 35.1729 13.3537L35.7695 13.446H31.8207V11.3864H37.7227V13.1335C37.7227 14.3788 37.4575 15.456 36.9272 16.3651C36.3969 17.2741 35.6677 17.9749 34.7397 18.4673C33.8117 18.955 32.7463 19.1989 31.5437 19.1989C30.2037 19.1989 29.0271 18.8982 28.0138 18.2969C27.0053 17.6908 26.217 16.8314 25.6488 15.7188C25.0853 14.6013 24.8036 13.2756 24.8036 11.7415C24.8036 10.5672 24.9693 9.51847 25.3008 8.59517C25.637 7.67188 26.1057 6.88826 26.707 6.24432C27.3084 5.59564 28.0138 5.10322 28.8235 4.76705C29.6332 4.42614 30.5138 4.25568 31.4656 4.25568C32.2705 4.25568 33.021 4.37405 33.717 4.6108C34.413 4.8428 35.0309 5.17424 35.5707 5.60511C36.1152 6.03598 36.5626 6.54735 36.913 7.1392C37.2634 7.73106 37.493 8.38447 37.6019 9.09943H34.9173ZM44.9865 19.2131C43.8928 19.2131 42.9482 18.9858 42.1527 18.5312C41.362 18.072 40.7536 17.4233 40.3274 16.5852C39.9013 15.7424 39.6882 14.7505 39.6882 13.6094C39.6882 12.4872 39.9013 11.5024 40.3274 10.6548C40.7583 9.80256 41.3596 9.13968 42.1314 8.66619C42.9032 8.18797 43.8099 7.94886 44.8516 7.94886C45.5239 7.94886 46.1584 8.05777 46.755 8.27557C47.3563 8.48864 47.8866 8.82008 48.3459 9.26989C48.8099 9.7197 49.1745 10.2926 49.4396 10.9886C49.7048 11.6799 49.8374 12.5038 49.8374 13.4602V14.2486H40.8956V12.5156H47.3729C47.3681 12.0232 47.2616 11.5852 47.0533 11.2017C46.8449 10.8134 46.5537 10.508 46.1797 10.2855C45.8104 10.063 45.3795 9.9517 44.8871 9.9517C44.3615 9.9517 43.8999 10.0795 43.5021 10.3352C43.1044 10.5862 42.7943 10.9176 42.5717 11.3295C42.3539 11.7367 42.2427 12.1842 42.2379 12.6719V14.1847C42.2379 14.8191 42.3539 15.3636 42.5859 15.8182C42.8179 16.268 43.1423 16.6136 43.5589 16.8551C43.9756 17.0919 44.4633 17.2102 45.022 17.2102C45.3961 17.2102 45.7346 17.1581 46.0376 17.054C46.3407 16.9451 46.6035 16.7865 46.826 16.5781C47.0485 16.3698 47.2166 16.1117 47.3303 15.804L49.7308 16.0739C49.5793 16.7083 49.2905 17.2623 48.8643 17.7358C48.4429 18.2045 47.9032 18.5691 47.245 18.8295C46.5869 19.0852 45.834 19.2131 44.9865 19.2131ZM54.5835 12.608V19H52.0124V8.09091H54.4698V9.9446H54.5977C54.8486 9.33381 55.2487 8.84848 55.7979 8.48864C56.3519 8.12879 57.0361 7.94886 57.8505 7.94886C58.6033 7.94886 59.2591 8.10985 59.8178 8.43182C60.3813 8.75379 60.8169 9.22017 61.1246 9.83097C61.4371 10.4418 61.591 11.1828 61.5863 12.054V19H59.0153V12.4517C59.0153 11.7225 58.8259 11.152 58.4471 10.7401C58.073 10.3281 57.5546 10.1222 56.8917 10.1222C56.4419 10.1222 56.0418 10.2216 55.6914 10.4205C55.3458 10.6146 55.0735 10.8963 54.8746 11.2656C54.6805 11.6349 54.5835 12.0824 54.5835 12.608ZM68.2482 19.1918C67.3912 19.1918 66.6242 18.9716 65.9471 18.5312C65.27 18.0909 64.735 17.4517 64.342 16.6136C63.949 15.7756 63.7525 14.7576 63.7525 13.5597C63.7525 12.3475 63.9513 11.3248 64.3491 10.4915C64.7515 9.65341 65.2937 9.02131 65.9755 8.59517C66.6573 8.1643 67.4173 7.94886 68.2553 7.94886C68.8945 7.94886 69.4201 8.05777 69.832 8.27557C70.244 8.48864 70.5707 8.74669 70.8121 9.04972C71.0536 9.34801 71.2406 9.62973 71.3732 9.89489H71.4798V4.45455H74.0579V19H71.5295V17.2812H71.3732C71.2406 17.5464 71.0489 17.8281 70.7979 18.1264C70.547 18.42 70.2156 18.6709 69.8036 18.8793C69.3917 19.0876 68.8732 19.1918 68.2482 19.1918ZM68.9656 17.0824C69.5101 17.0824 69.9741 16.9356 70.3576 16.642C70.7411 16.3437 71.0323 15.9295 71.2312 15.3991C71.43 14.8688 71.5295 14.2509 71.5295 13.5455C71.5295 12.84 71.43 12.2268 71.2312 11.706C71.0371 11.1851 70.7482 10.7803 70.3647 10.4915C69.9859 10.2027 69.5195 10.0582 68.9656 10.0582C68.3926 10.0582 67.9144 10.2074 67.5309 10.5057C67.1474 10.804 66.8585 11.2159 66.6644 11.7415C66.4703 12.267 66.3732 12.8684 66.3732 13.5455C66.3732 14.2273 66.4703 14.8357 66.6644 15.3707C66.8633 15.901 67.1545 16.3201 67.538 16.6278C67.9263 16.9309 68.4021 17.0824 68.9656 17.0824ZM81.6271 19.2131C80.5334 19.2131 79.5888 18.9858 78.7933 18.5312C78.0026 18.072 77.3942 17.4233 76.968 16.5852C76.5419 15.7424 76.3288 14.7505 76.3288 13.6094C76.3288 12.4872 76.5419 11.5024 76.968 10.6548C77.3989 9.80256 78.0002 9.13968 78.772 8.66619C79.5438 8.18797 80.4505 7.94886 81.4922 7.94886C82.1645 7.94886 82.799 8.05777 83.3956 8.27557C83.9969 8.48864 84.5272 8.82008 84.9865 9.26989C85.4505 9.7197 85.8151 10.2926 86.0803 10.9886C86.3454 11.6799 86.478 12.5038 86.478 13.4602V14.2486H77.5362V12.5156H84.0135C84.0088 12.0232 83.9022 11.5852 83.6939 11.2017C83.4856 10.8134 83.1944 10.508 82.8203 10.2855C82.451 10.063 82.0201 9.9517 81.5277 9.9517C81.0021 9.9517 80.5405 10.0795 80.1428 10.3352C79.745 10.5862 79.4349 10.9176 79.2124 11.3295C78.9946 11.7367 78.8833 12.1842 78.8786 12.6719V14.1847C78.8786 14.8191 78.9946 15.3636 79.2266 15.8182C79.4586 16.268 79.7829 16.6136 80.1996 16.8551C80.6162 17.0919 81.1039 17.2102 81.6626 17.2102C82.0367 17.2102 82.3752 17.1581 82.6783 17.054C82.9813 16.9451 83.2441 16.7865 83.4666 16.5781C83.6892 16.3698 83.8572 16.1117 83.9709 15.804L86.3714 16.0739C86.2199 16.7083 85.9311 17.2623 85.505 17.7358C85.0836 18.2045 84.5438 18.5691 83.8857 18.8295C83.2275 19.0852 82.4747 19.2131 81.6271 19.2131ZM88.6531 19V8.09091H91.146V9.90909H91.2596C91.4585 9.27936 91.7994 8.79403 92.2823 8.45312C92.77 8.10748 93.3263 7.93466 93.9513 7.93466C94.0934 7.93466 94.252 7.94176 94.4272 7.95597C94.6071 7.96544 94.7563 7.98201 94.8746 8.00568V10.3707C94.7657 10.3329 94.5929 10.2997 94.3562 10.2713C94.1242 10.2382 93.8993 10.2216 93.6815 10.2216C93.2127 10.2216 92.7913 10.3234 92.4173 10.527C92.0479 10.7259 91.7567 11.0028 91.5437 11.358C91.3306 11.7131 91.2241 12.1226 91.2241 12.5866V19H88.6531Z" fill="black"/>
<path d="M84.7294 40.3636H86.4112L90.3658 50.0227H90.5021L94.4567 40.3636H96.1385V52H94.8203V43.1591H94.7067L91.0703 52H89.7976L86.1612 43.1591H86.0476V52H84.7294V40.3636ZM101.35 52.2045C100.797 52.2045 100.295 52.1004 99.8445 51.892C99.3937 51.6799 99.0357 51.375 98.7706 50.9773C98.5054 50.5758 98.3729 50.0909 98.3729 49.5227C98.3729 49.0227 98.4714 48.6174 98.6683 48.3068C98.8653 47.9924 99.1286 47.7462 99.4581 47.5682C99.7876 47.3902 100.151 47.2576 100.549 47.1705C100.951 47.0795 101.354 47.0076 101.759 46.9545C102.29 46.8864 102.719 46.8352 103.049 46.8011C103.382 46.7633 103.625 46.7008 103.776 46.6136C103.932 46.5265 104.009 46.375 104.009 46.1591V46.1136C104.009 45.553 103.856 45.1174 103.549 44.8068C103.246 44.4962 102.786 44.3409 102.168 44.3409C101.528 44.3409 101.026 44.4811 100.663 44.7614C100.299 45.0417 100.043 45.3409 99.8956 45.6591L98.6229 45.2045C98.8501 44.6742 99.1532 44.2614 99.532 43.9659C99.9145 43.6667 100.331 43.4583 100.782 43.3409C101.237 43.2197 101.683 43.1591 102.123 43.1591C102.403 43.1591 102.725 43.1932 103.089 43.2614C103.456 43.3258 103.81 43.4602 104.151 43.6648C104.496 43.8693 104.782 44.178 105.009 44.5909C105.237 45.0038 105.35 45.5568 105.35 46.25V52H104.009V50.8182H103.941C103.85 51.0076 103.699 51.2102 103.487 51.4261C103.274 51.642 102.992 51.8258 102.64 51.9773C102.288 52.1288 101.858 52.2045 101.35 52.2045ZM101.555 51C102.085 51 102.532 50.8958 102.896 50.6875C103.263 50.4792 103.54 50.2102 103.725 49.8807C103.915 49.5511 104.009 49.2045 104.009 48.8409V47.6136C103.952 47.6818 103.827 47.7443 103.634 47.8011C103.445 47.8542 103.225 47.9015 102.975 47.9432C102.729 47.9811 102.488 48.0152 102.254 48.0455C102.022 48.072 101.835 48.0947 101.691 48.1136C101.343 48.1591 101.017 48.233 100.714 48.3352C100.415 48.4337 100.172 48.5833 99.9865 48.7841C99.8047 48.9811 99.7138 49.25 99.7138 49.5909C99.7138 50.0568 99.8861 50.4091 100.231 50.6477C100.579 50.8826 101.021 51 101.555 51ZM109.138 40.3636V52H107.798V40.3636H109.138ZM115.254 52.1818C114.413 52.1818 113.687 51.9962 113.077 51.625C112.471 51.25 112.004 50.7273 111.674 50.0568C111.348 49.3826 111.185 48.5985 111.185 47.7045C111.185 46.8106 111.348 46.0227 111.674 45.3409C112.004 44.6553 112.462 44.1212 113.049 43.7386C113.64 43.3523 114.329 43.1591 115.117 43.1591C115.572 43.1591 116.021 43.2348 116.464 43.3864C116.907 43.5379 117.31 43.7841 117.674 44.125C118.038 44.4621 118.327 44.9091 118.543 45.4659C118.759 46.0227 118.867 46.7083 118.867 47.5227V48.0909H112.14V46.9318H117.504C117.504 46.4394 117.405 46 117.208 45.6136C117.015 45.2273 116.738 44.9223 116.379 44.6989C116.022 44.4754 115.602 44.3636 115.117 44.3636C114.583 44.3636 114.121 44.4962 113.731 44.7614C113.344 45.0227 113.047 45.3636 112.839 45.7841C112.63 46.2045 112.526 46.6553 112.526 47.1364V47.9091C112.526 48.5682 112.64 49.1269 112.867 49.5852C113.098 50.0398 113.418 50.3864 113.827 50.625C114.237 50.8598 114.712 50.9773 115.254 50.9773C115.606 50.9773 115.924 50.928 116.208 50.8295C116.496 50.7273 116.744 50.5758 116.952 50.375C117.161 50.1705 117.322 49.9167 117.435 49.6136L118.731 49.9773C118.594 50.4167 118.365 50.803 118.043 51.1364C117.721 51.4659 117.324 51.7235 116.85 51.9091C116.377 52.0909 115.844 52.1818 115.254 52.1818Z" fill="black"/>
<path d="M168.862 54V42.3636H175.839V43.6136H170.271V47.5455H175.317V48.7955H170.271V54H168.862ZM181.089 54.1818C180.249 54.1818 179.523 53.9962 178.913 53.625C178.307 53.25 177.839 52.7273 177.51 52.0568C177.184 51.3826 177.021 50.5985 177.021 49.7045C177.021 48.8106 177.184 48.0227 177.51 47.3409C177.839 46.6553 178.298 46.1212 178.885 45.7386C179.476 45.3523 180.165 45.1591 180.953 45.1591C181.408 45.1591 181.857 45.2348 182.3 45.3864C182.743 45.5379 183.146 45.7841 183.51 46.125C183.874 46.4621 184.163 46.9091 184.379 47.4659C184.595 48.0227 184.703 48.7083 184.703 49.5227V50.0909H177.976V48.9318H183.339C183.339 48.4394 183.241 48 183.044 47.6136C182.851 47.2273 182.574 46.9223 182.214 46.6989C181.858 46.4754 181.438 46.3636 180.953 46.3636C180.419 46.3636 179.957 46.4962 179.567 46.7614C179.18 47.0227 178.883 47.3636 178.675 47.7841C178.466 48.2045 178.362 48.6553 178.362 49.1364V49.9091C178.362 50.5682 178.476 51.1269 178.703 51.5852C178.934 52.0398 179.254 52.3864 179.663 52.625C180.072 52.8598 180.548 52.9773 181.089 52.9773C181.442 52.9773 181.76 52.928 182.044 52.8295C182.332 52.7273 182.58 52.5758 182.788 52.375C182.997 52.1705 183.158 51.9167 183.271 51.6136L184.567 51.9773C184.43 52.4167 184.201 52.803 183.879 53.1364C183.557 53.4659 183.16 53.7235 182.686 53.9091C182.213 54.0909 181.68 54.1818 181.089 54.1818ZM186.743 54V45.2727H188.038V46.6364H188.152C188.334 46.1705 188.627 45.8087 189.033 45.5511C189.438 45.2898 189.925 45.1591 190.493 45.1591C191.069 45.1591 191.548 45.2898 191.93 45.5511C192.317 45.8087 192.618 46.1705 192.834 46.6364H192.925C193.148 46.1856 193.483 45.8277 193.93 45.5625C194.377 45.2936 194.913 45.1591 195.538 45.1591C196.319 45.1591 196.957 45.4034 197.453 45.892C197.949 46.3769 198.197 47.1326 198.197 48.1591V54H196.857V48.1591C196.857 47.5152 196.68 47.0549 196.328 46.7784C195.976 46.5019 195.561 46.3636 195.084 46.3636C194.47 46.3636 193.995 46.5492 193.658 46.9205C193.321 47.2879 193.152 47.7538 193.152 48.3182V54H191.788V48.0227C191.788 47.5265 191.627 47.1269 191.305 46.8239C190.983 46.517 190.569 46.3636 190.061 46.3636C189.713 46.3636 189.387 46.4564 189.084 46.642C188.785 46.8277 188.542 47.0852 188.357 47.4148C188.175 47.7405 188.084 48.1174 188.084 48.5455V54H186.743ZM203.217 54.2045C202.664 54.2045 202.162 54.1004 201.712 53.892C201.261 53.6799 200.903 53.375 200.638 52.9773C200.373 52.5758 200.24 52.0909 200.24 51.5227C200.24 51.0227 200.339 50.6174 200.536 50.3068C200.732 49.9924 200.996 49.7462 201.325 49.5682C201.655 49.3902 202.018 49.2576 202.416 49.1705C202.818 49.0795 203.221 49.0076 203.626 48.9545C204.157 48.8864 204.587 48.8352 204.916 48.8011C205.25 48.7633 205.492 48.7008 205.643 48.6136C205.799 48.5265 205.876 48.375 205.876 48.1591V48.1136C205.876 47.553 205.723 47.1174 205.416 46.8068C205.113 46.4962 204.653 46.3409 204.036 46.3409C203.395 46.3409 202.893 46.4811 202.53 46.7614C202.166 47.0417 201.911 47.3409 201.763 47.6591L200.49 47.2045C200.717 46.6742 201.02 46.2614 201.399 45.9659C201.782 45.6667 202.198 45.4583 202.649 45.3409C203.104 45.2197 203.551 45.1591 203.99 45.1591C204.27 45.1591 204.592 45.1932 204.956 45.2614C205.323 45.3258 205.678 45.4602 206.018 45.6648C206.363 45.8693 206.649 46.178 206.876 46.5909C207.104 47.0038 207.217 47.5568 207.217 48.25V54H205.876V52.8182H205.808C205.717 53.0076 205.566 53.2102 205.354 53.4261C205.142 53.642 204.859 53.8258 204.507 53.9773C204.155 54.1288 203.725 54.2045 203.217 54.2045ZM203.422 53C203.952 53 204.399 52.8958 204.763 52.6875C205.13 52.4792 205.407 52.2102 205.592 51.8807C205.782 51.5511 205.876 51.2045 205.876 50.8409V49.6136C205.82 49.6818 205.695 49.7443 205.501 49.8011C205.312 49.8542 205.092 49.9015 204.842 49.9432C204.596 49.9811 204.356 50.0152 204.121 50.0455C203.89 50.072 203.702 50.0947 203.558 50.1136C203.21 50.1591 202.884 50.233 202.581 50.3352C202.282 50.4337 202.039 50.5833 201.854 50.7841C201.672 50.9811 201.581 51.25 201.581 51.5909C201.581 52.0568 201.753 52.4091 202.098 52.6477C202.446 52.8826 202.888 53 203.422 53ZM211.006 42.3636V54H209.665V42.3636H211.006ZM217.121 54.1818C216.28 54.1818 215.554 53.9962 214.945 53.625C214.339 53.25 213.871 52.7273 213.541 52.0568C213.215 51.3826 213.053 50.5985 213.053 49.7045C213.053 48.8106 213.215 48.0227 213.541 47.3409C213.871 46.6553 214.329 46.1212 214.916 45.7386C215.507 45.3523 216.196 45.1591 216.984 45.1591C217.439 45.1591 217.888 45.2348 218.331 45.3864C218.774 45.5379 219.178 45.7841 219.541 46.125C219.905 46.4621 220.195 46.9091 220.411 47.4659C220.626 48.0227 220.734 48.7083 220.734 49.5227V50.0909H214.007V48.9318H219.371C219.371 48.4394 219.272 48 219.075 47.6136C218.882 47.2273 218.606 46.9223 218.246 46.6989C217.89 46.4754 217.469 46.3636 216.984 46.3636C216.45 46.3636 215.988 46.4962 215.598 46.7614C215.212 47.0227 214.914 47.3636 214.706 47.7841C214.498 48.2045 214.393 48.6553 214.393 49.1364V49.9091C214.393 50.5682 214.507 51.1269 214.734 51.5852C214.965 52.0398 215.286 52.3864 215.695 52.625C216.104 52.8598 216.579 52.9773 217.121 52.9773C217.473 52.9773 217.791 52.928 218.075 52.8295C218.363 52.7273 218.611 52.5758 218.82 52.375C219.028 52.1705 219.189 51.9167 219.303 51.6136L220.598 51.9773C220.462 52.4167 220.232 52.803 219.911 53.1364C219.589 53.4659 219.191 53.7235 218.717 53.9091C218.244 54.0909 217.712 54.1818 217.121 54.1818Z" fill="black"/>
<path d="M285.274 48.1818C285.274 49.4091 285.053 50.4697 284.609 51.3636C284.166 52.2576 283.558 52.947 282.786 53.4318C282.013 53.9167 281.13 54.1591 280.138 54.1591C279.145 54.1591 278.263 53.9167 277.49 53.4318C276.717 52.947 276.109 52.2576 275.666 51.3636C275.223 50.4697 275.001 49.4091 275.001 48.1818C275.001 46.9545 275.223 45.8939 275.666 45C276.109 44.1061 276.717 43.4167 277.49 42.9318C278.263 42.447 279.145 42.2045 280.138 42.2045C281.13 42.2045 282.013 42.447 282.786 42.9318C283.558 43.4167 284.166 44.1061 284.609 45C285.053 45.8939 285.274 46.9545 285.274 48.1818ZM283.911 48.1818C283.911 47.1742 283.742 46.3239 283.405 45.6307C283.071 44.9375 282.619 44.4129 282.047 44.0568C281.479 43.7008 280.842 43.5227 280.138 43.5227C279.433 43.5227 278.795 43.7008 278.223 44.0568C277.655 44.4129 277.202 44.9375 276.865 45.6307C276.532 46.3239 276.365 47.1742 276.365 48.1818C276.365 49.1894 276.532 50.0398 276.865 50.733C277.202 51.4261 277.655 51.9508 278.223 52.3068C278.795 52.6629 279.433 52.8409 280.138 52.8409C280.842 52.8409 281.479 52.6629 282.047 52.3068C282.619 51.9508 283.071 51.4261 283.405 50.733C283.742 50.0398 283.911 49.1894 283.911 48.1818ZM291.257 45.2727V46.4091H286.734V45.2727H291.257ZM288.053 43.1818H289.393V51.5C289.393 51.8788 289.448 52.1629 289.558 52.3523C289.672 52.5379 289.816 52.6629 289.99 52.7273C290.168 52.7879 290.356 52.8182 290.553 52.8182C290.7 52.8182 290.821 52.8106 290.916 52.7955C291.011 52.7765 291.087 52.7614 291.143 52.75L291.416 53.9545C291.325 53.9886 291.198 54.0227 291.036 54.0568C290.873 54.0947 290.666 54.1136 290.416 54.1136C290.037 54.1136 289.666 54.0322 289.303 53.8693C288.943 53.7064 288.643 53.4583 288.405 53.125C288.17 52.7917 288.053 52.3712 288.053 51.8636V43.1818ZM294.803 48.75V54H293.462V42.3636H294.803V46.6364H294.916C295.121 46.1856 295.428 45.8277 295.837 45.5625C296.25 45.2936 296.799 45.1591 297.484 45.1591C298.079 45.1591 298.6 45.2784 299.047 45.517C299.494 45.7519 299.84 46.1136 300.087 46.6023C300.337 47.0871 300.462 47.7045 300.462 48.4545V54H299.121V48.5455C299.121 47.8523 298.941 47.3163 298.581 46.9375C298.225 46.5549 297.731 46.3636 297.098 46.3636C296.659 46.3636 296.265 46.4564 295.916 46.642C295.571 46.8277 295.299 47.0985 295.098 47.4545C294.901 47.8106 294.803 48.2424 294.803 48.75ZM306.574 54.1818C305.733 54.1818 305.008 53.9962 304.398 53.625C303.792 53.25 303.324 52.7273 302.994 52.0568C302.669 51.3826 302.506 50.5985 302.506 49.7045C302.506 48.8106 302.669 48.0227 302.994 47.3409C303.324 46.6553 303.782 46.1212 304.369 45.7386C304.96 45.3523 305.65 45.1591 306.438 45.1591C306.892 45.1591 307.341 45.2348 307.784 45.3864C308.227 45.5379 308.631 45.7841 308.994 46.125C309.358 46.4621 309.648 46.9091 309.864 47.4659C310.08 48.0227 310.188 48.7083 310.188 49.5227V50.0909H303.46V48.9318H308.824C308.824 48.4394 308.725 48 308.528 47.6136C308.335 47.2273 308.059 46.9223 307.699 46.6989C307.343 46.4754 306.922 46.3636 306.438 46.3636C305.903 46.3636 305.441 46.4962 305.051 46.7614C304.665 47.0227 304.367 47.3636 304.159 47.7841C303.951 48.2045 303.847 48.6553 303.847 49.1364V49.9091C303.847 50.5682 303.96 51.1269 304.188 51.5852C304.419 52.0398 304.739 52.3864 305.148 52.625C305.557 52.8598 306.032 52.9773 306.574 52.9773C306.926 52.9773 307.244 52.928 307.528 52.8295C307.816 52.7273 308.064 52.5758 308.273 52.375C308.481 52.1705 308.642 51.9167 308.756 51.6136L310.051 51.9773C309.915 52.4167 309.686 52.803 309.364 53.1364C309.042 53.4659 308.644 53.7235 308.17 53.9091C307.697 54.0909 307.165 54.1818 306.574 54.1818ZM312.227 54V45.2727H313.523V46.5909H313.614C313.773 46.1591 314.061 45.8087 314.477 45.5398C314.894 45.2708 315.364 45.1364 315.886 45.1364C315.985 45.1364 316.108 45.1383 316.256 45.142C316.403 45.1458 316.515 45.1515 316.591 45.1591V46.5227C316.545 46.5114 316.441 46.4943 316.278 46.4716C316.119 46.4451 315.951 46.4318 315.773 46.4318C315.348 46.4318 314.97 46.5208 314.636 46.6989C314.307 46.8731 314.045 47.1155 313.852 47.4261C313.663 47.733 313.568 48.0833 313.568 48.4773V54H312.227Z" fill="black"/>
<g clip-path="url(#clip0_83_45)">
<path d="M58 47C58 41.4775 62.4775 37 68 37C73.5225 37 78 41.4775 78 47C78 52.5225 73.5225 57 68 57C62.48 56.9933 58.0067 52.52 58 47.0008V47ZM60 47C60 51.4183 63.5817 55 68 55C72.4183 55 76 51.4183 76 47C76 42.5817 72.4183 39 68 39C63.5842 39.005 60.005 42.5842 60 46.9992V47ZM63.3333 47C63.3333 45.7623 63.825 44.5753 64.7002 43.7002C65.5753 42.825 66.7623 42.3333 68 42.3333C69.2377 42.3333 70.4247 42.825 71.2998 43.7002C72.175 44.5753 72.6667 45.7623 72.6667 47C72.6667 48.2377 72.175 49.4247 71.2998 50.2998C70.4247 51.175 69.2377 51.6667 68 51.6667C66.7623 51.6667 65.5753 51.175 64.7002 50.2998C63.825 49.4247 63.3333 48.2377 63.3333 47Z" fill="black"/>
</g>
<g clip-path="url(#clip1_83_45)">
<path d="M143 49C143 43.4775 147.478 39 153 39C158.522 39 163 43.4775 163 49C163 54.5225 158.522 59 153 59C147.48 58.9933 143.007 54.52 143 49.0008V49ZM145 49C145 53.4183 148.582 57 153 57C157.418 57 161 53.4183 161 49C161 44.5817 157.418 41 153 41C148.584 41.005 145.005 44.5842 145 48.9992V49ZM148.333 49C148.333 47.7623 148.825 46.5753 149.7 45.7002C150.575 44.825 151.762 44.3333 153 44.3333C154.238 44.3333 155.425 44.825 156.3 45.7002C157.175 46.5753 157.667 47.7623 157.667 49C157.667 50.2377 157.175 51.4247 156.3 52.2998C155.425 53.175 154.238 53.6667 153 53.6667C151.762 53.6667 150.575 53.175 149.7 52.2998C148.825 51.4247 148.333 50.2377 148.333 49Z" fill="black"/>
</g>
<g clip-path="url(#clip2_83_45)">
<path d="M251 49C251 43.4775 255.478 39 261 39C266.522 39 271 43.4775 271 49C271 54.5225 266.522 59 261 59C255.48 58.9933 251.007 54.52 251 49.0008V49ZM253 49C253 53.4183 256.582 57 261 57C265.418 57 269 53.4183 269 49C269 44.5817 265.418 41 261 41C256.584 41.005 253.005 44.5842 253 48.9992V49ZM256.333 49C256.333 47.7623 256.825 46.5753 257.7 45.7002C258.575 44.825 259.762 44.3333 261 44.3333C262.238 44.3333 263.425 44.825 264.3 45.7002C265.175 46.5753 265.667 47.7623 265.667 49C265.667 50.2377 265.175 51.4247 264.3 52.2998C263.425 53.175 262.238 53.6667 261 53.6667C259.762 53.6667 258.575 53.175 257.7 52.2998C256.825 51.4247 256.333 50.2377 256.333 49Z" fill="black"/>
</g>
<defs>
<clipPath id="clip0_83_45">
<rect width="20" height="20" fill="white" transform="translate(58 37)"/>
</clipPath>
<clipPath id="clip1_83_45">
<rect width="20" height="20" fill="white" transform="translate(143 39)"/>
</clipPath>
<clipPath id="clip2_83_45">
<rect width="20" height="20" fill="white" transform="translate(251 39)"/>
</clipPath>
</defs>
</svg>
