<svg width="240" height="72" viewBox="0 0 240 72" fill="none" xmlns="http://www.w3.org/2000/svg">
<rect x="1" y="1" width="238" height="70" rx="35" fill="url(#paint0_linear_83_19)" stroke="black" stroke-width="2"/>
<path d="M55.1907 32.2692C55.1315 31.6181 54.8681 31.1121 54.4005 30.7511C53.9389 30.3841 53.279 30.2006 52.4208 30.2006C51.8526 30.2006 51.3791 30.2746 51.0003 30.4226C50.6215 30.5705 50.3374 30.7747 50.148 31.0352C49.9586 31.2897 49.861 31.5826 49.8551 31.9141C49.8432 32.1863 49.8965 32.426 50.0149 32.6332C50.1392 32.8403 50.3167 33.0238 50.5475 33.1836C50.7843 33.3375 51.0684 33.4736 51.3998 33.592C51.7313 33.7103 52.1041 33.8139 52.5184 33.9027L54.0809 34.2578C54.9805 34.4531 55.7736 34.7135 56.4602 35.0391C57.1527 35.3646 57.7327 35.7522 58.2002 36.2021C58.6737 36.6519 59.0318 37.1697 59.2745 37.7557C59.5171 38.3416 59.6414 38.9986 59.6473 39.7266C59.6414 40.8748 59.3514 41.8602 58.7773 42.6829C58.2032 43.5056 57.3776 44.1359 56.3004 44.5739C55.2291 45.0118 53.9359 45.2308 52.4208 45.2308C50.8997 45.2308 49.5739 45.003 48.4435 44.5472C47.313 44.0915 46.4341 43.399 45.8068 42.4698C45.1794 41.5406 44.8568 40.3658 44.8391 38.9453H49.0472C49.0827 39.5312 49.2395 40.0195 49.5177 40.4102C49.7959 40.8008 50.1776 41.0967 50.663 41.2979C51.1542 41.4992 51.7224 41.5998 52.3675 41.5998C52.9594 41.5998 53.4624 41.5199 53.8767 41.3601C54.2969 41.2003 54.6195 40.9783 54.8444 40.6942C55.0693 40.4102 55.1847 40.0846 55.1907 39.7177C55.1847 39.3744 55.0782 39.0814 54.871 38.8388C54.6639 38.5902 54.3443 38.3771 53.9122 38.1996C53.4861 38.0161 52.9416 37.8474 52.2787 37.6935L50.3789 37.2496C48.8045 36.8886 47.5646 36.3056 46.659 35.5007C45.7535 34.6899 45.3037 33.5949 45.3096 32.2159C45.3037 31.0914 45.6055 30.1059 46.2152 29.2596C46.8248 28.4132 47.6682 27.7533 48.7453 27.2798C49.8225 26.8063 51.0506 26.5696 52.4296 26.5696C53.8383 26.5696 55.0604 26.8093 56.0962 27.2887C57.1379 27.7622 57.9457 28.428 58.5198 29.2862C59.0939 30.1444 59.3869 31.1387 59.3987 32.2692H55.1907ZM65.7109 45.2308C64.8409 45.2308 64.0685 45.0858 63.3938 44.7958C62.725 44.4999 62.1953 44.056 61.8046 43.4641C61.4199 42.8664 61.2276 42.1177 61.2276 41.218C61.2276 40.4605 61.3608 39.8213 61.6271 39.3004C61.8934 38.7796 62.2604 38.3564 62.7279 38.0309C63.1955 37.7054 63.7341 37.4598 64.3437 37.294C64.9533 37.1224 65.6044 37.007 66.2968 36.9478C67.0722 36.8768 67.6966 36.8028 68.1701 36.7259C68.6435 36.643 68.9868 36.5276 69.1999 36.3796C69.4189 36.2257 69.5284 36.0097 69.5284 35.7315V35.6871C69.5284 35.2314 69.3715 34.8793 69.0578 34.6307C68.7442 34.3821 68.321 34.2578 67.7883 34.2578C67.2142 34.2578 66.7526 34.3821 66.4034 34.6307C66.0542 34.8793 65.8322 35.2225 65.7375 35.6605L61.7336 35.5185C61.852 34.6899 62.1568 33.95 62.648 33.299C63.1452 32.642 63.8258 32.1271 64.6899 31.7543C65.56 31.3755 66.6046 31.1861 67.8238 31.1861C68.6938 31.1861 69.4958 31.2897 70.2297 31.4968C70.9636 31.698 71.6028 31.994 72.1473 32.3846C72.6918 32.7693 73.1121 33.2428 73.408 33.805C73.7098 34.3673 73.8608 35.0095 73.8608 35.7315V45H69.7769V43.1001H69.6704C69.4277 43.5618 69.117 43.9524 68.7382 44.272C68.3654 44.5916 67.9244 44.8313 67.4154 44.9911C66.9124 45.1509 66.3442 45.2308 65.7109 45.2308ZM67.0514 42.3899C67.519 42.3899 67.9392 42.2952 68.3121 42.1058C68.6909 41.9164 68.9927 41.656 69.2176 41.3246C69.4425 40.9872 69.555 40.5966 69.555 40.1527V38.8565C69.4307 38.9216 69.2798 38.9808 69.1022 39.0341C68.9306 39.0874 68.7412 39.1377 68.534 39.185C68.3269 39.2324 68.1138 39.2738 67.8948 39.3093C67.6759 39.3448 67.4657 39.3774 67.2645 39.407C66.8561 39.4721 66.5069 39.5727 66.2169 39.7088C65.9328 39.8449 65.7139 40.0225 65.56 40.2415C65.412 40.4545 65.338 40.709 65.338 41.005C65.338 41.4548 65.4978 41.7981 65.8174 42.0348C66.1429 42.2715 66.5543 42.3899 67.0514 42.3899ZM89.2549 31.3636L84.5763 45H79.6047L74.935 31.3636H79.5071L82.0195 40.7564H82.1615L84.6828 31.3636H89.2549ZM96.8544 45.2575C95.428 45.2575 94.1969 44.9763 93.1612 44.4141C92.1313 43.8459 91.3383 43.038 90.7819 41.9904C90.2315 40.9369 89.9563 39.6851 89.9563 38.2351C89.9563 36.8265 90.2344 35.5954 90.7908 34.5419C91.3471 33.4825 92.1313 32.6598 93.1434 32.0739C94.1555 31.482 95.3481 31.1861 96.7212 31.1861C97.6918 31.1861 98.5796 31.337 99.3845 31.6388C100.189 31.9407 100.885 32.3875 101.471 32.9794C102.057 33.5713 102.513 34.3022 102.838 35.1722C103.164 36.0363 103.326 37.0277 103.326 38.1463V39.2294H91.4744V36.7081H99.2869C99.281 36.2464 99.1715 35.8351 98.9584 35.4741C98.7453 35.113 98.4524 34.8319 98.0795 34.6307C97.7126 34.4235 97.2894 34.32 96.81 34.32C96.3246 34.32 95.8896 34.4295 95.5049 34.6484C95.1202 34.8615 94.8154 35.1545 94.5905 35.5273C94.3656 35.8943 94.2472 36.3116 94.2354 36.7791V39.3448C94.2354 39.9012 94.3449 40.3894 94.5639 40.8097C94.7829 41.224 95.0936 41.5465 95.496 41.7773C95.8985 42.0082 96.3779 42.1236 96.9343 42.1236C97.319 42.1236 97.6682 42.0703 97.9818 41.9638C98.2955 41.8572 98.5648 41.7004 98.7897 41.4933C99.0146 41.2861 99.1833 41.0316 99.2958 40.7298L103.282 40.8452C103.116 41.7389 102.752 42.5172 102.19 43.18C101.634 43.837 100.903 44.349 99.9971 44.7159C99.0916 45.0769 98.044 45.2575 96.8544 45.2575ZM117.635 45H110.915V26.8182H117.626C119.479 26.8182 121.074 27.1822 122.411 27.9102C123.755 28.6322 124.791 29.6739 125.519 31.0352C126.247 32.3905 126.611 34.0122 126.611 35.9002C126.611 37.7942 126.247 39.4218 125.519 40.783C124.797 42.1443 123.764 43.1889 122.42 43.9169C121.077 44.639 119.482 45 117.635 45ZM115.309 41.2536H117.466C118.484 41.2536 119.346 41.0819 120.05 40.7386C120.76 40.3894 121.296 39.8242 121.657 39.043C122.024 38.2558 122.207 37.2082 122.207 35.9002C122.207 34.5922 122.024 33.5505 121.657 32.7752C121.29 31.994 120.748 31.4317 120.032 31.0884C119.322 30.7392 118.446 30.5646 117.404 30.5646H115.309V41.2536ZM135.551 45.2575C134.124 45.2575 132.893 44.9763 131.857 44.4141C130.828 43.8459 130.035 43.038 129.478 41.9904C128.928 40.9369 128.653 39.6851 128.653 38.2351C128.653 36.8265 128.931 35.5954 129.487 34.5419C130.043 33.4825 130.828 32.6598 131.84 32.0739C132.852 31.482 134.044 31.1861 135.417 31.1861C136.388 31.1861 137.276 31.337 138.081 31.6388C138.886 31.9407 139.581 32.3875 140.167 32.9794C140.753 33.5713 141.209 34.3022 141.534 35.1722C141.86 36.0363 142.023 37.0277 142.023 38.1463V39.2294H130.171V36.7081H137.983C137.977 36.2464 137.868 35.8351 137.655 35.4741C137.442 35.113 137.149 34.8319 136.776 34.6307C136.409 34.4235 135.986 34.32 135.506 34.32C135.021 34.32 134.586 34.4295 134.201 34.6484C133.817 34.8615 133.512 35.1545 133.287 35.5273C133.062 35.8943 132.944 36.3116 132.932 36.7791V39.3448C132.932 39.9012 133.041 40.3894 133.26 40.8097C133.479 41.224 133.79 41.5465 134.192 41.7773C134.595 42.0082 135.074 42.1236 135.631 42.1236C136.015 42.1236 136.364 42.0703 136.678 41.9638C136.992 41.8572 137.261 41.7004 137.486 41.4933C137.711 41.2861 137.88 41.0316 137.992 40.7298L141.978 40.8452C141.812 41.7389 141.448 42.5172 140.886 43.18C140.33 43.837 139.599 44.349 138.693 44.7159C137.788 45.0769 136.74 45.2575 135.551 45.2575ZM151.937 31.3636V34.5597H143.334V31.3636H151.937ZM145.136 28.0966H149.478V40.712C149.478 40.9783 149.519 41.1944 149.602 41.3601C149.691 41.5199 149.818 41.6353 149.984 41.7063C150.15 41.7714 150.348 41.804 150.579 41.804C150.744 41.804 150.919 41.7892 151.102 41.7596C151.292 41.7241 151.434 41.6945 151.529 41.6708L152.186 44.8047C151.978 44.8639 151.685 44.9379 151.307 45.0266C150.934 45.1154 150.487 45.1716 149.966 45.1953C148.948 45.2427 148.075 45.1243 147.347 44.8402C146.625 44.5502 146.072 44.1004 145.687 43.4908C145.308 42.8812 145.125 42.1147 145.136 41.1914V28.0966ZM157.996 45.2308C157.126 45.2308 156.354 45.0858 155.679 44.7958C155.01 44.4999 154.48 44.056 154.09 43.4641C153.705 42.8664 153.513 42.1177 153.513 41.218C153.513 40.4605 153.646 39.8213 153.912 39.3004C154.179 38.7796 154.546 38.3564 155.013 38.0309C155.481 37.7054 156.019 37.4598 156.629 37.294C157.238 37.1224 157.89 37.007 158.582 36.9478C159.357 36.8768 159.982 36.8028 160.455 36.7259C160.929 36.643 161.272 36.5276 161.485 36.3796C161.704 36.2257 161.814 36.0097 161.814 35.7315V35.6871C161.814 35.2314 161.657 34.8793 161.343 34.6307C161.029 34.3821 160.606 34.2578 160.073 34.2578C159.499 34.2578 159.038 34.3821 158.689 34.6307C158.339 34.8793 158.117 35.2225 158.023 35.6605L154.019 35.5185C154.137 34.6899 154.442 33.95 154.933 33.299C155.43 32.642 156.111 32.1271 156.975 31.7543C157.845 31.3755 158.89 31.1861 160.109 31.1861C160.979 31.1861 161.781 31.2897 162.515 31.4968C163.249 31.698 163.888 31.994 164.432 32.3846C164.977 32.7693 165.397 33.2428 165.693 33.805C165.995 34.3673 166.146 35.0095 166.146 35.7315V45H162.062V43.1001H161.956C161.713 43.5618 161.402 43.9524 161.023 44.272C160.651 44.5916 160.21 44.8313 159.701 44.9911C159.198 45.1509 158.629 45.2308 157.996 45.2308ZM159.337 42.3899C159.804 42.3899 160.224 42.2952 160.597 42.1058C160.976 41.9164 161.278 41.656 161.503 41.3246C161.728 40.9872 161.84 40.5966 161.84 40.1527V38.8565C161.716 38.9216 161.565 38.9808 161.387 39.0341C161.216 39.0874 161.026 39.1377 160.819 39.185C160.612 39.2324 160.399 39.2738 160.18 39.3093C159.961 39.3448 159.751 39.3774 159.55 39.407C159.141 39.4721 158.792 39.5727 158.502 39.7088C158.218 39.8449 157.999 40.0225 157.845 40.2415C157.697 40.4545 157.623 40.709 157.623 41.005C157.623 41.4548 157.783 41.7981 158.103 42.0348C158.428 42.2715 158.839 42.3899 159.337 42.3899ZM168.8 45V31.3636H173.142V45H168.8ZM170.975 29.7745C170.366 29.7745 169.842 29.5733 169.404 29.1708C168.966 28.7624 168.747 28.2712 168.747 27.6971C168.747 27.1289 168.966 26.6436 169.404 26.2411C169.842 25.8327 170.366 25.6286 170.975 25.6286C171.591 25.6286 172.115 25.8327 172.547 26.2411C172.985 26.6436 173.204 27.1289 173.204 27.6971C173.204 28.2712 172.985 28.7624 172.547 29.1708C172.115 29.5733 171.591 29.7745 170.975 29.7745ZM180.246 26.8182V45H175.905V26.8182H180.246ZM194.915 35.5273L190.928 35.6339C190.887 35.3498 190.775 35.0982 190.591 34.8793C190.408 34.6544 190.168 34.4798 189.872 34.3555C189.582 34.2253 189.245 34.1602 188.86 34.1602C188.357 34.1602 187.928 34.2608 187.573 34.462C187.223 34.6632 187.052 34.9355 187.058 35.2788C187.052 35.5451 187.158 35.7759 187.377 35.9712C187.602 36.1665 188.002 36.3234 188.576 36.4418L191.204 36.9389C192.565 37.1993 193.577 37.6314 194.24 38.2351C194.909 38.8388 195.246 39.6378 195.252 40.6321C195.246 41.5672 194.968 42.381 194.417 43.0735C193.873 43.766 193.127 44.3046 192.18 44.6893C191.233 45.0681 190.15 45.2575 188.931 45.2575C186.984 45.2575 185.448 44.858 184.323 44.0589C183.205 43.254 182.565 42.1768 182.406 40.8274L186.694 40.7209C186.788 41.218 187.034 41.5968 187.431 41.8572C187.827 42.1177 188.333 42.2479 188.949 42.2479C189.505 42.2479 189.958 42.1443 190.307 41.9371C190.656 41.73 190.834 41.4548 190.84 41.1115C190.834 40.8037 190.698 40.5581 190.431 40.3746C190.165 40.1853 189.748 40.0373 189.179 39.9308L186.8 39.478C185.433 39.2294 184.415 38.7707 183.746 38.1019C183.077 37.4272 182.746 36.569 182.752 35.5273C182.746 34.6159 182.989 33.8376 183.48 33.1925C183.971 32.5414 184.67 32.0443 185.575 31.701C186.481 31.3577 187.549 31.1861 188.78 31.1861C190.627 31.1861 192.083 31.5737 193.148 32.3491C194.213 33.1185 194.802 34.1779 194.915 35.5273Z" fill="white"/>
<defs>
<linearGradient id="paint0_linear_83_19" x1="0" y1="0" x2="250.527" y2="85.1599" gradientUnits="userSpaceOnUse">
<stop stop-color="#FFB7B7"/>
<stop offset="0.172137" stop-color="#FA2D2D"/>
<stop offset="0.651338" stop-color="#FC3232"/>
<stop offset="0.919254" stop-color="#F3B7B7"/>
</linearGradient>
</defs>
</svg>
