<svg width="359" height="92" viewBox="0 0 359 92" fill="none" xmlns="http://www.w3.org/2000/svg">
<path d="M58.7944 23.112C59.1864 23.8213 59.6251 24.4373 60.1104 24.96C60.6144 25.4827 61.1557 25.884 61.7344 26.164C62.3317 26.444 62.9571 26.584 63.6104 26.584C64.3011 26.584 64.8704 26.416 65.3184 26.08C65.7664 25.7253 65.9904 25.2493 65.9904 24.652C65.9904 24.148 65.8597 23.7467 65.5984 23.448C65.3371 23.1307 64.9171 22.832 64.3384 22.552C63.7597 22.272 62.9944 21.9547 62.0424 21.6C61.5757 21.432 61.0344 21.1987 60.4184 20.9C59.8211 20.6013 59.2517 20.2187 58.7104 19.752C58.1691 19.2667 57.7211 18.688 57.3664 18.016C57.0117 17.3253 56.8344 16.4947 56.8344 15.524C56.8344 14.3667 57.1331 13.368 57.7304 12.528C58.3464 11.688 59.1677 11.0533 60.1944 10.624C61.2397 10.176 62.3971 9.952 63.6664 9.952C64.9731 9.952 66.1024 10.1667 67.0544 10.596C68.0251 11.0253 68.8277 11.5667 69.4624 12.22C70.0971 12.8733 70.5824 13.536 70.9184 14.208L67.3064 16.224C67.0264 15.7573 66.6997 15.356 66.3264 15.02C65.9717 14.6653 65.5704 14.3947 65.1224 14.208C64.6931 14.0027 64.2264 13.9 63.7224 13.9C63.0504 13.9 62.5371 14.0493 62.1824 14.348C61.8277 14.628 61.6504 14.9827 61.6504 15.412C61.6504 15.86 61.8184 16.252 62.1544 16.588C62.5091 16.924 63.0037 17.232 63.6384 17.512C64.2917 17.792 65.0757 18.0907 65.9904 18.408C66.6811 18.6693 67.3251 18.9773 67.9224 19.332C68.5197 19.668 69.0424 20.0787 69.4904 20.564C69.9571 21.0493 70.3211 21.6093 70.5824 22.244C70.8437 22.8787 70.9744 23.6067 70.9744 24.428C70.9744 25.4173 70.7691 26.304 70.3584 27.088C69.9664 27.8533 69.4251 28.4973 68.7344 29.02C68.0624 29.5427 67.2877 29.9347 66.4104 30.196C65.5517 30.476 64.6651 30.616 63.7504 30.616C62.4811 30.616 61.2957 30.392 60.1944 29.944C59.1117 29.4773 58.1691 28.852 57.3664 28.068C56.5637 27.284 55.9384 26.4253 55.4904 25.492L58.7944 23.112ZM80.2704 30.28C78.7771 30.28 77.4797 30.0093 76.3784 29.468C75.2957 28.908 74.4557 28.124 73.8584 27.116C73.2611 26.108 72.9624 24.9227 72.9624 23.56C72.9624 22.1787 73.2517 20.984 73.8304 19.976C74.4091 18.968 75.2397 18.1933 76.3224 17.652C77.4237 17.1107 78.7211 16.84 80.2144 16.84C81.7077 16.84 82.9677 17.1013 83.9944 17.624C85.0211 18.128 85.8051 18.8653 86.3464 19.836C86.8877 20.8067 87.1584 21.9827 87.1584 23.364C87.1584 23.5693 87.1584 23.7747 87.1584 23.98C87.1584 24.1667 87.1397 24.3253 87.1024 24.456H75.3424V22.104H83.2944L82.2864 23.392C82.3797 23.2613 82.4544 23.1027 82.5104 22.916C82.5851 22.7107 82.6224 22.5427 82.6224 22.412C82.6224 21.852 82.5197 21.3667 82.3144 20.956C82.1091 20.5453 81.8197 20.228 81.4464 20.004C81.0731 19.78 80.6344 19.668 80.1304 19.668C79.4957 19.668 78.9637 19.808 78.5344 20.088C78.1051 20.368 77.7784 20.7973 77.5544 21.376C77.3491 21.936 77.2371 22.6453 77.2184 23.504C77.2184 24.288 77.3304 24.96 77.5544 25.52C77.7784 26.08 78.1144 26.5093 78.5624 26.808C79.0104 27.088 79.5611 27.228 80.2144 27.228C80.9611 27.228 81.5957 27.088 82.1184 26.808C82.6597 26.528 83.0891 26.108 83.4064 25.548L87.1864 26.472C86.5144 27.7413 85.5997 28.6933 84.4424 29.328C83.3037 29.9627 81.9131 30.28 80.2704 30.28ZM88.2572 17.12H96.8812V20.62H88.2572V17.12ZM90.5252 12.64H94.5852V30H90.5252V12.64ZM107.358 10.4H112.09V23.224C112.09 24.2133 112.351 25.016 112.874 25.632C113.396 26.248 114.18 26.556 115.226 26.556C116.29 26.556 117.083 26.248 117.606 25.632C118.128 25.016 118.39 24.2133 118.39 23.224V10.4H123.122V23.56C123.122 24.792 122.916 25.8653 122.506 26.78C122.114 27.6947 121.554 28.4507 120.826 29.048C120.116 29.6267 119.276 30.0653 118.306 30.364C117.354 30.6627 116.327 30.812 115.226 30.812C114.124 30.812 113.098 30.6627 112.146 30.364C111.194 30.0653 110.354 29.6267 109.626 29.048C108.916 28.4507 108.356 27.6947 107.946 26.78C107.554 25.8653 107.358 24.792 107.358 23.56V10.4ZM130.911 36.16H126.683V17.12H130.911V36.16ZM141.439 23.56C141.439 25.0533 141.14 26.3133 140.543 27.34C139.964 28.3667 139.208 29.1413 138.275 29.664C137.36 30.1867 136.371 30.448 135.307 30.448C134.187 30.448 133.216 30.168 132.395 29.608C131.592 29.0293 130.976 28.2267 130.547 27.2C130.117 26.1547 129.903 24.9413 129.903 23.56C129.903 22.16 130.117 20.9467 130.547 19.92C130.976 18.8933 131.592 18.1 132.395 17.54C133.216 16.9613 134.187 16.672 135.307 16.672C136.371 16.672 137.36 16.9333 138.275 17.456C139.208 17.9787 139.964 18.7533 140.543 19.78C141.14 20.788 141.439 22.048 141.439 23.56ZM136.987 23.56C136.987 22.888 136.847 22.3187 136.567 21.852C136.287 21.3853 135.913 21.0307 135.447 20.788C134.98 20.5453 134.467 20.424 133.907 20.424C133.421 20.424 132.945 20.5453 132.479 20.788C132.031 21.012 131.657 21.3573 131.359 21.824C131.06 22.2907 130.911 22.8693 130.911 23.56C130.911 24.2507 131.06 24.8293 131.359 25.296C131.657 25.7627 132.031 26.1173 132.479 26.36C132.945 26.584 133.421 26.696 133.907 26.696C134.467 26.696 134.98 26.5747 135.447 26.332C135.913 26.0893 136.287 25.7347 136.567 25.268C136.847 24.8013 136.987 24.232 136.987 23.56ZM163.81 10.4H169.242L162.382 22.02V30H157.566V22.048L150.706 10.4H156.138L159.974 17.764L163.81 10.4ZM167.326 23.56C167.326 22.1973 167.643 21.012 168.278 20.004C168.912 18.996 169.79 18.212 170.91 17.652C172.03 17.092 173.29 16.812 174.69 16.812C176.09 16.812 177.34 17.092 178.442 17.652C179.562 18.212 180.439 18.996 181.074 20.004C181.727 21.012 182.054 22.1973 182.054 23.56C182.054 24.904 181.727 26.08 181.074 27.088C180.439 28.096 179.562 28.88 178.442 29.44C177.34 30 176.09 30.28 174.69 30.28C173.29 30.28 172.03 30 170.91 29.44C169.79 28.88 168.912 28.096 168.278 27.088C167.643 26.08 167.326 24.904 167.326 23.56ZM171.666 23.56C171.666 24.232 171.806 24.8107 172.086 25.296C172.366 25.7627 172.73 26.1267 173.178 26.388C173.626 26.6493 174.13 26.78 174.69 26.78C175.231 26.78 175.726 26.6493 176.174 26.388C176.64 26.1267 177.004 25.7627 177.266 25.296C177.546 24.8107 177.686 24.232 177.686 23.56C177.686 22.888 177.546 22.3093 177.266 21.824C177.004 21.3387 176.64 20.9653 176.174 20.704C175.726 20.4427 175.231 20.312 174.69 20.312C174.13 20.312 173.626 20.4427 173.178 20.704C172.73 20.9653 172.366 21.3387 172.086 21.824C171.806 22.3093 171.666 22.888 171.666 23.56ZM189.021 24.96C189.021 25.7067 189.161 26.2947 189.441 26.724C189.721 27.1347 190.207 27.34 190.897 27.34C191.364 27.34 191.756 27.2467 192.073 27.06C192.409 26.8733 192.671 26.6027 192.857 26.248C193.044 25.8933 193.137 25.464 193.137 24.96V17.12H197.365V30H193.137V28.068C192.745 28.7587 192.232 29.3093 191.597 29.72C190.963 30.112 190.169 30.308 189.217 30.308C187.612 30.308 186.436 29.8787 185.689 29.02C184.961 28.1427 184.597 26.9387 184.597 25.408V17.12H189.021V24.96ZM204.875 17.12V30H200.703V17.12H204.875ZM208.599 21.488C208.375 21.264 208.132 21.0867 207.871 20.956C207.628 20.8253 207.32 20.76 206.947 20.76C206.536 20.76 206.172 20.872 205.855 21.096C205.537 21.32 205.295 21.6467 205.127 22.076C204.959 22.5053 204.875 23.028 204.875 23.644L203.867 22.16C203.867 21.1333 204.063 20.2187 204.455 19.416C204.865 18.6133 205.397 17.9787 206.051 17.512C206.704 17.0453 207.385 16.812 208.095 16.812C208.561 16.812 209.009 16.9053 209.439 17.092C209.868 17.2787 210.195 17.54 210.419 17.876L208.599 21.488ZM221.029 10.4H225.761V30H221.029V10.4ZM223.997 14.292V10.4H227.833C229.494 10.4 230.885 10.6613 232.005 11.184C233.144 11.688 234.002 12.416 234.581 13.368C235.16 14.32 235.449 15.468 235.449 16.812C235.449 18.1187 235.16 19.2573 234.581 20.228C234.002 21.18 233.144 21.9173 232.005 22.44C230.885 22.944 229.494 23.196 227.833 23.196H223.997V19.304H227.833C228.785 19.304 229.532 19.0893 230.073 18.66C230.614 18.2307 230.885 17.6147 230.885 16.812C230.885 15.9907 230.614 15.3653 230.073 14.936C229.532 14.5067 228.785 14.292 227.833 14.292H223.997ZM241.679 17.12V30H237.507V17.12H241.679ZM245.403 21.488C245.179 21.264 244.937 21.0867 244.675 20.956C244.433 20.8253 244.125 20.76 243.751 20.76C243.341 20.76 242.977 20.872 242.659 21.096C242.342 21.32 242.099 21.6467 241.931 22.076C241.763 22.5053 241.679 23.028 241.679 23.644L240.671 22.16C240.671 21.1333 240.867 20.2187 241.259 19.416C241.67 18.6133 242.202 17.9787 242.855 17.512C243.509 17.0453 244.19 16.812 244.899 16.812C245.366 16.812 245.814 16.9053 246.243 17.092C246.673 17.2787 246.999 17.54 247.223 17.876L245.403 21.488ZM247.853 23.56C247.853 22.1973 248.17 21.012 248.805 20.004C249.44 18.996 250.317 18.212 251.437 17.652C252.557 17.092 253.817 16.812 255.217 16.812C256.617 16.812 257.868 17.092 258.969 17.652C260.089 18.212 260.966 18.996 261.601 20.004C262.254 21.012 262.581 22.1973 262.581 23.56C262.581 24.904 262.254 26.08 261.601 27.088C260.966 28.096 260.089 28.88 258.969 29.44C257.868 30 256.617 30.28 255.217 30.28C253.817 30.28 252.557 30 251.437 29.44C250.317 28.88 249.44 28.096 248.805 27.088C248.17 26.08 247.853 24.904 247.853 23.56ZM252.193 23.56C252.193 24.232 252.333 24.8107 252.613 25.296C252.893 25.7627 253.257 26.1267 253.705 26.388C254.153 26.6493 254.657 26.78 255.217 26.78C255.758 26.78 256.253 26.6493 256.701 26.388C257.168 26.1267 257.532 25.7627 257.793 25.296C258.073 24.8107 258.213 24.232 258.213 23.56C258.213 22.888 258.073 22.3093 257.793 21.824C257.532 21.3387 257.168 20.9653 256.701 20.704C256.253 20.4427 255.758 20.312 255.217 20.312C254.657 20.312 254.153 20.4427 253.705 20.704C253.257 20.9653 252.893 21.3387 252.613 21.824C252.333 22.3093 252.193 22.888 252.193 23.56ZM263.977 17.12H272.769V20.62H263.977V17.12ZM272.293 12.22C272.106 11.9773 271.901 11.8 271.677 11.688C271.471 11.576 271.247 11.52 271.005 11.52C270.725 11.52 270.482 11.5853 270.277 11.716C270.09 11.8467 269.941 12.052 269.829 12.332C269.717 12.612 269.661 12.976 269.661 13.424V30H265.601V12.36C265.601 11.3893 265.778 10.5587 266.133 9.868C266.506 9.17733 267.047 8.64533 267.757 8.272C268.485 7.89867 269.381 7.712 270.445 7.712C271.098 7.712 271.649 7.796 272.097 7.964C272.545 8.11333 272.927 8.3 273.245 8.524C273.562 8.72933 273.814 8.92533 274.001 9.112L272.293 12.22ZM274.498 12.276C274.498 11.604 274.74 11.0627 275.226 10.652C275.711 10.2227 276.29 10.008 276.962 10.008C277.652 10.008 278.231 10.2227 278.698 10.652C279.183 11.0627 279.426 11.604 279.426 12.276C279.426 12.948 279.183 13.4987 278.698 13.928C278.231 14.3573 277.652 14.572 276.962 14.572C276.29 14.572 275.711 14.3573 275.226 13.928C274.74 13.4987 274.498 12.948 274.498 12.276ZM274.918 17.12H279.006V30H274.918V17.12ZM282.488 8.16H286.744V30H282.488V8.16ZM296.587 30.28C295.093 30.28 293.796 30.0093 292.695 29.468C291.612 28.908 290.772 28.124 290.175 27.116C289.577 26.108 289.279 24.9227 289.279 23.56C289.279 22.1787 289.568 20.984 290.147 19.976C290.725 18.968 291.556 18.1933 292.639 17.652C293.74 17.1107 295.037 16.84 296.531 16.84C298.024 16.84 299.284 17.1013 300.311 17.624C301.337 18.128 302.121 18.8653 302.663 19.836C303.204 20.8067 303.475 21.9827 303.475 23.364C303.475 23.5693 303.475 23.7747 303.475 23.98C303.475 24.1667 303.456 24.3253 303.419 24.456H291.659V22.104H299.611L298.603 23.392C298.696 23.2613 298.771 23.1027 298.827 22.916C298.901 22.7107 298.939 22.5427 298.939 22.412C298.939 21.852 298.836 21.3667 298.631 20.956C298.425 20.5453 298.136 20.228 297.763 20.004C297.389 19.78 296.951 19.668 296.447 19.668C295.812 19.668 295.28 19.808 294.851 20.088C294.421 20.368 294.095 20.7973 293.871 21.376C293.665 21.936 293.553 22.6453 293.535 23.504C293.535 24.288 293.647 24.96 293.871 25.52C294.095 26.08 294.431 26.5093 294.879 26.808C295.327 27.088 295.877 27.228 296.531 27.228C297.277 27.228 297.912 27.088 298.435 26.808C298.976 26.528 299.405 26.108 299.723 25.548L303.503 26.472C302.831 27.7413 301.916 28.6933 300.759 29.328C299.62 29.9627 298.229 30.28 296.587 30.28Z" fill="black" fill-opacity="0.78"/>
<path d="M69.6262 54.96C68.7462 54.6667 68.0795 54.3933 67.6262 54.14C67.1728 53.8867 66.9462 53.68 66.9462 53.52C66.9462 53.3733 66.9595 53.22 66.9862 53.06C67.0128 52.9 67.0395 52.6667 67.0662 52.36C67.0928 52.0533 67.1062 51.6133 67.1062 51.04V46.28C67.1062 45.2533 67.1795 44.4533 67.3262 43.88H67.0462C66.7528 43.88 66.4662 43.94 66.1862 44.06C65.9195 44.18 65.7262 44.3133 65.6062 44.46H65.1862L63.8862 42.54L64.0262 42.22H71.3662L72.3262 43.62L71.3262 44.46H70.9862C70.7328 44.22 70.5062 44.0667 70.3062 44C70.1195 43.92 69.8662 43.88 69.5462 43.88H69.4462C69.2328 44.4267 69.1262 45.1933 69.1262 46.18V51.48C69.1262 52.0533 69.1062 52.5133 69.0662 52.86C69.0395 53.1933 69.0262 53.4533 69.0262 53.64C69.0262 53.8667 69.3128 54.1133 69.8862 54.38L69.6262 54.96ZM75.7396 55C74.8863 54.68 74.2263 54.3933 73.7596 54.14C73.3063 53.8733 73.0796 53.6333 73.0796 53.42C73.0796 53.2333 73.0996 52.9467 73.1396 52.56C73.1929 52.16 73.2196 51.7733 73.2196 51.4V46.04C73.2196 45.24 73.2463 44.5067 73.2996 43.84C73.3663 43.16 73.4463 42.62 73.5396 42.22H72.6796L71.5796 40.92L71.7196 40.6H74.3196L75.4996 42.12C75.4063 42.6133 75.3329 43.1667 75.2796 43.78C75.2263 44.38 75.1996 45.0067 75.1996 45.66C75.4129 45.4467 75.6729 45.28 75.9796 45.16C76.2996 45.04 76.6329 44.98 76.9796 44.98C77.2729 44.98 77.5863 45.0867 77.9196 45.3C78.2529 45.5133 78.5663 45.7733 78.8596 46.08C79.1663 46.3867 79.4129 46.6933 79.5996 47C79.7996 47.2933 79.8996 47.5333 79.8996 47.72C79.8996 48.0533 79.8863 48.4667 79.8596 48.96C79.8329 49.4533 79.8196 49.8533 79.8196 50.16V51.62C79.8196 52.1 79.7996 52.5267 79.7596 52.9C79.7196 53.26 79.6996 53.5333 79.6996 53.72C79.6996 53.8533 79.7463 53.96 79.8396 54.04C79.9463 54.1067 80.1996 54.2467 80.5996 54.46L80.3596 55C79.5063 54.68 78.8463 54.3933 78.3796 54.14C77.9263 53.8733 77.6996 53.6333 77.6996 53.42C77.6996 53.2333 77.7196 52.9467 77.7596 52.56C77.8129 52.16 77.8396 51.7733 77.8396 51.4V50.36C77.8396 49.9333 77.8529 49.4467 77.8796 48.9C77.9063 48.3533 77.9196 47.8733 77.9196 47.46C77.9196 47.1933 77.8863 47.0133 77.8196 46.92C77.7529 46.8267 77.6063 46.78 77.3796 46.78C76.6329 46.78 76.0796 46.9733 75.7196 47.36C75.3729 47.7333 75.1996 48.2533 75.1996 48.92V51.62C75.1996 52.1 75.1796 52.5267 75.1396 52.9C75.0996 53.26 75.0796 53.5333 75.0796 53.72C75.0796 53.8533 75.1263 53.96 75.2196 54.04C75.3263 54.1067 75.5796 54.2467 75.9796 54.46L75.7396 55ZM83.1477 43.78L81.8277 42.36V42.16C82.1877 41.68 82.6744 41.26 83.2877 40.9L84.6077 42.28L84.5877 42.52C84.3211 42.7067 84.0677 42.9133 83.8277 43.14C83.6011 43.3667 83.3744 43.58 83.1477 43.78ZM84.9277 55.04C84.0744 54.72 83.4144 54.4333 82.9477 54.18C82.4944 53.9133 82.2677 53.6733 82.2677 53.46C82.2677 53.2733 82.2877 52.9867 82.3277 52.6C82.3811 52.2 82.4077 51.8133 82.4077 51.44V48.58C82.4077 48.2333 82.4211 47.9133 82.4477 47.62C82.4877 47.3133 82.5477 47.0467 82.6277 46.82H81.9677L80.9077 45.46L81.0477 45.12H83.6077L84.7677 46.68C84.6077 46.8933 84.5011 47.16 84.4477 47.48C84.4077 47.8 84.3877 48.2067 84.3877 48.7V51.66C84.3877 52.14 84.3677 52.5667 84.3277 52.94C84.2877 53.3 84.2677 53.5733 84.2677 53.76C84.2677 53.8933 84.3144 54 84.4077 54.08C84.5144 54.1467 84.7677 54.2867 85.1677 54.5L84.9277 55.04ZM89.8129 54.94C88.7996 54.94 88.0062 54.6133 87.4329 53.96C86.8596 53.2933 86.4596 52.3933 86.2329 51.26L86.8729 51.08C87.1262 51.72 87.4129 52.1733 87.7329 52.44C88.0662 52.7067 88.5129 52.84 89.0729 52.84C89.7129 52.84 90.2529 52.66 90.6929 52.3C91.1462 51.94 91.3729 51.5 91.3729 50.98C91.3729 50.6867 91.2662 50.54 91.0529 50.54C90.8796 50.54 90.6262 50.58 90.2929 50.66C89.9729 50.74 89.6529 50.8267 89.3329 50.92C89.0129 51 88.7729 51.04 88.6129 51.04C88.3729 51.04 88.1262 50.9267 87.8729 50.7C87.6329 50.4733 87.4062 50.1867 87.1929 49.84C86.9796 49.48 86.8062 49.1067 86.6729 48.72C86.5396 48.3333 86.4729 47.9733 86.4729 47.64C86.4729 46.8533 86.7196 46.1933 87.2129 45.66C87.7196 45.1267 88.4396 44.86 89.3729 44.86C90.1729 44.86 90.8262 45.0733 91.3329 45.5C91.8396 45.9267 92.2262 46.58 92.4929 47.46L91.7929 47.7C91.4329 47.1267 90.8862 46.84 90.1529 46.84C89.5129 46.84 88.9729 47.0067 88.5329 47.34C88.0929 47.6733 87.8729 48.0933 87.8729 48.6C87.8729 48.8667 87.9996 49 88.2529 49C88.4529 49 88.7129 48.96 89.0329 48.88C89.3529 48.7867 89.6729 48.7 89.9929 48.62C90.3129 48.54 90.5729 48.5 90.7729 48.5C91.0796 48.5 91.3796 48.6733 91.6729 49.02C91.9662 49.3667 92.2062 49.8067 92.3929 50.34C92.5796 50.8733 92.6729 51.42 92.6729 51.98C92.6729 52.8733 92.4262 53.5933 91.9329 54.14C91.4396 54.6733 90.7329 54.94 89.8129 54.94ZM99.5091 55C98.6558 54.68 97.9958 54.3933 97.5291 54.14C97.0758 53.8733 96.8491 53.6333 96.8491 53.42C96.8491 53.2333 96.8691 52.9467 96.9091 52.56C96.9625 52.16 96.9891 51.7733 96.9891 51.4V46.04C96.9891 45.24 97.0158 44.5067 97.0691 43.84C97.1358 43.16 97.2158 42.62 97.3091 42.22H96.4491L95.3491 40.92L95.4891 40.6H98.0891L99.2691 42.12C99.1758 42.6133 99.1025 43.1667 99.0491 43.78C98.9958 44.38 98.9691 45.0067 98.9691 45.66C99.1825 45.4467 99.4425 45.28 99.7491 45.16C100.069 45.04 100.402 44.98 100.749 44.98C101.042 44.98 101.356 45.0867 101.689 45.3C102.022 45.5133 102.336 45.7733 102.629 46.08C102.936 46.3867 103.182 46.6933 103.369 47C103.569 47.2933 103.669 47.5333 103.669 47.72C103.669 48.0533 103.656 48.4667 103.629 48.96C103.602 49.4533 103.589 49.8533 103.589 50.16V51.62C103.589 52.1 103.569 52.5267 103.529 52.9C103.489 53.26 103.469 53.5333 103.469 53.72C103.469 53.8533 103.516 53.96 103.609 54.04C103.716 54.1067 103.969 54.2467 104.369 54.46L104.129 55C103.276 54.68 102.616 54.3933 102.149 54.14C101.696 53.8733 101.469 53.6333 101.469 53.42C101.469 53.2333 101.489 52.9467 101.529 52.56C101.582 52.16 101.609 51.7733 101.609 51.4V50.36C101.609 49.9333 101.622 49.4467 101.649 48.9C101.676 48.3533 101.689 47.8733 101.689 47.46C101.689 47.1933 101.656 47.0133 101.589 46.92C101.522 46.8267 101.376 46.78 101.149 46.78C100.402 46.78 99.8491 46.9733 99.4891 47.36C99.1425 47.7333 98.9691 48.2533 98.9691 48.92V51.62C98.9691 52.1 98.9491 52.5267 98.9091 52.9C98.8691 53.26 98.8491 53.5333 98.8491 53.72C98.8491 53.8533 98.8958 53.96 98.9891 54.04C99.0958 54.1067 99.3491 54.2467 99.7491 54.46L99.5091 55ZM109.617 54.86C109.297 54.86 108.904 54.78 108.437 54.62C107.971 54.4467 107.504 54.2267 107.037 53.96C106.584 53.68 106.204 53.38 105.897 53.06C105.591 52.7267 105.437 52.4 105.437 52.08C105.437 51.76 105.457 51.2067 105.497 50.42C105.551 49.6333 105.577 48.6933 105.577 47.6C105.577 45.8667 106.524 45 108.417 45C108.711 45 109.051 45.0933 109.437 45.28C109.824 45.4533 110.197 45.6867 110.557 45.98C110.917 46.26 111.217 46.5533 111.457 46.86C111.697 47.1667 111.817 47.4533 111.817 47.72V49.36C111.817 50.44 111.217 50.98 110.017 50.98C109.644 50.98 109.217 50.96 108.737 50.92C108.257 50.8667 107.831 50.8067 107.457 50.74C107.444 51.18 107.431 51.58 107.417 51.94C107.417 52.2867 107.417 52.4867 107.417 52.54C107.417 52.7533 107.471 52.9067 107.577 53C107.684 53.0933 107.877 53.14 108.157 53.14C108.571 53.14 109.017 53.08 109.497 52.96C109.991 52.8267 110.431 52.6333 110.817 52.38H111.117L112.197 54.02C111.944 54.26 111.564 54.46 111.057 54.62C110.564 54.78 110.084 54.86 109.617 54.86ZM107.517 48.24C107.517 48.3467 107.511 48.5067 107.497 48.72C107.497 48.9333 107.497 49.1733 107.497 49.44C107.884 49.48 108.331 49.5 108.837 49.5C109.224 49.5 109.491 49.4067 109.637 49.22C109.797 49.02 109.877 48.72 109.877 48.32V47.24C109.877 47.0933 109.837 46.9667 109.757 46.86C109.677 46.7533 109.504 46.7 109.237 46.7C108.704 46.7 108.284 46.8133 107.977 47.04C107.671 47.2533 107.517 47.6533 107.517 48.24ZM116.208 55.04C115.355 54.72 114.695 54.4333 114.228 54.18C113.775 53.9133 113.548 53.6733 113.548 53.46C113.548 53.2733 113.568 52.9867 113.608 52.6C113.662 52.2 113.688 51.8133 113.688 51.44V46.06C113.688 45.26 113.715 44.5267 113.768 43.86C113.835 43.18 113.915 42.6333 114.008 42.22H113.148L112.048 40.92L112.188 40.6H114.788L115.968 42.12C115.875 42.64 115.802 43.2333 115.748 43.9C115.695 44.5533 115.668 45.22 115.668 45.9V51.66C115.668 52.14 115.648 52.5667 115.608 52.94C115.568 53.3 115.548 53.5733 115.548 53.76C115.548 53.8933 115.595 54 115.688 54.08C115.795 54.1467 116.048 54.2867 116.448 54.5L116.208 55.04ZM122.384 54.82C121.944 54.82 121.531 54.76 121.144 54.64C120.771 54.52 120.444 54.38 120.164 54.22V55.78C120.164 56.26 120.144 56.68 120.104 57.04C120.064 57.4133 120.044 57.6933 120.044 57.88C120.044 58.0133 120.091 58.1133 120.184 58.18C120.291 58.26 120.544 58.4067 120.944 58.62L120.704 59.16C119.851 58.84 119.191 58.5467 118.724 58.28C118.271 58.0267 118.044 57.7933 118.044 57.58C118.044 57.3933 118.064 57.1 118.104 56.7C118.158 56.3133 118.184 55.9333 118.184 55.56V48.88C118.184 48.6267 118.191 48.2933 118.204 47.88C118.231 47.4667 118.278 47.1133 118.344 46.82H117.604L116.564 45.44L116.704 45.12H118.584C118.638 45.12 118.751 45.2133 118.924 45.4C119.098 45.5733 119.278 45.7733 119.464 46C119.664 45.6933 119.951 45.4467 120.324 45.26C120.711 45.0733 121.124 44.98 121.564 44.98H121.944C122.238 44.98 122.558 45.1 122.904 45.34C123.251 45.5667 123.578 45.8533 123.884 46.2C124.191 46.5333 124.444 46.8667 124.644 47.2C124.844 47.5333 124.944 47.8067 124.944 48.02C124.944 48.3933 124.938 48.92 124.924 49.6C124.911 50.2667 124.904 51.06 124.904 51.98C124.904 52.8467 124.678 53.54 124.224 54.06C123.771 54.5667 123.158 54.82 122.384 54.82ZM122.424 46.84C121.758 46.84 121.224 46.94 120.824 47.14C120.424 47.3267 120.204 47.7133 120.164 48.3C120.164 48.4467 120.164 48.5733 120.164 48.68V53.08C120.404 53.1333 120.658 53.16 120.924 53.16C121.644 53.16 122.158 52.9933 122.464 52.66C122.771 52.3267 122.924 51.86 122.924 51.26C122.924 50.8333 122.931 50.3867 122.944 49.92C122.958 49.4533 122.964 49.0133 122.964 48.6C122.978 48.1867 122.984 47.8467 122.984 47.58C122.984 47.3933 122.958 47.2267 122.904 47.08C122.851 46.92 122.691 46.84 122.424 46.84ZM129.813 54.94C128.8 54.94 128.006 54.6133 127.433 53.96C126.86 53.2933 126.46 52.3933 126.233 51.26L126.873 51.08C127.126 51.72 127.413 52.1733 127.733 52.44C128.066 52.7067 128.513 52.84 129.073 52.84C129.713 52.84 130.253 52.66 130.693 52.3C131.146 51.94 131.373 51.5 131.373 50.98C131.373 50.6867 131.266 50.54 131.053 50.54C130.88 50.54 130.626 50.58 130.293 50.66C129.973 50.74 129.653 50.8267 129.333 50.92C129.013 51 128.773 51.04 128.613 51.04C128.373 51.04 128.126 50.9267 127.873 50.7C127.633 50.4733 127.406 50.1867 127.193 49.84C126.98 49.48 126.806 49.1067 126.673 48.72C126.54 48.3333 126.473 47.9733 126.473 47.64C126.473 46.8533 126.72 46.1933 127.213 45.66C127.72 45.1267 128.44 44.86 129.373 44.86C130.173 44.86 130.826 45.0733 131.333 45.5C131.84 45.9267 132.226 46.58 132.493 47.46L131.793 47.7C131.433 47.1267 130.886 46.84 130.153 46.84C129.513 46.84 128.973 47.0067 128.533 47.34C128.093 47.6733 127.873 48.0933 127.873 48.6C127.873 48.8667 128 49 128.253 49C128.453 49 128.713 48.96 129.033 48.88C129.353 48.7867 129.673 48.7 129.993 48.62C130.313 48.54 130.573 48.5 130.773 48.5C131.08 48.5 131.38 48.6733 131.673 49.02C131.966 49.3667 132.206 49.8067 132.393 50.34C132.58 50.8733 132.673 51.42 132.673 51.98C132.673 52.8733 132.426 53.5933 131.933 54.14C131.44 54.6733 130.733 54.94 129.813 54.94ZM144.049 54.96C143.742 54.8667 143.469 54.7667 143.229 54.66C143.002 54.5533 142.749 54.42 142.469 54.26C142.202 54.4867 141.929 54.6533 141.649 54.76C141.382 54.8533 141.042 54.9 140.629 54.9C140.309 54.9 139.922 54.82 139.469 54.66C139.029 54.5 138.589 54.2867 138.149 54.02C137.722 53.7533 137.362 53.4467 137.069 53.1C136.789 52.7533 136.649 52.4 136.649 52.04C136.649 51.8933 136.669 51.4733 136.709 50.78C136.749 50.0733 136.769 49.0533 136.769 47.72C136.769 46.7733 137.029 46.0933 137.549 45.68C138.069 45.2667 138.796 45.06 139.729 45.06C140.009 45.06 140.302 45.1133 140.609 45.22C140.929 45.3267 141.216 45.4533 141.469 45.6C141.482 44.8933 141.516 44.2467 141.569 43.66C141.622 43.0733 141.696 42.5933 141.789 42.22H140.929L139.829 40.92L139.969 40.6H142.569L143.749 42.12C143.656 42.64 143.582 43.2333 143.529 43.9C143.476 44.5533 143.449 45.22 143.449 45.9V48.92C143.449 49.5733 143.436 50.2467 143.409 50.94C143.382 51.62 143.376 52.3467 143.389 53.12C143.402 53.52 143.469 53.7933 143.589 53.94C143.709 54.0867 143.962 54.24 144.349 54.4L144.049 54.96ZM138.649 52.58C138.649 52.8067 138.702 52.9667 138.809 53.06C138.929 53.1533 139.109 53.2 139.349 53.2C140.069 53.2 140.602 53.0333 140.949 52.7C141.296 52.3667 141.469 51.9 141.469 51.3V46.9C141.216 46.8467 140.942 46.82 140.649 46.82C140.089 46.82 139.629 46.94 139.269 47.18C138.922 47.42 138.742 47.8733 138.729 48.54L138.649 52.58ZM149.359 54.9C149.039 54.9 148.652 54.82 148.199 54.66C147.745 54.5 147.305 54.2867 146.879 54.02C146.452 53.7533 146.092 53.4467 145.799 53.1C145.519 52.7533 145.379 52.4 145.379 52.04C145.379 51.88 145.399 51.4133 145.439 50.64C145.492 49.8667 145.519 48.9 145.519 47.74C145.519 46.8067 145.792 46.12 146.339 45.68C146.885 45.24 147.705 45.02 148.799 45.02C149.119 45.02 149.472 45.12 149.859 45.32C150.259 45.52 150.639 45.78 150.999 46.1C151.359 46.42 151.652 46.76 151.879 47.12C152.119 47.4667 152.239 47.7933 152.239 48.1C152.239 48.6067 152.225 49.1533 152.199 49.74C152.185 50.3267 152.179 51.08 152.179 52C152.179 52.8533 151.945 53.5533 151.479 54.1C151.012 54.6333 150.305 54.9 149.359 54.9ZM148.079 53.2C148.812 53.2 149.345 53.0467 149.679 52.74C150.025 52.4333 150.199 51.98 150.199 51.38C150.199 50.9533 150.205 50.4733 150.219 49.94C150.232 49.3933 150.245 48.8933 150.259 48.44C150.272 47.9733 150.279 47.6467 150.279 47.46C150.279 47.2333 150.239 47.0667 150.159 46.96C150.079 46.84 149.919 46.78 149.679 46.78C148.959 46.78 148.405 46.9067 148.019 47.16C147.645 47.4 147.459 47.86 147.459 48.54C147.459 49.82 147.445 50.7867 147.419 51.44C147.392 52.08 147.379 52.5133 147.379 52.74C147.379 53.0467 147.612 53.2 148.079 53.2ZM158.819 51.9L160.499 52.98C160.232 53.6067 159.845 54.0867 159.339 54.42C158.845 54.7533 158.285 54.92 157.659 54.92C157.259 54.92 156.832 54.8333 156.379 54.66C155.925 54.4733 155.499 54.24 155.099 53.96C154.699 53.68 154.365 53.3867 154.099 53.08C153.845 52.7733 153.719 52.4867 153.719 52.22C153.719 52.0467 153.719 51.78 153.719 51.42C153.732 51.06 153.739 50.6867 153.739 50.3C153.752 49.9 153.759 49.5667 153.759 49.3V47.66C153.759 46.78 154.025 46.1133 154.559 45.66C155.092 45.1933 155.805 44.96 156.699 44.96C156.979 44.96 157.305 45.0467 157.679 45.22C158.052 45.38 158.419 45.6 158.779 45.88C159.139 46.1467 159.439 46.4467 159.679 46.78C159.919 47.1 160.039 47.42 160.039 47.74C160.039 48.0867 160.025 48.3933 159.999 48.66C159.972 48.9133 159.939 49.1467 159.899 49.36L157.839 48.96C157.945 48.32 157.999 47.76 157.999 47.28C157.999 47.0533 157.952 46.9 157.859 46.82C157.779 46.74 157.645 46.7 157.459 46.7C156.312 46.7 155.739 47.2733 155.739 48.42V50.02C155.739 50.8733 155.725 51.5 155.699 51.9C155.685 52.2867 155.679 52.5933 155.679 52.82C155.679 52.9667 155.745 53.08 155.879 53.16C156.012 53.24 156.179 53.28 156.379 53.28C156.872 53.28 157.292 53.18 157.639 52.98C157.985 52.7667 158.299 52.4267 158.579 51.96L158.819 51.9ZM165.012 54.84C164.812 54.84 164.539 54.7667 164.192 54.62C163.846 54.46 163.492 54.26 163.132 54.02C162.772 53.7667 162.466 53.5067 162.212 53.24C161.959 52.96 161.832 52.6933 161.832 52.44C161.832 52.2933 161.839 52.14 161.852 51.98C161.866 51.82 161.886 51.6133 161.912 51.36C161.939 51.0933 161.959 50.74 161.972 50.3C161.986 49.86 161.992 49.2867 161.992 48.58C161.992 48.3133 161.992 48.0333 161.992 47.74C161.992 47.4467 161.986 47.14 161.972 46.82H161.612L160.592 45.48L160.732 45.16C161.439 45.08 161.886 44.8667 162.072 44.52C162.259 44.1733 162.352 43.6467 162.352 42.94L162.692 42.82L163.912 43.74C163.912 43.98 163.912 44.2133 163.912 44.44C163.912 44.6667 163.912 44.8933 163.912 45.12H165.612L166.612 46.52L166.472 46.82H163.932C163.932 47.3 163.932 47.76 163.932 48.2C163.932 48.64 163.932 49.06 163.932 49.46C163.932 50.2333 163.919 50.8267 163.892 51.24C163.879 51.6533 163.859 51.96 163.832 52.16C163.806 52.36 163.792 52.5467 163.792 52.72C163.792 52.9867 163.932 53.12 164.212 53.12C164.452 53.12 164.712 53.06 164.992 52.94C165.272 52.8067 165.532 52.6467 165.772 52.46H166.052L166.992 54.02C166.806 54.2467 166.512 54.44 166.112 54.6C165.712 54.76 165.346 54.84 165.012 54.84ZM171.644 54.9C171.324 54.9 170.937 54.82 170.484 54.66C170.03 54.5 169.59 54.2867 169.164 54.02C168.737 53.7533 168.377 53.4467 168.084 53.1C167.804 52.7533 167.664 52.4 167.664 52.04C167.664 51.88 167.684 51.4133 167.724 50.64C167.777 49.8667 167.804 48.9 167.804 47.74C167.804 46.8067 168.077 46.12 168.624 45.68C169.17 45.24 169.99 45.02 171.084 45.02C171.404 45.02 171.757 45.12 172.144 45.32C172.544 45.52 172.924 45.78 173.284 46.1C173.644 46.42 173.937 46.76 174.164 47.12C174.404 47.4667 174.524 47.7933 174.524 48.1C174.524 48.6067 174.51 49.1533 174.484 49.74C174.47 50.3267 174.464 51.08 174.464 52C174.464 52.8533 174.23 53.5533 173.764 54.1C173.297 54.6333 172.59 54.9 171.644 54.9ZM170.364 53.2C171.097 53.2 171.63 53.0467 171.964 52.74C172.31 52.4333 172.484 51.98 172.484 51.38C172.484 50.9533 172.49 50.4733 172.504 49.94C172.517 49.3933 172.53 48.8933 172.544 48.44C172.557 47.9733 172.564 47.6467 172.564 47.46C172.564 47.2333 172.524 47.0667 172.444 46.96C172.364 46.84 172.204 46.78 171.964 46.78C171.244 46.78 170.69 46.9067 170.304 47.16C169.93 47.4 169.744 47.86 169.744 48.54C169.744 49.82 169.73 50.7867 169.704 51.44C169.677 52.08 169.664 52.5133 169.664 52.74C169.664 53.0467 169.897 53.2 170.364 53.2ZM179.684 55.18C178.537 54.8067 177.71 54.4867 177.204 54.22C176.697 53.94 176.444 53.74 176.444 53.62C176.444 53.4733 176.464 53.22 176.504 52.86C176.557 52.5 176.584 51.94 176.584 51.18V48.7C176.584 48.4333 176.597 48.12 176.624 47.76C176.65 47.3867 176.69 47.0733 176.744 46.82H176.004L174.964 45.44L175.104 45.12H176.984C177.05 45.12 177.17 45.22 177.344 45.42C177.53 45.6067 177.717 45.8133 177.904 46.04C178.117 45.6933 178.41 45.44 178.784 45.28C179.17 45.12 179.577 45.04 180.004 45.04C180.217 45.04 180.377 45.0533 180.484 45.08L181.484 46.48L181.324 46.72C180.39 46.7067 179.697 46.8867 179.244 47.26C178.79 47.6333 178.564 48.32 178.564 49.32V51.46C178.564 52.1267 178.544 52.6467 178.504 53.02C178.477 53.38 178.464 53.62 178.464 53.74C178.464 53.82 178.49 53.8933 178.544 53.96C178.597 54.0133 178.724 54.08 178.924 54.16C179.137 54.24 179.47 54.3733 179.924 54.56L179.684 55.18ZM185.399 54.94C184.385 54.94 183.592 54.6133 183.019 53.96C182.445 53.2933 182.045 52.3933 181.819 51.26L182.459 51.08C182.712 51.72 182.999 52.1733 183.319 52.44C183.652 52.7067 184.099 52.84 184.659 52.84C185.299 52.84 185.839 52.66 186.279 52.3C186.732 51.94 186.959 51.5 186.959 50.98C186.959 50.6867 186.852 50.54 186.639 50.54C186.465 50.54 186.212 50.58 185.879 50.66C185.559 50.74 185.239 50.8267 184.919 50.92C184.599 51 184.359 51.04 184.199 51.04C183.959 51.04 183.712 50.9267 183.459 50.7C183.219 50.4733 182.992 50.1867 182.779 49.84C182.565 49.48 182.392 49.1067 182.259 48.72C182.125 48.3333 182.059 47.9733 182.059 47.64C182.059 46.8533 182.305 46.1933 182.799 45.66C183.305 45.1267 184.025 44.86 184.959 44.86C185.759 44.86 186.412 45.0733 186.919 45.5C187.425 45.9267 187.812 46.58 188.079 47.46L187.379 47.7C187.019 47.1267 186.472 46.84 185.739 46.84C185.099 46.84 184.559 47.0067 184.119 47.34C183.679 47.6733 183.459 48.0933 183.459 48.6C183.459 48.8667 183.585 49 183.839 49C184.039 49 184.299 48.96 184.619 48.88C184.939 48.7867 185.259 48.7 185.579 48.62C185.899 48.54 186.159 48.5 186.359 48.5C186.665 48.5 186.965 48.6733 187.259 49.02C187.552 49.3667 187.792 49.8067 187.979 50.34C188.165 50.8733 188.259 51.42 188.259 51.98C188.259 52.8733 188.012 53.5933 187.519 54.14C187.025 54.6733 186.319 54.94 185.399 54.94ZM199.315 54.9C198.995 54.7933 198.702 54.6867 198.435 54.58C198.168 54.46 197.915 54.3333 197.675 54.2C197.488 54.3867 197.262 54.54 196.995 54.66C196.742 54.7667 196.448 54.82 196.115 54.82C195.888 54.82 195.555 54.7467 195.115 54.6C194.688 54.4533 194.248 54.2667 193.795 54.04C193.342 53.8 192.955 53.54 192.635 53.26C192.328 52.9667 192.175 52.68 192.175 52.4C192.175 52.0533 192.175 51.7467 192.175 51.48C192.188 51.2 192.195 51.0333 192.195 50.98C192.195 50.1933 192.395 49.64 192.795 49.32C193.208 48.9867 193.782 48.82 194.515 48.82C194.888 48.82 195.288 48.8467 195.715 48.9C196.142 48.9533 196.488 49.0133 196.755 49.08C196.768 48.7067 196.775 48.3533 196.775 48.02C196.788 47.6733 196.795 47.4133 196.795 47.24C196.795 47.0933 196.755 46.9867 196.675 46.92C196.595 46.8533 196.448 46.82 196.235 46.82C195.715 46.82 195.275 46.86 194.915 46.94C194.555 47.02 194.215 47.1533 193.895 47.34H193.515L192.215 45.44L192.375 45.12H195.715C195.982 45.12 196.282 45.2267 196.615 45.44C196.962 45.64 197.302 45.8933 197.635 46.2C197.968 46.5067 198.242 46.82 198.455 47.14C198.668 47.46 198.775 47.74 198.775 47.98C198.775 48.42 198.762 48.94 198.735 49.54C198.708 50.14 198.682 50.7533 198.655 51.38C198.628 51.9933 198.615 52.5533 198.615 53.06C198.615 53.46 198.682 53.74 198.815 53.9C198.948 54.0467 199.202 54.1933 199.575 54.34L199.315 54.9ZM194.155 52.4C194.155 52.7333 194.215 52.9467 194.335 53.04C194.455 53.12 194.602 53.16 194.775 53.16C195.322 53.16 195.775 53.02 196.135 52.74C196.508 52.4467 196.695 51.9933 196.695 51.38C196.695 51.26 196.695 51.1133 196.695 50.94C196.708 50.7667 196.715 50.5733 196.715 50.36C196.568 50.32 196.388 50.2933 196.175 50.28C195.962 50.2667 195.768 50.26 195.595 50.26C195.115 50.26 194.755 50.3667 194.515 50.58C194.275 50.7933 194.155 51.1667 194.155 51.7V52.4ZM203.517 55C202.663 54.68 202.003 54.3933 201.537 54.14C201.083 53.8733 200.857 53.6333 200.857 53.42C200.857 53.2333 200.877 52.9467 200.917 52.56C200.97 52.16 200.997 51.7733 200.997 51.4V48.84C200.997 48.5733 201.003 48.24 201.017 47.84C201.043 47.44 201.09 47.1 201.157 46.82H200.417L199.377 45.44L199.517 45.12H201.397C201.45 45.12 201.563 45.2133 201.737 45.4C201.923 45.5733 202.11 45.7733 202.297 46C202.55 45.6533 202.863 45.4 203.237 45.24C203.623 45.0667 203.997 44.98 204.357 44.98H204.777C205.043 44.98 205.337 45.0867 205.657 45.3C205.99 45.5133 206.31 45.7733 206.617 46.08C206.937 46.3867 207.197 46.6933 207.397 47C207.597 47.2933 207.697 47.5333 207.697 47.72C207.697 48.0533 207.683 48.4667 207.657 48.96C207.63 49.4533 207.617 49.8533 207.617 50.16V51.62C207.617 52.1 207.597 52.5267 207.557 52.9C207.517 53.26 207.497 53.5333 207.497 53.72C207.497 53.8533 207.543 53.96 207.637 54.04C207.743 54.1067 207.997 54.2467 208.397 54.46L208.157 55C207.303 54.68 206.643 54.3933 206.177 54.14C205.723 53.8733 205.497 53.6333 205.497 53.42C205.497 53.2333 205.517 52.9467 205.557 52.56C205.61 52.16 205.637 51.7733 205.637 51.4V50.36C205.637 49.9333 205.65 49.4467 205.677 48.9C205.703 48.3533 205.717 47.8733 205.717 47.46C205.717 47.1933 205.683 47.0133 205.617 46.92C205.55 46.8267 205.403 46.78 205.177 46.78C204.43 46.78 203.877 46.9733 203.517 47.36C203.157 47.7333 202.977 48.2533 202.977 48.92V51.62C202.977 52.1 202.957 52.5267 202.917 52.9C202.877 53.26 202.857 53.5333 202.857 53.72C202.857 53.8533 202.903 53.96 202.997 54.04C203.103 54.1067 203.357 54.2467 203.757 54.46L203.517 55ZM216.901 54.96C216.594 54.8667 216.321 54.7667 216.081 54.66C215.854 54.5533 215.601 54.42 215.321 54.26C215.054 54.4867 214.781 54.6533 214.501 54.76C214.234 54.8533 213.894 54.9 213.481 54.9C213.161 54.9 212.774 54.82 212.321 54.66C211.881 54.5 211.441 54.2867 211.001 54.02C210.574 53.7533 210.214 53.4467 209.921 53.1C209.641 52.7533 209.501 52.4 209.501 52.04C209.501 51.8933 209.521 51.4733 209.561 50.78C209.601 50.0733 209.621 49.0533 209.621 47.72C209.621 46.7733 209.881 46.0933 210.401 45.68C210.921 45.2667 211.647 45.06 212.581 45.06C212.861 45.06 213.154 45.1133 213.461 45.22C213.781 45.3267 214.067 45.4533 214.321 45.6C214.334 44.8933 214.367 44.2467 214.421 43.66C214.474 43.0733 214.547 42.5933 214.641 42.22H213.781L212.681 40.92L212.821 40.6H215.421L216.601 42.12C216.507 42.64 216.434 43.2333 216.381 43.9C216.327 44.5533 216.301 45.22 216.301 45.9V48.92C216.301 49.5733 216.287 50.2467 216.261 50.94C216.234 51.62 216.227 52.3467 216.241 53.12C216.254 53.52 216.321 53.7933 216.441 53.94C216.561 54.0867 216.814 54.24 217.201 54.4L216.901 54.96ZM211.501 52.58C211.501 52.8067 211.554 52.9667 211.661 53.06C211.781 53.1533 211.961 53.2 212.201 53.2C212.921 53.2 213.454 53.0333 213.801 52.7C214.147 52.3667 214.321 51.9 214.321 51.3V46.9C214.067 46.8467 213.794 46.82 213.501 46.82C212.941 46.82 212.481 46.94 212.121 47.18C211.774 47.42 211.594 47.8733 211.581 48.54L211.501 52.58ZM225.106 54.86C224.786 54.86 224.392 54.78 223.926 54.62C223.459 54.4467 222.992 54.2267 222.526 53.96C222.072 53.68 221.692 53.38 221.386 53.06C221.079 52.7267 220.926 52.4 220.926 52.08C220.926 51.76 220.946 51.2067 220.986 50.42C221.039 49.6333 221.066 48.6933 221.066 47.6C221.066 45.8667 222.012 45 223.906 45C224.199 45 224.539 45.0933 224.926 45.28C225.312 45.4533 225.686 45.6867 226.046 45.98C226.406 46.26 226.706 46.5533 226.946 46.86C227.186 47.1667 227.306 47.4533 227.306 47.72V49.36C227.306 50.44 226.706 50.98 225.506 50.98C225.132 50.98 224.706 50.96 224.226 50.92C223.746 50.8667 223.319 50.8067 222.946 50.74C222.932 51.18 222.919 51.58 222.906 51.94C222.906 52.2867 222.906 52.4867 222.906 52.54C222.906 52.7533 222.959 52.9067 223.066 53C223.172 53.0933 223.366 53.14 223.646 53.14C224.059 53.14 224.506 53.08 224.986 52.96C225.479 52.8267 225.919 52.6333 226.306 52.38H226.606L227.686 54.02C227.432 54.26 227.052 54.46 226.546 54.62C226.052 54.78 225.572 54.86 225.106 54.86ZM223.006 48.24C223.006 48.3467 222.999 48.5067 222.986 48.72C222.986 48.9333 222.986 49.1733 222.986 49.44C223.372 49.48 223.819 49.5 224.326 49.5C224.712 49.5 224.979 49.4067 225.126 49.22C225.286 49.02 225.366 48.72 225.366 48.32V47.24C225.366 47.0933 225.326 46.9667 225.246 46.86C225.166 46.7533 224.992 46.7 224.726 46.7C224.192 46.7 223.772 46.8133 223.466 47.04C223.159 47.2533 223.006 47.6533 223.006 48.24ZM231.857 55C231.003 54.68 230.343 54.3933 229.877 54.14C229.423 53.8733 229.197 53.6333 229.197 53.42C229.197 53.2333 229.217 52.9467 229.257 52.56C229.31 52.16 229.337 51.7733 229.337 51.4V48.84C229.337 48.5733 229.343 48.24 229.357 47.84C229.383 47.44 229.43 47.1 229.497 46.82H228.757L227.717 45.44L227.857 45.12H229.737C229.79 45.12 229.903 45.2067 230.077 45.38C230.25 45.5533 230.423 45.7533 230.597 45.98C231.117 45.3133 231.77 44.98 232.557 44.98H232.837C233.103 44.98 233.403 45.0933 233.737 45.32C234.07 45.5333 234.383 45.7867 234.677 46.08C234.957 45.68 235.29 45.4 235.677 45.24C236.063 45.0667 236.463 44.98 236.877 44.98H237.217C237.483 44.98 237.777 45.0867 238.097 45.3C238.43 45.5133 238.743 45.7733 239.037 46.08C239.343 46.3867 239.59 46.6933 239.777 47C239.977 47.2933 240.077 47.5333 240.077 47.72C240.077 48.0533 240.063 48.4667 240.037 48.96C240.01 49.4533 239.997 49.8533 239.997 50.16V51.62C239.997 52.1 239.977 52.5267 239.937 52.9C239.897 53.26 239.877 53.5333 239.877 53.72C239.877 53.8533 239.923 53.96 240.017 54.04C240.123 54.1067 240.377 54.2467 240.777 54.46L240.537 55C239.683 54.68 239.023 54.3933 238.557 54.14C238.103 53.8733 237.877 53.6333 237.877 53.42C237.877 53.2333 237.897 52.9467 237.937 52.56C237.99 52.16 238.017 51.7733 238.017 51.4V50.36C238.017 49.9333 238.03 49.4467 238.057 48.9C238.083 48.3533 238.097 47.8733 238.097 47.46C238.097 47.1933 238.063 47.0133 237.997 46.92C237.93 46.8267 237.783 46.78 237.557 46.78C236.397 46.78 235.77 47.32 235.677 48.4C235.677 48.7067 235.67 49.02 235.657 49.34C235.657 49.66 235.657 49.9333 235.657 50.16V51.62C235.657 52.1 235.637 52.5267 235.597 52.9C235.557 53.26 235.537 53.5333 235.537 53.72C235.537 53.8533 235.583 53.96 235.677 54.04C235.783 54.1067 236.037 54.2467 236.437 54.46L236.197 55C235.343 54.68 234.683 54.3933 234.217 54.14C233.763 53.8733 233.537 53.6333 233.537 53.42C233.537 53.2333 233.557 52.9467 233.597 52.56C233.65 52.16 233.677 51.7733 233.677 51.4V50.36C233.677 49.9333 233.683 49.4467 233.697 48.9C233.723 48.3533 233.737 47.8733 233.737 47.46C233.737 47.1933 233.703 47.0133 233.637 46.92C233.57 46.8267 233.423 46.78 233.197 46.78C232.543 46.78 232.063 46.9733 231.757 47.36C231.463 47.7333 231.317 48.2533 231.317 48.92V51.62C231.317 52.1 231.297 52.5267 231.257 52.9C231.217 53.26 231.197 53.5333 231.197 53.72C231.197 53.8533 231.243 53.96 231.337 54.04C231.443 54.1067 231.697 54.2467 232.097 54.46L231.857 55ZM245.906 54.86C245.586 54.86 245.193 54.78 244.726 54.62C244.26 54.4467 243.793 54.2267 243.326 53.96C242.873 53.68 242.493 53.38 242.186 53.06C241.88 52.7267 241.726 52.4 241.726 52.08C241.726 51.76 241.746 51.2067 241.786 50.42C241.84 49.6333 241.866 48.6933 241.866 47.6C241.866 45.8667 242.813 45 244.706 45C245 45 245.34 45.0933 245.726 45.28C246.113 45.4533 246.486 45.6867 246.846 45.98C247.206 46.26 247.506 46.5533 247.746 46.86C247.986 47.1667 248.106 47.4533 248.106 47.72V49.36C248.106 50.44 247.506 50.98 246.306 50.98C245.933 50.98 245.506 50.96 245.026 50.92C244.546 50.8667 244.12 50.8067 243.746 50.74C243.733 51.18 243.72 51.58 243.706 51.94C243.706 52.2867 243.706 52.4867 243.706 52.54C243.706 52.7533 243.76 52.9067 243.866 53C243.973 53.0933 244.166 53.14 244.446 53.14C244.86 53.14 245.306 53.08 245.786 52.96C246.28 52.8267 246.72 52.6333 247.106 52.38H247.406L248.486 54.02C248.233 54.26 247.853 54.46 247.346 54.62C246.853 54.78 246.373 54.86 245.906 54.86ZM243.806 48.24C243.806 48.3467 243.8 48.5067 243.786 48.72C243.786 48.9333 243.786 49.1733 243.786 49.44C244.173 49.48 244.62 49.5 245.126 49.5C245.513 49.5 245.78 49.4067 245.926 49.22C246.086 49.02 246.166 48.72 246.166 48.32V47.24C246.166 47.0933 246.126 46.9667 246.046 46.86C245.966 46.7533 245.793 46.7 245.526 46.7C244.993 46.7 244.573 46.8133 244.266 47.04C243.96 47.2533 243.806 47.6533 243.806 48.24ZM253.277 55.18C252.131 54.8067 251.304 54.4867 250.797 54.22C250.291 53.94 250.037 53.74 250.037 53.62C250.037 53.4733 250.057 53.22 250.097 52.86C250.151 52.5 250.177 51.94 250.177 51.18V48.7C250.177 48.4333 250.191 48.12 250.217 47.76C250.244 47.3867 250.284 47.0733 250.337 46.82H249.597L248.557 45.44L248.697 45.12H250.577C250.644 45.12 250.764 45.22 250.937 45.42C251.124 45.6067 251.311 45.8133 251.497 46.04C251.711 45.6933 252.004 45.44 252.377 45.28C252.764 45.12 253.171 45.04 253.597 45.04C253.811 45.04 253.971 45.0533 254.077 45.08L255.077 46.48L254.917 46.72C253.984 46.7067 253.291 46.8867 252.837 47.26C252.384 47.6333 252.157 48.32 252.157 49.32V51.46C252.157 52.1267 252.137 52.6467 252.097 53.02C252.071 53.38 252.057 53.62 252.057 53.74C252.057 53.82 252.084 53.8933 252.137 53.96C252.191 54.0133 252.317 54.08 252.517 54.16C252.731 54.24 253.064 54.3733 253.517 54.56L253.277 55.18ZM259.19 58.84C258.163 58.84 257.336 58.5533 256.71 57.98C256.083 57.4067 255.59 56.46 255.23 55.14L255.89 54.94C256.13 55.5533 256.436 56.02 256.81 56.34C257.183 56.66 257.716 56.82 258.41 56.82C258.943 56.82 259.43 56.7533 259.87 56.62C260.31 56.4867 260.663 56.3 260.93 56.06C261.196 55.8333 261.33 55.5867 261.33 55.32C261.33 55.08 261.216 54.96 260.99 54.96C260.79 54.96 260.543 54.9933 260.25 55.06C259.956 55.1267 259.656 55.1933 259.35 55.26C259.043 55.34 258.756 55.38 258.49 55.38C258.21 55.38 257.916 55.2733 257.61 55.06C257.303 54.8467 257.01 54.5867 256.73 54.28C256.463 53.96 256.243 53.64 256.07 53.32C255.91 52.9867 255.83 52.7067 255.83 52.48C255.83 52.0533 255.956 51.7067 256.21 51.44C256.476 51.1733 256.796 50.9667 257.17 50.82C256.25 50.3933 255.79 49.6867 255.79 48.7V47.76C255.79 46.9333 255.956 46.3 256.29 45.86C256.636 45.4067 257.223 45.1467 258.05 45.08L259.47 44.96C259.936 44.92 260.276 44.82 260.49 44.66C260.703 44.5 260.843 44.24 260.91 43.88L261.15 43.74L262.53 44.54C262.45 45.14 262.256 45.5933 261.95 45.9C261.656 46.2067 261.276 46.4133 260.81 46.52C261.17 46.7067 261.456 46.9667 261.67 47.3C261.896 47.6333 262.01 48 262.01 48.4V49.34C262.01 49.9533 261.95 50.4467 261.83 50.82C261.71 51.1933 261.476 51.48 261.13 51.68C260.796 51.88 260.296 52.0467 259.63 52.18L258.77 52.34C258.21 52.4333 257.83 52.56 257.63 52.72C257.43 52.8667 257.33 53.04 257.33 53.24C257.33 53.4533 257.463 53.56 257.73 53.56C258.036 53.56 258.363 53.52 258.71 53.44C259.07 53.36 259.41 53.28 259.73 53.2C260.063 53.12 260.336 53.08 260.55 53.08C260.816 53.08 261.07 53.2067 261.31 53.46C261.563 53.7 261.783 54.0067 261.97 54.38C262.17 54.74 262.323 55.1067 262.43 55.48C262.55 55.8667 262.61 56.1933 262.61 56.46C262.61 57.22 262.283 57.8067 261.63 58.22C260.99 58.6333 260.176 58.84 259.19 58.84ZM257.65 49.14C257.65 49.5 257.696 49.8067 257.79 50.06C257.896 50.3 258.063 50.46 258.29 50.54L258.93 50.44C259.316 50.3733 259.63 50.2467 259.87 50.06C260.11 49.8733 260.23 49.4733 260.23 48.86V48.2C260.23 47.6533 260.183 47.2667 260.09 47.04C259.996 46.8 259.843 46.66 259.63 46.62L258.89 46.68C258.396 46.72 258.063 46.8667 257.89 47.12C257.73 47.3733 257.65 47.8 257.65 48.4V49.14ZM267.723 54.86C267.403 54.86 267.009 54.78 266.543 54.62C266.076 54.4467 265.609 54.2267 265.143 53.96C264.689 53.68 264.309 53.38 264.003 53.06C263.696 52.7267 263.543 52.4 263.543 52.08C263.543 51.76 263.563 51.2067 263.603 50.42C263.656 49.6333 263.683 48.6933 263.683 47.6C263.683 45.8667 264.629 45 266.523 45C266.816 45 267.156 45.0933 267.543 45.28C267.929 45.4533 268.303 45.6867 268.663 45.98C269.023 46.26 269.323 46.5533 269.563 46.86C269.803 47.1667 269.923 47.4533 269.923 47.72V49.36C269.923 50.44 269.323 50.98 268.123 50.98C267.749 50.98 267.323 50.96 266.843 50.92C266.363 50.8667 265.936 50.8067 265.563 50.74C265.549 51.18 265.536 51.58 265.523 51.94C265.523 52.2867 265.523 52.4867 265.523 52.54C265.523 52.7533 265.576 52.9067 265.683 53C265.789 53.0933 265.983 53.14 266.263 53.14C266.676 53.14 267.123 53.08 267.603 52.96C268.096 52.8267 268.536 52.6333 268.923 52.38H269.223L270.303 54.02C270.049 54.26 269.669 54.46 269.163 54.62C268.669 54.78 268.189 54.86 267.723 54.86ZM265.623 48.24C265.623 48.3467 265.616 48.5067 265.603 48.72C265.603 48.9333 265.603 49.1733 265.603 49.44C265.989 49.48 266.436 49.5 266.943 49.5C267.329 49.5 267.596 49.4067 267.743 49.22C267.903 49.02 267.983 48.72 267.983 48.32V47.24C267.983 47.0933 267.943 46.9667 267.863 46.86C267.783 46.7533 267.609 46.7 267.343 46.7C266.809 46.7 266.389 46.8133 266.083 47.04C265.776 47.2533 265.623 47.6533 265.623 48.24ZM274.474 55C273.62 54.68 272.96 54.3933 272.494 54.14C272.04 53.8733 271.814 53.6333 271.814 53.42C271.814 53.2333 271.834 52.9467 271.874 52.56C271.927 52.16 271.954 51.7733 271.954 51.4V48.84C271.954 48.5733 271.96 48.24 271.974 47.84C272 47.44 272.047 47.1 272.114 46.82H271.374L270.334 45.44L270.474 45.12H272.354C272.407 45.12 272.52 45.2133 272.694 45.4C272.88 45.5733 273.067 45.7733 273.254 46C273.507 45.6533 273.82 45.4 274.194 45.24C274.58 45.0667 274.954 44.98 275.314 44.98H275.734C276 44.98 276.294 45.0867 276.614 45.3C276.947 45.5133 277.267 45.7733 277.574 46.08C277.894 46.3867 278.154 46.6933 278.354 47C278.554 47.2933 278.654 47.5333 278.654 47.72C278.654 48.0533 278.64 48.4667 278.614 48.96C278.587 49.4533 278.574 49.8533 278.574 50.16V51.62C278.574 52.1 278.554 52.5267 278.514 52.9C278.474 53.26 278.454 53.5333 278.454 53.72C278.454 53.8533 278.5 53.96 278.594 54.04C278.7 54.1067 278.954 54.2467 279.354 54.46L279.114 55C278.26 54.68 277.6 54.3933 277.134 54.14C276.68 53.8733 276.454 53.6333 276.454 53.42C276.454 53.2333 276.474 52.9467 276.514 52.56C276.567 52.16 276.594 51.7733 276.594 51.4V50.36C276.594 49.9333 276.607 49.4467 276.634 48.9C276.66 48.3533 276.674 47.8733 276.674 47.46C276.674 47.1933 276.64 47.0133 276.574 46.92C276.507 46.8267 276.36 46.78 276.134 46.78C275.387 46.78 274.834 46.9733 274.474 47.36C274.114 47.7333 273.934 48.2533 273.934 48.92V51.62C273.934 52.1 273.914 52.5267 273.874 52.9C273.834 53.26 273.814 53.5333 273.814 53.72C273.814 53.8533 273.86 53.96 273.954 54.04C274.06 54.1067 274.314 54.2467 274.714 54.46L274.474 55ZM285.518 51.9L287.198 52.98C286.931 53.6067 286.544 54.0867 286.038 54.42C285.544 54.7533 284.984 54.92 284.358 54.92C283.958 54.92 283.531 54.8333 283.078 54.66C282.624 54.4733 282.198 54.24 281.798 53.96C281.398 53.68 281.064 53.3867 280.798 53.08C280.544 52.7733 280.418 52.4867 280.418 52.22C280.418 52.0467 280.418 51.78 280.418 51.42C280.431 51.06 280.438 50.6867 280.438 50.3C280.451 49.9 280.458 49.5667 280.458 49.3V47.66C280.458 46.78 280.724 46.1133 281.258 45.66C281.791 45.1933 282.504 44.96 283.398 44.96C283.678 44.96 284.004 45.0467 284.378 45.22C284.751 45.38 285.118 45.6 285.478 45.88C285.838 46.1467 286.138 46.4467 286.378 46.78C286.618 47.1 286.738 47.42 286.738 47.74C286.738 48.0867 286.724 48.3933 286.698 48.66C286.671 48.9133 286.638 49.1467 286.598 49.36L284.538 48.96C284.644 48.32 284.698 47.76 284.698 47.28C284.698 47.0533 284.651 46.9 284.558 46.82C284.478 46.74 284.344 46.7 284.158 46.7C283.011 46.7 282.438 47.2733 282.438 48.42V50.02C282.438 50.8733 282.424 51.5 282.398 51.9C282.384 52.2867 282.378 52.5933 282.378 52.82C282.378 52.9667 282.444 53.08 282.578 53.16C282.711 53.24 282.878 53.28 283.078 53.28C283.571 53.28 283.991 53.18 284.338 52.98C284.684 52.7667 284.998 52.4267 285.278 51.96L285.518 51.9ZM289.632 52.76C289.178 51.3467 288.825 50.1867 288.572 49.28C288.318 48.36 288.192 47.7267 288.192 47.38C288.192 47.14 288.212 46.9533 288.252 46.82H287.772L286.812 45.44L286.972 45.12H289.532L290.452 46.46L290.352 46.72C289.938 46.8 289.732 47.1133 289.732 47.66C289.732 47.98 289.838 48.5667 290.052 49.42C290.278 50.26 290.652 51.3867 291.172 52.8C291.572 51.64 291.952 50.5467 292.312 49.52C292.685 48.48 293.005 47.58 293.272 46.82H292.172L291.272 45.44L291.432 45.12H294.132L295.232 46.78C294.365 49.2867 293.625 51.4333 293.012 53.22C292.398 55.0067 291.905 56.3733 291.532 57.32C291.172 58.28 290.912 58.76 290.752 58.76C290.592 58.76 290.332 58.68 289.972 58.52C289.625 58.3733 289.265 58.2 288.892 58C288.532 57.8 288.252 57.6333 288.052 57.5L288.352 56.96C288.485 57.04 288.625 57.1133 288.772 57.18C288.918 57.26 289.058 57.3 289.192 57.3C289.298 57.3 289.412 57.2133 289.532 57.04C289.652 56.88 289.798 56.58 289.972 56.14C290.158 55.7133 290.392 55.1 290.672 54.3C290.698 54.2333 290.718 54.1667 290.732 54.1C290.492 53.9133 290.265 53.7 290.052 53.46C289.852 53.22 289.712 52.9867 289.632 52.76ZM102.994 81.18C101.848 80.8067 101.021 80.4867 100.514 80.22C100.008 79.94 99.7542 79.74 99.7542 79.62C99.7542 79.4733 99.7742 79.22 99.8142 78.86C99.8676 78.5 99.8942 77.94 99.8942 77.18V74.7C99.8942 74.4333 99.9076 74.12 99.9342 73.76C99.9609 73.3867 100.001 73.0733 100.054 72.82H99.3142L98.2742 71.44L98.4142 71.12H100.294C100.361 71.12 100.481 71.22 100.654 71.42C100.841 71.6067 101.028 71.8133 101.214 72.04C101.428 71.6933 101.721 71.44 102.094 71.28C102.481 71.12 102.888 71.04 103.314 71.04C103.528 71.04 103.688 71.0533 103.794 71.08L104.794 72.48L104.634 72.72C103.701 72.7067 103.008 72.8867 102.554 73.26C102.101 73.6333 101.874 74.32 101.874 75.32V77.46C101.874 78.1267 101.854 78.6467 101.814 79.02C101.788 79.38 101.774 79.62 101.774 79.74C101.774 79.82 101.801 79.8933 101.854 79.96C101.908 80.0133 102.034 80.08 102.234 80.16C102.448 80.24 102.781 80.3733 103.234 80.56L102.994 81.18ZM109.315 80.86C108.995 80.86 108.601 80.78 108.135 80.62C107.668 80.4467 107.201 80.2267 106.735 79.96C106.281 79.68 105.901 79.38 105.595 79.06C105.288 78.7267 105.135 78.4 105.135 78.08C105.135 77.76 105.155 77.2067 105.195 76.42C105.248 75.6333 105.275 74.6933 105.275 73.6C105.275 71.8667 106.221 71 108.115 71C108.408 71 108.748 71.0933 109.135 71.28C109.521 71.4533 109.895 71.6867 110.255 71.98C110.615 72.26 110.915 72.5533 111.155 72.86C111.395 73.1667 111.515 73.4533 111.515 73.72V75.36C111.515 76.44 110.915 76.98 109.715 76.98C109.341 76.98 108.915 76.96 108.435 76.92C107.955 76.8667 107.528 76.8067 107.155 76.74C107.141 77.18 107.128 77.58 107.115 77.94C107.115 78.2867 107.115 78.4867 107.115 78.54C107.115 78.7533 107.168 78.9067 107.275 79C107.381 79.0933 107.575 79.14 107.855 79.14C108.268 79.14 108.715 79.08 109.195 78.96C109.688 78.8267 110.128 78.6333 110.515 78.38H110.815L111.895 80.02C111.641 80.26 111.261 80.46 110.755 80.62C110.261 80.78 109.781 80.86 109.315 80.86ZM107.215 74.24C107.215 74.3467 107.208 74.5067 107.195 74.72C107.195 74.9333 107.195 75.1733 107.195 75.44C107.581 75.48 108.028 75.5 108.535 75.5C108.921 75.5 109.188 75.4067 109.335 75.22C109.495 75.02 109.575 74.72 109.575 74.32V73.24C109.575 73.0933 109.535 72.9667 109.455 72.86C109.375 72.7533 109.201 72.7 108.935 72.7C108.401 72.7 107.981 72.8133 107.675 73.04C107.368 73.2533 107.215 73.6533 107.215 74.24ZM116.366 80.94C115.352 80.94 114.559 80.6133 113.986 79.96C113.412 79.2933 113.012 78.3933 112.786 77.26L113.426 77.08C113.679 77.72 113.966 78.1733 114.286 78.44C114.619 78.7067 115.066 78.84 115.626 78.84C116.266 78.84 116.806 78.66 117.246 78.3C117.699 77.94 117.926 77.5 117.926 76.98C117.926 76.6867 117.819 76.54 117.606 76.54C117.432 76.54 117.179 76.58 116.846 76.66C116.526 76.74 116.206 76.8267 115.886 76.92C115.566 77 115.326 77.04 115.166 77.04C114.926 77.04 114.679 76.9267 114.426 76.7C114.186 76.4733 113.959 76.1867 113.746 75.84C113.532 75.48 113.359 75.1067 113.226 74.72C113.092 74.3333 113.026 73.9733 113.026 73.64C113.026 72.8533 113.272 72.1933 113.766 71.66C114.272 71.1267 114.992 70.86 115.926 70.86C116.726 70.86 117.379 71.0733 117.886 71.5C118.392 71.9267 118.779 72.58 119.046 73.46L118.346 73.7C117.986 73.1267 117.439 72.84 116.706 72.84C116.066 72.84 115.526 73.0067 115.086 73.34C114.646 73.6733 114.426 74.0933 114.426 74.6C114.426 74.8667 114.552 75 114.806 75C115.006 75 115.266 74.96 115.586 74.88C115.906 74.7867 116.226 74.7 116.546 74.62C116.866 74.54 117.126 74.5 117.326 74.5C117.632 74.5 117.932 74.6733 118.226 75.02C118.519 75.3667 118.759 75.8067 118.946 76.34C119.132 76.8733 119.226 77.42 119.226 77.98C119.226 78.8733 118.979 79.5933 118.486 80.14C117.992 80.6733 117.286 80.94 116.366 80.94ZM125.304 80.82C124.864 80.82 124.451 80.76 124.064 80.64C123.691 80.52 123.364 80.38 123.084 80.22V81.78C123.084 82.26 123.064 82.68 123.024 83.04C122.984 83.4133 122.964 83.6933 122.964 83.88C122.964 84.0133 123.011 84.1133 123.104 84.18C123.211 84.26 123.464 84.4067 123.864 84.62L123.624 85.16C122.771 84.84 122.111 84.5467 121.644 84.28C121.191 84.0267 120.964 83.7933 120.964 83.58C120.964 83.3933 120.984 83.1 121.024 82.7C121.078 82.3133 121.104 81.9333 121.104 81.56V74.88C121.104 74.6267 121.111 74.2933 121.124 73.88C121.151 73.4667 121.198 73.1133 121.264 72.82H120.524L119.484 71.44L119.624 71.12H121.504C121.558 71.12 121.671 71.2133 121.844 71.4C122.018 71.5733 122.198 71.7733 122.384 72C122.584 71.6933 122.871 71.4467 123.244 71.26C123.631 71.0733 124.044 70.98 124.484 70.98H124.864C125.158 70.98 125.478 71.1 125.824 71.34C126.171 71.5667 126.498 71.8533 126.804 72.2C127.111 72.5333 127.364 72.8667 127.564 73.2C127.764 73.5333 127.864 73.8067 127.864 74.02C127.864 74.3933 127.858 74.92 127.844 75.6C127.831 76.2667 127.824 77.06 127.824 77.98C127.824 78.8467 127.598 79.54 127.144 80.06C126.691 80.5667 126.078 80.82 125.304 80.82ZM125.344 72.84C124.678 72.84 124.144 72.94 123.744 73.14C123.344 73.3267 123.124 73.7133 123.084 74.3C123.084 74.4467 123.084 74.5733 123.084 74.68V79.08C123.324 79.1333 123.578 79.16 123.844 79.16C124.564 79.16 125.078 78.9933 125.384 78.66C125.691 78.3267 125.844 77.86 125.844 77.26C125.844 76.8333 125.851 76.3867 125.864 75.92C125.878 75.4533 125.884 75.0133 125.884 74.6C125.898 74.1867 125.904 73.8467 125.904 73.58C125.904 73.3933 125.878 73.2267 125.824 73.08C125.771 72.92 125.611 72.84 125.344 72.84ZM133.353 80.9C133.033 80.9 132.646 80.82 132.193 80.66C131.739 80.5 131.299 80.2867 130.873 80.02C130.446 79.7533 130.086 79.4467 129.793 79.1C129.513 78.7533 129.373 78.4 129.373 78.04C129.373 77.88 129.393 77.4133 129.433 76.64C129.486 75.8667 129.513 74.9 129.513 73.74C129.513 72.8067 129.786 72.12 130.333 71.68C130.879 71.24 131.699 71.02 132.793 71.02C133.113 71.02 133.466 71.12 133.853 71.32C134.253 71.52 134.633 71.78 134.993 72.1C135.353 72.42 135.646 72.76 135.873 73.12C136.113 73.4667 136.233 73.7933 136.233 74.1C136.233 74.6067 136.219 75.1533 136.193 75.74C136.179 76.3267 136.173 77.08 136.173 78C136.173 78.8533 135.939 79.5533 135.473 80.1C135.006 80.6333 134.299 80.9 133.353 80.9ZM132.073 79.2C132.806 79.2 133.339 79.0467 133.673 78.74C134.019 78.4333 134.193 77.98 134.193 77.38C134.193 76.9533 134.199 76.4733 134.213 75.94C134.226 75.3933 134.239 74.8933 134.253 74.44C134.266 73.9733 134.273 73.6467 134.273 73.46C134.273 73.2333 134.233 73.0667 134.153 72.96C134.073 72.84 133.913 72.78 133.673 72.78C132.953 72.78 132.399 72.9067 132.013 73.16C131.639 73.4 131.453 73.86 131.453 74.54C131.453 75.82 131.439 76.7867 131.413 77.44C131.386 78.08 131.373 78.5133 131.373 78.74C131.373 79.0467 131.606 79.2 132.073 79.2ZM140.773 81C139.919 80.68 139.259 80.3933 138.793 80.14C138.339 79.8733 138.113 79.6333 138.113 79.42C138.113 79.2333 138.133 78.9467 138.173 78.56C138.226 78.16 138.253 77.7733 138.253 77.4V74.84C138.253 74.5733 138.259 74.24 138.273 73.84C138.299 73.44 138.346 73.1 138.413 72.82H137.673L136.633 71.44L136.773 71.12H138.653C138.706 71.12 138.819 71.2133 138.993 71.4C139.179 71.5733 139.366 71.7733 139.553 72C139.806 71.6533 140.119 71.4 140.493 71.24C140.879 71.0667 141.253 70.98 141.613 70.98H142.033C142.299 70.98 142.593 71.0867 142.913 71.3C143.246 71.5133 143.566 71.7733 143.873 72.08C144.193 72.3867 144.453 72.6933 144.653 73C144.853 73.2933 144.953 73.5333 144.953 73.72C144.953 74.0533 144.939 74.4667 144.913 74.96C144.886 75.4533 144.873 75.8533 144.873 76.16V77.62C144.873 78.1 144.853 78.5267 144.813 78.9C144.773 79.26 144.753 79.5333 144.753 79.72C144.753 79.8533 144.799 79.96 144.893 80.04C144.999 80.1067 145.253 80.2467 145.653 80.46L145.413 81C144.559 80.68 143.899 80.3933 143.433 80.14C142.979 79.8733 142.753 79.6333 142.753 79.42C142.753 79.2333 142.773 78.9467 142.813 78.56C142.866 78.16 142.893 77.7733 142.893 77.4V76.36C142.893 75.9333 142.906 75.4467 142.933 74.9C142.959 74.3533 142.973 73.8733 142.973 73.46C142.973 73.1933 142.939 73.0133 142.873 72.92C142.806 72.8267 142.659 72.78 142.433 72.78C141.686 72.78 141.133 72.9733 140.773 73.36C140.413 73.7333 140.233 74.2533 140.233 74.92V77.62C140.233 78.1 140.213 78.5267 140.173 78.9C140.133 79.26 140.113 79.5333 140.113 79.72C140.113 79.8533 140.159 79.96 140.253 80.04C140.359 80.1067 140.613 80.2467 141.013 80.46L140.773 81ZM154.157 80.96C153.85 80.8667 153.577 80.7667 153.337 80.66C153.11 80.5533 152.857 80.42 152.577 80.26C152.31 80.4867 152.037 80.6533 151.757 80.76C151.49 80.8533 151.15 80.9 150.737 80.9C150.417 80.9 150.03 80.82 149.577 80.66C149.137 80.5 148.697 80.2867 148.257 80.02C147.83 79.7533 147.47 79.4467 147.177 79.1C146.897 78.7533 146.757 78.4 146.757 78.04C146.757 77.8933 146.777 77.4733 146.817 76.78C146.857 76.0733 146.877 75.0533 146.877 73.72C146.877 72.7733 147.137 72.0933 147.657 71.68C148.177 71.2667 148.903 71.06 149.837 71.06C150.117 71.06 150.41 71.1133 150.717 71.22C151.037 71.3267 151.323 71.4533 151.577 71.6C151.59 70.8933 151.623 70.2467 151.677 69.66C151.73 69.0733 151.803 68.5933 151.897 68.22H151.037L149.937 66.92L150.077 66.6H152.677L153.857 68.12C153.763 68.64 153.69 69.2333 153.637 69.9C153.583 70.5533 153.557 71.22 153.557 71.9V74.92C153.557 75.5733 153.543 76.2467 153.517 76.94C153.49 77.62 153.483 78.3467 153.497 79.12C153.51 79.52 153.577 79.7933 153.697 79.94C153.817 80.0867 154.07 80.24 154.457 80.4L154.157 80.96ZM148.757 78.58C148.757 78.8067 148.81 78.9667 148.917 79.06C149.037 79.1533 149.217 79.2 149.457 79.2C150.177 79.2 150.71 79.0333 151.057 78.7C151.403 78.3667 151.577 77.9 151.577 77.3V72.9C151.323 72.8467 151.05 72.82 150.757 72.82C150.197 72.82 149.737 72.94 149.377 73.18C149.03 73.42 148.85 73.8733 148.837 74.54L148.757 78.58ZM159.666 80.86C159.346 80.86 158.953 80.78 158.486 80.62C158.019 80.4467 157.553 80.2267 157.086 79.96C156.633 79.68 156.253 79.38 155.946 79.06C155.639 78.7267 155.486 78.4 155.486 78.08C155.486 77.76 155.506 77.2067 155.546 76.42C155.599 75.6333 155.626 74.6933 155.626 73.6C155.626 71.8667 156.573 71 158.466 71C158.759 71 159.099 71.0933 159.486 71.28C159.873 71.4533 160.246 71.6867 160.606 71.98C160.966 72.26 161.266 72.5533 161.506 72.86C161.746 73.1667 161.866 73.4533 161.866 73.72V75.36C161.866 76.44 161.266 76.98 160.066 76.98C159.693 76.98 159.266 76.96 158.786 76.92C158.306 76.8667 157.879 76.8067 157.506 76.74C157.493 77.18 157.479 77.58 157.466 77.94C157.466 78.2867 157.466 78.4867 157.466 78.54C157.466 78.7533 157.519 78.9067 157.626 79C157.733 79.0933 157.926 79.14 158.206 79.14C158.619 79.14 159.066 79.08 159.546 78.96C160.039 78.8267 160.479 78.6333 160.866 78.38H161.166L162.246 80.02C161.993 80.26 161.613 80.46 161.106 80.62C160.613 80.78 160.133 80.86 159.666 80.86ZM157.566 74.24C157.566 74.3467 157.559 74.5067 157.546 74.72C157.546 74.9333 157.546 75.1733 157.546 75.44C157.933 75.48 158.379 75.5 158.886 75.5C159.273 75.5 159.539 75.4067 159.686 75.22C159.846 75.02 159.926 74.72 159.926 74.32V73.24C159.926 73.0933 159.886 72.9667 159.806 72.86C159.726 72.7533 159.553 72.7 159.286 72.7C158.753 72.7 158.333 72.8133 158.026 73.04C157.719 73.2533 157.566 73.6533 157.566 74.24ZM167.037 81.18C165.891 80.8067 165.064 80.4867 164.557 80.22C164.051 79.94 163.797 79.74 163.797 79.62C163.797 79.4733 163.817 79.22 163.857 78.86C163.911 78.5 163.937 77.94 163.937 77.18V74.7C163.937 74.4333 163.951 74.12 163.977 73.76C164.004 73.3867 164.044 73.0733 164.097 72.82H163.357L162.317 71.44L162.457 71.12H164.337C164.404 71.12 164.524 71.22 164.697 71.42C164.884 71.6067 165.071 71.8133 165.257 72.04C165.471 71.6933 165.764 71.44 166.137 71.28C166.524 71.12 166.931 71.04 167.357 71.04C167.571 71.04 167.731 71.0533 167.837 71.08L168.837 72.48L168.677 72.72C167.744 72.7067 167.051 72.8867 166.597 73.26C166.144 73.6333 165.917 74.32 165.917 75.32V77.46C165.917 78.1267 165.897 78.6467 165.857 79.02C165.831 79.38 165.817 79.62 165.817 79.74C165.817 79.82 165.844 79.8933 165.897 79.96C165.951 80.0133 166.077 80.08 166.277 80.16C166.491 80.24 166.824 80.3733 167.277 80.56L167.037 81.18ZM172.752 80.94C171.739 80.94 170.946 80.6133 170.372 79.96C169.799 79.2933 169.399 78.3933 169.172 77.26L169.812 77.08C170.066 77.72 170.352 78.1733 170.672 78.44C171.006 78.7067 171.452 78.84 172.012 78.84C172.652 78.84 173.192 78.66 173.632 78.3C174.086 77.94 174.312 77.5 174.312 76.98C174.312 76.6867 174.206 76.54 173.992 76.54C173.819 76.54 173.566 76.58 173.232 76.66C172.912 76.74 172.592 76.8267 172.272 76.92C171.952 77 171.712 77.04 171.552 77.04C171.312 77.04 171.066 76.9267 170.812 76.7C170.572 76.4733 170.346 76.1867 170.132 75.84C169.919 75.48 169.746 75.1067 169.612 74.72C169.479 74.3333 169.412 73.9733 169.412 73.64C169.412 72.8533 169.659 72.1933 170.152 71.66C170.659 71.1267 171.379 70.86 172.312 70.86C173.112 70.86 173.766 71.0733 174.272 71.5C174.779 71.9267 175.166 72.58 175.432 73.46L174.732 73.7C174.372 73.1267 173.826 72.84 173.092 72.84C172.452 72.84 171.912 73.0067 171.472 73.34C171.032 73.6733 170.812 74.0933 170.812 74.6C170.812 74.8667 170.939 75 171.192 75C171.392 75 171.652 74.96 171.972 74.88C172.292 74.7867 172.612 74.7 172.932 74.62C173.252 74.54 173.512 74.5 173.712 74.5C174.019 74.5 174.319 74.6733 174.612 75.02C174.906 75.3667 175.146 75.8067 175.332 76.34C175.519 76.8733 175.612 77.42 175.612 77.98C175.612 78.8733 175.366 79.5933 174.872 80.14C174.379 80.6733 173.672 80.94 172.752 80.94ZM181.029 69.78L179.709 68.36V68.16C180.069 67.68 180.555 67.26 181.169 66.9L182.489 68.28L182.469 68.52C182.202 68.7067 181.949 68.9133 181.709 69.14C181.482 69.3667 181.255 69.58 181.029 69.78ZM182.809 81.04C181.955 80.72 181.295 80.4333 180.829 80.18C180.375 79.9133 180.149 79.6733 180.149 79.46C180.149 79.2733 180.169 78.9867 180.209 78.6C180.262 78.2 180.289 77.8133 180.289 77.44V74.58C180.289 74.2333 180.302 73.9133 180.329 73.62C180.369 73.3133 180.429 73.0467 180.509 72.82H179.849L178.789 71.46L178.929 71.12H181.489L182.649 72.68C182.489 72.8933 182.382 73.16 182.329 73.48C182.289 73.8 182.269 74.2067 182.269 74.7V77.66C182.269 78.14 182.249 78.5667 182.209 78.94C182.169 79.3 182.149 79.5733 182.149 79.76C182.149 79.8933 182.195 80 182.289 80.08C182.395 80.1467 182.649 80.2867 183.049 80.5L182.809 81.04ZM191.774 80.96C191.467 80.8667 191.194 80.7667 190.954 80.66C190.727 80.5533 190.474 80.42 190.194 80.26C189.927 80.4867 189.654 80.6533 189.374 80.76C189.107 80.8533 188.767 80.9 188.354 80.9C188.034 80.9 187.647 80.82 187.194 80.66C186.754 80.5 186.314 80.2867 185.874 80.02C185.447 79.7533 185.087 79.4467 184.794 79.1C184.514 78.7533 184.374 78.4 184.374 78.04C184.374 77.8933 184.394 77.4733 184.434 76.78C184.474 76.0733 184.494 75.0533 184.494 73.72C184.494 72.7733 184.754 72.0933 185.274 71.68C185.794 71.2667 186.52 71.06 187.454 71.06C187.734 71.06 188.027 71.1133 188.334 71.22C188.654 71.3267 188.94 71.4533 189.194 71.6C189.207 70.8933 189.24 70.2467 189.294 69.66C189.347 69.0733 189.42 68.5933 189.514 68.22H188.654L187.554 66.92L187.694 66.6H190.294L191.474 68.12C191.38 68.64 191.307 69.2333 191.254 69.9C191.2 70.5533 191.174 71.22 191.174 71.9V74.92C191.174 75.5733 191.16 76.2467 191.134 76.94C191.107 77.62 191.1 78.3467 191.114 79.12C191.127 79.52 191.194 79.7933 191.314 79.94C191.434 80.0867 191.687 80.24 192.074 80.4L191.774 80.96ZM186.374 78.58C186.374 78.8067 186.427 78.9667 186.534 79.06C186.654 79.1533 186.834 79.2 187.074 79.2C187.794 79.2 188.327 79.0333 188.674 78.7C189.02 78.3667 189.194 77.9 189.194 77.3V72.9C188.94 72.8467 188.667 72.82 188.374 72.82C187.814 72.82 187.354 72.94 186.994 73.18C186.647 73.42 186.467 73.8733 186.454 74.54L186.374 78.58ZM197.283 80.86C196.963 80.86 196.57 80.78 196.103 80.62C195.637 80.4467 195.17 80.2267 194.703 79.96C194.25 79.68 193.87 79.38 193.563 79.06C193.257 78.7267 193.103 78.4 193.103 78.08C193.103 77.76 193.123 77.2067 193.163 76.42C193.217 75.6333 193.243 74.6933 193.243 73.6C193.243 71.8667 194.19 71 196.083 71C196.377 71 196.717 71.0933 197.103 71.28C197.49 71.4533 197.863 71.6867 198.223 71.98C198.583 72.26 198.883 72.5533 199.123 72.86C199.363 73.1667 199.483 73.4533 199.483 73.72V75.36C199.483 76.44 198.883 76.98 197.683 76.98C197.31 76.98 196.883 76.96 196.403 76.92C195.923 76.8667 195.497 76.8067 195.123 76.74C195.11 77.18 195.097 77.58 195.083 77.94C195.083 78.2867 195.083 78.4867 195.083 78.54C195.083 78.7533 195.137 78.9067 195.243 79C195.35 79.0933 195.543 79.14 195.823 79.14C196.237 79.14 196.683 79.08 197.163 78.96C197.657 78.8267 198.097 78.6333 198.483 78.38H198.783L199.863 80.02C199.61 80.26 199.23 80.46 198.723 80.62C198.23 80.78 197.75 80.86 197.283 80.86ZM195.183 74.24C195.183 74.3467 195.177 74.5067 195.163 74.72C195.163 74.9333 195.163 75.1733 195.163 75.44C195.55 75.48 195.997 75.5 196.503 75.5C196.89 75.5 197.157 75.4067 197.303 75.22C197.463 75.02 197.543 74.72 197.543 74.32V73.24C197.543 73.0933 197.503 72.9667 197.423 72.86C197.343 72.7533 197.17 72.7 196.903 72.7C196.37 72.7 195.95 72.8133 195.643 73.04C195.337 73.2533 195.183 73.6533 195.183 74.24ZM204.034 81C203.181 80.68 202.521 80.3933 202.054 80.14C201.601 79.8733 201.374 79.6333 201.374 79.42C201.374 79.2333 201.394 78.9467 201.434 78.56C201.488 78.16 201.514 77.7733 201.514 77.4V74.84C201.514 74.5733 201.521 74.24 201.534 73.84C201.561 73.44 201.608 73.1 201.674 72.82H200.934L199.894 71.44L200.034 71.12H201.914C201.968 71.12 202.081 71.2133 202.254 71.4C202.441 71.5733 202.628 71.7733 202.814 72C203.068 71.6533 203.381 71.4 203.754 71.24C204.141 71.0667 204.514 70.98 204.874 70.98H205.294C205.561 70.98 205.854 71.0867 206.174 71.3C206.508 71.5133 206.828 71.7733 207.134 72.08C207.454 72.3867 207.714 72.6933 207.914 73C208.114 73.2933 208.214 73.5333 208.214 73.72C208.214 74.0533 208.201 74.4667 208.174 74.96C208.148 75.4533 208.134 75.8533 208.134 76.16V77.62C208.134 78.1 208.114 78.5267 208.074 78.9C208.034 79.26 208.014 79.5333 208.014 79.72C208.014 79.8533 208.061 79.96 208.154 80.04C208.261 80.1067 208.514 80.2467 208.914 80.46L208.674 81C207.821 80.68 207.161 80.3933 206.694 80.14C206.241 79.8733 206.014 79.6333 206.014 79.42C206.014 79.2333 206.034 78.9467 206.074 78.56C206.128 78.16 206.154 77.7733 206.154 77.4V76.36C206.154 75.9333 206.168 75.4467 206.194 74.9C206.221 74.3533 206.234 73.8733 206.234 73.46C206.234 73.1933 206.201 73.0133 206.134 72.92C206.068 72.8267 205.921 72.78 205.694 72.78C204.948 72.78 204.394 72.9733 204.034 73.36C203.674 73.7333 203.494 74.2533 203.494 74.92V77.62C203.494 78.1 203.474 78.5267 203.434 78.9C203.394 79.26 203.374 79.5333 203.374 79.72C203.374 79.8533 203.421 79.96 203.514 80.04C203.621 80.1067 203.874 80.2467 204.274 80.46L204.034 81ZM213.518 80.84C213.318 80.84 213.045 80.7667 212.698 80.62C212.352 80.46 211.998 80.26 211.638 80.02C211.278 79.7667 210.972 79.5067 210.718 79.24C210.465 78.96 210.338 78.6933 210.338 78.44C210.338 78.2933 210.345 78.14 210.358 77.98C210.372 77.82 210.392 77.6133 210.418 77.36C210.445 77.0933 210.465 76.74 210.478 76.3C210.492 75.86 210.498 75.2867 210.498 74.58C210.498 74.3133 210.498 74.0333 210.498 73.74C210.498 73.4467 210.492 73.14 210.478 72.82H210.118L209.098 71.48L209.238 71.16C209.945 71.08 210.392 70.8667 210.578 70.52C210.765 70.1733 210.858 69.6467 210.858 68.94L211.198 68.82L212.418 69.74C212.418 69.98 212.418 70.2133 212.418 70.44C212.418 70.6667 212.418 70.8933 212.418 71.12H214.118L215.118 72.52L214.978 72.82H212.438C212.438 73.3 212.438 73.76 212.438 74.2C212.438 74.64 212.438 75.06 212.438 75.46C212.438 76.2333 212.425 76.8267 212.398 77.24C212.385 77.6533 212.365 77.96 212.338 78.16C212.312 78.36 212.298 78.5467 212.298 78.72C212.298 78.9867 212.438 79.12 212.718 79.12C212.958 79.12 213.218 79.06 213.498 78.94C213.778 78.8067 214.038 78.6467 214.278 78.46H214.558L215.498 80.02C215.312 80.2467 215.018 80.44 214.618 80.6C214.218 80.76 213.852 80.84 213.518 80.84ZM217.65 69.78L216.33 68.36V68.16C216.69 67.68 217.176 67.26 217.79 66.9L219.11 68.28L219.09 68.52C218.823 68.7067 218.57 68.9133 218.33 69.14C218.103 69.3667 217.876 69.58 217.65 69.78ZM219.43 81.04C218.576 80.72 217.916 80.4333 217.45 80.18C216.996 79.9133 216.77 79.6733 216.77 79.46C216.77 79.2733 216.79 78.9867 216.83 78.6C216.883 78.2 216.91 77.8133 216.91 77.44V74.58C216.91 74.2333 216.923 73.9133 216.95 73.62C216.99 73.3133 217.05 73.0467 217.13 72.82H216.47L215.41 71.46L215.55 71.12H218.11L219.27 72.68C219.11 72.8933 219.003 73.16 218.95 73.48C218.91 73.8 218.89 74.2067 218.89 74.7V77.66C218.89 78.14 218.87 78.5667 218.83 78.94C218.79 79.3 218.77 79.5733 218.77 79.76C218.77 79.8933 218.816 80 218.91 80.08C219.016 80.1467 219.27 80.2867 219.67 80.5L219.43 81.04ZM224.115 81.06C223.315 80.78 222.668 80.5 222.175 80.22C221.682 79.94 221.435 79.6933 221.435 79.48C221.435 79.2933 221.462 79.02 221.515 78.66C221.568 78.3 221.595 77.9333 221.595 77.56V75.02C221.595 74.5133 221.608 74.0933 221.635 73.76C221.662 73.4133 221.715 73.1 221.795 72.82H220.895L219.755 71.46L219.895 71.12H222.175C221.975 70.8933 221.782 70.6067 221.595 70.26C221.422 69.9 221.335 69.5 221.335 69.06C221.335 68.4067 221.548 67.8667 221.975 67.44C222.402 67.0133 223.068 66.8 223.975 66.8C224.468 66.8 224.895 66.88 225.255 67.04L226.195 68.64L225.975 68.9C225.842 68.86 225.662 68.8267 225.435 68.8C225.222 68.76 224.955 68.74 224.635 68.74C224.115 68.74 223.708 68.84 223.415 69.04C223.122 69.24 222.975 69.5533 222.975 69.98C222.975 70.4333 223.122 70.8133 223.415 71.12H225.215L226.275 72.52L226.095 72.82H223.795C223.702 73.0733 223.642 73.4 223.615 73.8C223.588 74.1867 223.575 74.66 223.575 75.22V77.78C223.575 78.26 223.555 78.6667 223.515 79C223.475 79.3333 223.455 79.5933 223.455 79.78C223.455 79.9133 223.508 80.0267 223.615 80.12C223.722 80.2 223.982 80.3333 224.395 80.52L224.115 81.06ZM227.493 78.76C227.04 77.3467 226.686 76.1867 226.433 75.28C226.18 74.36 226.053 73.7267 226.053 73.38C226.053 73.14 226.073 72.9533 226.113 72.82H225.633L224.673 71.44L224.833 71.12H227.393L228.313 72.46L228.213 72.72C227.8 72.8 227.593 73.1133 227.593 73.66C227.593 73.98 227.7 74.5667 227.913 75.42C228.14 76.26 228.513 77.3867 229.033 78.8C229.433 77.64 229.813 76.5467 230.173 75.52C230.546 74.48 230.866 73.58 231.133 72.82H230.033L229.133 71.44L229.293 71.12H231.993L233.093 72.78C232.226 75.2867 231.486 77.4333 230.873 79.22C230.26 81.0067 229.766 82.3733 229.393 83.32C229.033 84.28 228.773 84.76 228.613 84.76C228.453 84.76 228.193 84.68 227.833 84.52C227.486 84.3733 227.126 84.2 226.753 84C226.393 83.8 226.113 83.6333 225.913 83.5L226.213 82.96C226.346 83.04 226.486 83.1133 226.633 83.18C226.78 83.26 226.92 83.3 227.053 83.3C227.16 83.3 227.273 83.2133 227.393 83.04C227.513 82.88 227.66 82.58 227.833 82.14C228.02 81.7133 228.253 81.1 228.533 80.3C228.56 80.2333 228.58 80.1667 228.593 80.1C228.353 79.9133 228.126 79.7 227.913 79.46C227.713 79.22 227.573 78.9867 227.493 78.76ZM238.333 78.76C237.879 77.3467 237.526 76.1867 237.273 75.28C237.019 74.36 236.893 73.7267 236.893 73.38C236.893 73.14 236.913 72.9533 236.953 72.82H236.473L235.513 71.44L235.673 71.12H238.233L239.153 72.46L239.053 72.72C238.639 72.8 238.433 73.1133 238.433 73.66C238.433 73.98 238.539 74.5667 238.753 75.42C238.979 76.26 239.353 77.3867 239.873 78.8C240.273 77.64 240.653 76.5467 241.013 75.52C241.386 74.48 241.706 73.58 241.973 72.82H240.873L239.973 71.44L240.133 71.12H242.833L243.933 72.78C243.066 75.2867 242.326 77.4333 241.713 79.22C241.099 81.0067 240.606 82.3733 240.233 83.32C239.873 84.28 239.613 84.76 239.453 84.76C239.293 84.76 239.033 84.68 238.673 84.52C238.326 84.3733 237.966 84.2 237.593 84C237.233 83.8 236.953 83.6333 236.753 83.5L237.053 82.96C237.186 83.04 237.326 83.1133 237.473 83.18C237.619 83.26 237.759 83.3 237.893 83.3C237.999 83.3 238.113 83.2133 238.233 83.04C238.353 82.88 238.499 82.58 238.673 82.14C238.859 81.7133 239.093 81.1 239.373 80.3C239.399 80.2333 239.419 80.1667 239.433 80.1C239.193 79.9133 238.966 79.7 238.753 79.46C238.553 79.22 238.413 78.9867 238.333 78.76ZM248.861 80.9C248.541 80.9 248.154 80.82 247.701 80.66C247.247 80.5 246.807 80.2867 246.381 80.02C245.954 79.7533 245.594 79.4467 245.301 79.1C245.021 78.7533 244.881 78.4 244.881 78.04C244.881 77.88 244.901 77.4133 244.941 76.64C244.994 75.8667 245.021 74.9 245.021 73.74C245.021 72.8067 245.294 72.12 245.841 71.68C246.387 71.24 247.207 71.02 248.301 71.02C248.621 71.02 248.974 71.12 249.361 71.32C249.761 71.52 250.141 71.78 250.501 72.1C250.861 72.42 251.154 72.76 251.381 73.12C251.621 73.4667 251.741 73.7933 251.741 74.1C251.741 74.6067 251.727 75.1533 251.701 75.74C251.687 76.3267 251.681 77.08 251.681 78C251.681 78.8533 251.447 79.5533 250.981 80.1C250.514 80.6333 249.807 80.9 248.861 80.9ZM247.581 79.2C248.314 79.2 248.847 79.0467 249.181 78.74C249.527 78.4333 249.701 77.98 249.701 77.38C249.701 76.9533 249.707 76.4733 249.721 75.94C249.734 75.3933 249.747 74.8933 249.761 74.44C249.774 73.9733 249.781 73.6467 249.781 73.46C249.781 73.2333 249.741 73.0667 249.661 72.96C249.581 72.84 249.421 72.78 249.181 72.78C248.461 72.78 247.907 72.9067 247.521 73.16C247.147 73.4 246.961 73.86 246.961 74.54C246.961 75.82 246.947 76.7867 246.921 77.44C246.894 78.08 246.881 78.5133 246.881 78.74C246.881 79.0467 247.114 79.2 247.581 79.2ZM260.9 80.94C260.594 80.82 260.314 80.6933 260.06 80.56C259.807 80.4267 259.567 80.28 259.34 80.12C259.06 80.3467 258.727 80.5333 258.34 80.68C257.954 80.8267 257.594 80.9 257.26 80.9C257.02 80.9 256.694 80.82 256.28 80.66C255.867 80.5 255.447 80.2867 255.02 80.02C254.594 79.7533 254.234 79.4667 253.94 79.16C253.647 78.84 253.5 78.5333 253.5 78.24C253.5 78.04 253.514 77.72 253.54 77.28C253.58 76.8267 253.6 76.3133 253.6 75.74V74.58C253.6 74.2333 253.614 73.9133 253.64 73.62C253.68 73.3133 253.74 73.0467 253.82 72.82H253.16L252.1 71.46L252.24 71.12H254.8L255.96 72.68C255.8 72.8933 255.694 73.16 255.64 73.48C255.6 73.8 255.58 74.2067 255.58 74.7V75.88C255.58 76.76 255.567 77.4 255.54 77.8C255.527 78.2 255.52 78.48 255.52 78.64C255.52 79.0133 255.747 79.2 256.2 79.2C256.534 79.2 256.854 79.14 257.16 79.02C257.48 78.8867 257.74 78.7 257.94 78.46C258.154 78.2067 258.26 77.9067 258.26 77.56V74.58C258.26 74.2333 258.274 73.9133 258.3 73.62C258.34 73.3133 258.4 73.0467 258.48 72.82H257.82L256.76 71.46L256.9 71.12H259.46L260.62 72.68C260.46 72.8933 260.354 73.16 260.3 73.48C260.26 73.8 260.24 74.2067 260.24 74.7V76.84C260.24 77.5733 260.227 78.1267 260.2 78.5C260.174 78.8733 260.16 79.1467 260.16 79.32C260.16 79.5333 260.234 79.7267 260.38 79.9C260.54 80.06 260.8 80.2333 261.16 80.42L260.9 80.94Z" fill="#2C2929"/>
</svg>
