<svg width="323" height="178" viewBox="0 0 323 178" fill="none" xmlns="http://www.w3.org/2000/svg">
<path d="M18.7545 20.88L18.8745 27H14.8245L15.0045 21.24L14.9745 18.99L10.6245 18.96L6.69446 19.02L6.66446 20.88L6.81446 27H2.76446L2.97446 21.24L2.76446 7.68H6.87446L6.75446 15.66L10.8945 15.72L14.9445 15.66L14.8245 7.68H18.9645L18.7545 20.88ZM33.2372 20.52L25.1372 20.58C25.3172 23.08 26.5872 24.33 28.9472 24.33C30.1872 24.33 31.5672 23.98 33.0872 23.28L33.4172 23.49L32.8172 26.46C31.2972 27.02 29.8672 27.3 28.5272 27.3C26.3272 27.3 24.5972 26.66 23.3372 25.38C22.0972 24.1 21.4772 22.33 21.4772 20.07C21.4772 17.83 22.0872 16.06 23.3072 14.76C24.5272 13.44 26.1772 12.78 28.2572 12.78C30.0372 12.78 31.4072 13.27 32.3672 14.25C33.3472 15.21 33.8372 16.56 33.8372 18.3C33.8372 18.76 33.7872 19.34 33.6872 20.04L33.2372 20.52ZM30.3572 17.85C30.3572 17.05 30.1772 16.45 29.8172 16.05C29.4572 15.63 28.9272 15.42 28.2272 15.42C27.4472 15.42 26.7972 15.68 26.2772 16.2C25.7572 16.7 25.4072 17.43 25.2272 18.39L30.2972 18.27L30.3572 17.85ZM40.3704 20.85L40.5804 27H36.5904L36.8004 21.21L36.6204 6.24L40.6104 5.94L40.3704 20.85ZM51.6141 12.87C53.3541 12.87 54.6941 13.46 55.6341 14.64C56.5741 15.82 57.0441 17.49 57.0441 19.65C57.0441 22.09 56.4341 23.98 55.2141 25.32C54.0141 26.64 52.3141 27.3 50.1141 27.3C49.4741 27.3 48.8041 27.24 48.1041 27.12L48.1941 32.55H44.2341L44.4441 21.24L44.2641 13.32L48.0741 12.99L48.0441 15.03H48.2541C48.8141 14.49 49.3541 14.06 49.8741 13.74C50.3941 13.4 50.9741 13.11 51.6141 12.87ZM50.1441 24.69C51.1841 24.69 51.9741 24.32 52.5141 23.58C53.0541 22.84 53.3241 21.75 53.3241 20.31C53.3241 18.91 53.0941 17.86 52.6341 17.16C52.1941 16.44 51.5341 16.08 50.6541 16.08C49.7941 16.08 48.9241 16.51 48.0441 17.37L48.0141 20.85L48.0741 24.24C48.7941 24.54 49.4841 24.69 50.1441 24.69ZM68.7124 20.88L68.8924 27H64.8124L65.0224 21.24L64.8124 7.68H68.9524L68.7124 20.88ZM77.5078 12.81C78.8678 12.81 80.1478 13.04 81.3478 13.5L80.8078 16.44L80.3278 16.59C79.7478 16.21 79.1678 15.92 78.5878 15.72C78.0078 15.52 77.4978 15.42 77.0578 15.42C76.5778 15.42 76.1978 15.55 75.9178 15.81C75.6378 16.05 75.4978 16.35 75.4978 16.71C75.4978 17.13 75.6778 17.47 76.0378 17.73C76.4178 17.99 77.0078 18.28 77.8078 18.6C78.6078 18.92 79.2678 19.23 79.7878 19.53C80.3078 19.83 80.7478 20.25 81.1078 20.79C81.4878 21.31 81.6778 21.96 81.6778 22.74C81.6778 23.54 81.4678 24.29 81.0478 24.99C80.6478 25.67 80.0278 26.23 79.1878 26.67C78.3478 27.09 77.3178 27.3 76.0978 27.3C74.6578 27.3 73.1678 27 71.6278 26.4L72.0778 23.28L72.4678 23.04C73.0878 23.56 73.7778 23.98 74.5378 24.3C75.2978 24.6 75.9678 24.75 76.5478 24.75C77.0878 24.75 77.5078 24.62 77.8078 24.36C78.1078 24.08 78.2578 23.75 78.2578 23.37C78.2578 22.95 78.0678 22.61 77.6878 22.35C77.3278 22.09 76.7478 21.8 75.9478 21.48C75.1278 21.12 74.4578 20.8 73.9378 20.52C73.4178 20.22 72.9678 19.8 72.5878 19.26C72.2278 18.72 72.0478 18.05 72.0478 17.25C72.0478 15.95 72.5378 14.89 73.5178 14.07C74.4978 13.23 75.8278 12.81 77.5078 12.81ZM94.5825 20.64L94.6425 23.37C94.6425 24.51 94.4525 25.48 94.0725 26.28C93.6925 27.08 93.0725 27.79 92.2125 28.41C91.3725 29.03 90.2125 29.62 88.7325 30.18L87.5025 28.02V27.66C88.7425 27.02 89.6125 26.39 90.1125 25.77C90.6325 25.13 90.8925 24.31 90.8925 23.31V21.03L90.7125 10.68L87.5325 10.77L87.2325 10.47L87.4425 7.68H94.7925L94.5825 20.64ZM111.958 24.39L111.598 26.49C110.858 26.97 110.098 27.22 109.318 27.24C108.738 27.14 108.258 26.91 107.878 26.55C107.498 26.19 107.208 25.67 107.008 24.99H106.738C105.598 26.11 104.418 26.84 103.198 27.18C101.678 27.18 100.518 26.84 99.7184 26.16C98.9384 25.46 98.5584 24.46 98.5784 23.16L98.6384 19.62L98.4884 13.32L102.358 12.99L102.268 21.84C102.248 22.54 102.388 23.07 102.688 23.43C102.988 23.79 103.438 23.97 104.038 23.97C104.918 23.97 105.788 23.58 106.648 22.8V13.32L110.458 12.99L110.188 23.37C110.188 23.69 110.238 23.92 110.338 24.06C110.458 24.2 110.638 24.27 110.878 24.27C111.098 24.27 111.368 24.23 111.688 24.15L111.958 24.39ZM118.992 12.81C120.352 12.81 121.632 13.04 122.832 13.5L122.292 16.44L121.812 16.59C121.232 16.21 120.652 15.92 120.072 15.72C119.492 15.52 118.982 15.42 118.542 15.42C118.062 15.42 117.682 15.55 117.402 15.81C117.122 16.05 116.982 16.35 116.982 16.71C116.982 17.13 117.162 17.47 117.522 17.73C117.902 17.99 118.492 18.28 119.292 18.6C120.092 18.92 120.752 19.23 121.272 19.53C121.792 19.83 122.232 20.25 122.592 20.79C122.972 21.31 123.162 21.96 123.162 22.74C123.162 23.54 122.952 24.29 122.532 24.99C122.132 25.67 121.512 26.23 120.672 26.67C119.832 27.09 118.802 27.3 117.582 27.3C116.142 27.3 114.652 27 113.112 26.4L113.562 23.28L113.952 23.04C114.572 23.56 115.262 23.98 116.022 24.3C116.782 24.6 117.452 24.75 118.032 24.75C118.572 24.75 118.992 24.62 119.292 24.36C119.592 24.08 119.742 23.75 119.742 23.37C119.742 22.95 119.552 22.61 119.172 22.35C118.812 22.09 118.232 21.8 117.432 21.48C116.612 21.12 115.942 20.8 115.422 20.52C114.902 20.22 114.452 19.8 114.072 19.26C113.712 18.72 113.532 18.05 113.532 17.25C113.532 15.95 114.022 14.89 115.002 14.07C115.982 13.23 117.312 12.81 118.992 12.81ZM131.466 24.06C132.106 24.06 132.776 23.89 133.476 23.55L133.806 23.85L133.416 26.22C132.396 26.74 131.356 27.06 130.296 27.18C127.596 26.9 126.246 25.58 126.246 23.22L126.396 20.73L126.366 15.57H124.506L124.356 15.36L124.566 13.17H126.336V10.86L129.966 9.69L130.236 9.93L130.146 13.17H133.716L133.836 13.38L133.656 15.57H130.086L129.906 22.29C129.906 22.93 130.026 23.39 130.266 23.67C130.506 23.93 130.906 24.06 131.466 24.06ZM148.664 7.41C151.384 7.41 153.474 8.24 154.934 9.9C156.414 11.54 157.154 13.88 157.154 16.92C157.154 20.24 156.354 22.8 154.754 24.6C153.154 26.4 150.894 27.3 147.974 27.3C145.274 27.3 143.184 26.46 141.704 24.78C140.244 23.08 139.514 20.68 139.514 17.58C139.514 14.32 140.304 11.81 141.884 10.05C143.484 8.29 145.744 7.41 148.664 7.41ZM148.304 10.68C146.704 10.68 145.544 11.18 144.824 12.18C144.104 13.18 143.744 14.81 143.744 17.07C143.744 19.65 144.094 21.49 144.794 22.59C145.514 23.69 146.694 24.24 148.334 24.24C149.934 24.24 151.094 23.74 151.814 22.74C152.534 21.72 152.894 20.06 152.894 17.76C152.894 15.22 152.534 13.41 151.814 12.33C151.114 11.23 149.944 10.68 148.304 10.68ZM168.244 18.3C168.264 17.6 168.104 17.06 167.764 16.68C167.444 16.28 166.974 16.08 166.354 16.08C165.454 16.08 164.494 16.51 163.474 17.37V20.85L163.654 27H159.664L159.874 21.24L159.724 13.32L163.504 12.99V15.03H163.714C164.814 14.03 166.014 13.31 167.314 12.87C168.834 12.87 169.994 13.22 170.794 13.92C171.594 14.6 171.974 15.59 171.934 16.89L171.844 20.88L172.024 27H168.004L168.244 18.3ZM186.343 20.52L178.243 20.58C178.423 23.08 179.693 24.33 182.053 24.33C183.293 24.33 184.673 23.98 186.193 23.28L186.523 23.49L185.923 26.46C184.403 27.02 182.973 27.3 181.633 27.3C179.433 27.3 177.703 26.66 176.443 25.38C175.203 24.1 174.583 22.33 174.583 20.07C174.583 17.83 175.193 16.06 176.413 14.76C177.633 13.44 179.283 12.78 181.363 12.78C183.143 12.78 184.513 13.27 185.473 14.25C186.453 15.21 186.943 16.56 186.943 18.3C186.943 18.76 186.893 19.34 186.793 20.04L186.343 20.52ZM183.463 17.85C183.463 17.05 183.283 16.45 182.923 16.05C182.563 15.63 182.033 15.42 181.333 15.42C180.553 15.42 179.903 15.68 179.383 16.2C178.863 16.7 178.513 17.43 178.333 18.39L183.403 18.27L183.463 17.85ZM207.074 8.01L206.834 11.04L203.204 10.86H202.004L201.854 20.88L202.034 27H197.954L198.164 21.24L198.014 10.86H196.814L193.124 11.04L192.854 10.71L193.124 7.68H206.834L207.074 8.01ZM212.908 12.78C214.448 12.78 215.648 13.13 216.508 13.83C217.388 14.51 217.828 15.47 217.828 16.71C217.828 17.07 217.768 18.21 217.648 20.13C217.628 20.69 217.598 21.27 217.558 21.87C217.518 22.45 217.498 22.95 217.498 23.37C217.498 23.71 217.548 23.95 217.648 24.09C217.748 24.21 217.928 24.27 218.188 24.27C218.388 24.27 218.648 24.23 218.968 24.15L219.268 24.39L218.908 26.49C218.268 26.91 217.538 27.16 216.718 27.24C216.118 27.18 215.618 26.97 215.218 26.61C214.818 26.23 214.548 25.71 214.408 25.05H214.198C213.198 26.11 212.168 26.85 211.108 27.27C209.668 27.25 208.538 26.87 207.718 26.13C206.898 25.39 206.488 24.38 206.488 23.1C206.488 22.1 206.738 21.32 207.238 20.76C207.758 20.18 208.538 19.79 209.578 19.59L214.168 18.72V17.49C214.168 16.19 213.528 15.54 212.248 15.54C211.628 15.54 210.968 15.68 210.268 15.96C209.588 16.24 208.818 16.68 207.958 17.28L207.658 17.1L207.208 14.46C208.068 13.92 208.988 13.51 209.968 13.23C210.948 12.93 211.928 12.78 212.908 12.78ZM210.958 21.42C210.638 21.5 210.398 21.64 210.238 21.84C210.098 22.02 210.028 22.3 210.028 22.68C210.028 23.2 210.168 23.61 210.448 23.91C210.728 24.19 211.118 24.33 211.618 24.33C212.398 24.33 213.218 23.87 214.078 22.95L214.138 20.73L210.958 21.42ZM229.241 12.87C230.981 12.87 232.321 13.46 233.261 14.64C234.201 15.82 234.671 17.49 234.671 19.65C234.671 22.09 234.061 23.98 232.841 25.32C231.641 26.64 229.941 27.3 227.741 27.3C227.101 27.3 226.431 27.24 225.731 27.12L225.821 32.55H221.861L222.071 21.24L221.891 13.32L225.701 12.99L225.671 15.03H225.881C226.441 14.49 226.981 14.06 227.501 13.74C228.021 13.4 228.601 13.11 229.241 12.87ZM227.771 24.69C228.811 24.69 229.601 24.32 230.141 23.58C230.681 22.84 230.951 21.75 230.951 20.31C230.951 18.91 230.721 17.86 230.261 17.16C229.821 16.44 229.161 16.08 228.281 16.08C227.421 16.08 226.551 16.51 225.671 17.37L225.641 20.85L225.701 24.24C226.421 24.54 227.111 24.69 227.771 24.69ZM257.619 27H253.479L252.999 24.48L252.489 22.68L248.709 22.59L245.379 22.68L244.869 24.27L244.359 27H240.339L246.879 7.68H251.709L257.619 27ZM251.619 19.53L249.339 11.49H249.069L246.429 19.53L249.009 19.59L251.619 19.53ZM261.705 15.15L263.415 22.98H263.655L265.755 15.36L266.235 13.05H270.105L270.405 15.15L272.175 22.95H272.415L274.455 15.36L274.935 13.05H278.295L273.945 27H270.195L268.065 18.03H267.795L265.305 27H261.375L257.745 13.14L261.375 12.96L261.705 15.15ZM285.242 12.78C286.782 12.78 287.982 13.13 288.842 13.83C289.722 14.51 290.162 15.47 290.162 16.71C290.162 17.07 290.102 18.21 289.982 20.13C289.962 20.69 289.932 21.27 289.892 21.87C289.852 22.45 289.832 22.95 289.832 23.37C289.832 23.71 289.882 23.95 289.982 24.09C290.082 24.21 290.262 24.27 290.522 24.27C290.722 24.27 290.982 24.23 291.302 24.15L291.602 24.39L291.242 26.49C290.602 26.91 289.872 27.16 289.052 27.24C288.452 27.18 287.952 26.97 287.552 26.61C287.152 26.23 286.882 25.71 286.742 25.05H286.532C285.532 26.11 284.502 26.85 283.442 27.27C282.002 27.25 280.872 26.87 280.052 26.13C279.232 25.39 278.822 24.38 278.822 23.1C278.822 22.1 279.072 21.32 279.572 20.76C280.092 20.18 280.872 19.79 281.912 19.59L286.502 18.72V17.49C286.502 16.19 285.862 15.54 284.582 15.54C283.962 15.54 283.302 15.68 282.602 15.96C281.922 16.24 281.152 16.68 280.292 17.28L279.992 17.1L279.542 14.46C280.402 13.92 281.322 13.51 282.302 13.23C283.282 12.93 284.262 12.78 285.242 12.78ZM283.292 21.42C282.972 21.5 282.732 21.64 282.572 21.84C282.432 22.02 282.362 22.3 282.362 22.68C282.362 23.2 282.502 23.61 282.782 23.91C283.062 24.19 283.452 24.33 283.952 24.33C284.732 24.33 285.552 23.87 286.412 22.95L286.472 20.73L283.292 21.42ZM296.39 15.18L298.88 22.98H299.12L301.61 15.51L302.12 13.05H305.54L300.98 26.07C300.5 27.43 299.96 28.52 299.36 29.34C298.76 30.18 298.01 30.86 297.11 31.38C296.21 31.92 295.05 32.38 293.63 32.76L293.33 32.73C292.65 32.07 292.09 31.29 291.65 30.39L291.77 30C293.03 29.78 294.07 29.45 294.89 29.01C295.71 28.59 296.49 27.92 297.23 27L292.13 13.14L295.91 12.96L296.39 15.18Z" fill="#434040"/>
<path d="M3.75 76.625V81.475H8.7C8.98333 81.475 9.20833 81.5417 9.375 81.675C9.54167 81.8083 9.625 81.9917 9.625 82.225C9.625 82.4583 9.54167 82.6417 9.375 82.775C9.20833 82.9083 8.98333 82.975 8.7 82.975H3.75V88.475H9.825C10.1083 88.475 10.3333 88.55 10.5 88.7C10.6667 88.8333 10.75 89.0167 10.75 89.25C10.75 89.4833 10.6667 89.6667 10.5 89.8C10.3333 89.9333 10.1083 90 9.825 90H3.05C2.68333 90 2.41667 89.8917 2.25 89.675C2.1 89.4583 2.025 89.1833 2.025 88.85V76.25C2.025 75.8333 2.10833 75.5417 2.275 75.375C2.45833 75.1917 2.75833 75.1 3.175 75.1H9.55C9.85 75.1 10.075 75.1667 10.225 75.3C10.3917 75.4333 10.475 75.6167 10.475 75.85C10.475 76.0833 10.3917 76.275 10.225 76.425C10.075 76.5583 9.85 76.625 9.55 76.625H3.75ZM14.5764 81.3C14.9597 80.9167 15.368 80.6333 15.8014 80.45C16.2514 80.2667 16.7847 80.175 17.4014 80.175C18.818 80.175 19.768 80.6917 20.2514 81.725C20.5847 81.1917 21.018 80.8 21.5514 80.55C22.0847 80.3 22.718 80.175 23.4514 80.175C25.1514 80.175 26.2014 80.9083 26.6014 82.375C26.6847 82.6417 26.7347 82.9667 26.7514 83.35C26.7847 83.7333 26.8014 84.225 26.8014 84.825V89.2C26.8014 89.5167 26.7264 89.7667 26.5764 89.95C26.443 90.1333 26.243 90.225 25.9764 90.225C25.7097 90.225 25.5014 90.1333 25.3514 89.95C25.218 89.7667 25.1514 89.5167 25.1514 89.2V84.975C25.1514 83.925 25.0764 83.1917 24.9264 82.775C24.7764 82.3917 24.5597 82.1083 24.2764 81.925C23.993 81.725 23.6347 81.625 23.2014 81.625C22.768 81.625 22.3764 81.7083 22.0264 81.875C21.6764 82.025 21.4097 82.2417 21.2264 82.525C21.0597 82.7583 20.943 83.075 20.8764 83.475C20.8097 83.875 20.7764 84.4 20.7764 85.05V89.2C20.7764 89.5167 20.7014 89.7667 20.5514 89.95C20.418 90.1333 20.218 90.225 19.9514 90.225C19.6847 90.225 19.4764 90.1333 19.3264 89.95C19.193 89.7667 19.1264 89.5167 19.1264 89.2V84.975C19.1264 84.4417 19.1014 83.9917 19.0514 83.625C19.018 83.2417 18.9597 82.95 18.8764 82.75C18.5764 82 18.0097 81.625 17.1764 81.625C16.7264 81.625 16.3264 81.7083 15.9764 81.875C15.6264 82.025 15.3597 82.2417 15.1764 82.525C15.0097 82.775 14.893 83.1 14.8264 83.5C14.7597 83.9 14.7264 84.4417 14.7264 85.125V89.2C14.7264 89.5167 14.6514 89.7667 14.5014 89.95C14.368 90.1333 14.168 90.225 13.9014 90.225C13.6347 90.225 13.4264 90.1333 13.2764 89.95C13.143 89.7667 13.0764 89.5167 13.0764 89.2V81C13.0764 80.7 13.1514 80.5 13.3014 80.4C13.4514 80.2833 13.643 80.225 13.8764 80.225C14.043 80.225 14.193 80.2917 14.3264 80.425C14.4597 80.5417 14.543 80.8333 14.5764 81.3ZM31.1436 85.5V85.975C31.1436 86.975 31.3602 87.7083 31.7936 88.175C32.2436 88.6417 32.9352 88.875 33.8686 88.875C34.3686 88.875 34.8436 88.8167 35.2936 88.7C35.7436 88.5833 36.1519 88.4083 36.5186 88.175C36.6519 88.1083 36.7602 88.075 36.8436 88.075C37.0269 88.075 37.1852 88.15 37.3186 88.3C37.4519 88.4333 37.5186 88.5917 37.5186 88.775C37.5186 88.8917 37.4852 89 37.4186 89.1C37.3686 89.2 37.2769 89.3 37.1436 89.4C36.7602 89.6667 36.2686 89.875 35.6686 90.025C35.0852 90.175 34.4519 90.25 33.7686 90.25C32.3519 90.25 31.2852 89.8917 30.5686 89.175C29.8519 88.4417 29.4936 87.3417 29.4936 85.875V84.7C29.4936 83.2167 29.8436 82.0917 30.5436 81.325C31.2602 80.5583 32.3102 80.175 33.6936 80.175C35.0769 80.175 36.0936 80.5667 36.7436 81.35C37.0269 81.7 37.2519 82.15 37.4186 82.7C37.5852 83.25 37.6686 83.8667 37.6686 84.55C37.6686 84.8833 37.5602 85.125 37.3436 85.275C37.1269 85.425 36.8519 85.5 36.5186 85.5H31.1436ZM36.0936 84.3C36.0436 83.2667 35.8352 82.5417 35.4686 82.125C35.1019 81.6917 34.5102 81.475 33.6936 81.475C32.8436 81.475 32.2186 81.7 31.8186 82.15C31.4186 82.6 31.1936 83.3167 31.1436 84.3H36.0936ZM41.8963 81.725C42.713 80.8083 43.8296 80.35 45.2463 80.35C45.463 80.35 45.638 80.4167 45.7713 80.55C45.9046 80.6833 45.9713 80.8583 45.9713 81.075C45.9713 81.3583 45.888 81.55 45.7213 81.65C45.5713 81.7333 45.3463 81.7917 45.0463 81.825C43.9296 81.925 43.1463 82.2417 42.6963 82.775C42.2463 83.3083 42.0213 84.2 42.0213 85.45V89.2C42.0213 89.5167 41.9463 89.7667 41.7963 89.95C41.663 90.1333 41.463 90.225 41.1963 90.225C40.9296 90.225 40.7213 90.1333 40.5713 89.95C40.438 89.7667 40.3713 89.5167 40.3713 89.2V81C40.3713 80.7667 40.438 80.5833 40.5713 80.45C40.7213 80.3 40.9046 80.225 41.1213 80.225C41.338 80.225 41.5046 80.3167 41.6213 80.5C41.7546 80.6833 41.8463 81.0917 41.8963 81.725ZM53.3764 89.075C52.7597 89.8583 51.8264 90.25 50.5764 90.25C49.3097 90.25 48.3764 89.8833 47.7764 89.15C47.1764 88.4167 46.8764 87.2667 46.8764 85.7V84.85C46.8764 83.3167 47.193 82.1583 47.8264 81.375C48.4764 80.575 49.4264 80.175 50.6764 80.175C51.943 80.175 52.8847 80.6083 53.5014 81.475C53.5347 80.9417 53.6097 80.6 53.7264 80.45C53.843 80.3 54.0264 80.225 54.2764 80.225C54.543 80.225 54.7264 80.3083 54.8264 80.475C54.943 80.6417 55.0014 80.85 55.0014 81.1V89.05C55.0014 89.9333 54.9764 90.65 54.9264 91.2C54.893 91.7667 54.818 92.225 54.7014 92.575C54.6014 92.9417 54.4514 93.2667 54.2514 93.55C53.4847 94.65 52.2264 95.2 50.4764 95.2C48.7597 95.2 47.6264 94.775 47.0764 93.925C47.0097 93.8083 46.9847 93.675 47.0014 93.525C47.0347 93.3583 47.1097 93.225 47.2264 93.125C47.3597 93.025 47.5097 92.975 47.6764 92.975C47.743 92.975 47.8014 92.9833 47.8514 93C47.918 93.0167 47.993 93.0667 48.0764 93.15C48.7097 93.6 49.468 93.825 50.3514 93.825C51.018 93.825 51.5514 93.7167 51.9514 93.5C52.3514 93.2833 52.6514 92.9833 52.8514 92.6C53.0514 92.2333 53.1847 91.8083 53.2514 91.325C53.3347 90.8417 53.3764 90.3333 53.3764 89.8V89.075ZM53.3264 84.775C53.3097 84.175 53.2347 83.6417 53.1014 83.175C52.9847 82.6917 52.7597 82.3167 52.4264 82.05C52.093 81.7667 51.593 81.625 50.9264 81.625C50.1097 81.625 49.5097 81.8917 49.1264 82.425C48.743 82.9583 48.5514 83.7917 48.5514 84.925V85.7C48.5514 86.7833 48.7347 87.575 49.1014 88.075C49.4847 88.5583 50.0847 88.8 50.9014 88.8C51.7514 88.8 52.368 88.55 52.7514 88.05C53.1514 87.55 53.3514 86.7583 53.3514 85.675L53.3264 84.775ZM59.415 85.5V85.975C59.415 86.975 59.6317 87.7083 60.065 88.175C60.515 88.6417 61.2067 88.875 62.14 88.875C62.64 88.875 63.115 88.8167 63.565 88.7C64.015 88.5833 64.4234 88.4083 64.79 88.175C64.9234 88.1083 65.0317 88.075 65.115 88.075C65.2984 88.075 65.4567 88.15 65.59 88.3C65.7234 88.4333 65.79 88.5917 65.79 88.775C65.79 88.8917 65.7567 89 65.69 89.1C65.64 89.2 65.5484 89.3 65.415 89.4C65.0317 89.6667 64.54 89.875 63.94 90.025C63.3567 90.175 62.7234 90.25 62.04 90.25C60.6234 90.25 59.5567 89.8917 58.84 89.175C58.1234 88.4417 57.765 87.3417 57.765 85.875V84.7C57.765 83.2167 58.115 82.0917 58.815 81.325C59.5317 80.5583 60.5817 80.175 61.965 80.175C63.3484 80.175 64.365 80.5667 65.015 81.35C65.2984 81.7 65.5234 82.15 65.69 82.7C65.8567 83.25 65.94 83.8667 65.94 84.55C65.94 84.8833 65.8317 85.125 65.615 85.275C65.3984 85.425 65.1234 85.5 64.79 85.5H59.415ZM64.365 84.3C64.315 83.2667 64.1067 82.5417 63.74 82.125C63.3734 81.6917 62.7817 81.475 61.965 81.475C61.115 81.475 60.49 81.7 60.09 82.15C59.69 82.6 59.465 83.3167 59.415 84.3H64.365ZM70.1428 81.325C70.5094 80.925 70.9344 80.6333 71.4178 80.45C71.9011 80.2667 72.4761 80.175 73.1428 80.175C74.9261 80.175 76.0178 80.9083 76.4178 82.375C76.5011 82.6083 76.5511 82.9333 76.5678 83.35C76.6011 83.75 76.6178 84.2417 76.6178 84.825V89.2C76.6178 89.5167 76.5428 89.7667 76.3928 89.95C76.2594 90.1333 76.0594 90.225 75.7928 90.225C75.5261 90.225 75.3178 90.1333 75.1678 89.95C75.0344 89.7667 74.9678 89.5167 74.9678 89.2V84.975C74.9678 84.4417 74.9428 83.9833 74.8928 83.6C74.8594 83.2167 74.7928 82.925 74.6928 82.725C74.3928 81.9917 73.7844 81.625 72.8678 81.625C72.4011 81.625 71.9844 81.7 71.6178 81.85C71.2511 82 70.9761 82.2167 70.7928 82.5C70.6094 82.75 70.4761 83.075 70.3928 83.475C70.3261 83.875 70.2928 84.425 70.2928 85.125V89.2C70.2928 89.5167 70.2178 89.7667 70.0678 89.95C69.9344 90.1333 69.7344 90.225 69.4678 90.225C69.2011 90.225 68.9928 90.1333 68.8428 89.95C68.7094 89.7667 68.6428 89.5167 68.6428 89.2V81C68.6428 80.7 68.7178 80.5 68.8678 80.4C69.0178 80.2833 69.2094 80.225 69.4428 80.225C69.6094 80.225 69.7594 80.2917 69.8928 80.425C70.0261 80.5583 70.1094 80.8583 70.1428 81.325ZM79.4227 84.625C79.4227 83.175 79.7727 82.075 80.4727 81.325C81.1727 80.5583 82.1893 80.175 83.5227 80.175C84.106 80.175 84.606 80.25 85.0227 80.4C85.456 80.5333 85.8393 80.7667 86.1727 81.1C86.356 81.2667 86.4477 81.4583 86.4477 81.675C86.4477 81.8583 86.381 82.0333 86.2477 82.2C86.1143 82.3667 85.956 82.45 85.7727 82.45C85.706 82.45 85.6393 82.4333 85.5727 82.4C85.5227 82.3667 85.4477 82.3083 85.3477 82.225C84.881 81.825 84.3143 81.625 83.6477 81.625C82.7643 81.625 82.1143 81.8833 81.6977 82.4C81.281 82.9 81.0727 83.6917 81.0727 84.775V85.675C81.0727 86.7417 81.281 87.5333 81.6977 88.05C82.1143 88.55 82.756 88.8 83.6227 88.8C84.006 88.8 84.356 88.75 84.6727 88.65C84.9893 88.55 85.2977 88.3917 85.5977 88.175C85.781 88.0583 85.9227 88 86.0227 88C86.2227 88 86.3893 88.0833 86.5227 88.25C86.656 88.4 86.7227 88.5667 86.7227 88.75C86.7227 89 86.5893 89.225 86.3227 89.425C85.606 89.975 84.6477 90.25 83.4477 90.25C82.131 90.25 81.131 89.875 80.4477 89.125C79.7643 88.375 79.4227 87.2667 79.4227 85.8V84.625ZM91.1047 89.975L87.9297 81.5C87.913 81.4167 87.888 81.3333 87.8547 81.25C87.838 81.15 87.8297 81.0667 87.8297 81C87.8297 80.8 87.913 80.625 88.0797 80.475C88.2464 80.325 88.438 80.25 88.6547 80.25C89.0547 80.25 89.338 80.4917 89.5047 80.975L92.0047 88L94.3797 80.95C94.5464 80.4667 94.8214 80.225 95.2047 80.225C95.4214 80.225 95.6047 80.3 95.7547 80.45C95.9214 80.6 96.0047 80.775 96.0047 80.975C96.0047 81.1083 95.963 81.275 95.8797 81.475L92.0547 91.85C91.888 92.2833 91.7297 92.65 91.5797 92.95C91.4464 93.25 91.3047 93.5 91.1547 93.7C91.0214 93.9 90.863 94.0833 90.6797 94.25C90.463 94.4667 90.1964 94.6417 89.8797 94.775C89.5797 94.925 89.313 95 89.0797 95C88.8964 95 88.7464 94.9333 88.6297 94.8C88.5297 94.6833 88.4797 94.525 88.4797 94.325C88.4797 94.1417 88.513 93.9917 88.5797 93.875C88.663 93.775 88.813 93.6833 89.0297 93.6C89.363 93.45 89.6547 93.2 89.9047 92.85C90.1547 92.5167 90.388 92.025 90.6047 91.375L91.1047 89.975ZM103.056 81.225C103.39 80.875 103.781 80.6167 104.231 80.45C104.698 80.2667 105.24 80.175 105.856 80.175C107.673 80.175 108.781 80.9083 109.181 82.375C109.265 82.6083 109.315 82.9333 109.331 83.35C109.365 83.75 109.381 84.2417 109.381 84.825V89.2C109.381 89.5167 109.306 89.7667 109.156 89.95C109.023 90.1333 108.823 90.225 108.556 90.225C108.29 90.225 108.081 90.1333 107.931 89.95C107.798 89.7667 107.731 89.5167 107.731 89.2V84.975C107.731 83.8917 107.64 83.125 107.456 82.675C107.14 81.975 106.531 81.625 105.631 81.625C105.181 81.625 104.773 81.7 104.406 81.85C104.04 81.9833 103.756 82.1833 103.556 82.45C103.39 82.6833 103.265 83.0083 103.181 83.425C103.098 83.825 103.056 84.3917 103.056 85.125V89.2C103.056 89.5167 102.981 89.7667 102.831 89.95C102.698 90.1333 102.498 90.225 102.231 90.225C101.965 90.225 101.756 90.1333 101.606 89.95C101.473 89.7667 101.406 89.5167 101.406 89.2V75.275C101.406 74.9417 101.473 74.6917 101.606 74.525C101.756 74.3417 101.965 74.25 102.231 74.25C102.498 74.25 102.698 74.3417 102.831 74.525C102.981 74.6917 103.056 74.9417 103.056 75.275V81.225ZM113.736 85.5V85.975C113.736 86.975 113.953 87.7083 114.386 88.175C114.836 88.6417 115.528 88.875 116.461 88.875C116.961 88.875 117.436 88.8167 117.886 88.7C118.336 88.5833 118.745 88.4083 119.111 88.175C119.245 88.1083 119.353 88.075 119.436 88.075C119.62 88.075 119.778 88.15 119.911 88.3C120.045 88.4333 120.111 88.5917 120.111 88.775C120.111 88.8917 120.078 89 120.011 89.1C119.961 89.2 119.87 89.3 119.736 89.4C119.353 89.6667 118.861 89.875 118.261 90.025C117.678 90.175 117.045 90.25 116.361 90.25C114.945 90.25 113.878 89.8917 113.161 89.175C112.445 88.4417 112.086 87.3417 112.086 85.875V84.7C112.086 83.2167 112.436 82.0917 113.136 81.325C113.853 80.5583 114.903 80.175 116.286 80.175C117.67 80.175 118.686 80.5667 119.336 81.35C119.62 81.7 119.845 82.15 120.011 82.7C120.178 83.25 120.261 83.8667 120.261 84.55C120.261 84.8833 120.153 85.125 119.936 85.275C119.72 85.425 119.445 85.5 119.111 85.5H113.736ZM118.686 84.3C118.636 83.2667 118.428 82.5417 118.061 82.125C117.695 81.6917 117.103 81.475 116.286 81.475C115.436 81.475 114.811 81.7 114.411 82.15C114.011 82.6 113.786 83.3167 113.736 84.3H118.686ZM125.664 90.225C124.797 90.225 124.147 89.9 123.714 89.25C123.481 88.8833 123.314 88.4083 123.214 87.825C123.114 87.225 123.064 86.4 123.064 85.35V75.275C123.064 74.9417 123.131 74.6917 123.264 74.525C123.414 74.3417 123.622 74.25 123.889 74.25C124.156 74.25 124.356 74.3417 124.489 74.525C124.639 74.6917 124.714 74.9417 124.714 75.275V85.5C124.714 86.3 124.747 86.925 124.814 87.375C124.881 87.8083 124.997 88.1333 125.164 88.35C125.347 88.55 125.589 88.6917 125.889 88.775C126.072 88.825 126.206 88.9167 126.289 89.05C126.389 89.1667 126.431 89.3333 126.414 89.55C126.414 89.75 126.339 89.9083 126.189 90.025C126.056 90.1583 125.881 90.225 125.664 90.225ZM129.884 81.55C130.551 80.6333 131.559 80.175 132.909 80.175C134.109 80.175 135.009 80.55 135.609 81.3C136.209 82.0333 136.509 83.1417 136.509 84.625V85.625C136.509 87.1583 136.192 88.3167 135.559 89.1C134.926 89.8667 133.984 90.25 132.734 90.25C132.101 90.25 131.551 90.15 131.084 89.95C130.617 89.7333 130.267 89.4417 130.034 89.075V94.2C130.034 94.5167 129.959 94.7667 129.809 94.95C129.676 95.1333 129.476 95.225 129.209 95.225C128.942 95.225 128.734 95.1333 128.584 94.95C128.451 94.7667 128.384 94.5167 128.384 94.2V81C128.384 80.4833 128.642 80.225 129.159 80.225C129.342 80.225 129.492 80.3083 129.609 80.475C129.742 80.625 129.834 80.9833 129.884 81.55ZM130.059 85.65C130.092 86.8333 130.276 87.6583 130.609 88.125C130.959 88.575 131.559 88.8 132.409 88.8C133.242 88.8 133.851 88.55 134.234 88.05C134.634 87.55 134.834 86.7667 134.834 85.7V84.775C134.834 83.675 134.659 82.875 134.309 82.375C133.959 81.875 133.392 81.625 132.609 81.625C131.742 81.625 131.092 81.8833 130.659 82.4C130.242 82.9167 130.034 83.7083 130.034 84.775L130.059 85.65ZM145.071 87.5L147.246 80.95C147.413 80.4667 147.696 80.225 148.096 80.225C148.479 80.225 148.754 80.475 148.921 80.975L151.071 87.5L153.121 80.95C153.271 80.4667 153.546 80.225 153.946 80.225C154.146 80.225 154.321 80.3 154.471 80.45C154.638 80.6 154.721 80.7667 154.721 80.95C154.721 81.0167 154.713 81.1 154.696 81.2C154.679 81.2833 154.654 81.3667 154.621 81.45L151.971 89.425C151.804 89.9583 151.504 90.225 151.071 90.225C150.638 90.225 150.338 89.95 150.171 89.4L148.021 82.95L145.871 89.4C145.704 89.95 145.404 90.225 144.971 90.225C144.521 90.225 144.213 89.95 144.046 89.4L141.471 81.5C141.438 81.4167 141.413 81.3333 141.396 81.25C141.379 81.15 141.371 81.0667 141.371 81C141.371 80.7833 141.454 80.6 141.621 80.45C141.788 80.3 141.979 80.225 142.196 80.225C142.613 80.225 142.896 80.4833 143.046 81L145.071 87.5ZM157.972 75.975C158.289 75.975 158.531 76.0833 158.697 76.3C158.881 76.5 158.972 76.7917 158.972 77.175C158.972 77.5417 158.881 77.8333 158.697 78.05C158.531 78.2667 158.289 78.375 157.972 78.375C157.672 78.375 157.431 78.2667 157.247 78.05C157.081 77.8333 156.997 77.5417 156.997 77.175C156.997 76.7917 157.081 76.5 157.247 76.3C157.431 76.0833 157.672 75.975 157.972 75.975ZM157.147 89.2V81.225C157.147 80.9083 157.214 80.6667 157.347 80.5C157.497 80.3167 157.706 80.225 157.972 80.225C158.239 80.225 158.439 80.3167 158.572 80.5C158.722 80.6667 158.797 80.9083 158.797 81.225V89.2C158.797 89.5167 158.722 89.7667 158.572 89.95C158.439 90.1333 158.239 90.225 157.972 90.225C157.706 90.225 157.497 90.1333 157.347 89.95C157.214 89.7667 157.147 89.5167 157.147 89.2ZM165.02 90.225C164.153 90.225 163.503 89.9 163.07 89.25C162.836 88.8833 162.67 88.4083 162.57 87.825C162.47 87.225 162.42 86.4 162.42 85.35V75.275C162.42 74.9417 162.486 74.6917 162.62 74.525C162.77 74.3417 162.978 74.25 163.245 74.25C163.511 74.25 163.711 74.3417 163.845 74.525C163.995 74.6917 164.07 74.9417 164.07 75.275V85.5C164.07 86.3 164.103 86.925 164.17 87.375C164.236 87.8083 164.353 88.1333 164.52 88.35C164.703 88.55 164.945 88.6917 165.245 88.775C165.428 88.825 165.561 88.9167 165.645 89.05C165.745 89.1667 165.786 89.3333 165.77 89.55C165.77 89.75 165.695 89.9083 165.545 90.025C165.411 90.1583 165.236 90.225 165.02 90.225ZM170.439 90.225C169.573 90.225 168.923 89.9 168.489 89.25C168.256 88.8833 168.089 88.4083 167.989 87.825C167.889 87.225 167.839 86.4 167.839 85.35V75.275C167.839 74.9417 167.906 74.6917 168.039 74.525C168.189 74.3417 168.398 74.25 168.664 74.25C168.931 74.25 169.131 74.3417 169.264 74.525C169.414 74.6917 169.489 74.9417 169.489 75.275V85.5C169.489 86.3 169.523 86.925 169.589 87.375C169.656 87.8083 169.773 88.1333 169.939 88.35C170.123 88.55 170.364 88.6917 170.664 88.775C170.848 88.825 170.981 88.9167 171.064 89.05C171.164 89.1667 171.206 89.3333 171.189 89.55C171.189 89.75 171.114 89.9083 170.964 90.025C170.831 90.1583 170.656 90.225 170.439 90.225ZM178.008 81.425C178.274 81.0417 178.658 80.7417 179.158 80.525C179.674 80.2917 180.241 80.175 180.858 80.175C182.058 80.175 182.958 80.55 183.558 81.3C184.174 82.0333 184.483 83.1417 184.483 84.625V85.625C184.483 87.1417 184.158 88.2917 183.508 89.075C182.874 89.8583 181.941 90.25 180.708 90.25C180.041 90.25 179.483 90.15 179.033 89.95C178.599 89.75 178.199 89.425 177.833 88.975C177.766 89.5583 177.666 89.9083 177.533 90.025C177.416 90.1583 177.258 90.225 177.058 90.225C176.808 90.225 176.624 90.1417 176.508 89.975C176.408 89.8083 176.358 89.6083 176.358 89.375V75.275C176.358 74.9417 176.424 74.6917 176.558 74.525C176.708 74.3417 176.916 74.25 177.183 74.25C177.449 74.25 177.649 74.3417 177.783 74.525C177.933 74.6917 178.008 74.9417 178.008 75.275V81.425ZM178.033 85.65C178.066 86.8333 178.249 87.6583 178.583 88.125C178.933 88.575 179.533 88.8 180.383 88.8C181.216 88.8 181.824 88.55 182.208 88.05C182.608 87.55 182.808 86.7667 182.808 85.7V84.775C182.808 83.675 182.633 82.875 182.283 82.375C181.933 81.875 181.366 81.625 180.583 81.625C179.716 81.625 179.066 81.8833 178.633 82.4C178.216 82.9167 178.008 83.7083 178.008 84.775L178.033 85.65ZM188.321 85.5V85.975C188.321 86.975 188.538 87.7083 188.971 88.175C189.421 88.6417 190.113 88.875 191.046 88.875C191.546 88.875 192.021 88.8167 192.471 88.7C192.921 88.5833 193.33 88.4083 193.696 88.175C193.83 88.1083 193.938 88.075 194.021 88.075C194.205 88.075 194.363 88.15 194.496 88.3C194.63 88.4333 194.696 88.5917 194.696 88.775C194.696 88.8917 194.663 89 194.596 89.1C194.546 89.2 194.455 89.3 194.321 89.4C193.938 89.6667 193.446 89.875 192.846 90.025C192.263 90.175 191.63 90.25 190.946 90.25C189.53 90.25 188.463 89.8917 187.746 89.175C187.03 88.4417 186.671 87.3417 186.671 85.875V84.7C186.671 83.2167 187.021 82.0917 187.721 81.325C188.438 80.5583 189.488 80.175 190.871 80.175C192.255 80.175 193.271 80.5667 193.921 81.35C194.205 81.7 194.43 82.15 194.596 82.7C194.763 83.25 194.846 83.8667 194.846 84.55C194.846 84.8833 194.738 85.125 194.521 85.275C194.305 85.425 194.03 85.5 193.696 85.5H188.321ZM193.271 84.3C193.221 83.2667 193.013 82.5417 192.646 82.125C192.28 81.6917 191.688 81.475 190.871 81.475C190.021 81.475 189.396 81.7 188.996 82.15C188.596 82.6 188.371 83.3167 188.321 84.3H193.271ZM206.647 81.375V75.275C206.647 74.9417 206.714 74.6917 206.847 74.525C206.997 74.3417 207.206 74.25 207.472 74.25C207.739 74.25 207.939 74.3417 208.072 74.525C208.222 74.6917 208.297 74.9417 208.297 75.275V89.475C208.297 89.7417 208.222 89.9333 208.072 90.05C207.922 90.1667 207.731 90.225 207.497 90.225C207.297 90.225 207.147 90.15 207.047 90C206.947 89.85 206.872 89.5083 206.822 88.975C206.422 89.425 205.989 89.75 205.522 89.95C205.072 90.15 204.506 90.25 203.822 90.25C202.589 90.25 201.672 89.875 201.072 89.125C200.472 88.3583 200.172 87.1917 200.172 85.625V84.775C200.172 83.2583 200.489 82.1167 201.122 81.35C201.772 80.5667 202.722 80.175 203.972 80.175C205.206 80.175 206.097 80.575 206.647 81.375ZM206.622 84.775C206.606 84.175 206.564 83.7167 206.497 83.4C206.431 83.0667 206.314 82.775 206.147 82.525C205.764 81.925 205.122 81.625 204.222 81.625C203.406 81.625 202.806 81.8917 202.422 82.425C202.039 82.9583 201.847 83.7917 201.847 84.925V85.7C201.847 86.7833 202.031 87.575 202.397 88.075C202.781 88.5583 203.381 88.8 204.197 88.8C205.031 88.8 205.647 88.55 206.047 88.05C206.447 87.5333 206.647 86.7417 206.647 85.675L206.622 84.775ZM212.611 75.975C212.928 75.975 213.169 76.0833 213.336 76.3C213.519 76.5 213.611 76.7917 213.611 77.175C213.611 77.5417 213.519 77.8333 213.336 78.05C213.169 78.2667 212.928 78.375 212.611 78.375C212.311 78.375 212.069 78.2667 211.886 78.05C211.719 77.8333 211.636 77.5417 211.636 77.175C211.636 76.7917 211.719 76.5 211.886 76.3C212.069 76.0833 212.311 75.975 212.611 75.975ZM211.786 89.2V81.225C211.786 80.9083 211.853 80.6667 211.986 80.5C212.136 80.3167 212.344 80.225 212.611 80.225C212.878 80.225 213.078 80.3167 213.211 80.5C213.361 80.6667 213.436 80.9083 213.436 81.225V89.2C213.436 89.5167 213.361 89.7667 213.211 89.95C213.078 90.1333 212.878 90.225 212.611 90.225C212.344 90.225 212.136 90.1333 211.986 89.95C211.853 89.7667 211.786 89.5167 211.786 89.2ZM219.683 90.25C218.133 90.25 217.008 89.8417 216.308 89.025C216.025 88.6583 215.883 88.3583 215.883 88.125C215.883 87.9417 215.95 87.775 216.083 87.625C216.233 87.475 216.408 87.4 216.608 87.4C216.692 87.4 216.767 87.425 216.833 87.475C216.917 87.5083 216.992 87.5667 217.058 87.65C217.408 88.05 217.808 88.3583 218.258 88.575C218.708 88.775 219.2 88.875 219.733 88.875C221.083 88.875 221.758 88.375 221.758 87.375C221.758 87.0583 221.7 86.8 221.583 86.6C221.467 86.4 221.242 86.2167 220.908 86.05C220.592 85.8833 220.108 85.7 219.458 85.5C218.792 85.2833 218.242 85.075 217.808 84.875C217.375 84.675 217.05 84.425 216.833 84.125C216.617 83.825 216.508 83.4167 216.508 82.9C216.508 82.0167 216.8 81.3417 217.383 80.875C217.967 80.4083 218.792 80.175 219.858 80.175C221.125 80.175 222.042 80.525 222.608 81.225C222.742 81.4083 222.808 81.5917 222.808 81.775C222.808 81.9583 222.733 82.1333 222.583 82.3C222.45 82.45 222.292 82.525 222.108 82.525C222.042 82.525 221.983 82.5083 221.933 82.475C221.883 82.4417 221.792 82.375 221.658 82.275C221.342 81.9917 221.067 81.8083 220.833 81.725C220.6 81.625 220.275 81.575 219.858 81.575C219.308 81.575 218.883 81.6833 218.583 81.9C218.3 82.1167 218.158 82.4167 218.158 82.8C218.158 83.0333 218.2 83.225 218.283 83.375C218.383 83.525 218.6 83.675 218.933 83.825C219.267 83.9583 219.792 84.1417 220.508 84.375C221.592 84.725 222.342 85.1167 222.758 85.55C223.175 85.9667 223.383 86.5667 223.383 87.35C223.383 89.2833 222.15 90.25 219.683 90.25ZM227.491 81.55C228.158 80.6333 229.166 80.175 230.516 80.175C231.716 80.175 232.616 80.55 233.216 81.3C233.816 82.0333 234.116 83.1417 234.116 84.625V85.625C234.116 87.1583 233.8 88.3167 233.166 89.1C232.533 89.8667 231.591 90.25 230.341 90.25C229.708 90.25 229.158 90.15 228.691 89.95C228.225 89.7333 227.875 89.4417 227.641 89.075V94.2C227.641 94.5167 227.566 94.7667 227.416 94.95C227.283 95.1333 227.083 95.225 226.816 95.225C226.55 95.225 226.341 95.1333 226.191 94.95C226.058 94.7667 225.991 94.5167 225.991 94.2V81C225.991 80.4833 226.25 80.225 226.766 80.225C226.95 80.225 227.1 80.3083 227.216 80.475C227.35 80.625 227.441 80.9833 227.491 81.55ZM227.666 85.65C227.7 86.8333 227.883 87.6583 228.216 88.125C228.566 88.575 229.166 88.8 230.016 88.8C230.85 88.8 231.458 88.55 231.841 88.05C232.241 87.55 232.441 86.7667 232.441 85.7V84.775C232.441 83.675 232.266 82.875 231.916 82.375C231.566 81.875 231 81.625 230.216 81.625C229.35 81.625 228.7 81.8833 228.266 82.4C227.85 82.9167 227.641 83.7083 227.641 84.775L227.666 85.65ZM242.526 84.05V83.7C242.526 82.8833 242.376 82.3167 242.076 82C241.776 81.6833 241.251 81.525 240.501 81.525C240.051 81.525 239.618 81.5917 239.201 81.725C238.784 81.8583 238.418 82.0417 238.101 82.275C237.984 82.375 237.868 82.425 237.751 82.425C237.568 82.425 237.409 82.3583 237.276 82.225C237.143 82.075 237.076 81.9083 237.076 81.725C237.076 81.4917 237.151 81.3167 237.301 81.2C237.684 80.8667 238.159 80.6167 238.726 80.45C239.309 80.2667 239.934 80.175 240.601 80.175C241.384 80.175 242.043 80.2833 242.576 80.5C243.126 80.7 243.534 81.0167 243.801 81.45C243.968 81.7167 244.076 82.05 244.126 82.45C244.193 82.85 244.226 83.4833 244.226 84.35V89.425C244.226 89.675 244.151 89.8667 244.001 90C243.868 90.15 243.676 90.225 243.426 90.225C243.226 90.225 243.059 90.15 242.926 90C242.809 89.8333 242.726 89.5 242.676 89C242.309 89.4333 241.868 89.75 241.351 89.95C240.834 90.15 240.209 90.25 239.476 90.25C238.443 90.25 237.659 90.0083 237.126 89.525C236.593 89.0417 236.326 88.325 236.326 87.375C236.326 86.1417 236.743 85.2583 237.576 84.725C237.943 84.4917 238.426 84.3167 239.026 84.2C239.643 84.0833 240.401 84.025 241.301 84.025C241.401 84.025 241.493 84.025 241.576 84.025C241.676 84.025 241.793 84.025 241.926 84.025C242.076 84.025 242.276 84.0333 242.526 84.05ZM242.576 85.175C242.359 85.175 242.193 85.175 242.076 85.175C241.976 85.1583 241.759 85.15 241.426 85.15C240.309 85.1667 239.493 85.3167 238.976 85.6C238.476 85.8667 238.184 86.35 238.101 87.05C238.001 87.9667 238.459 88.525 239.476 88.725C240.159 88.8583 240.826 88.775 241.476 88.475C241.843 88.325 242.118 88.1333 242.301 87.9C242.484 87.6667 242.576 87.3667 242.576 87V85.175ZM248.05 81.9H246.725C246.491 81.9 246.3 81.8333 246.15 81.7C246 81.5667 245.925 81.3917 245.925 81.175C245.925 80.9583 246 80.7833 246.15 80.65C246.3 80.5167 246.491 80.45 246.725 80.45H248.05L248.15 78.05C248.183 77.4667 248.441 77.175 248.925 77.175C249.175 77.175 249.366 77.2583 249.5 77.425C249.633 77.575 249.7 77.8 249.7 78.1V80.45H252.825C253.108 80.45 253.325 80.5167 253.475 80.65C253.625 80.7667 253.7 80.9417 253.7 81.175C253.7 81.3917 253.625 81.5667 253.475 81.7C253.325 81.8333 253.108 81.9 252.825 81.9H249.7V86.6C249.7 87.4167 249.791 87.9833 249.975 88.3C250.175 88.6 250.533 88.75 251.05 88.75C251.283 88.75 251.516 88.7167 251.75 88.65C252 88.5667 252.283 88.45 252.6 88.3C252.633 88.2833 252.666 88.275 252.7 88.275C252.733 88.275 252.766 88.275 252.8 88.275C253 88.275 253.158 88.35 253.275 88.5C253.408 88.6333 253.475 88.8 253.475 89C253.475 89.2167 253.341 89.425 253.075 89.625C252.808 89.8083 252.45 89.9583 252 90.075C251.566 90.1917 251.091 90.25 250.575 90.25C249.575 90.25 248.883 89.95 248.5 89.35C248.333 89.0833 248.216 88.7333 248.15 88.3C248.083 87.85 248.05 87.3167 248.05 86.7V81.9ZM255.033 84.625C255.033 83.175 255.383 82.075 256.083 81.325C256.783 80.5583 257.8 80.175 259.133 80.175C259.716 80.175 260.216 80.25 260.633 80.4C261.066 80.5333 261.45 80.7667 261.783 81.1C261.966 81.2667 262.058 81.4583 262.058 81.675C262.058 81.8583 261.991 82.0333 261.858 82.2C261.725 82.3667 261.566 82.45 261.383 82.45C261.316 82.45 261.25 82.4333 261.183 82.4C261.133 82.3667 261.058 82.3083 260.958 82.225C260.491 81.825 259.925 81.625 259.258 81.625C258.375 81.625 257.725 81.8833 257.308 82.4C256.891 82.9 256.683 83.6917 256.683 84.775V85.675C256.683 86.7417 256.891 87.5333 257.308 88.05C257.725 88.55 258.366 88.8 259.233 88.8C259.616 88.8 259.966 88.75 260.283 88.65C260.6 88.55 260.908 88.3917 261.208 88.175C261.391 88.0583 261.533 88 261.633 88C261.833 88 262 88.0833 262.133 88.25C262.266 88.4 262.333 88.5667 262.333 88.75C262.333 89 262.2 89.225 261.933 89.425C261.216 89.975 260.258 90.25 259.058 90.25C257.741 90.25 256.741 89.875 256.058 89.125C255.375 88.375 255.033 87.2667 255.033 85.8V84.625ZM266.24 81.225C266.573 80.875 266.965 80.6167 267.415 80.45C267.882 80.2667 268.423 80.175 269.04 80.175C270.857 80.175 271.965 80.9083 272.365 82.375C272.448 82.6083 272.498 82.9333 272.515 83.35C272.548 83.75 272.565 84.2417 272.565 84.825V89.2C272.565 89.5167 272.49 89.7667 272.34 89.95C272.207 90.1333 272.007 90.225 271.74 90.225C271.473 90.225 271.265 90.1333 271.115 89.95C270.982 89.7667 270.915 89.5167 270.915 89.2V84.975C270.915 83.8917 270.823 83.125 270.64 82.675C270.323 81.975 269.715 81.625 268.815 81.625C268.365 81.625 267.957 81.7 267.59 81.85C267.223 81.9833 266.94 82.1833 266.74 82.45C266.573 82.6833 266.448 83.0083 266.365 83.425C266.282 83.825 266.24 84.3917 266.24 85.125V89.2C266.24 89.5167 266.165 89.7667 266.015 89.95C265.882 90.1333 265.682 90.225 265.415 90.225C265.148 90.225 264.94 90.1333 264.79 89.95C264.657 89.7667 264.59 89.5167 264.59 89.2V75.275C264.59 74.9417 264.657 74.6917 264.79 74.525C264.94 74.3417 265.148 74.25 265.415 74.25C265.682 74.25 265.882 74.3417 266.015 74.525C266.165 74.6917 266.24 74.9417 266.24 75.275V81.225ZM276.92 85.5V85.975C276.92 86.975 277.137 87.7083 277.57 88.175C278.02 88.6417 278.712 88.875 279.645 88.875C280.145 88.875 280.62 88.8167 281.07 88.7C281.52 88.5833 281.928 88.4083 282.295 88.175C282.428 88.1083 282.537 88.075 282.62 88.075C282.803 88.075 282.962 88.15 283.095 88.3C283.228 88.4333 283.295 88.5917 283.295 88.775C283.295 88.8917 283.262 89 283.195 89.1C283.145 89.2 283.053 89.3 282.92 89.4C282.537 89.6667 282.045 89.875 281.445 90.025C280.862 90.175 280.228 90.25 279.545 90.25C278.128 90.25 277.062 89.8917 276.345 89.175C275.628 88.4417 275.27 87.3417 275.27 85.875V84.7C275.27 83.2167 275.62 82.0917 276.32 81.325C277.037 80.5583 278.087 80.175 279.47 80.175C280.853 80.175 281.87 80.5667 282.52 81.35C282.803 81.7 283.028 82.15 283.195 82.7C283.362 83.25 283.445 83.8667 283.445 84.55C283.445 84.8833 283.337 85.125 283.12 85.275C282.903 85.425 282.628 85.5 282.295 85.5H276.92ZM281.87 84.3C281.82 83.2667 281.612 82.5417 281.245 82.125C280.878 81.6917 280.287 81.475 279.47 81.475C278.62 81.475 277.995 81.7 277.595 82.15C277.195 82.6 276.97 83.3167 276.92 84.3H281.87ZM292.048 81.375V75.275C292.048 74.9417 292.114 74.6917 292.248 74.525C292.398 74.3417 292.606 74.25 292.873 74.25C293.139 74.25 293.339 74.3417 293.473 74.525C293.623 74.6917 293.698 74.9417 293.698 75.275V89.475C293.698 89.7417 293.623 89.9333 293.473 90.05C293.323 90.1667 293.131 90.225 292.898 90.225C292.698 90.225 292.548 90.15 292.448 90C292.348 89.85 292.273 89.5083 292.223 88.975C291.823 89.425 291.389 89.75 290.923 89.95C290.473 90.15 289.906 90.25 289.223 90.25C287.989 90.25 287.073 89.875 286.473 89.125C285.873 88.3583 285.573 87.1917 285.573 85.625V84.775C285.573 83.2583 285.889 82.1167 286.523 81.35C287.173 80.5667 288.123 80.175 289.373 80.175C290.606 80.175 291.498 80.575 292.048 81.375ZM292.023 84.775C292.006 84.175 291.964 83.7167 291.898 83.4C291.831 83.0667 291.714 82.775 291.548 82.525C291.164 81.925 290.523 81.625 289.623 81.625C288.806 81.625 288.206 81.8917 287.823 82.425C287.439 82.9583 287.248 83.7917 287.248 84.925V85.7C287.248 86.7833 287.431 87.575 287.798 88.075C288.181 88.5583 288.781 88.8 289.598 88.8C290.431 88.8 291.048 88.55 291.448 88.05C291.848 87.5333 292.048 86.7417 292.048 85.675L292.023 84.775ZM2.65 105.975C2.96667 105.975 3.20833 106.083 3.375 106.3C3.55833 106.5 3.65 106.792 3.65 107.175C3.65 107.542 3.55833 107.833 3.375 108.05C3.20833 108.267 2.96667 108.375 2.65 108.375C2.35 108.375 2.10833 108.267 1.925 108.05C1.75833 107.833 1.675 107.542 1.675 107.175C1.675 106.792 1.75833 106.5 1.925 106.3C2.10833 106.083 2.35 105.975 2.65 105.975ZM1.825 119.2V111.225C1.825 110.908 1.89167 110.667 2.025 110.5C2.175 110.317 2.38333 110.225 2.65 110.225C2.91667 110.225 3.11667 110.317 3.25 110.5C3.4 110.667 3.475 110.908 3.475 111.225V119.2C3.475 119.517 3.4 119.767 3.25 119.95C3.11667 120.133 2.91667 120.225 2.65 120.225C2.38333 120.225 2.175 120.133 2.025 119.95C1.89167 119.767 1.825 119.517 1.825 119.2ZM8.49727 111.3C8.8806 110.917 9.28893 110.633 9.72227 110.45C10.1723 110.267 10.7056 110.175 11.3223 110.175C12.7389 110.175 13.6889 110.692 14.1723 111.725C14.5056 111.192 14.9389 110.8 15.4723 110.55C16.0056 110.3 16.6389 110.175 17.3723 110.175C19.0723 110.175 20.1223 110.908 20.5223 112.375C20.6056 112.642 20.6556 112.967 20.6723 113.35C20.7056 113.733 20.7223 114.225 20.7223 114.825V119.2C20.7223 119.517 20.6473 119.767 20.4973 119.95C20.3639 120.133 20.1639 120.225 19.8973 120.225C19.6306 120.225 19.4223 120.133 19.2723 119.95C19.1389 119.767 19.0723 119.517 19.0723 119.2V114.975C19.0723 113.925 18.9973 113.192 18.8473 112.775C18.6973 112.392 18.4806 112.108 18.1973 111.925C17.9139 111.725 17.5556 111.625 17.1223 111.625C16.6889 111.625 16.2973 111.708 15.9473 111.875C15.5973 112.025 15.3306 112.242 15.1473 112.525C14.9806 112.758 14.8639 113.075 14.7973 113.475C14.7306 113.875 14.6973 114.4 14.6973 115.05V119.2C14.6973 119.517 14.6223 119.767 14.4723 119.95C14.3389 120.133 14.1389 120.225 13.8723 120.225C13.6056 120.225 13.3973 120.133 13.2473 119.95C13.1139 119.767 13.0473 119.517 13.0473 119.2V114.975C13.0473 114.442 13.0223 113.992 12.9723 113.625C12.9389 113.242 12.8806 112.95 12.7973 112.75C12.4973 112 11.9306 111.625 11.0973 111.625C10.6473 111.625 10.2473 111.708 9.89727 111.875C9.54727 112.025 9.2806 112.242 9.09727 112.525C8.9306 112.775 8.81393 113.1 8.74727 113.5C8.6806 113.9 8.64727 114.442 8.64727 115.125V119.2C8.64727 119.517 8.57227 119.767 8.42227 119.95C8.28893 120.133 8.08893 120.225 7.82227 120.225C7.5556 120.225 7.34727 120.133 7.19727 119.95C7.06393 119.767 6.99727 119.517 6.99727 119.2V111C6.99727 110.7 7.07227 110.5 7.22227 110.4C7.37227 110.283 7.56393 110.225 7.79727 110.225C7.96393 110.225 8.11393 110.292 8.24727 110.425C8.3806 110.542 8.46393 110.833 8.49727 111.3ZM25.4895 111.3C25.8728 110.917 26.2811 110.633 26.7145 110.45C27.1645 110.267 27.6978 110.175 28.3145 110.175C29.7311 110.175 30.6811 110.692 31.1645 111.725C31.4978 111.192 31.9311 110.8 32.4645 110.55C32.9978 110.3 33.6311 110.175 34.3645 110.175C36.0645 110.175 37.1145 110.908 37.5145 112.375C37.5978 112.642 37.6478 112.967 37.6645 113.35C37.6978 113.733 37.7145 114.225 37.7145 114.825V119.2C37.7145 119.517 37.6395 119.767 37.4895 119.95C37.3561 120.133 37.1561 120.225 36.8895 120.225C36.6228 120.225 36.4145 120.133 36.2645 119.95C36.1311 119.767 36.0645 119.517 36.0645 119.2V114.975C36.0645 113.925 35.9895 113.192 35.8395 112.775C35.6895 112.392 35.4728 112.108 35.1895 111.925C34.9061 111.725 34.5478 111.625 34.1145 111.625C33.6811 111.625 33.2895 111.708 32.9395 111.875C32.5895 112.025 32.3228 112.242 32.1395 112.525C31.9728 112.758 31.8561 113.075 31.7895 113.475C31.7228 113.875 31.6895 114.4 31.6895 115.05V119.2C31.6895 119.517 31.6145 119.767 31.4645 119.95C31.3311 120.133 31.1311 120.225 30.8645 120.225C30.5978 120.225 30.3895 120.133 30.2395 119.95C30.1061 119.767 30.0395 119.517 30.0395 119.2V114.975C30.0395 114.442 30.0145 113.992 29.9645 113.625C29.9311 113.242 29.8728 112.95 29.7895 112.75C29.4895 112 28.9228 111.625 28.0895 111.625C27.6395 111.625 27.2395 111.708 26.8895 111.875C26.5395 112.025 26.2728 112.242 26.0895 112.525C25.9228 112.775 25.8061 113.1 25.7395 113.5C25.6728 113.9 25.6395 114.442 25.6395 115.125V119.2C25.6395 119.517 25.5645 119.767 25.4145 119.95C25.2811 120.133 25.0811 120.225 24.8145 120.225C24.5478 120.225 24.3395 120.133 24.1895 119.95C24.0561 119.767 23.9895 119.517 23.9895 119.2V111C23.9895 110.7 24.0645 110.5 24.2145 110.4C24.3645 110.283 24.5561 110.225 24.7895 110.225C24.9561 110.225 25.1061 110.292 25.2395 110.425C25.3728 110.542 25.4561 110.833 25.4895 111.3ZM42.0566 115.5V115.975C42.0566 116.975 42.2733 117.708 42.7066 118.175C43.1566 118.642 43.8483 118.875 44.7816 118.875C45.2816 118.875 45.7566 118.817 46.2066 118.7C46.6566 118.583 47.065 118.408 47.4316 118.175C47.565 118.108 47.6733 118.075 47.7566 118.075C47.94 118.075 48.0983 118.15 48.2316 118.3C48.365 118.433 48.4316 118.592 48.4316 118.775C48.4316 118.892 48.3983 119 48.3316 119.1C48.2816 119.2 48.19 119.3 48.0566 119.4C47.6733 119.667 47.1816 119.875 46.5816 120.025C45.9983 120.175 45.365 120.25 44.6816 120.25C43.265 120.25 42.1983 119.892 41.4816 119.175C40.765 118.442 40.4066 117.342 40.4066 115.875V114.7C40.4066 113.217 40.7566 112.092 41.4566 111.325C42.1733 110.558 43.2233 110.175 44.6066 110.175C45.99 110.175 47.0066 110.567 47.6566 111.35C47.94 111.7 48.165 112.15 48.3316 112.7C48.4983 113.25 48.5816 113.867 48.5816 114.55C48.5816 114.883 48.4733 115.125 48.2566 115.275C48.04 115.425 47.765 115.5 47.4316 115.5H42.0566ZM47.0066 114.3C46.9566 113.267 46.7483 112.542 46.3816 112.125C46.015 111.692 45.4233 111.475 44.6066 111.475C43.7566 111.475 43.1316 111.7 42.7316 112.15C42.3316 112.6 42.1066 113.317 42.0566 114.3H47.0066ZM57.1844 111.375V105.275C57.1844 104.942 57.251 104.692 57.3844 104.525C57.5344 104.342 57.7427 104.25 58.0094 104.25C58.276 104.25 58.476 104.342 58.6094 104.525C58.7594 104.692 58.8344 104.942 58.8344 105.275V119.475C58.8344 119.742 58.7594 119.933 58.6094 120.05C58.4594 120.167 58.2677 120.225 58.0344 120.225C57.8344 120.225 57.6844 120.15 57.5844 120C57.4844 119.85 57.4094 119.508 57.3594 118.975C56.9594 119.425 56.526 119.75 56.0594 119.95C55.6094 120.15 55.0427 120.25 54.3594 120.25C53.126 120.25 52.2094 119.875 51.6094 119.125C51.0094 118.358 50.7094 117.192 50.7094 115.625V114.775C50.7094 113.258 51.026 112.117 51.6594 111.35C52.3094 110.567 53.2594 110.175 54.5094 110.175C55.7427 110.175 56.6344 110.575 57.1844 111.375ZM57.1594 114.775C57.1427 114.175 57.101 113.717 57.0344 113.4C56.9677 113.067 56.851 112.775 56.6844 112.525C56.301 111.925 55.6594 111.625 54.7594 111.625C53.9427 111.625 53.3427 111.892 52.9594 112.425C52.576 112.958 52.3844 113.792 52.3844 114.925V115.7C52.3844 116.783 52.5677 117.575 52.9344 118.075C53.3177 118.558 53.9177 118.8 54.7344 118.8C55.5677 118.8 56.1844 118.55 56.5844 118.05C56.9844 117.533 57.1844 116.742 57.1844 115.675L57.1594 114.775ZM63.148 105.975C63.4647 105.975 63.7064 106.083 63.873 106.3C64.0564 106.5 64.148 106.792 64.148 107.175C64.148 107.542 64.0564 107.833 63.873 108.05C63.7064 108.267 63.4647 108.375 63.148 108.375C62.848 108.375 62.6064 108.267 62.423 108.05C62.2564 107.833 62.173 107.542 62.173 107.175C62.173 106.792 62.2564 106.5 62.423 106.3C62.6064 106.083 62.848 105.975 63.148 105.975ZM62.323 119.2V111.225C62.323 110.908 62.3897 110.667 62.523 110.5C62.673 110.317 62.8814 110.225 63.148 110.225C63.4147 110.225 63.6147 110.317 63.748 110.5C63.898 110.667 63.973 110.908 63.973 111.225V119.2C63.973 119.517 63.898 119.767 63.748 119.95C63.6147 120.133 63.4147 120.225 63.148 120.225C62.8814 120.225 62.673 120.133 62.523 119.95C62.3897 119.767 62.323 119.517 62.323 119.2ZM72.9703 114.05V113.7C72.9703 112.883 72.8203 112.317 72.5203 112C72.2203 111.683 71.6953 111.525 70.9453 111.525C70.4953 111.525 70.062 111.592 69.6453 111.725C69.2286 111.858 68.862 112.042 68.5453 112.275C68.4286 112.375 68.312 112.425 68.1953 112.425C68.012 112.425 67.8536 112.358 67.7203 112.225C67.587 112.075 67.5203 111.908 67.5203 111.725C67.5203 111.492 67.5953 111.317 67.7453 111.2C68.1286 110.867 68.6036 110.617 69.1703 110.45C69.7536 110.267 70.3786 110.175 71.0453 110.175C71.8286 110.175 72.487 110.283 73.0203 110.5C73.5703 110.7 73.9786 111.017 74.2453 111.45C74.412 111.717 74.5203 112.05 74.5703 112.45C74.637 112.85 74.6703 113.483 74.6703 114.35V119.425C74.6703 119.675 74.5953 119.867 74.4453 120C74.312 120.15 74.1203 120.225 73.8703 120.225C73.6703 120.225 73.5036 120.15 73.3703 120C73.2536 119.833 73.1703 119.5 73.1203 119C72.7536 119.433 72.312 119.75 71.7953 119.95C71.2786 120.15 70.6536 120.25 69.9203 120.25C68.887 120.25 68.1036 120.008 67.5703 119.525C67.037 119.042 66.7703 118.325 66.7703 117.375C66.7703 116.142 67.187 115.258 68.0203 114.725C68.387 114.492 68.8703 114.317 69.4703 114.2C70.087 114.083 70.8453 114.025 71.7453 114.025C71.8453 114.025 71.937 114.025 72.0203 114.025C72.1203 114.025 72.237 114.025 72.3703 114.025C72.5203 114.025 72.7203 114.033 72.9703 114.05ZM73.0203 115.175C72.8036 115.175 72.637 115.175 72.5203 115.175C72.4203 115.158 72.2036 115.15 71.8703 115.15C70.7536 115.167 69.937 115.317 69.4203 115.6C68.9203 115.867 68.6286 116.35 68.5453 117.05C68.4453 117.967 68.9036 118.525 69.9203 118.725C70.6036 118.858 71.2703 118.775 71.9203 118.475C72.287 118.325 72.562 118.133 72.7453 117.9C72.9286 117.667 73.0203 117.367 73.0203 117V115.175ZM78.4939 111.9H77.1689C76.9356 111.9 76.7439 111.833 76.5939 111.7C76.4439 111.567 76.3689 111.392 76.3689 111.175C76.3689 110.958 76.4439 110.783 76.5939 110.65C76.7439 110.517 76.9356 110.45 77.1689 110.45H78.4939L78.5939 108.05C78.6273 107.467 78.8856 107.175 79.3689 107.175C79.6189 107.175 79.8106 107.258 79.9439 107.425C80.0773 107.575 80.1439 107.8 80.1439 108.1V110.45H83.2689C83.5523 110.45 83.7689 110.517 83.9189 110.65C84.0689 110.767 84.1439 110.942 84.1439 111.175C84.1439 111.392 84.0689 111.567 83.9189 111.7C83.7689 111.833 83.5523 111.9 83.2689 111.9H80.1439V116.6C80.1439 117.417 80.2356 117.983 80.4189 118.3C80.6189 118.6 80.9773 118.75 81.4939 118.75C81.7273 118.75 81.9606 118.717 82.1939 118.65C82.4439 118.567 82.7273 118.45 83.0439 118.3C83.0773 118.283 83.1106 118.275 83.1439 118.275C83.1773 118.275 83.2106 118.275 83.2439 118.275C83.4439 118.275 83.6023 118.35 83.7189 118.5C83.8523 118.633 83.9189 118.8 83.9189 119C83.9189 119.217 83.7856 119.425 83.5189 119.625C83.2523 119.808 82.8939 119.958 82.4439 120.075C82.0106 120.192 81.5356 120.25 81.0189 120.25C80.0189 120.25 79.3273 119.95 78.9439 119.35C78.7773 119.083 78.6606 118.733 78.5939 118.3C78.5273 117.85 78.4939 117.317 78.4939 116.7V111.9ZM87.0273 115.5V115.975C87.0273 116.975 87.244 117.708 87.6773 118.175C88.1273 118.642 88.819 118.875 89.7523 118.875C90.2523 118.875 90.7273 118.817 91.1773 118.7C91.6273 118.583 92.0357 118.408 92.4023 118.175C92.5357 118.108 92.644 118.075 92.7273 118.075C92.9107 118.075 93.069 118.15 93.2023 118.3C93.3357 118.433 93.4023 118.592 93.4023 118.775C93.4023 118.892 93.369 119 93.3023 119.1C93.2523 119.2 93.1607 119.3 93.0273 119.4C92.644 119.667 92.1523 119.875 91.5523 120.025C90.969 120.175 90.3357 120.25 89.6523 120.25C88.2357 120.25 87.169 119.892 86.4523 119.175C85.7357 118.442 85.3773 117.342 85.3773 115.875V114.7C85.3773 113.217 85.7273 112.092 86.4273 111.325C87.144 110.558 88.194 110.175 89.5773 110.175C90.9607 110.175 91.9773 110.567 92.6273 111.35C92.9107 111.7 93.1357 112.15 93.3023 112.7C93.469 113.25 93.5523 113.867 93.5523 114.55C93.5523 114.883 93.444 115.125 93.2273 115.275C93.0107 115.425 92.7357 115.5 92.4023 115.5H87.0273ZM91.9773 114.3C91.9273 113.267 91.719 112.542 91.3523 112.125C90.9857 111.692 90.394 111.475 89.5773 111.475C88.7273 111.475 88.1023 111.7 87.7023 112.15C87.3023 112.6 87.0773 113.317 87.0273 114.3H91.9773ZM98.9551 120.225C98.0884 120.225 97.4384 119.9 97.0051 119.25C96.7717 118.883 96.6051 118.408 96.5051 117.825C96.4051 117.225 96.3551 116.4 96.3551 115.35V105.275C96.3551 104.942 96.4217 104.692 96.5551 104.525C96.7051 104.342 96.9134 104.25 97.1801 104.25C97.4467 104.25 97.6467 104.342 97.7801 104.525C97.9301 104.692 98.0051 104.942 98.0051 105.275V115.5C98.0051 116.3 98.0384 116.925 98.1051 117.375C98.1717 117.808 98.2884 118.133 98.4551 118.35C98.6384 118.55 98.8801 118.692 99.1801 118.775C99.3634 118.825 99.4967 118.917 99.5801 119.05C99.6801 119.167 99.7217 119.333 99.7051 119.55C99.7051 119.75 99.6301 119.908 99.4801 120.025C99.3467 120.158 99.1717 120.225 98.9551 120.225ZM103.8 119.975L100.625 111.5C100.608 111.417 100.583 111.333 100.55 111.25C100.533 111.15 100.525 111.067 100.525 111C100.525 110.8 100.608 110.625 100.775 110.475C100.942 110.325 101.133 110.25 101.35 110.25C101.75 110.25 102.033 110.492 102.2 110.975L104.7 118L107.075 110.95C107.242 110.467 107.517 110.225 107.9 110.225C108.117 110.225 108.3 110.3 108.45 110.45C108.617 110.6 108.7 110.775 108.7 110.975C108.7 111.108 108.658 111.275 108.575 111.475L104.75 121.85C104.583 122.283 104.425 122.65 104.275 122.95C104.142 123.25 104 123.5 103.85 123.7C103.717 123.9 103.558 124.083 103.375 124.25C103.158 124.467 102.892 124.642 102.575 124.775C102.275 124.925 102.008 125 101.775 125C101.592 125 101.442 124.933 101.325 124.8C101.225 124.683 101.175 124.525 101.175 124.325C101.175 124.142 101.208 123.992 101.275 123.875C101.358 123.775 101.508 123.683 101.725 123.6C102.058 123.45 102.35 123.2 102.6 122.85C102.85 122.517 103.083 122.025 103.3 121.375L103.8 119.975ZM114.627 111.9H113.302C113.068 111.9 112.877 111.833 112.727 111.7C112.577 111.567 112.502 111.392 112.502 111.175C112.502 110.958 112.577 110.783 112.727 110.65C112.877 110.517 113.068 110.45 113.302 110.45H114.627L114.727 108.05C114.76 107.467 115.018 107.175 115.502 107.175C115.752 107.175 115.943 107.258 116.077 107.425C116.21 107.575 116.277 107.8 116.277 108.1V110.45H119.402C119.685 110.45 119.902 110.517 120.052 110.65C120.202 110.767 120.277 110.942 120.277 111.175C120.277 111.392 120.202 111.567 120.052 111.7C119.902 111.833 119.685 111.9 119.402 111.9H116.277V116.6C116.277 117.417 116.368 117.983 116.552 118.3C116.752 118.6 117.11 118.75 117.627 118.75C117.86 118.75 118.093 118.717 118.327 118.65C118.577 118.567 118.86 118.45 119.177 118.3C119.21 118.283 119.243 118.275 119.277 118.275C119.31 118.275 119.343 118.275 119.377 118.275C119.577 118.275 119.735 118.35 119.852 118.5C119.985 118.633 120.052 118.8 120.052 119C120.052 119.217 119.918 119.425 119.652 119.625C119.385 119.808 119.027 119.958 118.577 120.075C118.143 120.192 117.668 120.25 117.152 120.25C116.152 120.25 115.46 119.95 115.077 119.35C114.91 119.083 114.793 118.733 114.727 118.3C114.66 117.85 114.627 117.317 114.627 116.7V111.9ZM121.51 114.625C121.51 113.142 121.852 112.033 122.535 111.3C123.235 110.55 124.285 110.175 125.685 110.175C127.102 110.175 128.152 110.55 128.835 111.3C129.535 112.033 129.885 113.142 129.885 114.625V115.8C129.885 117.3 129.535 118.417 128.835 119.15C128.152 119.883 127.102 120.25 125.685 120.25C124.285 120.25 123.235 119.883 122.535 119.15C121.852 118.417 121.51 117.3 121.51 115.8V114.625ZM128.21 114.775C128.21 113.692 128.01 112.9 127.61 112.4C127.21 111.883 126.568 111.625 125.685 111.625C124.818 111.625 124.185 111.883 123.785 112.4C123.385 112.9 123.185 113.692 123.185 114.775L123.21 115.65C123.243 116.817 123.443 117.633 123.81 118.1C124.177 118.567 124.802 118.8 125.685 118.8C126.568 118.8 127.21 118.55 127.61 118.05C128.01 117.55 128.21 116.758 128.21 115.675V114.775ZM137.98 119.975L134.805 111.5C134.788 111.417 134.763 111.333 134.73 111.25C134.713 111.15 134.705 111.067 134.705 111C134.705 110.8 134.788 110.625 134.955 110.475C135.121 110.325 135.313 110.25 135.53 110.25C135.93 110.25 136.213 110.492 136.38 110.975L138.88 118L141.255 110.95C141.421 110.467 141.696 110.225 142.08 110.225C142.296 110.225 142.48 110.3 142.63 110.45C142.796 110.6 142.88 110.775 142.88 110.975C142.88 111.108 142.838 111.275 142.755 111.475L138.93 121.85C138.763 122.283 138.605 122.65 138.455 122.95C138.321 123.25 138.18 123.5 138.03 123.7C137.896 123.9 137.738 124.083 137.555 124.25C137.338 124.467 137.071 124.642 136.755 124.775C136.455 124.925 136.188 125 135.955 125C135.771 125 135.621 124.933 135.505 124.8C135.405 124.683 135.355 124.525 135.355 124.325C135.355 124.142 135.388 123.992 135.455 123.875C135.538 123.775 135.688 123.683 135.905 123.6C136.238 123.45 136.53 123.2 136.78 122.85C137.03 122.517 137.263 122.025 137.48 121.375L137.98 119.975ZM144.264 114.625C144.264 113.142 144.606 112.033 145.289 111.3C145.989 110.55 147.039 110.175 148.439 110.175C149.856 110.175 150.906 110.55 151.589 111.3C152.289 112.033 152.639 113.142 152.639 114.625V115.8C152.639 117.3 152.289 118.417 151.589 119.15C150.906 119.883 149.856 120.25 148.439 120.25C147.039 120.25 145.989 119.883 145.289 119.15C144.606 118.417 144.264 117.3 144.264 115.8V114.625ZM150.964 114.775C150.964 113.692 150.764 112.9 150.364 112.4C149.964 111.883 149.322 111.625 148.439 111.625C147.572 111.625 146.939 111.883 146.539 112.4C146.139 112.9 145.939 113.692 145.939 114.775L145.964 115.65C145.997 116.817 146.197 117.633 146.564 118.1C146.931 118.567 147.556 118.8 148.439 118.8C149.322 118.8 149.964 118.55 150.364 118.05C150.764 117.55 150.964 116.758 150.964 115.675V114.775ZM161.56 119.25C160.894 119.917 159.952 120.25 158.735 120.25C157.002 120.25 155.935 119.608 155.535 118.325C155.469 118.092 155.419 117.8 155.385 117.45C155.352 117.1 155.335 116.667 155.335 116.15V111.225C155.335 110.908 155.402 110.667 155.535 110.5C155.685 110.317 155.894 110.225 156.16 110.225C156.427 110.225 156.627 110.317 156.76 110.5C156.91 110.667 156.985 110.908 156.985 111.225V116C156.985 116.9 157.077 117.533 157.26 117.9C157.41 118.217 157.627 118.45 157.91 118.6C158.21 118.733 158.577 118.8 159.01 118.8C159.91 118.8 160.552 118.558 160.935 118.075C161.102 117.858 161.219 117.583 161.285 117.25C161.352 116.9 161.385 116.433 161.385 115.85V111.225C161.385 110.908 161.452 110.667 161.585 110.5C161.735 110.317 161.944 110.225 162.21 110.225C162.477 110.225 162.685 110.317 162.835 110.5C162.985 110.667 163.06 110.908 163.06 111.225V119.45C163.06 119.75 162.977 119.95 162.81 120.05C162.66 120.167 162.46 120.225 162.21 120.225C162.044 120.225 161.902 120.158 161.785 120.025C161.669 119.908 161.594 119.65 161.56 119.25ZM167.922 111.725C168.738 110.808 169.855 110.35 171.272 110.35C171.488 110.35 171.663 110.417 171.797 110.55C171.93 110.683 171.997 110.858 171.997 111.075C171.997 111.358 171.913 111.55 171.747 111.65C171.597 111.733 171.372 111.792 171.072 111.825C169.955 111.925 169.172 112.242 168.722 112.775C168.272 113.308 168.047 114.2 168.047 115.45V119.2C168.047 119.517 167.972 119.767 167.822 119.95C167.688 120.133 167.488 120.225 167.222 120.225C166.955 120.225 166.747 120.133 166.597 119.95C166.463 119.767 166.397 119.517 166.397 119.2V111C166.397 110.767 166.463 110.583 166.597 110.45C166.747 110.3 166.93 110.225 167.147 110.225C167.363 110.225 167.53 110.317 167.647 110.5C167.78 110.683 167.872 111.092 167.922 111.725ZM179.741 120.225C178.875 120.225 178.225 119.9 177.791 119.25C177.558 118.883 177.391 118.408 177.291 117.825C177.191 117.225 177.141 116.4 177.141 115.35V105.275C177.141 104.942 177.208 104.692 177.341 104.525C177.491 104.342 177.7 104.25 177.966 104.25C178.233 104.25 178.433 104.342 178.566 104.525C178.716 104.692 178.791 104.942 178.791 105.275V115.5C178.791 116.3 178.825 116.925 178.891 117.375C178.958 117.808 179.075 118.133 179.241 118.35C179.425 118.55 179.666 118.692 179.966 118.775C180.15 118.825 180.283 118.917 180.366 119.05C180.466 119.167 180.508 119.333 180.491 119.55C180.491 119.75 180.416 119.908 180.266 120.025C180.133 120.158 179.958 120.225 179.741 120.225ZM181.886 114.625C181.886 113.142 182.228 112.033 182.911 111.3C183.611 110.55 184.661 110.175 186.061 110.175C187.478 110.175 188.528 110.55 189.211 111.3C189.911 112.033 190.261 113.142 190.261 114.625V115.8C190.261 117.3 189.911 118.417 189.211 119.15C188.528 119.883 187.478 120.25 186.061 120.25C184.661 120.25 183.611 119.883 182.911 119.15C182.228 118.417 181.886 117.3 181.886 115.8V114.625ZM188.586 114.775C188.586 113.692 188.386 112.9 187.986 112.4C187.586 111.883 186.944 111.625 186.061 111.625C185.194 111.625 184.561 111.883 184.161 112.4C183.761 112.9 183.561 113.692 183.561 114.775L183.586 115.65C183.619 116.817 183.819 117.633 184.186 118.1C184.553 118.567 185.178 118.8 186.061 118.8C186.944 118.8 187.586 118.55 187.986 118.05C188.386 117.55 188.586 116.758 188.586 115.675V114.775ZM192.557 114.625C192.557 113.175 192.907 112.075 193.607 111.325C194.307 110.558 195.324 110.175 196.657 110.175C197.241 110.175 197.741 110.25 198.157 110.4C198.591 110.533 198.974 110.767 199.307 111.1C199.491 111.267 199.582 111.458 199.582 111.675C199.582 111.858 199.516 112.033 199.382 112.2C199.249 112.367 199.091 112.45 198.907 112.45C198.841 112.45 198.774 112.433 198.707 112.4C198.657 112.367 198.582 112.308 198.482 112.225C198.016 111.825 197.449 111.625 196.782 111.625C195.899 111.625 195.249 111.883 194.832 112.4C194.416 112.9 194.207 113.692 194.207 114.775V115.675C194.207 116.742 194.416 117.533 194.832 118.05C195.249 118.55 195.891 118.8 196.757 118.8C197.141 118.8 197.491 118.75 197.807 118.65C198.124 118.55 198.432 118.392 198.732 118.175C198.916 118.058 199.057 118 199.157 118C199.357 118 199.524 118.083 199.657 118.25C199.791 118.4 199.857 118.567 199.857 118.75C199.857 119 199.724 119.225 199.457 119.425C198.741 119.975 197.782 120.25 196.582 120.25C195.266 120.25 194.266 119.875 193.582 119.125C192.899 118.375 192.557 117.267 192.557 115.8V114.625ZM207.76 114.05V113.7C207.76 112.883 207.61 112.317 207.31 112C207.01 111.683 206.485 111.525 205.735 111.525C205.285 111.525 204.852 111.592 204.435 111.725C204.019 111.858 203.652 112.042 203.335 112.275C203.219 112.375 203.102 112.425 202.985 112.425C202.802 112.425 202.644 112.358 202.51 112.225C202.377 112.075 202.31 111.908 202.31 111.725C202.31 111.492 202.385 111.317 202.535 111.2C202.919 110.867 203.394 110.617 203.96 110.45C204.544 110.267 205.169 110.175 205.835 110.175C206.619 110.175 207.277 110.283 207.81 110.5C208.36 110.7 208.769 111.017 209.035 111.45C209.202 111.717 209.31 112.05 209.36 112.45C209.427 112.85 209.46 113.483 209.46 114.35V119.425C209.46 119.675 209.385 119.867 209.235 120C209.102 120.15 208.91 120.225 208.66 120.225C208.46 120.225 208.294 120.15 208.16 120C208.044 119.833 207.96 119.5 207.91 119C207.544 119.433 207.102 119.75 206.585 119.95C206.069 120.15 205.444 120.25 204.71 120.25C203.677 120.25 202.894 120.008 202.36 119.525C201.827 119.042 201.56 118.325 201.56 117.375C201.56 116.142 201.977 115.258 202.81 114.725C203.177 114.492 203.66 114.317 204.26 114.2C204.877 114.083 205.635 114.025 206.535 114.025C206.635 114.025 206.727 114.025 206.81 114.025C206.91 114.025 207.027 114.025 207.16 114.025C207.31 114.025 207.51 114.033 207.76 114.05ZM207.81 115.175C207.594 115.175 207.427 115.175 207.31 115.175C207.21 115.158 206.994 115.15 206.66 115.15C205.544 115.167 204.727 115.317 204.21 115.6C203.71 115.867 203.419 116.35 203.335 117.05C203.235 117.967 203.694 118.525 204.71 118.725C205.394 118.858 206.06 118.775 206.71 118.475C207.077 118.325 207.352 118.133 207.535 117.9C207.719 117.667 207.81 117.367 207.81 117V115.175ZM213.284 111.9H211.959C211.726 111.9 211.534 111.833 211.384 111.7C211.234 111.567 211.159 111.392 211.159 111.175C211.159 110.958 211.234 110.783 211.384 110.65C211.534 110.517 211.726 110.45 211.959 110.45H213.284L213.384 108.05C213.417 107.467 213.676 107.175 214.159 107.175C214.409 107.175 214.601 107.258 214.734 107.425C214.867 107.575 214.934 107.8 214.934 108.1V110.45H218.059C218.342 110.45 218.559 110.517 218.709 110.65C218.859 110.767 218.934 110.942 218.934 111.175C218.934 111.392 218.859 111.567 218.709 111.7C218.559 111.833 218.342 111.9 218.059 111.9H214.934V116.6C214.934 117.417 215.026 117.983 215.209 118.3C215.409 118.6 215.767 118.75 216.284 118.75C216.517 118.75 216.751 118.717 216.984 118.65C217.234 118.567 217.517 118.45 217.834 118.3C217.867 118.283 217.901 118.275 217.934 118.275C217.967 118.275 218.001 118.275 218.034 118.275C218.234 118.275 218.392 118.35 218.509 118.5C218.642 118.633 218.709 118.8 218.709 119C218.709 119.217 218.576 119.425 218.309 119.625C218.042 119.808 217.684 119.958 217.234 120.075C216.801 120.192 216.326 120.25 215.809 120.25C214.809 120.25 214.117 119.95 213.734 119.35C213.567 119.083 213.451 118.733 213.384 118.3C213.317 117.85 213.284 117.317 213.284 116.7V111.9ZM221.644 105.975C221.961 105.975 222.202 106.083 222.369 106.3C222.552 106.5 222.644 106.792 222.644 107.175C222.644 107.542 222.552 107.833 222.369 108.05C222.202 108.267 221.961 108.375 221.644 108.375C221.344 108.375 221.102 108.267 220.919 108.05C220.752 107.833 220.669 107.542 220.669 107.175C220.669 106.792 220.752 106.5 220.919 106.3C221.102 106.083 221.344 105.975 221.644 105.975ZM220.819 119.2V111.225C220.819 110.908 220.886 110.667 221.019 110.5C221.169 110.317 221.377 110.225 221.644 110.225C221.911 110.225 222.111 110.317 222.244 110.5C222.394 110.667 222.469 110.908 222.469 111.225V119.2C222.469 119.517 222.394 119.767 222.244 119.95C222.111 120.133 221.911 120.225 221.644 120.225C221.377 120.225 221.169 120.133 221.019 119.95C220.886 119.767 220.819 119.517 220.819 119.2ZM225.416 114.625C225.416 113.142 225.758 112.033 226.441 111.3C227.141 110.55 228.191 110.175 229.591 110.175C231.008 110.175 232.058 110.55 232.741 111.3C233.441 112.033 233.791 113.142 233.791 114.625V115.8C233.791 117.3 233.441 118.417 232.741 119.15C232.058 119.883 231.008 120.25 229.591 120.25C228.191 120.25 227.141 119.883 226.441 119.15C225.758 118.417 225.416 117.3 225.416 115.8V114.625ZM232.116 114.775C232.116 113.692 231.916 112.9 231.516 112.4C231.116 111.883 230.475 111.625 229.591 111.625C228.725 111.625 228.091 111.883 227.691 112.4C227.291 112.9 227.091 113.692 227.091 114.775L227.116 115.65C227.15 116.817 227.35 117.633 227.716 118.1C228.083 118.567 228.708 118.8 229.591 118.8C230.475 118.8 231.116 118.55 231.516 118.05C231.916 117.55 232.116 116.758 232.116 115.675V114.775ZM238.063 111.325C238.429 110.925 238.854 110.633 239.338 110.45C239.821 110.267 240.396 110.175 241.063 110.175C242.846 110.175 243.938 110.908 244.338 112.375C244.421 112.608 244.471 112.933 244.488 113.35C244.521 113.75 244.538 114.242 244.538 114.825V119.2C244.538 119.517 244.463 119.767 244.313 119.95C244.179 120.133 243.979 120.225 243.713 120.225C243.446 120.225 243.238 120.133 243.088 119.95C242.954 119.767 242.888 119.517 242.888 119.2V114.975C242.888 114.442 242.863 113.983 242.813 113.6C242.779 113.217 242.713 112.925 242.613 112.725C242.313 111.992 241.704 111.625 240.788 111.625C240.321 111.625 239.904 111.7 239.538 111.85C239.171 112 238.896 112.217 238.713 112.5C238.529 112.75 238.396 113.075 238.313 113.475C238.246 113.875 238.213 114.425 238.213 115.125V119.2C238.213 119.517 238.138 119.767 237.988 119.95C237.854 120.133 237.654 120.225 237.388 120.225C237.121 120.225 236.913 120.133 236.763 119.95C236.629 119.767 236.563 119.517 236.563 119.2V111C236.563 110.7 236.638 110.5 236.788 110.4C236.938 110.283 237.129 110.225 237.363 110.225C237.529 110.225 237.679 110.292 237.813 110.425C237.946 110.558 238.029 110.858 238.063 111.325Z" fill="#220000"/>
<path d="M39.4384 165.597H44.3144C44.575 165.597 44.782 165.666 44.9354 165.804C45.0887 165.927 45.1654 166.095 45.1654 166.31C45.1654 166.525 45.0887 166.693 44.9354 166.816C44.782 166.939 44.575 167 44.3144 167H38.7944C38.457 167 38.2117 166.9 38.0584 166.701C37.9204 166.502 37.8514 166.249 37.8514 165.942V154.051C37.8514 153.744 37.9204 153.507 38.0584 153.338C38.1964 153.169 38.388 153.085 38.6334 153.085C38.894 153.085 39.0934 153.169 39.2314 153.338C39.3694 153.507 39.4384 153.744 39.4384 154.051V165.597ZM47.7017 154.097C47.993 154.097 48.2153 154.197 48.3687 154.396C48.5373 154.58 48.6217 154.848 48.6217 155.201C48.6217 155.538 48.5373 155.807 48.3687 156.006C48.2153 156.205 47.993 156.305 47.7017 156.305C47.4257 156.305 47.2033 156.205 47.0347 156.006C46.8813 155.807 46.8047 155.538 46.8047 155.201C46.8047 154.848 46.8813 154.58 47.0347 154.396C47.2033 154.197 47.4257 154.097 47.7017 154.097ZM46.9427 166.264V158.927C46.9427 158.636 47.004 158.413 47.1267 158.26C47.2647 158.091 47.4563 158.007 47.7017 158.007C47.947 158.007 48.131 158.091 48.2537 158.26C48.3917 158.413 48.4607 158.636 48.4607 158.927V166.264C48.4607 166.555 48.3917 166.785 48.2537 166.954C48.131 167.123 47.947 167.207 47.7017 167.207C47.4563 167.207 47.2647 167.123 47.1267 166.954C47.004 166.785 46.9427 166.555 46.9427 166.264ZM54.4612 164.838L56.7152 158.651C56.8685 158.237 57.1215 158.03 57.4742 158.03C57.6582 158.03 57.8192 158.099 57.9572 158.237C58.1105 158.36 58.1872 158.513 58.1872 158.697C58.1872 158.804 58.1488 158.958 58.0722 159.157L55.2662 166.448C55.1588 166.709 55.0362 166.893 54.8982 167C54.7755 167.123 54.6068 167.184 54.3922 167.184C54.1775 167.184 54.0012 167.123 53.8632 167C53.7252 166.877 53.6025 166.693 53.4952 166.448L50.7352 159.226C50.7198 159.134 50.6968 159.05 50.6662 158.973C50.6508 158.881 50.6432 158.804 50.6432 158.743C50.6432 158.544 50.7198 158.375 50.8732 158.237C51.0265 158.099 51.2028 158.03 51.4022 158.03C51.7548 158.03 52.0232 158.252 52.2072 158.697L54.4612 164.838ZM61.0007 162.86V163.297C61.0007 164.217 61.2 164.892 61.5987 165.321C62.0127 165.75 62.649 165.965 63.5077 165.965C63.9677 165.965 64.4047 165.911 64.8187 165.804C65.2327 165.697 65.6084 165.536 65.9457 165.321C66.0684 165.26 66.168 165.229 66.2447 165.229C66.4134 165.229 66.559 165.298 66.6817 165.436C66.8044 165.559 66.8657 165.704 66.8657 165.873C66.8657 165.98 66.835 166.08 66.7737 166.172C66.7277 166.264 66.6434 166.356 66.5207 166.448C66.168 166.693 65.7157 166.885 65.1637 167.023C64.627 167.161 64.0444 167.23 63.4157 167.23C62.1124 167.23 61.131 166.9 60.4717 166.241C59.8124 165.566 59.4827 164.554 59.4827 163.205V162.124C59.4827 160.759 59.8047 159.724 60.4487 159.019C61.108 158.314 62.074 157.961 63.3467 157.961C64.6194 157.961 65.5547 158.321 66.1527 159.042C66.4134 159.364 66.6204 159.778 66.7737 160.284C66.927 160.79 67.0037 161.357 67.0037 161.986C67.0037 162.293 66.904 162.515 66.7047 162.653C66.5054 162.791 66.2524 162.86 65.9457 162.86H61.0007ZM65.5547 161.756C65.5087 160.805 65.317 160.138 64.9797 159.755C64.6424 159.356 64.098 159.157 63.3467 159.157C62.5647 159.157 61.9897 159.364 61.6217 159.778C61.2537 160.192 61.0467 160.851 61.0007 161.756H65.5547ZM72.9156 159.548H71.6966C71.4819 159.548 71.3056 159.487 71.1676 159.364C71.0296 159.241 70.9606 159.08 70.9606 158.881C70.9606 158.682 71.0296 158.521 71.1676 158.398C71.3056 158.275 71.4819 158.214 71.6966 158.214H72.9156L73.0076 156.006C73.0383 155.469 73.2759 155.201 73.7206 155.201C73.9506 155.201 74.1269 155.278 74.2496 155.431C74.3723 155.569 74.4336 155.776 74.4336 156.052V158.214H77.3086C77.5693 158.214 77.7686 158.275 77.9066 158.398C78.0446 158.505 78.1136 158.666 78.1136 158.881C78.1136 159.08 78.0446 159.241 77.9066 159.364C77.7686 159.487 77.5693 159.548 77.3086 159.548H74.4336V163.872C74.4336 164.623 74.5179 165.145 74.6866 165.436C74.8706 165.712 75.2003 165.85 75.6756 165.85C75.8903 165.85 76.1049 165.819 76.3196 165.758C76.5496 165.681 76.8103 165.574 77.1016 165.436C77.1323 165.421 77.1629 165.413 77.1936 165.413C77.2243 165.413 77.2549 165.413 77.2856 165.413C77.4696 165.413 77.6153 165.482 77.7226 165.62C77.8453 165.743 77.9066 165.896 77.9066 166.08C77.9066 166.279 77.7839 166.471 77.5386 166.655C77.2933 166.824 76.9636 166.962 76.5496 167.069C76.1509 167.176 75.7139 167.23 75.2386 167.23C74.3186 167.23 73.6823 166.954 73.3296 166.402C73.1763 166.157 73.0689 165.835 73.0076 165.436C72.9463 165.022 72.9156 164.531 72.9156 163.964V159.548ZM81.1129 159.387C81.8643 158.544 82.8916 158.122 84.1949 158.122C84.3943 158.122 84.5553 158.183 84.6779 158.306C84.8006 158.429 84.8619 158.59 84.8619 158.789C84.8619 159.05 84.7853 159.226 84.6319 159.318C84.4939 159.395 84.2869 159.448 84.0109 159.479C82.9836 159.571 82.2629 159.862 81.8489 160.353C81.4349 160.844 81.2279 161.664 81.2279 162.814V166.264C81.2279 166.555 81.1589 166.785 81.0209 166.954C80.8983 167.123 80.7143 167.207 80.4689 167.207C80.2236 167.207 80.0319 167.123 79.8939 166.954C79.7713 166.785 79.7099 166.555 79.7099 166.264V158.72C79.7099 158.505 79.7713 158.337 79.8939 158.214C80.0319 158.076 80.2006 158.007 80.3999 158.007C80.5993 158.007 80.7526 158.091 80.8599 158.26C80.9826 158.429 81.0669 158.804 81.1129 159.387ZM91.4403 161.526V161.204C91.4403 160.453 91.3023 159.931 91.0263 159.64C90.7503 159.349 90.2673 159.203 89.5773 159.203C89.1633 159.203 88.7646 159.264 88.3813 159.387C87.998 159.51 87.6606 159.678 87.3693 159.893C87.262 159.985 87.1546 160.031 87.0473 160.031C86.8786 160.031 86.733 159.97 86.6103 159.847C86.4876 159.709 86.4263 159.556 86.4263 159.387C86.4263 159.172 86.4953 159.011 86.6333 158.904C86.986 158.597 87.423 158.367 87.9443 158.214C88.481 158.045 89.056 157.961 89.6693 157.961C90.39 157.961 90.9956 158.061 91.4863 158.26C91.9923 158.444 92.368 158.735 92.6133 159.134C92.7666 159.379 92.8663 159.686 92.9123 160.054C92.9736 160.422 93.0043 161.005 93.0043 161.802V166.471C93.0043 166.701 92.9353 166.877 92.7973 167C92.6746 167.138 92.4983 167.207 92.2683 167.207C92.0843 167.207 91.931 167.138 91.8083 167C91.701 166.847 91.6243 166.54 91.5783 166.08C91.241 166.479 90.8346 166.77 90.3593 166.954C89.884 167.138 89.309 167.23 88.6343 167.23C87.6836 167.23 86.963 167.008 86.4723 166.563C85.9816 166.118 85.7363 165.459 85.7363 164.585C85.7363 163.45 86.1196 162.638 86.8863 162.147C87.2236 161.932 87.6683 161.771 88.2203 161.664C88.7876 161.557 89.4853 161.503 90.3133 161.503C90.4053 161.503 90.4896 161.503 90.5663 161.503C90.6583 161.503 90.7656 161.503 90.8883 161.503C91.0263 161.503 91.2103 161.511 91.4403 161.526ZM91.4863 162.561C91.287 162.561 91.1336 162.561 91.0263 162.561C90.9343 162.546 90.735 162.538 90.4283 162.538C89.401 162.553 88.6496 162.691 88.1743 162.952C87.7143 163.197 87.446 163.642 87.3693 164.286C87.2773 165.129 87.699 165.643 88.6343 165.827C89.263 165.95 89.8763 165.873 90.4743 165.597C90.8116 165.459 91.0646 165.283 91.2333 165.068C91.402 164.853 91.4863 164.577 91.4863 164.24V162.561ZM95.602 162.055C95.602 160.721 95.924 159.709 96.568 159.019C97.212 158.314 98.1474 157.961 99.374 157.961C99.9107 157.961 100.371 158.03 100.754 158.168C101.153 158.291 101.505 158.505 101.812 158.812C101.981 158.965 102.065 159.142 102.065 159.341C102.065 159.51 102.004 159.671 101.881 159.824C101.758 159.977 101.613 160.054 101.444 160.054C101.383 160.054 101.321 160.039 101.26 160.008C101.214 159.977 101.145 159.924 101.053 159.847C100.624 159.479 100.102 159.295 99.489 159.295C98.6764 159.295 98.0784 159.533 97.695 160.008C97.3117 160.468 97.12 161.196 97.12 162.193V163.021C97.12 164.002 97.3117 164.731 97.695 165.206C98.0784 165.666 98.6687 165.896 99.466 165.896C99.8187 165.896 100.141 165.85 100.432 165.758C100.723 165.666 101.007 165.52 101.283 165.321C101.452 165.214 101.582 165.16 101.674 165.16C101.858 165.16 102.011 165.237 102.134 165.39C102.257 165.528 102.318 165.681 102.318 165.85C102.318 166.08 102.195 166.287 101.95 166.471C101.291 166.977 100.409 167.23 99.305 167.23C98.0937 167.23 97.1737 166.885 96.545 166.195C95.9164 165.505 95.602 164.485 95.602 163.136V162.055ZM105.913 161.526L109.685 158.306C109.853 158.153 110.022 158.076 110.191 158.076C110.359 158.076 110.505 158.137 110.628 158.26C110.75 158.383 110.812 158.528 110.812 158.697C110.812 158.866 110.704 159.042 110.49 159.226L107.316 161.894L110.996 165.919C111.164 166.118 111.249 166.302 111.249 166.471C111.249 166.655 111.172 166.816 111.019 166.954C110.881 167.092 110.72 167.161 110.536 167.161C110.398 167.161 110.275 167.123 110.168 167.046C110.06 166.985 109.945 166.885 109.823 166.747L105.913 162.354V166.264C105.913 166.555 105.844 166.785 105.706 166.954C105.583 167.123 105.399 167.207 105.154 167.207C104.908 167.207 104.717 167.123 104.579 166.954C104.456 166.785 104.395 166.555 104.395 166.264V153.453C104.395 153.146 104.456 152.916 104.579 152.763C104.717 152.594 104.908 152.51 105.154 152.51C105.399 152.51 105.583 152.594 105.706 152.763C105.844 152.916 105.913 153.146 105.913 153.453V161.526ZM114.209 154.097C114.5 154.097 114.722 154.197 114.876 154.396C115.044 154.58 115.129 154.848 115.129 155.201C115.129 155.538 115.044 155.807 114.876 156.006C114.722 156.205 114.5 156.305 114.209 156.305C113.933 156.305 113.71 156.205 113.542 156.006C113.388 155.807 113.312 155.538 113.312 155.201C113.312 154.848 113.388 154.58 113.542 154.396C113.71 154.197 113.933 154.097 114.209 154.097ZM113.45 166.264V158.927C113.45 158.636 113.511 158.413 113.634 158.26C113.772 158.091 113.963 158.007 114.209 158.007C114.454 158.007 114.638 158.091 114.761 158.26C114.899 158.413 114.968 158.636 114.968 158.927V166.264C114.968 166.555 114.899 166.785 114.761 166.954C114.638 167.123 114.454 167.207 114.209 167.207C113.963 167.207 113.772 167.123 113.634 166.954C113.511 166.785 113.45 166.555 113.45 166.264ZM119.588 159.019C119.925 158.651 120.316 158.383 120.761 158.214C121.206 158.045 121.735 157.961 122.348 157.961C123.989 157.961 124.993 158.636 125.361 159.985C125.438 160.2 125.484 160.499 125.499 160.882C125.53 161.25 125.545 161.702 125.545 162.239V166.264C125.545 166.555 125.476 166.785 125.338 166.954C125.215 167.123 125.031 167.207 124.786 167.207C124.541 167.207 124.349 167.123 124.211 166.954C124.088 166.785 124.027 166.555 124.027 166.264V162.377C124.027 161.886 124.004 161.465 123.958 161.112C123.927 160.759 123.866 160.491 123.774 160.307C123.498 159.632 122.938 159.295 122.095 159.295C121.666 159.295 121.282 159.364 120.945 159.502C120.608 159.64 120.355 159.839 120.186 160.1C120.017 160.33 119.895 160.629 119.818 160.997C119.757 161.365 119.726 161.871 119.726 162.515V166.264C119.726 166.555 119.657 166.785 119.519 166.954C119.396 167.123 119.212 167.207 118.967 167.207C118.722 167.207 118.53 167.123 118.392 166.954C118.269 166.785 118.208 166.555 118.208 166.264V158.72C118.208 158.444 118.277 158.26 118.415 158.168C118.553 158.061 118.729 158.007 118.944 158.007C119.097 158.007 119.235 158.068 119.358 158.191C119.481 158.314 119.557 158.59 119.588 159.019ZM134.013 166.149C133.446 166.87 132.587 167.23 131.437 167.23C130.272 167.23 129.413 166.893 128.861 166.218C128.309 165.543 128.033 164.485 128.033 163.044V162.262C128.033 160.851 128.325 159.786 128.907 159.065C129.505 158.329 130.379 157.961 131.529 157.961C132.695 157.961 133.561 158.36 134.128 159.157C134.159 158.666 134.228 158.352 134.335 158.214C134.443 158.076 134.611 158.007 134.841 158.007C135.087 158.007 135.255 158.084 135.347 158.237C135.455 158.39 135.508 158.582 135.508 158.812V166.126C135.508 166.939 135.485 167.598 135.439 168.104C135.409 168.625 135.34 169.047 135.232 169.369C135.14 169.706 135.002 170.005 134.818 170.266C134.113 171.278 132.955 171.784 131.345 171.784C129.766 171.784 128.723 171.393 128.217 170.611C128.156 170.504 128.133 170.381 128.148 170.243C128.179 170.09 128.248 169.967 128.355 169.875C128.478 169.783 128.616 169.737 128.769 169.737C128.831 169.737 128.884 169.745 128.93 169.76C128.992 169.775 129.061 169.821 129.137 169.898C129.72 170.312 130.418 170.519 131.23 170.519C131.844 170.519 132.334 170.419 132.702 170.22C133.07 170.021 133.346 169.745 133.53 169.392C133.714 169.055 133.837 168.664 133.898 168.219C133.975 167.774 134.013 167.307 134.013 166.816V166.149ZM133.967 162.193C133.952 161.641 133.883 161.15 133.76 160.721C133.653 160.276 133.446 159.931 133.139 159.686C132.833 159.425 132.373 159.295 131.759 159.295C131.008 159.295 130.456 159.54 130.103 160.031C129.751 160.522 129.574 161.288 129.574 162.331V163.044C129.574 164.041 129.743 164.769 130.08 165.229C130.433 165.674 130.985 165.896 131.736 165.896C132.518 165.896 133.086 165.666 133.438 165.206C133.806 164.746 133.99 164.018 133.99 163.021L133.967 162.193Z" fill="#220000"/>
<path d="M8.65727 153.219C8.78602 153.348 8.85833 153.522 8.85833 153.705C8.85833 153.887 8.78602 154.062 8.65727 154.19C7.93372 154.914 7.35977 155.773 6.96819 156.718C6.57661 157.664 6.37506 158.677 6.37506 159.7C6.37506 160.723 6.57661 161.737 6.96819 162.682C7.35977 163.627 7.93372 164.486 8.65727 165.21C8.78244 165.339 8.85166 165.513 8.85001 165.693C8.84836 165.874 8.77597 166.046 8.64845 166.173C8.52092 166.301 8.34845 166.373 8.16819 166.375C7.98792 166.376 7.81429 166.307 7.68469 166.181C4.1051 162.602 4.1051 156.798 7.68469 153.219C7.81359 153.09 7.98833 153.018 8.17052 153.018C8.35271 153.018 8.52836 153.09 8.65727 153.219ZM20.6473 153.219C24.2269 156.798 24.2269 162.603 20.6473 166.182C20.5169 166.304 20.3446 166.37 20.1665 166.367C19.9883 166.364 19.8184 166.291 19.6925 166.165C19.5665 166.04 19.4943 165.87 19.4912 165.691C19.4881 165.513 19.5542 165.341 19.6756 165.211C20.3993 164.487 20.9734 163.628 21.365 162.683C21.7567 161.737 21.9583 160.724 21.9583 159.701C21.9583 158.677 21.7567 157.664 21.365 156.718C20.9734 155.773 20.3993 154.914 19.6756 154.19C19.6081 154.128 19.5539 154.052 19.5163 153.967C19.4787 153.883 19.4585 153.792 19.4569 153.7C19.4553 153.607 19.4722 153.516 19.5068 153.43C19.5414 153.344 19.5929 153.267 19.6582 153.201C19.7234 153.136 19.8012 153.085 19.8868 153.05C19.9724 153.015 20.0641 152.998 20.1564 153C20.2487 153.002 20.3398 153.022 20.4241 153.06C20.5084 153.097 20.5843 153.151 20.6473 153.219ZM11.2496 155.811C11.3784 155.94 11.4507 156.115 11.4507 156.297C11.4507 156.479 11.3784 156.654 11.2496 156.783C10.8664 157.166 10.5625 157.621 10.3551 158.121C10.1477 158.622 10.0409 159.158 10.0409 159.7C10.0409 160.242 10.1477 160.778 10.3551 161.279C10.5625 161.78 10.8664 162.234 11.2496 162.617C11.371 162.748 11.4372 162.92 11.434 163.098C11.4309 163.276 11.3587 163.446 11.2328 163.572C11.1068 163.698 10.9369 163.77 10.7587 163.773C10.5806 163.777 10.4083 163.711 10.2779 163.589C9.24657 162.558 8.66715 161.159 8.66715 159.7C8.66715 158.241 9.24657 156.843 10.2779 155.811C10.4068 155.682 10.5816 155.61 10.7638 155.61C10.946 155.61 11.1207 155.682 11.2496 155.811ZM18.0559 155.811C19.0872 156.843 19.6666 158.241 19.6666 159.7C19.6666 161.159 19.0872 162.558 18.0559 163.589C17.9925 163.655 17.9166 163.707 17.8328 163.743C17.7489 163.779 17.6587 163.798 17.5674 163.799C17.4761 163.8 17.3856 163.783 17.3011 163.748C17.2166 163.714 17.1398 163.663 17.0752 163.598C17.0106 163.534 16.9595 163.457 16.9249 163.372C16.8903 163.288 16.8729 163.197 16.8736 163.106C16.8744 163.015 16.8933 162.925 16.9293 162.841C16.9653 162.757 17.0176 162.681 17.0833 162.617C17.4663 162.234 17.7702 161.78 17.9775 161.279C18.1848 160.779 18.2915 160.242 18.2915 159.701C18.2915 159.159 18.1848 158.622 17.9775 158.122C17.7702 157.622 17.4663 157.167 17.0833 156.784C16.9618 156.653 16.8957 156.481 16.8989 156.303C16.902 156.125 16.9742 155.955 17.1001 155.829C17.2261 155.703 17.396 155.631 17.5741 155.628C17.7522 155.625 17.9246 155.691 18.0549 155.812M14.1664 158.326C14.5311 158.326 14.8808 158.47 15.1387 158.728C15.3966 158.986 15.5414 159.336 15.5414 159.701C15.5414 160.065 15.3966 160.415 15.1387 160.673C14.8808 160.931 14.5311 161.076 14.1664 161.076C13.8018 161.076 13.452 160.931 13.1942 160.673C12.9363 160.415 12.7914 160.065 12.7914 159.701C12.7914 159.336 12.9363 158.986 13.1942 158.728C13.452 158.47 13.8018 158.326 14.1664 158.326Z" fill="black"/>
</svg>
