<svg width="399" height="63" viewBox="0 0 399 63" fill="none" xmlns="http://www.w3.org/2000/svg">
<path d="M100.53 57.748C100.014 57.748 99.5156 57.706 99.0356 57.622C98.5676 57.526 98.1776 57.412 97.8656 57.28C97.5656 57.136 97.4156 56.998 97.4156 56.866C97.4156 56.554 97.4456 56.086 97.5056 55.462C97.5776 54.838 97.6136 54.058 97.6136 53.122V51.088C97.6136 50.296 97.6436 49.654 97.7036 49.162C97.7756 48.658 97.8476 48.268 97.9196 47.992H97.3076L96.4076 46.786L96.5516 46.498H98.0636C98.5916 46.498 99.0896 46.492 99.5576 46.48C100.026 46.468 100.416 46.462 100.728 46.462C101.052 46.462 101.4 46.57 101.772 46.786C102.156 46.99 102.51 47.254 102.834 47.578C103.17 47.89 103.44 48.22 103.644 48.568C103.86 48.916 103.968 49.234 103.968 49.522C103.968 50.254 103.95 51.004 103.914 51.772C103.89 52.54 103.878 53.368 103.878 54.256C103.878 55.228 103.74 55.966 103.464 56.47C103.188 56.974 102.798 57.316 102.294 57.496C101.802 57.664 101.214 57.748 100.53 57.748ZM101.322 48.064C101.034 48.064 100.764 48.076 100.512 48.1C100.272 48.112 100.014 48.148 99.7376 48.208C99.6536 48.52 99.5816 48.91 99.5216 49.378C99.4616 49.834 99.4316 50.362 99.4316 50.962V53.572C99.4316 54.256 99.4196 54.808 99.3956 55.228C99.3836 55.648 99.3536 56.002 99.3056 56.29C99.4496 56.326 99.6236 56.344 99.8276 56.344C100.548 56.344 101.094 56.134 101.466 55.714C101.838 55.282 102.024 54.538 102.024 53.482C102.024 52.87 102.036 52.27 102.06 51.682C102.084 51.082 102.102 50.542 102.114 50.062C102.138 49.582 102.15 49.216 102.15 48.964C102.15 48.652 102.084 48.424 101.952 48.28C101.832 48.136 101.622 48.064 101.322 48.064ZM108.577 58.162C107.545 57.826 106.801 57.538 106.345 57.298C105.889 57.046 105.661 56.866 105.661 56.758C105.661 56.626 105.679 56.398 105.715 56.074C105.763 55.75 105.787 55.246 105.787 54.562V52.33C105.787 52.09 105.799 51.808 105.823 51.484C105.847 51.148 105.883 50.866 105.931 50.638H105.265L104.329 49.396L104.455 49.108H106.147C106.207 49.108 106.321 49.198 106.489 49.378C106.669 49.558 106.843 49.762 107.011 49.99C107.239 49.642 107.533 49.402 107.893 49.27C108.265 49.126 108.601 49.066 108.901 49.09L109.801 50.278L109.693 50.548C109.057 50.548 108.541 50.752 108.145 51.16C107.761 51.556 107.569 52.24 107.569 53.212V54.814C107.569 55.414 107.551 55.882 107.515 56.218C107.491 56.542 107.479 56.758 107.479 56.866C107.479 56.938 107.503 57.004 107.551 57.064C107.599 57.112 107.713 57.172 107.893 57.244C108.085 57.316 108.385 57.436 108.793 57.604L108.577 58.162ZM112.116 47.902L110.928 46.624V46.444C111.252 46.012 111.69 45.634 112.242 45.31L113.43 46.552L113.412 46.768C113.172 46.936 112.944 47.122 112.728 47.326C112.524 47.53 112.32 47.722 112.116 47.902ZM113.718 58.036C112.95 57.748 112.356 57.49 111.936 57.262C111.528 57.022 111.324 56.806 111.324 56.614C111.324 56.446 111.342 56.188 111.378 55.84C111.426 55.48 111.45 55.132 111.45 54.796V52.222C111.45 51.91 111.462 51.622 111.486 51.358C111.522 51.082 111.576 50.842 111.648 50.638H111.054L110.1 49.414L110.226 49.108H112.53L113.574 50.512C113.43 50.704 113.334 50.944 113.286 51.232C113.25 51.52 113.232 51.886 113.232 52.33V54.994C113.232 55.426 113.214 55.81 113.178 56.146C113.142 56.47 113.124 56.716 113.124 56.884C113.124 57.004 113.166 57.1 113.25 57.172C113.346 57.232 113.574 57.358 113.934 57.55L113.718 58.036ZM118.511 58.036C118.379 58.036 118.187 57.952 117.935 57.784C117.695 57.604 117.443 57.388 117.179 57.136C116.915 56.884 116.681 56.65 116.477 56.434C116.285 56.206 116.177 56.038 116.153 55.93C115.889 54.862 115.673 54.01 115.505 53.374C115.337 52.726 115.211 52.228 115.127 51.88C115.055 51.52 115.019 51.244 115.019 51.052C115.019 50.908 115.037 50.77 115.073 50.638H114.659L113.777 49.396L113.921 49.108H116.207L117.035 50.314V50.548C116.771 50.596 116.591 50.698 116.495 50.854C116.399 51.01 116.351 51.208 116.351 51.448C116.351 51.58 116.381 51.796 116.441 52.096C116.501 52.384 116.615 52.846 116.783 53.482C116.951 54.106 117.197 54.982 117.521 56.11C117.689 55.678 117.857 55.24 118.025 54.796C118.193 54.34 118.391 53.788 118.619 53.14C118.847 52.48 119.135 51.646 119.483 50.638H118.691L117.863 49.396L117.989 49.108H120.239L121.337 50.62C120.833 52.12 120.413 53.356 120.077 54.328C119.741 55.288 119.471 56.038 119.267 56.578C119.063 57.118 118.901 57.496 118.781 57.712C118.673 57.928 118.583 58.036 118.511 58.036ZM126.007 57.874C125.719 57.874 125.365 57.802 124.945 57.658C124.525 57.502 124.105 57.304 123.685 57.064C123.277 56.812 122.935 56.542 122.659 56.254C122.383 55.954 122.245 55.66 122.245 55.372C122.245 55.084 122.263 54.586 122.299 53.878C122.347 53.17 122.371 52.324 122.371 51.34C122.371 49.78 123.223 49 124.927 49C125.191 49 125.497 49.084 125.845 49.252C126.193 49.408 126.529 49.618 126.853 49.882C127.177 50.134 127.447 50.398 127.663 50.674C127.879 50.95 127.987 51.208 127.987 51.448V52.924C127.987 53.896 127.447 54.382 126.367 54.382C126.031 54.382 125.647 54.364 125.215 54.328C124.783 54.28 124.399 54.226 124.063 54.166C124.051 54.562 124.039 54.922 124.027 55.246C124.027 55.558 124.027 55.738 124.027 55.786C124.027 55.978 124.075 56.116 124.171 56.2C124.267 56.284 124.441 56.326 124.693 56.326C125.065 56.326 125.467 56.272 125.899 56.164C126.343 56.044 126.739 55.87 127.087 55.642H127.357L128.329 57.118C128.101 57.334 127.759 57.514 127.303 57.658C126.859 57.802 126.427 57.874 126.007 57.874ZM124.117 51.916C124.117 52.012 124.111 52.156 124.099 52.348C124.099 52.54 124.099 52.756 124.099 52.996C124.447 53.032 124.849 53.05 125.305 53.05C125.653 53.05 125.893 52.966 126.025 52.798C126.169 52.618 126.241 52.348 126.241 51.988V51.016C126.241 50.884 126.205 50.77 126.133 50.674C126.061 50.578 125.905 50.53 125.665 50.53C125.185 50.53 124.807 50.632 124.531 50.836C124.255 51.028 124.117 51.388 124.117 51.916ZM132.641 58.162C131.609 57.826 130.865 57.538 130.409 57.298C129.953 57.046 129.725 56.866 129.725 56.758C129.725 56.626 129.743 56.398 129.779 56.074C129.827 55.75 129.851 55.246 129.851 54.562V52.33C129.851 52.09 129.863 51.808 129.887 51.484C129.911 51.148 129.947 50.866 129.995 50.638H129.329L128.393 49.396L128.519 49.108H130.211C130.271 49.108 130.379 49.198 130.535 49.378C130.703 49.546 130.871 49.732 131.039 49.936C131.231 49.624 131.495 49.396 131.831 49.252C132.179 49.108 132.545 49.036 132.929 49.036C133.121 49.036 133.265 49.048 133.361 49.072L134.261 50.332L134.117 50.548C133.277 50.536 132.653 50.698 132.245 51.034C131.837 51.37 131.633 51.988 131.633 52.888V54.814C131.633 55.414 131.615 55.882 131.579 56.218C131.555 56.542 131.543 56.758 131.543 56.866C131.543 56.938 131.567 57.004 131.615 57.064C131.663 57.112 131.777 57.172 131.957 57.244C132.149 57.316 132.449 57.436 132.857 57.604L132.641 58.162ZM143.331 57.91C143.043 57.814 142.779 57.718 142.539 57.622C142.299 57.514 142.071 57.4 141.855 57.28C141.687 57.448 141.483 57.586 141.243 57.694C141.015 57.79 140.751 57.838 140.451 57.838C140.247 57.838 139.947 57.772 139.551 57.64C139.167 57.508 138.771 57.34 138.363 57.136C137.955 56.92 137.607 56.686 137.319 56.434C137.043 56.17 136.905 55.912 136.905 55.66C136.905 55.348 136.905 55.072 136.905 54.832C136.917 54.58 136.923 54.43 136.923 54.382C136.923 53.674 137.103 53.176 137.463 52.888C137.835 52.588 138.351 52.438 139.011 52.438C139.347 52.438 139.707 52.462 140.091 52.51C140.475 52.558 140.787 52.612 141.027 52.672C141.039 52.336 141.045 52.018 141.045 51.718C141.057 51.406 141.063 51.172 141.063 51.016C141.063 50.884 141.027 50.788 140.955 50.728C140.883 50.668 140.751 50.638 140.559 50.638C140.091 50.638 139.695 50.674 139.371 50.746C139.047 50.818 138.741 50.938 138.453 51.106H138.111L136.941 49.396L137.085 49.108H140.091C140.331 49.108 140.601 49.204 140.901 49.396C141.213 49.576 141.519 49.804 141.819 50.08C142.119 50.356 142.365 50.638 142.557 50.926C142.749 51.214 142.845 51.466 142.845 51.682C142.845 52.078 142.833 52.546 142.809 53.086C142.785 53.626 142.761 54.178 142.737 54.742C142.713 55.294 142.701 55.798 142.701 56.254C142.701 56.614 142.761 56.866 142.881 57.01C143.001 57.142 143.229 57.274 143.565 57.406L143.331 57.91ZM138.687 55.66C138.687 55.96 138.741 56.152 138.849 56.236C138.957 56.308 139.089 56.344 139.245 56.344C139.737 56.344 140.145 56.218 140.469 55.966C140.805 55.702 140.973 55.294 140.973 54.742C140.973 54.634 140.973 54.502 140.973 54.346C140.985 54.19 140.991 54.016 140.991 53.824C140.859 53.788 140.697 53.764 140.505 53.752C140.313 53.74 140.139 53.734 139.983 53.734C139.551 53.734 139.227 53.83 139.011 54.022C138.795 54.214 138.687 54.55 138.687 55.03V55.66ZM148.948 55.21L150.46 56.182C150.22 56.746 149.872 57.178 149.416 57.478C148.972 57.778 148.468 57.928 147.904 57.928C147.544 57.928 147.16 57.85 146.752 57.694C146.344 57.526 145.96 57.316 145.6 57.064C145.24 56.812 144.94 56.548 144.7 56.272C144.472 55.996 144.358 55.738 144.358 55.498C144.358 55.342 144.358 55.102 144.358 54.778C144.37 54.454 144.376 54.118 144.376 53.77C144.388 53.41 144.394 53.11 144.394 52.87V51.394C144.394 50.602 144.634 50.002 145.114 49.594C145.594 49.174 146.236 48.964 147.04 48.964C147.292 48.964 147.586 49.042 147.922 49.198C148.258 49.342 148.588 49.54 148.912 49.792C149.236 50.032 149.506 50.302 149.722 50.602C149.938 50.89 150.046 51.178 150.046 51.466C150.046 51.778 150.034 52.054 150.01 52.294C149.986 52.522 149.956 52.732 149.92 52.924L148.066 52.564C148.162 51.988 148.21 51.484 148.21 51.052C148.21 50.848 148.168 50.71 148.084 50.638C148.012 50.566 147.892 50.53 147.724 50.53C146.692 50.53 146.176 51.046 146.176 52.078V53.518C146.176 54.286 146.164 54.85 146.14 55.21C146.128 55.558 146.122 55.834 146.122 56.038C146.122 56.17 146.182 56.272 146.302 56.344C146.422 56.416 146.572 56.452 146.752 56.452C147.196 56.452 147.574 56.362 147.886 56.182C148.198 55.99 148.48 55.684 148.732 55.264L148.948 55.21ZM155.927 55.21L157.439 56.182C157.199 56.746 156.851 57.178 156.395 57.478C155.951 57.778 155.447 57.928 154.883 57.928C154.523 57.928 154.139 57.85 153.731 57.694C153.323 57.526 152.939 57.316 152.579 57.064C152.219 56.812 151.919 56.548 151.679 56.272C151.451 55.996 151.337 55.738 151.337 55.498C151.337 55.342 151.337 55.102 151.337 54.778C151.349 54.454 151.355 54.118 151.355 53.77C151.367 53.41 151.373 53.11 151.373 52.87V51.394C151.373 50.602 151.613 50.002 152.093 49.594C152.573 49.174 153.215 48.964 154.019 48.964C154.271 48.964 154.565 49.042 154.901 49.198C155.237 49.342 155.567 49.54 155.891 49.792C156.215 50.032 156.485 50.302 156.701 50.602C156.917 50.89 157.025 51.178 157.025 51.466C157.025 51.778 157.013 52.054 156.989 52.294C156.965 52.522 156.935 52.732 156.899 52.924L155.045 52.564C155.141 51.988 155.189 51.484 155.189 51.052C155.189 50.848 155.147 50.71 155.063 50.638C154.991 50.566 154.871 50.53 154.703 50.53C153.671 50.53 153.155 51.046 153.155 52.078V53.518C153.155 54.286 153.143 54.85 153.119 55.21C153.107 55.558 153.101 55.834 153.101 56.038C153.101 56.17 153.161 56.272 153.281 56.344C153.401 56.416 153.551 56.452 153.731 56.452C154.175 56.452 154.553 56.362 154.865 56.182C155.177 55.99 155.459 55.684 155.711 55.264L155.927 55.21ZM162.077 57.874C161.789 57.874 161.435 57.802 161.015 57.658C160.595 57.502 160.175 57.304 159.755 57.064C159.347 56.812 159.005 56.542 158.729 56.254C158.453 55.954 158.315 55.66 158.315 55.372C158.315 55.084 158.333 54.586 158.369 53.878C158.417 53.17 158.441 52.324 158.441 51.34C158.441 49.78 159.293 49 160.997 49C161.261 49 161.567 49.084 161.915 49.252C162.263 49.408 162.599 49.618 162.923 49.882C163.247 50.134 163.517 50.398 163.733 50.674C163.949 50.95 164.057 51.208 164.057 51.448V52.924C164.057 53.896 163.517 54.382 162.437 54.382C162.101 54.382 161.717 54.364 161.285 54.328C160.853 54.28 160.469 54.226 160.133 54.166C160.121 54.562 160.109 54.922 160.097 55.246C160.097 55.558 160.097 55.738 160.097 55.786C160.097 55.978 160.145 56.116 160.241 56.2C160.337 56.284 160.511 56.326 160.763 56.326C161.135 56.326 161.537 56.272 161.969 56.164C162.413 56.044 162.809 55.87 163.157 55.642H163.427L164.399 57.118C164.171 57.334 163.829 57.514 163.373 57.658C162.929 57.802 162.497 57.874 162.077 57.874ZM160.187 51.916C160.187 52.012 160.181 52.156 160.169 52.348C160.169 52.54 160.169 52.756 160.169 52.996C160.517 53.032 160.919 53.05 161.375 53.05C161.723 53.05 161.963 52.966 162.095 52.798C162.239 52.618 162.311 52.348 162.311 51.988V51.016C162.311 50.884 162.275 50.77 162.203 50.674C162.131 50.578 161.975 50.53 161.735 50.53C161.255 50.53 160.877 50.632 160.601 50.836C160.325 51.028 160.187 51.388 160.187 51.916ZM168.423 57.946C167.511 57.946 166.797 57.652 166.281 57.064C165.765 56.464 165.405 55.654 165.201 54.634L165.777 54.472C166.005 55.048 166.263 55.456 166.551 55.696C166.851 55.936 167.253 56.056 167.757 56.056C168.333 56.056 168.819 55.894 169.215 55.57C169.623 55.246 169.827 54.85 169.827 54.382C169.827 54.118 169.731 53.986 169.539 53.986C169.383 53.986 169.155 54.022 168.855 54.094C168.567 54.166 168.279 54.244 167.991 54.328C167.703 54.4 167.487 54.436 167.343 54.436C167.127 54.436 166.905 54.334 166.677 54.13C166.461 53.926 166.257 53.668 166.065 53.356C165.873 53.032 165.717 52.696 165.597 52.348C165.477 52 165.417 51.676 165.417 51.376C165.417 50.668 165.639 50.074 166.083 49.594C166.539 49.114 167.187 48.874 168.027 48.874C168.747 48.874 169.335 49.066 169.791 49.45C170.247 49.834 170.595 50.422 170.835 51.214L170.205 51.43C169.881 50.914 169.389 50.656 168.729 50.656C168.153 50.656 167.667 50.806 167.271 51.106C166.875 51.406 166.677 51.784 166.677 52.24C166.677 52.48 166.791 52.6 167.019 52.6C167.199 52.6 167.433 52.564 167.721 52.492C168.009 52.408 168.297 52.33 168.585 52.258C168.873 52.186 169.107 52.15 169.287 52.15C169.563 52.15 169.833 52.306 170.097 52.618C170.361 52.93 170.577 53.326 170.745 53.806C170.913 54.286 170.997 54.778 170.997 55.282C170.997 56.086 170.775 56.734 170.331 57.226C169.887 57.706 169.251 57.946 168.423 57.946ZM175.226 57.946C174.314 57.946 173.6 57.652 173.084 57.064C172.568 56.464 172.208 55.654 172.004 54.634L172.58 54.472C172.808 55.048 173.066 55.456 173.354 55.696C173.654 55.936 174.056 56.056 174.56 56.056C175.136 56.056 175.622 55.894 176.018 55.57C176.426 55.246 176.63 54.85 176.63 54.382C176.63 54.118 176.534 53.986 176.342 53.986C176.186 53.986 175.958 54.022 175.658 54.094C175.37 54.166 175.082 54.244 174.794 54.328C174.506 54.4 174.29 54.436 174.146 54.436C173.93 54.436 173.708 54.334 173.48 54.13C173.264 53.926 173.06 53.668 172.868 53.356C172.676 53.032 172.52 52.696 172.4 52.348C172.28 52 172.22 51.676 172.22 51.376C172.22 50.668 172.442 50.074 172.886 49.594C173.342 49.114 173.99 48.874 174.83 48.874C175.55 48.874 176.138 49.066 176.594 49.45C177.05 49.834 177.398 50.422 177.638 51.214L177.008 51.43C176.684 50.914 176.192 50.656 175.532 50.656C174.956 50.656 174.47 50.806 174.074 51.106C173.678 51.406 173.48 51.784 173.48 52.24C173.48 52.48 173.594 52.6 173.822 52.6C174.002 52.6 174.236 52.564 174.524 52.492C174.812 52.408 175.1 52.33 175.388 52.258C175.676 52.186 175.91 52.15 176.09 52.15C176.366 52.15 176.636 52.306 176.9 52.618C177.164 52.93 177.38 53.326 177.548 53.806C177.716 54.286 177.8 54.778 177.8 55.282C177.8 56.086 177.578 56.734 177.134 57.226C176.69 57.706 176.054 57.946 175.226 57.946ZM182.675 47.902L181.487 46.624V46.444C181.811 46.012 182.249 45.634 182.801 45.31L183.989 46.552L183.971 46.768C183.731 46.936 183.503 47.122 183.287 47.326C183.083 47.53 182.879 47.722 182.675 47.902ZM184.277 58.036C183.509 57.748 182.915 57.49 182.495 57.262C182.087 57.022 181.883 56.806 181.883 56.614C181.883 56.446 181.901 56.188 181.937 55.84C181.985 55.48 182.009 55.132 182.009 54.796V52.222C182.009 51.91 182.021 51.622 182.045 51.358C182.081 51.082 182.135 50.842 182.207 50.638H181.613L180.659 49.414L180.785 49.108H183.089L184.133 50.512C183.989 50.704 183.893 50.944 183.845 51.232C183.809 51.52 183.791 51.886 183.791 52.33V54.994C183.791 55.426 183.773 55.81 183.737 56.146C183.701 56.47 183.683 56.716 183.683 56.884C183.683 57.004 183.725 57.1 183.809 57.172C183.905 57.232 184.133 57.358 184.493 57.55L184.277 58.036ZM188.673 57.946C187.761 57.946 187.047 57.652 186.531 57.064C186.015 56.464 185.655 55.654 185.451 54.634L186.027 54.472C186.255 55.048 186.513 55.456 186.801 55.696C187.101 55.936 187.503 56.056 188.007 56.056C188.583 56.056 189.069 55.894 189.465 55.57C189.873 55.246 190.077 54.85 190.077 54.382C190.077 54.118 189.981 53.986 189.789 53.986C189.633 53.986 189.405 54.022 189.105 54.094C188.817 54.166 188.529 54.244 188.241 54.328C187.953 54.4 187.737 54.436 187.593 54.436C187.377 54.436 187.155 54.334 186.927 54.13C186.711 53.926 186.507 53.668 186.315 53.356C186.123 53.032 185.967 52.696 185.847 52.348C185.727 52 185.667 51.676 185.667 51.376C185.667 50.668 185.889 50.074 186.333 49.594C186.789 49.114 187.437 48.874 188.277 48.874C188.997 48.874 189.585 49.066 190.041 49.45C190.497 49.834 190.845 50.422 191.085 51.214L190.455 51.43C190.131 50.914 189.639 50.656 188.979 50.656C188.403 50.656 187.917 50.806 187.521 51.106C187.125 51.406 186.927 51.784 186.927 52.24C186.927 52.48 187.041 52.6 187.269 52.6C187.449 52.6 187.683 52.564 187.971 52.492C188.259 52.408 188.547 52.33 188.835 52.258C189.123 52.186 189.357 52.15 189.537 52.15C189.813 52.15 190.083 52.306 190.347 52.618C190.611 52.93 190.827 53.326 190.995 53.806C191.163 54.286 191.247 54.778 191.247 55.282C191.247 56.086 191.025 56.734 190.581 57.226C190.137 57.706 189.501 57.946 188.673 57.946ZM199.056 57.838C198.66 57.838 198.288 57.784 197.94 57.676C197.604 57.568 197.31 57.442 197.058 57.298V58.702C197.058 59.134 197.04 59.512 197.004 59.836C196.968 60.172 196.95 60.424 196.95 60.592C196.95 60.712 196.992 60.802 197.076 60.862C197.172 60.934 197.4 61.066 197.76 61.258L197.544 61.744C196.776 61.456 196.182 61.192 195.762 60.952C195.354 60.724 195.15 60.514 195.15 60.322C195.15 60.154 195.168 59.89 195.204 59.53C195.252 59.182 195.276 58.84 195.276 58.504V52.492C195.276 52.264 195.282 51.964 195.294 51.592C195.318 51.22 195.36 50.902 195.42 50.638H194.754L193.818 49.396L193.944 49.108H195.636C195.684 49.108 195.786 49.192 195.942 49.36C196.098 49.516 196.26 49.696 196.428 49.9C196.608 49.624 196.866 49.402 197.202 49.234C197.55 49.066 197.922 48.982 198.318 48.982H198.66C198.924 48.982 199.212 49.09 199.524 49.306C199.836 49.51 200.13 49.768 200.406 50.08C200.682 50.38 200.91 50.68 201.09 50.98C201.27 51.28 201.36 51.526 201.36 51.718C201.36 52.054 201.354 52.528 201.342 53.14C201.33 53.74 201.324 54.454 201.324 55.282C201.324 56.062 201.12 56.686 200.712 57.154C200.304 57.61 199.752 57.838 199.056 57.838ZM199.092 50.656C198.492 50.656 198.012 50.746 197.652 50.926C197.292 51.094 197.094 51.442 197.058 51.97C197.058 52.102 197.058 52.216 197.058 52.312V56.272C197.274 56.32 197.502 56.344 197.742 56.344C198.39 56.344 198.852 56.194 199.128 55.894C199.404 55.594 199.542 55.174 199.542 54.634C199.542 54.25 199.548 53.848 199.56 53.428C199.572 53.008 199.578 52.612 199.578 52.24C199.59 51.868 199.596 51.562 199.596 51.322C199.596 51.154 199.572 51.004 199.524 50.872C199.476 50.728 199.332 50.656 199.092 50.656ZM206.03 58.162C204.998 57.826 204.254 57.538 203.798 57.298C203.342 57.046 203.114 56.866 203.114 56.758C203.114 56.626 203.132 56.398 203.168 56.074C203.216 55.75 203.24 55.246 203.24 54.562V52.33C203.24 52.09 203.252 51.808 203.276 51.484C203.3 51.148 203.336 50.866 203.384 50.638H202.718L201.782 49.396L201.908 49.108H203.6C203.66 49.108 203.768 49.198 203.924 49.378C204.092 49.546 204.26 49.732 204.428 49.936C204.62 49.624 204.884 49.396 205.22 49.252C205.568 49.108 205.934 49.036 206.318 49.036C206.51 49.036 206.654 49.048 206.75 49.072L207.65 50.332L207.506 50.548C206.666 50.536 206.042 50.698 205.634 51.034C205.226 51.37 205.022 51.988 205.022 52.888V54.814C205.022 55.414 205.004 55.882 204.968 56.218C204.944 56.542 204.932 56.758 204.932 56.866C204.932 56.938 204.956 57.004 205.004 57.064C205.052 57.112 205.166 57.172 205.346 57.244C205.538 57.316 205.838 57.436 206.246 57.604L206.03 58.162ZM211.538 57.91C211.25 57.91 210.902 57.838 210.494 57.694C210.086 57.55 209.69 57.358 209.306 57.118C208.922 56.878 208.598 56.602 208.334 56.29C208.082 55.978 207.956 55.66 207.956 55.336C207.956 55.192 207.974 54.772 208.01 54.076C208.058 53.38 208.082 52.51 208.082 51.466C208.082 50.626 208.328 50.008 208.82 49.612C209.312 49.216 210.05 49.018 211.034 49.018C211.322 49.018 211.64 49.108 211.988 49.288C212.348 49.468 212.69 49.702 213.014 49.99C213.338 50.278 213.602 50.584 213.806 50.908C214.022 51.22 214.13 51.514 214.13 51.79C214.13 52.246 214.118 52.738 214.094 53.266C214.082 53.794 214.076 54.472 214.076 55.3C214.076 56.068 213.866 56.698 213.446 57.19C213.026 57.67 212.39 57.91 211.538 57.91ZM210.386 56.38C211.046 56.38 211.526 56.242 211.826 55.966C212.138 55.69 212.294 55.282 212.294 54.742C212.294 54.358 212.3 53.926 212.312 53.446C212.324 52.954 212.336 52.504 212.348 52.096C212.36 51.676 212.366 51.382 212.366 51.214C212.366 51.01 212.33 50.86 212.258 50.764C212.186 50.656 212.042 50.602 211.826 50.602C211.178 50.602 210.68 50.716 210.332 50.944C209.996 51.16 209.828 51.574 209.828 52.186C209.828 53.338 209.816 54.208 209.792 54.796C209.768 55.372 209.756 55.762 209.756 55.966C209.756 56.242 209.966 56.38 210.386 56.38ZM218.882 58.036C218.75 58.036 218.558 57.952 218.306 57.784C218.066 57.604 217.814 57.388 217.55 57.136C217.286 56.884 217.052 56.65 216.848 56.434C216.656 56.206 216.548 56.038 216.524 55.93C216.26 54.862 216.044 54.01 215.876 53.374C215.708 52.726 215.582 52.228 215.498 51.88C215.426 51.52 215.39 51.244 215.39 51.052C215.39 50.908 215.408 50.77 215.444 50.638H215.03L214.148 49.396L214.292 49.108H216.578L217.406 50.314V50.548C217.142 50.596 216.962 50.698 216.866 50.854C216.77 51.01 216.722 51.208 216.722 51.448C216.722 51.58 216.752 51.796 216.812 52.096C216.872 52.384 216.986 52.846 217.154 53.482C217.322 54.106 217.568 54.982 217.892 56.11C218.06 55.678 218.228 55.24 218.396 54.796C218.564 54.34 218.762 53.788 218.99 53.14C219.218 52.48 219.506 51.646 219.854 50.638H219.062L218.234 49.396L218.36 49.108H220.61L221.708 50.62C221.204 52.12 220.784 53.356 220.448 54.328C220.112 55.288 219.842 56.038 219.638 56.578C219.434 57.118 219.272 57.496 219.152 57.712C219.044 57.928 218.954 58.036 218.882 58.036ZM224.071 47.902L222.883 46.624V46.444C223.207 46.012 223.645 45.634 224.197 45.31L225.385 46.552L225.367 46.768C225.127 46.936 224.899 47.122 224.683 47.326C224.479 47.53 224.275 47.722 224.071 47.902ZM225.673 58.036C224.905 57.748 224.311 57.49 223.891 57.262C223.483 57.022 223.279 56.806 223.279 56.614C223.279 56.446 223.297 56.188 223.333 55.84C223.381 55.48 223.405 55.132 223.405 54.796V52.222C223.405 51.91 223.417 51.622 223.441 51.358C223.477 51.082 223.531 50.842 223.603 50.638H223.009L222.055 49.414L222.181 49.108H224.485L225.529 50.512C225.385 50.704 225.289 50.944 225.241 51.232C225.205 51.52 225.187 51.886 225.187 52.33V54.994C225.187 55.426 225.169 55.81 225.133 56.146C225.097 56.47 225.079 56.716 225.079 56.884C225.079 57.004 225.121 57.1 225.205 57.172C225.301 57.232 225.529 57.358 225.889 57.55L225.673 58.036ZM233.742 57.964C233.466 57.88 233.22 57.79 233.004 57.694C232.8 57.598 232.572 57.478 232.32 57.334C232.08 57.538 231.834 57.688 231.582 57.784C231.342 57.868 231.036 57.91 230.664 57.91C230.376 57.91 230.028 57.838 229.62 57.694C229.224 57.55 228.828 57.358 228.432 57.118C228.048 56.878 227.724 56.602 227.46 56.29C227.208 55.978 227.082 55.66 227.082 55.336C227.082 55.204 227.1 54.826 227.136 54.202C227.172 53.566 227.19 52.648 227.19 51.448C227.19 50.596 227.424 49.984 227.892 49.612C228.36 49.24 229.014 49.054 229.854 49.054C230.106 49.054 230.37 49.102 230.646 49.198C230.934 49.294 231.192 49.408 231.42 49.54C231.432 48.904 231.462 48.322 231.51 47.794C231.558 47.266 231.624 46.834 231.708 46.498H230.934L229.944 45.328L230.07 45.04H232.41L233.472 46.408C233.388 46.876 233.322 47.41 233.274 48.01C233.226 48.598 233.202 49.198 233.202 49.81V52.528C233.202 53.116 233.19 53.722 233.166 54.346C233.142 54.958 233.136 55.612 233.148 56.308C233.16 56.668 233.22 56.914 233.328 57.046C233.436 57.178 233.664 57.316 234.012 57.46L233.742 57.964ZM228.882 55.822C228.882 56.026 228.93 56.17 229.026 56.254C229.134 56.338 229.296 56.38 229.512 56.38C230.16 56.38 230.64 56.23 230.952 55.93C231.264 55.63 231.42 55.21 231.42 54.67V50.71C231.192 50.662 230.946 50.638 230.682 50.638C230.178 50.638 229.764 50.746 229.44 50.962C229.128 51.178 228.966 51.586 228.954 52.186L228.882 55.822ZM238.7 57.874C238.412 57.874 238.058 57.802 237.638 57.658C237.218 57.502 236.798 57.304 236.378 57.064C235.97 56.812 235.628 56.542 235.352 56.254C235.076 55.954 234.938 55.66 234.938 55.372C234.938 55.084 234.956 54.586 234.992 53.878C235.04 53.17 235.064 52.324 235.064 51.34C235.064 49.78 235.916 49 237.62 49C237.884 49 238.19 49.084 238.538 49.252C238.886 49.408 239.222 49.618 239.546 49.882C239.87 50.134 240.14 50.398 240.356 50.674C240.572 50.95 240.68 51.208 240.68 51.448V52.924C240.68 53.896 240.14 54.382 239.06 54.382C238.724 54.382 238.34 54.364 237.908 54.328C237.476 54.28 237.092 54.226 236.756 54.166C236.744 54.562 236.732 54.922 236.72 55.246C236.72 55.558 236.72 55.738 236.72 55.786C236.72 55.978 236.768 56.116 236.864 56.2C236.96 56.284 237.134 56.326 237.386 56.326C237.758 56.326 238.16 56.272 238.592 56.164C239.036 56.044 239.432 55.87 239.78 55.642H240.05L241.022 57.118C240.794 57.334 240.452 57.514 239.996 57.658C239.552 57.802 239.12 57.874 238.7 57.874ZM236.81 51.916C236.81 52.012 236.804 52.156 236.792 52.348C236.792 52.54 236.792 52.756 236.792 52.996C237.14 53.032 237.542 53.05 237.998 53.05C238.346 53.05 238.586 52.966 238.718 52.798C238.862 52.618 238.934 52.348 238.934 51.988V51.016C238.934 50.884 238.898 50.77 238.826 50.674C238.754 50.578 238.598 50.53 238.358 50.53C237.878 50.53 237.5 50.632 237.224 50.836C236.948 51.028 236.81 51.388 236.81 51.916ZM248.718 57.964C248.442 57.88 248.196 57.79 247.98 57.694C247.776 57.598 247.548 57.478 247.296 57.334C247.056 57.538 246.81 57.688 246.558 57.784C246.318 57.868 246.012 57.91 245.64 57.91C245.352 57.91 245.004 57.838 244.596 57.694C244.2 57.55 243.804 57.358 243.408 57.118C243.024 56.878 242.7 56.602 242.436 56.29C242.184 55.978 242.058 55.66 242.058 55.336C242.058 55.204 242.076 54.826 242.112 54.202C242.148 53.566 242.166 52.648 242.166 51.448C242.166 50.596 242.4 49.984 242.868 49.612C243.336 49.24 243.99 49.054 244.83 49.054C245.082 49.054 245.346 49.102 245.622 49.198C245.91 49.294 246.168 49.408 246.396 49.54C246.408 48.904 246.438 48.322 246.486 47.794C246.534 47.266 246.6 46.834 246.684 46.498H245.91L244.92 45.328L245.046 45.04H247.386L248.448 46.408C248.364 46.876 248.298 47.41 248.25 48.01C248.202 48.598 248.178 49.198 248.178 49.81V52.528C248.178 53.116 248.166 53.722 248.142 54.346C248.118 54.958 248.112 55.612 248.124 56.308C248.136 56.668 248.196 56.914 248.304 57.046C248.412 57.178 248.64 57.316 248.988 57.46L248.718 57.964ZM243.858 55.822C243.858 56.026 243.906 56.17 244.002 56.254C244.11 56.338 244.272 56.38 244.488 56.38C245.136 56.38 245.616 56.23 245.928 55.93C246.24 55.63 246.396 55.21 246.396 54.67V50.71C246.168 50.662 245.922 50.638 245.658 50.638C245.154 50.638 244.74 50.746 244.416 50.962C244.104 51.178 243.942 51.586 243.93 52.186L243.858 55.822ZM256.085 57.91C255.953 57.91 255.743 57.874 255.455 57.802C255.179 57.73 254.873 57.634 254.537 57.514C254.201 57.382 253.877 57.232 253.565 57.064C253.253 56.896 252.995 56.716 252.791 56.524C252.599 56.332 252.503 56.14 252.503 55.948C252.503 55.576 252.521 55.174 252.557 54.742C252.593 54.298 252.617 53.71 252.629 52.978V49.954C252.629 49.234 252.653 48.574 252.701 47.974C252.761 47.362 252.833 46.87 252.917 46.498H252.143L251.153 45.328L251.279 45.04H253.619L254.681 46.408C254.597 46.828 254.531 47.302 254.483 47.83C254.447 48.346 254.423 48.88 254.411 49.432C254.591 49.312 254.807 49.21 255.059 49.126C255.323 49.03 255.605 48.982 255.905 48.982C256.145 48.982 256.421 49.09 256.733 49.306C257.057 49.51 257.369 49.768 257.669 50.08C257.981 50.38 258.233 50.686 258.425 50.998C258.629 51.298 258.731 51.55 258.731 51.754C258.731 51.934 258.725 52.21 258.713 52.582C258.713 52.942 258.707 53.356 258.695 53.824C258.683 54.292 258.677 54.772 258.677 55.264C258.677 56.056 258.455 56.698 258.011 57.19C257.579 57.67 256.937 57.91 256.085 57.91ZM254.339 56.002C254.339 56.254 254.531 56.38 254.915 56.38C255.515 56.38 255.995 56.26 256.355 56.02C256.715 55.78 256.895 55.306 256.895 54.598C256.895 53.89 256.907 53.242 256.931 52.654C256.955 52.054 256.967 51.562 256.967 51.178C256.967 50.974 256.919 50.83 256.823 50.746C256.739 50.65 256.553 50.602 256.265 50.602C255.581 50.602 255.101 50.74 254.825 51.016C254.549 51.28 254.411 51.73 254.411 52.366V53.428C254.411 54.016 254.399 54.562 254.375 55.066C254.351 55.558 254.339 55.87 254.339 56.002ZM261.372 55.984C260.964 54.712 260.646 53.668 260.418 52.852C260.19 52.024 260.076 51.454 260.076 51.142C260.076 50.926 260.094 50.758 260.13 50.638H259.698L258.834 49.396L258.978 49.108H261.282L262.11 50.314L262.02 50.548C261.648 50.62 261.462 50.902 261.462 51.394C261.462 51.682 261.558 52.21 261.75 52.978C261.954 53.734 262.29 54.748 262.758 56.02C263.118 54.976 263.46 53.992 263.784 53.068C264.12 52.132 264.408 51.322 264.648 50.638H263.658L262.848 49.396L262.992 49.108H265.422L266.412 50.602C265.632 52.858 264.966 54.79 264.414 56.398C263.862 58.006 263.418 59.236 263.082 60.088C262.758 60.952 262.524 61.384 262.38 61.384C262.236 61.384 262.002 61.312 261.678 61.168C261.366 61.036 261.042 60.88 260.706 60.7C260.382 60.52 260.13 60.37 259.95 60.25L260.22 59.764C260.34 59.836 260.466 59.902 260.598 59.962C260.73 60.034 260.856 60.07 260.976 60.07C261.072 60.07 261.174 59.992 261.282 59.836C261.39 59.692 261.522 59.422 261.678 59.026C261.846 58.642 262.056 58.09 262.308 57.37C262.332 57.31 262.35 57.25 262.362 57.19C262.146 57.022 261.942 56.83 261.75 56.614C261.57 56.398 261.444 56.188 261.372 55.984ZM276.221 57.91C275.933 57.814 275.669 57.718 275.429 57.622C275.189 57.514 274.961 57.4 274.745 57.28C274.577 57.448 274.373 57.586 274.133 57.694C273.905 57.79 273.641 57.838 273.341 57.838C273.137 57.838 272.837 57.772 272.441 57.64C272.057 57.508 271.661 57.34 271.253 57.136C270.845 56.92 270.497 56.686 270.209 56.434C269.933 56.17 269.795 55.912 269.795 55.66C269.795 55.348 269.795 55.072 269.795 54.832C269.807 54.58 269.813 54.43 269.813 54.382C269.813 53.674 269.993 53.176 270.353 52.888C270.725 52.588 271.241 52.438 271.901 52.438C272.237 52.438 272.597 52.462 272.981 52.51C273.365 52.558 273.677 52.612 273.917 52.672C273.929 52.336 273.935 52.018 273.935 51.718C273.947 51.406 273.953 51.172 273.953 51.016C273.953 50.884 273.917 50.788 273.845 50.728C273.773 50.668 273.641 50.638 273.449 50.638C272.981 50.638 272.585 50.674 272.261 50.746C271.937 50.818 271.631 50.938 271.343 51.106H271.001L269.831 49.396L269.975 49.108H272.981C273.221 49.108 273.491 49.204 273.791 49.396C274.103 49.576 274.409 49.804 274.709 50.08C275.009 50.356 275.255 50.638 275.447 50.926C275.639 51.214 275.735 51.466 275.735 51.682C275.735 52.078 275.723 52.546 275.699 53.086C275.675 53.626 275.651 54.178 275.627 54.742C275.603 55.294 275.591 55.798 275.591 56.254C275.591 56.614 275.651 56.866 275.771 57.01C275.891 57.142 276.119 57.274 276.455 57.406L276.221 57.91ZM271.577 55.66C271.577 55.96 271.631 56.152 271.739 56.236C271.847 56.308 271.979 56.344 272.135 56.344C272.627 56.344 273.035 56.218 273.359 55.966C273.695 55.702 273.863 55.294 273.863 54.742C273.863 54.634 273.863 54.502 273.863 54.346C273.875 54.19 273.881 54.016 273.881 53.824C273.749 53.788 273.587 53.764 273.395 53.752C273.203 53.74 273.029 53.734 272.873 53.734C272.441 53.734 272.117 53.83 271.901 54.022C271.685 54.214 271.577 54.55 271.577 55.03V55.66ZM283.945 57.964C283.669 57.88 283.423 57.79 283.207 57.694C283.003 57.598 282.775 57.478 282.523 57.334C282.283 57.538 282.037 57.688 281.785 57.784C281.545 57.868 281.239 57.91 280.867 57.91C280.579 57.91 280.231 57.838 279.823 57.694C279.427 57.55 279.031 57.358 278.635 57.118C278.251 56.878 277.927 56.602 277.663 56.29C277.411 55.978 277.285 55.66 277.285 55.336C277.285 55.204 277.303 54.826 277.339 54.202C277.375 53.566 277.393 52.648 277.393 51.448C277.393 50.596 277.627 49.984 278.095 49.612C278.563 49.24 279.217 49.054 280.057 49.054C280.309 49.054 280.573 49.102 280.849 49.198C281.137 49.294 281.395 49.408 281.623 49.54C281.635 48.904 281.665 48.322 281.713 47.794C281.761 47.266 281.827 46.834 281.911 46.498H281.137L280.147 45.328L280.273 45.04H282.613L283.675 46.408C283.591 46.876 283.525 47.41 283.477 48.01C283.429 48.598 283.405 49.198 283.405 49.81V52.528C283.405 53.116 283.393 53.722 283.369 54.346C283.345 54.958 283.339 55.612 283.351 56.308C283.363 56.668 283.423 56.914 283.531 57.046C283.639 57.178 283.867 57.316 284.215 57.46L283.945 57.964ZM279.085 55.822C279.085 56.026 279.133 56.17 279.229 56.254C279.337 56.338 279.499 56.38 279.715 56.38C280.363 56.38 280.843 56.23 281.155 55.93C281.467 55.63 281.623 55.21 281.623 54.67V50.71C281.395 50.662 281.149 50.638 280.885 50.638C280.381 50.638 279.967 50.746 279.643 50.962C279.331 51.178 279.169 51.586 279.157 52.186L279.085 55.822ZM287.983 58C287.215 57.712 286.621 57.454 286.201 57.226C285.793 56.986 285.589 56.77 285.589 56.578C285.589 56.41 285.607 56.152 285.643 55.804C285.691 55.444 285.715 55.096 285.715 54.76V52.456C285.715 52.216 285.721 51.916 285.733 51.556C285.757 51.196 285.799 50.89 285.859 50.638H285.193L284.257 49.396L284.383 49.108H286.075C286.123 49.108 286.225 49.186 286.381 49.342C286.537 49.498 286.693 49.678 286.849 49.882C287.317 49.282 287.905 48.982 288.613 48.982H288.865C289.105 48.982 289.375 49.084 289.675 49.288C289.975 49.48 290.257 49.708 290.521 49.972C290.773 49.612 291.073 49.36 291.421 49.216C291.769 49.06 292.129 48.982 292.501 48.982H292.807C293.047 48.982 293.311 49.078 293.599 49.27C293.899 49.462 294.181 49.696 294.445 49.972C294.721 50.248 294.943 50.524 295.111 50.8C295.291 51.064 295.381 51.28 295.381 51.448C295.381 51.748 295.369 52.12 295.345 52.564C295.321 53.008 295.309 53.368 295.309 53.644V54.958C295.309 55.39 295.291 55.774 295.255 56.11C295.219 56.434 295.201 56.68 295.201 56.848C295.201 56.968 295.243 57.064 295.327 57.136C295.423 57.196 295.651 57.322 296.011 57.514L295.795 58C295.027 57.712 294.433 57.454 294.013 57.226C293.605 56.986 293.401 56.77 293.401 56.578C293.401 56.41 293.419 56.152 293.455 55.804C293.503 55.444 293.527 55.096 293.527 54.76V53.824C293.527 53.44 293.539 53.002 293.563 52.51C293.587 52.018 293.599 51.586 293.599 51.214C293.599 50.974 293.569 50.812 293.509 50.728C293.449 50.644 293.317 50.602 293.113 50.602C292.069 50.602 291.505 51.088 291.421 52.06C291.421 52.336 291.415 52.618 291.403 52.906C291.403 53.194 291.403 53.44 291.403 53.644V54.958C291.403 55.39 291.385 55.774 291.349 56.11C291.313 56.434 291.295 56.68 291.295 56.848C291.295 56.968 291.337 57.064 291.421 57.136C291.517 57.196 291.745 57.322 292.105 57.514L291.889 58C291.121 57.712 290.527 57.454 290.107 57.226C289.699 56.986 289.495 56.77 289.495 56.578C289.495 56.41 289.513 56.152 289.549 55.804C289.597 55.444 289.621 55.096 289.621 54.76V53.824C289.621 53.44 289.627 53.002 289.639 52.51C289.663 52.018 289.675 51.586 289.675 51.214C289.675 50.974 289.645 50.812 289.585 50.728C289.525 50.644 289.393 50.602 289.189 50.602C288.601 50.602 288.169 50.776 287.893 51.124C287.629 51.46 287.497 51.928 287.497 52.528V54.958C287.497 55.39 287.479 55.774 287.443 56.11C287.407 56.434 287.389 56.68 287.389 56.848C287.389 56.968 287.431 57.064 287.515 57.136C287.611 57.196 287.839 57.322 288.199 57.514L287.983 58ZM298.198 47.902L297.01 46.624V46.444C297.334 46.012 297.772 45.634 298.324 45.31L299.512 46.552L299.494 46.768C299.254 46.936 299.026 47.122 298.81 47.326C298.606 47.53 298.402 47.722 298.198 47.902ZM299.8 58.036C299.032 57.748 298.438 57.49 298.018 57.262C297.61 57.022 297.406 56.806 297.406 56.614C297.406 56.446 297.424 56.188 297.46 55.84C297.508 55.48 297.532 55.132 297.532 54.796V52.222C297.532 51.91 297.544 51.622 297.568 51.358C297.604 51.082 297.658 50.842 297.73 50.638H297.136L296.182 49.414L296.308 49.108H298.612L299.656 50.512C299.512 50.704 299.416 50.944 299.368 51.232C299.332 51.52 299.314 51.886 299.314 52.33V54.994C299.314 55.426 299.296 55.81 299.26 56.146C299.224 56.47 299.206 56.716 299.206 56.884C299.206 57.004 299.248 57.1 299.332 57.172C299.428 57.232 299.656 57.358 300.016 57.55L299.8 58.036ZM303.927 58C303.159 57.712 302.565 57.454 302.145 57.226C301.737 56.986 301.533 56.77 301.533 56.578C301.533 56.41 301.551 56.152 301.587 55.804C301.635 55.444 301.659 55.096 301.659 54.76V52.456C301.659 52.216 301.665 51.916 301.677 51.556C301.701 51.196 301.743 50.89 301.803 50.638H301.137L300.201 49.396L300.327 49.108H302.019C302.067 49.108 302.169 49.192 302.325 49.36C302.493 49.516 302.661 49.696 302.829 49.9C303.057 49.588 303.339 49.36 303.675 49.216C304.023 49.06 304.359 48.982 304.683 48.982H305.061C305.301 48.982 305.565 49.078 305.853 49.27C306.153 49.462 306.441 49.696 306.717 49.972C307.005 50.248 307.239 50.524 307.419 50.8C307.599 51.064 307.689 51.28 307.689 51.448C307.689 51.748 307.677 52.12 307.653 52.564C307.629 53.008 307.617 53.368 307.617 53.644V54.958C307.617 55.39 307.599 55.774 307.563 56.11C307.527 56.434 307.509 56.68 307.509 56.848C307.509 56.968 307.551 57.064 307.635 57.136C307.731 57.196 307.959 57.322 308.319 57.514L308.103 58C307.335 57.712 306.741 57.454 306.321 57.226C305.913 56.986 305.709 56.77 305.709 56.578C305.709 56.41 305.727 56.152 305.763 55.804C305.811 55.444 305.835 55.096 305.835 54.76V53.824C305.835 53.44 305.847 53.002 305.871 52.51C305.895 52.018 305.907 51.586 305.907 51.214C305.907 50.974 305.877 50.812 305.817 50.728C305.757 50.644 305.625 50.602 305.421 50.602C304.749 50.602 304.251 50.776 303.927 51.124C303.603 51.46 303.441 51.928 303.441 52.528V54.958C303.441 55.39 303.423 55.774 303.387 56.11C303.351 56.434 303.333 56.68 303.333 56.848C303.333 56.968 303.375 57.064 303.459 57.136C303.555 57.196 303.783 57.322 304.143 57.514L303.927 58Z" fill="white"/>
<path d="M63.8647 18.964C63.0727 18.7 62.4727 18.454 62.0647 18.226C61.6567 17.998 61.4527 17.812 61.4527 17.668C61.4527 17.536 61.4647 17.398 61.4887 17.254C61.5127 17.11 61.5367 16.9 61.5607 16.624C61.5847 16.348 61.5967 15.952 61.5967 15.436V11.152C61.5967 10.228 61.6627 9.508 61.7947 8.992H61.5427C61.2787 8.992 61.0207 9.046 60.7687 9.154C60.5287 9.262 60.3547 9.382 60.2467 9.514H59.8687L58.6987 7.786L58.8247 7.498H65.4307L66.2947 8.758L65.3947 9.514H65.0887C64.8607 9.298 64.6567 9.16 64.4767 9.1C64.3087 9.028 64.0807 8.992 63.7927 8.992H63.7027C63.5107 9.484 63.4147 10.174 63.4147 11.062V15.832C63.4147 16.348 63.3967 16.762 63.3607 17.074C63.3367 17.374 63.3247 17.608 63.3247 17.776C63.3247 17.98 63.5827 18.202 64.0987 18.442L63.8647 18.964ZM69.3668 19C68.5988 18.712 68.0048 18.454 67.5848 18.226C67.1768 17.986 66.9728 17.77 66.9728 17.578C66.9728 17.41 66.9908 17.152 67.0268 16.804C67.0748 16.444 67.0988 16.096 67.0988 15.76V10.936C67.0988 10.216 67.1228 9.556 67.1708 8.956C67.2308 8.344 67.3028 7.858 67.3868 7.498H66.6128L65.6228 6.328L65.7488 6.04H68.0888L69.1508 7.408C69.0668 7.852 69.0008 8.35 68.9528 8.902C68.9048 9.442 68.8808 10.006 68.8808 10.594C69.0728 10.402 69.3068 10.252 69.5828 10.144C69.8708 10.036 70.1708 9.982 70.4828 9.982C70.7468 9.982 71.0288 10.078 71.3288 10.27C71.6288 10.462 71.9108 10.696 72.1748 10.972C72.4508 11.248 72.6728 11.524 72.8408 11.8C73.0208 12.064 73.1108 12.28 73.1108 12.448C73.1108 12.748 73.0988 13.12 73.0748 13.564C73.0508 14.008 73.0388 14.368 73.0388 14.644V15.958C73.0388 16.39 73.0208 16.774 72.9848 17.11C72.9488 17.434 72.9308 17.68 72.9308 17.848C72.9308 17.968 72.9728 18.064 73.0568 18.136C73.1528 18.196 73.3808 18.322 73.7408 18.514L73.5248 19C72.7568 18.712 72.1628 18.454 71.7428 18.226C71.3348 17.986 71.1308 17.77 71.1308 17.578C71.1308 17.41 71.1488 17.152 71.1848 16.804C71.2328 16.444 71.2568 16.096 71.2568 15.76V14.824C71.2568 14.44 71.2688 14.002 71.2928 13.51C71.3168 13.018 71.3288 12.586 71.3288 12.214C71.3288 11.974 71.2988 11.812 71.2388 11.728C71.1788 11.644 71.0468 11.602 70.8428 11.602C70.1708 11.602 69.6728 11.776 69.3488 12.124C69.0368 12.46 68.8808 12.928 68.8808 13.528V15.958C68.8808 16.39 68.8628 16.774 68.8268 17.11C68.7908 17.434 68.7728 17.68 68.7728 17.848C68.7728 17.968 68.8148 18.064 68.8988 18.136C68.9948 18.196 69.2228 18.322 69.5828 18.514L69.3668 19ZM76.0341 8.902L74.8461 7.624V7.444C75.1701 7.012 75.6081 6.634 76.1601 6.31L77.3481 7.552L77.3301 7.768C77.0901 7.936 76.8621 8.122 76.6461 8.326C76.4421 8.53 76.2381 8.722 76.0341 8.902ZM77.6361 19.036C76.8681 18.748 76.2741 18.49 75.8541 18.262C75.4461 18.022 75.2421 17.806 75.2421 17.614C75.2421 17.446 75.2601 17.188 75.2961 16.84C75.3441 16.48 75.3681 16.132 75.3681 15.796V13.222C75.3681 12.91 75.3801 12.622 75.4041 12.358C75.4401 12.082 75.4941 11.842 75.5661 11.638H74.9721L74.0181 10.414L74.1441 10.108H76.4481L77.4921 11.512C77.3481 11.704 77.2521 11.944 77.2041 12.232C77.1681 12.52 77.1501 12.886 77.1501 13.33V15.994C77.1501 16.426 77.1321 16.81 77.0961 17.146C77.0601 17.47 77.0421 17.716 77.0421 17.884C77.0421 18.004 77.0841 18.1 77.1681 18.172C77.2641 18.232 77.4921 18.358 77.8521 18.55L77.6361 19.036ZM82.0328 18.946C81.1208 18.946 80.4068 18.652 79.8908 18.064C79.3748 17.464 79.0148 16.654 78.8108 15.634L79.3868 15.472C79.6148 16.048 79.8728 16.456 80.1608 16.696C80.4608 16.936 80.8628 17.056 81.3668 17.056C81.9428 17.056 82.4288 16.894 82.8248 16.57C83.2328 16.246 83.4368 15.85 83.4368 15.382C83.4368 15.118 83.3408 14.986 83.1488 14.986C82.9928 14.986 82.7648 15.022 82.4648 15.094C82.1768 15.166 81.8888 15.244 81.6008 15.328C81.3128 15.4 81.0968 15.436 80.9528 15.436C80.7368 15.436 80.5148 15.334 80.2868 15.13C80.0708 14.926 79.8668 14.668 79.6748 14.356C79.4828 14.032 79.3268 13.696 79.2068 13.348C79.0868 13 79.0268 12.676 79.0268 12.376C79.0268 11.668 79.2488 11.074 79.6928 10.594C80.1488 10.114 80.7968 9.874 81.6368 9.874C82.3568 9.874 82.9448 10.066 83.4008 10.45C83.8568 10.834 84.2048 11.422 84.4448 12.214L83.8148 12.43C83.4908 11.914 82.9988 11.656 82.3388 11.656C81.7628 11.656 81.2768 11.806 80.8808 12.106C80.4848 12.406 80.2868 12.784 80.2868 13.24C80.2868 13.48 80.4008 13.6 80.6288 13.6C80.8088 13.6 81.0428 13.564 81.3308 13.492C81.6188 13.408 81.9068 13.33 82.1948 13.258C82.4828 13.186 82.7168 13.15 82.8968 13.15C83.1728 13.15 83.4428 13.306 83.7068 13.618C83.9708 13.93 84.1868 14.326 84.3548 14.806C84.5228 15.286 84.6068 15.778 84.6068 16.282C84.6068 17.086 84.3848 17.734 83.9408 18.226C83.4968 18.706 82.8608 18.946 82.0328 18.946ZM91.5694 19.036C91.4374 19.036 91.2454 18.952 90.9934 18.784C90.7534 18.604 90.5014 18.388 90.2374 18.136C89.9734 17.884 89.7394 17.65 89.5354 17.434C89.3434 17.206 89.2354 17.038 89.2114 16.93C88.9474 15.862 88.7314 15.01 88.5634 14.374C88.3954 13.726 88.2694 13.228 88.1854 12.88C88.1134 12.52 88.0774 12.244 88.0774 12.052C88.0774 11.908 88.0954 11.77 88.1314 11.638H87.7174L86.8354 10.396L86.9794 10.108H89.2654L90.0934 11.314V11.548C89.8294 11.596 89.6494 11.698 89.5534 11.854C89.4574 12.01 89.4094 12.208 89.4094 12.448C89.4094 12.58 89.4394 12.796 89.4994 13.096C89.5594 13.384 89.6734 13.846 89.8414 14.482C90.0094 15.106 90.2554 15.982 90.5794 17.11C90.7474 16.678 90.9154 16.24 91.0834 15.796C91.2514 15.34 91.4494 14.788 91.6774 14.14C91.9054 13.48 92.1934 12.646 92.5414 11.638H91.7494L90.9214 10.396L91.0474 10.108H93.2974L94.3954 11.62C93.8914 13.12 93.4714 14.356 93.1354 15.328C92.7994 16.288 92.5294 17.038 92.3254 17.578C92.1214 18.118 91.9594 18.496 91.8394 18.712C91.7314 18.928 91.6414 19.036 91.5694 19.036ZM99.0657 18.874C98.7777 18.874 98.4237 18.802 98.0037 18.658C97.5837 18.502 97.1637 18.304 96.7437 18.064C96.3357 17.812 95.9937 17.542 95.7177 17.254C95.4417 16.954 95.3037 16.66 95.3037 16.372C95.3037 16.084 95.3217 15.586 95.3577 14.878C95.4057 14.17 95.4297 13.324 95.4297 12.34C95.4297 10.78 96.2817 10 97.9857 10C98.2497 10 98.5557 10.084 98.9037 10.252C99.2517 10.408 99.5877 10.618 99.9117 10.882C100.236 11.134 100.506 11.398 100.722 11.674C100.938 11.95 101.046 12.208 101.046 12.448V13.924C101.046 14.896 100.506 15.382 99.4257 15.382C99.0897 15.382 98.7057 15.364 98.2737 15.328C97.8417 15.28 97.4577 15.226 97.1217 15.166C97.1097 15.562 97.0977 15.922 97.0857 16.246C97.0857 16.558 97.0857 16.738 97.0857 16.786C97.0857 16.978 97.1337 17.116 97.2297 17.2C97.3257 17.284 97.4997 17.326 97.7517 17.326C98.1237 17.326 98.5257 17.272 98.9577 17.164C99.4017 17.044 99.7977 16.87 100.146 16.642H100.416L101.388 18.118C101.16 18.334 100.818 18.514 100.362 18.658C99.9177 18.802 99.4857 18.874 99.0657 18.874ZM97.1757 12.916C97.1757 13.012 97.1697 13.156 97.1577 13.348C97.1577 13.54 97.1577 13.756 97.1577 13.996C97.5057 14.032 97.9077 14.05 98.3637 14.05C98.7117 14.05 98.9517 13.966 99.0837 13.798C99.2277 13.618 99.2997 13.348 99.2997 12.988V12.016C99.2997 11.884 99.2637 11.77 99.1917 11.674C99.1197 11.578 98.9637 11.53 98.7237 11.53C98.2437 11.53 97.8657 11.632 97.5897 11.836C97.3137 12.028 97.1757 12.388 97.1757 12.916ZM105.7 19.162C104.668 18.826 103.924 18.538 103.468 18.298C103.012 18.046 102.784 17.866 102.784 17.758C102.784 17.626 102.802 17.398 102.838 17.074C102.886 16.75 102.91 16.246 102.91 15.562V13.33C102.91 13.09 102.922 12.808 102.946 12.484C102.97 12.148 103.006 11.866 103.054 11.638H102.388L101.452 10.396L101.578 10.108H103.27C103.33 10.108 103.444 10.198 103.612 10.378C103.792 10.558 103.966 10.762 104.134 10.99C104.362 10.642 104.656 10.402 105.016 10.27C105.388 10.126 105.724 10.066 106.024 10.09L106.924 11.278L106.816 11.548C106.18 11.548 105.664 11.752 105.268 12.16C104.884 12.556 104.692 13.24 104.692 14.212V15.814C104.692 16.414 104.674 16.882 104.638 17.218C104.614 17.542 104.602 17.758 104.602 17.866C104.602 17.938 104.626 18.004 104.674 18.064C104.722 18.112 104.836 18.172 105.016 18.244C105.208 18.316 105.508 18.436 105.916 18.604L105.7 19.162ZM109.239 8.902L108.051 7.624V7.444C108.375 7.012 108.813 6.634 109.365 6.31L110.553 7.552L110.535 7.768C110.295 7.936 110.067 8.122 109.851 8.326C109.647 8.53 109.443 8.722 109.239 8.902ZM110.841 19.036C110.073 18.748 109.479 18.49 109.059 18.262C108.651 18.022 108.447 17.806 108.447 17.614C108.447 17.446 108.465 17.188 108.501 16.84C108.549 16.48 108.573 16.132 108.573 15.796V13.222C108.573 12.91 108.585 12.622 108.609 12.358C108.645 12.082 108.699 11.842 108.771 11.638H108.177L107.223 10.414L107.349 10.108H109.653L110.697 11.512C110.553 11.704 110.457 11.944 110.409 12.232C110.373 12.52 110.355 12.886 110.355 13.33V15.994C110.355 16.426 110.337 16.81 110.301 17.146C110.265 17.47 110.247 17.716 110.247 17.884C110.247 18.004 110.289 18.1 110.373 18.172C110.469 18.232 110.697 18.358 111.057 18.55L110.841 19.036ZM115.058 19.054C114.338 18.802 113.756 18.55 113.312 18.298C112.868 18.046 112.646 17.824 112.646 17.632C112.646 17.464 112.67 17.218 112.718 16.894C112.766 16.57 112.79 16.24 112.79 15.904V13.618C112.79 13.162 112.802 12.784 112.826 12.484C112.85 12.172 112.898 11.89 112.97 11.638H112.16L111.134 10.414L111.26 10.108H113.366C113.15 9.892 112.952 9.61 112.772 9.262C112.604 8.902 112.52 8.512 112.52 8.092C112.52 7.528 112.712 7.066 113.096 6.706C113.48 6.346 114.08 6.166 114.896 6.166C115.1 6.166 115.298 6.19 115.49 6.238C115.682 6.274 115.856 6.322 116.012 6.382L117.02 7.48C117.368 7.12 117.77 6.832 118.226 6.616L119.306 7.822L119.288 8.038C119.048 8.206 118.802 8.386 118.55 8.578C118.31 8.77 118.088 8.956 117.884 9.136C117.56 8.752 117.188 8.464 116.768 8.272C116.348 8.068 115.934 7.966 115.526 7.966C114.53 7.966 114.032 8.344 114.032 9.1C114.032 9.532 114.164 9.868 114.428 10.108H118.28L119.324 11.512C119.18 11.704 119.084 11.944 119.036 12.232C119 12.52 118.982 12.886 118.982 13.33V15.958C118.982 16.39 118.964 16.774 118.928 17.11C118.892 17.434 118.874 17.68 118.874 17.848C118.874 17.968 118.916 18.064 119 18.136C119.096 18.196 119.324 18.322 119.684 18.514L119.468 19C118.7 18.712 118.106 18.454 117.686 18.226C117.278 17.986 117.074 17.77 117.074 17.578C117.074 17.41 117.092 17.152 117.128 16.804C117.176 16.444 117.2 16.096 117.2 15.76V13.222C117.2 12.91 117.212 12.622 117.236 12.358C117.272 12.082 117.326 11.842 117.398 11.638H114.77C114.686 11.866 114.632 12.16 114.608 12.52C114.584 12.868 114.572 13.294 114.572 13.798V16.102C114.572 16.534 114.554 16.9 114.518 17.2C114.482 17.5 114.464 17.734 114.464 17.902C114.464 18.022 114.512 18.124 114.608 18.208C114.704 18.28 114.938 18.4 115.31 18.568L115.058 19.054ZM125.417 16.21L126.929 17.182C126.689 17.746 126.341 18.178 125.885 18.478C125.441 18.778 124.937 18.928 124.373 18.928C124.013 18.928 123.629 18.85 123.221 18.694C122.813 18.526 122.429 18.316 122.069 18.064C121.709 17.812 121.409 17.548 121.169 17.272C120.941 16.996 120.827 16.738 120.827 16.498C120.827 16.342 120.827 16.102 120.827 15.778C120.839 15.454 120.845 15.118 120.845 14.77C120.857 14.41 120.863 14.11 120.863 13.87V12.394C120.863 11.602 121.103 11.002 121.583 10.594C122.063 10.174 122.705 9.964 123.509 9.964C123.761 9.964 124.055 10.042 124.391 10.198C124.727 10.342 125.057 10.54 125.381 10.792C125.705 11.032 125.975 11.302 126.191 11.602C126.407 11.89 126.515 12.178 126.515 12.466C126.515 12.778 126.503 13.054 126.479 13.294C126.455 13.522 126.425 13.732 126.389 13.924L124.535 13.564C124.631 12.988 124.679 12.484 124.679 12.052C124.679 11.848 124.637 11.71 124.553 11.638C124.481 11.566 124.361 11.53 124.193 11.53C123.161 11.53 122.645 12.046 122.645 13.078V14.518C122.645 15.286 122.633 15.85 122.609 16.21C122.597 16.558 122.591 16.834 122.591 17.038C122.591 17.17 122.651 17.272 122.771 17.344C122.891 17.416 123.041 17.452 123.221 17.452C123.665 17.452 124.043 17.362 124.355 17.182C124.667 16.99 124.949 16.684 125.201 16.264L125.417 16.21ZM134.214 18.91C133.926 18.814 133.662 18.718 133.422 18.622C133.182 18.514 132.954 18.4 132.738 18.28C132.57 18.448 132.366 18.586 132.126 18.694C131.898 18.79 131.634 18.838 131.334 18.838C131.13 18.838 130.83 18.772 130.434 18.64C130.05 18.508 129.654 18.34 129.246 18.136C128.838 17.92 128.49 17.686 128.202 17.434C127.926 17.17 127.788 16.912 127.788 16.66C127.788 16.348 127.788 16.072 127.788 15.832C127.8 15.58 127.806 15.43 127.806 15.382C127.806 14.674 127.986 14.176 128.346 13.888C128.718 13.588 129.234 13.438 129.894 13.438C130.23 13.438 130.59 13.462 130.974 13.51C131.358 13.558 131.67 13.612 131.91 13.672C131.922 13.336 131.928 13.018 131.928 12.718C131.94 12.406 131.946 12.172 131.946 12.016C131.946 11.884 131.91 11.788 131.838 11.728C131.766 11.668 131.634 11.638 131.442 11.638C130.974 11.638 130.578 11.674 130.254 11.746C129.93 11.818 129.624 11.938 129.336 12.106H128.994L127.824 10.396L127.968 10.108H130.974C131.214 10.108 131.484 10.204 131.784 10.396C132.096 10.576 132.402 10.804 132.702 11.08C133.002 11.356 133.248 11.638 133.44 11.926C133.632 12.214 133.728 12.466 133.728 12.682C133.728 13.078 133.716 13.546 133.692 14.086C133.668 14.626 133.644 15.178 133.62 15.742C133.596 16.294 133.584 16.798 133.584 17.254C133.584 17.614 133.644 17.866 133.764 18.01C133.884 18.142 134.112 18.274 134.448 18.406L134.214 18.91ZM129.57 16.66C129.57 16.96 129.624 17.152 129.732 17.236C129.84 17.308 129.972 17.344 130.128 17.344C130.62 17.344 131.028 17.218 131.352 16.966C131.688 16.702 131.856 16.294 131.856 15.742C131.856 15.634 131.856 15.502 131.856 15.346C131.868 15.19 131.874 15.016 131.874 14.824C131.742 14.788 131.58 14.764 131.388 14.752C131.196 14.74 131.022 14.734 130.866 14.734C130.434 14.734 130.11 14.83 129.894 15.022C129.678 15.214 129.57 15.55 129.57 16.03V16.66ZM138.427 18.856C138.247 18.856 138.001 18.79 137.689 18.658C137.377 18.514 137.059 18.334 136.735 18.118C136.411 17.89 136.135 17.656 135.907 17.416C135.679 17.164 135.565 16.924 135.565 16.696C135.565 16.564 135.571 16.426 135.583 16.282C135.595 16.138 135.613 15.952 135.637 15.724C135.661 15.484 135.679 15.166 135.691 14.77C135.703 14.374 135.709 13.858 135.709 13.222C135.709 12.982 135.709 12.73 135.709 12.466C135.709 12.202 135.703 11.926 135.691 11.638H135.367L134.449 10.432L134.575 10.144C135.211 10.072 135.613 9.88 135.781 9.568C135.949 9.256 136.033 8.782 136.033 8.146L136.339 8.038L137.437 8.866C137.437 9.082 137.437 9.292 137.437 9.496C137.437 9.7 137.437 9.904 137.437 10.108H138.967L139.867 11.368L139.741 11.638H137.455C137.455 12.07 137.455 12.484 137.455 12.88C137.455 13.276 137.455 13.654 137.455 14.014C137.455 14.71 137.443 15.244 137.419 15.616C137.407 15.988 137.389 16.264 137.365 16.444C137.341 16.624 137.329 16.792 137.329 16.948C137.329 17.188 137.455 17.308 137.707 17.308C137.923 17.308 138.157 17.254 138.409 17.146C138.661 17.026 138.895 16.882 139.111 16.714H139.363L140.209 18.118C140.041 18.322 139.777 18.496 139.417 18.64C139.057 18.784 138.727 18.856 138.427 18.856ZM142.145 8.902L140.957 7.624V7.444C141.281 7.012 141.719 6.634 142.271 6.31L143.459 7.552L143.441 7.768C143.201 7.936 142.973 8.122 142.757 8.326C142.553 8.53 142.349 8.722 142.145 8.902ZM143.747 19.036C142.979 18.748 142.385 18.49 141.965 18.262C141.557 18.022 141.353 17.806 141.353 17.614C141.353 17.446 141.371 17.188 141.407 16.84C141.455 16.48 141.479 16.132 141.479 15.796V13.222C141.479 12.91 141.491 12.622 141.515 12.358C141.551 12.082 141.605 11.842 141.677 11.638H141.083L140.129 10.414L140.255 10.108H142.559L143.603 11.512C143.459 11.704 143.363 11.944 143.315 12.232C143.279 12.52 143.261 12.886 143.261 13.33V15.994C143.261 16.426 143.243 16.81 143.207 17.146C143.171 17.47 143.153 17.716 143.153 17.884C143.153 18.004 143.195 18.1 143.279 18.172C143.375 18.232 143.603 18.358 143.963 18.55L143.747 19.036ZM148.702 18.91C148.414 18.91 148.066 18.838 147.658 18.694C147.25 18.55 146.854 18.358 146.47 18.118C146.086 17.878 145.762 17.602 145.498 17.29C145.246 16.978 145.12 16.66 145.12 16.336C145.12 16.192 145.138 15.772 145.174 15.076C145.222 14.38 145.246 13.51 145.246 12.466C145.246 11.626 145.492 11.008 145.984 10.612C146.476 10.216 147.214 10.018 148.198 10.018C148.486 10.018 148.804 10.108 149.152 10.288C149.512 10.468 149.854 10.702 150.178 10.99C150.502 11.278 150.766 11.584 150.97 11.908C151.186 12.22 151.294 12.514 151.294 12.79C151.294 13.246 151.282 13.738 151.258 14.266C151.246 14.794 151.24 15.472 151.24 16.3C151.24 17.068 151.03 17.698 150.61 18.19C150.19 18.67 149.554 18.91 148.702 18.91ZM147.55 17.38C148.21 17.38 148.69 17.242 148.99 16.966C149.302 16.69 149.458 16.282 149.458 15.742C149.458 15.358 149.464 14.926 149.476 14.446C149.488 13.954 149.5 13.504 149.512 13.096C149.524 12.676 149.53 12.382 149.53 12.214C149.53 12.01 149.494 11.86 149.422 11.764C149.35 11.656 149.206 11.602 148.99 11.602C148.342 11.602 147.844 11.716 147.496 11.944C147.16 12.16 146.992 12.574 146.992 13.186C146.992 14.338 146.98 15.208 146.956 15.796C146.932 16.372 146.92 16.762 146.92 16.966C146.92 17.242 147.13 17.38 147.55 17.38ZM155.38 19C154.612 18.712 154.018 18.454 153.598 18.226C153.19 17.986 152.986 17.77 152.986 17.578C152.986 17.41 153.004 17.152 153.04 16.804C153.088 16.444 153.112 16.096 153.112 15.76V13.456C153.112 13.216 153.118 12.916 153.13 12.556C153.154 12.196 153.196 11.89 153.256 11.638H152.59L151.654 10.396L151.78 10.108H153.472C153.52 10.108 153.622 10.192 153.778 10.36C153.946 10.516 154.114 10.696 154.282 10.9C154.51 10.588 154.792 10.36 155.128 10.216C155.476 10.06 155.812 9.982 156.136 9.982H156.514C156.754 9.982 157.018 10.078 157.306 10.27C157.606 10.462 157.894 10.696 158.17 10.972C158.458 11.248 158.692 11.524 158.872 11.8C159.052 12.064 159.142 12.28 159.142 12.448C159.142 12.748 159.13 13.12 159.106 13.564C159.082 14.008 159.07 14.368 159.07 14.644V15.958C159.07 16.39 159.052 16.774 159.016 17.11C158.98 17.434 158.962 17.68 158.962 17.848C158.962 17.968 159.004 18.064 159.088 18.136C159.184 18.196 159.412 18.322 159.772 18.514L159.556 19C158.788 18.712 158.194 18.454 157.774 18.226C157.366 17.986 157.162 17.77 157.162 17.578C157.162 17.41 157.18 17.152 157.216 16.804C157.264 16.444 157.288 16.096 157.288 15.76V14.824C157.288 14.44 157.3 14.002 157.324 13.51C157.348 13.018 157.36 12.586 157.36 12.214C157.36 11.974 157.33 11.812 157.27 11.728C157.21 11.644 157.078 11.602 156.874 11.602C156.202 11.602 155.704 11.776 155.38 12.124C155.056 12.46 154.894 12.928 154.894 13.528V15.958C154.894 16.39 154.876 16.774 154.84 17.11C154.804 17.434 154.786 17.68 154.786 17.848C154.786 17.968 154.828 18.064 154.912 18.136C155.008 18.196 155.236 18.322 155.596 18.514L155.38 19ZM165.677 19C164.909 18.712 164.315 18.454 163.895 18.226C163.487 17.986 163.283 17.77 163.283 17.578C163.283 17.41 163.301 17.152 163.337 16.804C163.385 16.444 163.409 16.096 163.409 15.76V10.936C163.409 10.216 163.433 9.556 163.481 8.956C163.541 8.344 163.613 7.858 163.697 7.498H162.923L161.933 6.328L162.059 6.04H164.399L165.461 7.408C165.377 7.852 165.311 8.35 165.263 8.902C165.215 9.442 165.191 10.006 165.191 10.594C165.383 10.402 165.617 10.252 165.893 10.144C166.181 10.036 166.481 9.982 166.793 9.982C167.057 9.982 167.339 10.078 167.639 10.27C167.939 10.462 168.221 10.696 168.485 10.972C168.761 11.248 168.983 11.524 169.151 11.8C169.331 12.064 169.421 12.28 169.421 12.448C169.421 12.748 169.409 13.12 169.385 13.564C169.361 14.008 169.349 14.368 169.349 14.644V15.958C169.349 16.39 169.331 16.774 169.295 17.11C169.259 17.434 169.241 17.68 169.241 17.848C169.241 17.968 169.283 18.064 169.367 18.136C169.463 18.196 169.691 18.322 170.051 18.514L169.835 19C169.067 18.712 168.473 18.454 168.053 18.226C167.645 17.986 167.441 17.77 167.441 17.578C167.441 17.41 167.459 17.152 167.495 16.804C167.543 16.444 167.567 16.096 167.567 15.76V14.824C167.567 14.44 167.579 14.002 167.603 13.51C167.627 13.018 167.639 12.586 167.639 12.214C167.639 11.974 167.609 11.812 167.549 11.728C167.489 11.644 167.357 11.602 167.153 11.602C166.481 11.602 165.983 11.776 165.659 12.124C165.347 12.46 165.191 12.928 165.191 13.528V15.958C165.191 16.39 165.173 16.774 165.137 17.11C165.101 17.434 165.083 17.68 165.083 17.848C165.083 17.968 165.125 18.064 165.209 18.136C165.305 18.196 165.533 18.322 165.893 18.514L165.677 19ZM174.775 18.874C174.487 18.874 174.133 18.802 173.713 18.658C173.293 18.502 172.873 18.304 172.453 18.064C172.045 17.812 171.703 17.542 171.427 17.254C171.151 16.954 171.013 16.66 171.013 16.372C171.013 16.084 171.031 15.586 171.067 14.878C171.115 14.17 171.139 13.324 171.139 12.34C171.139 10.78 171.991 10 173.695 10C173.959 10 174.265 10.084 174.613 10.252C174.961 10.408 175.297 10.618 175.621 10.882C175.945 11.134 176.215 11.398 176.431 11.674C176.647 11.95 176.755 12.208 176.755 12.448V13.924C176.755 14.896 176.215 15.382 175.135 15.382C174.799 15.382 174.415 15.364 173.983 15.328C173.551 15.28 173.167 15.226 172.831 15.166C172.819 15.562 172.807 15.922 172.795 16.246C172.795 16.558 172.795 16.738 172.795 16.786C172.795 16.978 172.843 17.116 172.939 17.2C173.035 17.284 173.209 17.326 173.461 17.326C173.833 17.326 174.235 17.272 174.667 17.164C175.111 17.044 175.507 16.87 175.855 16.642H176.125L177.097 18.118C176.869 18.334 176.527 18.514 176.071 18.658C175.627 18.802 175.195 18.874 174.775 18.874ZM172.885 12.916C172.885 13.012 172.879 13.156 172.867 13.348C172.867 13.54 172.867 13.756 172.867 13.996C173.215 14.032 173.617 14.05 174.073 14.05C174.421 14.05 174.661 13.966 174.793 13.798C174.937 13.618 175.009 13.348 175.009 12.988V12.016C175.009 11.884 174.973 11.77 174.901 11.674C174.829 11.578 174.673 11.53 174.433 11.53C173.953 11.53 173.575 11.632 173.299 11.836C173.023 12.028 172.885 12.388 172.885 12.916ZM180.707 19.036C179.939 18.748 179.345 18.49 178.925 18.262C178.517 18.022 178.313 17.806 178.313 17.614C178.313 17.446 178.331 17.188 178.367 16.84C178.415 16.48 178.439 16.132 178.439 15.796V10.954C178.439 10.234 178.463 9.574 178.511 8.974C178.571 8.362 178.643 7.87 178.727 7.498H177.953L176.963 6.328L177.089 6.04H179.429L180.491 7.408C180.407 7.876 180.341 8.41 180.293 9.01C180.245 9.598 180.221 10.198 180.221 10.81V15.994C180.221 16.426 180.203 16.81 180.167 17.146C180.131 17.47 180.113 17.716 180.113 17.884C180.113 18.004 180.155 18.1 180.239 18.172C180.335 18.232 180.563 18.358 180.923 18.55L180.707 19.036ZM186.265 18.838C185.869 18.838 185.497 18.784 185.149 18.676C184.813 18.568 184.519 18.442 184.267 18.298V19.702C184.267 20.134 184.249 20.512 184.213 20.836C184.177 21.172 184.159 21.424 184.159 21.592C184.159 21.712 184.201 21.802 184.285 21.862C184.381 21.934 184.609 22.066 184.969 22.258L184.753 22.744C183.985 22.456 183.391 22.192 182.971 21.952C182.563 21.724 182.359 21.514 182.359 21.322C182.359 21.154 182.377 20.89 182.413 20.53C182.461 20.182 182.485 19.84 182.485 19.504V13.492C182.485 13.264 182.491 12.964 182.503 12.592C182.527 12.22 182.569 11.902 182.629 11.638H181.963L181.027 10.396L181.153 10.108H182.845C182.893 10.108 182.995 10.192 183.151 10.36C183.307 10.516 183.469 10.696 183.637 10.9C183.817 10.624 184.075 10.402 184.411 10.234C184.759 10.066 185.131 9.982 185.527 9.982H185.869C186.133 9.982 186.421 10.09 186.733 10.306C187.045 10.51 187.339 10.768 187.615 11.08C187.891 11.38 188.119 11.68 188.299 11.98C188.479 12.28 188.569 12.526 188.569 12.718C188.569 13.054 188.563 13.528 188.551 14.14C188.539 14.74 188.533 15.454 188.533 16.282C188.533 17.062 188.329 17.686 187.921 18.154C187.513 18.61 186.961 18.838 186.265 18.838ZM186.301 11.656C185.701 11.656 185.221 11.746 184.861 11.926C184.501 12.094 184.303 12.442 184.267 12.97C184.267 13.102 184.267 13.216 184.267 13.312V17.272C184.483 17.32 184.711 17.344 184.951 17.344C185.599 17.344 186.061 17.194 186.337 16.894C186.613 16.594 186.751 16.174 186.751 15.634C186.751 15.25 186.757 14.848 186.769 14.428C186.781 14.008 186.787 13.612 186.787 13.24C186.799 12.868 186.805 12.562 186.805 12.322C186.805 12.154 186.781 12.004 186.733 11.872C186.685 11.728 186.541 11.656 186.301 11.656ZM192.951 18.946C192.039 18.946 191.325 18.652 190.809 18.064C190.293 17.464 189.933 16.654 189.729 15.634L190.305 15.472C190.533 16.048 190.791 16.456 191.079 16.696C191.379 16.936 191.781 17.056 192.285 17.056C192.861 17.056 193.347 16.894 193.743 16.57C194.151 16.246 194.355 15.85 194.355 15.382C194.355 15.118 194.259 14.986 194.067 14.986C193.911 14.986 193.683 15.022 193.383 15.094C193.095 15.166 192.807 15.244 192.519 15.328C192.231 15.4 192.015 15.436 191.871 15.436C191.655 15.436 191.433 15.334 191.205 15.13C190.989 14.926 190.785 14.668 190.593 14.356C190.401 14.032 190.245 13.696 190.125 13.348C190.005 13 189.945 12.676 189.945 12.376C189.945 11.668 190.167 11.074 190.611 10.594C191.067 10.114 191.715 9.874 192.555 9.874C193.275 9.874 193.863 10.066 194.319 10.45C194.775 10.834 195.123 11.422 195.363 12.214L194.733 12.43C194.409 11.914 193.917 11.656 193.257 11.656C192.681 11.656 192.195 11.806 191.799 12.106C191.403 12.406 191.205 12.784 191.205 13.24C191.205 13.48 191.319 13.6 191.547 13.6C191.727 13.6 191.961 13.564 192.249 13.492C192.537 13.408 192.825 13.33 193.113 13.258C193.401 13.186 193.635 13.15 193.815 13.15C194.091 13.15 194.361 13.306 194.625 13.618C194.889 13.93 195.105 14.326 195.273 14.806C195.441 15.286 195.525 15.778 195.525 16.282C195.525 17.086 195.303 17.734 194.859 18.226C194.415 18.706 193.779 18.946 192.951 18.946ZM205.979 18.946C205.703 18.838 205.451 18.724 205.223 18.604C204.995 18.484 204.779 18.352 204.575 18.208C204.323 18.412 204.023 18.58 203.675 18.712C203.327 18.844 203.003 18.91 202.703 18.91C202.487 18.91 202.193 18.838 201.821 18.694C201.449 18.55 201.071 18.358 200.687 18.118C200.303 17.878 199.979 17.62 199.715 17.344C199.451 17.056 199.319 16.78 199.319 16.516C199.319 16.336 199.331 16.048 199.355 15.652C199.391 15.244 199.409 14.782 199.409 14.266V13.222C199.409 12.91 199.421 12.622 199.445 12.358C199.481 12.082 199.535 11.842 199.607 11.638H199.013L198.059 10.414L198.185 10.108H200.489L201.533 11.512C201.389 11.704 201.293 11.944 201.245 12.232C201.209 12.52 201.191 12.886 201.191 13.33V14.392C201.191 15.184 201.179 15.76 201.155 16.12C201.143 16.48 201.137 16.732 201.137 16.876C201.137 17.212 201.341 17.38 201.749 17.38C202.049 17.38 202.337 17.326 202.613 17.218C202.901 17.098 203.135 16.93 203.315 16.714C203.507 16.486 203.603 16.216 203.603 15.904V13.222C203.603 12.91 203.615 12.622 203.639 12.358C203.675 12.082 203.729 11.842 203.801 11.638H203.207L202.253 10.414L202.379 10.108H204.683L205.727 11.512C205.583 11.704 205.487 11.944 205.439 12.232C205.403 12.52 205.385 12.886 205.385 13.33V15.256C205.385 15.916 205.373 16.414 205.349 16.75C205.325 17.086 205.313 17.332 205.313 17.488C205.313 17.68 205.379 17.854 205.511 18.01C205.655 18.154 205.889 18.31 206.213 18.478L205.979 18.946ZM210.142 18.946C209.23 18.946 208.516 18.652 208 18.064C207.484 17.464 207.124 16.654 206.92 15.634L207.496 15.472C207.724 16.048 207.982 16.456 208.27 16.696C208.57 16.936 208.972 17.056 209.476 17.056C210.052 17.056 210.538 16.894 210.934 16.57C211.342 16.246 211.546 15.85 211.546 15.382C211.546 15.118 211.45 14.986 211.258 14.986C211.102 14.986 210.874 15.022 210.574 15.094C210.286 15.166 209.998 15.244 209.71 15.328C209.422 15.4 209.206 15.436 209.062 15.436C208.846 15.436 208.624 15.334 208.396 15.13C208.18 14.926 207.976 14.668 207.784 14.356C207.592 14.032 207.436 13.696 207.316 13.348C207.196 13 207.136 12.676 207.136 12.376C207.136 11.668 207.358 11.074 207.802 10.594C208.258 10.114 208.906 9.874 209.746 9.874C210.466 9.874 211.054 10.066 211.51 10.45C211.966 10.834 212.314 11.422 212.554 12.214L211.924 12.43C211.6 11.914 211.108 11.656 210.448 11.656C209.872 11.656 209.386 11.806 208.99 12.106C208.594 12.406 208.396 12.784 208.396 13.24C208.396 13.48 208.51 13.6 208.738 13.6C208.918 13.6 209.152 13.564 209.44 13.492C209.728 13.408 210.016 13.33 210.304 13.258C210.592 13.186 210.826 13.15 211.006 13.15C211.282 13.15 211.552 13.306 211.816 13.618C212.08 13.93 212.296 14.326 212.464 14.806C212.632 15.286 212.716 15.778 212.716 16.282C212.716 17.086 212.494 17.734 212.05 18.226C211.606 18.706 210.97 18.946 210.142 18.946ZM222.955 18.964C222.679 18.88 222.433 18.79 222.217 18.694C222.013 18.598 221.785 18.478 221.533 18.334C221.293 18.538 221.047 18.688 220.795 18.784C220.555 18.868 220.249 18.91 219.877 18.91C219.589 18.91 219.241 18.838 218.833 18.694C218.437 18.55 218.041 18.358 217.645 18.118C217.261 17.878 216.937 17.602 216.673 17.29C216.421 16.978 216.295 16.66 216.295 16.336C216.295 16.204 216.313 15.826 216.349 15.202C216.385 14.566 216.403 13.648 216.403 12.448C216.403 11.596 216.637 10.984 217.105 10.612C217.573 10.24 218.227 10.054 219.067 10.054C219.319 10.054 219.583 10.102 219.859 10.198C220.147 10.294 220.405 10.408 220.633 10.54C220.645 9.904 220.675 9.322 220.723 8.794C220.771 8.266 220.837 7.834 220.921 7.498H220.147L219.157 6.328L219.283 6.04H221.623L222.685 7.408C222.601 7.876 222.535 8.41 222.487 9.01C222.439 9.598 222.415 10.198 222.415 10.81V13.528C222.415 14.116 222.403 14.722 222.379 15.346C222.355 15.958 222.349 16.612 222.361 17.308C222.373 17.668 222.433 17.914 222.541 18.046C222.649 18.178 222.877 18.316 223.225 18.46L222.955 18.964ZM218.095 16.822C218.095 17.026 218.143 17.17 218.239 17.254C218.347 17.338 218.509 17.38 218.725 17.38C219.373 17.38 219.853 17.23 220.165 16.93C220.477 16.63 220.633 16.21 220.633 15.67V11.71C220.405 11.662 220.159 11.638 219.895 11.638C219.391 11.638 218.977 11.746 218.653 11.962C218.341 12.178 218.179 12.586 218.167 13.186L218.095 16.822ZM225.571 8.902L224.383 7.624V7.444C224.707 7.012 225.145 6.634 225.697 6.31L226.885 7.552L226.867 7.768C226.627 7.936 226.399 8.122 226.183 8.326C225.979 8.53 225.775 8.722 225.571 8.902ZM227.173 19.036C226.405 18.748 225.811 18.49 225.391 18.262C224.983 18.022 224.779 17.806 224.779 17.614C224.779 17.446 224.797 17.188 224.833 16.84C224.881 16.48 224.905 16.132 224.905 15.796V13.222C224.905 12.91 224.917 12.622 224.941 12.358C224.977 12.082 225.031 11.842 225.103 11.638H224.509L223.555 10.414L223.681 10.108H225.985L227.029 11.512C226.885 11.704 226.789 11.944 226.741 12.232C226.705 12.52 226.687 12.886 226.687 13.33V15.994C226.687 16.426 226.669 16.81 226.633 17.146C226.597 17.47 226.579 17.716 226.579 17.884C226.579 18.004 226.621 18.1 226.705 18.172C226.801 18.232 227.029 18.358 227.389 18.55L227.173 19.036ZM231.57 18.946C230.658 18.946 229.944 18.652 229.428 18.064C228.912 17.464 228.552 16.654 228.348 15.634L228.924 15.472C229.152 16.048 229.41 16.456 229.698 16.696C229.998 16.936 230.4 17.056 230.904 17.056C231.48 17.056 231.966 16.894 232.362 16.57C232.77 16.246 232.974 15.85 232.974 15.382C232.974 15.118 232.878 14.986 232.686 14.986C232.53 14.986 232.302 15.022 232.002 15.094C231.714 15.166 231.426 15.244 231.138 15.328C230.85 15.4 230.634 15.436 230.49 15.436C230.274 15.436 230.052 15.334 229.824 15.13C229.608 14.926 229.404 14.668 229.212 14.356C229.02 14.032 228.864 13.696 228.744 13.348C228.624 13 228.564 12.676 228.564 12.376C228.564 11.668 228.786 11.074 229.23 10.594C229.686 10.114 230.334 9.874 231.174 9.874C231.894 9.874 232.482 10.066 232.938 10.45C233.394 10.834 233.742 11.422 233.982 12.214L233.352 12.43C233.028 11.914 232.536 11.656 231.876 11.656C231.3 11.656 230.814 11.806 230.418 12.106C230.022 12.406 229.824 12.784 229.824 13.24C229.824 13.48 229.938 13.6 230.166 13.6C230.346 13.6 230.58 13.564 230.868 13.492C231.156 13.408 231.444 13.33 231.732 13.258C232.02 13.186 232.254 13.15 232.434 13.15C232.71 13.15 232.98 13.306 233.244 13.618C233.508 13.93 233.724 14.326 233.892 14.806C234.06 15.286 234.144 15.778 234.144 16.282C234.144 17.086 233.922 17.734 233.478 18.226C233.034 18.706 232.398 18.946 231.57 18.946ZM239.615 18.838C239.219 18.838 238.847 18.784 238.499 18.676C238.163 18.568 237.869 18.442 237.617 18.298V19.702C237.617 20.134 237.599 20.512 237.563 20.836C237.527 21.172 237.509 21.424 237.509 21.592C237.509 21.712 237.551 21.802 237.635 21.862C237.731 21.934 237.959 22.066 238.319 22.258L238.103 22.744C237.335 22.456 236.741 22.192 236.321 21.952C235.913 21.724 235.709 21.514 235.709 21.322C235.709 21.154 235.727 20.89 235.763 20.53C235.811 20.182 235.835 19.84 235.835 19.504V13.492C235.835 13.264 235.841 12.964 235.853 12.592C235.877 12.22 235.919 11.902 235.979 11.638H235.313L234.377 10.396L234.503 10.108H236.195C236.243 10.108 236.345 10.192 236.501 10.36C236.657 10.516 236.819 10.696 236.987 10.9C237.167 10.624 237.425 10.402 237.761 10.234C238.109 10.066 238.481 9.982 238.877 9.982H239.219C239.483 9.982 239.771 10.09 240.083 10.306C240.395 10.51 240.689 10.768 240.965 11.08C241.241 11.38 241.469 11.68 241.649 11.98C241.829 12.28 241.919 12.526 241.919 12.718C241.919 13.054 241.913 13.528 241.901 14.14C241.889 14.74 241.883 15.454 241.883 16.282C241.883 17.062 241.679 17.686 241.271 18.154C240.863 18.61 240.311 18.838 239.615 18.838ZM239.651 11.656C239.051 11.656 238.571 11.746 238.211 11.926C237.851 12.094 237.653 12.442 237.617 12.97C237.617 13.102 237.617 13.216 237.617 13.312V17.272C237.833 17.32 238.061 17.344 238.301 17.344C238.949 17.344 239.411 17.194 239.687 16.894C239.963 16.594 240.101 16.174 240.101 15.634C240.101 15.25 240.107 14.848 240.119 14.428C240.131 14.008 240.137 13.612 240.137 13.24C240.149 12.868 240.155 12.562 240.155 12.322C240.155 12.154 240.131 12.004 240.083 11.872C240.035 11.728 239.891 11.656 239.651 11.656ZM249.684 18.91C249.396 18.814 249.132 18.718 248.892 18.622C248.652 18.514 248.424 18.4 248.208 18.28C248.04 18.448 247.836 18.586 247.596 18.694C247.368 18.79 247.104 18.838 246.804 18.838C246.6 18.838 246.3 18.772 245.904 18.64C245.52 18.508 245.124 18.34 244.716 18.136C244.308 17.92 243.96 17.686 243.672 17.434C243.396 17.17 243.258 16.912 243.258 16.66C243.258 16.348 243.258 16.072 243.258 15.832C243.27 15.58 243.276 15.43 243.276 15.382C243.276 14.674 243.456 14.176 243.816 13.888C244.188 13.588 244.704 13.438 245.364 13.438C245.7 13.438 246.06 13.462 246.444 13.51C246.828 13.558 247.14 13.612 247.38 13.672C247.392 13.336 247.398 13.018 247.398 12.718C247.41 12.406 247.416 12.172 247.416 12.016C247.416 11.884 247.38 11.788 247.308 11.728C247.236 11.668 247.104 11.638 246.912 11.638C246.444 11.638 246.048 11.674 245.724 11.746C245.4 11.818 245.094 11.938 244.806 12.106H244.464L243.294 10.396L243.438 10.108H246.444C246.684 10.108 246.954 10.204 247.254 10.396C247.566 10.576 247.872 10.804 248.172 11.08C248.472 11.356 248.718 11.638 248.91 11.926C249.102 12.214 249.198 12.466 249.198 12.682C249.198 13.078 249.186 13.546 249.162 14.086C249.138 14.626 249.114 15.178 249.09 15.742C249.066 16.294 249.054 16.798 249.054 17.254C249.054 17.614 249.114 17.866 249.234 18.01C249.354 18.142 249.582 18.274 249.918 18.406L249.684 18.91ZM245.04 16.66C245.04 16.96 245.094 17.152 245.202 17.236C245.31 17.308 245.442 17.344 245.598 17.344C246.09 17.344 246.498 17.218 246.822 16.966C247.158 16.702 247.326 16.294 247.326 15.742C247.326 15.634 247.326 15.502 247.326 15.346C247.338 15.19 247.344 15.016 247.344 14.824C247.212 14.788 247.05 14.764 246.858 14.752C246.666 14.74 246.492 14.734 246.336 14.734C245.904 14.734 245.58 14.83 245.364 15.022C245.148 15.214 245.04 15.55 245.04 16.03V16.66ZM253.898 18.856C253.718 18.856 253.472 18.79 253.16 18.658C252.848 18.514 252.53 18.334 252.206 18.118C251.882 17.89 251.606 17.656 251.378 17.416C251.15 17.164 251.036 16.924 251.036 16.696C251.036 16.564 251.042 16.426 251.054 16.282C251.066 16.138 251.084 15.952 251.108 15.724C251.132 15.484 251.15 15.166 251.162 14.77C251.174 14.374 251.18 13.858 251.18 13.222C251.18 12.982 251.18 12.73 251.18 12.466C251.18 12.202 251.174 11.926 251.162 11.638H250.838L249.92 10.432L250.046 10.144C250.682 10.072 251.084 9.88 251.252 9.568C251.42 9.256 251.504 8.782 251.504 8.146L251.81 8.038L252.908 8.866C252.908 9.082 252.908 9.292 252.908 9.496C252.908 9.7 252.908 9.904 252.908 10.108H254.438L255.338 11.368L255.212 11.638H252.926C252.926 12.07 252.926 12.484 252.926 12.88C252.926 13.276 252.926 13.654 252.926 14.014C252.926 14.71 252.914 15.244 252.89 15.616C252.878 15.988 252.86 16.264 252.836 16.444C252.812 16.624 252.8 16.792 252.8 16.948C252.8 17.188 252.926 17.308 253.178 17.308C253.394 17.308 253.628 17.254 253.88 17.146C254.132 17.026 254.366 16.882 254.582 16.714H254.834L255.68 18.118C255.512 18.322 255.248 18.496 254.888 18.64C254.528 18.784 254.198 18.856 253.898 18.856ZM260.874 16.21L262.386 17.182C262.146 17.746 261.798 18.178 261.342 18.478C260.898 18.778 260.394 18.928 259.83 18.928C259.47 18.928 259.086 18.85 258.678 18.694C258.27 18.526 257.886 18.316 257.526 18.064C257.166 17.812 256.866 17.548 256.626 17.272C256.398 16.996 256.284 16.738 256.284 16.498C256.284 16.342 256.284 16.102 256.284 15.778C256.296 15.454 256.302 15.118 256.302 14.77C256.314 14.41 256.32 14.11 256.32 13.87V12.394C256.32 11.602 256.56 11.002 257.04 10.594C257.52 10.174 258.162 9.964 258.966 9.964C259.218 9.964 259.512 10.042 259.848 10.198C260.184 10.342 260.514 10.54 260.838 10.792C261.162 11.032 261.432 11.302 261.648 11.602C261.864 11.89 261.972 12.178 261.972 12.466C261.972 12.778 261.96 13.054 261.936 13.294C261.912 13.522 261.882 13.732 261.846 13.924L259.992 13.564C260.088 12.988 260.136 12.484 260.136 12.052C260.136 11.848 260.094 11.71 260.01 11.638C259.938 11.566 259.818 11.53 259.65 11.53C258.618 11.53 258.102 12.046 258.102 13.078V14.518C258.102 15.286 258.09 15.85 258.066 16.21C258.054 16.558 258.048 16.834 258.048 17.038C258.048 17.17 258.108 17.272 258.228 17.344C258.348 17.416 258.498 17.452 258.678 17.452C259.122 17.452 259.5 17.362 259.812 17.182C260.124 16.99 260.406 16.684 260.658 16.264L260.874 16.21ZM265.873 19C265.105 18.712 264.511 18.454 264.091 18.226C263.683 17.986 263.479 17.77 263.479 17.578C263.479 17.41 263.497 17.152 263.533 16.804C263.581 16.444 263.605 16.096 263.605 15.76V10.936C263.605 10.216 263.629 9.556 263.677 8.956C263.737 8.344 263.809 7.858 263.893 7.498H263.119L262.129 6.328L262.255 6.04H264.595L265.657 7.408C265.573 7.852 265.507 8.35 265.459 8.902C265.411 9.442 265.387 10.006 265.387 10.594C265.579 10.402 265.813 10.252 266.089 10.144C266.377 10.036 266.677 9.982 266.989 9.982C267.253 9.982 267.535 10.078 267.835 10.27C268.135 10.462 268.417 10.696 268.681 10.972C268.957 11.248 269.179 11.524 269.347 11.8C269.527 12.064 269.617 12.28 269.617 12.448C269.617 12.748 269.605 13.12 269.581 13.564C269.557 14.008 269.545 14.368 269.545 14.644V15.958C269.545 16.39 269.527 16.774 269.491 17.11C269.455 17.434 269.437 17.68 269.437 17.848C269.437 17.968 269.479 18.064 269.563 18.136C269.659 18.196 269.887 18.322 270.247 18.514L270.031 19C269.263 18.712 268.669 18.454 268.249 18.226C267.841 17.986 267.637 17.77 267.637 17.578C267.637 17.41 267.655 17.152 267.691 16.804C267.739 16.444 267.763 16.096 267.763 15.76V14.824C267.763 14.44 267.775 14.002 267.799 13.51C267.823 13.018 267.835 12.586 267.835 12.214C267.835 11.974 267.805 11.812 267.745 11.728C267.685 11.644 267.553 11.602 267.349 11.602C266.677 11.602 266.179 11.776 265.855 12.124C265.543 12.46 265.387 12.928 265.387 13.528V15.958C265.387 16.39 265.369 16.774 265.333 17.11C265.297 17.434 265.279 17.68 265.279 17.848C265.279 17.968 265.321 18.064 265.405 18.136C265.501 18.196 265.729 18.322 266.089 18.514L265.873 19ZM276.156 19C275.388 18.712 274.794 18.454 274.374 18.226C273.966 17.986 273.762 17.77 273.762 17.578C273.762 17.41 273.78 17.152 273.816 16.804C273.864 16.444 273.888 16.096 273.888 15.76V10.936C273.888 10.216 273.912 9.556 273.96 8.956C274.02 8.344 274.092 7.858 274.176 7.498H273.402L272.412 6.328L272.538 6.04H274.878L275.94 7.408C275.856 7.852 275.79 8.35 275.742 8.902C275.694 9.442 275.67 10.006 275.67 10.594C275.862 10.402 276.096 10.252 276.372 10.144C276.66 10.036 276.96 9.982 277.272 9.982C277.536 9.982 277.818 10.078 278.118 10.27C278.418 10.462 278.7 10.696 278.964 10.972C279.24 11.248 279.462 11.524 279.63 11.8C279.81 12.064 279.9 12.28 279.9 12.448C279.9 12.748 279.888 13.12 279.864 13.564C279.84 14.008 279.828 14.368 279.828 14.644V15.958C279.828 16.39 279.81 16.774 279.774 17.11C279.738 17.434 279.72 17.68 279.72 17.848C279.72 17.968 279.762 18.064 279.846 18.136C279.942 18.196 280.17 18.322 280.53 18.514L280.314 19C279.546 18.712 278.952 18.454 278.532 18.226C278.124 17.986 277.92 17.77 277.92 17.578C277.92 17.41 277.938 17.152 277.974 16.804C278.022 16.444 278.046 16.096 278.046 15.76V14.824C278.046 14.44 278.058 14.002 278.082 13.51C278.106 13.018 278.118 12.586 278.118 12.214C278.118 11.974 278.088 11.812 278.028 11.728C277.968 11.644 277.836 11.602 277.632 11.602C276.96 11.602 276.462 11.776 276.138 12.124C275.826 12.46 275.67 12.928 275.67 13.528V15.958C275.67 16.39 275.652 16.774 275.616 17.11C275.58 17.434 275.562 17.68 275.562 17.848C275.562 17.968 275.604 18.064 275.688 18.136C275.784 18.196 276.012 18.322 276.372 18.514L276.156 19ZM285.253 18.874C284.965 18.874 284.611 18.802 284.191 18.658C283.771 18.502 283.351 18.304 282.931 18.064C282.523 17.812 282.181 17.542 281.905 17.254C281.629 16.954 281.491 16.66 281.491 16.372C281.491 16.084 281.509 15.586 281.545 14.878C281.593 14.17 281.617 13.324 281.617 12.34C281.617 10.78 282.469 10 284.173 10C284.437 10 284.743 10.084 285.091 10.252C285.439 10.408 285.775 10.618 286.099 10.882C286.423 11.134 286.693 11.398 286.909 11.674C287.125 11.95 287.233 12.208 287.233 12.448V13.924C287.233 14.896 286.693 15.382 285.613 15.382C285.277 15.382 284.893 15.364 284.461 15.328C284.029 15.28 283.645 15.226 283.309 15.166C283.297 15.562 283.285 15.922 283.273 16.246C283.273 16.558 283.273 16.738 283.273 16.786C283.273 16.978 283.321 17.116 283.417 17.2C283.513 17.284 283.687 17.326 283.939 17.326C284.311 17.326 284.713 17.272 285.145 17.164C285.589 17.044 285.985 16.87 286.333 16.642H286.603L287.575 18.118C287.347 18.334 287.005 18.514 286.549 18.658C286.105 18.802 285.673 18.874 285.253 18.874ZM283.363 12.916C283.363 13.012 283.357 13.156 283.345 13.348C283.345 13.54 283.345 13.756 283.345 13.996C283.693 14.032 284.095 14.05 284.551 14.05C284.899 14.05 285.139 13.966 285.271 13.798C285.415 13.618 285.487 13.348 285.487 12.988V12.016C285.487 11.884 285.451 11.77 285.379 11.674C285.307 11.578 285.151 11.53 284.911 11.53C284.431 11.53 284.053 11.632 283.777 11.836C283.501 12.028 283.363 12.388 283.363 12.916ZM291.185 19.036C290.417 18.748 289.823 18.49 289.403 18.262C288.995 18.022 288.791 17.806 288.791 17.614C288.791 17.446 288.809 17.188 288.845 16.84C288.893 16.48 288.917 16.132 288.917 15.796V10.954C288.917 10.234 288.941 9.574 288.989 8.974C289.049 8.362 289.121 7.87 289.205 7.498H288.431L287.441 6.328L287.567 6.04H289.907L290.969 7.408C290.885 7.876 290.819 8.41 290.771 9.01C290.723 9.598 290.699 10.198 290.699 10.81V15.994C290.699 16.426 290.681 16.81 290.645 17.146C290.609 17.47 290.591 17.716 290.591 17.884C290.591 18.004 290.633 18.1 290.717 18.172C290.813 18.232 291.041 18.358 291.401 18.55L291.185 19.036ZM296.744 18.838C296.348 18.838 295.976 18.784 295.628 18.676C295.292 18.568 294.998 18.442 294.746 18.298V19.702C294.746 20.134 294.728 20.512 294.692 20.836C294.656 21.172 294.638 21.424 294.638 21.592C294.638 21.712 294.68 21.802 294.764 21.862C294.86 21.934 295.088 22.066 295.448 22.258L295.232 22.744C294.464 22.456 293.87 22.192 293.45 21.952C293.042 21.724 292.838 21.514 292.838 21.322C292.838 21.154 292.856 20.89 292.892 20.53C292.94 20.182 292.964 19.84 292.964 19.504V13.492C292.964 13.264 292.97 12.964 292.982 12.592C293.006 12.22 293.048 11.902 293.108 11.638H292.442L291.506 10.396L291.632 10.108H293.324C293.372 10.108 293.474 10.192 293.63 10.36C293.786 10.516 293.948 10.696 294.116 10.9C294.296 10.624 294.554 10.402 294.89 10.234C295.238 10.066 295.61 9.982 296.006 9.982H296.348C296.612 9.982 296.9 10.09 297.212 10.306C297.524 10.51 297.818 10.768 298.094 11.08C298.37 11.38 298.598 11.68 298.778 11.98C298.958 12.28 299.048 12.526 299.048 12.718C299.048 13.054 299.042 13.528 299.03 14.14C299.018 14.74 299.012 15.454 299.012 16.282C299.012 17.062 298.808 17.686 298.4 18.154C297.992 18.61 297.44 18.838 296.744 18.838ZM296.78 11.656C296.18 11.656 295.7 11.746 295.34 11.926C294.98 12.094 294.782 12.442 294.746 12.97C294.746 13.102 294.746 13.216 294.746 13.312V17.272C294.962 17.32 295.19 17.344 295.43 17.344C296.078 17.344 296.54 17.194 296.816 16.894C297.092 16.594 297.23 16.174 297.23 15.634C297.23 15.25 297.236 14.848 297.248 14.428C297.26 14.008 297.266 13.612 297.266 13.24C297.278 12.868 297.284 12.562 297.284 12.322C297.284 12.154 297.26 12.004 297.212 11.872C297.164 11.728 297.02 11.656 296.78 11.656ZM305.767 18.946C304.855 18.946 304.141 18.652 303.625 18.064C303.109 17.464 302.749 16.654 302.545 15.634L303.121 15.472C303.349 16.048 303.607 16.456 303.895 16.696C304.195 16.936 304.597 17.056 305.101 17.056C305.677 17.056 306.163 16.894 306.559 16.57C306.967 16.246 307.171 15.85 307.171 15.382C307.171 15.118 307.075 14.986 306.883 14.986C306.727 14.986 306.499 15.022 306.199 15.094C305.911 15.166 305.623 15.244 305.335 15.328C305.047 15.4 304.831 15.436 304.687 15.436C304.471 15.436 304.249 15.334 304.021 15.13C303.805 14.926 303.601 14.668 303.409 14.356C303.217 14.032 303.061 13.696 302.941 13.348C302.821 13 302.761 12.676 302.761 12.376C302.761 11.668 302.983 11.074 303.427 10.594C303.883 10.114 304.531 9.874 305.371 9.874C306.091 9.874 306.679 10.066 307.135 10.45C307.591 10.834 307.939 11.422 308.179 12.214L307.549 12.43C307.225 11.914 306.733 11.656 306.073 11.656C305.497 11.656 305.011 11.806 304.615 12.106C304.219 12.406 304.021 12.784 304.021 13.24C304.021 13.48 304.135 13.6 304.363 13.6C304.543 13.6 304.777 13.564 305.065 13.492C305.353 13.408 305.641 13.33 305.929 13.258C306.217 13.186 306.451 13.15 306.631 13.15C306.907 13.15 307.177 13.306 307.441 13.618C307.705 13.93 307.921 14.326 308.089 14.806C308.257 15.286 308.341 15.778 308.341 16.282C308.341 17.086 308.119 17.734 307.675 18.226C307.231 18.706 306.595 18.946 305.767 18.946ZM315.954 18.91C315.666 18.814 315.402 18.718 315.162 18.622C314.922 18.514 314.694 18.4 314.478 18.28C314.31 18.448 314.106 18.586 313.866 18.694C313.638 18.79 313.374 18.838 313.074 18.838C312.87 18.838 312.57 18.772 312.174 18.64C311.79 18.508 311.394 18.34 310.986 18.136C310.578 17.92 310.23 17.686 309.942 17.434C309.666 17.17 309.528 16.912 309.528 16.66C309.528 16.348 309.528 16.072 309.528 15.832C309.54 15.58 309.546 15.43 309.546 15.382C309.546 14.674 309.726 14.176 310.086 13.888C310.458 13.588 310.974 13.438 311.634 13.438C311.97 13.438 312.33 13.462 312.714 13.51C313.098 13.558 313.41 13.612 313.65 13.672C313.662 13.336 313.668 13.018 313.668 12.718C313.68 12.406 313.686 12.172 313.686 12.016C313.686 11.884 313.65 11.788 313.578 11.728C313.506 11.668 313.374 11.638 313.182 11.638C312.714 11.638 312.318 11.674 311.994 11.746C311.67 11.818 311.364 11.938 311.076 12.106H310.734L309.564 10.396L309.708 10.108H312.714C312.954 10.108 313.224 10.204 313.524 10.396C313.836 10.576 314.142 10.804 314.442 11.08C314.742 11.356 314.988 11.638 315.18 11.926C315.372 12.214 315.468 12.466 315.468 12.682C315.468 13.078 315.456 13.546 315.432 14.086C315.408 14.626 315.384 15.178 315.36 15.742C315.336 16.294 315.324 16.798 315.324 17.254C315.324 17.614 315.384 17.866 315.504 18.01C315.624 18.142 315.852 18.274 316.188 18.406L315.954 18.91ZM311.31 16.66C311.31 16.96 311.364 17.152 311.472 17.236C311.58 17.308 311.712 17.344 311.868 17.344C312.36 17.344 312.768 17.218 313.092 16.966C313.428 16.702 313.596 16.294 313.596 15.742C313.596 15.634 313.596 15.502 313.596 15.346C313.608 15.19 313.614 15.016 313.614 14.824C313.482 14.788 313.32 14.764 313.128 14.752C312.936 14.74 312.762 14.734 312.606 14.734C312.174 14.734 311.85 14.83 311.634 15.022C311.418 15.214 311.31 15.55 311.31 16.03V16.66ZM319.825 19.054C319.105 18.802 318.523 18.55 318.079 18.298C317.635 18.046 317.413 17.824 317.413 17.632C317.413 17.464 317.437 17.218 317.485 16.894C317.533 16.57 317.557 16.24 317.557 15.904V13.618C317.557 13.162 317.569 12.784 317.593 12.484C317.617 12.172 317.665 11.89 317.737 11.638H316.927L315.901 10.414L316.027 10.108H318.079C317.899 9.904 317.725 9.646 317.557 9.334C317.401 9.01 317.323 8.65 317.323 8.254C317.323 7.666 317.515 7.18 317.899 6.796C318.283 6.412 318.883 6.22 319.699 6.22C320.143 6.22 320.527 6.292 320.851 6.436L321.697 7.876L321.499 8.11C321.379 8.074 321.217 8.044 321.013 8.02C320.821 7.984 320.581 7.966 320.293 7.966C319.825 7.966 319.459 8.056 319.195 8.236C318.931 8.416 318.799 8.698 318.799 9.082C318.799 9.49 318.931 9.832 319.195 10.108H320.815L321.769 11.368L321.607 11.638H319.537C319.453 11.866 319.399 12.16 319.375 12.52C319.351 12.868 319.339 13.294 319.339 13.798V16.102C319.339 16.534 319.321 16.9 319.285 17.2C319.249 17.5 319.231 17.734 319.231 17.902C319.231 18.022 319.279 18.124 319.375 18.208C319.471 18.28 319.705 18.4 320.077 18.568L319.825 19.054ZM325.753 18.874C325.465 18.874 325.111 18.802 324.691 18.658C324.271 18.502 323.851 18.304 323.431 18.064C323.023 17.812 322.681 17.542 322.405 17.254C322.129 16.954 321.991 16.66 321.991 16.372C321.991 16.084 322.009 15.586 322.045 14.878C322.093 14.17 322.117 13.324 322.117 12.34C322.117 10.78 322.969 10 324.673 10C324.937 10 325.243 10.084 325.591 10.252C325.939 10.408 326.275 10.618 326.599 10.882C326.923 11.134 327.193 11.398 327.409 11.674C327.625 11.95 327.733 12.208 327.733 12.448V13.924C327.733 14.896 327.193 15.382 326.113 15.382C325.777 15.382 325.393 15.364 324.961 15.328C324.529 15.28 324.145 15.226 323.809 15.166C323.797 15.562 323.785 15.922 323.773 16.246C323.773 16.558 323.773 16.738 323.773 16.786C323.773 16.978 323.821 17.116 323.917 17.2C324.013 17.284 324.187 17.326 324.439 17.326C324.811 17.326 325.213 17.272 325.645 17.164C326.089 17.044 326.485 16.87 326.833 16.642H327.103L328.075 18.118C327.847 18.334 327.505 18.514 327.049 18.658C326.605 18.802 326.173 18.874 325.753 18.874ZM323.863 12.916C323.863 13.012 323.857 13.156 323.845 13.348C323.845 13.54 323.845 13.756 323.845 13.996C324.193 14.032 324.595 14.05 325.051 14.05C325.399 14.05 325.639 13.966 325.771 13.798C325.915 13.618 325.987 13.348 325.987 12.988V12.016C325.987 11.884 325.951 11.77 325.879 11.674C325.807 11.578 325.651 11.53 325.411 11.53C324.931 11.53 324.553 11.632 324.277 11.836C324.001 12.028 323.863 12.388 323.863 12.916ZM331.685 19.036C330.917 18.748 330.323 18.49 329.903 18.262C329.495 18.022 329.291 17.806 329.291 17.614C329.291 17.446 329.309 17.188 329.345 16.84C329.393 16.48 329.417 16.132 329.417 15.796V10.954C329.417 10.234 329.441 9.574 329.489 8.974C329.549 8.362 329.621 7.87 329.705 7.498H328.931L327.941 6.328L328.067 6.04H330.407L331.469 7.408C331.385 7.876 331.319 8.41 331.271 9.01C331.223 9.598 331.199 10.198 331.199 10.81V15.994C331.199 16.426 331.181 16.81 331.145 17.146C331.109 17.47 331.091 17.716 331.091 17.884C331.091 18.004 331.133 18.1 331.217 18.172C331.313 18.232 331.541 18.358 331.901 18.55L331.685 19.036ZM334.467 16.984C334.059 15.712 333.741 14.668 333.513 13.852C333.285 13.024 333.171 12.454 333.171 12.142C333.171 11.926 333.189 11.758 333.225 11.638H332.793L331.929 10.396L332.073 10.108H334.377L335.205 11.314L335.115 11.548C334.743 11.62 334.557 11.902 334.557 12.394C334.557 12.682 334.653 13.21 334.845 13.978C335.049 14.734 335.385 15.748 335.853 17.02C336.213 15.976 336.555 14.992 336.879 14.068C337.215 13.132 337.503 12.322 337.743 11.638H336.753L335.943 10.396L336.087 10.108H338.517L339.507 11.602C338.727 13.858 338.061 15.79 337.509 17.398C336.957 19.006 336.513 20.236 336.177 21.088C335.853 21.952 335.619 22.384 335.475 22.384C335.331 22.384 335.097 22.312 334.773 22.168C334.461 22.036 334.137 21.88 333.801 21.7C333.477 21.52 333.225 21.37 333.045 21.25L333.315 20.764C333.435 20.836 333.561 20.902 333.693 20.962C333.825 21.034 333.951 21.07 334.071 21.07C334.167 21.07 334.269 20.992 334.377 20.836C334.485 20.692 334.617 20.422 334.773 20.026C334.941 19.642 335.151 19.09 335.403 18.37C335.427 18.31 335.445 18.25 335.457 18.19C335.241 18.022 335.037 17.83 334.845 17.614C334.665 17.398 334.539 17.188 334.467 16.984Z" fill="white"/>
</svg>
