<svg width="412" height="91" viewBox="0 0 412 91" fill="none" xmlns="http://www.w3.org/2000/svg">
<path d="M345.5 12.075C345.5 15.9425 349.815 20.02 353.375 22.725C355.372 24.24 356.37 25 358 25C359.63 25 360.628 24.24 362.625 22.725C366.185 20.0175 370.5 15.94 370.5 12.075C370.5 5.10002 363.625 2.49252 358 7.88252C352.375 2.49252 345.5 5.10002 345.5 12.075ZM343.65 53.47H343C340.642 53.47 339.465 53.47 338.733 52.7375C338 52.01 338 50.83 338 48.4725V45.6925C338 44.3975 338 43.75 338.332 43.17C338.665 42.59 339.167 42.3 340.172 41.715C346.787 37.8675 356.18 35.7025 362.448 39.44C362.869 39.6917 363.244 39.9984 363.573 40.36C363.909 40.7277 364.168 41.1591 364.335 41.6287C364.501 42.0984 364.572 42.5967 364.543 43.0941C364.513 43.5916 364.385 44.0781 364.164 44.5248C363.943 44.9716 363.635 45.3695 363.257 45.695C362.957 45.9804 362.59 46.1866 362.19 46.295C362.49 46.26 362.777 46.2209 363.052 46.1775C365.33 45.815 367.242 44.595 368.992 43.2725L373.512 39.86C374.319 39.2746 375.291 38.9593 376.288 38.9593C377.284 38.9593 378.256 39.2746 379.062 39.86C380.495 40.9425 380.935 42.725 380.028 44.18C378.97 45.875 377.48 48.0425 376.05 49.3675C374.62 50.6925 372.485 51.8775 370.745 52.7175C368.815 53.65 366.685 54.185 364.518 54.5375C360.123 55.2475 355.543 55.1375 351.193 54.2425C348.711 53.7317 346.184 53.4712 343.65 53.47Z" fill="black"/>
<path d="M201 4.99999C203.265 4.99999 205.458 5.30499 207.543 5.86999C206.233 8.52742 205.74 11.513 206.126 14.4503C206.511 17.3876 207.757 20.145 209.708 22.3749C211.658 24.6047 214.225 26.207 217.085 26.9799C219.945 27.7527 222.969 27.6614 225.778 26.7175C225.923 27.7925 225.997 28.8867 226 30C226 43.8075 214.808 55 201 55C196.893 55.0058 192.849 53.9958 189.228 52.06L176 55L178.94 41.7725C177.004 38.1508 175.994 34.1066 176 30C176 16.1925 187.193 4.99999 201 4.99999ZM219.825 3.29999C219.92 3.06594 220.082 2.86549 220.291 2.72435C220.501 2.58322 220.748 2.50781 221 2.50781C221.253 2.50781 221.499 2.58322 221.709 2.72435C221.918 2.86549 222.08 3.06594 222.175 3.29999L222.81 4.82499C223.871 7.41268 225.884 9.49482 228.435 10.6425L230.228 11.4425C230.457 11.5487 230.651 11.7183 230.788 11.9314C230.924 12.1445 230.996 12.3921 230.996 12.645C230.996 12.8979 230.924 13.1455 230.788 13.3586C230.651 13.5716 230.457 13.7413 230.228 13.8475L228.333 14.6925C225.844 15.8073 223.864 17.8143 222.783 20.3175L222.168 21.7325C222.071 21.9629 221.909 22.1597 221.702 22.2982C221.494 22.4366 221.25 22.5105 221 22.5105C220.75 22.5105 220.506 22.4366 220.299 22.2982C220.091 22.1597 219.929 21.9629 219.833 21.7325L219.215 20.32C218.135 17.8163 216.155 15.8084 213.668 14.6925L211.768 13.8475C211.537 13.7416 211.342 13.5719 211.206 13.3586C211.069 13.1452 210.996 12.8971 210.996 12.6437C210.996 12.3903 211.069 12.1423 211.206 11.9289C211.342 11.7156 211.537 11.5459 211.768 11.44L213.563 10.64C216.113 9.49403 218.127 7.41375 219.19 4.82749L219.825 3.29999Z" fill="black"/>
<g clip-path="url(#clip0_90_102)">
<path d="M74.6458 32.7711C76.4167 32.7711 77.9792 31.3219 77.9792 29.4482C78.0833 28.5166 77.6667 27.6885 76.8333 26.9639L50.2396 3.72461C49.6146 3.20703 48.7813 3 48.0521 3C47.3229 3 46.4896 3.10352 45.7604 3.82812L19.0417 26.9639C18.3125 27.6885 18 28.5166 18 29.4482C18 31.3115 19.4583 32.7711 21.3333 32.7711H24.6667V49.375C24.6667 53.0291 27.6563 56 31.3333 56H64.7083C68.4063 56 71.3958 53.0188 71.375 49.3439L71.3021 32.7607H74.6354L74.6458 32.7711ZM44.6667 24.5312C44.6667 23.6203 45.4167 22.875 46.3333 22.875H49.6667C50.5833 22.875 51.3333 23.6203 51.3333 24.5312V29.5H56.3333C57.25 29.5 58 30.2453 58 31.1562V34.4688C58 35.3797 57.25 36.125 56.3333 36.125H51.3333V41.0938C51.3333 42.0047 50.5833 42.75 49.6667 42.75H46.3333C45.4167 42.75 44.6667 42.0047 44.6667 41.0938V36.125H39.6667C38.75 36.125 38 35.3797 38 34.4688V31.1562C38 30.2453 38.75 29.5 39.6667 29.5H44.6667V24.5312Z" fill="black"/>
</g>
<path d="M21.1159 80V64.7273H23.4202V71.3643H31.0342V64.7273H33.346V80H31.0342V73.3406H23.4202V80H21.1159ZM41.3478 80.2312C40.2739 80.2312 39.3368 79.9851 38.5364 79.4929C37.7359 79.0007 37.1145 78.3121 36.672 77.4272C36.2295 76.5423 36.0083 75.5082 36.0083 74.3249C36.0083 73.1367 36.2295 72.0977 36.672 71.2077C37.1145 70.3178 37.7359 69.6268 38.5364 69.1346C39.3368 68.6424 40.2739 68.3963 41.3478 68.3963C42.4217 68.3963 43.3588 68.6424 44.1592 69.1346C44.9597 69.6268 45.5811 70.3178 46.0236 71.2077C46.466 72.0977 46.6873 73.1367 46.6873 74.3249C46.6873 75.5082 46.466 76.5423 46.0236 77.4272C45.5811 78.3121 44.9597 79.0007 44.1592 79.4929C43.3588 79.9851 42.4217 80.2312 41.3478 80.2312ZM41.3552 78.3594C42.0513 78.3594 42.628 78.1754 43.0854 77.8075C43.5427 77.4396 43.8808 76.9499 44.0996 76.3384C44.3233 75.7269 44.4351 75.0533 44.4351 74.3175C44.4351 73.5866 44.3233 72.9155 44.0996 72.304C43.8808 71.6875 43.5427 71.1928 43.0854 70.82C42.628 70.4471 42.0513 70.2607 41.3552 70.2607C40.6543 70.2607 40.0726 70.4471 39.6102 70.82C39.1528 71.1928 38.8123 71.6875 38.5886 72.304C38.3698 72.9155 38.2604 73.5866 38.2604 74.3175C38.2604 75.0533 38.3698 75.7269 38.5886 76.3384C38.8123 76.9499 39.1528 77.4396 39.6102 77.8075C40.0726 78.1754 40.6543 78.3594 41.3552 78.3594ZM49.1762 80V68.5455H51.3165V70.4098H51.4581C51.6968 69.7784 52.087 69.2862 52.629 68.9332C53.1709 68.5753 53.8196 68.3963 54.5753 68.3963C55.341 68.3963 55.9823 68.5753 56.4993 68.9332C57.0214 69.2912 57.4066 69.7834 57.6552 70.4098H57.7745C58.048 69.7983 58.483 69.3111 59.0796 68.9482C59.6762 68.5803 60.3871 68.3963 61.2124 68.3963C62.2515 68.3963 63.0991 68.7219 63.7554 69.3732C64.4166 70.0245 64.7472 71.0064 64.7472 72.3189V80H62.5174V72.5277C62.5174 71.7521 62.3062 71.1903 61.8836 70.8423C61.461 70.4943 60.9564 70.3203 60.3697 70.3203C59.6439 70.3203 59.0796 70.544 58.6769 70.9915C58.2742 71.4339 58.0728 72.0032 58.0728 72.6992V80H55.8505V72.386C55.8505 71.7646 55.6566 71.2649 55.2689 70.8871C54.8811 70.5092 54.3765 70.3203 53.755 70.3203C53.3324 70.3203 52.9422 70.4322 52.5842 70.6559C52.2312 70.8746 51.9454 71.1804 51.7266 71.5732C51.5128 71.9659 51.4059 72.4208 51.4059 72.9379V80H49.1762ZM72.6725 80.2312C71.544 80.2312 70.572 79.9901 69.7567 79.5078C68.9463 79.0206 68.3199 78.337 67.8774 77.457C67.4399 76.5721 67.2212 75.5355 67.2212 74.3473C67.2212 73.174 67.4399 72.1399 67.8774 71.245C68.3199 70.3501 68.9364 69.6516 69.7269 69.1495C70.5223 68.6474 71.452 68.3963 72.5159 68.3963C73.1622 68.3963 73.7887 68.5032 74.3952 68.717C75.0017 68.9308 75.5461 69.2663 76.0284 69.7237C76.5106 70.1811 76.8909 70.7752 77.1693 71.506C77.4478 72.2319 77.587 73.1143 77.587 74.1534V74.9439H68.4815V73.2734H75.4019C75.4019 72.6868 75.2826 72.1673 75.044 71.7148C74.8054 71.2575 74.4698 70.897 74.0372 70.6335C73.6097 70.37 73.1076 70.2383 72.5309 70.2383C71.9044 70.2383 71.3576 70.3924 70.8902 70.7006C70.4279 71.0039 70.0699 71.4016 69.8164 71.8938C69.5678 72.381 69.4435 72.9105 69.4435 73.4822V74.7873C69.4435 75.5529 69.5777 76.2042 69.8462 76.7411C70.1196 77.2781 70.5 77.6882 70.9872 77.9716C71.4744 78.25 72.0436 78.3892 72.6949 78.3892C73.1175 78.3892 73.5028 78.3295 73.8508 78.2102C74.1988 78.0859 74.4996 77.902 74.7532 77.6584C75.0067 77.4148 75.2006 77.114 75.3348 76.756L77.4453 77.1364C77.2762 77.7578 76.973 78.3022 76.5355 78.7695C76.1029 79.2319 75.5585 79.5923 74.9023 79.8509C74.251 80.1044 73.5078 80.2312 72.6725 80.2312Z" fill="white"/>
<path d="M167.956 80H165.51L171.006 64.7273H173.669L179.165 80H176.719L172.401 67.5014H172.282L167.956 80ZM168.366 74.0192H176.301V75.9581H168.366V74.0192ZM183.675 64.7273V80H181.37V64.7273H183.675ZM192.588 80V64.7273H194.892V71.3643H202.506V64.7273H204.818V80H202.506V73.3406H194.892V80H192.588ZM212.932 80.2312C211.803 80.2312 210.831 79.9901 210.016 79.5078C209.206 79.0206 208.579 78.337 208.137 77.457C207.699 76.5721 207.48 75.5355 207.48 74.3473C207.48 73.174 207.699 72.1399 208.137 71.245C208.579 70.3501 209.196 69.6516 209.986 69.1495C210.782 68.6474 211.711 68.3963 212.775 68.3963C213.422 68.3963 214.048 68.5032 214.654 68.717C215.261 68.9308 215.805 69.2663 216.288 69.7237C216.77 70.1811 217.15 70.7752 217.429 71.506C217.707 72.2319 217.846 73.1143 217.846 74.1534V74.9439H208.741V73.2734H215.661C215.661 72.6868 215.542 72.1673 215.303 71.7148C215.065 71.2575 214.729 70.897 214.297 70.6335C213.869 70.37 213.367 70.2383 212.79 70.2383C212.164 70.2383 211.617 70.3924 211.15 70.7006C210.687 71.0039 210.329 71.4016 210.076 71.8938C209.827 72.381 209.703 72.9105 209.703 73.4822V74.7873C209.703 75.5529 209.837 76.2042 210.105 76.7411C210.379 77.2781 210.759 77.6882 211.246 77.9716C211.734 78.25 212.303 78.3892 212.954 78.3892C213.377 78.3892 213.762 78.3295 214.11 78.2102C214.458 78.0859 214.759 77.902 215.012 77.6584C215.266 77.4148 215.46 77.114 215.594 76.756L217.705 77.1364C217.536 77.7578 217.232 78.3022 216.795 78.7695C216.362 79.2319 215.818 79.5923 215.162 79.8509C214.51 80.1044 213.767 80.2312 212.932 80.2312ZM222.55 64.7273V80H220.32V64.7273H222.55ZM225.55 84.2955V68.5455H227.727V70.4023H227.914C228.043 70.1637 228.229 69.8878 228.473 69.5746C228.717 69.2614 229.055 68.9879 229.487 68.7543C229.92 68.5156 230.491 68.3963 231.202 68.3963C232.127 68.3963 232.952 68.63 233.678 69.0973C234.404 69.5646 234.973 70.2383 235.386 71.1183C235.804 71.9982 236.012 73.0572 236.012 74.2951C236.012 75.533 235.806 76.5945 235.393 77.4794C234.981 78.3594 234.414 79.038 233.693 79.5153C232.972 79.9876 232.15 80.2237 231.225 80.2237C230.529 80.2237 229.96 80.1069 229.517 79.8732C229.08 79.6396 228.737 79.3661 228.488 79.0529C228.239 78.7397 228.048 78.4613 227.914 78.2177H227.779V84.2955H225.55ZM227.735 74.2727C227.735 75.0781 227.852 75.7841 228.085 76.3906C228.319 76.9972 228.657 77.4719 229.099 77.815C229.542 78.1531 230.084 78.3221 230.725 78.3221C231.391 78.3221 231.948 78.1456 232.396 77.7926C232.843 77.4347 233.181 76.9499 233.41 76.3384C233.643 75.7269 233.76 75.0384 233.76 74.2727C233.76 73.517 233.646 72.8384 233.417 72.2369C233.194 71.6353 232.855 71.1605 232.403 70.8125C231.956 70.4645 231.396 70.2905 230.725 70.2905C230.079 70.2905 229.532 70.457 229.085 70.7901C228.642 71.1232 228.306 71.5881 228.078 72.1847C227.849 72.7812 227.735 73.4773 227.735 74.2727Z" fill="white"/>
<path d="M279.111 80V64.7273H281.415V71.3643H289.029V64.7273H291.341V80H289.029V73.3406H281.415V80H279.111ZM299.454 80.2312C298.326 80.2312 297.354 79.9901 296.538 79.5078C295.728 79.0206 295.102 78.337 294.659 77.457C294.222 76.5721 294.003 75.5355 294.003 74.3473C294.003 73.174 294.222 72.1399 294.659 71.245C295.102 70.3501 295.718 69.6516 296.509 69.1495C297.304 68.6474 298.234 68.3963 299.298 68.3963C299.944 68.3963 300.57 68.5032 301.177 68.717C301.783 68.9308 302.328 69.2663 302.81 69.7237C303.292 70.1811 303.673 70.7752 303.951 71.506C304.229 72.2319 304.369 73.1143 304.369 74.1534V74.9439H295.263V73.2734H302.184C302.184 72.6868 302.064 72.1673 301.826 71.7148C301.587 71.2575 301.252 70.897 300.819 70.6335C300.391 70.37 299.889 70.2383 299.313 70.2383C298.686 70.2383 298.139 70.3924 297.672 70.7006C297.21 71.0039 296.852 71.4016 296.598 71.8938C296.35 72.381 296.225 72.9105 296.225 73.4822V74.7873C296.225 75.5529 296.359 76.2042 296.628 76.7411C296.901 77.2781 297.282 77.6882 297.769 77.9716C298.256 78.25 298.825 78.3892 299.477 78.3892C299.899 78.3892 300.285 78.3295 300.633 78.2102C300.981 78.0859 301.281 77.902 301.535 77.6584C301.788 77.4148 301.982 77.114 302.117 76.756L304.227 77.1364C304.058 77.7578 303.755 78.3022 303.317 78.7695C302.885 79.2319 302.34 79.5923 301.684 79.8509C301.033 80.1044 300.29 80.2312 299.454 80.2312ZM309.072 64.7273V80H306.843V64.7273H309.072ZM312.072 84.2955V68.5455H314.25V70.4023H314.436C314.565 70.1637 314.752 69.8878 314.995 69.5746C315.239 69.2614 315.577 68.9879 316.01 68.7543C316.442 68.5156 317.014 68.3963 317.725 68.3963C318.65 68.3963 319.475 68.63 320.201 69.0973C320.927 69.5646 321.496 70.2383 321.908 71.1183C322.326 71.9982 322.535 73.0572 322.535 74.2951C322.535 75.533 322.329 76.5945 321.916 77.4794C321.503 78.3594 320.937 79.038 320.216 79.5153C319.495 79.9876 318.672 80.2237 317.747 80.2237C317.051 80.2237 316.482 80.1069 316.04 79.8732C315.602 79.6396 315.259 79.3661 315.01 79.0529C314.762 78.7397 314.57 78.4613 314.436 78.2177H314.302V84.2955H312.072ZM314.257 74.2727C314.257 75.0781 314.374 75.7841 314.608 76.3906C314.841 76.9972 315.179 77.4719 315.622 77.815C316.064 78.1531 316.606 78.3221 317.248 78.3221C317.914 78.3221 318.471 78.1456 318.918 77.7926C319.366 77.4347 319.704 76.9499 319.932 76.3384C320.166 75.7269 320.283 75.0384 320.283 74.2727C320.283 73.517 320.168 72.8384 319.94 72.2369C319.716 71.6353 319.378 71.1605 318.926 70.8125C318.478 70.4645 317.919 70.2905 317.248 70.2905C316.601 70.2905 316.054 70.457 315.607 70.7901C315.165 71.1232 314.829 71.5881 314.6 72.1847C314.372 72.7812 314.257 73.4773 314.257 74.2727ZM344.036 72.3636C344.036 73.9943 343.738 75.3963 343.142 76.5696C342.545 77.7379 341.727 78.6378 340.688 79.2692C339.654 79.8956 338.478 80.2088 337.161 80.2088C335.838 80.2088 334.657 79.8956 333.618 79.2692C332.584 78.6378 331.769 77.7354 331.172 76.5621C330.576 75.3888 330.278 73.9893 330.278 72.3636C330.278 70.733 330.576 69.3335 331.172 68.1651C331.769 66.9918 332.584 66.092 333.618 65.4656C334.657 64.8342 335.838 64.5185 337.161 64.5185C338.478 64.5185 339.654 64.8342 340.688 65.4656C341.727 66.092 342.545 66.9918 343.142 68.1651C343.738 69.3335 344.036 70.733 344.036 72.3636ZM341.754 72.3636C341.754 71.1207 341.553 70.0742 341.15 69.2241C340.753 68.369 340.206 67.7227 339.51 67.2852C338.819 66.8427 338.036 66.6214 337.161 66.6214C336.281 66.6214 335.495 66.8427 334.804 67.2852C334.113 67.7227 333.566 68.369 333.164 69.2241C332.766 70.0742 332.567 71.1207 332.567 72.3636C332.567 73.6065 332.766 74.6555 333.164 75.5107C333.566 76.3608 334.113 77.0071 334.804 77.4496C335.495 77.8871 336.281 78.1058 337.161 78.1058C338.036 78.1058 338.819 77.8871 339.51 77.4496C340.206 77.0071 340.753 76.3608 341.15 75.5107C341.553 74.6555 341.754 73.6065 341.754 72.3636ZM352.077 68.5455V70.3352H345.821V68.5455H352.077ZM347.498 65.8011H349.728V76.6367C349.728 77.0692 349.793 77.3949 349.922 77.6136C350.051 77.8274 350.218 77.9741 350.422 78.0536C350.631 78.1282 350.857 78.1655 351.1 78.1655C351.279 78.1655 351.436 78.1531 351.57 78.1282C351.704 78.1033 351.809 78.0835 351.883 78.0685L352.286 79.9105C352.157 79.9602 351.973 80.0099 351.734 80.0597C351.496 80.1143 351.197 80.1442 350.839 80.1491C350.253 80.1591 349.706 80.0547 349.199 79.8359C348.692 79.6172 348.282 79.2791 347.968 78.8217C347.655 78.3643 347.498 77.7901 347.498 77.0991V65.8011ZM357.02 73.1989V80H354.79V64.7273H356.99V70.4098H357.132C357.4 69.7933 357.81 69.3036 358.362 68.9407C358.914 68.5778 359.635 68.3963 360.525 68.3963C361.31 68.3963 361.996 68.5579 362.583 68.881C363.175 69.2042 363.632 69.6864 363.955 70.3278C364.283 70.9641 364.447 71.7596 364.447 72.7141V80H362.218V72.9826C362.218 72.1424 362.001 71.4911 361.569 71.0288C361.136 70.5614 360.535 70.3278 359.764 70.3278C359.237 70.3278 358.765 70.4396 358.347 70.6634C357.934 70.8871 357.609 71.2152 357.37 71.6477C357.137 72.0753 357.02 72.5923 357.02 73.1989ZM372.36 80.2312C371.231 80.2312 370.259 79.9901 369.444 79.5078C368.633 79.0206 368.007 78.337 367.564 77.457C367.127 76.5721 366.908 75.5355 366.908 74.3473C366.908 73.174 367.127 72.1399 367.564 71.245C368.007 70.3501 368.623 69.6516 369.414 69.1495C370.209 68.6474 371.139 68.3963 372.203 68.3963C372.849 68.3963 373.476 68.5032 374.082 68.717C374.689 68.9308 375.233 69.2663 375.715 69.7237C376.198 70.1811 376.578 70.7752 376.856 71.506C377.135 72.2319 377.274 73.1143 377.274 74.1534V74.9439H368.169V73.2734H375.089C375.089 72.6868 374.97 72.1673 374.731 71.7148C374.492 71.2575 374.157 70.897 373.724 70.6335C373.297 70.37 372.795 70.2383 372.218 70.2383C371.591 70.2383 371.045 70.3924 370.577 70.7006C370.115 71.0039 369.757 71.4016 369.503 71.8938C369.255 72.381 369.131 72.9105 369.131 73.4822V74.7873C369.131 75.5529 369.265 76.2042 369.533 76.7411C369.807 77.2781 370.187 77.6882 370.674 77.9716C371.161 78.25 371.731 78.3892 372.382 78.3892C372.805 78.3892 373.19 78.3295 373.538 78.2102C373.886 78.0859 374.187 77.902 374.44 77.6584C374.694 77.4148 374.888 77.114 375.022 76.756L377.132 77.1364C376.963 77.7578 376.66 78.3022 376.222 78.7695C375.79 79.2319 375.246 79.5923 374.589 79.8509C373.938 80.1044 373.195 80.2312 372.36 80.2312ZM379.748 80V68.5455H381.903V70.3651H382.022C382.231 69.7486 382.599 69.2638 383.126 68.9109C383.658 68.5529 384.26 68.3739 384.931 68.3739C385.07 68.3739 385.234 68.3789 385.423 68.3888C385.617 68.3988 385.769 68.4112 385.878 68.4261V70.5589C385.788 70.5341 385.629 70.5067 385.401 70.4769C385.172 70.4421 384.943 70.4247 384.715 70.4247C384.188 70.4247 383.718 70.5366 383.305 70.7603C382.897 70.979 382.574 71.2848 382.336 71.6776C382.097 72.0653 381.978 72.5078 381.978 73.005V80H379.748ZM396.391 71.342L394.37 71.6999C394.286 71.4414 394.151 71.1953 393.967 70.9616C393.788 70.728 393.545 70.5366 393.237 70.3874C392.928 70.2383 392.543 70.1637 392.081 70.1637C391.449 70.1637 390.922 70.3054 390.5 70.5888C390.077 70.8672 389.866 71.2276 389.866 71.6701C389.866 72.0529 390.007 72.3612 390.291 72.5948C390.574 72.8285 391.032 73.0199 391.663 73.169L393.483 73.5866C394.537 73.8303 395.322 74.2056 395.839 74.7127C396.356 75.2198 396.615 75.8786 396.615 76.6889C396.615 77.375 396.416 77.9865 396.018 78.5234C395.625 79.0554 395.076 79.473 394.37 79.7763C393.669 80.0795 392.856 80.2312 391.931 80.2312C390.649 80.2312 389.602 79.9577 388.792 79.4109C387.982 78.859 387.484 78.076 387.3 77.0618L389.456 76.7337C389.59 77.2955 389.866 77.7205 390.283 78.0089C390.701 78.2923 391.245 78.4339 391.917 78.4339C392.647 78.4339 393.232 78.2823 393.669 77.979C394.107 77.6708 394.325 77.2955 394.325 76.853C394.325 76.495 394.191 76.1942 393.923 75.9506C393.659 75.707 393.254 75.5231 392.707 75.3988L390.768 74.9737C389.699 74.7301 388.909 74.3423 388.397 73.8104C387.89 73.2784 387.636 72.6048 387.636 71.7894C387.636 71.1133 387.825 70.5217 388.203 70.0146C388.581 69.5075 389.103 69.1122 389.769 68.8288C390.435 68.5405 391.198 68.3963 392.058 68.3963C393.296 68.3963 394.271 68.6648 394.982 69.2017C395.692 69.7337 396.162 70.4471 396.391 71.342Z" fill="white"/>
<defs>
<clipPath id="clip0_90_102">
<rect width="60" height="53" fill="white" transform="translate(18 3)"/>
</clipPath>
</defs>
</svg>
