<svg width="323" height="326" viewBox="0 0 323 326" fill="none" xmlns="http://www.w3.org/2000/svg">
<circle cx="163" cy="110" r="108.5" fill="url(#paint0_linear_90_88)" stroke="#700000" stroke-width="3"/>
<path d="M132.173 103.538C132.055 102.236 131.528 101.224 130.593 100.502C129.67 99.7682 128.35 99.4013 126.634 99.4013C125.497 99.4013 124.55 99.5492 123.793 99.8452C123.035 100.141 122.467 100.549 122.088 101.07C121.709 101.579 121.514 102.165 121.502 102.828C121.478 103.373 121.585 103.852 121.822 104.266C122.07 104.681 122.425 105.048 122.887 105.367C123.361 105.675 123.929 105.947 124.592 106.184C125.254 106.421 126 106.628 126.829 106.805L129.954 107.516C131.753 107.906 133.339 108.427 134.712 109.078C136.097 109.729 137.257 110.504 138.192 111.404C139.139 112.304 139.856 113.339 140.341 114.511C140.826 115.683 141.075 116.997 141.087 118.453C141.075 120.75 140.495 122.72 139.347 124.366C138.198 126.011 136.547 127.272 134.393 128.148C132.25 129.024 129.664 129.462 126.634 129.462C123.591 129.462 120.94 129.006 118.679 128.094C116.418 127.183 114.66 125.798 113.406 123.94C112.151 122.081 111.506 119.732 111.47 116.891H119.886C119.957 118.062 120.271 119.039 120.827 119.82C121.384 120.602 122.147 121.193 123.118 121.596C124.1 121.998 125.237 122.2 126.527 122.2C127.711 122.2 128.717 122.04 129.545 121.72C130.386 121.401 131.031 120.957 131.481 120.388C131.931 119.82 132.161 119.169 132.173 118.435C132.161 117.749 131.948 117.163 131.534 116.678C131.12 116.18 130.481 115.754 129.616 115.399C128.764 115.032 127.675 114.695 126.349 114.387L122.55 113.499C119.401 112.777 116.921 111.611 115.11 110.001C113.299 108.38 112.399 106.19 112.411 103.432C112.399 101.183 113.003 99.2119 114.222 97.5192C115.442 95.8265 117.128 94.5066 119.283 93.5597C121.437 92.6127 123.893 92.1392 126.651 92.1392C129.469 92.1392 131.913 92.6186 133.984 93.5774C136.068 94.5244 137.683 95.8561 138.832 97.5724C139.98 99.2888 140.566 101.277 140.589 103.538H132.173ZM179.847 110.818C179.847 114.819 179.078 118.21 177.539 120.992C176 123.774 173.917 125.887 171.289 127.331C168.673 128.775 165.737 129.497 162.482 129.497C159.215 129.497 156.274 128.769 153.658 127.313C151.042 125.857 148.964 123.744 147.425 120.974C145.898 118.193 145.135 114.807 145.135 110.818C145.135 106.817 145.898 103.426 147.425 100.644C148.964 97.8625 151.042 95.7495 153.658 94.3054C156.274 92.8613 159.215 92.1392 162.482 92.1392C165.737 92.1392 168.673 92.8613 171.289 94.3054C173.917 95.7495 176 97.8625 177.539 100.644C179.078 103.426 179.847 106.817 179.847 110.818ZM170.863 110.818C170.863 108.451 170.526 106.45 169.851 104.817C169.188 103.183 168.229 101.946 166.974 101.106C165.732 100.265 164.234 99.8452 162.482 99.8452C160.742 99.8452 159.245 100.265 157.99 101.106C156.735 101.946 155.771 103.183 155.096 104.817C154.433 106.45 154.102 108.451 154.102 110.818C154.102 113.186 154.433 115.186 155.096 116.82C155.771 118.453 156.735 119.69 157.99 120.531C159.245 121.371 160.742 121.791 162.482 121.791C164.234 121.791 165.732 121.371 166.974 120.531C168.229 119.69 169.188 118.453 169.851 116.82C170.526 115.186 170.863 113.186 170.863 110.818ZM204.634 103.538C204.516 102.236 203.989 101.224 203.054 100.502C202.131 99.7682 200.811 99.4013 199.094 99.4013C197.958 99.4013 197.011 99.5492 196.254 99.8452C195.496 100.141 194.928 100.549 194.549 101.07C194.17 101.579 193.975 102.165 193.963 102.828C193.939 103.373 194.046 103.852 194.283 104.266C194.531 104.681 194.886 105.048 195.348 105.367C195.821 105.675 196.39 105.947 197.053 106.184C197.715 106.421 198.461 106.628 199.29 106.805L202.415 107.516C204.214 107.906 205.8 108.427 207.173 109.078C208.558 109.729 209.718 110.504 210.653 111.404C211.6 112.304 212.317 113.339 212.802 114.511C213.287 115.683 213.536 116.997 213.548 118.453C213.536 120.75 212.956 122.72 211.808 124.366C210.659 126.011 209.008 127.272 206.854 128.148C204.711 129.024 202.125 129.462 199.094 129.462C196.052 129.462 193.401 129.006 191.14 128.094C188.879 127.183 187.121 125.798 185.866 123.94C184.612 122.081 183.967 119.732 183.931 116.891H192.347C192.418 118.062 192.732 119.039 193.288 119.82C193.845 120.602 194.608 121.193 195.579 121.596C196.561 121.998 197.698 122.2 198.988 122.2C200.172 122.2 201.178 122.04 202.006 121.72C202.847 121.401 203.492 120.957 203.942 120.388C204.392 119.82 204.622 119.169 204.634 118.435C204.622 117.749 204.409 117.163 203.995 116.678C203.581 116.18 202.942 115.754 202.077 115.399C201.225 115.032 200.136 114.695 198.81 114.387L195.011 113.499C191.862 112.777 189.382 111.611 187.571 110.001C185.76 108.38 184.86 106.19 184.872 103.432C184.86 101.183 185.464 99.2119 186.683 97.5192C187.902 95.8265 189.589 94.5066 191.744 93.5597C193.898 92.6127 196.354 92.1392 199.112 92.1392C201.929 92.1392 204.374 92.6186 206.445 93.5774C208.529 94.5244 210.144 95.8561 211.293 97.5724C212.441 99.2888 213.027 101.277 213.05 103.538H204.634Z" fill="white"/>
<path d="M47.6428 273.909C47.6428 275.868 47.2758 277.546 46.5419 278.943C45.814 280.334 44.8196 281.399 43.559 282.139C42.3043 282.879 40.8808 283.249 39.2888 283.249C37.6967 283.249 36.2703 282.879 35.0096 282.139C33.7549 281.393 32.7606 280.325 32.0267 278.934C31.2987 277.537 30.9347 275.862 30.9347 273.909C30.9347 271.95 31.2987 270.275 32.0267 268.884C32.7606 267.487 33.7549 266.419 35.0096 265.679C36.2703 264.94 37.6967 264.57 39.2888 264.57C40.8808 264.57 42.3043 264.94 43.559 265.679C44.8196 266.419 45.814 267.487 46.5419 268.884C47.2758 270.275 47.6428 271.95 47.6428 273.909ZM44.3314 273.909C44.3314 272.53 44.1153 271.367 43.6833 270.42C43.2571 269.467 42.6653 268.748 41.9077 268.263C41.1501 267.772 40.2772 267.526 39.2888 267.526C38.3004 267.526 37.4274 267.772 36.6698 268.263C35.9122 268.748 35.3174 269.467 34.8853 270.42C34.4592 271.367 34.2461 272.53 34.2461 273.909C34.2461 275.288 34.4592 276.454 34.8853 277.407C35.3174 278.354 35.9122 279.073 36.6698 279.564C37.4274 280.05 38.3004 280.292 39.2888 280.292C40.2772 280.292 41.1501 280.05 41.9077 279.564C42.6653 279.073 43.2571 278.354 43.6833 277.407C44.1153 276.454 44.3314 275.288 44.3314 273.909ZM53.8284 275.01V283H50.6147V269.364H53.6864V271.681H53.8462C54.1599 270.917 54.66 270.311 55.3465 269.861C56.039 269.411 56.8943 269.186 57.9122 269.186C58.8533 269.186 59.673 269.387 60.3714 269.79C61.0757 270.192 61.6202 270.775 62.0049 271.539C62.3956 272.302 62.5879 273.228 62.582 274.317V283H59.3682V274.815C59.3682 273.903 59.1315 273.19 58.658 272.675C58.1904 272.16 57.5423 271.903 56.7137 271.903C56.1515 271.903 55.6514 272.027 55.2134 272.276C54.7813 272.518 54.441 272.87 54.1924 273.332C53.9498 273.794 53.8284 274.353 53.8284 275.01ZM71.886 283.266C70.5188 283.266 69.338 282.982 68.3437 282.414C67.3553 281.84 66.5948 281.029 66.0621 279.982C65.5294 278.928 65.2631 277.688 65.2631 276.262C65.2631 274.859 65.5294 273.628 66.0621 272.569C66.6007 271.503 67.3523 270.675 68.3171 270.083C69.2818 269.485 70.4152 269.186 71.7173 269.186C72.5577 269.186 73.3508 269.322 74.0965 269.594C74.8482 269.861 75.5111 270.275 76.0852 270.837C76.6652 271.4 77.1209 272.116 77.4524 272.986C77.7838 273.85 77.9495 274.88 77.9495 276.075V277.061H66.7723V274.895H74.8689C74.863 274.279 74.7298 273.732 74.4694 273.252C74.209 272.767 73.845 272.385 73.3774 272.107C72.9158 271.829 72.3772 271.69 71.7617 271.69C71.1047 271.69 70.5277 271.849 70.0305 272.169C69.5333 272.483 69.1457 272.897 68.8675 273.412C68.5952 273.921 68.4562 274.48 68.4502 275.09V276.981C68.4502 277.774 68.5952 278.455 68.8853 279.023C69.1753 279.585 69.5807 280.017 70.1015 280.319C70.6224 280.615 71.232 280.763 71.9304 280.763C72.3979 280.763 72.8211 280.698 73.1999 280.567C73.5787 280.431 73.9072 280.233 74.1853 279.973C74.4635 279.712 74.6736 279.39 74.8157 279.005L77.8164 279.342C77.627 280.135 77.2659 280.828 76.7333 281.42C76.2065 282.006 75.5318 282.461 74.7091 282.787C73.8864 283.107 72.9454 283.266 71.886 283.266ZM93.6788 269.364V271.849H85.8397V269.364H93.6788ZM87.7751 266.097H90.9889V278.898C90.9889 279.33 91.054 279.662 91.1842 279.893C91.3203 280.118 91.4979 280.272 91.7168 280.354C91.9358 280.437 92.1785 280.479 92.4448 280.479C92.6461 280.479 92.8295 280.464 92.9953 280.434C93.1669 280.405 93.2971 280.378 93.3859 280.354L93.9274 282.867C93.7558 282.926 93.5102 282.991 93.1906 283.062C92.8769 283.133 92.4922 283.175 92.0364 283.186C91.2315 283.21 90.5065 283.089 89.8614 282.822C89.2162 282.55 88.7043 282.13 88.3255 281.562C87.9526 280.994 87.7692 280.283 87.7751 279.431V266.097ZM100.291 283.275C99.4265 283.275 98.6482 283.121 97.9557 282.814C97.2692 282.5 96.7247 282.038 96.3222 281.429C95.9257 280.819 95.7274 280.067 95.7274 279.174C95.7274 278.404 95.8695 277.768 96.1535 277.265C96.4376 276.762 96.8253 276.359 97.3165 276.058C97.8078 275.756 98.3612 275.528 98.9767 275.374C99.5981 275.214 100.24 275.099 100.903 275.028C101.702 274.945 102.35 274.871 102.847 274.806C103.345 274.735 103.706 274.628 103.931 274.486C104.161 274.338 104.277 274.11 104.277 273.803V273.749C104.277 273.08 104.078 272.563 103.682 272.196C103.285 271.829 102.714 271.645 101.969 271.645C101.181 271.645 100.557 271.817 100.095 272.16C99.6396 272.503 99.3318 272.909 99.172 273.376L96.1713 272.95C96.408 272.122 96.7987 271.429 97.3432 270.873C97.8877 270.311 98.5535 269.89 99.3407 269.612C100.128 269.328 100.998 269.186 101.951 269.186C102.608 269.186 103.262 269.263 103.913 269.417C104.564 269.571 105.159 269.825 105.697 270.18C106.236 270.53 106.668 271.006 106.993 271.61C107.325 272.213 107.491 272.968 107.491 273.874V283H104.401V281.127H104.295C104.099 281.506 103.824 281.861 103.469 282.192C103.12 282.518 102.679 282.781 102.146 282.982C101.619 283.178 101.001 283.275 100.291 283.275ZM101.125 280.914C101.77 280.914 102.33 280.786 102.803 280.532C103.277 280.272 103.641 279.928 103.895 279.502C104.155 279.076 104.286 278.611 104.286 278.108V276.501C104.185 276.584 104.013 276.661 103.771 276.732C103.534 276.803 103.268 276.865 102.972 276.919C102.676 276.972 102.383 277.019 102.093 277.061C101.803 277.102 101.551 277.138 101.338 277.167C100.859 277.232 100.43 277.339 100.051 277.487C99.6721 277.635 99.3732 277.842 99.1543 278.108C98.9353 278.369 98.8258 278.706 98.8258 279.12C98.8258 279.712 99.0418 280.159 99.4739 280.461C99.9059 280.763 100.456 280.914 101.125 280.914ZM110.722 288.114V269.364H113.883V271.619H114.069C114.235 271.287 114.469 270.935 114.77 270.562C115.072 270.183 115.481 269.861 115.996 269.594C116.51 269.322 117.167 269.186 117.966 269.186C119.02 269.186 119.97 269.455 120.816 269.994C121.668 270.527 122.343 271.317 122.84 272.364C123.343 273.406 123.595 274.684 123.595 276.2C123.595 277.697 123.349 278.969 122.858 280.017C122.367 281.065 121.698 281.864 120.852 282.414C120.005 282.964 119.047 283.24 117.975 283.24C117.194 283.24 116.546 283.109 116.031 282.849C115.516 282.589 115.102 282.275 114.788 281.908C114.48 281.535 114.241 281.183 114.069 280.852H113.936V288.114H110.722ZM113.874 276.182C113.874 277.064 113.998 277.836 114.247 278.499C114.501 279.162 114.865 279.68 115.339 280.053C115.818 280.42 116.398 280.603 117.079 280.603C117.789 280.603 118.384 280.414 118.863 280.035C119.342 279.65 119.703 279.126 119.946 278.463C120.195 277.795 120.319 277.034 120.319 276.182C120.319 275.335 120.198 274.584 119.955 273.927C119.712 273.27 119.351 272.755 118.872 272.382C118.393 272.009 117.795 271.823 117.079 271.823C116.392 271.823 115.809 272.003 115.33 272.364C114.85 272.725 114.486 273.231 114.238 273.882C113.995 274.533 113.874 275.3 113.874 276.182ZM143.326 272.968L140.396 273.288C140.313 272.992 140.168 272.714 139.961 272.453C139.76 272.193 139.488 271.983 139.144 271.823C138.801 271.663 138.381 271.583 137.884 271.583C137.215 271.583 136.653 271.728 136.197 272.018C135.747 272.308 135.525 272.684 135.531 273.146C135.525 273.542 135.67 273.865 135.966 274.113C136.268 274.362 136.765 274.566 137.458 274.726L139.784 275.223C141.074 275.501 142.033 275.942 142.66 276.546C143.293 277.15 143.613 277.94 143.619 278.916C143.613 279.774 143.361 280.532 142.864 281.189C142.373 281.84 141.689 282.349 140.814 282.716C139.938 283.083 138.931 283.266 137.795 283.266C136.126 283.266 134.783 282.917 133.765 282.219C132.747 281.514 132.14 280.535 131.945 279.28L135.078 278.978C135.22 279.594 135.522 280.058 135.984 280.372C136.446 280.686 137.046 280.843 137.786 280.843C138.55 280.843 139.162 280.686 139.624 280.372C140.091 280.058 140.325 279.671 140.325 279.209C140.325 278.819 140.174 278.496 139.872 278.241C139.577 277.987 139.115 277.792 138.488 277.656L136.162 277.167C134.854 276.895 133.886 276.436 133.258 275.791C132.631 275.14 132.32 274.317 132.326 273.323C132.32 272.483 132.548 271.755 133.01 271.139C133.477 270.518 134.126 270.038 134.954 269.701C135.789 269.358 136.75 269.186 137.839 269.186C139.437 269.186 140.695 269.526 141.613 270.207C142.536 270.888 143.107 271.808 143.326 272.968ZM152.306 283.266C150.939 283.266 149.758 282.982 148.764 282.414C147.775 281.84 147.015 281.029 146.482 279.982C145.949 278.928 145.683 277.688 145.683 276.262C145.683 274.859 145.949 273.628 146.482 272.569C147.021 271.503 147.772 270.675 148.737 270.083C149.702 269.485 150.835 269.186 152.137 269.186C152.978 269.186 153.771 269.322 154.516 269.594C155.268 269.861 155.931 270.275 156.505 270.837C157.085 271.4 157.541 272.116 157.872 272.986C158.204 273.85 158.369 274.88 158.369 276.075V277.061H147.192V274.895H155.289C155.283 274.279 155.15 273.732 154.889 273.252C154.629 272.767 154.265 272.385 153.797 272.107C153.336 271.829 152.797 271.69 152.182 271.69C151.525 271.69 150.948 271.849 150.45 272.169C149.953 272.483 149.566 272.897 149.287 273.412C149.015 273.921 148.876 274.48 148.87 275.09V276.981C148.87 277.774 149.015 278.455 149.305 279.023C149.595 279.585 150.001 280.017 150.521 280.319C151.042 280.615 151.652 280.763 152.35 280.763C152.818 280.763 153.241 280.698 153.62 280.567C153.999 280.431 154.327 280.233 154.605 279.973C154.883 279.712 155.094 279.39 155.236 279.005L158.236 279.342C158.047 280.135 157.686 280.828 157.153 281.42C156.626 282.006 155.952 282.461 155.129 282.787C154.306 283.107 153.365 283.266 152.306 283.266ZM164.302 275.01V283H161.088V269.364H164.16V271.681H164.32C164.634 270.917 165.134 270.311 165.82 269.861C166.513 269.411 167.368 269.186 168.386 269.186C169.327 269.186 170.147 269.387 170.845 269.79C171.549 270.192 172.094 270.775 172.479 271.539C172.869 272.302 173.062 273.228 173.056 274.317V283H169.842V274.815C169.842 273.903 169.605 273.19 169.132 272.675C168.664 272.16 168.016 271.903 167.187 271.903C166.625 271.903 166.125 272.027 165.687 272.276C165.255 272.518 164.915 272.87 164.666 273.332C164.423 273.794 164.302 274.353 164.302 275.01ZM181.383 283.24C180.312 283.24 179.353 282.964 178.507 282.414C177.66 281.864 176.991 281.065 176.5 280.017C176.009 278.969 175.763 277.697 175.763 276.2C175.763 274.684 176.012 273.406 176.509 272.364C177.012 271.317 177.69 270.527 178.542 269.994C179.394 269.455 180.344 269.186 181.392 269.186C182.191 269.186 182.848 269.322 183.363 269.594C183.878 269.861 184.286 270.183 184.588 270.562C184.89 270.935 185.124 271.287 185.289 271.619H185.422V264.818H188.645V283H185.485V280.852H185.289C185.124 281.183 184.884 281.535 184.57 281.908C184.256 282.275 183.842 282.589 183.327 282.849C182.812 283.109 182.164 283.24 181.383 283.24ZM182.28 280.603C182.96 280.603 183.54 280.42 184.02 280.053C184.499 279.68 184.863 279.162 185.112 278.499C185.36 277.836 185.485 277.064 185.485 276.182C185.485 275.3 185.36 274.533 185.112 273.882C184.869 273.231 184.508 272.725 184.029 272.364C183.555 272.003 182.972 271.823 182.28 271.823C181.564 271.823 180.966 272.009 180.486 272.382C180.007 272.755 179.646 273.27 179.403 273.927C179.161 274.584 179.039 275.335 179.039 276.182C179.039 277.034 179.161 277.795 179.403 278.463C179.652 279.126 180.016 279.65 180.495 280.035C180.981 280.414 181.575 280.603 182.28 280.603ZM202.847 272.968L199.918 273.288C199.835 272.992 199.69 272.714 199.483 272.453C199.282 272.193 199.009 271.983 198.666 271.823C198.323 271.663 197.902 271.583 197.405 271.583C196.737 271.583 196.174 271.728 195.719 272.018C195.269 272.308 195.047 272.684 195.053 273.146C195.047 273.542 195.192 273.865 195.488 274.113C195.79 274.362 196.287 274.566 196.979 274.726L199.305 275.223C200.595 275.501 201.554 275.942 202.182 276.546C202.815 277.15 203.134 277.94 203.14 278.916C203.134 279.774 202.883 280.532 202.386 281.189C201.895 281.84 201.211 282.349 200.335 282.716C199.459 283.083 198.453 283.266 197.317 283.266C195.648 283.266 194.304 282.917 193.286 282.219C192.268 281.514 191.661 280.535 191.466 279.28L194.6 278.978C194.742 279.594 195.044 280.058 195.505 280.372C195.967 280.686 196.568 280.843 197.308 280.843C198.071 280.843 198.684 280.686 199.145 280.372C199.613 280.058 199.847 279.671 199.847 279.209C199.847 278.819 199.696 278.496 199.394 278.241C199.098 277.987 198.636 277.792 198.009 277.656L195.683 277.167C194.375 276.895 193.407 276.436 192.78 275.791C192.153 275.14 191.842 274.317 191.848 273.323C191.842 272.483 192.07 271.755 192.531 271.139C192.999 270.518 193.647 270.038 194.476 269.701C195.31 269.358 196.272 269.186 197.361 269.186C198.959 269.186 200.217 269.526 201.134 270.207C202.057 270.888 202.628 271.808 202.847 272.968ZM215.205 275.01V283H211.992V264.818H215.134V271.681H215.294C215.614 270.911 216.108 270.305 216.777 269.861C217.451 269.411 218.31 269.186 219.351 269.186C220.298 269.186 221.124 269.384 221.828 269.781C222.533 270.177 223.077 270.757 223.462 271.521C223.852 272.284 224.048 273.217 224.048 274.317V283H220.834V274.815C220.834 273.897 220.597 273.184 220.124 272.675C219.656 272.16 218.999 271.903 218.153 271.903C217.585 271.903 217.076 272.027 216.626 272.276C216.182 272.518 215.833 272.87 215.578 273.332C215.33 273.794 215.205 274.353 215.205 275.01ZM233.361 283.266C231.993 283.266 230.813 282.982 229.818 282.414C228.83 281.84 228.069 281.029 227.537 279.982C227.004 278.928 226.738 277.688 226.738 276.262C226.738 274.859 227.004 273.628 227.537 272.569C228.075 271.503 228.827 270.675 229.792 270.083C230.756 269.485 231.89 269.186 233.192 269.186C234.032 269.186 234.825 269.322 235.571 269.594C236.323 269.861 236.986 270.275 237.56 270.837C238.14 271.4 238.596 272.116 238.927 272.986C239.258 273.85 239.424 274.88 239.424 276.075V277.061H228.247V274.895H236.344C236.338 274.279 236.204 273.732 235.944 273.252C235.684 272.767 235.32 272.385 234.852 272.107C234.39 271.829 233.852 271.69 233.236 271.69C232.579 271.69 232.002 271.849 231.505 272.169C231.008 272.483 230.62 272.897 230.342 273.412C230.07 273.921 229.931 274.48 229.925 275.09V276.981C229.925 277.774 230.07 278.455 230.36 279.023C230.65 279.585 231.055 280.017 231.576 280.319C232.097 280.615 232.707 280.763 233.405 280.763C233.873 280.763 234.296 280.698 234.674 280.567C235.053 280.431 235.382 280.233 235.66 279.973C235.938 279.712 236.148 279.39 236.29 279.005L239.291 279.342C239.102 280.135 238.741 280.828 238.208 281.42C237.681 282.006 237.006 282.461 236.184 282.787C235.361 283.107 234.42 283.266 233.361 283.266ZM245.357 264.818V283H242.143V264.818H245.357ZM248.662 288.114V269.364H251.822V271.619H252.008C252.174 271.287 252.408 270.935 252.71 270.562C253.012 270.183 253.42 269.861 253.935 269.594C254.45 269.322 255.107 269.186 255.906 269.186C256.959 269.186 257.909 269.455 258.756 269.994C259.608 270.527 260.283 271.317 260.78 272.364C261.283 273.406 261.534 274.684 261.534 276.2C261.534 277.697 261.289 278.969 260.798 280.017C260.306 281.065 259.638 281.864 258.791 282.414C257.945 282.964 256.986 283.24 255.915 283.24C255.133 283.24 254.485 283.109 253.97 282.849C253.456 282.589 253.041 282.275 252.728 281.908C252.42 281.535 252.18 281.183 252.008 280.852H251.875V288.114H248.662ZM251.813 276.182C251.813 277.064 251.937 277.836 252.186 278.499C252.441 279.162 252.805 279.68 253.278 280.053C253.757 280.42 254.337 280.603 255.018 280.603C255.728 280.603 256.323 280.414 256.803 280.035C257.282 279.65 257.643 279.126 257.886 278.463C258.134 277.795 258.258 277.034 258.258 276.182C258.258 275.335 258.137 274.584 257.894 273.927C257.652 273.27 257.291 272.755 256.811 272.382C256.332 272.009 255.734 271.823 255.018 271.823C254.332 271.823 253.749 272.003 253.269 272.364C252.79 272.725 252.426 273.231 252.177 273.882C251.934 274.533 251.813 275.3 251.813 276.182ZM277.297 269.364V271.849H269.458V269.364H277.297ZM271.393 266.097H274.607V278.898C274.607 279.33 274.672 279.662 274.802 279.893C274.938 280.118 275.116 280.272 275.335 280.354C275.554 280.437 275.797 280.479 276.063 280.479C276.264 280.479 276.448 280.464 276.613 280.434C276.785 280.405 276.915 280.378 277.004 280.354L277.546 282.867C277.374 282.926 277.128 282.991 276.809 283.062C276.495 283.133 276.11 283.175 275.655 283.186C274.85 283.21 274.125 283.089 273.48 282.822C272.834 282.55 272.322 282.13 271.944 281.562C271.571 280.994 271.387 280.283 271.393 279.431V266.097ZM285.786 283.266C284.455 283.266 283.301 282.973 282.324 282.387C281.348 281.801 280.59 280.982 280.051 279.928C279.519 278.875 279.252 277.644 279.252 276.235C279.252 274.826 279.519 273.592 280.051 272.533C280.59 271.474 281.348 270.651 282.324 270.065C283.301 269.479 284.455 269.186 285.786 269.186C287.118 269.186 288.272 269.479 289.249 270.065C290.225 270.651 290.98 271.474 291.513 272.533C292.051 273.592 292.321 274.826 292.321 276.235C292.321 277.644 292.051 278.875 291.513 279.928C290.98 280.982 290.225 281.801 289.249 282.387C288.272 282.973 287.118 283.266 285.786 283.266ZM285.804 280.692C286.526 280.692 287.13 280.493 287.615 280.097C288.101 279.694 288.462 279.156 288.698 278.481C288.941 277.806 289.062 277.055 289.062 276.226C289.062 275.392 288.941 274.637 288.698 273.962C288.462 273.282 288.101 272.74 287.615 272.338C287.13 271.935 286.526 271.734 285.804 271.734C285.064 271.734 284.449 271.935 283.958 272.338C283.472 272.74 283.108 273.282 282.866 273.962C282.629 274.637 282.511 275.392 282.511 276.226C282.511 277.055 282.629 277.806 282.866 278.481C283.108 279.156 283.472 279.694 283.958 280.097C284.449 280.493 285.064 280.692 285.804 280.692ZM86.4256 318.114C85.9877 318.114 85.5823 318.078 85.2094 318.007C84.8424 317.942 84.5495 317.865 84.3305 317.776L85.0762 315.273C85.5438 315.409 85.961 315.474 86.328 315.468C86.6949 315.462 87.0175 315.347 87.2957 315.122C87.5798 314.903 87.8195 314.536 88.0148 314.021L88.29 313.284L83.345 299.364H86.7541L89.8969 309.662H90.0389L93.1906 299.364H96.6085L91.1487 314.651C90.8942 315.373 90.5568 315.992 90.1366 316.507C89.7164 317.028 89.2015 317.424 88.5918 317.696C87.9881 317.975 87.2661 318.114 86.4256 318.114ZM104.317 313.266C102.985 313.266 101.831 312.973 100.854 312.387C99.8778 311.801 99.1202 310.982 98.5816 309.928C98.049 308.875 97.7826 307.644 97.7826 306.235C97.7826 304.826 98.049 303.592 98.5816 302.533C99.1202 301.474 99.8778 300.651 100.854 300.065C101.831 299.479 102.985 299.186 104.317 299.186C105.648 299.186 106.803 299.479 107.779 300.065C108.756 300.651 109.51 301.474 110.043 302.533C110.582 303.592 110.851 304.826 110.851 306.235C110.851 307.644 110.582 308.875 110.043 309.928C109.51 310.982 108.756 311.801 107.779 312.387C106.803 312.973 105.648 313.266 104.317 313.266ZM104.334 310.692C105.057 310.692 105.66 310.493 106.146 310.097C106.631 309.694 106.992 309.156 107.229 308.481C107.471 307.806 107.593 307.055 107.593 306.226C107.593 305.392 107.471 304.637 107.229 303.962C106.992 303.282 106.631 302.74 106.146 302.338C105.66 301.935 105.057 301.734 104.334 301.734C103.595 301.734 102.979 301.935 102.488 302.338C102.003 302.74 101.639 303.282 101.396 303.962C101.159 304.637 101.041 305.392 101.041 306.226C101.041 307.055 101.159 307.806 101.396 308.481C101.639 309.156 102.003 309.694 102.488 310.097C102.979 310.493 103.595 310.692 104.334 310.692ZM122.27 307.265V299.364H125.484V313H122.368V310.576H122.226C121.918 311.34 121.412 311.964 120.707 312.45C120.009 312.935 119.148 313.178 118.124 313.178C117.23 313.178 116.44 312.979 115.754 312.583C115.073 312.18 114.54 311.597 114.156 310.834C113.771 310.064 113.579 309.135 113.579 308.046V299.364H116.792V307.549C116.792 308.413 117.029 309.1 117.503 309.609C117.976 310.118 118.597 310.372 119.367 310.372C119.84 310.372 120.299 310.257 120.743 310.026C121.187 309.795 121.551 309.452 121.835 308.996C122.125 308.534 122.27 307.957 122.27 307.265ZM128.788 313V299.364H131.905V301.636H132.047C132.295 300.849 132.721 300.243 133.325 299.816C133.935 299.384 134.63 299.168 135.411 299.168C135.589 299.168 135.787 299.177 136.006 299.195C136.231 299.207 136.418 299.228 136.565 299.257V302.213C136.429 302.166 136.213 302.125 135.917 302.089C135.627 302.048 135.346 302.027 135.074 302.027C134.488 302.027 133.961 302.154 133.494 302.409C133.032 302.657 132.668 303.004 132.402 303.447C132.135 303.891 132.002 304.403 132.002 304.983V313H128.788ZM148.116 294.818V313H144.902V294.818H148.116ZM157.368 313.266C156.037 313.266 154.883 312.973 153.906 312.387C152.93 311.801 152.172 310.982 151.633 309.928C151.101 308.875 150.834 307.644 150.834 306.235C150.834 304.826 151.101 303.592 151.633 302.533C152.172 301.474 152.93 300.651 153.906 300.065C154.883 299.479 156.037 299.186 157.368 299.186C158.7 299.186 159.854 299.479 160.831 300.065C161.807 300.651 162.562 301.474 163.095 302.533C163.633 303.592 163.903 304.826 163.903 306.235C163.903 307.644 163.633 308.875 163.095 309.928C162.562 310.982 161.807 311.801 160.831 312.387C159.854 312.973 158.7 313.266 157.368 313.266ZM157.386 310.692C158.108 310.692 158.712 310.493 159.197 310.097C159.683 309.694 160.044 309.156 160.28 308.481C160.523 307.806 160.644 307.055 160.644 306.226C160.644 305.392 160.523 304.637 160.28 303.962C160.044 303.282 159.683 302.74 159.197 302.338C158.712 301.935 158.108 301.734 157.386 301.734C156.646 301.734 156.031 301.935 155.54 302.338C155.054 302.74 154.69 303.282 154.448 303.962C154.211 304.637 154.093 305.392 154.093 306.226C154.093 307.055 154.211 307.806 154.448 308.481C154.69 309.156 155.054 309.694 155.54 310.097C156.031 310.493 156.646 310.692 157.386 310.692ZM172.578 313.266C171.217 313.266 170.048 312.967 169.072 312.37C168.101 311.772 167.352 310.946 166.826 309.893C166.305 308.833 166.044 307.614 166.044 306.235C166.044 304.85 166.311 303.628 166.843 302.569C167.376 301.503 168.128 300.675 169.098 300.083C170.075 299.485 171.229 299.186 172.561 299.186C173.667 299.186 174.647 299.39 175.499 299.799C176.357 300.201 177.041 300.772 177.55 301.512C178.059 302.246 178.349 303.104 178.42 304.087H175.348C175.224 303.43 174.928 302.882 174.461 302.444C173.999 302 173.38 301.778 172.605 301.778C171.948 301.778 171.371 301.956 170.874 302.311C170.377 302.66 169.989 303.163 169.711 303.82C169.439 304.477 169.303 305.264 169.303 306.182C169.303 307.111 169.439 307.91 169.711 308.579C169.983 309.242 170.365 309.754 170.856 310.115C171.353 310.47 171.936 310.647 172.605 310.647C173.079 310.647 173.502 310.559 173.875 310.381C174.253 310.198 174.57 309.934 174.825 309.591C175.079 309.248 175.254 308.83 175.348 308.339H178.42C178.343 309.304 178.059 310.159 177.568 310.905C177.077 311.645 176.408 312.225 175.561 312.645C174.715 313.059 173.721 313.266 172.578 313.266ZM184.983 313.275C184.119 313.275 183.341 313.121 182.648 312.814C181.962 312.5 181.417 312.038 181.015 311.429C180.618 310.819 180.42 310.067 180.42 309.174C180.42 308.404 180.562 307.768 180.846 307.265C181.13 306.762 181.518 306.359 182.009 306.058C182.5 305.756 183.054 305.528 183.669 305.374C184.291 305.214 184.933 305.099 185.596 305.028C186.395 304.945 187.043 304.871 187.54 304.806C188.037 304.735 188.398 304.628 188.623 304.486C188.854 304.338 188.969 304.11 188.969 303.803V303.749C188.969 303.08 188.771 302.563 188.374 302.196C187.978 301.829 187.407 301.645 186.661 301.645C185.874 301.645 185.249 301.817 184.788 302.16C184.332 302.503 184.024 302.909 183.864 303.376L180.864 302.95C181.1 302.122 181.491 301.429 182.036 300.873C182.58 300.311 183.246 299.89 184.033 299.612C184.82 299.328 185.69 299.186 186.643 299.186C187.3 299.186 187.954 299.263 188.605 299.417C189.256 299.571 189.851 299.825 190.39 300.18C190.928 300.53 191.36 301.006 191.686 301.61C192.017 302.213 192.183 302.968 192.183 303.874V313H189.093V311.127H188.987C188.792 311.506 188.516 311.861 188.161 312.192C187.812 312.518 187.371 312.781 186.838 312.982C186.312 313.178 185.693 313.275 184.983 313.275ZM185.818 310.914C186.463 310.914 187.022 310.786 187.495 310.532C187.969 310.272 188.333 309.928 188.587 309.502C188.848 309.076 188.978 308.611 188.978 308.108V306.501C188.877 306.584 188.706 306.661 188.463 306.732C188.226 306.803 187.96 306.865 187.664 306.919C187.368 306.972 187.075 307.019 186.785 307.061C186.495 307.102 186.244 307.138 186.031 307.167C185.551 307.232 185.122 307.339 184.743 307.487C184.365 307.635 184.066 307.842 183.847 308.108C183.628 308.369 183.518 308.706 183.518 309.12C183.518 309.712 183.734 310.159 184.166 310.461C184.598 310.763 185.149 310.914 185.818 310.914ZM202.224 299.364V301.849H194.385V299.364H202.224ZM196.32 296.097H199.534V308.898C199.534 309.33 199.599 309.662 199.729 309.893C199.865 310.118 200.043 310.272 200.262 310.354C200.481 310.437 200.723 310.479 200.99 310.479C201.191 310.479 201.374 310.464 201.54 310.434C201.712 310.405 201.842 310.378 201.931 310.354L202.472 312.867C202.301 312.926 202.055 312.991 201.735 313.062C201.422 313.133 201.037 313.175 200.581 313.186C199.776 313.21 199.051 313.089 198.406 312.822C197.761 312.55 197.249 312.13 196.87 311.562C196.498 310.994 196.314 310.283 196.32 309.431V296.097ZM204.912 313V299.364H208.125V313H204.912ZM206.527 297.428C206.018 297.428 205.58 297.26 205.213 296.922C204.846 296.579 204.663 296.168 204.663 295.688C204.663 295.203 204.846 294.792 205.213 294.454C205.58 294.111 206.018 293.939 206.527 293.939C207.042 293.939 207.48 294.111 207.841 294.454C208.208 294.792 208.392 295.203 208.392 295.688C208.392 296.168 208.208 296.579 207.841 296.922C207.48 297.26 207.042 297.428 206.527 297.428ZM217.378 313.266C216.047 313.266 214.892 312.973 213.916 312.387C212.939 311.801 212.182 310.982 211.643 309.928C211.11 308.875 210.844 307.644 210.844 306.235C210.844 304.826 211.11 303.592 211.643 302.533C212.182 301.474 212.939 300.651 213.916 300.065C214.892 299.479 216.047 299.186 217.378 299.186C218.71 299.186 219.864 299.479 220.841 300.065C221.817 300.651 222.572 301.474 223.104 302.533C223.643 303.592 223.912 304.826 223.912 306.235C223.912 307.644 223.643 308.875 223.104 309.928C222.572 310.982 221.817 311.801 220.841 312.387C219.864 312.973 218.71 313.266 217.378 313.266ZM217.396 310.692C218.118 310.692 218.722 310.493 219.207 310.097C219.692 309.694 220.053 309.156 220.29 308.481C220.533 307.806 220.654 307.055 220.654 306.226C220.654 305.392 220.533 304.637 220.29 303.962C220.053 303.282 219.692 302.74 219.207 302.338C218.722 301.935 218.118 301.734 217.396 301.734C216.656 301.734 216.041 301.935 215.549 302.338C215.064 302.74 214.7 303.282 214.457 303.962C214.221 304.637 214.102 305.392 214.102 306.226C214.102 307.055 214.221 307.806 214.457 308.481C214.7 309.156 215.064 309.694 215.549 310.097C216.041 310.493 216.656 310.692 217.396 310.692ZM229.854 305.01V313H226.64V299.364H229.712V301.681H229.872C230.185 300.917 230.685 300.311 231.372 299.861C232.064 299.411 232.92 299.186 233.938 299.186C234.879 299.186 235.698 299.387 236.397 299.79C237.101 300.192 237.646 300.775 238.03 301.539C238.421 302.302 238.613 303.228 238.607 304.317V313H235.394V304.815C235.394 303.903 235.157 303.19 234.683 302.675C234.216 302.16 233.568 301.903 232.739 301.903C232.177 301.903 231.677 302.027 231.239 302.276C230.807 302.518 230.466 302.87 230.218 303.332C229.975 303.794 229.854 304.353 229.854 305.01Z" fill="white"/>
<ellipse cx="161.5" cy="234" rx="77.5" ry="14" fill="url(#paint1_radial_90_88)" fill-opacity="0.75"/>
<defs>
<linearGradient id="paint0_linear_90_88" x1="163" y1="0" x2="163" y2="220" gradientUnits="userSpaceOnUse">
<stop offset="0.491957" stop-color="#E60D11"/>
<stop offset="0.826923" stop-color="#AC0A0D"/>
<stop offset="1" stop-color="#800709"/>
</linearGradient>
<radialGradient id="paint1_radial_90_88" cx="0" cy="0" r="1" gradientUnits="userSpaceOnUse" gradientTransform="translate(162 220) scale(77 14)">
<stop stop-color="#90080A"/>
<stop offset="0.839168" stop-color="#EB8787"/>
</radialGradient>
</defs>
</svg>
