<svg width="60" height="60" viewBox="0 0 60 60" fill="none" xmlns="http://www.w3.org/2000/svg">
<path d="M17.5 12.075C17.5 15.9425 21.815 20.02 25.375 22.725C27.3725 24.24 28.37 25 30 25C31.63 25 32.6275 24.24 34.625 22.725C38.185 20.0175 42.5 15.94 42.5 12.075C42.5 5.10002 35.625 2.49252 30 7.88252C24.375 2.49252 17.5 5.10002 17.5 12.075ZM15.65 53.47H15C12.6425 53.47 11.465 53.47 10.7325 52.7375C10 52.01 10 50.83 10 48.4725V45.6925C10 44.3975 10 43.75 10.3325 43.17C10.665 42.59 11.1675 42.3 12.1725 41.715C18.7875 37.8675 28.18 35.7025 34.4475 39.44C34.8692 39.6917 35.2442 39.9984 35.5725 40.36C35.9089 40.7277 36.1681 41.1591 36.3348 41.6287C36.5014 42.0984 36.5722 42.5967 36.5428 43.0941C36.5134 43.5916 36.3845 44.0781 36.1638 44.5248C35.943 44.9716 35.6348 45.3695 35.2575 45.695C34.9569 45.9804 34.5901 46.1866 34.19 46.295C34.49 46.26 34.7775 46.2209 35.0525 46.1775C37.33 45.815 39.2425 44.595 40.9925 43.2725L45.5125 39.86C46.3193 39.2746 47.2906 38.9593 48.2875 38.9593C49.2844 38.9593 50.2557 39.2746 51.0625 39.86C52.495 40.9425 52.935 42.725 52.0275 44.18C50.97 45.875 49.48 48.0425 48.05 49.3675C46.62 50.6925 44.485 51.8775 42.745 52.7175C40.815 53.65 38.685 54.185 36.5175 54.5375C32.1225 55.2475 27.5425 55.1375 23.1925 54.2425C20.7108 53.7317 18.1837 53.4712 15.65 53.47Z" fill="black"/>
</svg>
