<svg width="440" height="956" viewBox="0 0 440 956" fill="none" xmlns="http://www.w3.org/2000/svg">
<g clip-path="url(#clip0_85_46)">
<rect width="440" height="956" fill="white"/>
<rect width="440" height="956" fill="url(#paint0_linear_85_46)"/>
<path d="M135.049 119V115.075H143.874V119H135.049ZM135.049 105.425V101.5H143.874V105.425H135.049ZM135.049 111.8V108H143.374V111.8H135.049ZM131.749 101.5H136.399V119H131.749V101.5ZM164.878 111.55V119H160.553V112C160.553 111.4 160.453 110.942 160.253 110.625C160.069 110.292 159.753 110.125 159.303 110.125C159.036 110.125 158.794 110.192 158.578 110.325C158.361 110.458 158.194 110.667 158.078 110.95C157.961 111.217 157.903 111.567 157.903 112V119H153.578V112C153.578 111.4 153.478 110.942 153.278 110.625C153.094 110.292 152.778 110.125 152.328 110.125C152.061 110.125 151.819 110.192 151.603 110.325C151.386 110.458 151.219 110.667 151.103 110.95C150.986 111.217 150.928 111.567 150.928 112V119H146.803V107.5H150.928V109.225C151.244 108.608 151.678 108.125 152.228 107.775C152.794 107.408 153.486 107.225 154.303 107.225C155.219 107.225 155.936 107.383 156.453 107.7C156.969 108 157.344 108.45 157.578 109.05C158.011 108.483 158.536 108.042 159.153 107.725C159.786 107.392 160.494 107.225 161.278 107.225C162.211 107.225 162.936 107.4 163.453 107.75C163.969 108.083 164.336 108.575 164.553 109.225C164.769 109.858 164.878 110.633 164.878 111.55ZM173.854 119.25C172.437 119.25 171.212 119.008 170.179 118.525C169.162 118.025 168.379 117.333 167.829 116.45C167.279 115.55 167.004 114.483 167.004 113.25C167.004 112 167.27 110.933 167.804 110.05C168.337 109.15 169.104 108.458 170.104 107.975C171.104 107.492 172.304 107.25 173.704 107.25C175.104 107.25 176.279 107.475 177.229 107.925C178.179 108.375 178.904 109.033 179.404 109.9C179.904 110.75 180.154 111.8 180.154 113.05C180.154 113.25 180.145 113.45 180.129 113.65C180.129 113.833 180.12 114 180.104 114.15H169.379V111.925H176.154L175.229 113.075C175.312 112.942 175.387 112.792 175.454 112.625C175.52 112.458 175.554 112.317 175.554 112.2C175.554 111.733 175.47 111.342 175.304 111.025C175.154 110.692 174.929 110.442 174.629 110.275C174.345 110.092 174.004 110 173.604 110C173.104 110 172.687 110.117 172.354 110.35C172.02 110.583 171.77 110.942 171.604 111.425C171.437 111.892 171.354 112.492 171.354 113.225C171.337 113.875 171.42 114.425 171.604 114.875C171.787 115.325 172.054 115.675 172.404 115.925C172.754 116.158 173.187 116.275 173.704 116.275C174.337 116.275 174.87 116.167 175.304 115.95C175.754 115.717 176.104 115.383 176.354 114.95L180.254 115.725C179.637 116.908 178.795 117.792 177.729 118.375C176.679 118.958 175.387 119.25 173.854 119.25ZM186.599 107.5V119H182.374V107.5H186.599ZM189.874 111.925C189.691 111.725 189.482 111.567 189.249 111.45C189.032 111.317 188.757 111.25 188.424 111.25C188.091 111.25 187.782 111.342 187.499 111.525C187.216 111.708 186.991 111.983 186.824 112.35C186.674 112.717 186.599 113.175 186.599 113.725L185.699 112C185.699 111.083 185.882 110.267 186.249 109.55C186.616 108.833 187.099 108.267 187.699 107.85C188.316 107.417 188.957 107.2 189.624 107.2C190.041 107.2 190.441 107.3 190.824 107.5C191.207 107.683 191.491 107.917 191.674 108.2L189.874 111.925ZM192.449 119.85H196.599C196.665 120.3 196.799 120.658 196.999 120.925C197.199 121.192 197.465 121.383 197.799 121.5C198.132 121.617 198.499 121.675 198.899 121.675C199.415 121.675 199.865 121.558 200.249 121.325C200.649 121.108 200.957 120.783 201.174 120.35C201.407 119.917 201.524 119.383 201.524 118.75V107.5H205.649V118.75C205.649 120.267 205.357 121.483 204.774 122.4C204.19 123.333 203.407 124.008 202.424 124.425C201.457 124.842 200.357 125.05 199.124 125.05C197.59 125.05 196.357 124.833 195.424 124.4C194.49 123.967 193.79 123.35 193.324 122.55C192.857 121.767 192.565 120.867 192.449 119.85ZM192.199 113.05C192.199 111.733 192.457 110.65 192.974 109.8C193.507 108.95 194.182 108.317 194.999 107.9C195.832 107.467 196.699 107.25 197.599 107.25C198.565 107.25 199.424 107.475 200.174 107.925C200.924 108.375 201.515 109.033 201.949 109.9C202.399 110.75 202.624 111.8 202.624 113.05C202.624 114.283 202.399 115.333 201.949 116.2C201.515 117.067 200.924 117.725 200.174 118.175C199.424 118.625 198.565 118.85 197.599 118.85C196.699 118.85 195.832 118.642 194.999 118.225C194.182 117.792 193.507 117.15 192.974 116.3C192.457 115.433 192.199 114.35 192.199 113.05ZM196.749 113.05C196.749 113.55 196.857 113.983 197.074 114.35C197.29 114.717 197.582 114.992 197.949 115.175C198.315 115.358 198.715 115.45 199.149 115.45C199.532 115.45 199.907 115.367 200.274 115.2C200.64 115.017 200.94 114.75 201.174 114.4C201.407 114.05 201.524 113.6 201.524 113.05C201.524 112.633 201.457 112.275 201.324 111.975C201.19 111.675 201.007 111.425 200.774 111.225C200.54 111.025 200.282 110.883 199.999 110.8C199.715 110.7 199.432 110.65 199.149 110.65C198.715 110.65 198.315 110.742 197.949 110.925C197.582 111.108 197.29 111.383 197.074 111.75C196.857 112.1 196.749 112.533 196.749 113.05ZM214.601 119.25C213.184 119.25 211.959 119.008 210.926 118.525C209.909 118.025 209.126 117.333 208.576 116.45C208.026 115.55 207.751 114.483 207.751 113.25C207.751 112 208.017 110.933 208.551 110.05C209.084 109.15 209.851 108.458 210.851 107.975C211.851 107.492 213.051 107.25 214.451 107.25C215.851 107.25 217.026 107.475 217.976 107.925C218.926 108.375 219.651 109.033 220.151 109.9C220.651 110.75 220.901 111.8 220.901 113.05C220.901 113.25 220.892 113.45 220.876 113.65C220.876 113.833 220.867 114 220.851 114.15H210.126V111.925H216.901L215.976 113.075C216.059 112.942 216.134 112.792 216.201 112.625C216.267 112.458 216.301 112.317 216.301 112.2C216.301 111.733 216.217 111.342 216.051 111.025C215.901 110.692 215.676 110.442 215.376 110.275C215.092 110.092 214.751 110 214.351 110C213.851 110 213.434 110.117 213.101 110.35C212.767 110.583 212.517 110.942 212.351 111.425C212.184 111.892 212.101 112.492 212.101 113.225C212.084 113.875 212.167 114.425 212.351 114.875C212.534 115.325 212.801 115.675 213.151 115.925C213.501 116.158 213.934 116.275 214.451 116.275C215.084 116.275 215.617 116.167 216.051 115.95C216.501 115.717 216.851 115.383 217.101 114.95L221.001 115.725C220.384 116.908 219.542 117.792 218.476 118.375C217.426 118.958 216.134 119.25 214.601 119.25ZM230.596 112C230.596 111.4 230.496 110.942 230.296 110.625C230.096 110.292 229.713 110.125 229.146 110.125C228.813 110.125 228.513 110.192 228.246 110.325C227.996 110.458 227.796 110.667 227.646 110.95C227.513 111.233 227.446 111.583 227.446 112V119H223.121V107.5H227.446V109.2C227.763 108.6 228.204 108.125 228.771 107.775C229.354 107.408 230.088 107.225 230.971 107.225C232.471 107.225 233.538 107.608 234.171 108.375C234.804 109.125 235.121 110.183 235.121 111.55V119H230.596V112ZM241.692 113.25C241.692 113.8 241.817 114.275 242.067 114.675C242.317 115.075 242.659 115.383 243.092 115.6C243.526 115.8 243.992 115.9 244.492 115.9C244.909 115.9 245.317 115.842 245.717 115.725C246.117 115.608 246.484 115.433 246.817 115.2C247.167 114.95 247.459 114.65 247.692 114.3V118.35C247.292 118.6 246.817 118.817 246.267 119C245.717 119.167 244.992 119.25 244.092 119.25C242.776 119.25 241.601 119.008 240.567 118.525C239.534 118.025 238.717 117.325 238.117 116.425C237.534 115.525 237.242 114.467 237.242 113.25C237.242 112.017 237.534 110.958 238.117 110.075C238.717 109.175 239.534 108.483 240.567 108C241.601 107.5 242.776 107.25 244.092 107.25C244.992 107.25 245.717 107.342 246.267 107.525C246.817 107.692 247.292 107.892 247.692 108.125V112.175C247.459 111.808 247.151 111.508 246.767 111.275C246.401 111.042 246.017 110.875 245.617 110.775C245.217 110.658 244.842 110.6 244.492 110.6C243.992 110.6 243.526 110.717 243.092 110.95C242.659 111.183 242.317 111.5 242.067 111.9C241.817 112.3 241.692 112.75 241.692 113.25ZM262.868 107.5L255.368 124.5H251.093L253.793 118.275L248.643 107.5H253.343L257.068 116.8L254.793 116.775L258.493 107.5H262.868ZM264.166 107.025V102.9L273.291 101.15V119H268.641V105.975L264.166 107.025ZM281.4 110.25C281.4 111.017 281.467 111.708 281.6 112.325C281.75 112.942 281.95 113.467 282.2 113.9C282.45 114.333 282.75 114.667 283.1 114.9C283.45 115.117 283.833 115.225 284.25 115.225C284.683 115.225 285.067 115.117 285.4 114.9C285.75 114.667 286.05 114.333 286.3 113.9C286.567 113.467 286.767 112.942 286.9 112.325C287.05 111.708 287.125 111.017 287.125 110.25C287.125 109.483 287.05 108.792 286.9 108.175C286.767 107.558 286.567 107.033 286.3 106.6C286.05 106.167 285.75 105.842 285.4 105.625C285.067 105.392 284.683 105.275 284.25 105.275C283.833 105.275 283.45 105.392 283.1 105.625C282.75 105.842 282.45 106.167 282.2 106.6C281.95 107.033 281.75 107.558 281.6 108.175C281.467 108.792 281.4 109.483 281.4 110.25ZM276.75 110.25C276.75 108.3 277.067 106.65 277.7 105.3C278.333 103.95 279.208 102.925 280.325 102.225C281.458 101.508 282.767 101.15 284.25 101.15C285.817 101.15 287.158 101.508 288.275 102.225C289.392 102.925 290.25 103.95 290.85 105.3C291.467 106.65 291.775 108.3 291.775 110.25C291.775 112.2 291.467 113.85 290.85 115.2C290.25 116.55 289.392 117.583 288.275 118.3C287.158 119 285.817 119.35 284.25 119.35C282.767 119.35 281.458 119 280.325 118.3C279.208 117.583 278.333 116.55 277.7 115.2C277.067 113.85 276.75 112.2 276.75 110.25ZM294.667 105.725C294.667 104.692 294.95 103.833 295.517 103.15C296.1 102.45 296.858 101.925 297.792 101.575C298.742 101.225 299.775 101.05 300.892 101.05C302.025 101.05 303.058 101.225 303.992 101.575C304.942 101.925 305.7 102.45 306.267 103.15C306.85 103.833 307.142 104.692 307.142 105.725C307.142 106.558 306.95 107.283 306.567 107.9C306.2 108.5 305.708 109 305.092 109.4C304.475 109.783 303.8 110.067 303.067 110.25C302.333 110.433 301.608 110.525 300.892 110.525C300.175 110.525 299.45 110.433 298.717 110.25C298 110.067 297.333 109.783 296.717 109.4C296.1 109 295.6 108.5 295.217 107.9C294.85 107.283 294.667 106.558 294.667 105.725ZM299.217 106.175C299.217 106.525 299.283 106.833 299.417 107.1C299.567 107.35 299.767 107.558 300.017 107.725C300.283 107.875 300.575 107.95 300.892 107.95C301.242 107.95 301.542 107.875 301.792 107.725C302.042 107.558 302.233 107.35 302.367 107.1C302.517 106.833 302.592 106.525 302.592 106.175C302.592 105.825 302.517 105.517 302.367 105.25C302.233 104.983 302.042 104.783 301.792 104.65C301.542 104.5 301.242 104.425 300.892 104.425C300.575 104.425 300.283 104.5 300.017 104.65C299.767 104.783 299.567 104.983 299.417 105.25C299.283 105.517 299.217 105.825 299.217 106.175ZM294.042 114.25C294.042 113.283 294.258 112.475 294.692 111.825C295.125 111.158 295.692 110.625 296.392 110.225C297.092 109.808 297.833 109.508 298.617 109.325C299.417 109.142 300.175 109.05 300.892 109.05C301.608 109.05 302.367 109.142 303.167 109.325C303.967 109.508 304.717 109.808 305.417 110.225C306.117 110.625 306.683 111.158 307.117 111.825C307.55 112.475 307.767 113.283 307.767 114.25C307.767 115.083 307.575 115.825 307.192 116.475C306.825 117.125 306.308 117.667 305.642 118.1C304.992 118.533 304.258 118.867 303.442 119.1C302.625 119.333 301.775 119.45 300.892 119.45C300.025 119.45 299.175 119.333 298.342 119.1C297.525 118.867 296.792 118.533 296.142 118.1C295.492 117.667 294.975 117.125 294.592 116.475C294.225 115.825 294.042 115.083 294.042 114.25ZM298.892 113.5C298.892 113.95 298.975 114.325 299.142 114.625C299.325 114.925 299.567 115.158 299.867 115.325C300.183 115.475 300.525 115.55 300.892 115.55C301.275 115.55 301.617 115.475 301.917 115.325C302.233 115.158 302.475 114.925 302.642 114.625C302.825 114.325 302.917 113.95 302.917 113.5C302.917 113.133 302.825 112.8 302.642 112.5C302.475 112.2 302.233 111.967 301.917 111.8C301.617 111.617 301.275 111.525 300.892 111.525C300.525 111.525 300.183 111.617 299.867 111.8C299.567 111.967 299.325 112.2 299.142 112.5C298.975 112.8 298.892 113.133 298.892 113.5Z" fill="black"/>
<path fill-rule="evenodd" clip-rule="evenodd" d="M43.9999 95.6667C40.9683 95.6661 37.9894 96.4607 35.3608 97.9712C32.7322 99.4817 30.5457 101.655 29.0196 104.275C27.4935 106.894 26.6812 109.868 26.6637 112.9C26.6462 115.932 27.4242 118.915 28.9199 121.552C29.9309 120.238 31.2305 119.174 32.7183 118.443C34.206 117.711 35.8421 117.332 37.4999 117.333H50.4999C52.1578 117.332 53.7938 117.711 55.2816 118.443C56.7693 119.174 58.0689 120.238 59.0799 121.552C60.5757 118.915 61.3537 115.932 61.3362 112.9C61.3187 109.868 60.5063 106.894 58.9802 104.275C57.4541 101.655 55.2677 99.4817 52.6391 97.9712C50.0104 96.4607 47.0316 95.6661 43.9999 95.6667ZM61.2098 126.165C61.4813 125.811 61.7413 125.448 61.9898 125.077C64.3918 121.508 65.6722 117.302 65.6666 113C65.6666 101.034 55.9664 91.3333 43.9999 91.3333C32.0334 91.3333 22.3333 101.034 22.3333 113C22.3264 117.76 23.8934 122.388 26.7901 126.165L26.7793 126.204L27.5484 127.099C29.5805 129.474 32.1036 131.381 34.9438 132.688C37.7839 133.994 40.8737 134.669 43.9999 134.667C44.4679 134.667 44.9331 134.652 45.3953 134.623C49.3048 134.377 53.0733 133.07 56.2958 130.843C57.8369 129.779 59.2338 128.521 60.4514 127.099L61.2206 126.204L61.2098 126.165ZM43.9999 100C42.276 100 40.6227 100.685 39.4037 101.904C38.1848 103.123 37.4999 104.776 37.4999 106.5C37.4999 108.224 38.1848 109.877 39.4037 111.096C40.6227 112.315 42.276 113 43.9999 113C45.7238 113 47.3772 112.315 48.5961 111.096C49.8151 109.877 50.4999 108.224 50.4999 106.5C50.4999 104.776 49.8151 103.123 48.5961 101.904C47.3772 100.685 45.7238 100 43.9999 100Z" fill="black"/>
<path d="M401.333 122C402.483 122 403.585 122.457 404.397 123.269C405.21 124.082 405.667 125.184 405.667 126.333C405.667 127.483 405.21 128.585 404.397 129.397C403.585 130.21 402.483 130.667 401.333 130.667C400.184 130.667 399.082 130.21 398.269 129.397C397.457 128.585 397 127.483 397 126.333C397 125.184 397.457 124.082 398.269 123.269C399.082 122.457 400.184 122 401.333 122ZM401.333 109C402.483 109 403.585 109.457 404.397 110.269C405.21 111.082 405.667 112.184 405.667 113.333C405.667 114.483 405.21 115.585 404.397 116.397C403.585 117.21 402.483 117.667 401.333 117.667C400.184 117.667 399.082 117.21 398.269 116.397C397.457 115.585 397 114.483 397 113.333C397 112.184 397.457 111.082 398.269 110.269C399.082 109.457 400.184 109 401.333 109ZM401.333 96C402.483 96 403.585 96.4565 404.397 97.2692C405.21 98.0819 405.667 99.1841 405.667 100.333C405.667 101.483 405.21 102.585 404.397 103.397C403.585 104.21 402.483 104.667 401.333 104.667C400.184 104.667 399.082 104.21 398.269 103.397C397.457 102.585 397 101.483 397 100.333C397 99.1841 397.457 98.0819 398.269 97.2692C399.082 96.4565 400.184 96 401.333 96ZM401.333 98.1667C400.759 98.1667 400.208 98.3949 399.801 98.8013C399.395 99.2076 399.167 99.7587 399.167 100.333C399.167 100.908 399.395 101.459 399.801 101.865C400.208 102.272 400.759 102.5 401.333 102.5C401.908 102.5 402.459 102.272 402.865 101.865C403.272 101.459 403.5 100.908 403.5 100.333C403.5 99.7587 403.272 99.2076 402.865 98.8013C402.459 98.3949 401.908 98.1667 401.333 98.1667ZM401.333 111.167C400.759 111.167 400.208 111.395 399.801 111.801C399.395 112.208 399.167 112.759 399.167 113.333C399.167 113.908 399.395 114.459 399.801 114.865C400.208 115.272 400.759 115.5 401.333 115.5C401.908 115.5 402.459 115.272 402.865 114.865C403.272 114.459 403.5 113.908 403.5 113.333C403.5 112.759 403.272 112.208 402.865 111.801C402.459 111.395 401.908 111.167 401.333 111.167ZM401.333 124.167C400.759 124.167 400.208 124.395 399.801 124.801C399.395 125.208 399.167 125.759 399.167 126.333C399.167 126.908 399.395 127.459 399.801 127.865C400.208 128.272 400.759 128.5 401.333 128.5C401.908 128.5 402.459 128.272 402.865 127.865C403.272 127.459 403.5 126.908 403.5 126.333C403.5 125.759 403.272 125.208 402.865 124.801C402.459 124.395 401.908 124.167 401.333 124.167Z" fill="black"/>
<circle cx="220" cy="478" r="108.5" fill="url(#paint1_linear_85_46)" stroke="#700000" stroke-width="3"/>
<path d="M189.173 471.538C189.055 470.236 188.528 469.224 187.593 468.502C186.67 467.768 185.35 467.401 183.634 467.401C182.497 467.401 181.55 467.549 180.793 467.845C180.035 468.141 179.467 468.549 179.088 469.07C178.709 469.579 178.514 470.165 178.502 470.828C178.478 471.373 178.585 471.852 178.822 472.266C179.07 472.681 179.425 473.048 179.887 473.367C180.361 473.675 180.929 473.947 181.592 474.184C182.254 474.421 183 474.628 183.829 474.805L186.954 475.516C188.753 475.906 190.339 476.427 191.712 477.078C193.097 477.729 194.257 478.504 195.192 479.404C196.139 480.304 196.856 481.339 197.341 482.511C197.826 483.683 198.075 484.997 198.087 486.453C198.075 488.75 197.495 490.72 196.347 492.366C195.198 494.011 193.547 495.272 191.393 496.148C189.25 497.024 186.664 497.462 183.634 497.462C180.591 497.462 177.94 497.006 175.679 496.094C173.418 495.183 171.66 493.798 170.406 491.94C169.151 490.081 168.506 487.732 168.47 484.891H176.886C176.957 486.062 177.271 487.039 177.827 487.82C178.384 488.602 179.147 489.193 180.118 489.596C181.1 489.998 182.237 490.2 183.527 490.2C184.711 490.2 185.717 490.04 186.545 489.72C187.386 489.401 188.031 488.957 188.481 488.388C188.931 487.82 189.161 487.169 189.173 486.435C189.161 485.749 188.948 485.163 188.534 484.678C188.12 484.18 187.481 483.754 186.616 483.399C185.764 483.032 184.675 482.695 183.349 482.387L179.55 481.499C176.401 480.777 173.921 479.611 172.11 478.001C170.299 476.38 169.399 474.19 169.411 471.432C169.399 469.183 170.003 467.212 171.222 465.519C172.442 463.826 174.128 462.507 176.283 461.56C178.437 460.613 180.893 460.139 183.651 460.139C186.469 460.139 188.913 460.619 190.984 461.577C193.068 462.524 194.683 463.856 195.832 465.572C196.98 467.289 197.566 469.277 197.589 471.538H189.173ZM236.847 478.818C236.847 482.819 236.078 486.21 234.539 488.992C233 491.774 230.917 493.887 228.289 495.331C225.673 496.775 222.737 497.497 219.482 497.497C216.215 497.497 213.274 496.769 210.658 495.313C208.042 493.857 205.964 491.744 204.425 488.974C202.898 486.193 202.135 482.807 202.135 478.818C202.135 474.817 202.898 471.426 204.425 468.644C205.964 465.862 208.042 463.75 210.658 462.305C213.274 460.861 216.215 460.139 219.482 460.139C222.737 460.139 225.673 460.861 228.289 462.305C230.917 463.75 233 465.862 234.539 468.644C236.078 471.426 236.847 474.817 236.847 478.818ZM227.863 478.818C227.863 476.451 227.526 474.45 226.851 472.817C226.188 471.183 225.229 469.946 223.974 469.106C222.732 468.265 221.234 467.845 219.482 467.845C217.742 467.845 216.245 468.265 214.99 469.106C213.735 469.946 212.771 471.183 212.096 472.817C211.433 474.45 211.102 476.451 211.102 478.818C211.102 481.186 211.433 483.186 212.096 484.82C212.771 486.453 213.735 487.69 214.99 488.531C216.245 489.371 217.742 489.791 219.482 489.791C221.234 489.791 222.732 489.371 223.974 488.531C225.229 487.69 226.188 486.453 226.851 484.82C227.526 483.186 227.863 481.186 227.863 478.818ZM261.634 471.538C261.516 470.236 260.989 469.224 260.054 468.502C259.131 467.768 257.811 467.401 256.094 467.401C254.958 467.401 254.011 467.549 253.254 467.845C252.496 468.141 251.928 468.549 251.549 469.07C251.17 469.579 250.975 470.165 250.963 470.828C250.939 471.373 251.046 471.852 251.283 472.266C251.531 472.681 251.886 473.048 252.348 473.367C252.821 473.675 253.39 473.947 254.053 474.184C254.715 474.421 255.461 474.628 256.29 474.805L259.415 475.516C261.214 475.906 262.8 476.427 264.173 477.078C265.558 477.729 266.718 478.504 267.653 479.404C268.6 480.304 269.317 481.339 269.802 482.511C270.287 483.683 270.536 484.997 270.548 486.453C270.536 488.75 269.956 490.72 268.808 492.366C267.659 494.011 266.008 495.272 263.854 496.148C261.711 497.024 259.125 497.462 256.094 497.462C253.052 497.462 250.401 497.006 248.14 496.094C245.879 495.183 244.121 493.798 242.866 491.94C241.612 490.081 240.967 487.732 240.931 484.891H249.347C249.418 486.062 249.732 487.039 250.288 487.82C250.845 488.602 251.608 489.193 252.579 489.596C253.561 489.998 254.698 490.2 255.988 490.2C257.172 490.2 258.178 490.04 259.006 489.72C259.847 489.401 260.492 488.957 260.942 488.388C261.392 487.82 261.622 487.169 261.634 486.435C261.622 485.749 261.409 485.163 260.995 484.678C260.581 484.18 259.942 483.754 259.077 483.399C258.225 483.032 257.136 482.695 255.81 482.387L252.011 481.499C248.862 480.777 246.382 479.611 244.571 478.001C242.76 476.38 241.86 474.19 241.872 471.432C241.86 469.183 242.464 467.212 243.683 465.519C244.902 463.826 246.589 462.507 248.744 461.56C250.898 460.613 253.354 460.139 256.112 460.139C258.929 460.139 261.374 460.619 263.445 461.577C265.529 462.524 267.144 463.856 268.293 465.572C269.441 467.289 270.027 469.277 270.05 471.538H261.634Z" fill="white"/>
<path d="M104.643 641.909C104.643 643.868 104.276 645.546 103.542 646.943C102.814 648.334 101.82 649.399 100.559 650.139C99.3043 650.879 97.8808 651.249 96.2888 651.249C94.6967 651.249 93.2703 650.879 92.0096 650.139C90.7549 649.393 89.7606 648.325 89.0267 646.934C88.2987 645.537 87.9347 643.862 87.9347 641.909C87.9347 639.95 88.2987 638.275 89.0267 636.884C89.7606 635.487 90.7549 634.419 92.0096 633.679C93.2703 632.94 94.6967 632.57 96.2888 632.57C97.8808 632.57 99.3043 632.94 100.559 633.679C101.82 634.419 102.814 635.487 103.542 636.884C104.276 638.275 104.643 639.95 104.643 641.909ZM101.331 641.909C101.331 640.53 101.115 639.367 100.683 638.42C100.257 637.467 99.6653 636.748 98.9077 636.263C98.1501 635.772 97.2772 635.526 96.2888 635.526C95.3004 635.526 94.4274 635.772 93.6698 636.263C92.9122 636.748 92.3174 637.467 91.8853 638.42C91.4592 639.367 91.2461 640.53 91.2461 641.909C91.2461 643.288 91.4592 644.454 91.8853 645.407C92.3174 646.354 92.9122 647.073 93.6698 647.564C94.4274 648.05 95.3004 648.292 96.2888 648.292C97.2772 648.292 98.1501 648.05 98.9077 647.564C99.6653 647.073 100.257 646.354 100.683 645.407C101.115 644.454 101.331 643.288 101.331 641.909ZM110.828 643.01V651H107.615V637.364H110.686V639.681H110.846C111.16 638.917 111.66 638.311 112.347 637.861C113.039 637.411 113.894 637.186 114.912 637.186C115.853 637.186 116.673 637.387 117.371 637.79C118.076 638.192 118.62 638.775 119.005 639.539C119.396 640.302 119.588 641.228 119.582 642.317V651H116.368V642.815C116.368 641.903 116.131 641.19 115.658 640.675C115.19 640.16 114.542 639.903 113.714 639.903C113.151 639.903 112.651 640.027 112.213 640.276C111.781 640.518 111.441 640.87 111.192 641.332C110.95 641.794 110.828 642.353 110.828 643.01ZM128.886 651.266C127.519 651.266 126.338 650.982 125.344 650.414C124.355 649.84 123.595 649.029 123.062 647.982C122.529 646.928 122.263 645.688 122.263 644.262C122.263 642.859 122.529 641.628 123.062 640.569C123.601 639.503 124.352 638.675 125.317 638.083C126.282 637.485 127.415 637.186 128.717 637.186C129.558 637.186 130.351 637.322 131.097 637.594C131.848 637.861 132.511 638.275 133.085 638.837C133.665 639.4 134.121 640.116 134.452 640.986C134.784 641.85 134.95 642.88 134.95 644.075V645.061H123.772V642.895H131.869C131.863 642.279 131.73 641.732 131.469 641.252C131.209 640.767 130.845 640.385 130.377 640.107C129.916 639.829 129.377 639.69 128.762 639.69C128.105 639.69 127.528 639.849 127.03 640.169C126.533 640.483 126.146 640.897 125.867 641.412C125.595 641.921 125.456 642.48 125.45 643.09V644.981C125.45 645.774 125.595 646.455 125.885 647.023C126.175 647.585 126.581 648.017 127.102 648.319C127.622 648.615 128.232 648.763 128.93 648.763C129.398 648.763 129.821 648.698 130.2 648.567C130.579 648.431 130.907 648.233 131.185 647.973C131.463 647.712 131.674 647.39 131.816 647.005L134.816 647.342C134.627 648.135 134.266 648.828 133.733 649.42C133.207 650.006 132.532 650.461 131.709 650.787C130.886 651.107 129.945 651.266 128.886 651.266ZM150.679 637.364V639.849H142.84V637.364H150.679ZM144.775 634.097H147.989V646.898C147.989 647.33 148.054 647.662 148.184 647.893C148.32 648.118 148.498 648.272 148.717 648.354C148.936 648.437 149.178 648.479 149.445 648.479C149.646 648.479 149.83 648.464 149.995 648.434C150.167 648.405 150.297 648.378 150.386 648.354L150.927 650.867C150.756 650.926 150.51 650.991 150.191 651.062C149.877 651.133 149.492 651.175 149.036 651.186C148.232 651.21 147.506 651.089 146.861 650.822C146.216 650.55 145.704 650.13 145.326 649.562C144.953 648.994 144.769 648.283 144.775 647.431V634.097ZM157.291 651.275C156.427 651.275 155.648 651.121 154.956 650.814C154.269 650.5 153.725 650.038 153.322 649.429C152.926 648.819 152.727 648.067 152.727 647.174C152.727 646.404 152.869 645.768 153.154 645.265C153.438 644.762 153.825 644.359 154.317 644.058C154.808 643.756 155.361 643.528 155.977 643.374C156.598 643.214 157.24 643.099 157.903 643.028C158.702 642.945 159.35 642.871 159.847 642.806C160.345 642.735 160.706 642.628 160.931 642.486C161.161 642.338 161.277 642.11 161.277 641.803V641.749C161.277 641.08 161.078 640.563 160.682 640.196C160.285 639.829 159.714 639.645 158.969 639.645C158.181 639.645 157.557 639.817 157.095 640.16C156.64 640.503 156.332 640.909 156.172 641.376L153.171 640.95C153.408 640.122 153.799 639.429 154.343 638.873C154.888 638.311 155.554 637.89 156.341 637.612C157.128 637.328 157.998 637.186 158.951 637.186C159.608 637.186 160.262 637.263 160.913 637.417C161.564 637.571 162.159 637.825 162.697 638.18C163.236 638.53 163.668 639.006 163.993 639.61C164.325 640.213 164.491 640.968 164.491 641.874V651H161.401V649.127H161.295C161.099 649.506 160.824 649.861 160.469 650.192C160.12 650.518 159.679 650.781 159.146 650.982C158.619 651.178 158.001 651.275 157.291 651.275ZM158.125 648.914C158.77 648.914 159.33 648.786 159.803 648.532C160.277 648.272 160.641 647.928 160.895 647.502C161.155 647.076 161.286 646.611 161.286 646.108V644.501C161.185 644.584 161.013 644.661 160.771 644.732C160.534 644.803 160.268 644.865 159.972 644.919C159.676 644.972 159.383 645.019 159.093 645.061C158.803 645.102 158.551 645.138 158.338 645.167C157.859 645.232 157.43 645.339 157.051 645.487C156.672 645.635 156.373 645.842 156.154 646.108C155.935 646.369 155.826 646.706 155.826 647.12C155.826 647.712 156.042 648.159 156.474 648.461C156.906 648.763 157.456 648.914 158.125 648.914ZM167.722 656.114V637.364H170.883V639.619H171.069C171.235 639.287 171.469 638.935 171.77 638.562C172.072 638.183 172.481 637.861 172.996 637.594C173.51 637.322 174.167 637.186 174.966 637.186C176.02 637.186 176.97 637.455 177.816 637.994C178.668 638.527 179.343 639.317 179.84 640.364C180.343 641.406 180.595 642.684 180.595 644.2C180.595 645.697 180.349 646.969 179.858 648.017C179.367 649.065 178.698 649.864 177.852 650.414C177.005 650.964 176.047 651.24 174.975 651.24C174.194 651.24 173.546 651.109 173.031 650.849C172.516 650.589 172.102 650.275 171.788 649.908C171.48 649.535 171.241 649.183 171.069 648.852H170.936V656.114H167.722ZM170.874 644.182C170.874 645.064 170.998 645.836 171.247 646.499C171.501 647.162 171.865 647.68 172.339 648.053C172.818 648.42 173.398 648.603 174.079 648.603C174.789 648.603 175.384 648.414 175.863 648.035C176.342 647.65 176.703 647.126 176.946 646.463C177.195 645.795 177.319 645.034 177.319 644.182C177.319 643.335 177.198 642.584 176.955 641.927C176.712 641.27 176.351 640.755 175.872 640.382C175.393 640.009 174.795 639.823 174.079 639.823C173.392 639.823 172.809 640.003 172.33 640.364C171.85 640.725 171.486 641.231 171.238 641.882C170.995 642.533 170.874 643.3 170.874 644.182ZM200.326 640.968L197.396 641.288C197.313 640.992 197.168 640.714 196.961 640.453C196.76 640.193 196.488 639.983 196.144 639.823C195.801 639.663 195.381 639.583 194.884 639.583C194.215 639.583 193.653 639.728 193.197 640.018C192.747 640.308 192.525 640.684 192.531 641.146C192.525 641.542 192.67 641.865 192.966 642.113C193.268 642.362 193.765 642.566 194.458 642.726L196.784 643.223C198.074 643.501 199.033 643.942 199.66 644.546C200.293 645.15 200.613 645.94 200.619 646.916C200.613 647.774 200.361 648.532 199.864 649.189C199.373 649.84 198.689 650.349 197.814 650.716C196.938 651.083 195.931 651.266 194.795 651.266C193.126 651.266 191.783 650.917 190.765 650.219C189.747 649.514 189.14 648.535 188.945 647.28L192.078 646.978C192.22 647.594 192.522 648.058 192.984 648.372C193.446 648.686 194.046 648.843 194.786 648.843C195.55 648.843 196.162 648.686 196.624 648.372C197.091 648.058 197.325 647.671 197.325 647.209C197.325 646.819 197.174 646.496 196.872 646.241C196.577 645.987 196.115 645.792 195.488 645.656L193.162 645.167C191.854 644.895 190.886 644.436 190.258 643.791C189.631 643.14 189.32 642.317 189.326 641.323C189.32 640.483 189.548 639.755 190.01 639.139C190.477 638.518 191.126 638.038 191.954 637.701C192.789 637.358 193.75 637.186 194.839 637.186C196.437 637.186 197.695 637.526 198.613 638.207C199.536 638.888 200.107 639.808 200.326 640.968ZM209.306 651.266C207.939 651.266 206.758 650.982 205.764 650.414C204.775 649.84 204.015 649.029 203.482 647.982C202.949 646.928 202.683 645.688 202.683 644.262C202.683 642.859 202.949 641.628 203.482 640.569C204.021 639.503 204.772 638.675 205.737 638.083C206.702 637.485 207.835 637.186 209.137 637.186C209.978 637.186 210.771 637.322 211.516 637.594C212.268 637.861 212.931 638.275 213.505 638.837C214.085 639.4 214.541 640.116 214.872 640.986C215.204 641.85 215.369 642.88 215.369 644.075V645.061H204.192V642.895H212.289C212.283 642.279 212.15 641.732 211.889 641.252C211.629 640.767 211.265 640.385 210.797 640.107C210.336 639.829 209.797 639.69 209.182 639.69C208.525 639.69 207.948 639.849 207.45 640.169C206.953 640.483 206.566 640.897 206.287 641.412C206.015 641.921 205.876 642.48 205.87 643.09V644.981C205.87 645.774 206.015 646.455 206.305 647.023C206.595 647.585 207.001 648.017 207.521 648.319C208.042 648.615 208.652 648.763 209.35 648.763C209.818 648.763 210.241 648.698 210.62 648.567C210.999 648.431 211.327 648.233 211.605 647.973C211.883 647.712 212.094 647.39 212.236 647.005L215.236 647.342C215.047 648.135 214.686 648.828 214.153 649.42C213.626 650.006 212.952 650.461 212.129 650.787C211.306 651.107 210.365 651.266 209.306 651.266ZM221.302 643.01V651H218.088V637.364H221.16V639.681H221.32C221.634 638.917 222.134 638.311 222.82 637.861C223.513 637.411 224.368 637.186 225.386 637.186C226.327 637.186 227.147 637.387 227.845 637.79C228.549 638.192 229.094 638.775 229.479 639.539C229.869 640.302 230.062 641.228 230.056 642.317V651H226.842V642.815C226.842 641.903 226.605 641.19 226.132 640.675C225.664 640.16 225.016 639.903 224.187 639.903C223.625 639.903 223.125 640.027 222.687 640.276C222.255 640.518 221.915 640.87 221.666 641.332C221.423 641.794 221.302 642.353 221.302 643.01ZM238.383 651.24C237.312 651.24 236.353 650.964 235.507 650.414C234.66 649.864 233.991 649.065 233.5 648.017C233.009 646.969 232.763 645.697 232.763 644.2C232.763 642.684 233.012 641.406 233.509 640.364C234.012 639.317 234.69 638.527 235.542 637.994C236.394 637.455 237.344 637.186 238.392 637.186C239.191 637.186 239.848 637.322 240.363 637.594C240.878 637.861 241.286 638.183 241.588 638.562C241.89 638.935 242.124 639.287 242.289 639.619H242.422V632.818H245.645V651H242.485V648.852H242.289C242.124 649.183 241.884 649.535 241.57 649.908C241.256 650.275 240.842 650.589 240.327 650.849C239.812 651.109 239.164 651.24 238.383 651.24ZM239.28 648.603C239.96 648.603 240.54 648.42 241.02 648.053C241.499 647.68 241.863 647.162 242.112 646.499C242.36 645.836 242.485 645.064 242.485 644.182C242.485 643.3 242.36 642.533 242.112 641.882C241.869 641.231 241.508 640.725 241.029 640.364C240.555 640.003 239.972 639.823 239.28 639.823C238.564 639.823 237.966 640.009 237.486 640.382C237.007 640.755 236.646 641.27 236.403 641.927C236.161 642.584 236.039 643.335 236.039 644.182C236.039 645.034 236.161 645.795 236.403 646.463C236.652 647.126 237.016 647.65 237.495 648.035C237.981 648.414 238.575 648.603 239.28 648.603ZM259.847 640.968L256.918 641.288C256.835 640.992 256.69 640.714 256.483 640.453C256.282 640.193 256.009 639.983 255.666 639.823C255.323 639.663 254.902 639.583 254.405 639.583C253.737 639.583 253.174 639.728 252.719 640.018C252.269 640.308 252.047 640.684 252.053 641.146C252.047 641.542 252.192 641.865 252.488 642.113C252.79 642.362 253.287 642.566 253.979 642.726L256.305 643.223C257.595 643.501 258.554 643.942 259.182 644.546C259.815 645.15 260.134 645.94 260.14 646.916C260.134 647.774 259.883 648.532 259.386 649.189C258.895 649.84 258.211 650.349 257.335 650.716C256.459 651.083 255.453 651.266 254.317 651.266C252.648 651.266 251.304 650.917 250.286 650.219C249.268 649.514 248.661 648.535 248.466 647.28L251.6 646.978C251.742 647.594 252.044 648.058 252.505 648.372C252.967 648.686 253.568 648.843 254.308 648.843C255.071 648.843 255.684 648.686 256.145 648.372C256.613 648.058 256.847 647.671 256.847 647.209C256.847 646.819 256.696 646.496 256.394 646.241C256.098 645.987 255.636 645.792 255.009 645.656L252.683 645.167C251.375 644.895 250.407 644.436 249.78 643.791C249.153 643.14 248.842 642.317 248.848 641.323C248.842 640.483 249.07 639.755 249.531 639.139C249.999 638.518 250.647 638.038 251.476 637.701C252.31 637.358 253.272 637.186 254.361 637.186C255.959 637.186 257.217 637.526 258.134 638.207C259.057 638.888 259.628 639.808 259.847 640.968ZM272.205 643.01V651H268.992V632.818H272.134V639.681H272.294C272.614 638.911 273.108 638.305 273.777 637.861C274.451 637.411 275.31 637.186 276.351 637.186C277.298 637.186 278.124 637.384 278.828 637.781C279.533 638.177 280.077 638.757 280.462 639.521C280.852 640.284 281.048 641.217 281.048 642.317V651H277.834V642.815C277.834 641.897 277.597 641.184 277.124 640.675C276.656 640.16 275.999 639.903 275.153 639.903C274.585 639.903 274.076 640.027 273.626 640.276C273.182 640.518 272.833 640.87 272.578 641.332C272.33 641.794 272.205 642.353 272.205 643.01ZM290.361 651.266C288.993 651.266 287.813 650.982 286.818 650.414C285.83 649.84 285.069 649.029 284.537 647.982C284.004 646.928 283.738 645.688 283.738 644.262C283.738 642.859 284.004 641.628 284.537 640.569C285.075 639.503 285.827 638.675 286.792 638.083C287.756 637.485 288.89 637.186 290.192 637.186C291.032 637.186 291.825 637.322 292.571 637.594C293.323 637.861 293.986 638.275 294.56 638.837C295.14 639.4 295.596 640.116 295.927 640.986C296.258 641.85 296.424 642.88 296.424 644.075V645.061H285.247V642.895H293.344C293.338 642.279 293.204 641.732 292.944 641.252C292.684 640.767 292.32 640.385 291.852 640.107C291.39 639.829 290.852 639.69 290.236 639.69C289.579 639.69 289.002 639.849 288.505 640.169C288.008 640.483 287.62 640.897 287.342 641.412C287.07 641.921 286.931 642.48 286.925 643.09V644.981C286.925 645.774 287.07 646.455 287.36 647.023C287.65 647.585 288.055 648.017 288.576 648.319C289.097 648.615 289.707 648.763 290.405 648.763C290.873 648.763 291.296 648.698 291.674 648.567C292.053 648.431 292.382 648.233 292.66 647.973C292.938 647.712 293.148 647.39 293.29 647.005L296.291 647.342C296.102 648.135 295.741 648.828 295.208 649.42C294.681 650.006 294.006 650.461 293.184 650.787C292.361 651.107 291.42 651.266 290.361 651.266ZM302.357 632.818V651H299.143V632.818H302.357ZM305.662 656.114V637.364H308.822V639.619H309.008C309.174 639.287 309.408 638.935 309.71 638.562C310.012 638.183 310.42 637.861 310.935 637.594C311.45 637.322 312.107 637.186 312.906 637.186C313.959 637.186 314.909 637.455 315.756 637.994C316.608 638.527 317.283 639.317 317.78 640.364C318.283 641.406 318.534 642.684 318.534 644.2C318.534 645.697 318.289 646.969 317.798 648.017C317.306 649.065 316.638 649.864 315.791 650.414C314.945 650.964 313.986 651.24 312.915 651.24C312.133 651.24 311.485 651.109 310.97 650.849C310.456 650.589 310.041 650.275 309.728 649.908C309.42 649.535 309.18 649.183 309.008 648.852H308.875V656.114H305.662ZM308.813 644.182C308.813 645.064 308.937 645.836 309.186 646.499C309.441 647.162 309.805 647.68 310.278 648.053C310.757 648.42 311.337 648.603 312.018 648.603C312.728 648.603 313.323 648.414 313.803 648.035C314.282 647.65 314.643 647.126 314.886 646.463C315.134 645.795 315.258 645.034 315.258 644.182C315.258 643.335 315.137 642.584 314.894 641.927C314.652 641.27 314.291 640.755 313.811 640.382C313.332 640.009 312.734 639.823 312.018 639.823C311.332 639.823 310.749 640.003 310.269 640.364C309.79 640.725 309.426 641.231 309.177 641.882C308.934 642.533 308.813 643.3 308.813 644.182ZM334.297 637.364V639.849H326.458V637.364H334.297ZM328.393 634.097H331.607V646.898C331.607 647.33 331.672 647.662 331.802 647.893C331.938 648.118 332.116 648.272 332.335 648.354C332.554 648.437 332.797 648.479 333.063 648.479C333.264 648.479 333.448 648.464 333.613 648.434C333.785 648.405 333.915 648.378 334.004 648.354L334.546 650.867C334.374 650.926 334.128 650.991 333.809 651.062C333.495 651.133 333.11 651.175 332.655 651.186C331.85 651.21 331.125 651.089 330.48 650.822C329.834 650.55 329.322 650.13 328.944 649.562C328.571 648.994 328.387 648.283 328.393 647.431V634.097ZM342.786 651.266C341.455 651.266 340.301 650.973 339.324 650.387C338.348 649.801 337.59 648.982 337.051 647.928C336.519 646.875 336.252 645.644 336.252 644.235C336.252 642.826 336.519 641.592 337.051 640.533C337.59 639.474 338.348 638.651 339.324 638.065C340.301 637.479 341.455 637.186 342.786 637.186C344.118 637.186 345.272 637.479 346.249 638.065C347.225 638.651 347.98 639.474 348.513 640.533C349.051 641.592 349.321 642.826 349.321 644.235C349.321 645.644 349.051 646.875 348.513 647.928C347.98 648.982 347.225 649.801 346.249 650.387C345.272 650.973 344.118 651.266 342.786 651.266ZM342.804 648.692C343.526 648.692 344.13 648.493 344.615 648.097C345.101 647.694 345.462 647.156 345.698 646.481C345.941 645.806 346.062 645.055 346.062 644.226C346.062 643.392 345.941 642.637 345.698 641.962C345.462 641.282 345.101 640.74 344.615 640.338C344.13 639.935 343.526 639.734 342.804 639.734C342.064 639.734 341.449 639.935 340.958 640.338C340.472 640.74 340.108 641.282 339.866 641.962C339.629 642.637 339.511 643.392 339.511 644.226C339.511 645.055 339.629 645.806 339.866 646.481C340.108 647.156 340.472 647.694 340.958 648.097C341.449 648.493 342.064 648.692 342.804 648.692ZM143.426 686.114C142.988 686.114 142.582 686.078 142.209 686.007C141.842 685.942 141.549 685.865 141.33 685.776L142.076 683.273C142.544 683.409 142.961 683.474 143.328 683.468C143.695 683.462 144.018 683.347 144.296 683.122C144.58 682.903 144.819 682.536 145.015 682.021L145.29 681.284L140.345 667.364H143.754L146.897 677.662H147.039L150.191 667.364H153.609L148.149 682.651C147.894 683.373 147.557 683.992 147.137 684.507C146.716 685.028 146.201 685.424 145.592 685.696C144.988 685.975 144.266 686.114 143.426 686.114ZM161.317 681.266C159.985 681.266 158.831 680.973 157.854 680.387C156.878 679.801 156.12 678.982 155.582 677.928C155.049 676.875 154.783 675.644 154.783 674.235C154.783 672.826 155.049 671.592 155.582 670.533C156.12 669.474 156.878 668.651 157.854 668.065C158.831 667.479 159.985 667.186 161.317 667.186C162.648 667.186 163.803 667.479 164.779 668.065C165.756 668.651 166.51 669.474 167.043 670.533C167.582 671.592 167.851 672.826 167.851 674.235C167.851 675.644 167.582 676.875 167.043 677.928C166.51 678.982 165.756 679.801 164.779 680.387C163.803 680.973 162.648 681.266 161.317 681.266ZM161.334 678.692C162.057 678.692 162.66 678.493 163.146 678.097C163.631 677.694 163.992 677.156 164.229 676.481C164.471 675.806 164.593 675.055 164.593 674.226C164.593 673.392 164.471 672.637 164.229 671.962C163.992 671.282 163.631 670.74 163.146 670.338C162.66 669.935 162.057 669.734 161.334 669.734C160.595 669.734 159.979 669.935 159.488 670.338C159.003 670.74 158.639 671.282 158.396 671.962C158.159 672.637 158.041 673.392 158.041 674.226C158.041 675.055 158.159 675.806 158.396 676.481C158.639 677.156 159.003 677.694 159.488 678.097C159.979 678.493 160.595 678.692 161.334 678.692ZM179.27 675.265V667.364H182.484V681H179.368V678.576H179.226C178.918 679.34 178.412 679.964 177.707 680.45C177.009 680.935 176.148 681.178 175.124 681.178C174.23 681.178 173.44 680.979 172.754 680.583C172.073 680.18 171.54 679.597 171.156 678.834C170.771 678.064 170.579 677.135 170.579 676.046V667.364H173.792V675.549C173.792 676.413 174.029 677.1 174.503 677.609C174.976 678.118 175.597 678.372 176.367 678.372C176.84 678.372 177.299 678.257 177.743 678.026C178.187 677.795 178.551 677.452 178.835 676.996C179.125 676.534 179.27 675.957 179.27 675.265ZM185.788 681V667.364H188.905V669.636H189.047C189.295 668.849 189.721 668.243 190.325 667.816C190.935 667.384 191.63 667.168 192.411 667.168C192.589 667.168 192.787 667.177 193.006 667.195C193.231 667.207 193.418 667.228 193.565 667.257V670.213C193.429 670.166 193.213 670.125 192.917 670.089C192.627 670.048 192.346 670.027 192.074 670.027C191.488 670.027 190.961 670.154 190.494 670.409C190.032 670.657 189.668 671.004 189.402 671.447C189.135 671.891 189.002 672.403 189.002 672.983V681H185.788ZM205.116 662.818V681H201.902V662.818H205.116ZM214.368 681.266C213.037 681.266 211.883 680.973 210.906 680.387C209.93 679.801 209.172 678.982 208.633 677.928C208.101 676.875 207.834 675.644 207.834 674.235C207.834 672.826 208.101 671.592 208.633 670.533C209.172 669.474 209.93 668.651 210.906 668.065C211.883 667.479 213.037 667.186 214.368 667.186C215.7 667.186 216.854 667.479 217.831 668.065C218.807 668.651 219.562 669.474 220.095 670.533C220.633 671.592 220.903 672.826 220.903 674.235C220.903 675.644 220.633 676.875 220.095 677.928C219.562 678.982 218.807 679.801 217.831 680.387C216.854 680.973 215.7 681.266 214.368 681.266ZM214.386 678.692C215.108 678.692 215.712 678.493 216.197 678.097C216.683 677.694 217.044 677.156 217.28 676.481C217.523 675.806 217.644 675.055 217.644 674.226C217.644 673.392 217.523 672.637 217.28 671.962C217.044 671.282 216.683 670.74 216.197 670.338C215.712 669.935 215.108 669.734 214.386 669.734C213.646 669.734 213.031 669.935 212.54 670.338C212.054 670.74 211.69 671.282 211.448 671.962C211.211 672.637 211.093 673.392 211.093 674.226C211.093 675.055 211.211 675.806 211.448 676.481C211.69 677.156 212.054 677.694 212.54 678.097C213.031 678.493 213.646 678.692 214.386 678.692ZM229.578 681.266C228.217 681.266 227.048 680.967 226.072 680.37C225.101 679.772 224.352 678.946 223.826 677.893C223.305 676.833 223.044 675.614 223.044 674.235C223.044 672.85 223.311 671.628 223.843 670.569C224.376 669.503 225.128 668.675 226.098 668.083C227.075 667.485 228.229 667.186 229.561 667.186C230.667 667.186 231.647 667.39 232.499 667.799C233.357 668.201 234.041 668.772 234.55 669.512C235.059 670.246 235.349 671.104 235.42 672.087H232.348C232.224 671.43 231.928 670.882 231.461 670.444C230.999 670 230.38 669.778 229.605 669.778C228.948 669.778 228.371 669.956 227.874 670.311C227.377 670.66 226.989 671.163 226.711 671.82C226.439 672.477 226.303 673.264 226.303 674.182C226.303 675.111 226.439 675.91 226.711 676.579C226.983 677.242 227.365 677.754 227.856 678.115C228.353 678.47 228.936 678.647 229.605 678.647C230.079 678.647 230.502 678.559 230.875 678.381C231.253 678.198 231.57 677.934 231.825 677.591C232.079 677.248 232.254 676.83 232.348 676.339H235.42C235.343 677.304 235.059 678.159 234.568 678.905C234.077 679.645 233.408 680.225 232.561 680.645C231.715 681.059 230.721 681.266 229.578 681.266ZM241.983 681.275C241.119 681.275 240.341 681.121 239.648 680.814C238.962 680.5 238.417 680.038 238.015 679.429C237.618 678.819 237.42 678.067 237.42 677.174C237.42 676.404 237.562 675.768 237.846 675.265C238.13 674.762 238.518 674.359 239.009 674.058C239.5 673.756 240.054 673.528 240.669 673.374C241.291 673.214 241.933 673.099 242.596 673.028C243.395 672.945 244.043 672.871 244.54 672.806C245.037 672.735 245.398 672.628 245.623 672.486C245.854 672.338 245.969 672.11 245.969 671.803V671.749C245.969 671.08 245.771 670.563 245.374 670.196C244.978 669.829 244.407 669.645 243.661 669.645C242.874 669.645 242.249 669.817 241.788 670.16C241.332 670.503 241.024 670.909 240.864 671.376L237.864 670.95C238.1 670.122 238.491 669.429 239.036 668.873C239.58 668.311 240.246 667.89 241.033 667.612C241.82 667.328 242.69 667.186 243.643 667.186C244.3 667.186 244.954 667.263 245.605 667.417C246.256 667.571 246.851 667.825 247.39 668.18C247.928 668.53 248.36 669.006 248.686 669.61C249.017 670.213 249.183 670.968 249.183 671.874V681H246.093V679.127H245.987C245.792 679.506 245.516 679.861 245.161 680.192C244.812 680.518 244.371 680.781 243.838 680.982C243.312 681.178 242.693 681.275 241.983 681.275ZM242.818 678.914C243.463 678.914 244.022 678.786 244.495 678.532C244.969 678.272 245.333 677.928 245.587 677.502C245.848 677.076 245.978 676.611 245.978 676.108V674.501C245.877 674.584 245.706 674.661 245.463 674.732C245.226 674.803 244.96 674.865 244.664 674.919C244.368 674.972 244.075 675.019 243.785 675.061C243.495 675.102 243.244 675.138 243.031 675.167C242.551 675.232 242.122 675.339 241.743 675.487C241.365 675.635 241.066 675.842 240.847 676.108C240.628 676.369 240.518 676.706 240.518 677.12C240.518 677.712 240.734 678.159 241.166 678.461C241.598 678.763 242.149 678.914 242.818 678.914ZM259.224 667.364V669.849H251.385V667.364H259.224ZM253.32 664.097H256.534V676.898C256.534 677.33 256.599 677.662 256.729 677.893C256.865 678.118 257.043 678.272 257.262 678.354C257.481 678.437 257.723 678.479 257.99 678.479C258.191 678.479 258.374 678.464 258.54 678.434C258.712 678.405 258.842 678.378 258.931 678.354L259.472 680.867C259.301 680.926 259.055 680.991 258.735 681.062C258.422 681.133 258.037 681.175 257.581 681.186C256.776 681.21 256.051 681.089 255.406 680.822C254.761 680.55 254.249 680.13 253.87 679.562C253.498 678.994 253.314 678.283 253.32 677.431V664.097ZM261.912 681V667.364H265.125V681H261.912ZM263.527 665.428C263.018 665.428 262.58 665.26 262.213 664.922C261.846 664.579 261.663 664.168 261.663 663.688C261.663 663.203 261.846 662.792 262.213 662.454C262.58 662.111 263.018 661.939 263.527 661.939C264.042 661.939 264.48 662.111 264.841 662.454C265.208 662.792 265.392 663.203 265.392 663.688C265.392 664.168 265.208 664.579 264.841 664.922C264.48 665.26 264.042 665.428 263.527 665.428ZM274.378 681.266C273.047 681.266 271.892 680.973 270.916 680.387C269.939 679.801 269.182 678.982 268.643 677.928C268.11 676.875 267.844 675.644 267.844 674.235C267.844 672.826 268.11 671.592 268.643 670.533C269.182 669.474 269.939 668.651 270.916 668.065C271.892 667.479 273.047 667.186 274.378 667.186C275.71 667.186 276.864 667.479 277.841 668.065C278.817 668.651 279.572 669.474 280.104 670.533C280.643 671.592 280.912 672.826 280.912 674.235C280.912 675.644 280.643 676.875 280.104 677.928C279.572 678.982 278.817 679.801 277.841 680.387C276.864 680.973 275.71 681.266 274.378 681.266ZM274.396 678.692C275.118 678.692 275.722 678.493 276.207 678.097C276.692 677.694 277.053 677.156 277.29 676.481C277.533 675.806 277.654 675.055 277.654 674.226C277.654 673.392 277.533 672.637 277.29 671.962C277.053 671.282 276.692 670.74 276.207 670.338C275.722 669.935 275.118 669.734 274.396 669.734C273.656 669.734 273.041 669.935 272.549 670.338C272.064 670.74 271.7 671.282 271.457 671.962C271.221 672.637 271.102 673.392 271.102 674.226C271.102 675.055 271.221 675.806 271.457 676.481C271.7 677.156 272.064 677.694 272.549 678.097C273.041 678.493 273.656 678.692 274.396 678.692ZM286.854 673.01V681H283.64V667.364H286.712V669.681H286.872C287.185 668.917 287.685 668.311 288.372 667.861C289.064 667.411 289.92 667.186 290.938 667.186C291.879 667.186 292.698 667.387 293.397 667.79C294.101 668.192 294.646 668.775 295.03 669.539C295.421 670.302 295.613 671.228 295.607 672.317V681H292.394V672.815C292.394 671.903 292.157 671.19 291.683 670.675C291.216 670.16 290.568 669.903 289.739 669.903C289.177 669.903 288.677 670.027 288.239 670.276C287.807 670.518 287.466 670.87 287.218 671.332C286.975 671.794 286.854 672.353 286.854 673.01Z" fill="white"/>
<ellipse cx="218.5" cy="602" rx="77.5" ry="14" fill="url(#paint2_radial_85_46)" fill-opacity="0.75"/>
<path d="M363.5 851.075C363.5 854.943 367.815 859.02 371.375 861.725C373.372 863.24 374.37 864 376 864C377.63 864 378.628 863.24 380.625 861.725C384.185 859.018 388.5 854.94 388.5 851.075C388.5 844.1 381.625 841.493 376 846.883C370.375 841.493 363.5 844.1 363.5 851.075ZM361.65 892.47H361C358.642 892.47 357.465 892.47 356.733 891.738C356 891.01 356 889.83 356 887.473V884.693C356 883.398 356 882.75 356.332 882.17C356.665 881.59 357.167 881.3 358.172 880.715C364.787 876.868 374.18 874.703 380.448 878.44C380.869 878.692 381.244 878.998 381.573 879.36C381.909 879.728 382.168 880.159 382.335 880.629C382.501 881.098 382.572 881.597 382.543 882.094C382.513 882.592 382.385 883.078 382.164 883.525C381.943 883.972 381.635 884.37 381.257 884.695C380.957 884.98 380.59 885.187 380.19 885.295C380.49 885.26 380.777 885.221 381.052 885.178C383.33 884.815 385.242 883.595 386.992 882.273L391.512 878.86C392.319 878.275 393.291 877.959 394.288 877.959C395.284 877.959 396.256 878.275 397.062 878.86C398.495 879.943 398.935 881.725 398.028 883.18C396.97 884.875 395.48 887.043 394.05 888.368C392.62 889.693 390.485 890.878 388.745 891.718C386.815 892.65 384.685 893.185 382.518 893.538C378.123 894.248 373.543 894.138 369.193 893.243C366.711 892.732 364.184 892.471 361.65 892.47Z" fill="black"/>
<path d="M219 844C221.265 844 223.458 844.305 225.543 844.87C224.233 847.527 223.74 850.513 224.126 853.45C224.511 856.388 225.757 859.145 227.708 861.375C229.658 863.605 232.225 865.207 235.085 865.98C237.945 866.753 240.969 866.661 243.778 865.717C243.923 866.792 243.997 867.887 244 869C244 882.807 232.808 894 219 894C214.893 894.006 210.849 892.996 207.228 891.06L194 894L196.94 880.772C195.004 877.151 193.994 873.107 194 869C194 855.192 205.193 844 219 844ZM237.825 842.3C237.92 842.066 238.082 841.865 238.291 841.724C238.501 841.583 238.748 841.508 239 841.508C239.253 841.508 239.499 841.583 239.709 841.724C239.918 841.865 240.08 842.066 240.175 842.3L240.81 843.825C241.871 846.413 243.884 848.495 246.435 849.642L248.228 850.442C248.457 850.549 248.651 850.718 248.788 850.931C248.924 851.145 248.996 851.392 248.996 851.645C248.996 851.898 248.924 852.145 248.788 852.359C248.651 852.572 248.457 852.741 248.228 852.847L246.333 853.692C243.844 854.807 241.864 856.814 240.783 859.317L240.168 860.732C240.071 860.963 239.909 861.16 239.702 861.298C239.494 861.437 239.25 861.51 239 861.51C238.75 861.51 238.506 861.437 238.299 861.298C238.091 861.16 237.929 860.963 237.833 860.732L237.215 859.32C236.135 856.816 234.155 854.808 231.668 853.692L229.768 852.847C229.537 852.742 229.342 852.572 229.206 852.359C229.069 852.145 228.996 851.897 228.996 851.644C228.996 851.39 229.069 851.142 229.206 850.929C229.342 850.716 229.537 850.546 229.768 850.44L231.563 849.64C234.113 848.494 236.127 846.414 237.19 843.827L237.825 842.3Z" fill="black"/>
<g clip-path="url(#clip1_85_46)">
<path d="M92.6458 871.771C94.4167 871.771 95.9792 870.322 95.9792 868.448C96.0833 867.517 95.6667 866.688 94.8333 865.964L68.2396 842.725C67.6146 842.207 66.7813 842 66.0521 842C65.3229 842 64.4896 842.104 63.7604 842.828L37.0417 865.964C36.3125 866.688 36 867.517 36 868.448C36 870.312 37.4583 871.771 39.3333 871.771H42.6667V888.375C42.6667 892.029 45.6563 895 49.3333 895H82.7083C86.4063 895 89.3958 892.019 89.375 888.344L89.3021 871.761H92.6354L92.6458 871.771ZM62.6667 863.531C62.6667 862.62 63.4167 861.875 64.3333 861.875H67.6667C68.5833 861.875 69.3333 862.62 69.3333 863.531V868.5H74.3333C75.25 868.5 76 869.245 76 870.156V873.469C76 874.38 75.25 875.125 74.3333 875.125H69.3333V880.094C69.3333 881.005 68.5833 881.75 67.6667 881.75H64.3333C63.4167 881.75 62.6667 881.005 62.6667 880.094V875.125H57.6667C56.75 875.125 56 874.38 56 873.469V870.156C56 869.245 56.75 868.5 57.6667 868.5H62.6667V863.531Z" fill="black"/>
</g>
<path d="M39.1159 919V903.727H41.4202V910.364H49.0342V903.727H51.346V919H49.0342V912.341H41.4202V919H39.1159ZM59.3478 919.231C58.2739 919.231 57.3368 918.985 56.5364 918.493C55.7359 918.001 55.1145 917.312 54.672 916.427C54.2295 915.542 54.0083 914.508 54.0083 913.325C54.0083 912.137 54.2295 911.098 54.672 910.208C55.1145 909.318 55.7359 908.627 56.5364 908.135C57.3368 907.642 58.2739 907.396 59.3478 907.396C60.4217 907.396 61.3588 907.642 62.1592 908.135C62.9597 908.627 63.5811 909.318 64.0236 910.208C64.466 911.098 64.6873 912.137 64.6873 913.325C64.6873 914.508 64.466 915.542 64.0236 916.427C63.5811 917.312 62.9597 918.001 62.1592 918.493C61.3588 918.985 60.4217 919.231 59.3478 919.231ZM59.3552 917.359C60.0513 917.359 60.628 917.175 61.0854 916.808C61.5427 916.44 61.8808 915.95 62.0996 915.338C62.3233 914.727 62.4351 914.053 62.4351 913.317C62.4351 912.587 62.3233 911.915 62.0996 911.304C61.8808 910.687 61.5427 910.193 61.0854 909.82C60.628 909.447 60.0513 909.261 59.3552 909.261C58.6543 909.261 58.0726 909.447 57.6102 909.82C57.1528 910.193 56.8123 910.687 56.5886 911.304C56.3698 911.915 56.2604 912.587 56.2604 913.317C56.2604 914.053 56.3698 914.727 56.5886 915.338C56.8123 915.95 57.1528 916.44 57.6102 916.808C58.0726 917.175 58.6543 917.359 59.3552 917.359ZM67.1762 919V907.545H69.3165V909.41H69.4581C69.6968 908.778 70.087 908.286 70.629 907.933C71.1709 907.575 71.8196 907.396 72.5753 907.396C73.341 907.396 73.9823 907.575 74.4993 907.933C75.0214 908.291 75.4066 908.783 75.6552 909.41H75.7745C76.048 908.798 76.483 908.311 77.0796 907.948C77.6762 907.58 78.3871 907.396 79.2124 907.396C80.2515 907.396 81.0991 907.722 81.7554 908.373C82.4166 909.025 82.7472 910.006 82.7472 911.319V919H80.5174V911.528C80.5174 910.752 80.3062 910.19 79.8836 909.842C79.461 909.494 78.9564 909.32 78.3697 909.32C77.6439 909.32 77.0796 909.544 76.6769 909.991C76.2742 910.434 76.0728 911.003 76.0728 911.699V919H73.8505V911.386C73.8505 910.765 73.6566 910.265 73.2689 909.887C72.8811 909.509 72.3765 909.32 71.755 909.32C71.3324 909.32 70.9422 909.432 70.5842 909.656C70.2312 909.875 69.9454 910.18 69.7266 910.573C69.5128 910.966 69.4059 911.421 69.4059 911.938V919H67.1762ZM90.6725 919.231C89.544 919.231 88.572 918.99 87.7567 918.508C86.9463 918.021 86.3199 917.337 85.8774 916.457C85.4399 915.572 85.2212 914.536 85.2212 913.347C85.2212 912.174 85.4399 911.14 85.8774 910.245C86.3199 909.35 86.9364 908.652 87.7269 908.15C88.5223 907.647 89.452 907.396 90.5159 907.396C91.1622 907.396 91.7887 907.503 92.3952 907.717C93.0017 907.931 93.5461 908.266 94.0284 908.724C94.5106 909.181 94.8909 909.775 95.1693 910.506C95.4478 911.232 95.587 912.114 95.587 913.153V913.944H86.4815V912.273H93.4019C93.4019 911.687 93.2826 911.167 93.044 910.715C92.8054 910.257 92.4698 909.897 92.0372 909.634C91.6097 909.37 91.1076 909.238 90.5309 909.238C89.9044 909.238 89.3576 909.392 88.8902 909.701C88.4279 910.004 88.0699 910.402 87.8164 910.894C87.5678 911.381 87.4435 911.911 87.4435 912.482V913.787C87.4435 914.553 87.5777 915.204 87.8462 915.741C88.1196 916.278 88.5 916.688 88.9872 916.972C89.4744 917.25 90.0436 917.389 90.6949 917.389C91.1175 917.389 91.5028 917.33 91.8508 917.21C92.1988 917.086 92.4996 916.902 92.7532 916.658C93.0067 916.415 93.2006 916.114 93.3348 915.756L95.4453 916.136C95.2762 916.758 94.973 917.302 94.5355 917.77C94.1029 918.232 93.5585 918.592 92.9023 918.851C92.251 919.104 91.5078 919.231 90.6725 919.231Z" fill="white"/>
<path d="M185.956 919H183.51L189.006 903.727H191.669L197.165 919H194.719L190.401 906.501H190.282L185.956 919ZM186.366 913.019H194.301V914.958H186.366V913.019ZM201.675 903.727V919H199.37V903.727H201.675ZM210.588 919V903.727H212.892V910.364H220.506V903.727H222.818V919H220.506V912.341H212.892V919H210.588ZM230.932 919.231C229.803 919.231 228.831 918.99 228.016 918.508C227.206 918.021 226.579 917.337 226.137 916.457C225.699 915.572 225.48 914.536 225.48 913.347C225.48 912.174 225.699 911.14 226.137 910.245C226.579 909.35 227.196 908.652 227.986 908.15C228.782 907.647 229.711 907.396 230.775 907.396C231.422 907.396 232.048 907.503 232.654 907.717C233.261 907.931 233.805 908.266 234.288 908.724C234.77 909.181 235.15 909.775 235.429 910.506C235.707 911.232 235.846 912.114 235.846 913.153V913.944H226.741V912.273H233.661C233.661 911.687 233.542 911.167 233.303 910.715C233.065 910.257 232.729 909.897 232.297 909.634C231.869 909.37 231.367 909.238 230.79 909.238C230.164 909.238 229.617 909.392 229.15 909.701C228.687 910.004 228.329 910.402 228.076 910.894C227.827 911.381 227.703 911.911 227.703 912.482V913.787C227.703 914.553 227.837 915.204 228.105 915.741C228.379 916.278 228.759 916.688 229.246 916.972C229.734 917.25 230.303 917.389 230.954 917.389C231.377 917.389 231.762 917.33 232.11 917.21C232.458 917.086 232.759 916.902 233.012 916.658C233.266 916.415 233.46 916.114 233.594 915.756L235.705 916.136C235.536 916.758 235.232 917.302 234.795 917.77C234.362 918.232 233.818 918.592 233.162 918.851C232.51 919.104 231.767 919.231 230.932 919.231ZM240.55 903.727V919H238.32V903.727H240.55ZM243.55 923.295V907.545H245.727V909.402H245.914C246.043 909.164 246.229 908.888 246.473 908.575C246.717 908.261 247.055 907.988 247.487 907.754C247.92 907.516 248.491 907.396 249.202 907.396C250.127 907.396 250.952 907.63 251.678 908.097C252.404 908.565 252.973 909.238 253.386 910.118C253.804 910.998 254.012 912.057 254.012 913.295C254.012 914.533 253.806 915.594 253.393 916.479C252.981 917.359 252.414 918.038 251.693 918.515C250.972 918.988 250.15 919.224 249.225 919.224C248.529 919.224 247.96 919.107 247.517 918.873C247.08 918.64 246.737 918.366 246.488 918.053C246.239 917.74 246.048 917.461 245.914 917.218H245.779V923.295H243.55ZM245.735 913.273C245.735 914.078 245.852 914.784 246.085 915.391C246.319 915.997 246.657 916.472 247.099 916.815C247.542 917.153 248.084 917.322 248.725 917.322C249.391 917.322 249.948 917.146 250.396 916.793C250.843 916.435 251.181 915.95 251.41 915.338C251.643 914.727 251.76 914.038 251.76 913.273C251.76 912.517 251.646 911.838 251.417 911.237C251.194 910.635 250.855 910.161 250.403 909.812C249.956 909.464 249.396 909.29 248.725 909.29C248.079 909.29 247.532 909.457 247.085 909.79C246.642 910.123 246.306 910.588 246.078 911.185C245.849 911.781 245.735 912.477 245.735 913.273Z" fill="white"/>
<path d="M297.111 919V903.727H299.415V910.364H307.029V903.727H309.341V919H307.029V912.341H299.415V919H297.111ZM317.454 919.231C316.326 919.231 315.354 918.99 314.538 918.508C313.728 918.021 313.102 917.337 312.659 916.457C312.222 915.572 312.003 914.536 312.003 913.347C312.003 912.174 312.222 911.14 312.659 910.245C313.102 909.35 313.718 908.652 314.509 908.15C315.304 907.647 316.234 907.396 317.298 907.396C317.944 907.396 318.57 907.503 319.177 907.717C319.783 907.931 320.328 908.266 320.81 908.724C321.292 909.181 321.673 909.775 321.951 910.506C322.229 911.232 322.369 912.114 322.369 913.153V913.944H313.263V912.273H320.184C320.184 911.687 320.064 911.167 319.826 910.715C319.587 910.257 319.252 909.897 318.819 909.634C318.391 909.37 317.889 909.238 317.313 909.238C316.686 909.238 316.139 909.392 315.672 909.701C315.21 910.004 314.852 910.402 314.598 910.894C314.35 911.381 314.225 911.911 314.225 912.482V913.787C314.225 914.553 314.359 915.204 314.628 915.741C314.901 916.278 315.282 916.688 315.769 916.972C316.256 917.25 316.825 917.389 317.477 917.389C317.899 917.389 318.285 917.33 318.633 917.21C318.981 917.086 319.281 916.902 319.535 916.658C319.788 916.415 319.982 916.114 320.117 915.756L322.227 916.136C322.058 916.758 321.755 917.302 321.317 917.77C320.885 918.232 320.34 918.592 319.684 918.851C319.033 919.104 318.29 919.231 317.454 919.231ZM327.072 903.727V919H324.843V903.727H327.072ZM330.072 923.295V907.545H332.25V909.402H332.436C332.565 909.164 332.752 908.888 332.995 908.575C333.239 908.261 333.577 907.988 334.01 907.754C334.442 907.516 335.014 907.396 335.725 907.396C336.65 907.396 337.475 907.63 338.201 908.097C338.927 908.565 339.496 909.238 339.908 910.118C340.326 910.998 340.535 912.057 340.535 913.295C340.535 914.533 340.329 915.594 339.916 916.479C339.503 917.359 338.937 918.038 338.216 918.515C337.495 918.988 336.672 919.224 335.747 919.224C335.051 919.224 334.482 919.107 334.04 918.873C333.602 918.64 333.259 918.366 333.01 918.053C332.762 917.74 332.57 917.461 332.436 917.218H332.302V923.295H330.072ZM332.257 913.273C332.257 914.078 332.374 914.784 332.608 915.391C332.841 915.997 333.179 916.472 333.622 916.815C334.064 917.153 334.606 917.322 335.248 917.322C335.914 917.322 336.471 917.146 336.918 916.793C337.366 916.435 337.704 915.95 337.932 915.338C338.166 914.727 338.283 914.038 338.283 913.273C338.283 912.517 338.168 911.838 337.94 911.237C337.716 910.635 337.378 910.161 336.926 909.812C336.478 909.464 335.919 909.29 335.248 909.29C334.601 909.29 334.054 909.457 333.607 909.79C333.165 910.123 332.829 910.588 332.6 911.185C332.372 911.781 332.257 912.477 332.257 913.273ZM362.036 911.364C362.036 912.994 361.738 914.396 361.142 915.57C360.545 916.738 359.727 917.638 358.688 918.269C357.654 918.896 356.478 919.209 355.161 919.209C353.838 919.209 352.657 918.896 351.618 918.269C350.584 917.638 349.769 916.735 349.172 915.562C348.576 914.389 348.278 912.989 348.278 911.364C348.278 909.733 348.576 908.333 349.172 907.165C349.769 905.992 350.584 905.092 351.618 904.466C352.657 903.834 353.838 903.518 355.161 903.518C356.478 903.518 357.654 903.834 358.688 904.466C359.727 905.092 360.545 905.992 361.142 907.165C361.738 908.333 362.036 909.733 362.036 911.364ZM359.754 911.364C359.754 910.121 359.553 909.074 359.15 908.224C358.753 907.369 358.206 906.723 357.51 906.285C356.819 905.843 356.036 905.621 355.161 905.621C354.281 905.621 353.495 905.843 352.804 906.285C352.113 906.723 351.566 907.369 351.164 908.224C350.766 909.074 350.567 910.121 350.567 911.364C350.567 912.607 350.766 913.656 351.164 914.511C351.566 915.361 352.113 916.007 352.804 916.45C353.495 916.887 354.281 917.106 355.161 917.106C356.036 917.106 356.819 916.887 357.51 916.45C358.206 916.007 358.753 915.361 359.15 914.511C359.553 913.656 359.754 912.607 359.754 911.364ZM370.077 907.545V909.335H363.821V907.545H370.077ZM365.498 904.801H367.728V915.637C367.728 916.069 367.793 916.395 367.922 916.614C368.051 916.827 368.218 916.974 368.422 917.054C368.631 917.128 368.857 917.165 369.1 917.165C369.279 917.165 369.436 917.153 369.57 917.128C369.704 917.103 369.809 917.083 369.883 917.069L370.286 918.911C370.157 918.96 369.973 919.01 369.734 919.06C369.496 919.114 369.197 919.144 368.839 919.149C368.253 919.159 367.706 919.055 367.199 918.836C366.692 918.617 366.282 918.279 365.968 917.822C365.655 917.364 365.498 916.79 365.498 916.099V904.801ZM375.02 912.199V919H372.79V903.727H374.99V909.41H375.132C375.4 908.793 375.81 908.304 376.362 907.941C376.914 907.578 377.635 907.396 378.525 907.396C379.31 907.396 379.996 907.558 380.583 907.881C381.175 908.204 381.632 908.686 381.955 909.328C382.283 909.964 382.447 910.76 382.447 911.714V919H380.218V911.983C380.218 911.142 380.001 910.491 379.569 910.029C379.136 909.561 378.535 909.328 377.764 909.328C377.237 909.328 376.765 909.44 376.347 909.663C375.934 909.887 375.609 910.215 375.37 910.648C375.137 911.075 375.02 911.592 375.02 912.199ZM390.36 919.231C389.231 919.231 388.259 918.99 387.444 918.508C386.633 918.021 386.007 917.337 385.564 916.457C385.127 915.572 384.908 914.536 384.908 913.347C384.908 912.174 385.127 911.14 385.564 910.245C386.007 909.35 386.623 908.652 387.414 908.15C388.209 907.647 389.139 907.396 390.203 907.396C390.849 907.396 391.476 907.503 392.082 907.717C392.689 907.931 393.233 908.266 393.715 908.724C394.198 909.181 394.578 909.775 394.856 910.506C395.135 911.232 395.274 912.114 395.274 913.153V913.944H386.169V912.273H393.089C393.089 911.687 392.97 911.167 392.731 910.715C392.492 910.257 392.157 909.897 391.724 909.634C391.297 909.37 390.795 909.238 390.218 909.238C389.591 909.238 389.045 909.392 388.577 909.701C388.115 910.004 387.757 910.402 387.503 910.894C387.255 911.381 387.131 911.911 387.131 912.482V913.787C387.131 914.553 387.265 915.204 387.533 915.741C387.807 916.278 388.187 916.688 388.674 916.972C389.161 917.25 389.731 917.389 390.382 917.389C390.805 917.389 391.19 917.33 391.538 917.21C391.886 917.086 392.187 916.902 392.44 916.658C392.694 916.415 392.888 916.114 393.022 915.756L395.132 916.136C394.963 916.758 394.66 917.302 394.222 917.77C393.79 918.232 393.246 918.592 392.589 918.851C391.938 919.104 391.195 919.231 390.36 919.231ZM397.748 919V907.545H399.903V909.365H400.022C400.231 908.749 400.599 908.264 401.126 907.911C401.658 907.553 402.26 907.374 402.931 907.374C403.07 907.374 403.234 907.379 403.423 907.389C403.617 907.399 403.769 907.411 403.878 907.426V909.559C403.788 909.534 403.629 909.507 403.401 909.477C403.172 909.442 402.943 909.425 402.715 909.425C402.188 909.425 401.718 909.537 401.305 909.76C400.897 909.979 400.574 910.285 400.336 910.678C400.097 911.065 399.978 911.508 399.978 912.005V919H397.748ZM414.391 910.342L412.37 910.7C412.286 910.441 412.151 910.195 411.967 909.962C411.788 909.728 411.545 909.537 411.237 909.387C410.928 909.238 410.543 909.164 410.081 909.164C409.449 909.164 408.922 909.305 408.5 909.589C408.077 909.867 407.866 910.228 407.866 910.67C407.866 911.053 408.007 911.361 408.291 911.595C408.574 911.828 409.032 912.02 409.663 912.169L411.483 912.587C412.537 912.83 413.322 913.206 413.839 913.713C414.356 914.22 414.615 914.879 414.615 915.689C414.615 916.375 414.416 916.987 414.018 917.523C413.625 918.055 413.076 918.473 412.37 918.776C411.669 919.08 410.856 919.231 409.931 919.231C408.649 919.231 407.602 918.958 406.792 918.411C405.982 917.859 405.484 917.076 405.3 916.062L407.456 915.734C407.59 916.295 407.866 916.721 408.283 917.009C408.701 917.292 409.245 917.434 409.917 917.434C410.647 917.434 411.232 917.282 411.669 916.979C412.107 916.671 412.325 916.295 412.325 915.853C412.325 915.495 412.191 915.194 411.923 914.951C411.659 914.707 411.254 914.523 410.707 914.399L408.768 913.974C407.699 913.73 406.909 913.342 406.397 912.81C405.89 912.278 405.636 911.605 405.636 910.789C405.636 910.113 405.825 909.522 406.203 909.015C406.581 908.507 407.103 908.112 407.769 907.829C408.435 907.54 409.198 907.396 410.058 907.396C411.296 907.396 412.271 907.665 412.982 908.202C413.692 908.734 414.162 909.447 414.391 910.342Z" fill="white"/>
</g>
<defs>
<linearGradient id="paint0_linear_85_46" x1="69.5" y1="14.5" x2="93.5" y2="983" gradientUnits="userSpaceOnUse">
<stop offset="0.542159" stop-color="#FFAAAA"/>
<stop offset="0.966346" stop-color="#A30909"/>
</linearGradient>
<linearGradient id="paint1_linear_85_46" x1="220" y1="368" x2="220" y2="588" gradientUnits="userSpaceOnUse">
<stop offset="0.491957" stop-color="#E60D11"/>
<stop offset="0.826923" stop-color="#AC0A0D"/>
<stop offset="1" stop-color="#800709"/>
</linearGradient>
<radialGradient id="paint2_radial_85_46" cx="0" cy="0" r="1" gradientUnits="userSpaceOnUse" gradientTransform="translate(219 588) scale(77 14)">
<stop stop-color="#90080A"/>
<stop offset="0.839168" stop-color="#EB8787"/>
</radialGradient>
<clipPath id="clip0_85_46">
<rect width="440" height="956" fill="white"/>
</clipPath>
<clipPath id="clip1_85_46">
<rect width="60" height="53" fill="white" transform="translate(36 842)"/>
</clipPath>
</defs>
</svg>
