<svg width="414" height="52" viewBox="0 0 414 52" fill="none" xmlns="http://www.w3.org/2000/svg">
<path d="M117.049 32V28.075H125.874V32H117.049ZM117.049 18.425V14.5H125.874V18.425H117.049ZM117.049 24.8V21H125.374V24.8H117.049ZM113.749 14.5H118.399V32H113.749V14.5ZM146.878 24.55V32H142.553V25C142.553 24.4 142.453 23.9417 142.253 23.625C142.069 23.2917 141.753 23.125 141.303 23.125C141.036 23.125 140.794 23.1917 140.578 23.325C140.361 23.4583 140.194 23.6667 140.078 23.95C139.961 24.2167 139.903 24.5667 139.903 25V32H135.578V25C135.578 24.4 135.478 23.9417 135.278 23.625C135.094 23.2917 134.778 23.125 134.328 23.125C134.061 23.125 133.819 23.1917 133.603 23.325C133.386 23.4583 133.219 23.6667 133.103 23.95C132.986 24.2167 132.928 24.5667 132.928 25V32H128.803V20.5H132.928V22.225C133.244 21.6083 133.678 21.125 134.228 20.775C134.794 20.4083 135.486 20.225 136.303 20.225C137.219 20.225 137.936 20.3833 138.453 20.7C138.969 21 139.344 21.45 139.578 22.05C140.011 21.4833 140.536 21.0417 141.153 20.725C141.786 20.3917 142.494 20.225 143.278 20.225C144.211 20.225 144.936 20.4 145.453 20.75C145.969 21.0833 146.336 21.575 146.553 22.225C146.769 22.8583 146.878 23.6333 146.878 24.55ZM155.854 32.25C154.437 32.25 153.212 32.0083 152.179 31.525C151.162 31.025 150.379 30.3333 149.829 29.45C149.279 28.55 149.004 27.4833 149.004 26.25C149.004 25 149.27 23.9333 149.804 23.05C150.337 22.15 151.104 21.4583 152.104 20.975C153.104 20.4917 154.304 20.25 155.704 20.25C157.104 20.25 158.279 20.475 159.229 20.925C160.179 21.375 160.904 22.0333 161.404 22.9C161.904 23.75 162.154 24.8 162.154 26.05C162.154 26.25 162.145 26.45 162.129 26.65C162.129 26.8333 162.12 27 162.104 27.15H151.379V24.925H158.154L157.229 26.075C157.312 25.9417 157.387 25.7917 157.454 25.625C157.52 25.4583 157.554 25.3167 157.554 25.2C157.554 24.7333 157.47 24.3417 157.304 24.025C157.154 23.6917 156.929 23.4417 156.629 23.275C156.345 23.0917 156.004 23 155.604 23C155.104 23 154.687 23.1167 154.354 23.35C154.02 23.5833 153.77 23.9417 153.604 24.425C153.437 24.8917 153.354 25.4917 153.354 26.225C153.337 26.875 153.42 27.425 153.604 27.875C153.787 28.325 154.054 28.675 154.404 28.925C154.754 29.1583 155.187 29.275 155.704 29.275C156.337 29.275 156.87 29.1667 157.304 28.95C157.754 28.7167 158.104 28.3833 158.354 27.95L162.254 28.725C161.637 29.9083 160.795 30.7917 159.729 31.375C158.679 31.9583 157.387 32.25 155.854 32.25ZM168.599 20.5V32H164.374V20.5H168.599ZM171.874 24.925C171.691 24.725 171.482 24.5667 171.249 24.45C171.032 24.3167 170.757 24.25 170.424 24.25C170.091 24.25 169.782 24.3417 169.499 24.525C169.216 24.7083 168.991 24.9833 168.824 25.35C168.674 25.7167 168.599 26.175 168.599 26.725L167.699 25C167.699 24.0833 167.882 23.2667 168.249 22.55C168.616 21.8333 169.099 21.2667 169.699 20.85C170.316 20.4167 170.957 20.2 171.624 20.2C172.041 20.2 172.441 20.3 172.824 20.5C173.207 20.6833 173.491 20.9167 173.674 21.2L171.874 24.925ZM174.449 32.85H178.599C178.665 33.3 178.799 33.6583 178.999 33.925C179.199 34.1917 179.465 34.3833 179.799 34.5C180.132 34.6167 180.499 34.675 180.899 34.675C181.415 34.675 181.865 34.5583 182.249 34.325C182.649 34.1083 182.957 33.7833 183.174 33.35C183.407 32.9167 183.524 32.3833 183.524 31.75V20.5H187.649V31.75C187.649 33.2667 187.357 34.4833 186.774 35.4C186.19 36.3333 185.407 37.0083 184.424 37.425C183.457 37.8417 182.357 38.05 181.124 38.05C179.59 38.05 178.357 37.8333 177.424 37.4C176.49 36.9667 175.79 36.35 175.324 35.55C174.857 34.7667 174.565 33.8667 174.449 32.85ZM174.199 26.05C174.199 24.7333 174.457 23.65 174.974 22.8C175.507 21.95 176.182 21.3167 176.999 20.9C177.832 20.4667 178.699 20.25 179.599 20.25C180.565 20.25 181.424 20.475 182.174 20.925C182.924 21.375 183.515 22.0333 183.949 22.9C184.399 23.75 184.624 24.8 184.624 26.05C184.624 27.2833 184.399 28.3333 183.949 29.2C183.515 30.0667 182.924 30.725 182.174 31.175C181.424 31.625 180.565 31.85 179.599 31.85C178.699 31.85 177.832 31.6417 176.999 31.225C176.182 30.7917 175.507 30.15 174.974 29.3C174.457 28.4333 174.199 27.35 174.199 26.05ZM178.749 26.05C178.749 26.55 178.857 26.9833 179.074 27.35C179.29 27.7167 179.582 27.9917 179.949 28.175C180.315 28.3583 180.715 28.45 181.149 28.45C181.532 28.45 181.907 28.3667 182.274 28.2C182.64 28.0167 182.94 27.75 183.174 27.4C183.407 27.05 183.524 26.6 183.524 26.05C183.524 25.6333 183.457 25.275 183.324 24.975C183.19 24.675 183.007 24.425 182.774 24.225C182.54 24.025 182.282 23.8833 181.999 23.8C181.715 23.7 181.432 23.65 181.149 23.65C180.715 23.65 180.315 23.7417 179.949 23.925C179.582 24.1083 179.29 24.3833 179.074 24.75C178.857 25.1 178.749 25.5333 178.749 26.05ZM196.601 32.25C195.184 32.25 193.959 32.0083 192.926 31.525C191.909 31.025 191.126 30.3333 190.576 29.45C190.026 28.55 189.751 27.4833 189.751 26.25C189.751 25 190.017 23.9333 190.551 23.05C191.084 22.15 191.851 21.4583 192.851 20.975C193.851 20.4917 195.051 20.25 196.451 20.25C197.851 20.25 199.026 20.475 199.976 20.925C200.926 21.375 201.651 22.0333 202.151 22.9C202.651 23.75 202.901 24.8 202.901 26.05C202.901 26.25 202.892 26.45 202.876 26.65C202.876 26.8333 202.867 27 202.851 27.15H192.126V24.925H198.901L197.976 26.075C198.059 25.9417 198.134 25.7917 198.201 25.625C198.267 25.4583 198.301 25.3167 198.301 25.2C198.301 24.7333 198.217 24.3417 198.051 24.025C197.901 23.6917 197.676 23.4417 197.376 23.275C197.092 23.0917 196.751 23 196.351 23C195.851 23 195.434 23.1167 195.101 23.35C194.767 23.5833 194.517 23.9417 194.351 24.425C194.184 24.8917 194.101 25.4917 194.101 26.225C194.084 26.875 194.167 27.425 194.351 27.875C194.534 28.325 194.801 28.675 195.151 28.925C195.501 29.1583 195.934 29.275 196.451 29.275C197.084 29.275 197.617 29.1667 198.051 28.95C198.501 28.7167 198.851 28.3833 199.101 27.95L203.001 28.725C202.384 29.9083 201.542 30.7917 200.476 31.375C199.426 31.9583 198.134 32.25 196.601 32.25ZM212.596 25C212.596 24.4 212.496 23.9417 212.296 23.625C212.096 23.2917 211.713 23.125 211.146 23.125C210.813 23.125 210.513 23.1917 210.246 23.325C209.996 23.4583 209.796 23.6667 209.646 23.95C209.513 24.2333 209.446 24.5833 209.446 25V32H205.121V20.5H209.446V22.2C209.763 21.6 210.204 21.125 210.771 20.775C211.354 20.4083 212.088 20.225 212.971 20.225C214.471 20.225 215.538 20.6083 216.171 21.375C216.804 22.125 217.121 23.1833 217.121 24.55V32H212.596V25ZM223.692 26.25C223.692 26.8 223.817 27.275 224.067 27.675C224.317 28.075 224.659 28.3833 225.092 28.6C225.526 28.8 225.992 28.9 226.492 28.9C226.909 28.9 227.317 28.8417 227.717 28.725C228.117 28.6083 228.484 28.4333 228.817 28.2C229.167 27.95 229.459 27.65 229.692 27.3V31.35C229.292 31.6 228.817 31.8167 228.267 32C227.717 32.1667 226.992 32.25 226.092 32.25C224.776 32.25 223.601 32.0083 222.567 31.525C221.534 31.025 220.717 30.325 220.117 29.425C219.534 28.525 219.242 27.4667 219.242 26.25C219.242 25.0167 219.534 23.9583 220.117 23.075C220.717 22.175 221.534 21.4833 222.567 21C223.601 20.5 224.776 20.25 226.092 20.25C226.992 20.25 227.717 20.3417 228.267 20.525C228.817 20.6917 229.292 20.8917 229.692 21.125V25.175C229.459 24.8083 229.151 24.5083 228.767 24.275C228.401 24.0417 228.017 23.875 227.617 23.775C227.217 23.6583 226.842 23.6 226.492 23.6C225.992 23.6 225.526 23.7167 225.092 23.95C224.659 24.1833 224.317 24.5 224.067 24.9C223.817 25.3 223.692 25.75 223.692 26.25ZM244.868 20.5L237.368 37.5H233.093L235.793 31.275L230.643 20.5H235.343L239.068 29.8L236.793 29.775L240.493 20.5H244.868ZM246.166 20.025V15.9L255.291 14.15V32H250.641V18.975L246.166 20.025ZM263.4 23.25C263.4 24.0167 263.467 24.7083 263.6 25.325C263.75 25.9417 263.95 26.4667 264.2 26.9C264.45 27.3333 264.75 27.6667 265.1 27.9C265.45 28.1167 265.833 28.225 266.25 28.225C266.683 28.225 267.067 28.1167 267.4 27.9C267.75 27.6667 268.05 27.3333 268.3 26.9C268.567 26.4667 268.767 25.9417 268.9 25.325C269.05 24.7083 269.125 24.0167 269.125 23.25C269.125 22.4833 269.05 21.7917 268.9 21.175C268.767 20.5583 268.567 20.0333 268.3 19.6C268.05 19.1667 267.75 18.8417 267.4 18.625C267.067 18.3917 266.683 18.275 266.25 18.275C265.833 18.275 265.45 18.3917 265.1 18.625C264.75 18.8417 264.45 19.1667 264.2 19.6C263.95 20.0333 263.75 20.5583 263.6 21.175C263.467 21.7917 263.4 22.4833 263.4 23.25ZM258.75 23.25C258.75 21.3 259.067 19.65 259.7 18.3C260.333 16.95 261.208 15.925 262.325 15.225C263.458 14.5083 264.767 14.15 266.25 14.15C267.817 14.15 269.158 14.5083 270.275 15.225C271.392 15.925 272.25 16.95 272.85 18.3C273.467 19.65 273.775 21.3 273.775 23.25C273.775 25.2 273.467 26.85 272.85 28.2C272.25 29.55 271.392 30.5833 270.275 31.3C269.158 32 267.817 32.35 266.25 32.35C264.767 32.35 263.458 32 262.325 31.3C261.208 30.5833 260.333 29.55 259.7 28.2C259.067 26.85 258.75 25.2 258.75 23.25ZM276.667 18.725C276.667 17.6917 276.95 16.8333 277.517 16.15C278.1 15.45 278.858 14.925 279.792 14.575C280.742 14.225 281.775 14.05 282.892 14.05C284.025 14.05 285.058 14.225 285.992 14.575C286.942 14.925 287.7 15.45 288.267 16.15C288.85 16.8333 289.142 17.6917 289.142 18.725C289.142 19.5583 288.95 20.2833 288.567 20.9C288.2 21.5 287.708 22 287.092 22.4C286.475 22.7833 285.8 23.0667 285.067 23.25C284.333 23.4333 283.608 23.525 282.892 23.525C282.175 23.525 281.45 23.4333 280.717 23.25C280 23.0667 279.333 22.7833 278.717 22.4C278.1 22 277.6 21.5 277.217 20.9C276.85 20.2833 276.667 19.5583 276.667 18.725ZM281.217 19.175C281.217 19.525 281.283 19.8333 281.417 20.1C281.567 20.35 281.767 20.5583 282.017 20.725C282.283 20.875 282.575 20.95 282.892 20.95C283.242 20.95 283.542 20.875 283.792 20.725C284.042 20.5583 284.233 20.35 284.367 20.1C284.517 19.8333 284.592 19.525 284.592 19.175C284.592 18.825 284.517 18.5167 284.367 18.25C284.233 17.9833 284.042 17.7833 283.792 17.65C283.542 17.5 283.242 17.425 282.892 17.425C282.575 17.425 282.283 17.5 282.017 17.65C281.767 17.7833 281.567 17.9833 281.417 18.25C281.283 18.5167 281.217 18.825 281.217 19.175ZM276.042 27.25C276.042 26.2833 276.258 25.475 276.692 24.825C277.125 24.1583 277.692 23.625 278.392 23.225C279.092 22.8083 279.833 22.5083 280.617 22.325C281.417 22.1417 282.175 22.05 282.892 22.05C283.608 22.05 284.367 22.1417 285.167 22.325C285.967 22.5083 286.717 22.8083 287.417 23.225C288.117 23.625 288.683 24.1583 289.117 24.825C289.55 25.475 289.767 26.2833 289.767 27.25C289.767 28.0833 289.575 28.825 289.192 29.475C288.825 30.125 288.308 30.6667 287.642 31.1C286.992 31.5333 286.258 31.8667 285.442 32.1C284.625 32.3333 283.775 32.45 282.892 32.45C282.025 32.45 281.175 32.3333 280.342 32.1C279.525 31.8667 278.792 31.5333 278.142 31.1C277.492 30.6667 276.975 30.125 276.592 29.475C276.225 28.825 276.042 28.0833 276.042 27.25ZM280.892 26.5C280.892 26.95 280.975 27.325 281.142 27.625C281.325 27.925 281.567 28.1583 281.867 28.325C282.183 28.475 282.525 28.55 282.892 28.55C283.275 28.55 283.617 28.475 283.917 28.325C284.233 28.1583 284.475 27.925 284.642 27.625C284.825 27.325 284.917 26.95 284.917 26.5C284.917 26.1333 284.825 25.8 284.642 25.5C284.475 25.2 284.233 24.9667 283.917 24.8C283.617 24.6167 283.275 24.525 282.892 24.525C282.525 24.525 282.183 24.6167 281.867 24.8C281.567 24.9667 281.325 25.2 281.142 25.5C280.975 25.8 280.892 26.1333 280.892 26.5Z" fill="black"/>
<path fill-rule="evenodd" clip-rule="evenodd" d="M25.9999 8.66667C22.9683 8.66611 19.9894 9.46072 17.3608 10.9712C14.7322 12.4817 12.5457 14.6552 11.0196 17.2747C9.49355 19.8943 8.68121 22.8683 8.66372 25.9C8.64622 28.9316 9.42418 31.9148 10.9199 34.5518C11.9309 33.2379 13.2305 32.1741 14.7183 31.4426C16.206 30.7111 17.8421 30.3316 19.4999 30.3333H32.4999C34.1578 30.3316 35.7938 30.7111 37.2816 31.4426C38.7693 32.1741 40.0689 33.2379 41.0799 34.5518C42.5757 31.9148 43.3537 28.9316 43.3362 25.9C43.3187 22.8683 42.5063 19.8943 40.9802 17.2747C39.4541 14.6552 37.2677 12.4817 34.6391 10.9712C32.0104 9.46072 29.0316 8.66611 25.9999 8.66667ZM43.2098 39.1647C43.4813 38.8108 43.7413 38.4482 43.9898 38.077C46.3918 34.5078 47.6722 30.3022 47.6666 26C47.6666 14.0335 37.9664 4.33333 25.9999 4.33333C14.0334 4.33333 4.33327 14.0335 4.33327 26C4.32645 30.7596 5.89336 35.388 8.79011 39.1647L8.77927 39.2037L9.54844 40.0985C11.5805 42.4743 14.1036 44.3812 16.9438 45.6877C19.7839 46.9943 22.8737 47.6694 25.9999 47.6667C26.4679 47.6667 26.9331 47.6522 27.3953 47.6233C31.3048 47.3768 35.0733 46.0697 38.2958 43.8425C39.8369 42.7793 41.2338 41.5208 42.4514 40.0985L43.2206 39.2037L43.2098 39.1647ZM25.9999 13C24.276 13 22.6227 13.6848 21.4037 14.9038C20.1848 16.1228 19.4999 17.7761 19.4999 19.5C19.4999 21.2239 20.1848 22.8772 21.4037 24.0962C22.6227 25.3152 24.276 26 25.9999 26C27.7238 26 29.3772 25.3152 30.5961 24.0962C31.8151 22.8772 32.4999 21.2239 32.4999 19.5C32.4999 17.7761 31.8151 16.1228 30.5961 14.9038C29.3772 13.6848 27.7238 13 25.9999 13Z" fill="black"/>
<path d="M383.333 35C384.483 35 385.585 35.4565 386.397 36.2692C387.21 37.0819 387.667 38.1841 387.667 39.3333C387.667 40.4826 387.21 41.5848 386.397 42.3975C385.585 43.2101 384.483 43.6667 383.333 43.6667C382.184 43.6667 381.082 43.2101 380.269 42.3975C379.457 41.5848 379 40.4826 379 39.3333C379 38.1841 379.457 37.0819 380.269 36.2692C381.082 35.4565 382.184 35 383.333 35ZM383.333 22C384.483 22 385.585 22.4565 386.397 23.2692C387.21 24.0819 387.667 25.1841 387.667 26.3333C387.667 27.4826 387.21 28.5848 386.397 29.3975C385.585 30.2101 384.483 30.6667 383.333 30.6667C382.184 30.6667 381.082 30.2101 380.269 29.3975C379.457 28.5848 379 27.4826 379 26.3333C379 25.1841 379.457 24.0819 380.269 23.2692C381.082 22.4565 382.184 22 383.333 22ZM383.333 9C384.483 9 385.585 9.45655 386.397 10.2692C387.21 11.0819 387.667 12.1841 387.667 13.3333C387.667 14.4826 387.21 15.5848 386.397 16.3975C385.585 17.2101 384.483 17.6667 383.333 17.6667C382.184 17.6667 381.082 17.2101 380.269 16.3975C379.457 15.5848 379 14.4826 379 13.3333C379 12.1841 379.457 11.0819 380.269 10.2692C381.082 9.45655 382.184 9 383.333 9ZM383.333 11.1667C382.759 11.1667 382.208 11.3949 381.801 11.8013C381.395 12.2076 381.167 12.7587 381.167 13.3333C381.167 13.908 381.395 14.4591 381.801 14.8654C382.208 15.2717 382.759 15.5 383.333 15.5C383.908 15.5 384.459 15.2717 384.865 14.8654C385.272 14.4591 385.5 13.908 385.5 13.3333C385.5 12.7587 385.272 12.2076 384.865 11.8013C384.459 11.3949 383.908 11.1667 383.333 11.1667ZM383.333 24.1667C382.759 24.1667 382.208 24.3949 381.801 24.8013C381.395 25.2076 381.167 25.7587 381.167 26.3333C381.167 26.908 381.395 27.4591 381.801 27.8654C382.208 28.2717 382.759 28.5 383.333 28.5C383.908 28.5 384.459 28.2717 384.865 27.8654C385.272 27.4591 385.5 26.908 385.5 26.3333C385.5 25.7587 385.272 25.2076 384.865 24.8013C384.459 24.3949 383.908 24.1667 383.333 24.1667ZM383.333 37.1667C382.759 37.1667 382.208 37.3949 381.801 37.8013C381.395 38.2076 381.167 38.7587 381.167 39.3333C381.167 39.908 381.395 40.4591 381.801 40.8654C382.208 41.2717 382.759 41.5 383.333 41.5C383.908 41.5 384.459 41.2717 384.865 40.8654C385.272 40.4591 385.5 39.908 385.5 39.3333C385.5 38.7587 385.272 38.2076 384.865 37.8013C384.459 37.3949 383.908 37.1667 383.333 37.1667Z" fill="black"/>
</svg>
