<svg width="285" height="128" viewBox="0 0 285 128" fill="none" xmlns="http://www.w3.org/2000/svg">
<g filter="url(#filter0_f_55_146)">
<rect x="32" y="46" width="247" height="55" rx="12" fill="#CFC6C6"/>
<rect x="31" y="45" width="249" height="57" rx="13" stroke="black" stroke-width="2"/>
</g>
<path d="M163.167 68.9583H181.333V78.0417H163.167V68.9583ZM190.417 68.9583H208.583V78.0417H190.417V68.9583ZM235.833 68.9583H217.667V78.0417H235.833V68.9583Z" fill="black"/>
<path d="M72.1667 68.9583H90.3334V78.0417H72.1667V68.9583ZM99.4167 68.9583H117.583V78.0417H99.4167V68.9583ZM144.833 68.9583H126.667V78.0417H144.833V68.9583Z" fill="black"/>
<path d="M24.6944 19V4.45455H34.1547V6.66335H27.3294V10.6122H33.6646V12.821H27.3294V16.7912H34.2115V19H24.6944ZM39.3002 12.608V19H36.7292V8.09091H39.1866V9.9446H39.3145C39.5654 9.33381 39.9655 8.84848 40.5147 8.48864C41.0687 8.12879 41.7529 7.94886 42.5673 7.94886C43.3201 7.94886 43.9759 8.10985 44.5346 8.43182C45.0981 8.75379 45.5337 9.22017 45.8414 9.83097C46.1539 10.4418 46.3078 11.1828 46.3031 12.054V19H43.7321V12.4517C43.7321 11.7225 43.5427 11.152 43.1639 10.7401C42.7898 10.3281 42.2714 10.1222 41.6085 10.1222C41.1587 10.1222 40.7586 10.2216 40.4082 10.4205C40.0626 10.6146 39.7903 10.8963 39.5914 11.2656C39.3973 11.6349 39.3002 12.0824 39.3002 12.608ZM54.3642 8.09091V10.0795H48.0929V8.09091H54.3642ZM49.6412 5.47727H52.2122V15.7188C52.2122 16.0644 52.2643 16.3295 52.3684 16.5142C52.4773 16.6941 52.6194 16.8172 52.7946 16.8835C52.9698 16.9498 53.1639 16.983 53.377 16.983C53.5379 16.983 53.6847 16.9711 53.8173 16.9474C53.9546 16.9238 54.0588 16.9025 54.1298 16.8835L54.563 18.8935C54.4257 18.9408 54.2292 18.9929 53.9735 19.0497C53.7226 19.1065 53.4148 19.1397 53.0502 19.1491C52.4063 19.1681 51.8263 19.071 51.3102 18.858C50.7941 18.6402 50.3845 18.304 50.0815 17.8494C49.7832 17.3949 49.6364 16.8267 49.6412 16.1449V5.47727ZM61.2267 19.2131C60.133 19.2131 59.1884 18.9858 58.3929 18.5312C57.6022 18.072 56.9938 17.4233 56.5676 16.5852C56.1415 15.7424 55.9284 14.7505 55.9284 13.6094C55.9284 12.4872 56.1415 11.5024 56.5676 10.6548C56.9985 9.80256 57.5998 9.13968 58.3716 8.66619C59.1434 8.18797 60.0501 7.94886 61.0918 7.94886C61.7641 7.94886 62.3986 8.05777 62.9952 8.27557C63.5965 8.48864 64.1268 8.82008 64.5861 9.26989C65.0501 9.7197 65.4147 10.2926 65.6799 10.9886C65.945 11.6799 66.0776 12.5038 66.0776 13.4602V14.2486H57.1358V12.5156H63.6131C63.6084 12.0232 63.5018 11.5852 63.2935 11.2017C63.0852 10.8134 62.794 10.508 62.4199 10.2855C62.0506 10.063 61.6197 9.9517 61.1273 9.9517C60.6017 9.9517 60.1401 10.0795 59.7424 10.3352C59.3446 10.5862 59.0345 10.9176 58.812 11.3295C58.5942 11.7367 58.4829 12.1842 58.4782 12.6719V14.1847C58.4782 14.8191 58.5942 15.3636 58.8262 15.8182C59.0582 16.268 59.3825 16.6136 59.7992 16.8551C60.2158 17.0919 60.7035 17.2102 61.2623 17.2102C61.6363 17.2102 61.9748 17.1581 62.2779 17.054C62.5809 16.9451 62.8437 16.7865 63.0662 16.5781C63.2888 16.3698 63.4569 16.1117 63.5705 15.804L65.9711 16.0739C65.8195 16.7083 65.5307 17.2623 65.1046 17.7358C64.6832 18.2045 64.1434 18.5691 63.4853 18.8295C62.8271 19.0852 62.0743 19.2131 61.2267 19.2131ZM68.2527 19V8.09091H70.7456V9.90909H70.8592C71.0581 9.27936 71.399 8.79403 71.8819 8.45312C72.3696 8.10748 72.926 7.93466 73.551 7.93466C73.693 7.93466 73.8516 7.94176 74.0268 7.95597C74.2067 7.96544 74.3559 7.98201 74.4743 8.00568V10.3707C74.3654 10.3329 74.1925 10.2997 73.9558 10.2713C73.7238 10.2382 73.4989 10.2216 73.2811 10.2216C72.8123 10.2216 72.3909 10.3234 72.0169 10.527C71.6475 10.7259 71.3564 11.0028 71.1433 11.358C70.9302 11.7131 70.8237 12.1226 70.8237 12.5866V19H68.2527ZM94.2541 11.7273C94.2541 13.2945 93.9605 14.6368 93.3734 15.7543C92.791 16.867 91.9956 17.7192 90.987 18.3111C89.9833 18.9029 88.8445 19.1989 87.5708 19.1989C86.2972 19.1989 85.1561 18.9029 84.1475 18.3111C83.1438 17.7145 82.3483 16.8598 81.7612 15.7472C81.1788 14.6297 80.8876 13.2898 80.8876 11.7273C80.8876 10.16 81.1788 8.82008 81.7612 7.70739C82.3483 6.58996 83.1438 5.73532 84.1475 5.14347C85.1561 4.55161 86.2972 4.25568 87.5708 4.25568C88.8445 4.25568 89.9833 4.55161 90.987 5.14347C91.9956 5.73532 92.791 6.58996 93.3734 7.70739C93.9605 8.82008 94.2541 10.16 94.2541 11.7273ZM91.6049 11.7273C91.6049 10.6241 91.4321 9.69366 91.0865 8.93608C90.7456 8.17377 90.2721 7.59848 89.666 7.21023C89.06 6.81723 88.3616 6.62074 87.5708 6.62074C86.7801 6.62074 86.0817 6.81723 85.4757 7.21023C84.8696 7.59848 84.3938 8.17377 84.0481 8.93608C83.7072 9.69366 83.5368 10.6241 83.5368 11.7273C83.5368 12.8305 83.7072 13.7633 84.0481 14.5256C84.3938 15.2831 84.8696 15.8584 85.4757 16.2514C86.0817 16.6397 86.7801 16.8338 87.5708 16.8338C88.3616 16.8338 89.06 16.6397 89.666 16.2514C90.2721 15.8584 90.7456 15.2831 91.0865 14.5256C91.4321 13.7633 91.6049 12.8305 91.6049 11.7273ZM95.4615 6.66335V4.45455H107.067V6.66335H102.571V19H99.9572V6.66335H95.4615ZM109.304 19V4.45455H114.758C115.876 4.45455 116.813 4.66288 117.571 5.07955C118.333 5.49621 118.908 6.06913 119.297 6.7983C119.69 7.52273 119.886 8.34659 119.886 9.26989C119.886 10.2027 119.69 11.0312 119.297 11.7557C118.904 12.4801 118.324 13.0507 117.557 13.4673C116.79 13.8793 115.845 14.0852 114.723 14.0852H111.108V11.919H114.368C115.021 11.919 115.556 11.8054 115.973 11.5781C116.39 11.3509 116.697 11.0384 116.896 10.6406C117.1 10.2429 117.202 9.78598 117.202 9.26989C117.202 8.75379 117.1 8.29924 116.896 7.90625C116.697 7.51326 116.387 7.20786 115.966 6.99006C115.549 6.76752 115.012 6.65625 114.354 6.65625H111.939V19H109.304Z" fill="black"/>
<defs>
<filter id="filter0_f_55_146" x="26" y="40" width="259" height="67" filterUnits="userSpaceOnUse" color-interpolation-filters="sRGB">
<feFlood flood-opacity="0" result="BackgroundImageFix"/>
<feBlend mode="normal" in="SourceGraphic" in2="BackgroundImageFix" result="shape"/>
<feGaussianBlur stdDeviation="2" result="effect1_foregroundBlur_55_146"/>
</filter>
</defs>
</svg>
