<svg width="283" height="120" viewBox="0 0 283 120" fill="none" xmlns="http://www.w3.org/2000/svg">
<path d="M50.8867 19H46.3981V4.45455H51.0856C52.4966 4.45455 53.704 4.74574 54.7077 5.32812C55.7115 5.90578 56.4809 6.73674 57.016 7.82102C57.551 8.90057 57.8185 10.1932 57.8185 11.6989C57.8185 13.214 57.5487 14.5185 57.0089 15.6122C56.4691 16.7012 55.6831 17.5393 54.6509 18.1264C53.6187 18.7088 52.364 19 50.8867 19ZM48.1594 17.4375H50.7731C51.9757 17.4375 52.9724 17.2055 53.7631 16.7415C54.5539 16.2775 55.1433 15.617 55.5316 14.7599C55.9199 13.9029 56.114 12.8826 56.114 11.6989C56.114 10.5246 55.9222 9.51373 55.5387 8.66619C55.1552 7.81392 54.5823 7.16051 53.82 6.70597C53.0576 6.24669 52.1083 6.01705 50.9719 6.01705H48.1594V17.4375ZM60.5458 19V8.09091H62.2219V19H60.5458ZM61.3981 6.27273C61.0714 6.27273 60.7897 6.16146 60.5529 5.93892C60.3209 5.71638 60.2049 5.44886 60.2049 5.13636C60.2049 4.82386 60.3209 4.55634 60.5529 4.33381C60.7897 4.11127 61.0714 4 61.3981 4C61.7248 4 62.0041 4.11127 62.2362 4.33381C62.4729 4.55634 62.5913 4.82386 62.5913 5.13636C62.5913 5.44886 62.4729 5.71638 62.2362 5.93892C62.0041 6.16146 61.7248 6.27273 61.3981 6.27273ZM69.4112 19.2273C68.5021 19.2273 67.6996 18.9976 67.0036 18.5384C66.3075 18.0743 65.763 17.4209 65.37 16.5781C64.977 15.7306 64.7805 14.7292 64.7805 13.5739C64.7805 12.428 64.977 11.4337 65.37 10.5909C65.763 9.74811 66.3099 9.09706 67.0107 8.63778C67.7114 8.1785 68.5211 7.94886 69.4396 7.94886C70.1499 7.94886 70.7109 8.06723 71.1229 8.30398C71.5395 8.53598 71.8568 8.80114 72.0746 9.09943C72.2971 9.39299 72.4699 9.63447 72.593 9.82386H72.7351V4.45455H74.4112V19H72.7919V17.3239H72.593C72.4699 17.5227 72.2947 17.7737 72.0675 18.0767C71.8402 18.375 71.5159 18.6425 71.0945 18.8793C70.6731 19.1113 70.112 19.2273 69.4112 19.2273ZM69.6385 17.7216C70.3108 17.7216 70.879 17.5464 71.343 17.196C71.8071 16.8409 72.1598 16.3509 72.4013 15.7259C72.6428 15.0961 72.7635 14.3693 72.7635 13.5455C72.7635 12.7311 72.6451 12.0185 72.4084 11.4077C72.1716 10.7921 71.8213 10.3139 71.3572 9.97301C70.8932 9.62737 70.3203 9.45455 69.6385 9.45455C68.9283 9.45455 68.3364 9.63684 67.8629 10.0014C67.3942 10.3613 67.0414 10.8513 66.8047 11.4716C66.5727 12.0871 66.4567 12.7784 66.4567 13.5455C66.4567 14.322 66.575 15.0275 66.8118 15.6619C67.0533 16.2917 67.4084 16.7936 67.8771 17.1676C68.3506 17.5369 68.9377 17.7216 69.6385 17.7216ZM79.3899 12.4375V19H77.7138V8.09091H79.3331V9.79545H79.4751C79.7308 9.24148 80.1191 8.7964 80.6399 8.46023C81.1607 8.11932 81.8331 7.94886 82.657 7.94886C83.3956 7.94886 84.0419 8.10038 84.5959 8.40341C85.1499 8.7017 85.5807 9.15625 85.8885 9.76705C86.1963 10.3731 86.3501 11.1402 86.3501 12.0682V19H84.674V12.1818C84.674 11.3248 84.4515 10.6572 84.0064 10.179C83.5613 9.69602 82.9505 9.45455 82.174 9.45455C81.639 9.45455 81.1607 9.57055 80.7393 9.80256C80.3227 10.0346 79.9936 10.3731 79.7521 10.8182C79.5107 11.2633 79.3899 11.803 79.3899 12.4375ZM90.8903 4.45455V5.73295C90.8903 6.12121 90.8192 6.53551 90.6772 6.97585C90.5399 7.41146 90.3363 7.83523 90.0664 8.24716C89.8013 8.65436 89.4793 9.00947 89.1005 9.3125L88.1914 8.57386C88.4897 8.14773 88.7478 7.70502 88.9656 7.24574C89.1881 6.78172 89.2994 6.28693 89.2994 5.76136V4.45455H90.8903ZM98.1417 8.09091V9.51136H92.4883V8.09091H98.1417ZM94.136 5.47727H95.8121V15.875C95.8121 16.3485 95.8808 16.7036 96.0181 16.9403C96.1602 17.1723 96.3401 17.3286 96.5579 17.4091C96.7804 17.4848 97.0148 17.5227 97.261 17.5227C97.4457 17.5227 97.5972 17.5133 97.7156 17.4943C97.8339 17.4706 97.9286 17.4517 97.9996 17.4375L98.3406 18.9432C98.2269 18.9858 98.0683 19.0284 97.8647 19.071C97.6611 19.1184 97.4031 19.142 97.0906 19.142C96.6171 19.142 96.1531 19.0402 95.6985 18.8366C95.2487 18.633 94.8746 18.3229 94.5763 17.9062C94.2828 17.4896 94.136 16.964 94.136 16.3295V5.47727ZM106.288 19V8.09091H107.907V9.73864H108.021C108.22 9.19886 108.58 8.76089 109.1 8.42472C109.621 8.08854 110.208 7.92045 110.862 7.92045C110.985 7.92045 111.139 7.92282 111.324 7.92756C111.508 7.93229 111.648 7.93939 111.743 7.94886V9.65341C111.686 9.6392 111.556 9.6179 111.352 9.58949C111.153 9.55634 110.942 9.53977 110.72 9.53977C110.19 9.53977 109.716 9.65104 109.299 9.87358C108.887 10.0914 108.561 10.3944 108.319 10.7827C108.083 11.1662 107.964 11.6042 107.964 12.0966V19H106.288ZM117.971 19.2273C116.92 19.2273 116.013 18.9953 115.251 18.5312C114.493 18.0625 113.909 17.4091 113.497 16.571C113.09 15.7282 112.886 14.7481 112.886 13.6307C112.886 12.5133 113.09 11.5284 113.497 10.6761C113.909 9.81913 114.482 9.15152 115.216 8.6733C115.954 8.19034 116.816 7.94886 117.801 7.94886C118.369 7.94886 118.93 8.04356 119.484 8.23295C120.038 8.42235 120.542 8.73011 120.997 9.15625C121.451 9.57765 121.814 10.1364 122.083 10.8324C122.353 11.5284 122.488 12.3854 122.488 13.4034V14.1136H114.079V12.6648H120.784C120.784 12.0492 120.661 11.5 120.414 11.017C120.173 10.5341 119.827 10.1529 119.377 9.87358C118.932 9.59422 118.407 9.45455 117.801 9.45455C117.133 9.45455 116.556 9.62026 116.068 9.9517C115.585 10.2784 115.213 10.7045 114.953 11.2301C114.692 11.7557 114.562 12.3191 114.562 12.9205V13.8864C114.562 14.7102 114.704 15.4086 114.988 15.9815C115.277 16.5497 115.677 16.983 116.189 17.2812C116.7 17.5748 117.294 17.7216 117.971 17.7216C118.412 17.7216 118.809 17.66 119.164 17.5369C119.524 17.4091 119.834 17.2197 120.095 16.9688C120.355 16.7131 120.556 16.3958 120.699 16.017L122.318 16.4716C122.147 17.0208 121.861 17.5038 121.458 17.9205C121.056 18.3324 120.559 18.6544 119.967 18.8864C119.375 19.1136 118.71 19.2273 117.971 19.2273ZM129.47 19.2273C128.447 19.2273 127.566 18.9858 126.828 18.5028C126.089 18.0199 125.521 17.3546 125.123 16.5071C124.725 15.6596 124.527 14.6913 124.527 13.6023C124.527 12.4943 124.73 11.5166 125.137 10.669C125.549 9.81676 126.122 9.15152 126.856 8.6733C127.595 8.19034 128.457 7.94886 129.441 7.94886C130.208 7.94886 130.9 8.09091 131.515 8.375C132.131 8.65909 132.635 9.05682 133.028 9.56818C133.421 10.0795 133.665 10.6761 133.76 11.358H132.083C131.956 10.8608 131.672 10.4205 131.231 10.0369C130.796 9.64867 130.208 9.45455 129.47 9.45455C128.816 9.45455 128.243 9.625 127.751 9.96591C127.263 10.3021 126.882 10.7779 126.608 11.3935C126.338 12.0043 126.203 12.7216 126.203 13.5455C126.203 14.3883 126.335 15.1222 126.6 15.7472C126.87 16.3722 127.249 16.8575 127.737 17.2031C128.229 17.5488 128.807 17.7216 129.47 17.7216C129.905 17.7216 130.301 17.6458 130.656 17.4943C131.011 17.3428 131.312 17.125 131.558 16.8409C131.804 16.5568 131.979 16.2159 132.083 15.8182H133.76C133.665 16.4621 133.431 17.0421 133.056 17.5582C132.687 18.0696 132.197 18.4768 131.586 18.7798C130.98 19.0781 130.275 19.2273 129.47 19.2273ZM140.784 19.2273C139.733 19.2273 138.826 18.9953 138.064 18.5312C137.306 18.0625 136.721 17.4091 136.309 16.571C135.902 15.7282 135.699 14.7481 135.699 13.6307C135.699 12.5133 135.902 11.5284 136.309 10.6761C136.721 9.81913 137.294 9.15152 138.028 8.6733C138.767 8.19034 139.628 7.94886 140.613 7.94886C141.181 7.94886 141.743 8.04356 142.297 8.23295C142.85 8.42235 143.355 8.73011 143.809 9.15625C144.264 9.57765 144.626 10.1364 144.896 10.8324C145.166 11.5284 145.301 12.3854 145.301 13.4034V14.1136H136.892V12.6648H143.596C143.596 12.0492 143.473 11.5 143.227 11.017C142.985 10.5341 142.64 10.1529 142.19 9.87358C141.745 9.59422 141.219 9.45455 140.613 9.45455C139.946 9.45455 139.368 9.62026 138.88 9.9517C138.397 10.2784 138.026 10.7045 137.765 11.2301C137.505 11.7557 137.375 12.3191 137.375 12.9205V13.8864C137.375 14.7102 137.517 15.4086 137.801 15.9815C138.09 16.5497 138.49 16.983 139.001 17.2812C139.512 17.5748 140.107 17.7216 140.784 17.7216C141.224 17.7216 141.622 17.66 141.977 17.5369C142.337 17.4091 142.647 17.2197 142.907 16.9688C143.168 16.7131 143.369 16.3958 143.511 16.017L145.13 16.4716C144.96 17.0208 144.673 17.5038 144.271 17.9205C143.868 18.3324 143.371 18.6544 142.779 18.8864C142.188 19.1136 141.522 19.2273 140.784 19.2273ZM147.85 19V8.09091H149.527V19H147.85ZM148.703 6.27273C148.376 6.27273 148.094 6.16146 147.858 5.93892C147.626 5.71638 147.51 5.44886 147.51 5.13636C147.51 4.82386 147.626 4.55634 147.858 4.33381C148.094 4.11127 148.376 4 148.703 4C149.029 4 149.309 4.11127 149.541 4.33381C149.778 4.55634 149.896 4.82386 149.896 5.13636C149.896 5.44886 149.778 5.71638 149.541 5.93892C149.309 6.16146 149.029 6.27273 148.703 6.27273ZM161.517 8.09091L157.483 19H155.778L151.744 8.09091H153.562L156.574 16.7841H156.688L159.699 8.09091H161.517ZM167.913 19.2273C166.862 19.2273 165.955 18.9953 165.192 18.5312C164.435 18.0625 163.85 17.4091 163.438 16.571C163.031 15.7282 162.827 14.7481 162.827 13.6307C162.827 12.5133 163.031 11.5284 163.438 10.6761C163.85 9.81913 164.423 9.15152 165.157 8.6733C165.896 8.19034 166.757 7.94886 167.742 7.94886C168.31 7.94886 168.871 8.04356 169.425 8.23295C169.979 8.42235 170.484 8.73011 170.938 9.15625C171.393 9.57765 171.755 10.1364 172.025 10.8324C172.295 11.5284 172.43 12.3854 172.43 13.4034V14.1136H164.021V12.6648H170.725C170.725 12.0492 170.602 11.5 170.356 11.017C170.114 10.5341 169.769 10.1529 169.319 9.87358C168.874 9.59422 168.348 9.45455 167.742 9.45455C167.075 9.45455 166.497 9.62026 166.009 9.9517C165.526 10.2784 165.155 10.7045 164.894 11.2301C164.634 11.7557 164.504 12.3191 164.504 12.9205V13.8864C164.504 14.7102 164.646 15.4086 164.93 15.9815C165.219 16.5497 165.619 16.983 166.13 17.2812C166.641 17.5748 167.236 17.7216 167.913 17.7216C168.353 17.7216 168.751 17.66 169.106 17.5369C169.466 17.4091 169.776 17.2197 170.036 16.9688C170.297 16.7131 170.498 16.3958 170.64 16.017L172.259 16.4716C172.089 17.0208 171.802 17.5038 171.4 17.9205C170.997 18.3324 170.5 18.6544 169.908 18.8864C169.317 19.1136 168.651 19.2273 167.913 19.2273ZM193.104 11.7273C193.104 13.2614 192.827 14.5871 192.273 15.7045C191.719 16.822 190.96 17.6837 189.994 18.2898C189.028 18.8958 187.924 19.1989 186.684 19.1989C185.443 19.1989 184.34 18.8958 183.374 18.2898C182.408 17.6837 181.648 16.822 181.094 15.7045C180.54 14.5871 180.263 13.2614 180.263 11.7273C180.263 10.1932 180.54 8.86742 181.094 7.75C181.648 6.63258 182.408 5.77083 183.374 5.16477C184.34 4.55871 185.443 4.25568 186.684 4.25568C187.924 4.25568 189.028 4.55871 189.994 5.16477C190.96 5.77083 191.719 6.63258 192.273 7.75C192.827 8.86742 193.104 10.1932 193.104 11.7273ZM191.4 11.7273C191.4 10.4678 191.189 9.40483 190.768 8.53835C190.351 7.67188 189.785 7.0161 189.07 6.57102C188.36 6.12595 187.565 5.90341 186.684 5.90341C185.803 5.90341 185.005 6.12595 184.29 6.57102C183.58 7.0161 183.014 7.67188 182.593 8.53835C182.176 9.40483 181.968 10.4678 181.968 11.7273C181.968 12.9867 182.176 14.0497 182.593 14.9162C183.014 15.7827 183.58 16.4384 184.29 16.8835C185.005 17.3286 185.803 17.5511 186.684 17.5511C187.565 17.5511 188.36 17.3286 189.07 16.8835C189.785 16.4384 190.351 15.7827 190.768 14.9162C191.189 14.0497 191.4 12.9867 191.4 11.7273ZM194.665 6.01705V4.45455H205.574V6.01705H201V19H199.239V6.01705H194.665ZM208.293 19V4.45455H213.207C214.348 4.45455 215.281 4.66051 216.006 5.07244C216.735 5.47964 217.275 6.03125 217.625 6.72727C217.975 7.4233 218.151 8.19981 218.151 9.05682C218.151 9.91383 217.975 10.6927 217.625 11.3935C217.279 12.0942 216.744 12.6529 216.02 13.0696C215.295 13.4815 214.367 13.6875 213.236 13.6875H209.713V12.125H213.179C213.96 12.125 214.588 11.9901 215.061 11.7202C215.535 11.4503 215.878 11.0857 216.091 10.6264C216.309 10.1624 216.418 9.6392 216.418 9.05682C216.418 8.47443 216.309 7.9536 216.091 7.49432C215.878 7.03504 215.532 6.67519 215.054 6.41477C214.576 6.14962 213.941 6.01705 213.151 6.01705H210.054V19H208.293ZM222.948 14.9091V14.8239C222.958 13.9195 223.052 13.1998 223.232 12.6648C223.412 12.1297 223.668 11.6965 223.999 11.3651C224.331 11.0336 224.728 10.7282 225.192 10.4489C225.472 10.2784 225.723 10.0772 225.945 9.84517C226.168 9.60843 226.343 9.33617 226.471 9.02841C226.603 8.72064 226.67 8.37973 226.67 8.00568C226.67 7.54167 226.561 7.1392 226.343 6.7983C226.125 6.45739 225.834 6.1946 225.469 6.00994C225.105 5.82528 224.7 5.73295 224.255 5.73295C223.867 5.73295 223.493 5.81345 223.133 5.97443C222.773 6.13542 222.472 6.38873 222.231 6.73438C221.989 7.08002 221.85 7.5322 221.812 8.09091H220.022C220.06 7.28598 220.268 6.59706 220.647 6.02415C221.031 5.45123 221.535 5.01326 222.16 4.71023C222.79 4.4072 223.488 4.25568 224.255 4.25568C225.088 4.25568 225.813 4.4214 226.428 4.75284C227.049 5.08428 227.527 5.53883 227.863 6.11648C228.204 6.69413 228.374 7.35227 228.374 8.09091C228.374 8.61174 228.294 9.08286 228.133 9.50426C227.977 9.92566 227.749 10.3021 227.451 10.6335C227.157 10.965 226.802 11.2585 226.386 11.5142C225.969 11.7746 225.635 12.0492 225.384 12.3381C225.133 12.6222 224.951 12.9607 224.837 13.3537C224.724 13.7467 224.662 14.2367 224.653 14.8239V14.9091H222.948ZM223.857 19.1136C223.507 19.1136 223.206 18.9882 222.955 18.7372C222.704 18.4863 222.579 18.1856 222.579 17.8352C222.579 17.4848 222.704 17.1842 222.955 16.9332C223.206 16.6823 223.507 16.5568 223.857 16.5568C224.208 16.5568 224.508 16.6823 224.759 16.9332C225.01 17.1842 225.136 17.4848 225.136 17.8352C225.136 18.0672 225.076 18.2803 224.958 18.4744C224.844 18.6686 224.691 18.8248 224.496 18.9432C224.307 19.0568 224.094 19.1136 223.857 19.1136Z" fill="black"/>
<path d="M98.1074 46V30H104.42C105.628 30 106.66 30.2161 107.514 30.6484C108.373 31.0755 109.027 31.6823 109.475 32.4688C109.928 33.25 110.154 34.1693 110.154 35.2266C110.154 36.2891 109.925 37.2031 109.467 37.9687C109.008 38.7292 108.344 39.3125 107.475 39.7187C106.61 40.125 105.563 40.3281 104.334 40.3281H100.107V37.6094H103.787C104.433 37.6094 104.969 37.5208 105.396 37.3438C105.824 37.1667 106.141 36.901 106.35 36.5469C106.563 36.1927 106.67 35.7526 106.67 35.2266C106.67 34.6953 106.563 34.2474 106.35 33.8828C106.141 33.5182 105.821 33.2422 105.389 33.0547C104.962 32.862 104.423 32.7656 103.771 32.7656H101.49V46H98.1074ZM106.748 38.7188L110.725 46H106.99L103.1 38.7188H106.748ZM117.758 46.2344C116.523 46.2344 115.461 45.9844 114.57 45.4844C113.685 44.9792 113.003 44.2656 112.523 43.3437C112.044 42.4167 111.805 41.3203 111.805 40.0547C111.805 38.8203 112.044 37.737 112.523 36.8047C113.003 35.8724 113.677 35.1458 114.547 34.625C115.422 34.1042 116.448 33.8438 117.625 33.8438C118.417 33.8438 119.154 33.9714 119.836 34.2266C120.523 34.4766 121.122 34.8542 121.633 35.3594C122.148 35.8646 122.549 36.5 122.836 37.2656C123.122 38.026 123.266 38.9167 123.266 39.9375V40.8516H113.133V38.7891H120.133C120.133 38.3099 120.029 37.8854 119.82 37.5156C119.612 37.1458 119.323 36.8568 118.953 36.6484C118.589 36.4349 118.164 36.3281 117.68 36.3281C117.174 36.3281 116.727 36.4453 116.336 36.6797C115.951 36.9089 115.648 37.2187 115.43 37.6094C115.211 37.9948 115.099 38.4245 115.094 38.8984V40.8594C115.094 41.4531 115.203 41.9661 115.422 42.3984C115.646 42.8307 115.961 43.1641 116.367 43.3984C116.773 43.6328 117.255 43.75 117.812 43.75C118.182 43.75 118.521 43.6979 118.828 43.5938C119.135 43.4896 119.398 43.3333 119.617 43.125C119.836 42.9167 120.003 42.6615 120.117 42.3594L123.195 42.5625C123.039 43.3021 122.719 43.9479 122.234 44.5C121.755 45.0469 121.135 45.474 120.375 45.7813C119.62 46.0833 118.747 46.2344 117.758 46.2344ZM135.422 37.4219L132.375 37.6094C132.323 37.349 132.211 37.1146 132.039 36.9062C131.867 36.6927 131.641 36.5234 131.359 36.3984C131.083 36.2682 130.753 36.2031 130.367 36.2031C129.852 36.2031 129.417 36.3125 129.063 36.5312C128.708 36.7448 128.531 37.0312 128.531 37.3906C128.531 37.6771 128.646 37.9193 128.875 38.1172C129.104 38.3151 129.497 38.474 130.055 38.5937L132.227 39.0312C133.393 39.2708 134.263 39.6562 134.836 40.1875C135.409 40.7187 135.695 41.4167 135.695 42.2812C135.695 43.0677 135.464 43.7578 135 44.3516C134.542 44.9453 133.911 45.4089 133.109 45.7422C132.313 46.0703 131.393 46.2344 130.352 46.2344C128.763 46.2344 127.497 45.9036 126.555 45.2422C125.617 44.5755 125.068 43.6693 124.906 42.5234L128.18 42.3516C128.279 42.8359 128.518 43.2057 128.898 43.4609C129.279 43.7109 129.766 43.8359 130.359 43.8359C130.943 43.8359 131.411 43.724 131.766 43.5C132.125 43.2708 132.307 42.9766 132.313 42.6172C132.307 42.3151 132.18 42.0677 131.93 41.875C131.68 41.6771 131.294 41.526 130.773 41.4219L128.695 41.0078C127.523 40.7734 126.651 40.3672 126.078 39.7891C125.51 39.2109 125.227 38.474 125.227 37.5781C125.227 36.8073 125.435 36.1432 125.852 35.5859C126.273 35.0286 126.865 34.599 127.625 34.2969C128.391 33.9948 129.286 33.8438 130.313 33.8438C131.828 33.8438 133.021 34.1641 133.891 34.8047C134.766 35.4453 135.276 36.3177 135.422 37.4219ZM143.26 46.2344C142.025 46.2344 140.963 45.9844 140.072 45.4844C139.187 44.9792 138.505 44.2656 138.025 43.3437C137.546 42.4167 137.307 41.3203 137.307 40.0547C137.307 38.8203 137.546 37.737 138.025 36.8047C138.505 35.8724 139.179 35.1458 140.049 34.625C140.924 34.1042 141.95 33.8438 143.127 33.8438C143.919 33.8438 144.656 33.9714 145.338 34.2266C146.025 34.4766 146.624 34.8542 147.135 35.3594C147.65 35.8646 148.051 36.5 148.338 37.2656C148.624 38.026 148.768 38.9167 148.768 39.9375V40.8516H138.635V38.7891H145.635C145.635 38.3099 145.531 37.8854 145.322 37.5156C145.114 37.1458 144.825 36.8568 144.455 36.6484C144.09 36.4349 143.666 36.3281 143.182 36.3281C142.676 36.3281 142.229 36.4453 141.838 36.6797C141.452 36.9089 141.15 37.2187 140.932 37.6094C140.713 37.9948 140.601 38.4245 140.596 38.8984V40.8594C140.596 41.4531 140.705 41.9661 140.924 42.3984C141.148 42.8307 141.463 43.1641 141.869 43.3984C142.275 43.6328 142.757 43.75 143.314 43.75C143.684 43.75 144.023 43.6979 144.33 43.5938C144.637 43.4896 144.9 43.3333 145.119 43.125C145.338 42.9167 145.505 42.6615 145.619 42.3594L148.697 42.5625C148.541 43.3021 148.221 43.9479 147.736 44.5C147.257 45.0469 146.637 45.474 145.877 45.7813C145.122 46.0833 144.249 46.2344 143.26 46.2344ZM154.268 39.0625V46H150.939V34H154.111V36.1172H154.252C154.518 35.4193 154.963 34.8672 155.588 34.4609C156.213 34.0495 156.971 33.8438 157.861 33.8438C158.695 33.8438 159.421 34.026 160.041 34.3906C160.661 34.7552 161.143 35.276 161.486 35.9531C161.83 36.625 162.002 37.4271 162.002 38.3594V46H158.674V38.9531C158.679 38.2187 158.492 37.6458 158.111 37.2344C157.731 36.8177 157.208 36.6094 156.541 36.6094C156.093 36.6094 155.697 36.7057 155.354 36.8984C155.015 37.0911 154.749 37.3724 154.557 37.7422C154.369 38.1068 154.273 38.5469 154.268 39.0625ZM169.047 46.1953C168.135 46.1953 167.31 45.9609 166.57 45.4922C165.836 45.0182 165.253 44.3229 164.82 43.4062C164.393 42.4844 164.18 41.3542 164.18 40.0156C164.18 38.6406 164.401 37.4974 164.844 36.5859C165.286 35.6693 165.875 34.9844 166.609 34.5313C167.349 34.0729 168.159 33.8438 169.039 33.8438C169.711 33.8438 170.271 33.9583 170.719 34.1875C171.172 34.4115 171.536 34.6927 171.813 35.0312C172.094 35.3646 172.307 35.6927 172.453 36.0156H172.555V30H175.875V46H172.594V44.0781H172.453C172.297 44.4115 172.076 44.7422 171.789 45.0703C171.508 45.3932 171.141 45.6615 170.688 45.875C170.24 46.0885 169.693 46.1953 169.047 46.1953ZM170.102 43.5469C170.638 43.5469 171.091 43.401 171.461 43.1094C171.836 42.8125 172.122 42.3984 172.32 41.8672C172.523 41.3359 172.625 40.7135 172.625 40C172.625 39.2865 172.526 38.6667 172.328 38.1406C172.13 37.6146 171.844 37.2083 171.469 36.9219C171.094 36.6354 170.638 36.4922 170.102 36.4922C169.555 36.4922 169.094 36.6406 168.719 36.9375C168.344 37.2344 168.06 37.6458 167.867 38.1719C167.674 38.6979 167.578 39.3073 167.578 40C167.578 40.6979 167.674 41.3151 167.867 41.8516C168.065 42.3828 168.349 42.7995 168.719 43.1016C169.094 43.3984 169.555 43.5469 170.102 43.5469Z" fill="#FFF6F6"/>
<path d="M30.8812 92V77.4545H36.0659C37.1928 77.4545 38.1279 77.6487 38.8713 78.0369C39.6194 78.4252 40.1781 78.9626 40.5474 79.6491C40.9167 80.331 41.1014 81.1193 41.1014 82.0142C41.1014 82.9044 40.9144 83.688 40.5403 84.3651C40.171 85.0374 39.6123 85.5606 38.8642 85.9347C38.1208 86.3087 37.1857 86.4957 36.0588 86.4957H32.1312V84.6065H35.8599C36.5701 84.6065 37.1478 84.5047 37.5929 84.3011C38.0427 84.0975 38.3717 83.8016 38.5801 83.4134C38.7884 83.0251 38.8926 82.5587 38.8926 82.0142C38.8926 81.465 38.786 80.9891 38.573 80.5866C38.3646 80.1842 38.0356 79.8764 37.5858 79.6634C37.1407 79.4455 36.5559 79.3366 35.8315 79.3366H33.0758V92H30.8812ZM38.0616 85.4375L41.6554 92H39.1554L35.6326 85.4375H38.0616ZM48.1664 92.2202C47.0916 92.2202 46.1659 91.9905 45.3894 91.5312C44.6176 91.0672 44.021 90.4162 43.5996 89.5781C43.1829 88.7353 42.9746 87.7481 42.9746 86.6165C42.9746 85.4991 43.1829 84.5142 43.5996 83.6619C44.021 82.8097 44.6081 82.1444 45.361 81.6662C46.1185 81.188 47.004 80.9489 48.0172 80.9489C48.6328 80.9489 49.2293 81.0507 49.807 81.2543C50.3846 81.4579 50.9031 81.7775 51.3624 82.2131C51.8217 82.6487 52.1839 83.2145 52.449 83.9105C52.7142 84.6018 52.8468 85.4422 52.8468 86.4318V87.1847H44.1749V85.5938H50.7658C50.7658 85.035 50.6522 84.5402 50.4249 84.1094C50.1976 83.6738 49.878 83.3305 49.4661 83.0795C49.0589 82.8286 48.5807 82.7031 48.0314 82.7031C47.4348 82.7031 46.914 82.8499 46.4689 83.1435C46.0286 83.4323 45.6877 83.8111 45.4462 84.2798C45.2095 84.7438 45.0911 85.2481 45.0911 85.7926V87.0355C45.0911 87.7647 45.2189 88.3849 45.4746 88.8963C45.735 89.4077 46.0972 89.7983 46.5613 90.0682C47.0253 90.3333 47.5674 90.4659 48.1877 90.4659C48.5901 90.4659 48.9571 90.4091 49.2885 90.2955C49.62 90.1771 49.9064 90.0019 50.1479 89.7699C50.3894 89.5379 50.574 89.2514 50.7019 88.9105L52.7118 89.2727C52.5508 89.8646 52.262 90.383 51.8453 90.8281C51.4334 91.2685 50.915 91.6117 50.29 91.858C49.6697 92.0994 48.9618 92.2202 48.1664 92.2202ZM63.3777 83.7543L61.4529 84.0952C61.3725 83.849 61.2446 83.6146 61.0694 83.392C60.899 83.1695 60.667 82.9872 60.3734 82.8452C60.0798 82.7031 59.7129 82.6321 59.2725 82.6321C58.6712 82.6321 58.1693 82.767 57.7669 83.0369C57.3644 83.3021 57.1632 83.6454 57.1632 84.0668C57.1632 84.4313 57.2981 84.7249 57.568 84.9474C57.8379 85.17 58.2735 85.3523 58.8748 85.4943L60.6078 85.892C61.6116 86.1241 62.3597 86.4815 62.8521 86.9645C63.3445 87.4474 63.5907 88.0748 63.5907 88.8466C63.5907 89.5 63.4013 90.0824 63.0225 90.5938C62.6485 91.1004 62.1253 91.4981 61.4529 91.7869C60.7853 92.0758 60.0112 92.2202 59.1305 92.2202C57.9089 92.2202 56.9122 91.9598 56.1404 91.4389C55.3687 90.9134 54.8952 90.1676 54.72 89.2017L56.7725 88.8892C56.9004 89.4242 57.1632 89.8291 57.5609 90.1037C57.9586 90.3736 58.4771 90.5085 59.1163 90.5085C59.8123 90.5085 60.3687 90.3641 60.7853 90.0753C61.202 89.7817 61.4103 89.4242 61.4103 89.0028C61.4103 88.6619 61.2825 88.3755 61.0268 88.1435C60.7759 87.9115 60.39 87.7363 59.8691 87.6179L58.0225 87.2131C57.0046 86.9811 56.2517 86.6117 55.764 86.1051C55.2811 85.5985 55.0396 84.9569 55.0396 84.1804C55.0396 83.5365 55.2195 82.973 55.5794 82.4901C55.9392 82.0071 56.4364 81.6307 57.0708 81.3608C57.7053 81.0862 58.4321 80.9489 59.2512 80.9489C60.4302 80.9489 61.3583 81.2045 62.0353 81.7159C62.7124 82.2225 63.1599 82.902 63.3777 83.7543ZM70.6273 92.2202C69.5525 92.2202 68.6268 91.9905 67.8503 91.5312C67.0785 91.0672 66.4819 90.4162 66.0605 89.5781C65.6439 88.7353 65.4355 87.7481 65.4355 86.6165C65.4355 85.4991 65.6439 84.5142 66.0605 83.6619C66.4819 82.8097 67.0691 82.1444 67.8219 81.6662C68.5795 81.188 69.4649 80.9489 70.4782 80.9489C71.0937 80.9489 71.6903 81.0507 72.2679 81.2543C72.8456 81.4579 73.3641 81.7775 73.8233 82.2131C74.2826 82.6487 74.6448 83.2145 74.91 83.9105C75.1751 84.6018 75.3077 85.4422 75.3077 86.4318V87.1847H66.6358V85.5938H73.2267C73.2267 85.035 73.1131 84.5402 72.8858 84.1094C72.6586 83.6738 72.339 83.3305 71.927 83.0795C71.5198 82.8286 71.0416 82.7031 70.4924 82.7031C69.8958 82.7031 69.3749 82.8499 68.9299 83.1435C68.4895 83.4323 68.1486 83.8111 67.9071 84.2798C67.6704 84.7438 67.552 85.2481 67.552 85.7926V87.0355C67.552 87.7647 67.6799 88.3849 67.9355 88.8963C68.196 89.4077 68.5582 89.7983 69.0222 90.0682C69.4862 90.3333 70.0283 90.4659 70.6486 90.4659C71.0511 90.4659 71.418 90.4091 71.7495 90.2955C72.0809 90.1771 72.3674 90.0019 72.6088 89.7699C72.8503 89.5379 73.035 89.2514 73.1628 88.9105L75.1728 89.2727C75.0118 89.8646 74.723 90.383 74.3063 90.8281C73.8944 91.2685 73.3759 91.6117 72.7509 91.858C72.1306 92.0994 71.4228 92.2202 70.6273 92.2202ZM79.7875 85.5227V92H77.6639V81.0909H79.7022V82.8665H79.8372C80.0881 82.2888 80.4811 81.8248 81.0162 81.4744C81.5559 81.1241 82.2354 80.9489 83.0545 80.9489C83.7979 80.9489 84.4489 81.1051 85.0076 81.4176C85.5663 81.7254 85.9996 82.1847 86.3074 82.7955C86.6151 83.4062 86.769 84.1615 86.769 85.0611V92H84.6454V85.3168C84.6454 84.526 84.4395 83.9081 84.0275 83.4631C83.6156 83.0133 83.0498 82.7884 82.3301 82.7884C81.8377 82.7884 81.3997 82.8949 81.0162 83.108C80.6374 83.321 80.3367 83.6335 80.1142 84.0455C79.8964 84.4527 79.7875 84.9451 79.7875 85.5227ZM93.7008 92.2131C92.8201 92.2131 92.0342 91.9882 91.3429 91.5384C90.6563 91.0838 90.1165 90.4375 89.7235 89.5994C89.3353 88.7566 89.1412 87.7457 89.1412 86.5668C89.1412 85.3878 89.3377 84.3793 89.7306 83.5412C90.1284 82.7031 90.6729 82.0616 91.3642 81.6165C92.0555 81.1714 92.8391 80.9489 93.715 80.9489C94.3921 80.9489 94.9366 81.0625 95.3485 81.2898C95.7652 81.5123 96.0872 81.7727 96.3145 82.071C96.5465 82.3693 96.7264 82.6321 96.8542 82.8594H96.9821V77.4545H99.1056V92H97.0318V90.3026H96.8542C96.7264 90.5346 96.5417 90.7997 96.3002 91.098C96.0635 91.3963 95.7368 91.6567 95.3201 91.8793C94.9035 92.1018 94.3637 92.2131 93.7008 92.2131ZM94.1696 90.402C94.7804 90.402 95.2965 90.241 95.7179 89.919C96.144 89.5923 96.466 89.1402 96.6838 88.5625C96.9063 87.9848 97.0176 87.3125 97.0176 86.5455C97.0176 85.7879 96.9087 85.125 96.6909 84.5568C96.4731 83.9886 96.1535 83.5459 95.7321 83.2287C95.3107 82.9115 94.7898 82.7528 94.1696 82.7528C93.5304 82.7528 92.9977 82.9186 92.5716 83.25C92.1454 83.5814 91.8234 84.0336 91.6056 84.6065C91.3926 85.1795 91.286 85.8258 91.286 86.5455C91.286 87.2746 91.3949 87.9304 91.6127 88.5128C91.8306 89.0952 92.1525 89.5568 92.5787 89.8977C93.0095 90.2339 93.5398 90.402 94.1696 90.402ZM110.604 92.2415C109.913 92.2415 109.288 92.1136 108.729 91.858C108.171 91.5975 107.728 91.2211 107.401 90.7287C107.079 90.2363 106.918 89.6326 106.918 88.9176C106.918 88.3021 107.037 87.7955 107.273 87.3977C107.51 87 107.83 86.6851 108.232 86.4531C108.635 86.2211 109.084 86.0459 109.581 85.9276C110.079 85.8092 110.585 85.7192 111.101 85.6577C111.755 85.5819 112.285 85.5204 112.692 85.473C113.099 85.4209 113.395 85.3381 113.58 85.2244C113.765 85.1108 113.857 84.9261 113.857 84.6705V84.6207C113.857 84.0005 113.682 83.5199 113.331 83.179C112.986 82.8381 112.47 82.6676 111.783 82.6676C111.068 82.6676 110.505 82.8262 110.093 83.1435C109.686 83.456 109.404 83.804 109.248 84.1875L107.252 83.733C107.489 83.0701 107.834 82.535 108.289 82.1278C108.748 81.7159 109.276 81.4176 109.873 81.233C110.469 81.0436 111.097 80.9489 111.755 80.9489C112.19 80.9489 112.652 81.0009 113.14 81.1051C113.632 81.2045 114.091 81.3892 114.518 81.6591C114.948 81.929 115.301 82.3149 115.576 82.8168C115.85 83.3139 115.988 83.9602 115.988 84.7557V92H113.914V90.5085H113.829C113.691 90.7831 113.485 91.053 113.211 91.3182C112.936 91.5833 112.583 91.8035 112.153 91.9787C111.722 92.1539 111.206 92.2415 110.604 92.2415ZM111.066 90.5369C111.653 90.5369 112.155 90.4209 112.572 90.1889C112.993 89.9569 113.313 89.6539 113.53 89.2798C113.753 88.901 113.864 88.4962 113.864 88.0653V86.6591C113.788 86.7348 113.642 86.8059 113.424 86.8722C113.211 86.9337 112.967 86.9882 112.692 87.0355C112.418 87.0781 112.15 87.1184 111.89 87.1562C111.629 87.1894 111.412 87.2178 111.236 87.2415C110.824 87.2936 110.448 87.3812 110.107 87.5043C109.771 87.6274 109.501 87.8049 109.297 88.0369C109.099 88.2642 108.999 88.5672 108.999 88.946C108.999 89.4716 109.193 89.8693 109.581 90.1392C109.97 90.4044 110.465 90.5369 111.066 90.5369ZM127.758 81.0909L123.802 92H121.529L117.566 81.0909H119.846L122.609 89.4858H122.722L125.478 81.0909H127.758ZM132.616 92.2415C131.925 92.2415 131.3 92.1136 130.741 91.858C130.182 91.5975 129.74 91.2211 129.413 90.7287C129.091 90.2363 128.93 89.6326 128.93 88.9176C128.93 88.3021 129.048 87.7955 129.285 87.3977C129.522 87 129.841 86.6851 130.244 86.4531C130.646 86.2211 131.096 86.0459 131.593 85.9276C132.09 85.8092 132.597 85.7192 133.113 85.6577C133.767 85.5819 134.297 85.5204 134.704 85.473C135.111 85.4209 135.407 85.3381 135.592 85.2244C135.776 85.1108 135.869 84.9261 135.869 84.6705V84.6207C135.869 84.0005 135.694 83.5199 135.343 83.179C134.998 82.8381 134.481 82.6676 133.795 82.6676C133.08 82.6676 132.517 82.8262 132.105 83.1435C131.697 83.456 131.416 83.804 131.259 84.1875L129.264 83.733C129.5 83.0701 129.846 82.535 130.301 82.1278C130.76 81.7159 131.288 81.4176 131.884 81.233C132.481 81.0436 133.108 80.9489 133.767 80.9489C134.202 80.9489 134.664 81.0009 135.151 81.1051C135.644 81.2045 136.103 81.3892 136.529 81.6591C136.96 81.929 137.313 82.3149 137.588 82.8168C137.862 83.3139 137.999 83.9602 137.999 84.7557V92H135.926V90.5085H135.84C135.703 90.7831 135.497 91.053 135.222 91.3182C134.948 91.5833 134.595 91.8035 134.164 91.9787C133.733 92.1539 133.217 92.2415 132.616 92.2415ZM133.078 90.5369C133.665 90.5369 134.167 90.4209 134.583 90.1889C135.005 89.9569 135.324 89.6539 135.542 89.2798C135.765 88.901 135.876 88.4962 135.876 88.0653V86.6591C135.8 86.7348 135.653 86.8059 135.436 86.8722C135.222 86.9337 134.979 86.9882 134.704 87.0355C134.429 87.0781 134.162 87.1184 133.901 87.1562C133.641 87.1894 133.423 87.2178 133.248 87.2415C132.836 87.2936 132.46 87.3812 132.119 87.5043C131.783 87.6274 131.513 87.8049 131.309 88.0369C131.11 88.2642 131.011 88.5672 131.011 88.946C131.011 89.4716 131.205 89.8693 131.593 90.1392C131.981 90.4044 132.476 90.5369 133.078 90.5369ZM140.828 92V81.0909H142.952V92H140.828ZM141.9 79.4077C141.531 79.4077 141.214 79.2846 140.949 79.0384C140.688 78.7874 140.558 78.4891 140.558 78.1435C140.558 77.7931 140.688 77.4948 140.949 77.2486C141.214 76.9976 141.531 76.8722 141.9 76.8722C142.27 76.8722 142.585 76.9976 142.845 77.2486C143.11 77.4948 143.243 77.7931 143.243 78.1435C143.243 78.4891 143.11 78.7874 142.845 79.0384C142.585 79.2846 142.27 79.4077 141.9 79.4077ZM147.932 77.4545V92H145.808V77.4545H147.932ZM153.964 92.2415C153.272 92.2415 152.647 92.1136 152.089 91.858C151.53 91.5975 151.087 91.2211 150.76 90.7287C150.439 90.2363 150.278 89.6326 150.278 88.9176C150.278 88.3021 150.396 87.7955 150.633 87.3977C150.869 87 151.189 86.6851 151.591 86.4531C151.994 86.2211 152.444 86.0459 152.941 85.9276C153.438 85.8092 153.945 85.7192 154.461 85.6577C155.114 85.5819 155.644 85.5204 156.052 85.473C156.459 85.4209 156.755 85.3381 156.939 85.2244C157.124 85.1108 157.216 84.9261 157.216 84.6705V84.6207C157.216 84.0005 157.041 83.5199 156.691 83.179C156.345 82.8381 155.829 82.6676 155.143 82.6676C154.428 82.6676 153.864 82.8262 153.452 83.1435C153.045 83.456 152.763 83.804 152.607 84.1875L150.611 83.733C150.848 83.0701 151.194 82.535 151.648 82.1278C152.108 81.7159 152.635 81.4176 153.232 81.233C153.829 81.0436 154.456 80.9489 155.114 80.9489C155.55 80.9489 156.011 81.0009 156.499 81.1051C156.992 81.2045 157.451 81.3892 157.877 81.6591C158.308 81.929 158.661 82.3149 158.935 82.8168C159.21 83.3139 159.347 83.9602 159.347 84.7557V92H157.273V90.5085H157.188C157.051 90.7831 156.845 91.053 156.57 91.3182C156.296 91.5833 155.943 91.8035 155.512 91.9787C155.081 92.1539 154.565 92.2415 153.964 92.2415ZM154.425 90.5369C155.012 90.5369 155.514 90.4209 155.931 90.1889C156.352 89.9569 156.672 89.6539 156.89 89.2798C157.112 88.901 157.224 88.4962 157.224 88.0653V86.6591C157.148 86.7348 157.001 86.8059 156.783 86.8722C156.57 86.9337 156.326 86.9882 156.052 87.0355C155.777 87.0781 155.51 87.1184 155.249 87.1562C154.989 87.1894 154.771 87.2178 154.596 87.2415C154.184 87.2936 153.807 87.3812 153.466 87.5043C153.13 87.6274 152.86 87.8049 152.657 88.0369C152.458 88.2642 152.358 88.5672 152.358 88.946C152.358 89.4716 152.553 89.8693 152.941 90.1392C153.329 90.4044 153.824 90.5369 154.425 90.5369ZM162.346 92V77.4545H164.47V82.8594H164.597C164.721 82.6321 164.898 82.3693 165.13 82.071C165.362 81.7727 165.684 81.5123 166.096 81.2898C166.508 81.0625 167.052 80.9489 167.73 80.9489C168.61 80.9489 169.396 81.1714 170.088 81.6165C170.779 82.0616 171.321 82.7031 171.714 83.5412C172.112 84.3793 172.311 85.3878 172.311 86.5668C172.311 87.7457 172.114 88.7566 171.721 89.5994C171.328 90.4375 170.788 91.0838 170.102 91.5384C169.415 91.9882 168.632 92.2131 167.751 92.2131C167.088 92.2131 166.546 92.1018 166.124 91.8793C165.708 91.6567 165.381 91.3963 165.144 91.098C164.908 90.7997 164.725 90.5346 164.597 90.3026H164.42V92H162.346ZM164.427 86.5455C164.427 87.3125 164.538 87.9848 164.761 88.5625C164.983 89.1402 165.305 89.5923 165.727 89.919C166.148 90.241 166.664 90.402 167.275 90.402C167.91 90.402 168.44 90.2339 168.866 89.8977C169.292 89.5568 169.614 89.0952 169.832 88.5128C170.054 87.9304 170.166 87.2746 170.166 86.5455C170.166 85.8258 170.057 85.1795 169.839 84.6065C169.626 84.0336 169.304 83.5814 168.873 83.25C168.447 82.9186 167.914 82.7528 167.275 82.7528C166.66 82.7528 166.139 82.9115 165.713 83.2287C165.291 83.5459 164.972 83.9886 164.754 84.5568C164.536 85.125 164.427 85.7879 164.427 86.5455ZM176.819 77.4545V92H174.695V77.4545H176.819ZM184.377 92.2202C183.302 92.2202 182.377 91.9905 181.6 91.5312C180.829 91.0672 180.232 90.4162 179.811 89.5781C179.394 88.7353 179.186 87.7481 179.186 86.6165C179.186 85.4991 179.394 84.5142 179.811 83.6619C180.232 82.8097 180.819 82.1444 181.572 81.6662C182.329 81.188 183.215 80.9489 184.228 80.9489C184.844 80.9489 185.44 81.0507 186.018 81.2543C186.596 81.4579 187.114 81.7775 187.573 82.2131C188.033 82.6487 188.395 83.2145 188.66 83.9105C188.925 84.6018 189.058 85.4422 189.058 86.4318V87.1847H180.386V85.5938H186.977C186.977 85.035 186.863 84.5402 186.636 84.1094C186.409 83.6738 186.089 83.3305 185.677 83.0795C185.27 82.8286 184.792 82.7031 184.242 82.7031C183.646 82.7031 183.125 82.8499 182.68 83.1435C182.24 83.4323 181.899 83.8111 181.657 84.2798C181.42 84.7438 181.302 85.2481 181.302 85.7926V87.0355C181.302 87.7647 181.43 88.3849 181.686 88.8963C181.946 89.4077 182.308 89.7983 182.772 90.0682C183.236 90.3333 183.778 90.4659 184.399 90.4659C184.801 90.4659 185.168 90.4091 185.499 90.2955C185.831 90.1771 186.117 90.0019 186.359 89.7699C186.6 89.5379 186.785 89.2514 186.913 88.9105L188.923 89.2727C188.762 89.8646 188.473 90.383 188.056 90.8281C187.644 91.2685 187.126 91.6117 186.501 91.858C185.881 92.0994 185.173 92.2202 184.377 92.2202ZM196.707 92V81.0909H198.83V92H196.707ZM197.779 79.4077C197.41 79.4077 197.093 79.2846 196.828 79.0384C196.567 78.7874 196.437 78.4891 196.437 78.1435C196.437 77.7931 196.567 77.4948 196.828 77.2486C197.093 76.9976 197.41 76.8722 197.779 76.8722C198.149 76.8722 198.463 76.9976 198.724 77.2486C198.989 77.4948 199.122 77.7931 199.122 78.1435C199.122 78.4891 198.989 78.7874 198.724 79.0384C198.463 79.2846 198.149 79.4077 197.779 79.4077ZM203.811 85.5227V92H201.687V81.0909H203.726V82.8665H203.861C204.112 82.2888 204.505 81.8248 205.04 81.4744C205.579 81.1241 206.259 80.9489 207.078 80.9489C207.821 80.9489 208.472 81.1051 209.031 81.4176C209.59 81.7254 210.023 82.1847 210.331 82.7955C210.639 83.4062 210.792 84.1615 210.792 85.0611V92H208.669V85.3168C208.669 84.526 208.463 83.9081 208.051 83.4631C207.639 83.0133 207.073 82.7884 206.354 82.7884C205.861 82.7884 205.423 82.8949 205.04 83.108C204.661 83.321 204.36 83.6335 204.138 84.0455C203.92 84.4527 203.811 84.9451 203.811 85.5227ZM252.596 83.7543L250.672 84.0952C250.591 83.849 250.463 83.6146 250.288 83.392C250.118 83.1695 249.886 82.9872 249.592 82.8452C249.299 82.7031 248.932 82.6321 248.491 82.6321C247.89 82.6321 247.388 82.767 246.986 83.0369C246.583 83.3021 246.382 83.6454 246.382 84.0668C246.382 84.4313 246.517 84.7249 246.787 84.9474C247.057 85.17 247.492 85.3523 248.094 85.4943L249.827 85.892C250.83 86.1241 251.578 86.4815 252.071 86.9645C252.563 87.4474 252.809 88.0748 252.809 88.8466C252.809 89.5 252.62 90.0824 252.241 90.5938C251.867 91.1004 251.344 91.4981 250.672 91.7869C250.004 92.0758 249.23 92.2202 248.349 92.2202C247.128 92.2202 246.131 91.9598 245.359 91.4389C244.587 90.9134 244.114 90.1676 243.939 89.2017L245.991 88.8892C246.119 89.4242 246.382 89.8291 246.78 90.1037C247.177 90.3736 247.696 90.5085 248.335 90.5085C249.031 90.5085 249.587 90.3641 250.004 90.0753C250.421 89.7817 250.629 89.4242 250.629 89.0028C250.629 88.6619 250.501 88.3755 250.246 88.1435C249.995 87.9115 249.609 87.7363 249.088 87.6179L247.241 87.2131C246.223 86.9811 245.47 86.6117 244.983 86.1051C244.5 85.5985 244.258 84.9569 244.258 84.1804C244.258 83.5365 244.438 82.973 244.798 82.4901C245.158 82.0071 245.655 81.6307 246.29 81.3608C246.924 81.0862 247.651 80.9489 248.47 80.9489C249.649 80.9489 250.577 81.2045 251.254 81.7159C251.931 82.2225 252.379 82.902 252.596 83.7543Z" fill="#2C2929"/>
<path d="M218.685 92V89.7841L223.862 84.9901C224.303 84.5639 224.672 84.1804 224.97 83.8395C225.273 83.4986 225.503 83.1648 225.659 82.8381C225.816 82.5066 225.894 82.1491 225.894 81.7656C225.894 81.3395 225.797 80.9725 225.602 80.6648C225.408 80.3523 225.143 80.1132 224.807 79.9474C224.471 79.777 224.09 79.6918 223.664 79.6918C223.218 79.6918 222.83 79.7817 222.499 79.9616C222.167 80.1416 221.912 80.3996 221.732 80.7358C221.552 81.072 221.462 81.4721 221.462 81.9361H218.543C218.543 80.9844 218.758 80.1581 219.189 79.4574C219.62 78.7566 220.224 78.2145 221 77.831C221.777 77.4474 222.672 77.2557 223.685 77.2557C224.727 77.2557 225.633 77.4403 226.405 77.8097C227.182 78.1742 227.785 78.6809 228.216 79.3295C228.647 79.9782 228.862 80.7216 228.862 81.5597C228.862 82.1089 228.753 82.651 228.536 83.1861C228.323 83.7211 227.941 84.3153 227.392 84.9688C226.843 85.6174 226.069 86.3963 225.07 87.3054L222.946 89.3864V89.4858H229.054V92H218.685ZM236.595 92.1989C235.591 92.1989 234.696 92.0142 233.91 91.6449C233.129 91.2756 232.509 90.7666 232.05 90.1179C231.59 89.4692 231.351 88.7259 231.332 87.8878H234.315C234.348 88.4512 234.585 88.9081 235.025 89.2585C235.466 89.6089 235.989 89.7841 236.595 89.7841C237.078 89.7841 237.504 89.6776 237.873 89.4645C238.247 89.2467 238.539 88.946 238.747 88.5625C238.96 88.1742 239.067 87.7292 239.067 87.2273C239.067 86.7159 238.958 86.2661 238.74 85.8778C238.527 85.4896 238.231 85.1866 237.852 84.9688C237.473 84.7509 237.04 84.6397 236.552 84.6349C236.126 84.6349 235.712 84.7225 235.309 84.8977C234.912 85.0729 234.602 85.312 234.379 85.6151L231.645 85.125L232.334 77.4545H241.226V79.9688H234.869L234.493 83.6122H234.578C234.834 83.2524 235.22 82.9541 235.736 82.7173C236.252 82.4806 236.829 82.3622 237.469 82.3622C238.345 82.3622 239.126 82.5682 239.812 82.9801C240.499 83.392 241.041 83.9579 241.439 84.6776C241.836 85.3925 242.033 86.2164 242.028 87.1491C242.033 88.1293 241.806 89.0005 241.346 89.7628C240.892 90.5204 240.255 91.117 239.436 91.5526C238.622 91.9834 237.675 92.1989 236.595 92.1989Z" fill="black"/>
</svg>
