<svg width="281" height="130" viewBox="0 0 281 130" fill="none" xmlns="http://www.w3.org/2000/svg">
<path d="M20.6119 118.727C20.6119 120.28 20.3278 121.616 19.7596 122.733C19.1914 123.846 18.4125 124.703 17.4229 125.304C16.4381 125.901 15.3183 126.199 14.0636 126.199C12.8041 126.199 11.6796 125.901 10.69 125.304C9.70514 124.703 8.92862 123.843 8.36044 122.726C7.79226 121.608 7.50817 120.276 7.50817 118.727C7.50817 117.174 7.79226 115.841 8.36044 114.729C8.92862 113.611 9.70514 112.754 10.69 112.158C11.6796 111.556 12.8041 111.256 14.0636 111.256C15.3183 111.256 16.4381 111.556 17.4229 112.158C18.4125 112.754 19.1914 113.611 19.7596 114.729C20.3278 115.841 20.6119 117.174 20.6119 118.727ZM18.4386 118.727C18.4386 117.544 18.2468 116.547 17.8633 115.737C17.4845 114.923 16.9637 114.307 16.3008 113.891C15.6426 113.469 14.8969 113.259 14.0636 113.259C13.2255 113.259 12.4774 113.469 11.8192 113.891C11.1611 114.307 10.6403 114.923 10.2567 115.737C9.87796 116.547 9.68857 117.544 9.68857 118.727C9.68857 119.911 9.87796 120.91 10.2567 121.724C10.6403 122.534 11.1611 123.15 11.8192 123.571C12.4774 123.988 13.2255 124.196 14.0636 124.196C14.8969 124.196 15.6426 123.988 16.3008 123.571C16.9637 123.15 17.4845 122.534 17.8633 121.724C18.2468 120.91 18.4386 119.911 18.4386 118.727ZM22.0057 113.344V111.455H33.2628V113.344H28.7244V126H26.5369V113.344H22.0057ZM35.7504 126V111.455H40.935C42.0666 111.455 43.0041 111.661 43.7475 112.072C44.4909 112.484 45.0472 113.048 45.4165 113.763C45.7859 114.473 45.9705 115.273 45.9705 116.163C45.9705 117.058 45.7835 117.863 45.4094 118.578C45.0401 119.288 44.4814 119.852 43.7333 120.268C42.9899 120.68 42.0548 120.886 40.9279 120.886H37.3626V119.026H40.729C41.444 119.026 42.024 118.902 42.4691 118.656C42.9142 118.405 43.2409 118.064 43.4492 117.634C43.6576 117.203 43.7617 116.713 43.7617 116.163C43.7617 115.614 43.6576 115.126 43.4492 114.7C43.2409 114.274 42.9118 113.94 42.462 113.699C42.0169 113.457 41.4298 113.337 40.7006 113.337H37.945V126H35.7504ZM61.8406 117.754L59.9158 118.095C59.8353 117.849 59.7075 117.615 59.5323 117.392C59.3619 117.17 59.1299 116.987 58.8363 116.845C58.5427 116.703 58.1758 116.632 57.7354 116.632C57.1341 116.632 56.6322 116.767 56.2298 117.037C55.8273 117.302 55.6261 117.645 55.6261 118.067C55.6261 118.431 55.761 118.725 56.0309 118.947C56.3008 119.17 56.7364 119.352 57.3377 119.494L59.0707 119.892C60.0745 120.124 60.8226 120.482 61.315 120.964C61.8074 121.447 62.0536 122.075 62.0536 122.847C62.0536 123.5 61.8642 124.082 61.4854 124.594C61.1114 125.1 60.5882 125.498 59.9158 125.787C59.2482 126.076 58.4741 126.22 57.5934 126.22C56.3718 126.22 55.3751 125.96 54.6033 125.439C53.8316 124.913 53.3581 124.168 53.1829 123.202L55.2354 122.889C55.3633 123.424 55.6261 123.829 56.0238 124.104C56.4215 124.374 56.94 124.509 57.5792 124.509C58.2752 124.509 58.8316 124.364 59.2482 124.075C59.6649 123.782 59.8732 123.424 59.8732 123.003C59.8732 122.662 59.7454 122.375 59.4897 122.143C59.2388 121.911 58.8529 121.736 58.332 121.618L56.4854 121.213C55.4674 120.981 54.7146 120.612 54.2269 120.105C53.744 119.598 53.5025 118.957 53.5025 118.18C53.5025 117.536 53.6824 116.973 54.0423 116.49C54.4021 116.007 54.8993 115.631 55.5337 115.361C56.1682 115.086 56.895 114.949 57.7141 114.949C58.8931 114.949 59.8211 115.205 60.4982 115.716C61.1753 116.223 61.6228 116.902 61.8406 117.754ZM69.0902 126.22C68.0154 126.22 67.0897 125.991 66.3132 125.531C65.5414 125.067 64.9448 124.416 64.5234 123.578C64.1068 122.735 63.8984 121.748 63.8984 120.616C63.8984 119.499 64.1068 118.514 64.5234 117.662C64.9448 116.81 65.532 116.144 66.2848 115.666C67.0424 115.188 67.9278 114.949 68.9411 114.949C69.5566 114.949 70.1532 115.051 70.7308 115.254C71.3085 115.458 71.8269 115.777 72.2862 116.213C72.7455 116.649 73.1077 117.214 73.3729 117.911C73.638 118.602 73.7706 119.442 73.7706 120.432V121.185H65.0987V119.594H71.6896C71.6896 119.035 71.576 118.54 71.3487 118.109C71.1214 117.674 70.8018 117.33 70.3899 117.08C69.9827 116.829 69.5045 116.703 68.9553 116.703C68.3587 116.703 67.8378 116.85 67.3928 117.143C66.9524 117.432 66.6115 117.811 66.37 118.28C66.1333 118.744 66.0149 119.248 66.0149 119.793V121.036C66.0149 121.765 66.1428 122.385 66.3984 122.896C66.6589 123.408 67.0211 123.798 67.4851 124.068C67.9491 124.333 68.4912 124.466 69.1115 124.466C69.514 124.466 69.8809 124.409 70.2124 124.295C70.5438 124.177 70.8303 124.002 71.0717 123.77C71.3132 123.538 71.4979 123.251 71.6257 122.911L73.6357 123.273C73.4747 123.865 73.1858 124.383 72.7692 124.828C72.3572 125.268 71.8388 125.612 71.2138 125.858C70.5935 126.099 69.8857 126.22 69.0902 126.22ZM78.2504 119.523V126H76.1268V115.091H78.1651V116.866H78.3001C78.551 116.289 78.944 115.825 79.479 115.474C80.0188 115.124 80.6983 114.949 81.5174 114.949C82.2608 114.949 82.9118 115.105 83.4705 115.418C84.0292 115.725 84.4625 116.185 84.7702 116.795C85.078 117.406 85.2319 118.161 85.2319 119.061V126H83.1083V119.317C83.1083 118.526 82.9023 117.908 82.4904 117.463C82.0785 117.013 81.5127 116.788 80.793 116.788C80.3005 116.788 79.8626 116.895 79.479 117.108C79.1003 117.321 78.7996 117.634 78.5771 118.045C78.3593 118.453 78.2504 118.945 78.2504 119.523ZM93.1722 115.091V116.795H87.2134V115.091H93.1722ZM88.8114 112.477H90.935V122.797C90.935 123.209 90.9966 123.519 91.1197 123.727C91.2428 123.931 91.4014 124.071 91.5955 124.146C91.7944 124.217 92.0098 124.253 92.2418 124.253C92.4123 124.253 92.5614 124.241 92.6893 124.217C92.8171 124.194 92.9165 124.175 92.9876 124.161L93.3711 125.915C93.248 125.962 93.0728 126.009 92.8455 126.057C92.6183 126.109 92.3342 126.137 91.9933 126.142C91.4345 126.152 90.9137 126.052 90.4308 125.844C89.9478 125.635 89.5572 125.313 89.2589 124.878C88.9606 124.442 88.8114 123.895 88.8114 123.237V112.477ZM105.907 115.091V116.795H99.9478V115.091H105.907ZM101.546 112.477H103.669V122.797C103.669 123.209 103.731 123.519 103.854 123.727C103.977 123.931 104.136 124.071 104.33 124.146C104.529 124.217 104.744 124.253 104.976 124.253C105.147 124.253 105.296 124.241 105.424 124.217C105.551 124.194 105.651 124.175 105.722 124.161L106.105 125.915C105.982 125.962 105.807 126.009 105.58 126.057C105.353 126.109 105.069 126.137 104.728 126.142C104.169 126.152 103.648 126.052 103.165 125.844C102.682 125.635 102.292 125.313 101.993 124.878C101.695 124.442 101.546 123.895 101.546 123.237V112.477ZM112.734 126.22C111.711 126.22 110.818 125.986 110.056 125.517C109.294 125.048 108.702 124.393 108.281 123.55C107.859 122.707 107.648 121.722 107.648 120.595C107.648 119.464 107.859 118.474 108.281 117.626C108.702 116.779 109.294 116.121 110.056 115.652C110.818 115.183 111.711 114.949 112.734 114.949C113.756 114.949 114.649 115.183 115.411 115.652C116.174 116.121 116.765 116.779 117.187 117.626C117.608 118.474 117.819 119.464 117.819 120.595C117.819 121.722 117.608 122.707 117.187 123.55C116.765 124.393 116.174 125.048 115.411 125.517C114.649 125.986 113.756 126.22 112.734 126.22ZM112.741 124.438C113.404 124.438 113.953 124.262 114.388 123.912C114.824 123.562 115.146 123.095 115.354 122.513C115.567 121.93 115.674 121.289 115.674 120.588C115.674 119.892 115.567 119.253 115.354 118.67C115.146 118.083 114.824 117.612 114.388 117.257C113.953 116.902 113.404 116.724 112.741 116.724C112.073 116.724 111.519 116.902 111.079 117.257C110.643 117.612 110.319 118.083 110.106 118.67C109.897 119.253 109.793 119.892 109.793 120.588C109.793 121.289 109.897 121.93 110.106 122.513C110.319 123.095 110.643 123.562 111.079 123.912C111.519 124.262 112.073 124.438 112.741 124.438ZM129.758 123.557V113.955H131.668V123.557H129.758ZM125.915 119.707V117.804H135.518V119.707H125.915ZM143.611 111.256C144.259 111.26 144.899 111.379 145.528 111.611C146.158 111.843 146.726 112.222 147.233 112.747C147.744 113.273 148.152 113.983 148.455 114.878C148.762 115.768 148.919 116.876 148.923 118.202C148.923 119.475 148.795 120.609 148.54 121.604C148.284 122.593 147.917 123.429 147.439 124.111C146.965 124.793 146.39 125.311 145.713 125.666C145.036 126.021 144.274 126.199 143.426 126.199C142.56 126.199 141.79 126.028 141.118 125.688C140.446 125.347 139.899 124.875 139.477 124.274C139.056 123.668 138.793 122.972 138.689 122.186H140.855C140.997 122.811 141.286 123.318 141.722 123.706C142.162 124.089 142.73 124.281 143.426 124.281C144.491 124.281 145.322 123.817 145.919 122.889C146.516 121.956 146.816 120.654 146.821 118.983H146.707C146.461 119.39 146.153 119.741 145.784 120.034C145.42 120.328 145.01 120.555 144.555 120.716C144.101 120.877 143.616 120.957 143.099 120.957C142.261 120.957 141.499 120.751 140.812 120.339C140.126 119.928 139.579 119.362 139.172 118.642C138.765 117.922 138.561 117.101 138.561 116.178C138.561 115.259 138.769 114.426 139.186 113.678C139.607 112.929 140.195 112.338 140.947 111.902C141.705 111.462 142.593 111.246 143.611 111.256ZM143.618 113.102C143.064 113.102 142.564 113.24 142.119 113.514C141.679 113.784 141.331 114.151 141.075 114.615C140.82 115.074 140.692 115.586 140.692 116.149C140.692 116.713 140.815 117.224 141.061 117.683C141.312 118.138 141.653 118.5 142.084 118.77C142.519 119.035 143.017 119.168 143.575 119.168C143.992 119.168 144.38 119.087 144.74 118.926C145.1 118.765 145.415 118.543 145.685 118.259C145.955 117.97 146.165 117.643 146.317 117.278C146.468 116.914 146.544 116.53 146.544 116.128C146.544 115.593 146.416 115.096 146.161 114.636C145.91 114.177 145.564 113.808 145.124 113.528C144.683 113.244 144.181 113.102 143.618 113.102ZM157.007 111.455V126H154.806V113.656H154.721L151.24 115.929V113.827L154.87 111.455H157.007ZM171.313 126.199C170.665 126.189 170.025 126.071 169.396 125.844C168.771 125.616 168.202 125.238 167.691 124.707C167.18 124.177 166.77 123.464 166.462 122.57C166.159 121.675 166.008 120.557 166.008 119.217C166.008 117.948 166.133 116.821 166.384 115.837C166.64 114.852 167.007 114.021 167.485 113.344C167.963 112.662 168.541 112.143 169.218 111.788C169.895 111.433 170.655 111.256 171.498 111.256C172.364 111.256 173.134 111.426 173.806 111.767C174.478 112.108 175.023 112.579 175.44 113.18C175.861 113.782 176.129 114.466 176.242 115.233H174.076C173.929 114.627 173.638 114.132 173.202 113.749C172.767 113.365 172.199 113.173 171.498 113.173C170.433 113.173 169.602 113.637 169.005 114.565C168.413 115.493 168.115 116.784 168.11 118.436H168.217C168.468 118.024 168.775 117.674 169.14 117.385C169.509 117.091 169.921 116.866 170.376 116.71C170.835 116.549 171.318 116.469 171.825 116.469C172.667 116.469 173.43 116.675 174.112 117.087C174.798 117.494 175.345 118.057 175.752 118.777C176.159 119.497 176.363 120.321 176.363 121.249C176.363 122.177 176.152 123.017 175.731 123.77C175.314 124.523 174.727 125.119 173.969 125.56C173.212 125.995 172.326 126.208 171.313 126.199ZM171.306 124.352C171.865 124.352 172.364 124.215 172.805 123.94C173.245 123.666 173.593 123.296 173.849 122.832C174.104 122.368 174.232 121.85 174.232 121.277C174.232 120.718 174.107 120.209 173.856 119.75C173.61 119.291 173.269 118.926 172.833 118.656C172.402 118.386 171.91 118.251 171.356 118.251C170.934 118.251 170.544 118.332 170.184 118.493C169.829 118.654 169.516 118.876 169.246 119.161C168.977 119.445 168.763 119.771 168.607 120.141C168.456 120.505 168.38 120.891 168.38 121.298C168.38 121.843 168.505 122.347 168.756 122.811C169.012 123.275 169.36 123.649 169.8 123.933C170.246 124.213 170.747 124.352 171.306 124.352ZM178.95 126V124.409L183.872 119.31C184.397 118.756 184.831 118.27 185.172 117.854C185.517 117.432 185.775 117.032 185.946 116.653C186.116 116.275 186.201 115.872 186.201 115.446C186.201 114.963 186.088 114.546 185.86 114.196C185.633 113.841 185.323 113.569 184.93 113.379C184.537 113.185 184.094 113.088 183.602 113.088C183.081 113.088 182.627 113.195 182.238 113.408C181.85 113.621 181.552 113.921 181.343 114.31C181.135 114.698 181.031 115.152 181.031 115.673H178.936C178.936 114.788 179.139 114.014 179.547 113.351C179.954 112.688 180.512 112.174 181.223 111.81C181.933 111.44 182.74 111.256 183.645 111.256C184.558 111.256 185.363 111.438 186.059 111.803C186.76 112.162 187.307 112.655 187.7 113.28C188.093 113.9 188.289 114.601 188.289 115.382C188.289 115.922 188.188 116.45 187.984 116.966C187.785 117.482 187.437 118.057 186.94 118.692C186.443 119.321 185.752 120.086 184.866 120.986L181.975 124.011V124.118H188.524V126H178.95ZM194.262 119.636L194.397 116.639L191.869 118.266L191.095 116.916L193.779 115.545L191.095 114.175L191.869 112.825L194.397 114.452L194.262 111.455H195.804L195.669 114.452L198.197 112.825L198.971 114.175L196.287 115.545L198.971 116.916L198.197 118.266L195.669 116.639L195.804 119.636H194.262ZM204.692 119.636L204.827 116.639L202.299 118.266L201.525 116.916L204.209 115.545L201.525 114.175L202.299 112.825L204.827 114.452L204.692 111.455H206.233L206.098 114.452L208.627 112.825L209.401 114.175L206.716 115.545L209.401 116.916L208.627 118.266L206.098 116.639L206.233 119.636H204.692ZM215.122 119.636L215.257 116.639L212.728 118.266L211.954 116.916L214.639 115.545L211.954 114.175L212.728 112.825L215.257 114.452L215.122 111.455H216.663L216.528 114.452L219.056 112.825L219.831 114.175L217.146 115.545L219.831 116.916L219.056 118.266L216.528 116.639L216.663 119.636H215.122ZM225.551 119.636L225.686 116.639L223.158 118.266L222.384 116.916L225.069 115.545L222.384 114.175L223.158 112.825L225.686 114.452L225.551 111.455H227.093L226.958 114.452L229.486 112.825L230.26 114.175L227.576 115.545L230.26 116.916L229.486 118.266L226.958 116.639L227.093 119.636H225.551ZM238.453 111.455V126H236.251V113.656H236.166L232.686 115.929V113.827L236.315 111.455H238.453ZM247.906 111.455V126H245.704V113.656H245.619L242.139 115.929V113.827L245.768 111.455H247.906ZM252.331 126L258.68 113.443V113.337H251.336V111.455H260.953V113.401L254.625 126H252.331ZM268.174 126.241C267.052 126.237 266.093 125.941 265.298 125.354C264.502 124.767 263.894 123.912 263.472 122.79C263.051 121.668 262.84 120.316 262.84 118.734C262.84 117.158 263.051 115.811 263.472 114.693C263.898 113.576 264.509 112.723 265.305 112.136C266.105 111.549 267.061 111.256 268.174 111.256C269.287 111.256 270.241 111.552 271.036 112.143C271.832 112.731 272.44 113.583 272.862 114.7C273.288 115.813 273.501 117.158 273.501 118.734C273.501 120.321 273.29 121.675 272.869 122.797C272.447 123.914 271.839 124.769 271.043 125.361C270.248 125.948 269.291 126.241 268.174 126.241ZM268.174 124.345C269.159 124.345 269.928 123.865 270.482 122.903C271.041 121.942 271.32 120.553 271.32 118.734C271.32 117.527 271.192 116.507 270.937 115.673C270.686 114.835 270.324 114.201 269.85 113.77C269.381 113.334 268.823 113.116 268.174 113.116C267.194 113.116 266.424 113.599 265.866 114.565C265.307 115.531 265.025 116.921 265.021 118.734C265.021 119.946 265.146 120.972 265.397 121.81C265.653 122.643 266.015 123.275 266.484 123.706C266.952 124.132 267.516 124.345 268.174 124.345Z" fill="black"/>
<path d="M90.8009 17.514L94.7339 7.9H99.2879L90.8009 25.012L82.3369 7.9H86.8679L90.8009 17.514ZM104.17 24.23C102.943 24.23 101.878 24.0077 100.973 23.563C100.084 23.103 99.3938 22.459 98.9032 21.631C98.4125 20.803 98.1672 19.8293 98.1672 18.71C98.1672 17.5753 98.4048 16.594 98.8802 15.766C99.3555 14.938 100.038 14.3017 100.927 13.857C101.832 13.4123 102.897 13.19 104.124 13.19C105.351 13.19 106.386 13.4047 107.229 13.834C108.072 14.248 108.716 14.8537 109.161 15.651C109.606 16.4483 109.828 17.4143 109.828 18.549C109.828 18.7177 109.828 18.8863 109.828 19.055C109.828 19.2083 109.813 19.3387 109.782 19.446H100.122V17.514H106.654L105.826 18.572C105.903 18.4647 105.964 18.3343 106.01 18.181C106.071 18.0123 106.102 17.8743 106.102 17.767C106.102 17.307 106.018 16.9083 105.849 16.571C105.68 16.2337 105.443 15.973 105.136 15.789C104.829 15.605 104.469 15.513 104.055 15.513C103.534 15.513 103.097 15.628 102.744 15.858C102.391 16.088 102.123 16.4407 101.939 16.916C101.77 17.376 101.678 17.9587 101.663 18.664C101.663 19.308 101.755 19.86 101.939 20.32C102.123 20.78 102.399 21.1327 102.767 21.378C103.135 21.608 103.587 21.723 104.124 21.723C104.737 21.723 105.259 21.608 105.688 21.378C106.133 21.148 106.485 20.803 106.746 20.343L109.851 21.102C109.299 22.1447 108.548 22.9267 107.597 23.448C106.662 23.9693 105.519 24.23 104.17 24.23ZM115.4 13.42V24H111.973V13.42H115.4ZM118.459 17.008C118.275 16.824 118.075 16.6783 117.861 16.571C117.661 16.4637 117.408 16.41 117.102 16.41C116.764 16.41 116.465 16.502 116.205 16.686C115.944 16.87 115.745 17.1383 115.607 17.491C115.469 17.8437 115.4 18.273 115.4 18.779L114.572 17.56C114.572 16.7167 114.733 15.9653 115.055 15.306C115.392 14.6467 115.829 14.1253 116.366 13.742C116.902 13.3587 117.462 13.167 118.045 13.167C118.428 13.167 118.796 13.2437 119.149 13.397C119.501 13.5503 119.77 13.765 119.954 14.041L118.459 17.008ZM121.222 9.441C121.222 8.889 121.421 8.44433 121.82 8.107C122.218 7.75433 122.694 7.578 123.246 7.578C123.813 7.578 124.288 7.75433 124.672 8.107C125.07 8.44433 125.27 8.889 125.27 9.441C125.27 9.993 125.07 10.4453 124.672 10.798C124.288 11.1507 123.813 11.327 123.246 11.327C122.694 11.327 122.218 11.1507 121.82 10.798C121.421 10.4453 121.222 9.993 121.222 9.441ZM121.567 13.42H124.925V24H121.567V13.42ZM126.842 13.42H134.064V16.295H126.842V13.42ZM133.673 9.395C133.52 9.19567 133.351 9.05 133.167 8.958C132.999 8.866 132.815 8.82 132.615 8.82C132.385 8.82 132.186 8.87367 132.017 8.981C131.864 9.08833 131.741 9.257 131.649 9.487C131.557 9.717 131.511 10.016 131.511 10.384V24H128.176V9.51C128.176 8.71267 128.322 8.03033 128.613 7.463C128.92 6.89567 129.365 6.45867 129.947 6.152C130.545 5.84533 131.281 5.692 132.155 5.692C132.692 5.692 133.144 5.761 133.512 5.899C133.88 6.02167 134.195 6.175 134.455 6.359C134.716 6.52767 134.923 6.68867 135.076 6.842L133.673 9.395ZM146.524 13.42L139.624 29.06H136.128L138.704 23.149L134.127 13.42H137.945L141.372 21.907L139.578 21.884L142.959 13.42H146.524ZM158.123 15.95C158.123 16.9007 158.307 17.744 158.675 18.48C159.058 19.2007 159.587 19.768 160.262 20.182C160.952 20.596 161.757 20.803 162.677 20.803C163.582 20.803 164.371 20.596 165.046 20.182C165.736 19.768 166.265 19.2007 166.633 18.48C167.016 17.744 167.208 16.9007 167.208 15.95C167.208 14.9993 167.024 14.1637 166.656 13.443C166.288 12.707 165.767 12.132 165.092 11.718C164.417 11.304 163.612 11.097 162.677 11.097C161.757 11.097 160.952 11.304 160.262 11.718C159.587 12.132 159.058 12.707 158.675 13.443C158.307 14.1637 158.123 14.9993 158.123 15.95ZM154.006 15.95C154.006 14.708 154.221 13.5733 154.65 12.546C155.095 11.5187 155.708 10.6293 156.49 9.878C157.272 9.12667 158.192 8.55167 159.25 8.153C160.308 7.739 161.45 7.532 162.677 7.532C163.919 7.532 165.061 7.739 166.104 8.153C167.162 8.55167 168.082 9.12667 168.864 9.878C169.646 10.6293 170.252 11.5187 170.681 12.546C171.11 13.5733 171.325 14.708 171.325 15.95C171.325 17.192 171.11 18.3343 170.681 19.377C170.267 20.4197 169.669 21.3243 168.887 22.091C168.12 22.8577 167.208 23.4557 166.15 23.885C165.092 24.299 163.934 24.506 162.677 24.506C161.404 24.506 160.239 24.299 159.181 23.885C158.123 23.4557 157.203 22.8577 156.421 22.091C155.654 21.3243 155.056 20.4197 154.627 19.377C154.213 18.3343 154.006 17.192 154.006 15.95ZM171.509 11.373V7.9H184.251V11.373H179.812V24H175.925V11.373H171.509ZM186.012 7.9H189.899V24H186.012V7.9ZM188.45 11.097V7.9H191.601C192.966 7.9 194.108 8.11467 195.028 8.544C195.963 8.958 196.669 9.556 197.144 10.338C197.619 11.12 197.857 12.063 197.857 13.167C197.857 14.2403 197.619 15.1757 197.144 15.973C196.669 16.755 195.963 17.3607 195.028 17.79C194.108 18.204 192.966 18.411 191.601 18.411H188.45V15.214H191.601C192.383 15.214 192.996 15.0377 193.441 14.685C193.886 14.3323 194.108 13.8263 194.108 13.167C194.108 12.4923 193.886 11.9787 193.441 11.626C192.996 11.2733 192.383 11.097 191.601 11.097H188.45Z" fill="#171515"/>
</svg>
