<svg width="216" height="71" viewBox="0 0 216 71" fill="none" xmlns="http://www.w3.org/2000/svg">
<g filter="url(#filter0_n_55_151)">
<rect x="1" y="1" width="214" height="69" rx="34.5" fill="url(#paint0_linear_55_151)" stroke="black" stroke-width="2"/>
<path d="M42.6813 25.6364L47.6032 41.108H47.7921L52.7239 25.6364H57.4966L50.4767 46H44.9284L37.8986 25.6364H42.6813ZM65.1056 46.2983C63.5346 46.2983 62.1824 45.9801 61.0488 45.3438C59.9219 44.7008 59.0536 43.7926 58.4437 42.6193C57.8339 41.4394 57.5289 40.044 57.5289 38.4332C57.5289 36.8622 57.8339 35.4834 58.4437 34.2969C59.0536 33.1103 59.912 32.1856 61.019 31.5227C62.1326 30.8598 63.4385 30.5284 64.9366 30.5284C65.9442 30.5284 66.8822 30.6908 67.7505 31.0156C68.6255 31.3338 69.3878 31.8144 70.0375 32.4574C70.6937 33.1004 71.2041 33.9091 71.5687 34.8835C71.9333 35.8513 72.1156 36.9848 72.1156 38.2841V39.4474H59.2193V36.8224H68.1284C68.1284 36.2126 67.9958 35.6723 67.7306 35.2017C67.4655 34.7311 67.0976 34.3632 66.627 34.098C66.1629 33.8262 65.6227 33.6903 65.0062 33.6903C64.3632 33.6903 63.7931 33.8395 63.296 34.1378C62.8055 34.4295 62.421 34.8239 62.1426 35.321C61.8642 35.8116 61.7217 36.3584 61.715 36.9616V39.4574C61.715 40.2131 61.8542 40.866 62.1326 41.4162C62.4177 41.9664 62.8187 42.3906 63.3358 42.6889C63.8528 42.9872 64.466 43.1364 65.1752 43.1364C65.6459 43.1364 66.0768 43.0701 66.4679 42.9375C66.859 42.8049 67.1937 42.6061 67.4721 42.3409C67.7505 42.0758 67.9627 41.7509 68.1085 41.3665L72.0261 41.625C71.8272 42.5663 71.4196 43.3883 70.8031 44.0909C70.1932 44.7869 69.4044 45.3305 68.4366 45.7216C67.4754 46.1061 66.3651 46.2983 65.1056 46.2983ZM74.8798 46V30.7273H78.9863V33.392H79.1454C79.4238 32.4441 79.8912 31.7282 80.5474 31.2443C81.2037 30.7538 81.9593 30.5085 82.8145 30.5085C83.0266 30.5085 83.2553 30.5218 83.5005 30.5483C83.7458 30.5748 83.9612 30.6113 84.1468 30.6577V34.4162C83.948 34.3565 83.6729 34.3035 83.3216 34.2571C82.9702 34.2107 82.6487 34.1875 82.3571 34.1875C81.734 34.1875 81.1771 34.3234 80.6866 34.5952C80.2027 34.8603 79.8182 35.2315 79.5332 35.7088C79.2548 36.1861 79.1156 36.7363 79.1156 37.3594V46H74.8798ZM86.3368 46V30.7273H90.5726V46H86.3368ZM88.4647 28.7585C87.8349 28.7585 87.2947 28.5497 86.8439 28.1321C86.3998 27.7079 86.1777 27.2008 86.1777 26.6108C86.1777 26.0275 86.3998 25.527 86.8439 25.1094C87.2947 24.6851 87.8349 24.473 88.4647 24.473C89.0944 24.473 89.6313 24.6851 90.0755 25.1094C90.5262 25.527 90.7516 26.0275 90.7516 26.6108C90.7516 27.2008 90.5262 27.7079 90.0755 28.1321C89.6313 28.5497 89.0944 28.7585 88.4647 28.7585ZM102.179 30.7273V33.9091H92.7527V30.7273H102.179ZM94.9103 46V29.6236C94.9103 28.5166 95.1258 27.5985 95.5566 26.8693C95.9941 26.1402 96.5907 25.5933 97.3464 25.2287C98.1021 24.8641 98.9605 24.6818 99.9217 24.6818C100.571 24.6818 101.165 24.7315 101.702 24.831C102.245 24.9304 102.649 25.0199 102.915 25.0994L102.159 28.2812C101.993 28.2282 101.788 28.1785 101.542 28.1321C101.304 28.0857 101.059 28.0625 100.807 28.0625C100.184 28.0625 99.7493 28.2083 99.5041 28.5C99.2588 28.785 99.1362 29.1861 99.1362 29.7031V46H94.9103ZM107.382 51.7273C106.845 51.7273 106.341 51.6842 105.87 51.598C105.406 51.5185 105.022 51.4157 104.717 51.2898L105.671 48.1278C106.169 48.2803 106.616 48.3632 107.014 48.3764C107.418 48.3897 107.766 48.2969 108.058 48.098C108.356 47.8991 108.598 47.5611 108.784 47.0838L109.032 46.4375L103.553 30.7273H108.008L111.17 41.9432H111.329L114.521 30.7273H119.005L113.069 47.6506C112.784 48.4725 112.396 49.1884 111.906 49.7983C111.422 50.4148 110.809 50.8887 110.066 51.2202C109.324 51.5582 108.429 51.7273 107.382 51.7273ZM146.446 35.8182C146.446 38.0388 146.025 39.928 145.183 41.4858C144.348 43.0436 143.208 44.2334 141.763 45.0554C140.324 45.8707 138.707 46.2784 136.91 46.2784C135.101 46.2784 133.477 45.8674 132.038 45.0455C130.6 44.2235 129.463 43.0336 128.628 41.4759C127.792 39.9181 127.375 38.0322 127.375 35.8182C127.375 33.5975 127.792 31.7083 128.628 30.1506C129.463 28.5928 130.6 27.4062 132.038 26.5909C133.477 25.7689 135.101 25.358 136.91 25.358C138.707 25.358 140.324 25.7689 141.763 26.5909C143.208 27.4062 144.348 28.5928 145.183 30.1506C146.025 31.7083 146.446 33.5975 146.446 35.8182ZM142.081 35.8182C142.081 34.3797 141.865 33.1667 141.434 32.179C141.01 31.1913 140.41 30.4422 139.635 29.9318C138.859 29.4214 137.951 29.1662 136.91 29.1662C135.87 29.1662 134.961 29.4214 134.186 29.9318C133.41 30.4422 132.807 31.1913 132.376 32.179C131.952 33.1667 131.74 34.3797 131.74 35.8182C131.74 37.2566 131.952 38.4697 132.376 39.4574C132.807 40.4451 133.41 41.1941 134.186 41.7045C134.961 42.215 135.87 42.4702 136.91 42.4702C137.951 42.4702 138.859 42.215 139.635 41.7045C140.41 41.1941 141.01 40.4451 141.434 39.4574C141.865 38.4697 142.081 37.2566 142.081 35.8182ZM147.93 29.1861V25.6364H164.654V29.1861H158.42V46H154.164V29.1861H147.93ZM167.409 46V25.6364H175.443C176.987 25.6364 178.303 25.9313 179.39 26.5213C180.477 27.1046 181.306 27.9167 181.876 28.9574C182.453 29.9915 182.741 31.1847 182.741 32.5369C182.741 33.8892 182.449 35.0824 181.866 36.1165C181.283 37.1506 180.437 37.956 179.33 38.5327C178.23 39.1094 176.898 39.3977 175.333 39.3977H170.213V35.9474H174.637C175.466 35.9474 176.149 35.8049 176.686 35.5199C177.229 35.2282 177.633 34.8272 177.899 34.3168C178.17 33.7997 178.306 33.2064 178.306 32.5369C178.306 31.8608 178.17 31.2708 177.899 30.767C177.633 30.2566 177.229 29.8622 176.686 29.5838C176.142 29.2988 175.453 29.1562 174.617 29.1562H171.714V46H167.409Z" fill="white"/>
</g>
<defs>
<filter id="filter0_n_55_151" x="0" y="0" width="216" height="71" filterUnits="userSpaceOnUse" color-interpolation-filters="sRGB">
<feFlood flood-opacity="0" result="BackgroundImageFix"/>
<feBlend mode="normal" in="SourceGraphic" in2="BackgroundImageFix" result="shape"/>
<feTurbulence type="fractalNoise" baseFrequency="2 2" stitchTiles="stitch" numOctaves="3" result="noise" seed="221" />
<feColorMatrix in="noise" type="luminanceToAlpha" result="alphaNoise" />
<feComponentTransfer in="alphaNoise" result="coloredNoise1">
<feFuncA type="discrete" tableValues="0 0 0 0 0 0 0 0 0 0 0 0 0 0 0 0 0 0 0 0 0 0 0 0 1 1 1 0 0 0 0 0 0 0 0 0 0 0 0 0 0 0 0 0 0 0 0 0 0 0 0 0 0 0 0 0 0 0 0 0 0 0 0 0 0 0 0 0 0 0 0 0 0 0 0 0 0 0 0 0 0 0 0 0 0 0 0 0 0 0 0 0 0 0 0 0 0 0 0 0 "/>
</feComponentTransfer>
<feComposite operator="in" in2="shape" in="coloredNoise1" result="noise1Clipped" />
<feComponentTransfer in="alphaNoise" result="coloredNoise2">
<feFuncA type="discrete" tableValues="0 0 0 0 0 0 0 0 0 0 0 0 0 0 0 0 0 0 0 0 0 0 0 0 0 0 0 0 0 0 0 0 0 0 0 0 0 0 0 0 0 0 0 0 0 0 0 0 0 0 0 0 0 0 0 0 0 0 0 0 0 0 0 0 0 0 0 0 0 0 0 0 0 1 1 1 0 0 0 0 0 0 0 0 0 0 0 0 0 0 0 0 0 0 0 0 0 0 0 0 "/>
</feComponentTransfer>
<feComposite operator="in" in2="shape" in="coloredNoise2" result="noise2Clipped" />
<feFlood flood-color="rgba(0, 0, 0, 0.25)" result="color1Flood" />
<feComposite operator="in" in2="noise1Clipped" in="color1Flood" result="color1" />
<feFlood flood-color="rgba(255, 255, 255, 0.25)" result="color2Flood" />
<feComposite operator="in" in2="noise2Clipped" in="color2Flood" result="color2" />
<feMerge result="effect1_noise_55_151">
<feMergeNode in="shape" />
<feMergeNode in="color1" />
<feMergeNode in="color2" />
</feMerge>
</filter>
<linearGradient id="paint0_linear_55_151" x1="1.36351e-07" y1="9.5" x2="226.5" y2="60" gradientUnits="userSpaceOnUse">
<stop stop-color="#FEBFBF"/>
<stop offset="0.211316" stop-color="#F44949"/>
<stop offset="0.764423" stop-color="#DA6262"/>
<stop offset="0.980769" stop-color="#F7B7B7"/>
</linearGradient>
</defs>
</svg>
