<svg width="276" height="17" viewBox="0 0 276 17" fill="none" xmlns="http://www.w3.org/2000/svg">
<path d="M4.12199 12.744C3.60599 12.744 3.10799 12.702 2.62799 12.618C2.15999 12.522 1.76999 12.408 1.45799 12.276C1.15799 12.132 1.00799 11.994 1.00799 11.862C1.00799 11.55 1.03799 11.082 1.09799 10.458C1.16999 9.83397 1.20599 9.05397 1.20599 8.11797V6.08397C1.20599 5.29197 1.23599 4.64997 1.29599 4.15797C1.36799 3.65397 1.43999 3.26397 1.51199 2.98797H0.899995L-5.37024e-06 1.78197L0.143995 1.49397H1.65599C2.18399 1.49397 2.68199 1.48797 3.14999 1.47597C3.61799 1.46397 4.00799 1.45797 4.31999 1.45797C4.64399 1.45797 4.99199 1.56597 5.364 1.78197C5.748 1.98597 6.102 2.24997 6.42599 2.57397C6.76199 2.88597 7.03199 3.21597 7.236 3.56397C7.452 3.91197 7.56 4.22997 7.56 4.51797C7.56 5.24997 7.542 5.99997 7.50599 6.76797C7.48199 7.53597 7.46999 8.36397 7.46999 9.25197C7.46999 10.224 7.33199 10.962 7.05599 11.466C6.77999 11.97 6.38999 12.312 5.88599 12.492C5.39399 12.66 4.80599 12.744 4.12199 12.744ZM4.91399 3.05997C4.62599 3.05997 4.35599 3.07197 4.10399 3.09597C3.86399 3.10797 3.60599 3.14397 3.32999 3.20397C3.24599 3.51597 3.17399 3.90597 3.11399 4.37397C3.05399 4.82997 3.02399 5.35797 3.02399 5.95797V8.56797C3.02399 9.25197 3.01199 9.80397 2.98799 10.224C2.97599 10.644 2.94599 10.998 2.89799 11.286C3.04199 11.322 3.21599 11.34 3.41999 11.34C4.13999 11.34 4.68599 11.13 5.05799 10.71C5.42999 10.278 5.616 9.53397 5.616 8.47797C5.616 7.86597 5.628 7.26597 5.652 6.67797C5.67599 6.07797 5.69399 5.53797 5.70599 5.05797C5.73 4.57797 5.742 4.21197 5.742 3.95997C5.742 3.64797 5.67599 3.41997 5.54399 3.27597C5.424 3.13197 5.214 3.05997 4.91399 3.05997ZM12.619 12.87C12.331 12.87 11.977 12.798 11.557 12.654C11.137 12.498 10.717 12.3 10.297 12.06C9.88898 11.808 9.54698 11.538 9.27098 11.25C8.99498 10.95 8.85698 10.656 8.85698 10.368C8.85698 10.08 8.87498 9.58197 8.91098 8.87397C8.95898 8.16597 8.98298 7.31997 8.98298 6.33597C8.98298 4.77597 9.83498 3.99597 11.539 3.99597C11.803 3.99597 12.109 4.07997 12.457 4.24797C12.805 4.40397 13.141 4.61397 13.465 4.87797C13.789 5.12997 14.059 5.39397 14.275 5.66997C14.491 5.94597 14.599 6.20397 14.599 6.44397V7.91997C14.599 8.89197 14.059 9.37797 12.979 9.37797C12.643 9.37797 12.259 9.35997 11.827 9.32397C11.395 9.27597 11.011 9.22197 10.675 9.16197C10.663 9.55797 10.651 9.91797 10.639 10.242C10.639 10.554 10.639 10.734 10.639 10.782C10.639 10.974 10.687 11.112 10.783 11.196C10.879 11.28 11.053 11.322 11.305 11.322C11.677 11.322 12.079 11.268 12.511 11.16C12.955 11.04 13.351 10.866 13.699 10.638H13.969L14.941 12.114C14.713 12.33 14.371 12.51 13.915 12.654C13.471 12.798 13.039 12.87 12.619 12.87ZM10.729 6.91197C10.729 7.00797 10.723 7.15197 10.711 7.34397C10.711 7.53597 10.711 7.75197 10.711 7.99197C11.059 8.02797 11.461 8.04597 11.917 8.04597C12.265 8.04597 12.505 7.96197 12.637 7.79397C12.781 7.61397 12.853 7.34397 12.853 6.98397V6.01197C12.853 5.87997 12.817 5.76597 12.745 5.66997C12.673 5.57397 12.517 5.52597 12.277 5.52597C11.797 5.52597 11.419 5.62797 11.143 5.83197C10.867 6.02397 10.729 6.38397 10.729 6.91197ZM18.965 12.942C18.053 12.942 17.339 12.648 16.823 12.06C16.307 11.46 15.947 10.65 15.743 9.62997L16.319 9.46797C16.547 10.044 16.805 10.452 17.093 10.692C17.393 10.932 17.795 11.052 18.299 11.052C18.875 11.052 19.361 10.89 19.757 10.566C20.165 10.242 20.369 9.84597 20.369 9.37797C20.369 9.11397 20.273 8.98197 20.081 8.98197C19.925 8.98197 19.697 9.01797 19.397 9.08997C19.109 9.16197 18.821 9.23997 18.533 9.32397C18.245 9.39597 18.029 9.43197 17.885 9.43197C17.669 9.43197 17.447 9.32997 17.219 9.12597C17.003 8.92197 16.799 8.66397 16.607 8.35197C16.415 8.02797 16.259 7.69197 16.139 7.34397C16.019 6.99597 15.959 6.67197 15.959 6.37197C15.959 5.66397 16.181 5.06997 16.625 4.58997C17.081 4.10997 17.729 3.86997 18.569 3.86997C19.289 3.86997 19.877 4.06197 20.333 4.44597C20.789 4.82997 21.137 5.41797 21.377 6.20997L20.747 6.42597C20.423 5.90997 19.931 5.65197 19.271 5.65197C18.695 5.65197 18.209 5.80197 17.813 6.10197C17.417 6.40197 17.219 6.77997 17.219 7.23597C17.219 7.47597 17.333 7.59597 17.561 7.59597C17.741 7.59597 17.975 7.55997 18.263 7.48797C18.551 7.40397 18.839 7.32597 19.127 7.25397C19.415 7.18197 19.649 7.14597 19.829 7.14597C20.105 7.14597 20.375 7.30197 20.639 7.61397C20.903 7.92597 21.119 8.32197 21.287 8.80197C21.455 9.28197 21.539 9.77397 21.539 10.278C21.539 11.082 21.317 11.73 20.873 12.222C20.429 12.702 19.793 12.942 18.965 12.942ZM24.0757 2.89797L22.8877 1.61997V1.43997C23.2117 1.00797 23.6497 0.629971 24.2017 0.305971L25.3897 1.54797L25.3717 1.76397C25.1317 1.93197 24.9037 2.11797 24.6877 2.32197C24.4837 2.52597 24.2797 2.71797 24.0757 2.89797ZM25.6777 13.032C24.9097 12.744 24.3157 12.486 23.8957 12.258C23.4877 12.018 23.2837 11.802 23.2837 11.61C23.2837 11.442 23.3017 11.184 23.3377 10.836C23.3857 10.476 23.4097 10.128 23.4097 9.79197V7.21797C23.4097 6.90597 23.4217 6.61797 23.4457 6.35397C23.4817 6.07797 23.5357 5.83797 23.6077 5.63397H23.0137L22.0597 4.40997L22.1857 4.10397H24.4897L25.5337 5.50797C25.3897 5.69997 25.2937 5.93997 25.2457 6.22797C25.2097 6.51597 25.1917 6.88197 25.1917 7.32597V9.98997C25.1917 10.422 25.1737 10.806 25.1377 11.142C25.1017 11.466 25.0837 11.712 25.0837 11.88C25.0837 12 25.1257 12.096 25.2097 12.168C25.3057 12.228 25.5337 12.354 25.8937 12.546L25.6777 13.032ZM30.1463 16.452C29.2223 16.452 28.4783 16.194 27.9143 15.678C27.3503 15.162 26.9063 14.31 26.5823 13.122L27.1763 12.942C27.3923 13.494 27.6683 13.914 28.0043 14.202C28.3403 14.49 28.8203 14.634 29.4443 14.634C29.9243 14.634 30.3623 14.574 30.7583 14.454C31.1543 14.334 31.4723 14.166 31.7123 13.95C31.9523 13.746 32.0723 13.524 32.0723 13.284C32.0723 13.068 31.9703 12.96 31.7663 12.96C31.5863 12.96 31.3643 12.99 31.1003 13.05C30.8363 13.11 30.5663 13.17 30.2903 13.23C30.0143 13.302 29.7563 13.338 29.5163 13.338C29.2643 13.338 29.0003 13.242 28.7243 13.05C28.4483 12.858 28.1843 12.624 27.9323 12.348C27.6923 12.06 27.4943 11.772 27.3383 11.484C27.1943 11.184 27.1223 10.932 27.1223 10.728C27.1223 10.344 27.2363 10.032 27.4643 9.79197C27.7043 9.55197 27.9923 9.36597 28.3283 9.23397C27.5003 8.84997 27.0863 8.21397 27.0863 7.32597V6.47997C27.0863 5.73597 27.2363 5.16597 27.5363 4.76997C27.8483 4.36197 28.3763 4.12797 29.1203 4.06797L30.3983 3.95997C30.8183 3.92397 31.1243 3.83397 31.3163 3.68997C31.5083 3.54597 31.6343 3.31197 31.6943 2.98797L31.9103 2.86197L33.1523 3.58197C33.0803 4.12197 32.9063 4.52997 32.6303 4.80597C32.3663 5.08197 32.0243 5.26797 31.6043 5.36397C31.9283 5.53197 32.1863 5.76597 32.3783 6.06597C32.5823 6.36597 32.6843 6.69597 32.6843 7.05597V7.90197C32.6843 8.45397 32.6303 8.89797 32.5223 9.23397C32.4143 9.56997 32.2043 9.82797 31.8923 10.008C31.5923 10.188 31.1423 10.338 30.5423 10.458L29.7683 10.602C29.2643 10.686 28.9223 10.8 28.7423 10.944C28.5623 11.076 28.4723 11.232 28.4723 11.412C28.4723 11.604 28.5923 11.7 28.8323 11.7C29.1083 11.7 29.4023 11.664 29.7143 11.592C30.0383 11.52 30.3443 11.448 30.6323 11.376C30.9323 11.304 31.1783 11.268 31.3703 11.268C31.6103 11.268 31.8383 11.382 32.0543 11.61C32.2823 11.826 32.4803 12.102 32.6483 12.438C32.8283 12.762 32.9663 13.092 33.0623 13.428C33.1703 13.776 33.2243 14.07 33.2243 14.31C33.2243 14.994 32.9303 15.522 32.3423 15.894C31.7663 16.266 31.0343 16.452 30.1463 16.452ZM28.7603 7.72197C28.7603 8.04597 28.8023 8.32197 28.8863 8.54997C28.9823 8.76597 29.1323 8.90997 29.3363 8.98197L29.9123 8.89197C30.2603 8.83197 30.5423 8.71797 30.7583 8.54997C30.9743 8.38197 31.0823 8.02197 31.0823 7.46997V6.87597C31.0823 6.38397 31.0403 6.03597 30.9563 5.83197C30.8723 5.61597 30.7343 5.48997 30.5423 5.45397L29.8763 5.50797C29.4323 5.54397 29.1323 5.67597 28.9763 5.90397C28.8323 6.13197 28.7603 6.51597 28.7603 7.05597V7.72197ZM37.0289 12.996C36.2609 12.708 35.6669 12.45 35.2469 12.222C34.8389 11.982 34.6349 11.766 34.6349 11.574C34.6349 11.406 34.6529 11.148 34.6889 10.8C34.7369 10.44 34.7609 10.092 34.7609 9.75597V7.45197C34.7609 7.21197 34.7669 6.91197 34.7789 6.55197C34.8029 6.19197 34.8449 5.88597 34.9049 5.63397H34.2389L33.3029 4.39197L33.4289 4.10397H35.1209C35.1689 4.10397 35.2709 4.18797 35.4269 4.35597C35.5949 4.51197 35.7629 4.69197 35.9309 4.89597C36.1589 4.58397 36.4409 4.35597 36.7769 4.21197C37.1249 4.05597 37.4609 3.97797 37.7849 3.97797H38.1629C38.4029 3.97797 38.6669 4.07397 38.9549 4.26597C39.2549 4.45797 39.5429 4.69197 39.8189 4.96797C40.1069 5.24397 40.3409 5.51997 40.5209 5.79597C40.7009 6.05997 40.7909 6.27597 40.7909 6.44397C40.7909 6.74397 40.7789 7.11597 40.7549 7.55997C40.7309 8.00397 40.7189 8.36397 40.7189 8.63997V9.95397C40.7189 10.386 40.7009 10.77 40.6649 11.106C40.6289 11.43 40.6109 11.676 40.6109 11.844C40.6109 11.964 40.6529 12.06 40.7369 12.132C40.8329 12.192 41.0609 12.318 41.4209 12.51L41.2049 12.996C40.4369 12.708 39.8429 12.45 39.4229 12.222C39.0149 11.982 38.8109 11.766 38.8109 11.574C38.8109 11.406 38.8289 11.148 38.8649 10.8C38.9129 10.44 38.9369 10.092 38.9369 9.75597V8.81997C38.9369 8.43597 38.9489 7.99797 38.9729 7.50597C38.9969 7.01397 39.0089 6.58197 39.0089 6.20997C39.0089 5.96997 38.9789 5.80797 38.9189 5.72397C38.8589 5.63997 38.7269 5.59797 38.5229 5.59797C37.8509 5.59797 37.3529 5.77197 37.0289 6.11997C36.7049 6.45597 36.5429 6.92397 36.5429 7.52397V9.95397C36.5429 10.386 36.5249 10.77 36.4889 11.106C36.4529 11.43 36.4349 11.676 36.4349 11.844C36.4349 11.964 36.4769 12.06 36.5609 12.132C36.6569 12.192 36.8849 12.318 37.2449 12.51L37.0289 12.996ZM46.1405 12.87C45.8525 12.87 45.4985 12.798 45.0785 12.654C44.6585 12.498 44.2385 12.3 43.8185 12.06C43.4105 11.808 43.0685 11.538 42.7925 11.25C42.5165 10.95 42.3785 10.656 42.3785 10.368C42.3785 10.08 42.3965 9.58197 42.4325 8.87397C42.4805 8.16597 42.5045 7.31997 42.5045 6.33597C42.5045 4.77597 43.3565 3.99597 45.0605 3.99597C45.3245 3.99597 45.6305 4.07997 45.9785 4.24797C46.3265 4.40397 46.6625 4.61397 46.9865 4.87797C47.3105 5.12997 47.5805 5.39397 47.7965 5.66997C48.0125 5.94597 48.1205 6.20397 48.1205 6.44397V7.91997C48.1205 8.89197 47.5805 9.37797 46.5005 9.37797C46.1645 9.37797 45.7805 9.35997 45.3485 9.32397C44.9165 9.27597 44.5325 9.22197 44.1965 9.16197C44.1845 9.55797 44.1725 9.91797 44.1605 10.242C44.1605 10.554 44.1605 10.734 44.1605 10.782C44.1605 10.974 44.2085 11.112 44.3045 11.196C44.4005 11.28 44.5745 11.322 44.8265 11.322C45.1985 11.322 45.6005 11.268 46.0325 11.16C46.4765 11.04 46.8725 10.866 47.2205 10.638H47.4905L48.4625 12.114C48.2345 12.33 47.8925 12.51 47.4365 12.654C46.9925 12.798 46.5605 12.87 46.1405 12.87ZM44.2505 6.91197C44.2505 7.00797 44.2445 7.15197 44.2325 7.34397C44.2325 7.53597 44.2325 7.75197 44.2325 7.99197C44.5805 8.02797 44.9825 8.04597 45.4385 8.04597C45.7865 8.04597 46.0265 7.96197 46.1585 7.79397C46.3025 7.61397 46.3745 7.34397 46.3745 6.98397V6.01197C46.3745 5.87997 46.3385 5.76597 46.2665 5.66997C46.1945 5.57397 46.0385 5.52597 45.7985 5.52597C45.3185 5.52597 44.9405 5.62797 44.6645 5.83197C44.3885 6.02397 44.2505 6.38397 44.2505 6.91197ZM56.1584 12.96C55.8824 12.876 55.6364 12.786 55.4204 12.69C55.2164 12.594 54.9884 12.474 54.7364 12.33C54.4964 12.534 54.2504 12.684 53.9984 12.78C53.7584 12.864 53.4524 12.906 53.0804 12.906C52.7924 12.906 52.4444 12.834 52.0364 12.69C51.6404 12.546 51.2444 12.354 50.8484 12.114C50.4644 11.874 50.1404 11.598 49.8764 11.286C49.6244 10.974 49.4984 10.656 49.4984 10.332C49.4984 10.2 49.5164 9.82197 49.5524 9.19797C49.5884 8.56197 49.6064 7.64397 49.6064 6.44397C49.6064 5.59197 49.8404 4.97997 50.3084 4.60797C50.7764 4.23597 51.4304 4.04997 52.2704 4.04997C52.5224 4.04997 52.7864 4.09797 53.0624 4.19397C53.3504 4.28997 53.6084 4.40397 53.8364 4.53597C53.8484 3.89997 53.8784 3.31797 53.9264 2.78997C53.9744 2.26197 54.0404 1.82997 54.1244 1.49397H53.3504L52.3604 0.323971L52.4864 0.0359712H54.8264L55.8884 1.40397C55.8044 1.87197 55.7384 2.40597 55.6904 3.00597C55.6424 3.59397 55.6184 4.19397 55.6184 4.80597V7.52397C55.6184 8.11197 55.6064 8.71797 55.5824 9.34197C55.5584 9.95397 55.5524 10.608 55.5644 11.304C55.5764 11.664 55.6364 11.91 55.7444 12.042C55.8524 12.174 56.0804 12.312 56.4284 12.456L56.1584 12.96ZM51.2984 10.818C51.2984 11.022 51.3464 11.166 51.4424 11.25C51.5504 11.334 51.7124 11.376 51.9284 11.376C52.5764 11.376 53.0564 11.226 53.3684 10.926C53.6804 10.626 53.8364 10.206 53.8364 9.66597V5.70597C53.6084 5.65797 53.3624 5.63397 53.0984 5.63397C52.5944 5.63397 52.1804 5.74197 51.8564 5.95797C51.5444 6.17397 51.3824 6.58197 51.3704 7.18197L51.2984 10.818ZM62.6248 13.05C61.9048 12.798 61.3228 12.546 60.8788 12.294C60.4348 12.042 60.2128 11.82 60.2128 11.628C60.2128 11.46 60.2368 11.214 60.2848 10.89C60.3328 10.566 60.3568 10.236 60.3568 9.89997V7.61397C60.3568 7.15797 60.3688 6.77997 60.3928 6.47997C60.4168 6.16797 60.4648 5.88597 60.5368 5.63397H59.7268L58.7008 4.40997L58.8268 4.10397H60.8788C60.6988 3.89997 60.5248 3.64197 60.3568 3.32997C60.2008 3.00597 60.1228 2.64597 60.1228 2.24997C60.1228 1.66197 60.3148 1.17597 60.6988 0.791971C61.0828 0.407971 61.6828 0.215971 62.4988 0.215971C62.9428 0.215971 63.3268 0.287971 63.6508 0.431971L64.4968 1.87197L64.2988 2.10597C64.1788 2.06997 64.0168 2.03997 63.8128 2.01597C63.6208 1.97997 63.3808 1.96197 63.0928 1.96197C62.6248 1.96197 62.2588 2.05197 61.9948 2.23197C61.7308 2.41197 61.5988 2.69397 61.5988 3.07797C61.5988 3.48597 61.7308 3.82797 61.9948 4.10397H63.6148L64.5688 5.36397L64.4068 5.63397H62.3368C62.2528 5.86197 62.1988 6.15597 62.1748 6.51597C62.1508 6.86397 62.1388 7.28997 62.1388 7.79397V10.098C62.1388 10.53 62.1208 10.896 62.0848 11.196C62.0488 11.496 62.0308 11.73 62.0308 11.898C62.0308 12.018 62.0788 12.12 62.1748 12.204C62.2708 12.276 62.5048 12.396 62.8768 12.564L62.6248 13.05ZM68.3726 12.906C68.0846 12.906 67.7366 12.834 67.3286 12.69C66.9206 12.546 66.5246 12.354 66.1406 12.114C65.7566 11.874 65.4326 11.598 65.1686 11.286C64.9166 10.974 64.7906 10.656 64.7906 10.332C64.7906 10.188 64.8086 9.76797 64.8446 9.07197C64.8926 8.37597 64.9166 7.50597 64.9166 6.46197C64.9166 5.62197 65.1626 5.00397 65.6546 4.60797C66.1466 4.21197 66.8846 4.01397 67.8686 4.01397C68.1566 4.01397 68.4746 4.10397 68.8226 4.28397C69.1826 4.46397 69.5246 4.69797 69.8486 4.98597C70.1726 5.27397 70.4366 5.57997 70.6406 5.90397C70.8566 6.21597 70.9646 6.50997 70.9646 6.78597C70.9646 7.24197 70.9526 7.73397 70.9286 8.26197C70.9166 8.78997 70.9106 9.46797 70.9106 10.296C70.9106 11.064 70.7006 11.694 70.2806 12.186C69.8606 12.666 69.2246 12.906 68.3726 12.906ZM67.2206 11.376C67.8806 11.376 68.3606 11.238 68.6606 10.962C68.9726 10.686 69.1286 10.278 69.1286 9.73797C69.1286 9.35397 69.1346 8.92197 69.1466 8.44197C69.1586 7.94997 69.1706 7.49997 69.1826 7.09197C69.1946 6.67197 69.2006 6.37797 69.2006 6.20997C69.2006 6.00597 69.1646 5.85597 69.0926 5.75997C69.0206 5.65197 68.8766 5.59797 68.6606 5.59797C68.0126 5.59797 67.5146 5.71197 67.1666 5.93997C66.8306 6.15597 66.6626 6.56997 66.6626 7.18197C66.6626 8.33397 66.6506 9.20397 66.6266 9.79197C66.6026 10.368 66.5906 10.758 66.5906 10.962C66.5906 11.238 66.8006 11.376 67.2206 11.376ZM75.6084 13.158C74.5764 12.822 73.8324 12.534 73.3764 12.294C72.9204 12.042 72.6924 11.862 72.6924 11.754C72.6924 11.622 72.7104 11.394 72.7464 11.07C72.7944 10.746 72.8184 10.242 72.8184 9.55797V7.32597C72.8184 7.08597 72.8304 6.80397 72.8544 6.47997C72.8784 6.14397 72.9144 5.86197 72.9624 5.63397H72.2964L71.3604 4.39197L71.4864 4.10397H73.1784C73.2384 4.10397 73.3464 4.19397 73.5024 4.37397C73.6704 4.54197 73.8384 4.72797 74.0064 4.93197C74.1984 4.61997 74.4624 4.39197 74.7984 4.24797C75.1464 4.10397 75.5124 4.03197 75.8964 4.03197C76.0884 4.03197 76.2324 4.04397 76.3284 4.06797L77.2284 5.32797L77.0844 5.54397C76.2444 5.53197 75.6204 5.69397 75.2124 6.02997C74.8044 6.36597 74.6004 6.98397 74.6004 7.88397V9.80997C74.6004 10.41 74.5824 10.878 74.5464 11.214C74.5224 11.538 74.5104 11.754 74.5104 11.862C74.5104 11.934 74.5344 12 74.5824 12.06C74.6304 12.108 74.7444 12.168 74.9244 12.24C75.1164 12.312 75.4164 12.432 75.8244 12.6L75.6084 13.158ZM82.9142 12.996C82.1222 12.732 81.5222 12.486 81.1142 12.258C80.7062 12.03 80.5022 11.844 80.5022 11.7C80.5022 11.568 80.5142 11.43 80.5382 11.286C80.5622 11.142 80.5862 10.932 80.6102 10.656C80.6342 10.38 80.6462 9.98397 80.6462 9.46797V5.99397C80.6462 5.41797 80.6702 4.85397 80.7182 4.30197C80.7662 3.74997 80.8562 3.31197 80.9882 2.98797H80.3402L79.4582 1.78197L79.5842 1.49397H81.8882L82.8962 2.89797C82.7642 3.26997 82.6562 3.72597 82.5722 4.26597C82.5002 4.80597 82.4642 5.41197 82.4642 6.08397V9.86397C82.4642 10.38 82.4462 10.794 82.4102 11.106C82.3862 11.406 82.3742 11.64 82.3742 11.808C82.3742 12.012 82.6322 12.234 83.1482 12.474L82.9142 12.996ZM87.1618 12.996C86.3938 12.708 85.7998 12.45 85.3798 12.222C84.9718 11.982 84.7678 11.766 84.7678 11.574C84.7678 11.406 84.7858 11.148 84.8218 10.8C84.8698 10.44 84.8938 10.092 84.8938 9.75597V7.45197C84.8938 7.21197 84.8998 6.91197 84.9118 6.55197C84.9358 6.19197 84.9778 5.88597 85.0378 5.63397H84.3718L83.4358 4.39197L83.5618 4.10397H85.2538C85.3018 4.10397 85.4038 4.18797 85.5598 4.35597C85.7278 4.51197 85.8958 4.69197 86.0638 4.89597C86.2918 4.58397 86.5738 4.35597 86.9098 4.21197C87.2578 4.05597 87.5938 3.97797 87.9178 3.97797H88.2958C88.5358 3.97797 88.7998 4.07397 89.0878 4.26597C89.3878 4.45797 89.6758 4.69197 89.9518 4.96797C90.2398 5.24397 90.4738 5.51997 90.6538 5.79597C90.8338 6.05997 90.9238 6.27597 90.9238 6.44397C90.9238 6.74397 90.9118 7.11597 90.8878 7.55997C90.8638 8.00397 90.8518 8.36397 90.8518 8.63997V9.95397C90.8518 10.386 90.8338 10.77 90.7978 11.106C90.7618 11.43 90.7438 11.676 90.7438 11.844C90.7438 11.964 90.7858 12.06 90.8698 12.132C90.9658 12.192 91.1938 12.318 91.5538 12.51L91.3378 12.996C90.5698 12.708 89.9758 12.45 89.5558 12.222C89.1478 11.982 88.9438 11.766 88.9438 11.574C88.9438 11.406 88.9618 11.148 88.9978 10.8C89.0458 10.44 89.0698 10.092 89.0698 9.75597V8.81997C89.0698 8.43597 89.0818 7.99797 89.1058 7.50597C89.1298 7.01397 89.1418 6.58197 89.1418 6.20997C89.1418 5.96997 89.1118 5.80797 89.0518 5.72397C88.9918 5.63997 88.8598 5.59797 88.6558 5.59797C87.9838 5.59797 87.4858 5.77197 87.1618 6.11997C86.8378 6.45597 86.6758 6.92397 86.6758 7.52397V9.95397C86.6758 10.386 86.6578 10.77 86.6218 11.106C86.5858 11.43 86.5678 11.676 86.5678 11.844C86.5678 11.964 86.6098 12.06 86.6938 12.132C86.7898 12.192 87.0178 12.318 87.3778 12.51L87.1618 12.996ZM99.2073 12.96C98.9313 12.876 98.6853 12.786 98.4693 12.69C98.2653 12.594 98.0373 12.474 97.7853 12.33C97.5453 12.534 97.2993 12.684 97.0473 12.78C96.8073 12.864 96.5013 12.906 96.1293 12.906C95.8413 12.906 95.4933 12.834 95.0853 12.69C94.6893 12.546 94.2933 12.354 93.8973 12.114C93.5133 11.874 93.1893 11.598 92.9253 11.286C92.6733 10.974 92.5473 10.656 92.5473 10.332C92.5473 10.2 92.5653 9.82197 92.6013 9.19797C92.6373 8.56197 92.6553 7.64397 92.6553 6.44397C92.6553 5.59197 92.8893 4.97997 93.3573 4.60797C93.8253 4.23597 94.4793 4.04997 95.3193 4.04997C95.5713 4.04997 95.8353 4.09797 96.1113 4.19397C96.3993 4.28997 96.6573 4.40397 96.8853 4.53597C96.8973 3.89997 96.9273 3.31797 96.9753 2.78997C97.0233 2.26197 97.0893 1.82997 97.1733 1.49397H96.3993L95.4093 0.323971L95.5353 0.0359712H97.8753L98.9373 1.40397C98.8533 1.87197 98.7873 2.40597 98.7393 3.00597C98.6913 3.59397 98.6673 4.19397 98.6673 4.80597V7.52397C98.6673 8.11197 98.6553 8.71797 98.6313 9.34197C98.6073 9.95397 98.6013 10.608 98.6133 11.304C98.6253 11.664 98.6853 11.91 98.7933 12.042C98.9013 12.174 99.1293 12.312 99.4773 12.456L99.2073 12.96ZM94.3473 10.818C94.3473 11.022 94.3953 11.166 94.4913 11.25C94.5993 11.334 94.7613 11.376 94.9773 11.376C95.6253 11.376 96.1053 11.226 96.4173 10.926C96.7293 10.626 96.8853 10.206 96.8853 9.66597V5.70597C96.6573 5.65797 96.4113 5.63397 96.1473 5.63397C95.6433 5.63397 95.2293 5.74197 94.9053 5.95797C94.5933 6.17397 94.4313 6.58197 94.4193 7.18197L94.3473 10.818ZM101.824 2.89797L100.636 1.61997V1.43997C100.96 1.00797 101.398 0.629971 101.95 0.305971L103.138 1.54797L103.12 1.76397C102.88 1.93197 102.652 2.11797 102.436 2.32197C102.232 2.52597 102.028 2.71797 101.824 2.89797ZM103.426 13.032C102.658 12.744 102.064 12.486 101.644 12.258C101.236 12.018 101.032 11.802 101.032 11.61C101.032 11.442 101.05 11.184 101.086 10.836C101.134 10.476 101.158 10.128 101.158 9.79197V7.21797C101.158 6.90597 101.17 6.61797 101.194 6.35397C101.23 6.07797 101.284 5.83797 101.356 5.63397H100.762L99.8077 4.40997L99.9337 4.10397H102.238L103.282 5.50797C103.138 5.69997 103.042 5.93997 102.994 6.22797C102.958 6.51597 102.94 6.88197 102.94 7.32597V9.98997C102.94 10.422 102.922 10.806 102.886 11.142C102.85 11.466 102.832 11.712 102.832 11.88C102.832 12 102.874 12.096 102.958 12.168C103.054 12.228 103.282 12.354 103.642 12.546L103.426 13.032ZM111.206 12.906C110.918 12.81 110.654 12.714 110.414 12.618C110.174 12.51 109.946 12.396 109.73 12.276C109.562 12.444 109.358 12.582 109.118 12.69C108.89 12.786 108.626 12.834 108.326 12.834C108.122 12.834 107.822 12.768 107.426 12.636C107.042 12.504 106.646 12.336 106.238 12.132C105.83 11.916 105.482 11.682 105.194 11.43C104.918 11.166 104.78 10.908 104.78 10.656C104.78 10.344 104.78 10.068 104.78 9.82797C104.792 9.57597 104.798 9.42597 104.798 9.37797C104.798 8.66997 104.978 8.17197 105.338 7.88397C105.71 7.58397 106.226 7.43397 106.886 7.43397C107.222 7.43397 107.582 7.45797 107.966 7.50597C108.35 7.55397 108.662 7.60797 108.902 7.66797C108.914 7.33197 108.92 7.01397 108.92 6.71397C108.932 6.40197 108.938 6.16797 108.938 6.01197C108.938 5.87997 108.902 5.78397 108.83 5.72397C108.758 5.66397 108.626 5.63397 108.434 5.63397C107.966 5.63397 107.57 5.66997 107.246 5.74197C106.922 5.81397 106.616 5.93397 106.328 6.10197H105.986L104.816 4.39197L104.96 4.10397H107.966C108.206 4.10397 108.476 4.19997 108.776 4.39197C109.088 4.57197 109.394 4.79997 109.694 5.07597C109.994 5.35197 110.24 5.63397 110.432 5.92197C110.624 6.20997 110.72 6.46197 110.72 6.67797C110.72 7.07397 110.708 7.54197 110.684 8.08197C110.66 8.62197 110.636 9.17397 110.612 9.73797C110.588 10.29 110.576 10.794 110.576 11.25C110.576 11.61 110.636 11.862 110.756 12.006C110.876 12.138 111.104 12.27 111.44 12.402L111.206 12.906ZM106.562 10.656C106.562 10.956 106.616 11.148 106.724 11.232C106.832 11.304 106.964 11.34 107.12 11.34C107.612 11.34 108.02 11.214 108.344 10.962C108.68 10.698 108.848 10.29 108.848 9.73797C108.848 9.62997 108.848 9.49797 108.848 9.34197C108.86 9.18597 108.866 9.01197 108.866 8.81997C108.734 8.78397 108.572 8.75997 108.38 8.74797C108.188 8.73597 108.014 8.72997 107.858 8.72997C107.426 8.72997 107.102 8.82597 106.886 9.01797C106.67 9.20997 106.562 9.54597 106.562 10.026V10.656ZM113.147 -2.94447e-05C113.303 0.179971 113.435 0.383971 113.543 0.611971C113.651 0.839971 113.705 1.12797 113.705 1.47597C113.705 1.93197 113.585 2.37597 113.345 2.80797C113.117 3.22797 112.637 3.70197 111.905 4.22997L111.581 3.86997C111.725 3.66597 111.839 3.43197 111.923 3.16797C112.019 2.90397 112.067 2.64597 112.067 2.39397C112.067 2.10597 112.025 1.88997 111.941 1.74597C111.869 1.58997 111.749 1.42797 111.581 1.25997V0.953971L113.147 -2.94447e-05ZM117.402 12.942C116.49 12.942 115.776 12.648 115.26 12.06C114.744 11.46 114.384 10.65 114.18 9.62997L114.756 9.46797C114.984 10.044 115.242 10.452 115.53 10.692C115.83 10.932 116.232 11.052 116.736 11.052C117.312 11.052 117.798 10.89 118.194 10.566C118.602 10.242 118.806 9.84597 118.806 9.37797C118.806 9.11397 118.71 8.98197 118.518 8.98197C118.362 8.98197 118.134 9.01797 117.834 9.08997C117.546 9.16197 117.258 9.23997 116.97 9.32397C116.682 9.39597 116.466 9.43197 116.322 9.43197C116.106 9.43197 115.884 9.32997 115.656 9.12597C115.44 8.92197 115.236 8.66397 115.044 8.35197C114.852 8.02797 114.696 7.69197 114.576 7.34397C114.456 6.99597 114.396 6.67197 114.396 6.37197C114.396 5.66397 114.618 5.06997 115.062 4.58997C115.518 4.10997 116.166 3.86997 117.006 3.86997C117.726 3.86997 118.314 4.06197 118.77 4.44597C119.226 4.82997 119.574 5.41797 119.814 6.20997L119.184 6.42597C118.86 5.90997 118.368 5.65197 117.708 5.65197C117.132 5.65197 116.646 5.80197 116.25 6.10197C115.854 6.40197 115.656 6.77997 115.656 7.23597C115.656 7.47597 115.77 7.59597 115.998 7.59597C116.178 7.59597 116.412 7.55997 116.7 7.48797C116.988 7.40397 117.276 7.32597 117.564 7.25397C117.852 7.18197 118.086 7.14597 118.266 7.14597C118.542 7.14597 118.812 7.30197 119.076 7.61397C119.34 7.92597 119.556 8.32197 119.724 8.80197C119.892 9.28197 119.976 9.77397 119.976 10.278C119.976 11.082 119.754 11.73 119.31 12.222C118.866 12.702 118.23 12.942 117.402 12.942ZM127.299 12.996C126.507 12.732 125.907 12.486 125.499 12.258C125.091 12.03 124.887 11.844 124.887 11.7C124.887 11.532 124.923 11.238 124.995 10.818C125.067 10.398 125.103 9.89997 125.103 9.32397V6.22797C125.103 5.13597 125.157 4.28397 125.265 3.67197L123.807 4.58997L122.925 3.36597V3.09597L126.147 1.27797L127.299 2.62797C127.155 2.98797 127.053 3.44997 126.993 4.01397C126.945 4.56597 126.921 5.21397 126.921 5.95797V9.35997C126.921 9.98397 126.891 10.512 126.831 10.944C126.783 11.376 126.759 11.664 126.759 11.808C126.759 12.012 127.017 12.234 127.533 12.474L127.299 12.996ZM132.718 12.834C132.394 12.834 132.016 12.756 131.584 12.6C131.164 12.432 130.75 12.222 130.342 11.97C129.946 11.718 129.616 11.46 129.352 11.196C129.088 10.92 128.956 10.668 128.956 10.44C128.956 10.128 128.974 9.73197 129.01 9.25197C129.046 8.75997 129.064 8.24397 129.064 7.70397V3.95997C129.064 3.07197 129.28 2.41797 129.712 1.99797C130.144 1.57797 130.81 1.36797 131.71 1.36797C132.046 1.36797 132.418 1.47597 132.826 1.69197C133.246 1.90797 133.648 2.18397 134.032 2.51997C134.428 2.85597 134.752 3.19797 135.004 3.54597C135.256 3.88197 135.382 4.17597 135.382 4.42797C135.382 4.66797 135.376 5.00397 135.364 5.43597C135.364 5.86797 135.358 6.34797 135.346 6.87597C135.334 7.40397 135.322 7.93797 135.31 8.47797C135.31 9.00597 135.31 9.48597 135.31 9.91797C135.31 10.866 135.088 11.592 134.644 12.096C134.212 12.588 133.57 12.834 132.718 12.834ZM131.476 11.196C132.196 11.196 132.712 10.998 133.024 10.602C133.348 10.206 133.51 9.55197 133.51 8.63997C133.51 8.47197 133.51 8.21997 133.51 7.88397C133.51 7.54797 133.51 7.17597 133.51 6.76797C133.522 6.35997 133.528 5.95197 133.528 5.54397C133.528 5.13597 133.528 4.77597 133.528 4.46397C133.528 4.13997 133.528 3.89997 133.528 3.74397C133.528 3.49197 133.468 3.31197 133.348 3.20397C133.228 3.09597 133.024 3.04197 132.736 3.04197C131.992 3.04197 131.5 3.17997 131.26 3.45597C131.02 3.71997 130.9 4.13397 130.9 4.69797V8.47797C130.9 9.05397 130.882 9.52797 130.846 9.89997C130.822 10.272 130.81 10.53 130.81 10.674C130.81 11.022 131.032 11.196 131.476 11.196ZM140.751 12.87C140.331 12.87 139.893 12.792 139.437 12.636C138.993 12.468 138.579 12.246 138.195 11.97C137.811 11.694 137.499 11.394 137.259 11.07C137.019 10.734 136.899 10.404 136.899 10.08V9.61197C136.911 8.96397 137.019 8.42997 137.223 8.00997C137.427 7.57797 137.787 7.19997 138.303 6.87597C137.847 6.59997 137.511 6.25197 137.295 5.83197C137.079 5.39997 136.971 4.79997 136.971 4.03197C136.971 3.05997 137.235 2.36397 137.763 1.94397C138.291 1.51197 138.993 1.29597 139.869 1.29597C140.253 1.29597 140.637 1.39197 141.021 1.58397C141.405 1.77597 141.753 2.02197 142.065 2.32197C142.389 2.60997 142.647 2.90997 142.839 3.22197C143.043 3.53397 143.145 3.80997 143.145 4.04997V4.57197C143.133 5.23197 143.031 5.72997 142.839 6.06597C142.647 6.38997 142.347 6.68397 141.939 6.94797C142.395 7.24797 142.737 7.62597 142.965 8.08197C143.193 8.52597 143.307 9.09597 143.307 9.79197C143.307 10.716 143.079 11.46 142.623 12.024C142.179 12.588 141.555 12.87 140.751 12.87ZM138.807 4.89597C138.807 5.37597 138.837 5.72397 138.897 5.93997C138.969 6.15597 139.053 6.31797 139.149 6.42597L140.049 5.99397C140.493 5.78997 140.805 5.51397 140.985 5.16597C141.177 4.80597 141.279 4.38597 141.291 3.90597V3.47397C141.291 3.23397 141.237 3.06597 141.129 2.96997C141.033 2.86197 140.835 2.80797 140.535 2.80797C139.995 2.80797 139.569 2.96397 139.257 3.27597C138.957 3.58797 138.807 4.12797 138.807 4.89597ZM138.735 10.44C138.735 10.752 138.801 10.968 138.933 11.088C139.065 11.196 139.263 11.25 139.527 11.25C140.847 11.25 141.507 10.554 141.507 9.16197C141.507 8.74197 141.471 8.39997 141.399 8.13597C141.327 7.85997 141.225 7.63197 141.093 7.45197L140.283 7.90197C139.863 8.12997 139.539 8.35197 139.311 8.56797C139.095 8.78397 138.945 9.01797 138.861 9.26997C138.777 9.52197 138.735 9.82797 138.735 10.188V10.44ZM151.379 12.636C149.951 12.636 148.901 12.54 148.229 12.348C147.557 12.144 147.221 11.988 147.221 11.88C147.221 11.64 147.263 11.19 147.347 10.53C147.443 9.86997 147.491 9.04197 147.491 8.04597V5.75997C147.503 5.06397 147.539 4.49397 147.599 4.04997C147.659 3.59397 147.725 3.23997 147.797 2.98797H147.185L146.285 1.78197L146.429 1.49397H152.261L153.269 2.78997L152.387 3.56397H152.009C151.877 3.34797 151.721 3.19797 151.541 3.11397C151.373 3.02997 151.127 2.98797 150.803 2.98797H149.669C149.585 3.31197 149.501 3.71997 149.417 4.21197C149.345 4.70397 149.309 5.28597 149.309 5.95797V6.20997H151.721L152.531 7.50597L152.297 7.77597H149.309V8.49597C149.309 9.01197 149.297 9.45597 149.273 9.82797C149.261 10.188 149.231 10.554 149.183 10.926C149.375 10.962 149.609 10.992 149.885 11.016C150.161 11.028 150.467 11.034 150.803 11.034C151.127 11.034 151.439 11.022 151.739 10.998C152.051 10.974 152.339 10.944 152.603 10.908L153.431 12.33L153.215 12.636H151.379ZM156.824 12.996C156.056 12.708 155.462 12.45 155.042 12.222C154.634 11.982 154.43 11.766 154.43 11.574C154.43 11.406 154.448 11.148 154.484 10.8C154.532 10.44 154.556 10.092 154.556 9.75597V7.45197C154.556 7.21197 154.562 6.91197 154.574 6.55197C154.598 6.19197 154.64 5.88597 154.7 5.63397H154.034L153.098 4.39197L153.224 4.10397H154.916C154.964 4.10397 155.066 4.18197 155.222 4.33797C155.378 4.49397 155.534 4.67397 155.69 4.87797C156.158 4.27797 156.746 3.97797 157.454 3.97797H157.706C157.946 3.97797 158.216 4.07997 158.516 4.28397C158.816 4.47597 159.098 4.70397 159.362 4.96797C159.614 4.60797 159.914 4.35597 160.262 4.21197C160.61 4.05597 160.97 3.97797 161.342 3.97797H161.648C161.888 3.97797 162.152 4.07397 162.44 4.26597C162.74 4.45797 163.022 4.69197 163.286 4.96797C163.562 5.24397 163.784 5.51997 163.952 5.79597C164.132 6.05997 164.222 6.27597 164.222 6.44397C164.222 6.74397 164.21 7.11597 164.186 7.55997C164.162 8.00397 164.15 8.36397 164.15 8.63997V9.95397C164.15 10.386 164.132 10.77 164.096 11.106C164.06 11.43 164.042 11.676 164.042 11.844C164.042 11.964 164.084 12.06 164.168 12.132C164.264 12.192 164.492 12.318 164.852 12.51L164.636 12.996C163.868 12.708 163.274 12.45 162.854 12.222C162.446 11.982 162.242 11.766 162.242 11.574C162.242 11.406 162.26 11.148 162.296 10.8C162.344 10.44 162.368 10.092 162.368 9.75597V8.81997C162.368 8.43597 162.38 7.99797 162.404 7.50597C162.428 7.01397 162.44 6.58197 162.44 6.20997C162.44 5.96997 162.41 5.80797 162.35 5.72397C162.29 5.63997 162.158 5.59797 161.954 5.59797C160.91 5.59797 160.346 6.08397 160.262 7.05597C160.262 7.33197 160.256 7.61397 160.244 7.90197C160.244 8.18997 160.244 8.43597 160.244 8.63997V9.95397C160.244 10.386 160.226 10.77 160.19 11.106C160.154 11.43 160.136 11.676 160.136 11.844C160.136 11.964 160.178 12.06 160.262 12.132C160.358 12.192 160.586 12.318 160.946 12.51L160.73 12.996C159.962 12.708 159.368 12.45 158.948 12.222C158.54 11.982 158.336 11.766 158.336 11.574C158.336 11.406 158.354 11.148 158.39 10.8C158.438 10.44 158.462 10.092 158.462 9.75597V8.81997C158.462 8.43597 158.468 7.99797 158.48 7.50597C158.504 7.01397 158.516 6.58197 158.516 6.20997C158.516 5.96997 158.486 5.80797 158.426 5.72397C158.366 5.63997 158.234 5.59797 158.03 5.59797C157.442 5.59797 157.01 5.77197 156.734 6.11997C156.47 6.45597 156.338 6.92397 156.338 7.52397V9.95397C156.338 10.386 156.32 10.77 156.284 11.106C156.248 11.43 156.23 11.676 156.23 11.844C156.23 11.964 156.272 12.06 156.356 12.132C156.452 12.192 156.68 12.318 157.04 12.51L156.824 12.996ZM169.469 12.87C169.181 12.87 168.827 12.798 168.407 12.654C167.987 12.498 167.567 12.3 167.147 12.06C166.739 11.808 166.397 11.538 166.121 11.25C165.845 10.95 165.707 10.656 165.707 10.368C165.707 10.08 165.725 9.58197 165.761 8.87397C165.809 8.16597 165.833 7.31997 165.833 6.33597C165.833 4.77597 166.685 3.99597 168.389 3.99597C168.653 3.99597 168.959 4.07997 169.307 4.24797C169.655 4.40397 169.991 4.61397 170.315 4.87797C170.639 5.12997 170.909 5.39397 171.125 5.66997C171.341 5.94597 171.449 6.20397 171.449 6.44397V7.91997C171.449 8.89197 170.909 9.37797 169.829 9.37797C169.493 9.37797 169.109 9.35997 168.677 9.32397C168.245 9.27597 167.861 9.22197 167.525 9.16197C167.513 9.55797 167.501 9.91797 167.489 10.242C167.489 10.554 167.489 10.734 167.489 10.782C167.489 10.974 167.537 11.112 167.633 11.196C167.729 11.28 167.903 11.322 168.155 11.322C168.527 11.322 168.929 11.268 169.361 11.16C169.805 11.04 170.201 10.866 170.549 10.638H170.819L171.791 12.114C171.563 12.33 171.221 12.51 170.765 12.654C170.321 12.798 169.889 12.87 169.469 12.87ZM167.579 6.91197C167.579 7.00797 167.573 7.15197 167.561 7.34397C167.561 7.53597 167.561 7.75197 167.561 7.99197C167.909 8.02797 168.311 8.04597 168.767 8.04597C169.115 8.04597 169.355 7.96197 169.487 7.79397C169.631 7.61397 169.703 7.34397 169.703 6.98397V6.01197C169.703 5.87997 169.667 5.76597 169.595 5.66997C169.523 5.57397 169.367 5.52597 169.127 5.52597C168.647 5.52597 168.269 5.62797 167.993 5.83197C167.717 6.02397 167.579 6.38397 167.579 6.91197ZM176.103 13.158C175.071 12.822 174.327 12.534 173.871 12.294C173.415 12.042 173.187 11.862 173.187 11.754C173.187 11.622 173.205 11.394 173.241 11.07C173.289 10.746 173.313 10.242 173.313 9.55797V7.32597C173.313 7.08597 173.325 6.80397 173.349 6.47997C173.373 6.14397 173.409 5.86197 173.457 5.63397H172.791L171.855 4.39197L171.981 4.10397H173.673C173.733 4.10397 173.841 4.19397 173.997 4.37397C174.165 4.54197 174.333 4.72797 174.501 4.93197C174.693 4.61997 174.957 4.39197 175.293 4.24797C175.641 4.10397 176.007 4.03197 176.391 4.03197C176.583 4.03197 176.727 4.04397 176.823 4.06797L177.723 5.32797L177.579 5.54397C176.739 5.53197 176.115 5.69397 175.707 6.02997C175.299 6.36597 175.095 6.98397 175.095 7.88397V9.80997C175.095 10.41 175.077 10.878 175.041 11.214C175.017 11.538 175.005 11.754 175.005 11.862C175.005 11.934 175.029 12 175.077 12.06C175.125 12.108 175.239 12.168 175.419 12.24C175.611 12.312 175.911 12.432 176.319 12.6L176.103 13.158ZM181.424 16.452C180.5 16.452 179.756 16.194 179.192 15.678C178.628 15.162 178.184 14.31 177.86 13.122L178.454 12.942C178.67 13.494 178.946 13.914 179.282 14.202C179.618 14.49 180.098 14.634 180.722 14.634C181.202 14.634 181.64 14.574 182.036 14.454C182.432 14.334 182.75 14.166 182.99 13.95C183.23 13.746 183.35 13.524 183.35 13.284C183.35 13.068 183.248 12.96 183.044 12.96C182.864 12.96 182.642 12.99 182.378 13.05C182.114 13.11 181.844 13.17 181.568 13.23C181.292 13.302 181.034 13.338 180.794 13.338C180.542 13.338 180.278 13.242 180.002 13.05C179.726 12.858 179.462 12.624 179.21 12.348C178.97 12.06 178.772 11.772 178.616 11.484C178.472 11.184 178.4 10.932 178.4 10.728C178.4 10.344 178.514 10.032 178.742 9.79197C178.982 9.55197 179.27 9.36597 179.606 9.23397C178.778 8.84997 178.364 8.21397 178.364 7.32597V6.47997C178.364 5.73597 178.514 5.16597 178.814 4.76997C179.126 4.36197 179.654 4.12797 180.398 4.06797L181.676 3.95997C182.096 3.92397 182.402 3.83397 182.594 3.68997C182.786 3.54597 182.912 3.31197 182.972 2.98797L183.188 2.86197L184.43 3.58197C184.358 4.12197 184.184 4.52997 183.908 4.80597C183.644 5.08197 183.302 5.26797 182.882 5.36397C183.206 5.53197 183.464 5.76597 183.656 6.06597C183.86 6.36597 183.962 6.69597 183.962 7.05597V7.90197C183.962 8.45397 183.908 8.89797 183.8 9.23397C183.692 9.56997 183.482 9.82797 183.17 10.008C182.87 10.188 182.42 10.338 181.82 10.458L181.046 10.602C180.542 10.686 180.2 10.8 180.02 10.944C179.84 11.076 179.75 11.232 179.75 11.412C179.75 11.604 179.87 11.7 180.11 11.7C180.386 11.7 180.68 11.664 180.992 11.592C181.316 11.52 181.622 11.448 181.91 11.376C182.21 11.304 182.456 11.268 182.648 11.268C182.888 11.268 183.116 11.382 183.332 11.61C183.56 11.826 183.758 12.102 183.926 12.438C184.106 12.762 184.244 13.092 184.34 13.428C184.448 13.776 184.502 14.07 184.502 14.31C184.502 14.994 184.208 15.522 183.62 15.894C183.044 16.266 182.312 16.452 181.424 16.452ZM180.038 7.72197C180.038 8.04597 180.08 8.32197 180.164 8.54997C180.26 8.76597 180.41 8.90997 180.614 8.98197L181.19 8.89197C181.538 8.83197 181.82 8.71797 182.036 8.54997C182.252 8.38197 182.36 8.02197 182.36 7.46997V6.87597C182.36 6.38397 182.318 6.03597 182.234 5.83197C182.15 5.61597 182.012 5.48997 181.82 5.45397L181.154 5.50797C180.71 5.54397 180.41 5.67597 180.254 5.90397C180.11 6.13197 180.038 6.51597 180.038 7.05597V7.72197ZM189.103 12.87C188.815 12.87 188.461 12.798 188.041 12.654C187.621 12.498 187.201 12.3 186.781 12.06C186.373 11.808 186.031 11.538 185.755 11.25C185.479 10.95 185.341 10.656 185.341 10.368C185.341 10.08 185.359 9.58197 185.395 8.87397C185.443 8.16597 185.467 7.31997 185.467 6.33597C185.467 4.77597 186.319 3.99597 188.023 3.99597C188.287 3.99597 188.593 4.07997 188.941 4.24797C189.289 4.40397 189.625 4.61397 189.949 4.87797C190.273 5.12997 190.543 5.39397 190.759 5.66997C190.975 5.94597 191.083 6.20397 191.083 6.44397V7.91997C191.083 8.89197 190.543 9.37797 189.463 9.37797C189.127 9.37797 188.743 9.35997 188.311 9.32397C187.879 9.27597 187.495 9.22197 187.159 9.16197C187.147 9.55797 187.135 9.91797 187.123 10.242C187.123 10.554 187.123 10.734 187.123 10.782C187.123 10.974 187.171 11.112 187.267 11.196C187.363 11.28 187.537 11.322 187.789 11.322C188.161 11.322 188.563 11.268 188.995 11.16C189.439 11.04 189.835 10.866 190.183 10.638H190.453L191.425 12.114C191.197 12.33 190.855 12.51 190.399 12.654C189.955 12.798 189.523 12.87 189.103 12.87ZM187.213 6.91197C187.213 7.00797 187.207 7.15197 187.195 7.34397C187.195 7.53597 187.195 7.75197 187.195 7.99197C187.543 8.02797 187.945 8.04597 188.401 8.04597C188.749 8.04597 188.989 7.96197 189.121 7.79397C189.265 7.61397 189.337 7.34397 189.337 6.98397V6.01197C189.337 5.87997 189.301 5.76597 189.229 5.66997C189.157 5.57397 189.001 5.52597 188.761 5.52597C188.281 5.52597 187.903 5.62797 187.627 5.83197C187.351 6.02397 187.213 6.38397 187.213 6.91197ZM195.179 12.996C194.411 12.708 193.817 12.45 193.397 12.222C192.989 11.982 192.785 11.766 192.785 11.574C192.785 11.406 192.803 11.148 192.839 10.8C192.887 10.44 192.911 10.092 192.911 9.75597V7.45197C192.911 7.21197 192.917 6.91197 192.929 6.55197C192.953 6.19197 192.995 5.88597 193.055 5.63397H192.389L191.453 4.39197L191.579 4.10397H193.271C193.319 4.10397 193.421 4.18797 193.577 4.35597C193.745 4.51197 193.913 4.69197 194.081 4.89597C194.309 4.58397 194.591 4.35597 194.927 4.21197C195.275 4.05597 195.611 3.97797 195.935 3.97797H196.313C196.553 3.97797 196.817 4.07397 197.105 4.26597C197.405 4.45797 197.693 4.69197 197.969 4.96797C198.257 5.24397 198.491 5.51997 198.671 5.79597C198.851 6.05997 198.941 6.27597 198.941 6.44397C198.941 6.74397 198.929 7.11597 198.905 7.55997C198.881 8.00397 198.869 8.36397 198.869 8.63997V9.95397C198.869 10.386 198.851 10.77 198.815 11.106C198.779 11.43 198.761 11.676 198.761 11.844C198.761 11.964 198.803 12.06 198.887 12.132C198.983 12.192 199.211 12.318 199.571 12.51L199.355 12.996C198.587 12.708 197.993 12.45 197.573 12.222C197.165 11.982 196.961 11.766 196.961 11.574C196.961 11.406 196.979 11.148 197.015 10.8C197.063 10.44 197.087 10.092 197.087 9.75597V8.81997C197.087 8.43597 197.099 7.99797 197.123 7.50597C197.147 7.01397 197.159 6.58197 197.159 6.20997C197.159 5.96997 197.129 5.80797 197.069 5.72397C197.009 5.63997 196.877 5.59797 196.673 5.59797C196.001 5.59797 195.503 5.77197 195.179 6.11997C194.855 6.45597 194.693 6.92397 194.693 7.52397V9.95397C194.693 10.386 194.675 10.77 194.639 11.106C194.603 11.43 194.585 11.676 194.585 11.844C194.585 11.964 194.627 12.06 194.711 12.132C194.807 12.192 195.035 12.318 195.395 12.51L195.179 12.996ZM205.119 10.206L206.631 11.178C206.391 11.742 206.043 12.174 205.587 12.474C205.143 12.774 204.639 12.924 204.075 12.924C203.715 12.924 203.331 12.846 202.923 12.69C202.515 12.522 202.131 12.312 201.771 12.06C201.411 11.808 201.111 11.544 200.871 11.268C200.643 10.992 200.529 10.734 200.529 10.494C200.529 10.338 200.529 10.098 200.529 9.77397C200.541 9.44997 200.547 9.11397 200.547 8.76597C200.559 8.40597 200.565 8.10597 200.565 7.86597V6.38997C200.565 5.59797 200.805 4.99797 201.285 4.58997C201.765 4.16997 202.407 3.95997 203.211 3.95997C203.463 3.95997 203.757 4.03797 204.093 4.19397C204.429 4.33797 204.759 4.53597 205.083 4.78797C205.407 5.02797 205.677 5.29797 205.893 5.59797C206.109 5.88597 206.217 6.17397 206.217 6.46197C206.217 6.77397 206.205 7.04997 206.181 7.28997C206.157 7.51797 206.127 7.72797 206.091 7.91997L204.237 7.55997C204.333 6.98397 204.381 6.47997 204.381 6.04797C204.381 5.84397 204.339 5.70597 204.255 5.63397C204.183 5.56197 204.063 5.52597 203.895 5.52597C202.863 5.52597 202.347 6.04197 202.347 7.07397V8.51397C202.347 9.28197 202.335 9.84597 202.311 10.206C202.299 10.554 202.293 10.83 202.293 11.034C202.293 11.166 202.353 11.268 202.473 11.34C202.593 11.412 202.743 11.448 202.923 11.448C203.367 11.448 203.745 11.358 204.057 11.178C204.369 10.986 204.651 10.68 204.903 10.26L205.119 10.206ZM208.821 10.98C208.413 9.70797 208.095 8.66397 207.867 7.84797C207.639 7.01997 207.525 6.44997 207.525 6.13797C207.525 5.92197 207.543 5.75397 207.579 5.63397H207.147L206.283 4.39197L206.427 4.10397H208.731L209.559 5.30997L209.469 5.54397C209.097 5.61597 208.911 5.89797 208.911 6.38997C208.911 6.67797 209.007 7.20597 209.199 7.97397C209.403 8.72997 209.739 9.74397 210.207 11.016C210.567 9.97197 210.909 8.98797 211.233 8.06397C211.569 7.12797 211.857 6.31797 212.097 5.63397H211.107L210.297 4.39197L210.441 4.10397H212.871L213.861 5.59797C213.081 7.85397 212.415 9.78597 211.863 11.394C211.311 13.002 210.867 14.232 210.531 15.084C210.207 15.948 209.973 16.38 209.829 16.38C209.685 16.38 209.451 16.308 209.127 16.164C208.815 16.032 208.491 15.876 208.155 15.696C207.831 15.516 207.579 15.366 207.399 15.246L207.669 14.76C207.789 14.832 207.915 14.898 208.047 14.958C208.179 15.03 208.305 15.066 208.425 15.066C208.521 15.066 208.623 14.988 208.731 14.832C208.839 14.688 208.971 14.418 209.127 14.022C209.295 13.638 209.505 13.086 209.757 12.366C209.781 12.306 209.799 12.246 209.811 12.186C209.595 12.018 209.391 11.826 209.199 11.61C209.019 11.394 208.893 11.184 208.821 10.98ZM220.089 13.032C219.297 12.768 218.697 12.522 218.289 12.294C217.881 12.066 217.677 11.88 217.677 11.736C217.677 11.604 217.689 11.466 217.713 11.322C217.737 11.178 217.761 10.968 217.785 10.692C217.809 10.416 217.821 10.02 217.821 9.50397V6.08397C217.821 5.29197 217.851 4.64997 217.911 4.15797C217.983 3.65397 218.055 3.26397 218.127 2.98797H217.515L216.615 1.78197L216.759 1.49397H218.451C218.823 1.48197 219.195 1.46997 219.567 1.45797C219.951 1.43397 220.251 1.42197 220.467 1.42197C220.791 1.42197 221.145 1.51797 221.529 1.70997C221.925 1.90197 222.297 2.14797 222.645 2.44797C223.005 2.74797 223.299 3.05997 223.527 3.38397C223.755 3.69597 223.869 3.97197 223.869 4.21197V5.81397C223.869 6.84597 223.419 7.58397 222.519 8.02797C223.467 8.54397 223.941 9.08397 223.941 9.64797C223.941 9.91197 223.935 10.236 223.923 10.62C223.911 11.004 223.905 11.334 223.905 11.61C223.905 11.802 223.971 11.964 224.103 12.096C224.235 12.216 224.457 12.36 224.769 12.528L224.499 13.068C223.695 12.72 223.077 12.42 222.645 12.168C222.213 11.916 221.997 11.64 221.997 11.34C221.997 11.04 222.009 10.722 222.033 10.386C222.057 10.038 222.069 9.74997 222.069 9.52197C222.069 9.11397 221.901 8.80197 221.565 8.58597C221.229 8.35797 220.695 8.24397 219.963 8.24397H219.639V9.89997C219.639 10.416 219.621 10.83 219.585 11.142C219.561 11.442 219.549 11.676 219.549 11.844C219.549 12.048 219.807 12.27 220.323 12.51L220.089 13.032ZM221.367 2.98797C221.139 2.98797 220.905 2.99997 220.665 3.02397C220.437 3.03597 220.203 3.05997 219.963 3.09597C219.879 3.41997 219.801 3.82197 219.729 4.30197C219.669 4.76997 219.639 5.32197 219.639 5.95797V6.73197H220.755C221.175 6.73197 221.499 6.58797 221.727 6.29997C221.967 5.99997 222.087 5.57397 222.087 5.02197V4.03197C222.087 3.64797 222.033 3.37797 221.925 3.22197C221.817 3.06597 221.631 2.98797 221.367 2.98797ZM229.076 12.87C228.788 12.87 228.434 12.798 228.014 12.654C227.594 12.498 227.174 12.3 226.754 12.06C226.346 11.808 226.004 11.538 225.728 11.25C225.452 10.95 225.314 10.656 225.314 10.368C225.314 10.08 225.332 9.58197 225.368 8.87397C225.416 8.16597 225.44 7.31997 225.44 6.33597C225.44 4.77597 226.292 3.99597 227.996 3.99597C228.26 3.99597 228.566 4.07997 228.914 4.24797C229.262 4.40397 229.598 4.61397 229.922 4.87797C230.246 5.12997 230.516 5.39397 230.732 5.66997C230.948 5.94597 231.056 6.20397 231.056 6.44397V7.91997C231.056 8.89197 230.516 9.37797 229.436 9.37797C229.1 9.37797 228.716 9.35997 228.284 9.32397C227.852 9.27597 227.468 9.22197 227.132 9.16197C227.12 9.55797 227.108 9.91797 227.096 10.242C227.096 10.554 227.096 10.734 227.096 10.782C227.096 10.974 227.144 11.112 227.24 11.196C227.336 11.28 227.51 11.322 227.762 11.322C228.134 11.322 228.536 11.268 228.968 11.16C229.412 11.04 229.808 10.866 230.156 10.638H230.426L231.398 12.114C231.17 12.33 230.828 12.51 230.372 12.654C229.928 12.798 229.496 12.87 229.076 12.87ZM227.186 6.91197C227.186 7.00797 227.18 7.15197 227.168 7.34397C227.168 7.53597 227.168 7.75197 227.168 7.99197C227.516 8.02797 227.918 8.04597 228.374 8.04597C228.722 8.04597 228.962 7.96197 229.094 7.79397C229.238 7.61397 229.31 7.34397 229.31 6.98397V6.01197C229.31 5.87997 229.274 5.76597 229.202 5.66997C229.13 5.57397 228.974 5.52597 228.734 5.52597C228.254 5.52597 227.876 5.62797 227.6 5.83197C227.324 6.02397 227.186 6.38397 227.186 6.91197ZM235.422 12.942C234.51 12.942 233.796 12.648 233.28 12.06C232.764 11.46 232.404 10.65 232.2 9.62997L232.776 9.46797C233.004 10.044 233.262 10.452 233.55 10.692C233.85 10.932 234.252 11.052 234.756 11.052C235.332 11.052 235.818 10.89 236.214 10.566C236.622 10.242 236.826 9.84597 236.826 9.37797C236.826 9.11397 236.73 8.98197 236.538 8.98197C236.382 8.98197 236.154 9.01797 235.854 9.08997C235.566 9.16197 235.278 9.23997 234.99 9.32397C234.702 9.39597 234.486 9.43197 234.342 9.43197C234.126 9.43197 233.904 9.32997 233.676 9.12597C233.46 8.92197 233.256 8.66397 233.064 8.35197C232.872 8.02797 232.716 7.69197 232.596 7.34397C232.476 6.99597 232.416 6.67197 232.416 6.37197C232.416 5.66397 232.638 5.06997 233.082 4.58997C233.538 4.10997 234.186 3.86997 235.026 3.86997C235.746 3.86997 236.334 4.06197 236.79 4.44597C237.246 4.82997 237.594 5.41797 237.834 6.20997L237.204 6.42597C236.88 5.90997 236.388 5.65197 235.728 5.65197C235.152 5.65197 234.666 5.80197 234.27 6.10197C233.874 6.40197 233.676 6.77997 233.676 7.23597C233.676 7.47597 233.79 7.59597 234.018 7.59597C234.198 7.59597 234.432 7.55997 234.72 7.48797C235.008 7.40397 235.296 7.32597 235.584 7.25397C235.872 7.18197 236.106 7.14597 236.286 7.14597C236.562 7.14597 236.832 7.30197 237.096 7.61397C237.36 7.92597 237.576 8.32197 237.744 8.80197C237.912 9.28197 237.996 9.77397 237.996 10.278C237.996 11.082 237.774 11.73 237.33 12.222C236.886 12.702 236.25 12.942 235.422 12.942ZM243.467 12.834C243.071 12.834 242.699 12.78 242.351 12.672C242.015 12.564 241.721 12.438 241.469 12.294V13.698C241.469 14.13 241.451 14.508 241.415 14.832C241.379 15.168 241.361 15.42 241.361 15.588C241.361 15.708 241.403 15.798 241.487 15.858C241.583 15.93 241.811 16.062 242.171 16.254L241.955 16.74C241.187 16.452 240.593 16.188 240.173 15.948C239.765 15.72 239.561 15.51 239.561 15.318C239.561 15.15 239.579 14.886 239.615 14.526C239.663 14.178 239.687 13.836 239.687 13.5V7.48797C239.687 7.25997 239.693 6.95997 239.705 6.58797C239.729 6.21597 239.771 5.89797 239.831 5.63397H239.165L238.229 4.39197L238.355 4.10397H240.047C240.095 4.10397 240.197 4.18797 240.353 4.35597C240.509 4.51197 240.671 4.69197 240.839 4.89597C241.019 4.61997 241.277 4.39797 241.613 4.22997C241.961 4.06197 242.333 3.97797 242.729 3.97797H243.071C243.335 3.97797 243.623 4.08597 243.935 4.30197C244.247 4.50597 244.541 4.76397 244.817 5.07597C245.093 5.37597 245.321 5.67597 245.501 5.97597C245.681 6.27597 245.771 6.52197 245.771 6.71397C245.771 7.04997 245.765 7.52397 245.753 8.13597C245.741 8.73597 245.735 9.44997 245.735 10.278C245.735 11.058 245.531 11.682 245.123 12.15C244.715 12.606 244.163 12.834 243.467 12.834ZM243.503 5.65197C242.903 5.65197 242.423 5.74197 242.063 5.92197C241.703 6.08997 241.505 6.43797 241.469 6.96597C241.469 7.09797 241.469 7.21197 241.469 7.30797V11.268C241.685 11.316 241.913 11.34 242.153 11.34C242.801 11.34 243.263 11.19 243.539 10.89C243.815 10.59 243.953 10.17 243.953 9.62997C243.953 9.24597 243.959 8.84397 243.971 8.42397C243.983 8.00397 243.989 7.60797 243.989 7.23597C244.001 6.86397 244.007 6.55797 244.007 6.31797C244.007 6.14997 243.983 5.99997 243.935 5.86797C243.887 5.72397 243.743 5.65197 243.503 5.65197ZM250.71 12.906C250.422 12.906 250.074 12.834 249.666 12.69C249.258 12.546 248.862 12.354 248.478 12.114C248.094 11.874 247.77 11.598 247.506 11.286C247.254 10.974 247.128 10.656 247.128 10.332C247.128 10.188 247.146 9.76797 247.182 9.07197C247.23 8.37597 247.254 7.50597 247.254 6.46197C247.254 5.62197 247.5 5.00397 247.992 4.60797C248.484 4.21197 249.222 4.01397 250.206 4.01397C250.494 4.01397 250.812 4.10397 251.16 4.28397C251.52 4.46397 251.862 4.69797 252.186 4.98597C252.51 5.27397 252.774 5.57997 252.978 5.90397C253.194 6.21597 253.302 6.50997 253.302 6.78597C253.302 7.24197 253.29 7.73397 253.266 8.26197C253.254 8.78997 253.248 9.46797 253.248 10.296C253.248 11.064 253.038 11.694 252.618 12.186C252.198 12.666 251.562 12.906 250.71 12.906ZM249.558 11.376C250.218 11.376 250.698 11.238 250.998 10.962C251.31 10.686 251.466 10.278 251.466 9.73797C251.466 9.35397 251.472 8.92197 251.484 8.44197C251.496 7.94997 251.508 7.49997 251.52 7.09197C251.532 6.67197 251.538 6.37797 251.538 6.20997C251.538 6.00597 251.502 5.85597 251.43 5.75997C251.358 5.65197 251.214 5.59797 250.998 5.59797C250.35 5.59797 249.852 5.71197 249.504 5.93997C249.168 6.15597 249 6.56997 249 7.18197C249 8.33397 248.988 9.20397 248.964 9.79197C248.94 10.368 248.928 10.758 248.928 10.962C248.928 11.238 249.138 11.376 249.558 11.376ZM257.388 12.996C256.62 12.708 256.026 12.45 255.606 12.222C255.198 11.982 254.994 11.766 254.994 11.574C254.994 11.406 255.012 11.148 255.048 10.8C255.096 10.44 255.12 10.092 255.12 9.75597V7.45197C255.12 7.21197 255.126 6.91197 255.138 6.55197C255.162 6.19197 255.204 5.88597 255.264 5.63397H254.598L253.662 4.39197L253.788 4.10397H255.48C255.528 4.10397 255.63 4.18797 255.786 4.35597C255.954 4.51197 256.122 4.69197 256.29 4.89597C256.518 4.58397 256.8 4.35597 257.136 4.21197C257.484 4.05597 257.82 3.97797 258.144 3.97797H258.522C258.762 3.97797 259.026 4.07397 259.314 4.26597C259.614 4.45797 259.902 4.69197 260.178 4.96797C260.466 5.24397 260.7 5.51997 260.88 5.79597C261.06 6.05997 261.15 6.27597 261.15 6.44397C261.15 6.74397 261.138 7.11597 261.114 7.55997C261.09 8.00397 261.078 8.36397 261.078 8.63997V9.95397C261.078 10.386 261.06 10.77 261.024 11.106C260.988 11.43 260.97 11.676 260.97 11.844C260.97 11.964 261.012 12.06 261.096 12.132C261.192 12.192 261.42 12.318 261.78 12.51L261.564 12.996C260.796 12.708 260.202 12.45 259.782 12.222C259.374 11.982 259.17 11.766 259.17 11.574C259.17 11.406 259.188 11.148 259.224 10.8C259.272 10.44 259.296 10.092 259.296 9.75597V8.81997C259.296 8.43597 259.308 7.99797 259.332 7.50597C259.356 7.01397 259.368 6.58197 259.368 6.20997C259.368 5.96997 259.338 5.80797 259.278 5.72397C259.218 5.63997 259.086 5.59797 258.882 5.59797C258.21 5.59797 257.712 5.77197 257.388 6.11997C257.064 6.45597 256.902 6.92397 256.902 7.52397V9.95397C256.902 10.386 256.884 10.77 256.848 11.106C256.812 11.43 256.794 11.676 256.794 11.844C256.794 11.964 256.836 12.06 256.92 12.132C257.016 12.192 257.244 12.318 257.604 12.51L257.388 12.996ZM265.762 12.942C264.85 12.942 264.136 12.648 263.62 12.06C263.104 11.46 262.744 10.65 262.54 9.62997L263.116 9.46797C263.344 10.044 263.602 10.452 263.89 10.692C264.19 10.932 264.592 11.052 265.096 11.052C265.672 11.052 266.158 10.89 266.554 10.566C266.962 10.242 267.166 9.84597 267.166 9.37797C267.166 9.11397 267.07 8.98197 266.878 8.98197C266.722 8.98197 266.494 9.01797 266.194 9.08997C265.906 9.16197 265.618 9.23997 265.33 9.32397C265.042 9.39597 264.826 9.43197 264.682 9.43197C264.466 9.43197 264.244 9.32997 264.016 9.12597C263.8 8.92197 263.596 8.66397 263.404 8.35197C263.212 8.02797 263.056 7.69197 262.936 7.34397C262.816 6.99597 262.756 6.67197 262.756 6.37197C262.756 5.66397 262.978 5.06997 263.422 4.58997C263.878 4.10997 264.526 3.86997 265.366 3.86997C266.086 3.86997 266.674 4.06197 267.13 4.44597C267.586 4.82997 267.934 5.41797 268.174 6.20997L267.544 6.42597C267.22 5.90997 266.728 5.65197 266.068 5.65197C265.492 5.65197 265.006 5.80197 264.61 6.10197C264.214 6.40197 264.016 6.77997 264.016 7.23597C264.016 7.47597 264.13 7.59597 264.358 7.59597C264.538 7.59597 264.772 7.55997 265.06 7.48797C265.348 7.40397 265.636 7.32597 265.924 7.25397C266.212 7.18197 266.446 7.14597 266.626 7.14597C266.902 7.14597 267.172 7.30197 267.436 7.61397C267.7 7.92597 267.916 8.32197 268.084 8.80197C268.252 9.28197 268.336 9.77397 268.336 10.278C268.336 11.082 268.114 11.73 267.67 12.222C267.226 12.702 266.59 12.942 265.762 12.942ZM273.197 12.87C272.909 12.87 272.555 12.798 272.135 12.654C271.715 12.498 271.295 12.3 270.875 12.06C270.467 11.808 270.125 11.538 269.849 11.25C269.573 10.95 269.435 10.656 269.435 10.368C269.435 10.08 269.453 9.58197 269.489 8.87397C269.537 8.16597 269.561 7.31997 269.561 6.33597C269.561 4.77597 270.413 3.99597 272.117 3.99597C272.381 3.99597 272.687 4.07997 273.035 4.24797C273.383 4.40397 273.719 4.61397 274.043 4.87797C274.367 5.12997 274.637 5.39397 274.853 5.66997C275.069 5.94597 275.177 6.20397 275.177 6.44397V7.91997C275.177 8.89197 274.637 9.37797 273.557 9.37797C273.221 9.37797 272.837 9.35997 272.405 9.32397C271.973 9.27597 271.589 9.22197 271.253 9.16197C271.241 9.55797 271.229 9.91797 271.217 10.242C271.217 10.554 271.217 10.734 271.217 10.782C271.217 10.974 271.265 11.112 271.361 11.196C271.457 11.28 271.631 11.322 271.883 11.322C272.255 11.322 272.657 11.268 273.089 11.16C273.533 11.04 273.929 10.866 274.277 10.638H274.547L275.519 12.114C275.291 12.33 274.949 12.51 274.493 12.654C274.049 12.798 273.617 12.87 273.197 12.87ZM271.307 6.91197C271.307 7.00797 271.301 7.15197 271.289 7.34397C271.289 7.53597 271.289 7.75197 271.289 7.99197C271.637 8.02797 272.039 8.04597 272.495 8.04597C272.843 8.04597 273.083 7.96197 273.215 7.79397C273.359 7.61397 273.431 7.34397 273.431 6.98397V6.01197C273.431 5.87997 273.395 5.76597 273.323 5.66997C273.251 5.57397 273.095 5.52597 272.855 5.52597C272.375 5.52597 271.997 5.62797 271.721 5.83197C271.445 6.02397 271.307 6.38397 271.307 6.91197Z" fill="white"/>
</svg>
