<svg width="112" height="35" viewBox="0 0 112 35" fill="none" xmlns="http://www.w3.org/2000/svg">
<path d="M41.8797 22V5.27273H48.0054C49.1925 5.27273 50.1753 5.46875 50.954 5.8608C51.7326 6.2474 52.3152 6.77285 52.7018 7.43714C53.0884 8.096 53.2817 8.83925 53.2817 9.6669C53.2817 10.3639 53.1538 10.9519 52.8978 11.4311C52.6419 11.9048 52.2989 12.286 51.8687 12.5746C51.444 12.8577 50.9757 13.0646 50.4639 13.1953V13.3587C51.0193 13.3859 51.5611 13.5656 52.0893 13.8977C52.6229 14.2244 53.0639 14.69 53.4124 15.2944C53.7609 15.8988 53.9351 16.6339 53.9351 17.4996C53.9351 18.3545 53.7337 19.1223 53.3307 19.8029C52.9332 20.4781 52.3179 21.0144 51.4848 21.4119C50.6518 21.804 49.5872 22 48.2913 22H41.8797ZM44.4035 19.8356H48.0463C49.2551 19.8356 50.1209 19.6014 50.6436 19.1332C51.1663 18.6649 51.4277 18.0795 51.4277 17.3771C51.4277 16.849 51.2943 16.3643 51.0275 15.9233C50.7607 15.4822 50.3795 15.131 49.884 14.8697C49.3939 14.6083 48.8113 14.4776 48.1361 14.4776H44.4035V19.8356ZM44.4035 12.5092H47.7849C48.3512 12.5092 48.8603 12.4003 49.3123 12.1825C49.7697 11.9647 50.1317 11.6598 50.3986 11.2678C50.6708 10.8703 50.8069 10.402 50.8069 9.86293C50.8069 9.1714 50.5646 8.5915 50.08 8.12322C49.5954 7.65495 48.8522 7.42081 47.8503 7.42081H44.4035V12.5092ZM60.3835 22.2777C59.5885 22.2777 58.8697 22.1307 58.2272 21.8366C57.5847 21.5372 57.0756 21.1043 56.6999 20.538C56.3296 19.9717 56.1445 19.2775 56.1445 18.4553C56.1445 17.7474 56.2806 17.1648 56.5529 16.7074C56.8251 16.25 57.1927 15.8879 57.6555 15.6211C58.1183 15.3543 58.6356 15.1528 59.2073 15.0167C59.7791 14.8806 60.3617 14.7771 60.9552 14.7063C61.7066 14.6192 62.3165 14.5484 62.7847 14.494C63.253 14.4341 63.5933 14.3388 63.8057 14.2081C64.0181 14.0774 64.1242 13.8651 64.1242 13.571V13.5138C64.1242 12.8005 63.9228 12.2479 63.5198 11.8558C63.1223 11.4638 62.5288 11.2678 61.7393 11.2678C60.9171 11.2678 60.2691 11.4502 59.7954 11.815C59.3271 12.1744 59.0031 12.5746 58.8235 13.0156L56.5284 12.4929C56.8006 11.7306 57.1981 11.1153 57.7208 10.647C58.249 10.1733 58.8561 9.83025 59.5422 9.6179C60.2283 9.40009 60.9498 9.29119 61.7066 9.29119C62.2076 9.29119 62.7385 9.35109 63.2993 9.47088C63.8656 9.58523 64.3938 9.79758 64.8838 10.108C65.3793 10.4183 65.785 10.8621 66.1008 11.4393C66.4166 12.011 66.5745 12.7543 66.5745 13.669V22H64.1896V20.2848H64.0916C63.9337 20.6006 63.6968 20.911 63.381 21.2159C63.0652 21.5208 62.6595 21.774 62.164 21.9755C61.6685 22.177 61.075 22.2777 60.3835 22.2777ZM60.9144 20.3175C61.5895 20.3175 62.1667 20.1841 62.6459 19.9173C63.1305 19.6504 63.498 19.302 63.7485 18.8718C64.0044 18.4362 64.1324 17.9706 64.1324 17.4751V15.858C64.0453 15.9451 63.8765 16.0268 63.626 16.103C63.381 16.1738 63.1006 16.2364 62.7847 16.2908C62.4689 16.3398 62.1613 16.3861 61.8618 16.4297C61.5623 16.4678 61.3119 16.5005 61.1104 16.5277C60.6367 16.5876 60.2038 16.6883 59.8117 16.8299C59.4251 16.9715 59.1148 17.1757 58.8806 17.4425C58.6519 17.7038 58.5376 18.0523 58.5376 18.4879C58.5376 19.0923 58.7608 19.5497 59.2073 19.8601C59.6538 20.165 60.2228 20.3175 60.9144 20.3175ZM75.1117 22.2532C73.8975 22.2532 72.852 21.9782 71.9754 21.4283C71.1041 20.8729 70.4344 20.1078 69.9661 19.1332C69.4978 18.1585 69.2637 17.0423 69.2637 15.7844C69.2637 14.5103 69.5033 13.3859 69.9825 12.4112C70.4616 11.4311 71.1368 10.6661 72.008 10.1161C72.8792 9.56617 73.9056 9.29119 75.0872 9.29119C76.0401 9.29119 76.8895 9.46816 77.6355 9.82209C78.3815 10.1706 78.9832 10.6606 79.4405 11.2923C79.9034 11.9239 80.1784 12.6617 80.2655 13.5057H77.8887C77.758 12.9176 77.4585 12.4112 76.9903 11.9865C76.5274 11.5618 75.9067 11.3494 75.128 11.3494C74.4474 11.3494 73.8512 11.5291 73.3393 11.8885C72.8329 12.2424 72.4382 12.7488 72.155 13.4077C71.8719 14.0611 71.7303 14.8343 71.7303 15.7273C71.7303 16.642 71.8692 17.4316 72.1469 18.0959C72.4246 18.7602 72.8166 19.2747 73.323 19.6396C73.8348 20.0044 74.4365 20.1868 75.128 20.1868C75.5909 20.1868 76.0102 20.1024 76.3859 19.9336C76.767 19.7594 77.0856 19.5116 77.3415 19.1903C77.6028 18.8691 77.7852 18.4825 77.8887 18.0305H80.2655C80.1784 18.8419 79.9143 19.5661 79.4732 20.2031C79.0322 20.8402 78.4414 21.3411 77.7008 21.706C76.9658 22.0708 76.1027 22.2532 75.1117 22.2532ZM85.1232 17.7447L85.1068 14.7635H85.5315L90.5301 9.45455H93.4541L87.7531 15.4986H87.3693L85.1232 17.7447ZM82.8771 22V5.27273H85.3192V22H82.8771ZM90.7997 22L86.3075 16.0376L87.99 14.3306L93.7972 22H90.7997Z" fill="#C3A6A6"/>
<path d="M22.3003 29.0202L6.30217 20.5876C3.58848 19.1573 3.4285 15.3305 6.01334 13.6786L21.8861 3.53485" stroke="#C3BBBB" stroke-width="3"/>
</svg>
