<svg width="343" height="90" viewBox="0 0 343 90" fill="none" xmlns="http://www.w3.org/2000/svg">
<g filter="url(#filter0_f_30_62)">
<rect x="42" y="39" width="297" height="47" rx="5" fill="#C8C2C2"/>
<rect x="42.5" y="39.5" width="296" height="46" rx="4.5" stroke="#0A0000"/>
</g>
<path d="M42 44C42 41.2386 44.2386 39 47 39H109V86H47C44.2386 86 42 83.7614 42 81V44Z" fill="url(#paint0_linear_30_62)"/>
<path d="M56.6119 67.2045V55.4091H59.288V67.2045H56.6119ZM52.0522 62.6449V59.9688H63.8477V62.6449H52.0522ZM73.6381 52.3068C74.4734 52.3125 75.2859 52.4602 76.0756 52.75C76.8711 53.0341 77.587 53.5 78.2234 54.1477C78.8597 54.7898 79.3654 55.6506 79.7404 56.7301C80.1154 57.8097 80.3029 59.1449 80.3029 60.7358C80.3086 62.2358 80.1495 63.5767 79.8256 64.7585C79.5075 65.9347 79.0501 66.929 78.4535 67.7415C77.8569 68.554 77.1381 69.1733 76.2972 69.5994C75.4563 70.0256 74.5103 70.2386 73.4592 70.2386C72.3569 70.2386 71.3796 70.0227 70.5273 69.5909C69.6808 69.1591 68.9961 68.5682 68.4734 67.8182C67.9506 67.0682 67.6296 66.2102 67.5103 65.2443H70.6211C70.7802 65.9375 71.104 66.4886 71.5927 66.8977C72.087 67.3011 72.7092 67.5028 73.4592 67.5028C74.6694 67.5028 75.6012 66.9773 76.2546 65.9261C76.908 64.875 77.2347 63.4148 77.2347 61.5455H77.1154C76.837 62.0455 76.4762 62.4773 76.033 62.8409C75.5898 63.1989 75.087 63.4744 74.5245 63.6676C73.9677 63.8608 73.3768 63.9574 72.7518 63.9574C71.729 63.9574 70.8086 63.7131 69.9904 63.2244C69.1779 62.7358 68.533 62.0653 68.0558 61.2131C67.5842 60.3608 67.3455 59.3864 67.3398 58.2898C67.3398 57.1534 67.6012 56.1335 68.1239 55.2301C68.6523 54.321 69.3881 53.6051 70.3313 53.0824C71.2745 52.554 72.3768 52.2955 73.6381 52.3068ZM73.6467 54.8636C73.033 54.8636 72.479 55.0142 71.9847 55.3153C71.4961 55.6108 71.1097 56.0142 70.8256 56.5256C70.5472 57.0312 70.408 57.5966 70.408 58.2216C70.4137 58.8409 70.5529 59.4034 70.8256 59.9091C71.104 60.4148 71.4819 60.8153 71.9592 61.1108C72.4421 61.4062 72.9933 61.554 73.6126 61.554C74.0728 61.554 74.5018 61.4659 74.8995 61.2898C75.2972 61.1136 75.6438 60.8693 75.9393 60.5568C76.2404 60.2386 76.4734 59.8778 76.6381 59.4744C76.8086 59.071 76.891 58.6449 76.8853 58.196C76.8853 57.5994 76.7433 57.0483 76.4592 56.5426C76.1808 56.0369 75.7972 55.6307 75.3086 55.3239C74.8256 55.017 74.2717 54.8636 73.6467 54.8636ZM90.2404 52.5455V70H87.0785V55.6222H86.9762L82.8938 58.2301V55.3324L87.2319 52.5455H90.2404Z" fill="#3F3C3C"/>
<path d="M142.537 70.2386C141.702 70.233 140.886 70.0881 140.091 69.804C139.295 69.5142 138.58 69.0455 137.943 68.3977C137.307 67.7443 136.801 66.8778 136.426 65.7983C136.051 64.7131 135.866 63.3693 135.872 61.767C135.872 60.2727 136.031 58.9403 136.349 57.7699C136.668 56.5994 137.125 55.6108 137.722 54.804C138.318 53.9915 139.037 53.3722 139.878 52.946C140.724 52.5199 141.67 52.3068 142.716 52.3068C143.813 52.3068 144.784 52.5227 145.631 52.9545C146.483 53.3864 147.17 53.9773 147.693 54.7273C148.216 55.4716 148.54 56.3125 148.665 57.25H145.554C145.395 56.5795 145.068 56.0455 144.574 55.6477C144.085 55.2443 143.466 55.0426 142.716 55.0426C141.506 55.0426 140.574 55.5682 139.92 56.6193C139.273 57.6705 138.946 59.1136 138.94 60.9489H139.06C139.338 60.4489 139.699 60.0199 140.142 59.6619C140.585 59.304 141.085 59.0284 141.642 58.8352C142.205 58.6364 142.798 58.5369 143.423 58.5369C144.446 58.5369 145.364 58.7812 146.176 59.2699C146.994 59.7585 147.642 60.4318 148.119 61.2898C148.597 62.142 148.832 63.1193 148.827 64.2216C148.832 65.3693 148.571 66.4006 148.043 67.3153C147.514 68.2244 146.778 68.9403 145.835 69.4631C144.892 69.9858 143.793 70.2443 142.537 70.2386ZM142.52 67.6818C143.139 67.6818 143.693 67.5312 144.182 67.2301C144.67 66.929 145.057 66.5227 145.341 66.0114C145.625 65.5 145.764 64.9261 145.759 64.2898C145.764 63.6648 145.628 63.0994 145.349 62.5938C145.077 62.0881 144.699 61.6875 144.216 61.392C143.733 61.0966 143.182 60.9489 142.562 60.9489C142.102 60.9489 141.673 61.0369 141.276 61.2131C140.878 61.3892 140.531 61.6335 140.236 61.946C139.94 62.2528 139.707 62.6108 139.537 63.0199C139.372 63.4233 139.287 63.8551 139.281 64.3153C139.287 64.9233 139.429 65.483 139.707 65.9943C139.986 66.5057 140.369 66.9148 140.858 67.2216C141.347 67.5284 141.901 67.6818 142.52 67.6818ZM151.707 70V67.7159L157.767 61.7756C158.347 61.1903 158.83 60.6705 159.216 60.2159C159.602 59.7614 159.892 59.321 160.085 58.8949C160.278 58.4687 160.375 58.0142 160.375 57.5312C160.375 56.9801 160.25 56.5085 160 56.1165C159.75 55.7188 159.406 55.4119 158.969 55.196C158.531 54.9801 158.034 54.8722 157.477 54.8722C156.903 54.8722 156.401 54.9915 155.969 55.2301C155.537 55.4631 155.202 55.7955 154.963 56.2273C154.73 56.6591 154.614 57.1733 154.614 57.7699H151.605C151.605 56.6619 151.858 55.6989 152.364 54.8807C152.869 54.0625 153.565 53.429 154.452 52.9801C155.344 52.5312 156.366 52.3068 157.52 52.3068C158.69 52.3068 159.719 52.5256 160.605 52.9631C161.491 53.4006 162.179 54 162.668 54.7614C163.162 55.5227 163.409 56.392 163.409 57.3693C163.409 58.0227 163.284 58.6648 163.034 59.2955C162.784 59.9261 162.344 60.625 161.713 61.392C161.088 62.1591 160.21 63.0881 159.08 64.179L156.071 67.2386V67.358H163.673V70H151.707ZM173.006 70.2386C172.17 70.233 171.355 70.0881 170.56 69.804C169.764 69.5142 169.048 69.0455 168.412 68.3977C167.776 67.7443 167.27 66.8778 166.895 65.7983C166.52 64.7131 166.335 63.3693 166.341 61.767C166.341 60.2727 166.5 58.9403 166.818 57.7699C167.136 56.5994 167.594 55.6108 168.19 54.804C168.787 53.9915 169.506 53.3722 170.347 52.946C171.193 52.5199 172.139 52.3068 173.185 52.3068C174.281 52.3068 175.253 52.5227 176.099 52.9545C176.952 53.3864 177.639 53.9773 178.162 54.7273C178.685 55.4716 179.009 56.3125 179.134 57.25H176.023C175.864 56.5795 175.537 56.0455 175.043 55.6477C174.554 55.2443 173.935 55.0426 173.185 55.0426C171.974 55.0426 171.043 55.5682 170.389 56.6193C169.741 57.6705 169.415 59.1136 169.409 60.9489H169.528C169.807 60.4489 170.168 60.0199 170.611 59.6619C171.054 59.304 171.554 59.0284 172.111 58.8352C172.673 58.6364 173.267 58.5369 173.892 58.5369C174.915 58.5369 175.832 58.7812 176.645 59.2699C177.463 59.7585 178.111 60.4318 178.588 61.2898C179.065 62.142 179.301 63.1193 179.295 64.2216C179.301 65.3693 179.04 66.4006 178.511 67.3153C177.983 68.2244 177.247 68.9403 176.304 69.4631C175.361 69.9858 174.261 70.2443 173.006 70.2386ZM172.989 67.6818C173.608 67.6818 174.162 67.5312 174.651 67.2301C175.139 66.929 175.526 66.5227 175.81 66.0114C176.094 65.5 176.233 64.9261 176.227 64.2898C176.233 63.6648 176.097 63.0994 175.818 62.5938C175.545 62.0881 175.168 61.6875 174.685 61.392C174.202 61.0966 173.651 60.9489 173.031 60.9489C172.571 60.9489 172.142 61.0369 171.744 61.2131C171.347 61.3892 171 61.6335 170.705 61.946C170.409 62.2528 170.176 62.6108 170.006 63.0199C169.841 63.4233 169.756 63.8551 169.75 64.3153C169.756 64.9233 169.898 65.483 170.176 65.9943C170.455 66.5057 170.838 66.9148 171.327 67.2216C171.815 67.5284 172.369 67.6818 172.989 67.6818ZM182.176 70V67.7159L188.236 61.7756C188.815 61.1903 189.298 60.6705 189.685 60.2159C190.071 59.7614 190.361 59.321 190.554 58.8949C190.747 58.4687 190.844 58.0142 190.844 57.5312C190.844 56.9801 190.719 56.5085 190.469 56.1165C190.219 55.7188 189.875 55.4119 189.438 55.196C189 54.9801 188.503 54.8722 187.946 54.8722C187.372 54.8722 186.869 54.9915 186.438 55.2301C186.006 55.4631 185.67 55.7955 185.432 56.2273C185.199 56.6591 185.082 57.1733 185.082 57.7699H182.074C182.074 56.6619 182.327 55.6989 182.832 54.8807C183.338 54.0625 184.034 53.429 184.92 52.9801C185.813 52.5312 186.835 52.3068 187.989 52.3068C189.159 52.3068 190.188 52.5256 191.074 52.9631C191.96 53.4006 192.648 54 193.136 54.7614C193.631 55.5227 193.878 56.392 193.878 57.3693C193.878 58.0227 193.753 58.6648 193.503 59.2955C193.253 59.9261 192.813 60.625 192.182 61.392C191.557 62.1591 190.679 63.0881 189.548 64.179L186.54 67.2386V67.358H194.142V70H182.176ZM204.182 52.5455V70H201.02V55.6222H200.918L196.835 58.2301V55.3324L201.173 52.5455H204.182ZM215.006 70.2386C214.17 70.233 213.355 70.0881 212.56 69.804C211.764 69.5142 211.048 69.0455 210.412 68.3977C209.776 67.7443 209.27 66.8778 208.895 65.7983C208.52 64.7131 208.335 63.3693 208.341 61.767C208.341 60.2727 208.5 58.9403 208.818 57.7699C209.136 56.5994 209.594 55.6108 210.19 54.804C210.787 53.9915 211.506 53.3722 212.347 52.946C213.193 52.5199 214.139 52.3068 215.185 52.3068C216.281 52.3068 217.253 52.5227 218.099 52.9545C218.952 53.3864 219.639 53.9773 220.162 54.7273C220.685 55.4716 221.009 56.3125 221.134 57.25H218.023C217.864 56.5795 217.537 56.0455 217.043 55.6477C216.554 55.2443 215.935 55.0426 215.185 55.0426C213.974 55.0426 213.043 55.5682 212.389 56.6193C211.741 57.6705 211.415 59.1136 211.409 60.9489H211.528C211.807 60.4489 212.168 60.0199 212.611 59.6619C213.054 59.304 213.554 59.0284 214.111 58.8352C214.673 58.6364 215.267 58.5369 215.892 58.5369C216.915 58.5369 217.832 58.7812 218.645 59.2699C219.463 59.7585 220.111 60.4318 220.588 61.2898C221.065 62.142 221.301 63.1193 221.295 64.2216C221.301 65.3693 221.04 66.4006 220.511 67.3153C219.983 68.2244 219.247 68.9403 218.304 69.4631C217.361 69.9858 216.261 70.2443 215.006 70.2386ZM214.989 67.6818C215.608 67.6818 216.162 67.5312 216.651 67.2301C217.139 66.929 217.526 66.5227 217.81 66.0114C218.094 65.5 218.233 64.9261 218.227 64.2898C218.233 63.6648 218.097 63.0994 217.818 62.5938C217.545 62.0881 217.168 61.6875 216.685 61.392C216.202 61.0966 215.651 60.9489 215.031 60.9489C214.571 60.9489 214.142 61.0369 213.744 61.2131C213.347 61.3892 213 61.6335 212.705 61.946C212.409 62.2528 212.176 62.6108 212.006 63.0199C211.841 63.4233 211.756 63.8551 211.75 64.3153C211.756 64.9233 211.898 65.483 212.176 65.9943C212.455 66.5057 212.838 66.9148 213.327 67.2216C213.815 67.5284 214.369 67.6818 214.989 67.6818ZM231.276 52.5455V70H228.114V55.6222H228.011L223.929 58.2301V55.3324L228.267 52.5455H231.276ZM242.807 52.5455V70H239.645V55.6222H239.543L235.46 58.2301V55.3324L239.798 52.5455H242.807ZM247.878 70L255.301 55.3068V55.1875H246.685V52.5455H258.574V55.2472L251.159 70H247.878ZM267.401 70.3324C265.998 70.3324 264.793 69.9773 263.788 69.267C262.788 68.5511 262.018 67.5199 261.478 66.1733C260.944 64.821 260.677 63.1932 260.677 61.2898C260.683 59.3864 260.952 57.767 261.487 56.4318C262.026 55.0909 262.796 54.0682 263.796 53.3636C264.802 52.6591 266.004 52.3068 267.401 52.3068C268.799 52.3068 270.001 52.6591 271.006 53.3636C272.012 54.0682 272.782 55.0909 273.316 56.4318C273.856 57.7727 274.126 59.392 274.126 61.2898C274.126 63.1989 273.856 64.8295 273.316 66.1818C272.782 67.5284 272.012 68.5568 271.006 69.267C270.006 69.9773 268.805 70.3324 267.401 70.3324ZM267.401 67.6648C268.492 67.6648 269.353 67.1278 269.984 66.054C270.62 64.9744 270.938 63.3864 270.938 61.2898C270.938 59.9034 270.793 58.7386 270.504 57.7955C270.214 56.8523 269.805 56.142 269.276 55.6648C268.748 55.1818 268.123 54.9403 267.401 54.9403C266.316 54.9403 265.458 55.4801 264.827 56.5597C264.197 57.6335 263.879 59.2102 263.873 61.2898C263.867 62.6818 264.006 63.8523 264.29 64.8011C264.58 65.75 264.989 66.4659 265.518 66.9489C266.046 67.4261 266.674 67.6648 267.401 67.6648Z" fill="black"/>
<path d="M39.7042 4.45455H42.9286L47.2468 14.9943H47.4173L51.7354 4.45455H54.9599V19H52.4315V9.0071H52.2965L48.2766 18.9574H46.3874L42.3675 8.9858H42.2326V19H39.7042V4.45455ZM62.4741 19.2131C61.4087 19.2131 60.4854 18.9787 59.7042 18.5099C58.9229 18.0412 58.3169 17.3854 57.886 16.5426C57.4599 15.6998 57.2468 14.715 57.2468 13.5881C57.2468 12.4612 57.4599 11.474 57.886 10.6264C58.3169 9.77888 58.9229 9.12074 59.7042 8.65199C60.4854 8.18324 61.4087 7.94886 62.4741 7.94886C63.5394 7.94886 64.4627 8.18324 65.244 8.65199C66.0252 9.12074 66.6289 9.77888 67.055 10.6264C67.4859 11.474 67.7013 12.4612 67.7013 13.5881C67.7013 14.715 67.4859 15.6998 67.055 16.5426C66.6289 17.3854 66.0252 18.0412 65.244 18.5099C64.4627 18.9787 63.5394 19.2131 62.4741 19.2131ZM62.4883 17.1534C63.0659 17.1534 63.5489 16.9948 63.9371 16.6776C64.3254 16.3556 64.6142 15.9247 64.8036 15.3849C64.9978 14.8452 65.0948 14.2438 65.0948 13.581C65.0948 12.9134 64.9978 12.3097 64.8036 11.7699C64.6142 11.2254 64.3254 10.7921 63.9371 10.4702C63.5489 10.1482 63.0659 9.98722 62.4883 9.98722C61.8964 9.98722 61.404 10.1482 61.011 10.4702C60.6228 10.7921 60.3316 11.2254 60.1374 11.7699C59.948 12.3097 59.8533 12.9134 59.8533 13.581C59.8533 14.2438 59.948 14.8452 60.1374 15.3849C60.3316 15.9247 60.6228 16.3556 61.011 16.6776C61.404 16.9948 61.8964 17.1534 62.4883 17.1534ZM69.9972 19V4.45455H72.5682V9.89489H72.6747C72.8073 9.62973 72.9943 9.34801 73.2358 9.04972C73.4773 8.74669 73.804 8.48864 74.2159 8.27557C74.6278 8.05777 75.1534 7.94886 75.7926 7.94886C76.6354 7.94886 77.3954 8.1643 78.0724 8.59517C78.7543 9.02131 79.294 9.65341 79.6918 10.4915C80.0942 11.3248 80.2955 12.3475 80.2955 13.5597C80.2955 14.7576 80.099 15.7756 79.706 16.6136C79.313 17.4517 78.7779 18.0909 78.1009 18.5312C77.4238 18.9716 76.6567 19.1918 75.7997 19.1918C75.1747 19.1918 74.6563 19.0876 74.2443 18.8793C73.8324 18.6709 73.5009 18.42 73.25 18.1264C73.0038 17.8281 72.812 17.5464 72.6747 17.2812H72.5256V19H69.9972ZM72.5185 13.5455C72.5185 14.2509 72.6179 14.8688 72.8168 15.3991C73.0204 15.9295 73.3116 16.3437 73.6903 16.642C74.0739 16.9356 74.5379 17.0824 75.0824 17.0824C75.6506 17.0824 76.1264 16.9309 76.5099 16.6278C76.8935 16.3201 77.1823 15.901 77.3764 15.3707C77.5753 14.8357 77.6747 14.2273 77.6747 13.5455C77.6747 12.8684 77.5777 12.267 77.3835 11.7415C77.1894 11.2159 76.9006 10.804 76.517 10.5057C76.1335 10.2074 75.6553 10.0582 75.0824 10.0582C74.5331 10.0582 74.0668 10.2027 73.6832 10.4915C73.2997 10.7803 73.0085 11.1851 72.8097 11.706C72.6155 12.2268 72.5185 12.84 72.5185 13.5455ZM82.4812 19V8.09091H85.0522V19H82.4812ZM83.7738 6.54261C83.3666 6.54261 83.0162 6.40767 82.7227 6.13778C82.4291 5.86316 82.2823 5.53409 82.2823 5.15057C82.2823 4.76231 82.4291 4.43324 82.7227 4.16335C83.0162 3.88873 83.3666 3.75142 83.7738 3.75142C84.1857 3.75142 84.5361 3.88873 84.8249 4.16335C85.1185 4.43324 85.2653 4.76231 85.2653 5.15057C85.2653 5.53409 85.1185 5.86316 84.8249 6.13778C84.5361 6.40767 84.1857 6.54261 83.7738 6.54261ZM90.267 4.45455V19H87.696V4.45455H90.267ZM97.7404 19.2131C96.6467 19.2131 95.7021 18.9858 94.9066 18.5312C94.1159 18.072 93.5075 17.4233 93.0813 16.5852C92.6552 15.7424 92.4421 14.7505 92.4421 13.6094C92.4421 12.4872 92.6552 11.5024 93.0813 10.6548C93.5122 9.80256 94.1135 9.13968 94.8853 8.66619C95.6571 8.18797 96.5638 7.94886 97.6055 7.94886C98.2778 7.94886 98.9123 8.05777 99.5089 8.27557C100.11 8.48864 100.641 8.82008 101.1 9.26989C101.564 9.7197 101.928 10.2926 102.194 10.9886C102.459 11.6799 102.591 12.5038 102.591 13.4602V14.2486H93.6495V12.5156H100.127C100.122 12.0232 100.016 11.5852 99.8072 11.2017C99.5988 10.8134 99.3076 10.508 98.9336 10.2855C98.5643 10.063 98.1334 9.9517 97.641 9.9517C97.1154 9.9517 96.6538 10.0795 96.256 10.3352C95.8583 10.5862 95.5482 10.9176 95.3256 11.3295C95.1078 11.7367 94.9966 12.1842 94.9918 12.6719V14.1847C94.9918 14.8191 95.1078 15.3636 95.3398 15.8182C95.5719 16.268 95.8962 16.6136 96.3129 16.8551C96.7295 17.0919 97.2172 17.2102 97.7759 17.2102C98.15 17.2102 98.4885 17.1581 98.7915 17.054C99.0946 16.9451 99.3574 16.7865 99.5799 16.5781C99.8024 16.3698 99.9705 16.1117 100.084 15.804L102.485 16.0739C102.333 16.7083 102.044 17.2623 101.618 17.7358C101.197 18.2045 100.657 18.5691 99.9989 18.8295C99.3408 19.0852 98.5879 19.2131 97.7404 19.2131ZM121.794 4.45455V19H119.45L112.597 9.09233H112.476V19H109.841V4.45455H112.199L119.045 14.3693H119.173V4.45455H121.794ZM131.505 14.4119V8.09091H134.076V19H131.583V17.0611H131.469C131.223 17.6719 130.818 18.1714 130.255 18.5597C129.696 18.9479 129.007 19.142 128.188 19.142C127.473 19.142 126.841 18.9834 126.292 18.6662C125.747 18.3442 125.321 17.8778 125.013 17.267C124.705 16.6515 124.551 15.9081 124.551 15.0369V8.09091H127.123V14.6392C127.123 15.3305 127.312 15.8797 127.691 16.2869C128.069 16.6941 128.567 16.8977 129.182 16.8977C129.561 16.8977 129.928 16.8054 130.283 16.6207C130.638 16.4361 130.929 16.1615 131.157 15.7969C131.389 15.4276 131.505 14.9659 131.505 14.4119ZM136.719 19V8.09091H139.177V9.9446H139.305C139.532 9.3196 139.908 8.83191 140.434 8.48153C140.96 8.12642 141.587 7.94886 142.316 7.94886C143.055 7.94886 143.677 8.12879 144.184 8.48864C144.695 8.84375 145.055 9.32907 145.263 9.9446H145.377C145.619 9.33854 146.026 8.85559 146.599 8.49574C147.176 8.13116 147.861 7.94886 148.651 7.94886C149.655 7.94886 150.474 8.2661 151.109 8.90057C151.743 9.53504 152.06 10.4607 152.06 11.6776V19H149.482V12.0753C149.482 11.3982 149.302 10.9034 148.942 10.5909C148.583 10.2737 148.142 10.1151 147.621 10.1151C147.001 10.1151 146.516 10.3092 146.165 10.6974C145.82 11.081 145.647 11.5805 145.647 12.196V19H143.126V11.9688C143.126 11.4053 142.955 10.9555 142.614 10.6193C142.278 10.2831 141.838 10.1151 141.293 10.1151C140.924 10.1151 140.588 10.2098 140.285 10.3991C139.982 10.5838 139.74 10.8466 139.56 11.1875C139.38 11.5237 139.29 11.9167 139.29 12.3665V19H136.719ZM154.782 19V4.45455H157.353V9.89489H157.46C157.592 9.62973 157.779 9.34801 158.021 9.04972C158.262 8.74669 158.589 8.48864 159.001 8.27557C159.413 8.05777 159.939 7.94886 160.578 7.94886C161.421 7.94886 162.181 8.1643 162.858 8.59517C163.539 9.02131 164.079 9.65341 164.477 10.4915C164.879 11.3248 165.081 12.3475 165.081 13.5597C165.081 14.7576 164.884 15.7756 164.491 16.6136C164.098 17.4517 163.563 18.0909 162.886 18.5312C162.209 18.9716 161.442 19.1918 160.585 19.1918C159.96 19.1918 159.441 19.0876 159.029 18.8793C158.618 18.6709 158.286 18.42 158.035 18.1264C157.789 17.8281 157.597 17.5464 157.46 17.2812H157.311V19H154.782ZM157.304 13.5455C157.304 14.2509 157.403 14.8688 157.602 15.3991C157.806 15.9295 158.097 16.3437 158.475 16.642C158.859 16.9356 159.323 17.0824 159.868 17.0824C160.436 17.0824 160.912 16.9309 161.295 16.6278C161.679 16.3201 161.967 15.901 162.162 15.3707C162.36 14.8357 162.46 14.2273 162.46 13.5455C162.46 12.8684 162.363 12.267 162.169 11.7415C161.975 11.2159 161.686 10.804 161.302 10.5057C160.919 10.2074 160.44 10.0582 159.868 10.0582C159.318 10.0582 158.852 10.2027 158.468 10.4915C158.085 10.7803 157.794 11.1851 157.595 11.706C157.401 12.2268 157.304 12.84 157.304 13.5455ZM172.096 19.2131C171.002 19.2131 170.058 18.9858 169.262 18.5312C168.471 18.072 167.863 17.4233 167.437 16.5852C167.011 15.7424 166.798 14.7505 166.798 13.6094C166.798 12.4872 167.011 11.5024 167.437 10.6548C167.868 9.80256 168.469 9.13968 169.241 8.66619C170.013 8.18797 170.919 7.94886 171.961 7.94886C172.633 7.94886 173.268 8.05777 173.864 8.27557C174.466 8.48864 174.996 8.82008 175.455 9.26989C175.919 9.7197 176.284 10.2926 176.549 10.9886C176.814 11.6799 176.947 12.5038 176.947 13.4602V14.2486H168.005V12.5156H174.482C174.478 12.0232 174.371 11.5852 174.163 11.2017C173.954 10.8134 173.663 10.508 173.289 10.2855C172.92 10.063 172.489 9.9517 171.996 9.9517C171.471 9.9517 171.009 10.0795 170.612 10.3352C170.214 10.5862 169.904 10.9176 169.681 11.3295C169.463 11.7367 169.352 12.1842 169.347 12.6719V14.1847C169.347 14.8191 169.463 15.3636 169.695 15.8182C169.927 16.268 170.252 16.6136 170.668 16.8551C171.085 17.0919 171.573 17.2102 172.131 17.2102C172.505 17.2102 172.844 17.1581 173.147 17.054C173.45 16.9451 173.713 16.7865 173.935 16.5781C174.158 16.3698 174.326 16.1117 174.44 15.804L176.84 16.0739C176.689 16.7083 176.4 17.2623 175.974 17.7358C175.552 18.2045 175.013 18.5691 174.354 18.8295C173.696 19.0852 172.943 19.2131 172.096 19.2131ZM179.122 19V8.09091H181.615V9.90909H181.728C181.927 9.27936 182.268 8.79403 182.751 8.45312C183.239 8.10748 183.795 7.93466 184.42 7.93466C184.562 7.93466 184.721 7.94176 184.896 7.95597C185.076 7.96544 185.225 7.98201 185.343 8.00568V10.3707C185.234 10.3329 185.062 10.2997 184.825 10.2713C184.593 10.2382 184.368 10.2216 184.15 10.2216C183.681 10.2216 183.26 10.3234 182.886 10.527C182.517 10.7259 182.225 11.0028 182.012 11.358C181.799 11.7131 181.693 12.1226 181.693 12.5866V19H179.122Z" fill="black"/>
<defs>
<filter id="filter0_f_30_62" x="38" y="35" width="305" height="55" filterUnits="userSpaceOnUse" color-interpolation-filters="sRGB">
<feFlood flood-opacity="0" result="BackgroundImageFix"/>
<feBlend mode="normal" in="SourceGraphic" in2="BackgroundImageFix" result="shape"/>
<feGaussianBlur stdDeviation="2" result="effect1_foregroundBlur_30_62"/>
</filter>
<linearGradient id="paint0_linear_30_62" x1="42" y1="63" x2="109" y2="63" gradientUnits="userSpaceOnUse">
<stop offset="0.836538" stop-color="#C8AAAA"/>
<stop offset="1" stop-color="#C0BABA"/>
</linearGradient>
</defs>
</svg>
