<svg width="250" height="49" viewBox="0 0 250 49" fill="none" xmlns="http://www.w3.org/2000/svg">
<path d="M56.4929 9.18182C56.4929 10.4091 56.2713 11.4697 55.8281 12.3636C55.3849 13.2576 54.777 13.947 54.0043 14.4318C53.2315 14.9167 52.349 15.1591 51.3565 15.1591C50.3641 15.1591 49.4815 14.9167 48.7088 14.4318C47.9361 13.947 47.3281 13.2576 46.8849 12.3636C46.4418 11.4697 46.2202 10.4091 46.2202 9.18182C46.2202 7.95455 46.4418 6.89394 46.8849 6C47.3281 5.10606 47.9361 4.41667 48.7088 3.93182C49.4815 3.44697 50.3641 3.20455 51.3565 3.20455C52.349 3.20455 53.2315 3.44697 54.0043 3.93182C54.777 4.41667 55.3849 5.10606 55.8281 6C56.2713 6.89394 56.4929 7.95455 56.4929 9.18182ZM55.1293 9.18182C55.1293 8.17424 54.9607 7.32386 54.6236 6.63068C54.2902 5.9375 53.8376 5.41288 53.2656 5.05682C52.6974 4.70076 52.0611 4.52273 51.3565 4.52273C50.652 4.52273 50.0137 4.70076 49.4418 5.05682C48.8736 5.41288 48.4209 5.9375 48.0838 6.63068C47.7505 7.32386 47.5838 8.17424 47.5838 9.18182C47.5838 10.1894 47.7505 11.0398 48.0838 11.733C48.4209 12.4261 48.8736 12.9508 49.4418 13.3068C50.0137 13.6629 50.652 13.8409 51.3565 13.8409C52.0611 13.8409 52.6974 13.6629 53.2656 13.3068C53.8376 12.9508 54.2902 12.4261 54.6236 11.733C54.9607 11.0398 55.1293 10.1894 55.1293 9.18182ZM57.7415 4.61364V3.36364H66.4688V4.61364H62.8097V15H61.4006V4.61364H57.7415ZM68.6435 15V3.36364H72.5753C73.4882 3.36364 74.2344 3.52841 74.8139 3.85795C75.3973 4.18371 75.8291 4.625 76.1094 5.18182C76.3897 5.73864 76.5298 6.35985 76.5298 7.04545C76.5298 7.73106 76.3897 8.35417 76.1094 8.91477C75.8329 9.47538 75.4048 9.92235 74.8253 10.2557C74.2457 10.5852 73.5033 10.75 72.598 10.75H69.7798V9.5H72.5526C73.1776 9.5 73.6795 9.39205 74.0582 9.17614C74.437 8.96023 74.7116 8.66856 74.8821 8.30114C75.0563 7.92992 75.1435 7.51136 75.1435 7.04545C75.1435 6.57955 75.0563 6.16288 74.8821 5.79545C74.7116 5.42803 74.4351 5.14015 74.0526 4.93182C73.67 4.7197 73.1624 4.61364 72.5298 4.61364H70.0526V15H68.6435ZM85.0952 15L82.4361 6.27273H83.8452L85.7315 12.9545H85.8224L87.6861 6.27273H89.1179L90.9588 12.9318H91.0497L92.9361 6.27273H94.3452L91.6861 15H90.3679L88.4588 8.29545H88.3224L86.4134 15H85.0952ZM96.1179 15V6.27273H97.4588V15H96.1179ZM96.7997 4.81818C96.5384 4.81818 96.313 4.72917 96.1236 4.55114C95.938 4.37311 95.8452 4.15909 95.8452 3.90909C95.8452 3.65909 95.938 3.44508 96.1236 3.26705C96.313 3.08902 96.5384 3 96.7997 3C97.0611 3 97.2846 3.08902 97.4702 3.26705C97.6596 3.44508 97.7543 3.65909 97.7543 3.90909C97.7543 4.15909 97.6596 4.37311 97.4702 4.55114C97.2846 4.72917 97.0611 4.81818 96.7997 4.81818ZM101.256 3.36364V15H99.9148V3.36364H101.256ZM105.053 3.36364V15H103.712V3.36364H105.053ZM112.19 15V3.36364H113.531V7.65909H113.645C113.743 7.50758 113.88 7.31439 114.054 7.07955C114.232 6.84091 114.486 6.62879 114.815 6.44318C115.149 6.25379 115.599 6.15909 116.168 6.15909C116.902 6.15909 117.55 6.3428 118.111 6.71023C118.671 7.07765 119.109 7.59848 119.423 8.27273C119.738 8.94697 119.895 9.74242 119.895 10.6591C119.895 11.5833 119.738 12.3845 119.423 13.0625C119.109 13.7367 118.673 14.2595 118.116 14.6307C117.56 14.9981 116.918 15.1818 116.19 15.1818C115.63 15.1818 115.181 15.089 114.844 14.9034C114.507 14.714 114.247 14.5 114.065 14.2614C113.884 14.0189 113.743 13.8182 113.645 13.6591H113.486V15H112.19ZM113.509 10.6364C113.509 11.2955 113.605 11.8769 113.798 12.3807C113.991 12.8807 114.274 13.2727 114.645 13.5568C115.016 13.8371 115.471 13.9773 116.009 13.9773C116.569 13.9773 117.037 13.8295 117.412 13.5341C117.791 13.2348 118.075 12.8333 118.264 12.3295C118.457 11.822 118.554 11.2576 118.554 10.6364C118.554 10.0227 118.459 9.4697 118.27 8.97727C118.084 8.48106 117.802 8.08902 117.423 7.80114C117.048 7.50947 116.577 7.36364 116.009 7.36364C115.463 7.36364 115.005 7.50189 114.634 7.77841C114.262 8.05114 113.982 8.43371 113.793 8.92614C113.603 9.41477 113.509 9.98485 113.509 10.6364ZM125.605 15.1818C124.764 15.1818 124.039 14.9962 123.429 14.625C122.823 14.25 122.355 13.7273 122.026 13.0568C121.7 12.3826 121.537 11.5985 121.537 10.7045C121.537 9.81061 121.7 9.02273 122.026 8.34091C122.355 7.6553 122.813 7.12121 123.401 6.73864C123.991 6.35227 124.681 6.15909 125.469 6.15909C125.923 6.15909 126.372 6.23485 126.815 6.38636C127.259 6.53788 127.662 6.78409 128.026 7.125C128.389 7.46212 128.679 7.90909 128.895 8.46591C129.111 9.02273 129.219 9.70833 129.219 10.5227V11.0909H122.491V9.93182H127.855C127.855 9.43939 127.757 9 127.56 8.61364C127.366 8.22727 127.09 7.92235 126.73 7.69886C126.374 7.47538 125.954 7.36364 125.469 7.36364C124.935 7.36364 124.473 7.49621 124.082 7.76136C123.696 8.02273 123.399 8.36364 123.19 8.78409C122.982 9.20455 122.878 9.6553 122.878 10.1364V10.9091C122.878 11.5682 122.991 12.1269 123.219 12.5852C123.45 13.0398 123.77 13.3864 124.179 13.625C124.588 13.8598 125.063 13.9773 125.605 13.9773C125.957 13.9773 126.276 13.928 126.56 13.8295C126.848 13.7273 127.096 13.5758 127.304 13.375C127.512 13.1705 127.673 12.9167 127.787 12.6136L129.082 12.9773C128.946 13.4167 128.717 13.803 128.395 14.1364C128.073 14.4659 127.675 14.7235 127.202 14.9091C126.728 15.0909 126.196 15.1818 125.605 15.1818ZM141.94 8.22727L140.736 8.56818C140.66 8.36742 140.548 8.17235 140.401 7.98295C140.257 7.78977 140.06 7.63068 139.81 7.50568C139.56 7.38068 139.24 7.31818 138.849 7.31818C138.315 7.31818 137.87 7.44129 137.514 7.6875C137.162 7.92992 136.986 8.23864 136.986 8.61364C136.986 8.94697 137.107 9.21023 137.349 9.40341C137.592 9.59659 137.971 9.75758 138.486 9.88636L139.781 10.2045C140.562 10.3939 141.143 10.6837 141.526 11.0739C141.908 11.4602 142.099 11.9583 142.099 12.5682C142.099 13.0682 141.955 13.5152 141.668 13.9091C141.384 14.303 140.986 14.6136 140.474 14.8409C139.963 15.0682 139.368 15.1818 138.69 15.1818C137.8 15.1818 137.063 14.9886 136.48 14.6023C135.897 14.2159 135.527 13.6515 135.372 12.9091L136.645 12.5909C136.766 13.0606 136.995 13.4129 137.332 13.6477C137.673 13.8826 138.118 14 138.668 14C139.293 14 139.789 13.8674 140.156 13.6023C140.527 13.3333 140.713 13.0114 140.713 12.6364C140.713 12.3333 140.607 12.0795 140.395 11.875C140.183 11.6667 139.857 11.5114 139.418 11.4091L137.963 11.0682C137.164 10.8788 136.577 10.5852 136.202 10.1875C135.83 9.78598 135.645 9.28409 135.645 8.68182C135.645 8.18939 135.783 7.75379 136.06 7.375C136.34 6.99621 136.721 6.69886 137.202 6.48295C137.687 6.26705 138.236 6.15909 138.849 6.15909C139.713 6.15909 140.391 6.34848 140.884 6.72727C141.38 7.10606 141.732 7.60606 141.94 8.22727ZM147.777 15.1818C146.936 15.1818 146.211 14.9962 145.601 14.625C144.995 14.25 144.527 13.7273 144.197 13.0568C143.872 12.3826 143.709 11.5985 143.709 10.7045C143.709 9.81061 143.872 9.02273 144.197 8.34091C144.527 7.6553 144.985 7.12121 145.572 6.73864C146.163 6.35227 146.853 6.15909 147.641 6.15909C148.095 6.15909 148.544 6.23485 148.987 6.38636C149.43 6.53788 149.834 6.78409 150.197 7.125C150.561 7.46212 150.851 7.90909 151.067 8.46591C151.283 9.02273 151.391 9.70833 151.391 10.5227V11.0909H144.663V9.93182H150.027C150.027 9.43939 149.929 9 149.732 8.61364C149.538 8.22727 149.262 7.92235 148.902 7.69886C148.546 7.47538 148.125 7.36364 147.641 7.36364C147.107 7.36364 146.644 7.49621 146.254 7.76136C145.868 8.02273 145.571 8.36364 145.362 8.78409C145.154 9.20455 145.05 9.6553 145.05 10.1364V10.9091C145.05 11.5682 145.163 12.1269 145.391 12.5852C145.622 13.0398 145.942 13.3864 146.351 13.625C146.76 13.8598 147.235 13.9773 147.777 13.9773C148.129 13.9773 148.447 13.928 148.732 13.8295C149.019 13.7273 149.268 13.5758 149.476 13.375C149.684 13.1705 149.845 12.9167 149.959 12.6136L151.254 12.9773C151.118 13.4167 150.889 13.803 150.567 14.1364C150.245 14.4659 149.847 14.7235 149.374 14.9091C148.9 15.0909 148.368 15.1818 147.777 15.1818ZM154.771 9.75V15H153.43V6.27273H154.726V7.63636H154.839C155.044 7.19318 155.355 6.83712 155.771 6.56818C156.188 6.29545 156.726 6.15909 157.385 6.15909C157.976 6.15909 158.493 6.2803 158.936 6.52273C159.379 6.76136 159.724 7.125 159.97 7.61364C160.216 8.09848 160.339 8.71212 160.339 9.45455V15H158.999V9.54545C158.999 8.85985 158.821 8.32576 158.464 7.94318C158.108 7.55682 157.62 7.36364 156.999 7.36364C156.571 7.36364 156.188 7.45644 155.851 7.64205C155.518 7.82765 155.254 8.09848 155.061 8.45455C154.868 8.81061 154.771 9.24242 154.771 9.75ZM166.585 6.27273V7.40909H162.062V6.27273H166.585ZM163.381 4.18182H164.722V12.5C164.722 12.8788 164.777 13.1629 164.886 13.3523C165 13.5379 165.144 13.6629 165.318 13.7273C165.496 13.7879 165.684 13.8182 165.881 13.8182C166.028 13.8182 166.15 13.8106 166.244 13.7955C166.339 13.7765 166.415 13.7614 166.472 13.75L166.744 14.9545C166.653 14.9886 166.527 15.0227 166.364 15.0568C166.201 15.0947 165.994 15.1136 165.744 15.1136C165.366 15.1136 164.994 15.0322 164.631 14.8693C164.271 14.7064 163.972 14.4583 163.733 14.125C163.498 13.7917 163.381 13.3712 163.381 12.8636V4.18182ZM180.239 6.27273L177.011 15H175.648L172.42 6.27273H173.875L176.284 13.2273H176.375L178.784 6.27273H180.239ZM182.009 15V6.27273H183.349V15H182.009ZM182.69 4.81818C182.429 4.81818 182.204 4.72917 182.014 4.55114C181.829 4.37311 181.736 4.15909 181.736 3.90909C181.736 3.65909 181.829 3.44508 182.014 3.26705C182.204 3.08902 182.429 3 182.69 3C182.952 3 183.175 3.08902 183.361 3.26705C183.55 3.44508 183.645 3.65909 183.645 3.90909C183.645 4.15909 183.55 4.37311 183.361 4.55114C183.175 4.72917 182.952 4.81818 182.69 4.81818ZM188.374 15.2045C187.821 15.2045 187.319 15.1004 186.868 14.892C186.417 14.6799 186.059 14.375 185.794 13.9773C185.529 13.5758 185.396 13.0909 185.396 12.5227C185.396 12.0227 185.495 11.6174 185.692 11.3068C185.889 10.9924 186.152 10.7462 186.482 10.5682C186.811 10.3902 187.175 10.2576 187.572 10.1705C187.974 10.0795 188.377 10.0076 188.783 9.95455C189.313 9.88636 189.743 9.83523 190.072 9.80114C190.406 9.76326 190.648 9.70076 190.8 9.61364C190.955 9.52652 191.033 9.375 191.033 9.15909V9.11364C191.033 8.55303 190.879 8.11742 190.572 7.80682C190.269 7.49621 189.809 7.34091 189.192 7.34091C188.552 7.34091 188.05 7.48106 187.686 7.76136C187.322 8.04167 187.067 8.34091 186.919 8.65909L185.646 8.20455C185.874 7.67424 186.177 7.26136 186.555 6.96591C186.938 6.66667 187.355 6.45833 187.805 6.34091C188.26 6.2197 188.707 6.15909 189.146 6.15909C189.427 6.15909 189.749 6.19318 190.112 6.26136C190.48 6.32576 190.834 6.46023 191.175 6.66477C191.519 6.86932 191.805 7.17803 192.033 7.59091C192.26 8.00379 192.374 8.55682 192.374 9.25V15H191.033V13.8182H190.964C190.874 14.0076 190.722 14.2102 190.51 14.4261C190.298 14.642 190.016 14.8258 189.663 14.9773C189.311 15.1288 188.881 15.2045 188.374 15.2045ZM188.578 14C189.108 14 189.555 13.8958 189.919 13.6875C190.286 13.4792 190.563 13.2102 190.749 12.8807C190.938 12.5511 191.033 12.2045 191.033 11.8409V10.6136C190.976 10.6818 190.851 10.7443 190.658 10.8011C190.468 10.8542 190.249 10.9015 189.999 10.9432C189.752 10.9811 189.512 11.0152 189.277 11.0455C189.046 11.072 188.858 11.0947 188.714 11.1136C188.366 11.1591 188.04 11.233 187.737 11.3352C187.438 11.4337 187.196 11.5833 187.01 11.7841C186.828 11.9811 186.737 12.25 186.737 12.5909C186.737 13.0568 186.91 13.4091 187.254 13.6477C187.603 13.8826 188.044 14 188.578 14ZM205.866 6.27273C205.798 5.69697 205.522 5.25 205.037 4.93182C204.552 4.61364 203.957 4.45455 203.253 4.45455C202.738 4.45455 202.287 4.53788 201.901 4.70455C201.518 4.87121 201.219 5.10038 201.003 5.39205C200.791 5.68371 200.685 6.01515 200.685 6.38636C200.685 6.69697 200.759 6.96401 200.906 7.1875C201.058 7.4072 201.251 7.59091 201.486 7.73864C201.721 7.88258 201.967 8.00189 202.224 8.09659C202.482 8.1875 202.719 8.26136 202.935 8.31818L204.116 8.63636C204.42 8.71591 204.757 8.82576 205.128 8.96591C205.503 9.10606 205.861 9.29735 206.202 9.53977C206.546 9.77841 206.83 10.0852 207.054 10.4602C207.277 10.8352 207.389 11.2955 207.389 11.8409C207.389 12.4697 207.224 13.0379 206.895 13.5455C206.569 14.053 206.092 14.4564 205.463 14.7557C204.838 15.0549 204.079 15.2045 203.185 15.2045C202.351 15.2045 201.63 15.0701 201.02 14.8011C200.414 14.5322 199.937 14.1572 199.588 13.6761C199.243 13.1951 199.048 12.6364 199.003 12H200.457C200.495 12.4394 200.643 12.803 200.901 13.0909C201.162 13.375 201.491 13.5871 201.889 13.7273C202.291 13.8636 202.723 13.9318 203.185 13.9318C203.723 13.9318 204.205 13.8447 204.634 13.6705C205.062 13.4924 205.401 13.2462 205.651 12.9318C205.901 12.6136 206.026 12.2424 206.026 11.8182C206.026 11.4318 205.918 11.1174 205.702 10.875C205.486 10.6326 205.202 10.4356 204.849 10.2841C204.497 10.1326 204.116 10 203.707 9.88636L202.276 9.47727C201.366 9.21591 200.647 8.8428 200.116 8.35795C199.586 7.87311 199.321 7.23864 199.321 6.45455C199.321 5.80303 199.497 5.23485 199.849 4.75C200.205 4.26136 200.683 3.88258 201.281 3.61364C201.884 3.34091 202.556 3.20455 203.298 3.20455C204.048 3.20455 204.715 3.33901 205.298 3.60795C205.882 3.87311 206.344 4.23674 206.685 4.69886C207.029 5.16098 207.211 5.68561 207.23 6.27273H205.866ZM209.706 3.36364H211.388L215.342 13.0227H215.479L219.433 3.36364H221.115V15H219.797V6.15909H219.683L216.047 15H214.774L211.138 6.15909H211.024V15H209.706V3.36364ZM230.304 6.27273C230.236 5.69697 229.959 5.25 229.474 4.93182C228.99 4.61364 228.395 4.45455 227.69 4.45455C227.175 4.45455 226.724 4.53788 226.338 4.70455C225.955 4.87121 225.656 5.10038 225.44 5.39205C225.228 5.68371 225.122 6.01515 225.122 6.38636C225.122 6.69697 225.196 6.96401 225.344 7.1875C225.495 7.4072 225.688 7.59091 225.923 7.73864C226.158 7.88258 226.404 8.00189 226.662 8.09659C226.92 8.1875 227.156 8.26136 227.372 8.31818L228.554 8.63636C228.857 8.71591 229.194 8.82576 229.565 8.96591C229.94 9.10606 230.298 9.29735 230.639 9.53977C230.984 9.77841 231.268 10.0852 231.491 10.4602C231.715 10.8352 231.827 11.2955 231.827 11.8409C231.827 12.4697 231.662 13.0379 231.332 13.5455C231.007 14.053 230.529 14.4564 229.901 14.7557C229.276 15.0549 228.516 15.2045 227.622 15.2045C226.789 15.2045 226.067 15.0701 225.457 14.8011C224.851 14.5322 224.374 14.1572 224.026 13.6761C223.681 13.1951 223.486 12.6364 223.44 12H224.895C224.933 12.4394 225.08 12.803 225.338 13.0909C225.599 13.375 225.929 13.5871 226.327 13.7273C226.728 13.8636 227.16 13.9318 227.622 13.9318C228.16 13.9318 228.643 13.8447 229.071 13.6705C229.499 13.4924 229.838 13.2462 230.088 12.9318C230.338 12.6136 230.463 12.2424 230.463 11.8182C230.463 11.4318 230.355 11.1174 230.139 10.875C229.923 10.6326 229.639 10.4356 229.287 10.2841C228.935 10.1326 228.554 10 228.145 9.88636L226.713 9.47727C225.804 9.21591 225.084 8.8428 224.554 8.35795C224.024 7.87311 223.759 7.23864 223.759 6.45455C223.759 5.80303 223.935 5.23485 224.287 4.75C224.643 4.26136 225.12 3.88258 225.719 3.61364C226.321 3.34091 226.993 3.20455 227.736 3.20455C228.486 3.20455 229.152 3.33901 229.736 3.60795C230.319 3.87311 230.781 4.23674 231.122 4.69886C231.467 5.16098 231.649 5.68561 231.668 6.27273H230.304Z" fill="#110000" fill-opacity="0.75"/>
<path d="M55.4723 30.3636V42H54.1087L47.7678 32.8636H47.6541V42H46.245V30.3636H47.6087L53.9723 39.5227H54.0859V30.3636H55.4723ZM61.6555 42.1818C60.8677 42.1818 60.1764 41.9943 59.5817 41.6193C58.9908 41.2443 58.5286 40.7197 58.1953 40.0455C57.8658 39.3712 57.701 38.5833 57.701 37.6818C57.701 36.7727 57.8658 35.9792 58.1953 35.3011C58.5286 34.6231 58.9908 34.0966 59.5817 33.7216C60.1764 33.3466 60.8677 33.1591 61.6555 33.1591C62.4434 33.1591 63.1328 33.3466 63.7237 33.7216C64.3184 34.0966 64.7805 34.6231 65.1101 35.3011C65.4434 35.9792 65.6101 36.7727 65.6101 37.6818C65.6101 38.5833 65.4434 39.3712 65.1101 40.0455C64.7805 40.7197 64.3184 41.2443 63.7237 41.6193C63.1328 41.9943 62.4434 42.1818 61.6555 42.1818ZM61.6555 40.9773C62.254 40.9773 62.7464 40.8239 63.1328 40.517C63.5192 40.2102 63.8052 39.8068 63.9908 39.3068C64.1764 38.8068 64.2692 38.2652 64.2692 37.6818C64.2692 37.0985 64.1764 36.5549 63.9908 36.0511C63.8052 35.5473 63.5192 35.1402 63.1328 34.8295C62.7464 34.5189 62.254 34.3636 61.6555 34.3636C61.0571 34.3636 60.5646 34.5189 60.1783 34.8295C59.7919 35.1402 59.5059 35.5473 59.3203 36.0511C59.1347 36.5549 59.0419 37.0985 59.0419 37.6818C59.0419 38.2652 59.1347 38.8068 59.3203 39.3068C59.5059 39.8068 59.7919 40.2102 60.1783 40.517C60.5646 40.8239 61.0571 40.9773 61.6555 40.9773ZM75.7024 42.1818C74.8842 42.1818 74.1797 41.9886 73.5888 41.6023C72.9979 41.2159 72.5433 40.6837 72.2251 40.0057C71.907 39.3277 71.7479 38.553 71.7479 37.6818C71.7479 36.7955 71.9107 36.0133 72.2365 35.3352C72.5661 34.6534 73.0244 34.1212 73.6115 33.7386C74.2024 33.3523 74.8918 33.1591 75.6797 33.1591C76.2933 33.1591 76.8464 33.2727 77.3388 33.5C77.8312 33.7273 78.2346 34.0455 78.549 34.4545C78.8634 34.8636 79.0585 35.3409 79.1342 35.8864H77.7933C77.6911 35.4886 77.4638 35.1364 77.1115 34.8295C76.763 34.5189 76.2933 34.3636 75.7024 34.3636C75.1797 34.3636 74.7214 34.5 74.3274 34.7727C73.9373 35.0417 73.6323 35.4223 73.4126 35.9148C73.1967 36.4034 73.0888 36.9773 73.0888 37.6364C73.0888 38.3106 73.1948 38.8977 73.407 39.3977C73.6229 39.8977 73.9259 40.286 74.3161 40.5625C74.71 40.839 75.1721 40.9773 75.7024 40.9773C76.0509 40.9773 76.3672 40.9167 76.6513 40.7955C76.9354 40.6742 77.1759 40.5 77.3729 40.2727C77.5698 40.0455 77.71 39.7727 77.7933 39.4545H79.1342C79.0585 39.9697 78.871 40.4337 78.5717 40.8466C78.2763 41.2557 77.8842 41.5814 77.3956 41.8239C76.9107 42.0625 76.3464 42.1818 75.7024 42.1818ZM82.4354 36.75V42H81.0945V30.3636H82.4354V34.6364H82.549C82.7536 34.1856 83.0604 33.8277 83.4695 33.5625C83.8823 33.2936 84.4316 33.1591 85.1172 33.1591C85.7119 33.1591 86.2327 33.2784 86.6797 33.517C87.1267 33.7519 87.4732 34.1136 87.7195 34.6023C87.9695 35.0871 88.0945 35.7045 88.0945 36.4545V42H86.7536V36.5455C86.7536 35.8523 86.5736 35.3163 86.2138 34.9375C85.8577 34.5549 85.3634 34.3636 84.7308 34.3636C84.2914 34.3636 83.8975 34.4564 83.549 34.642C83.2043 34.8277 82.9316 35.0985 82.7308 35.4545C82.5339 35.8106 82.4354 36.2424 82.4354 36.75ZM93.1158 42.2045C92.5627 42.2045 92.0608 42.1004 91.6101 41.892C91.1593 41.6799 90.8014 41.375 90.5362 40.9773C90.2711 40.5758 90.1385 40.0909 90.1385 39.5227C90.1385 39.0227 90.237 38.6174 90.4339 38.3068C90.6309 37.9924 90.8942 37.7462 91.2237 37.5682C91.5533 37.3902 91.9169 37.2576 92.3146 37.1705C92.7161 37.0795 93.1196 37.0076 93.5249 36.9545C94.0552 36.8864 94.4851 36.8352 94.8146 36.8011C95.148 36.7633 95.3904 36.7008 95.5419 36.6136C95.6972 36.5265 95.7749 36.375 95.7749 36.1591V36.1136C95.7749 35.553 95.6214 35.1174 95.3146 34.8068C95.0116 34.4962 94.5514 34.3409 93.9339 34.3409C93.2938 34.3409 92.7919 34.4811 92.4283 34.7614C92.0646 35.0417 91.8089 35.3409 91.6612 35.6591L90.3885 35.2045C90.6158 34.6742 90.9188 34.2614 91.2976 33.9659C91.6802 33.6667 92.0968 33.4583 92.5476 33.3409C93.0021 33.2197 93.4491 33.1591 93.8885 33.1591C94.1688 33.1591 94.4908 33.1932 94.8544 33.2614C95.2218 33.3258 95.576 33.4602 95.9169 33.6648C96.2616 33.8693 96.5476 34.178 96.7749 34.5909C97.0021 35.0038 97.1158 35.5568 97.1158 36.25V42H95.7749V40.8182H95.7067C95.6158 41.0076 95.4643 41.2102 95.2521 41.4261C95.04 41.642 94.7578 41.8258 94.4055 41.9773C94.0533 42.1288 93.6233 42.2045 93.1158 42.2045ZM93.3203 41C93.8506 41 94.2976 40.8958 94.6612 40.6875C95.0286 40.4792 95.3052 40.2102 95.4908 39.8807C95.6802 39.5511 95.7749 39.2045 95.7749 38.8409V37.6136C95.718 37.6818 95.593 37.7443 95.3999 37.8011C95.2105 37.8542 94.9908 37.9015 94.7408 37.9432C94.4946 37.9811 94.254 38.0152 94.0192 38.0455C93.7881 38.072 93.6006 38.0947 93.4567 38.1136C93.1082 38.1591 92.7824 38.233 92.4794 38.3352C92.1802 38.4337 91.9377 38.5833 91.7521 38.7841C91.5703 38.9811 91.4794 39.25 91.4794 39.5909C91.4794 40.0568 91.6518 40.4091 91.9964 40.6477C92.3449 40.8826 92.7862 41 93.3203 41ZM99.5632 42V33.2727H100.859V34.5909H100.95C101.109 34.1591 101.397 33.8087 101.813 33.5398C102.23 33.2708 102.7 33.1364 103.222 33.1364C103.321 33.1364 103.444 33.1383 103.592 33.142C103.739 33.1458 103.851 33.1515 103.927 33.1591V34.5227C103.881 34.5114 103.777 34.4943 103.614 34.4716C103.455 34.4451 103.287 34.4318 103.109 34.4318C102.684 34.4318 102.306 34.5208 101.972 34.6989C101.643 34.8731 101.381 35.1155 101.188 35.4261C100.999 35.733 100.904 36.0833 100.904 36.4773V42H99.5632ZM108.773 45.4545C108.126 45.4545 107.569 45.3712 107.103 45.2045C106.637 45.0417 106.249 44.8258 105.938 44.5568C105.631 44.2917 105.387 44.0076 105.205 43.7045L106.273 42.9545C106.395 43.1136 106.548 43.2955 106.734 43.5C106.919 43.7083 107.173 43.8883 107.495 44.0398C107.821 44.1951 108.247 44.2727 108.773 44.2727C109.478 44.2727 110.059 44.1023 110.518 43.7614C110.976 43.4205 111.205 42.8864 111.205 42.1591V40.3864H111.092C110.993 40.5455 110.853 40.7424 110.671 40.9773C110.493 41.2083 110.236 41.4148 109.898 41.5966C109.565 41.7746 109.114 41.8636 108.546 41.8636C107.842 41.8636 107.209 41.697 106.648 41.3636C106.092 41.0303 105.65 40.5455 105.325 39.9091C105.003 39.2727 104.842 38.5 104.842 37.5909C104.842 36.697 104.999 35.9186 105.313 35.2557C105.628 34.589 106.065 34.0739 106.626 33.7102C107.186 33.3428 107.834 33.1591 108.569 33.1591C109.137 33.1591 109.588 33.2538 109.921 33.4432C110.258 33.6288 110.516 33.8409 110.694 34.0795C110.876 34.3144 111.016 34.5076 111.114 34.6591H111.251V33.2727H112.546V42.25C112.546 43 112.376 43.6098 112.035 44.0795C111.698 44.553 111.243 44.8996 110.671 45.1193C110.103 45.3428 109.47 45.4545 108.773 45.4545ZM108.728 40.6591C109.266 40.6591 109.72 40.536 110.092 40.2898C110.463 40.0436 110.745 39.6894 110.938 39.2273C111.131 38.7652 111.228 38.2121 111.228 37.5682C111.228 36.9394 111.133 36.3845 110.944 35.9034C110.754 35.4223 110.474 35.0455 110.103 34.7727C109.732 34.5 109.273 34.3636 108.728 34.3636C108.16 34.3636 107.686 34.5076 107.308 34.7955C106.933 35.0833 106.65 35.4697 106.461 35.9545C106.275 36.4394 106.183 36.9773 106.183 37.5682C106.183 38.1742 106.277 38.7102 106.467 39.1761C106.66 39.6383 106.944 40.0019 107.319 40.267C107.698 40.5284 108.167 40.6591 108.728 40.6591ZM118.66 42.1818C117.819 42.1818 117.094 41.9962 116.484 41.625C115.878 41.25 115.41 40.7273 115.08 40.0568C114.754 39.3826 114.592 38.5985 114.592 37.7045C114.592 36.8106 114.754 36.0227 115.08 35.3409C115.41 34.6553 115.868 34.1212 116.455 33.7386C117.046 33.3523 117.736 33.1591 118.523 33.1591C118.978 33.1591 119.427 33.2348 119.87 33.3864C120.313 33.5379 120.717 33.7841 121.08 34.125C121.444 34.4621 121.734 34.9091 121.95 35.4659C122.165 36.0227 122.273 36.7083 122.273 37.5227V38.0909H115.546V36.9318H120.91C120.91 36.4394 120.811 36 120.614 35.6136C120.421 35.2273 120.145 34.9223 119.785 34.6989C119.429 34.4754 119.008 34.3636 118.523 34.3636C117.989 34.3636 117.527 34.4962 117.137 34.7614C116.751 35.0227 116.453 35.3636 116.245 35.7841C116.037 36.2045 115.933 36.6553 115.933 37.1364V37.9091C115.933 38.5682 116.046 39.1269 116.273 39.5852C116.504 40.0398 116.825 40.3864 117.234 40.625C117.643 40.8598 118.118 40.9773 118.66 40.9773C119.012 40.9773 119.33 40.928 119.614 40.8295C119.902 40.7273 120.15 40.5758 120.359 40.375C120.567 40.1705 120.728 39.9167 120.842 39.6136L122.137 39.9773C122.001 40.4167 121.772 40.803 121.45 41.1364C121.128 41.4659 120.73 41.7235 120.256 41.9091C119.783 42.0909 119.251 42.1818 118.66 42.1818ZM130.495 35.2273L129.29 35.5682C129.215 35.3674 129.103 35.1723 128.955 34.983C128.811 34.7898 128.614 34.6307 128.364 34.5057C128.114 34.3807 127.794 34.3182 127.404 34.3182C126.87 34.3182 126.425 34.4413 126.069 34.6875C125.717 34.9299 125.54 35.2386 125.54 35.6136C125.54 35.947 125.662 36.2102 125.904 36.4034C126.147 36.5966 126.525 36.7576 127.04 36.8864L128.336 37.2045C129.116 37.3939 129.698 37.6837 130.08 38.0739C130.463 38.4602 130.654 38.9583 130.654 39.5682C130.654 40.0682 130.51 40.5152 130.222 40.9091C129.938 41.303 129.54 41.6136 129.029 41.8409C128.518 42.0682 127.923 42.1818 127.245 42.1818C126.355 42.1818 125.618 41.9886 125.035 41.6023C124.451 41.2159 124.082 40.6515 123.927 39.9091L125.2 39.5909C125.321 40.0606 125.55 40.4129 125.887 40.6477C126.228 40.8826 126.673 41 127.222 41C127.847 41 128.344 40.8674 128.711 40.6023C129.082 40.3333 129.268 40.0114 129.268 39.6364C129.268 39.3333 129.162 39.0795 128.95 38.875C128.737 38.6667 128.412 38.5114 127.972 38.4091L126.518 38.0682C125.719 37.8788 125.131 37.5852 124.756 37.1875C124.385 36.786 124.2 36.2841 124.2 35.6818C124.2 35.1894 124.338 34.7538 124.614 34.375C124.895 33.9962 125.275 33.6989 125.756 33.483C126.241 33.267 126.79 33.1591 127.404 33.1591C128.268 33.1591 128.946 33.3485 129.438 33.7273C129.934 34.1061 130.287 34.6061 130.495 35.2273ZM139.741 42.2045C139.188 42.2045 138.686 42.1004 138.235 41.892C137.784 41.6799 137.426 41.375 137.161 40.9773C136.896 40.5758 136.763 40.0909 136.763 39.5227C136.763 39.0227 136.862 38.6174 137.059 38.3068C137.256 37.9924 137.519 37.7462 137.849 37.5682C138.178 37.3902 138.542 37.2576 138.94 37.1705C139.341 37.0795 139.745 37.0076 140.15 36.9545C140.68 36.8864 141.11 36.8352 141.44 36.8011C141.773 36.7633 142.015 36.7008 142.167 36.6136C142.322 36.5265 142.4 36.375 142.4 36.1591V36.1136C142.4 35.553 142.246 35.1174 141.94 34.8068C141.637 34.4962 141.176 34.3409 140.559 34.3409C139.919 34.3409 139.417 34.4811 139.053 34.7614C138.69 35.0417 138.434 35.3409 138.286 35.6591L137.013 35.2045C137.241 34.6742 137.544 34.2614 137.923 33.9659C138.305 33.6667 138.722 33.4583 139.173 33.3409C139.627 33.2197 140.074 33.1591 140.513 33.1591C140.794 33.1591 141.116 33.1932 141.479 33.2614C141.847 33.3258 142.201 33.4602 142.542 33.6648C142.887 33.8693 143.173 34.178 143.4 34.5909C143.627 35.0038 143.741 35.5568 143.741 36.25V42H142.4V40.8182H142.332C142.241 41.0076 142.089 41.2102 141.877 41.4261C141.665 41.642 141.383 41.8258 141.031 41.9773C140.678 42.1288 140.248 42.2045 139.741 42.2045ZM139.945 41C140.476 41 140.923 40.8958 141.286 40.6875C141.654 40.4792 141.93 40.2102 142.116 39.8807C142.305 39.5511 142.4 39.2045 142.4 38.8409V37.6136C142.343 37.6818 142.218 37.7443 142.025 37.8011C141.835 37.8542 141.616 37.9015 141.366 37.9432C141.12 37.9811 140.879 38.0152 140.644 38.0455C140.413 38.072 140.226 38.0947 140.082 38.1136C139.733 38.1591 139.407 38.233 139.104 38.3352C138.805 38.4337 138.563 38.5833 138.377 38.7841C138.195 38.9811 138.104 39.25 138.104 39.5909C138.104 40.0568 138.277 40.4091 138.621 40.6477C138.97 40.8826 139.411 41 139.945 41ZM146.188 45.2727V33.2727H147.484V34.6591H147.643C147.741 34.5076 147.878 34.3144 148.052 34.0795C148.23 33.8409 148.484 33.6288 148.813 33.4432C149.147 33.2538 149.597 33.1591 150.165 33.1591C150.9 33.1591 151.548 33.3428 152.109 33.7102C152.669 34.0777 153.107 34.5985 153.421 35.2727C153.736 35.947 153.893 36.7424 153.893 37.6591C153.893 38.5833 153.736 39.3845 153.421 40.0625C153.107 40.7367 152.671 41.2595 152.114 41.6307C151.558 41.9981 150.915 42.1818 150.188 42.1818C149.628 42.1818 149.179 42.089 148.842 41.9034C148.504 41.714 148.245 41.5 148.063 41.2614C147.881 41.0189 147.741 40.8182 147.643 40.6591H147.529V45.2727H146.188ZM147.506 37.6364C147.506 38.2955 147.603 38.8769 147.796 39.3807C147.989 39.8807 148.272 40.2727 148.643 40.5568C149.014 40.8371 149.469 40.9773 150.006 40.9773C150.567 40.9773 151.035 40.8295 151.41 40.5341C151.789 40.2348 152.073 39.8333 152.262 39.3295C152.455 38.822 152.552 38.2576 152.552 37.6364C152.552 37.0227 152.457 36.4697 152.268 35.9773C152.082 35.4811 151.8 35.089 151.421 34.8011C151.046 34.5095 150.575 34.3636 150.006 34.3636C149.461 34.3636 149.003 34.5019 148.631 34.7784C148.26 35.0511 147.98 35.4337 147.79 35.9261C147.601 36.4148 147.506 36.9848 147.506 37.6364ZM155.938 45.2727V33.2727H157.234V34.6591H157.393C157.491 34.5076 157.628 34.3144 157.802 34.0795C157.98 33.8409 158.234 33.6288 158.563 33.4432C158.897 33.2538 159.347 33.1591 159.915 33.1591C160.65 33.1591 161.298 33.3428 161.859 33.7102C162.419 34.0777 162.857 34.5985 163.171 35.2727C163.486 35.947 163.643 36.7424 163.643 37.6591C163.643 38.5833 163.486 39.3845 163.171 40.0625C162.857 40.7367 162.421 41.2595 161.864 41.6307C161.308 41.9981 160.665 42.1818 159.938 42.1818C159.378 42.1818 158.929 42.089 158.592 41.9034C158.254 41.714 157.995 41.5 157.813 41.2614C157.631 41.0189 157.491 40.8182 157.393 40.6591H157.279V45.2727H155.938ZM157.256 37.6364C157.256 38.2955 157.353 38.8769 157.546 39.3807C157.739 39.8807 158.022 40.2727 158.393 40.5568C158.764 40.8371 159.219 40.9773 159.756 40.9773C160.317 40.9773 160.785 40.8295 161.16 40.5341C161.539 40.2348 161.823 39.8333 162.012 39.3295C162.205 38.822 162.302 38.2576 162.302 37.6364C162.302 37.0227 162.207 36.4697 162.018 35.9773C161.832 35.4811 161.55 35.089 161.171 34.8011C160.796 34.5095 160.325 34.3636 159.756 34.3636C159.211 34.3636 158.753 34.5019 158.381 34.7784C158.01 35.0511 157.73 35.4337 157.54 35.9261C157.351 36.4148 157.256 36.9848 157.256 37.6364ZM167.029 30.3636V42H165.688V30.3636H167.029ZM170.349 45.2727C170.121 45.2727 169.919 45.2538 169.741 45.2159C169.563 45.1818 169.44 45.1477 169.371 45.1136L169.712 43.9318C170.038 44.0152 170.326 44.0455 170.576 44.0227C170.826 44 171.048 43.8883 171.241 43.6875C171.438 43.4905 171.618 43.1705 171.781 42.7273L172.031 42.0455L168.803 33.2727H170.258L172.667 40.2273H172.758L175.167 33.2727H176.621L172.917 43.2727C172.75 43.7235 172.544 44.0966 172.298 44.392C172.051 44.6913 171.765 44.9129 171.44 45.0568C171.118 45.2008 170.754 45.2727 170.349 45.2727Z" fill="black" fill-opacity="0.75"/>
</svg>
