<svg width="216" height="71" viewBox="0 0 216 71" fill="none" xmlns="http://www.w3.org/2000/svg">
<rect x="1" y="1" width="214" height="69" rx="34.5" fill="url(#paint0_linear_43_65)" stroke="black" stroke-width="2"/>
<path d="M56.0238 31.4929C55.9442 30.6908 55.6029 30.0677 54.9996 29.6236C54.3964 29.1794 53.5778 28.9574 52.5437 28.9574C51.841 28.9574 51.2478 29.0568 50.7638 29.2557C50.2799 29.4479 49.9087 29.7164 49.6502 30.0611C49.3983 30.4058 49.2724 30.7969 49.2724 31.2344C49.2591 31.599 49.3353 31.9171 49.5011 32.1889C49.6734 32.4607 49.9087 32.696 50.207 32.8949C50.5053 33.0871 50.85 33.2562 51.2411 33.402C51.6322 33.5412 52.0498 33.6605 52.494 33.7599L54.3235 34.1974C55.2118 34.3963 56.0271 34.6615 56.7695 34.9929C57.512 35.3243 58.1549 35.732 58.6985 36.2159C59.2421 36.6998 59.663 37.2699 59.9613 37.9261C60.2662 38.5824 60.422 39.3348 60.4286 40.1832C60.422 41.4295 60.1038 42.5099 59.4741 43.4247C58.851 44.3329 57.9495 45.0388 56.7695 45.5426C55.5962 46.0398 54.181 46.2884 52.5238 46.2884C50.8799 46.2884 49.448 46.0365 48.2283 45.5327C47.0153 45.0289 46.0674 44.2831 45.3846 43.2955C44.7085 42.3011 44.3538 41.0715 44.3207 39.6065H48.4869C48.5333 40.2893 48.7288 40.8594 49.0735 41.3168C49.4248 41.7675 49.8922 42.1089 50.4755 42.3409C51.0655 42.5663 51.7317 42.679 52.4741 42.679C53.2032 42.679 53.8363 42.5729 54.3732 42.3608C54.9168 42.1487 55.3377 41.8537 55.636 41.4759C55.9343 41.098 56.0835 40.6638 56.0835 40.1733C56.0835 39.7159 55.9476 39.3314 55.6758 39.0199C55.4106 38.7083 55.0195 38.4432 54.5025 38.2244C53.9921 38.0057 53.3656 37.8068 52.6232 37.6278L50.4059 37.071C48.689 36.6534 47.3335 36.0005 46.3391 35.1122C45.3448 34.224 44.851 33.0275 44.8576 31.5227C44.851 30.2898 45.1791 29.2126 45.842 28.2912C46.5115 27.3698 47.4296 26.6506 48.5962 26.1335C49.7629 25.6165 51.0887 25.358 52.5735 25.358C54.0849 25.358 55.404 25.6165 56.5309 26.1335C57.6644 26.6506 58.546 27.3698 59.1758 28.2912C59.8055 29.2126 60.1303 30.2798 60.1502 31.4929H56.0238ZM70.2053 46.2983C68.6342 46.2983 67.282 45.9801 66.1484 45.3438C65.0215 44.7008 64.1532 43.7926 63.5433 42.6193C62.9335 41.4394 62.6286 40.044 62.6286 38.4332C62.6286 36.8622 62.9335 35.4834 63.5433 34.2969C64.1532 33.1103 65.0116 32.1856 66.1186 31.5227C67.2322 30.8598 68.5381 30.5284 70.0362 30.5284C71.0438 30.5284 71.9818 30.6908 72.8501 31.0156C73.7251 31.3338 74.4875 31.8144 75.1371 32.4574C75.7933 33.1004 76.3037 33.9091 76.6683 34.8835C77.0329 35.8513 77.2152 36.9848 77.2152 38.2841V39.4474H64.3189V36.8224H73.228C73.228 36.2126 73.0954 35.6723 72.8303 35.2017C72.5651 34.7311 72.1972 34.3632 71.7266 34.098C71.2625 33.8262 70.7223 33.6903 70.1058 33.6903C69.4628 33.6903 68.8928 33.8395 68.3956 34.1378C67.9051 34.4295 67.5206 34.8239 67.2422 35.321C66.9638 35.8116 66.8213 36.3584 66.8146 36.9616V39.4574C66.8146 40.2131 66.9538 40.866 67.2322 41.4162C67.5173 41.9664 67.9183 42.3906 68.4354 42.6889C68.9524 42.9872 69.5656 43.1364 70.2749 43.1364C70.7455 43.1364 71.1764 43.0701 71.5675 42.9375C71.9586 42.8049 72.2933 42.6061 72.5717 42.3409C72.8501 42.0758 73.0623 41.7509 73.2081 41.3665L77.1257 41.625C76.9268 42.5663 76.5192 43.3883 75.9027 44.0909C75.2929 44.7869 74.504 45.3305 73.5362 45.7216C72.575 46.1061 71.4647 46.2983 70.2053 46.2983ZM84.2152 37.1705V46H79.9794V30.7273H84.0163V33.4219H84.1953C84.5334 32.5336 85.1001 31.831 85.8956 31.3139C86.6911 30.7902 87.6555 30.5284 88.7891 30.5284C89.8497 30.5284 90.7744 30.7604 91.5632 31.2244C92.352 31.6884 92.9652 32.3513 93.4027 33.2131C93.8402 34.0682 94.0589 35.089 94.0589 36.2756V46H89.8232V37.0312C89.8298 36.0966 89.5911 35.3674 89.1072 34.8438C88.6233 34.3134 87.9571 34.0483 87.1087 34.0483C86.5386 34.0483 86.0348 34.1709 85.5973 34.4162C85.1664 34.6615 84.8284 35.0194 84.5831 35.4901C84.3445 35.9541 84.2218 36.5142 84.2152 37.1705ZM103.025 46.2486C101.865 46.2486 100.815 45.9503 99.8732 45.3537C98.9386 44.7505 98.1961 43.8655 97.646 42.6989C97.1024 41.5256 96.8306 40.0871 96.8306 38.3835C96.8306 36.6335 97.1123 35.1785 97.6758 34.0185C98.2392 32.8518 98.9883 31.9801 99.9229 31.4034C100.864 30.8201 101.895 30.5284 103.015 30.5284C103.87 30.5284 104.583 30.6742 105.153 30.9659C105.73 31.2509 106.194 31.6089 106.545 32.0398C106.903 32.464 107.175 32.8816 107.36 33.2926H107.49V25.6364H111.716V46H107.539V43.554H107.36C107.162 43.9782 106.88 44.3991 106.515 44.8168C106.157 45.2277 105.69 45.5691 105.113 45.8409C104.543 46.1127 103.847 46.2486 103.025 46.2486ZM104.368 42.8778C105.05 42.8778 105.627 42.6922 106.098 42.321C106.575 41.9432 106.94 41.4162 107.191 40.7401C107.45 40.0639 107.579 39.2718 107.579 38.3636C107.579 37.4555 107.453 36.6667 107.201 35.9972C106.949 35.3277 106.585 34.8106 106.108 34.446C105.63 34.0814 105.05 33.8991 104.368 33.8991C103.672 33.8991 103.085 34.0881 102.608 34.4659C102.13 34.8437 101.769 35.3674 101.524 36.0369C101.279 36.7064 101.156 37.482 101.156 38.3636C101.156 39.2519 101.279 40.0374 101.524 40.7202C101.776 41.3963 102.137 41.9266 102.608 42.3111C103.085 42.6889 103.672 42.8778 104.368 42.8778ZM140.471 35.8182C140.471 38.0388 140.05 39.928 139.208 41.4858C138.373 43.0436 137.233 44.2334 135.788 45.0554C134.35 45.8707 132.732 46.2784 130.936 46.2784C129.126 46.2784 127.502 45.8674 126.064 45.0455C124.625 44.2235 123.488 43.0336 122.653 41.4759C121.818 39.9181 121.4 38.0322 121.4 35.8182C121.4 33.5975 121.818 31.7083 122.653 30.1506C123.488 28.5928 124.625 27.4062 126.064 26.5909C127.502 25.7689 129.126 25.358 130.936 25.358C132.732 25.358 134.35 25.7689 135.788 26.5909C137.233 27.4062 138.373 28.5928 139.208 30.1506C140.05 31.7083 140.471 33.5975 140.471 35.8182ZM136.106 35.8182C136.106 34.3797 135.891 33.1667 135.46 32.179C135.036 31.1913 134.436 30.4422 133.66 29.9318C132.885 29.4214 131.976 29.1662 130.936 29.1662C129.895 29.1662 128.987 29.4214 128.211 29.9318C127.436 30.4422 126.833 31.1913 126.402 32.179C125.977 33.1667 125.765 34.3797 125.765 35.8182C125.765 37.2566 125.977 38.4697 126.402 39.4574C126.833 40.4451 127.436 41.1941 128.211 41.7045C128.987 42.215 129.895 42.4702 130.936 42.4702C131.976 42.4702 132.885 42.215 133.66 41.7045C134.436 41.1941 135.036 40.4451 135.46 39.4574C135.891 38.4697 136.106 37.2566 136.106 35.8182ZM141.955 29.1861V25.6364H158.68V29.1861H152.445V46H148.19V29.1861H141.955ZM161.434 46V25.6364H169.468C171.013 25.6364 172.328 25.9313 173.415 26.5213C174.503 27.1046 175.331 27.9167 175.901 28.9574C176.478 29.9915 176.766 31.1847 176.766 32.5369C176.766 33.8892 176.475 35.0824 175.891 36.1165C175.308 37.1506 174.463 37.956 173.356 38.5327C172.255 39.1094 170.923 39.3977 169.359 39.3977H164.238V35.9474H168.663C169.491 35.9474 170.174 35.8049 170.711 35.5199C171.254 35.2282 171.659 34.8272 171.924 34.3168C172.196 33.7997 172.332 33.2064 172.332 32.5369C172.332 31.8608 172.196 31.2708 171.924 30.767C171.659 30.2566 171.254 29.8622 170.711 29.5838C170.167 29.2988 169.478 29.1562 168.643 29.1562H165.739V46H161.434Z" fill="white"/>
<defs>
<linearGradient id="paint0_linear_43_65" x1="1.36351e-07" y1="9.5" x2="226.5" y2="60" gradientUnits="userSpaceOnUse">
<stop stop-color="#FEBFBF"/>
<stop offset="0.211316" stop-color="#F44949"/>
<stop offset="0.764423" stop-color="#DA6262"/>
<stop offset="0.980769" stop-color="#F7B7B7"/>
</linearGradient>
</defs>
</svg>
