<svg width="301" height="25" viewBox="0 0 301 25" fill="none" xmlns="http://www.w3.org/2000/svg">
<path d="M8.832 12.336L12.936 2.304H17.688L8.832 20.16L2.07406e-06 2.304H4.728L8.832 12.336ZM22.7826 19.344C21.5026 19.344 20.3906 19.112 19.4466 18.648C18.5186 18.168 17.7986 17.496 17.2866 16.632C16.7746 15.768 16.5186 14.752 16.5186 13.584C16.5186 12.4 16.7666 11.376 17.2626 10.512C17.7586 9.648 18.4706 8.984 19.3986 8.52C20.3426 8.056 21.4546 7.824 22.7346 7.824C24.0146 7.824 25.0946 8.048 25.9746 8.496C26.8546 8.928 27.5266 9.56 27.9906 10.392C28.4546 11.224 28.6866 12.232 28.6866 13.416C28.6866 13.592 28.6866 13.768 28.6866 13.944C28.6866 14.104 28.6706 14.24 28.6386 14.352H18.5586V12.336H25.3746L24.5106 13.44C24.5906 13.328 24.6546 13.192 24.7026 13.032C24.7666 12.856 24.7986 12.712 24.7986 12.6C24.7986 12.12 24.7106 11.704 24.5346 11.352C24.3586 11 24.1106 10.728 23.7906 10.536C23.4706 10.344 23.0946 10.248 22.6626 10.248C22.1186 10.248 21.6626 10.368 21.2946 10.608C20.9266 10.848 20.6466 11.216 20.4546 11.712C20.2786 12.192 20.1826 12.8 20.1666 13.536C20.1666 14.208 20.2626 14.784 20.4546 15.264C20.6466 15.744 20.9346 16.112 21.3186 16.368C21.7026 16.608 22.1746 16.728 22.7346 16.728C23.3746 16.728 23.9186 16.608 24.3666 16.368C24.8306 16.128 25.1986 15.768 25.4706 15.288L28.7106 16.08C28.1346 17.168 27.3506 17.984 26.3586 18.528C25.3826 19.072 24.1906 19.344 22.7826 19.344ZM34.5004 8.064V19.104H30.9244V8.064H34.5004ZM37.6924 11.808C37.5004 11.616 37.2924 11.464 37.0684 11.352C36.8604 11.24 36.5964 11.184 36.2764 11.184C35.9244 11.184 35.6124 11.28 35.3404 11.472C35.0684 11.664 34.8604 11.944 34.7164 12.312C34.5724 12.68 34.5004 13.128 34.5004 13.656L33.6364 12.384C33.6364 11.504 33.8044 10.72 34.1404 10.032C34.4924 9.344 34.9484 8.8 35.5084 8.4C36.0684 8 36.6524 7.8 37.2604 7.8C37.6604 7.8 38.0444 7.88 38.4124 8.04C38.7804 8.2 39.0604 8.424 39.2524 8.712L37.6924 11.808ZM40.5756 3.912C40.5756 3.336 40.7836 2.872 41.1996 2.52C41.6156 2.152 42.1116 1.968 42.6876 1.968C43.2796 1.968 43.7756 2.152 44.1756 2.52C44.5916 2.872 44.7996 3.336 44.7996 3.912C44.7996 4.488 44.5916 4.96 44.1756 5.328C43.7756 5.696 43.2796 5.88 42.6876 5.88C42.1116 5.88 41.6156 5.696 41.1996 5.328C40.7836 4.96 40.5756 4.488 40.5756 3.912ZM40.9356 8.064H44.4396V19.104H40.9356V8.064ZM46.4404 8.064H53.9764V11.064H46.4404V8.064ZM53.5684 3.864C53.4084 3.656 53.2324 3.504 53.0404 3.408C52.8644 3.312 52.6724 3.264 52.4644 3.264C52.2244 3.264 52.0164 3.32 51.8404 3.432C51.6804 3.544 51.5524 3.72 51.4564 3.96C51.3604 4.2 51.3124 4.512 51.3124 4.896V19.104H47.8324V3.984C47.8324 3.152 47.9844 2.44 48.2884 1.848C48.6084 1.256 49.0724 0.799999 49.6804 0.48C50.3044 0.159999 51.0724 -1.43051e-06 51.9844 -1.43051e-06C52.5444 -1.43051e-06 53.0164 0.0719986 53.4004 0.215999C53.7844 0.343999 54.1124 0.503999 54.3844 0.696C54.6564 0.871999 54.8724 1.04 55.0324 1.2L53.5684 3.864ZM66.9784 8.064L59.7784 24.384H56.1304L58.8184 18.216L54.0424 8.064H58.0264L61.6024 16.92L59.7304 16.896L63.2584 8.064H66.9784ZM85.1773 2.304H89.8333L83.9533 12.264V19.104H79.8253V12.288L73.9453 2.304H78.6013L81.8893 8.616L85.1773 2.304ZM88.1904 13.584C88.1904 12.416 88.4624 11.4 89.0064 10.536C89.5504 9.672 90.3024 9 91.2624 8.52C92.2224 8.04 93.3024 7.8 94.5024 7.8C95.7024 7.8 96.7744 8.04 97.7184 8.52C98.6784 9 99.4304 9.672 99.9744 10.536C100.534 11.4 100.814 12.416 100.814 13.584C100.814 14.736 100.534 15.744 99.9744 16.608C99.4304 17.472 98.6784 18.144 97.7184 18.624C96.7744 19.104 95.7024 19.344 94.5024 19.344C93.3024 19.344 92.2224 19.104 91.2624 18.624C90.3024 18.144 89.5504 17.472 89.0064 16.608C88.4624 15.744 88.1904 14.736 88.1904 13.584ZM91.9104 13.584C91.9104 14.16 92.0304 14.656 92.2704 15.072C92.5104 15.472 92.8224 15.784 93.2064 16.008C93.5904 16.232 94.0224 16.344 94.5024 16.344C94.9664 16.344 95.3904 16.232 95.7744 16.008C96.1744 15.784 96.4864 15.472 96.7104 15.072C96.9504 14.656 97.0704 14.16 97.0704 13.584C97.0704 13.008 96.9504 12.512 96.7104 12.096C96.4864 11.68 96.1744 11.36 95.7744 11.136C95.3904 10.912 94.9664 10.8 94.5024 10.8C94.0224 10.8 93.5904 10.912 93.2064 11.136C92.8224 11.36 92.5104 11.68 92.2704 12.096C92.0304 12.512 91.9104 13.008 91.9104 13.584ZM106.787 14.784C106.787 15.424 106.907 15.928 107.147 16.296C107.387 16.648 107.803 16.824 108.395 16.824C108.795 16.824 109.131 16.744 109.403 16.584C109.691 16.424 109.915 16.192 110.075 15.888C110.235 15.584 110.315 15.216 110.315 14.784V8.064H113.939V19.104H110.315V17.448C109.979 18.04 109.539 18.512 108.995 18.864C108.451 19.2 107.771 19.368 106.955 19.368C105.579 19.368 104.571 19 103.931 18.264C103.307 17.512 102.995 16.48 102.995 15.168V8.064H106.787V14.784ZM120.375 8.064V19.104H116.799V8.064H120.375ZM123.567 11.808C123.375 11.616 123.167 11.464 122.943 11.352C122.735 11.24 122.471 11.184 122.151 11.184C121.799 11.184 121.487 11.28 121.215 11.472C120.943 11.664 120.735 11.944 120.591 12.312C120.447 12.68 120.375 13.128 120.375 13.656L119.511 12.384C119.511 11.504 119.679 10.72 120.015 10.032C120.367 9.344 120.823 8.8 121.383 8.4C121.943 8 122.527 7.8 123.135 7.8C123.535 7.8 123.919 7.88 124.287 8.04C124.655 8.2 124.935 8.424 125.127 8.712L123.567 11.808ZM134.222 2.304H138.278V19.104H134.222V2.304ZM136.766 5.64V2.304H140.054C141.478 2.304 142.67 2.528 143.63 2.976C144.606 3.408 145.342 4.032 145.838 4.848C146.334 5.664 146.582 6.648 146.582 7.8C146.582 8.92 146.334 9.896 145.838 10.728C145.342 11.544 144.606 12.176 143.63 12.624C142.67 13.056 141.478 13.272 140.054 13.272H136.766V9.936H140.054C140.87 9.936 141.51 9.752 141.974 9.384C142.438 9.016 142.67 8.488 142.67 7.8C142.67 7.096 142.438 6.56 141.974 6.192C141.51 5.824 140.87 5.64 140.054 5.64H136.766ZM152.463 0.383999V19.104H148.815V0.383999H152.463ZM155.991 12.384C155.991 11.728 155.871 11.224 155.631 10.872C155.391 10.52 154.975 10.344 154.383 10.344C153.999 10.344 153.663 10.432 153.375 10.608C153.087 10.768 152.863 11 152.703 11.304C152.543 11.592 152.463 11.952 152.463 12.384H151.839C151.839 11.504 151.983 10.712 152.271 10.008C152.559 9.288 152.991 8.72 153.567 8.304C154.159 7.872 154.911 7.656 155.823 7.656C156.735 7.656 157.463 7.816 158.007 8.136C158.567 8.456 158.975 8.928 159.231 9.552C159.487 10.176 159.615 10.944 159.615 11.856V19.104H155.991V12.384ZM161.831 13.584C161.831 12.416 162.103 11.4 162.647 10.536C163.191 9.672 163.943 9 164.903 8.52C165.863 8.04 166.943 7.8 168.143 7.8C169.343 7.8 170.415 8.04 171.359 8.52C172.319 9 173.071 9.672 173.615 10.536C174.175 11.4 174.455 12.416 174.455 13.584C174.455 14.736 174.175 15.744 173.615 16.608C173.071 17.472 172.319 18.144 171.359 18.624C170.415 19.104 169.343 19.344 168.143 19.344C166.943 19.344 165.863 19.104 164.903 18.624C163.943 18.144 163.191 17.472 162.647 16.608C162.103 15.744 161.831 14.736 161.831 13.584ZM165.551 13.584C165.551 14.16 165.671 14.656 165.911 15.072C166.151 15.472 166.463 15.784 166.847 16.008C167.231 16.232 167.663 16.344 168.143 16.344C168.607 16.344 169.031 16.232 169.415 16.008C169.815 15.784 170.127 15.472 170.351 15.072C170.591 14.656 170.711 14.16 170.711 13.584C170.711 13.008 170.591 12.512 170.351 12.096C170.127 11.68 169.815 11.36 169.415 11.136C169.031 10.912 168.607 10.8 168.143 10.8C167.663 10.8 167.231 10.912 166.847 11.136C166.463 11.36 166.151 11.68 165.911 12.096C165.671 12.512 165.551 13.008 165.551 13.584ZM183.811 12.384C183.811 11.728 183.683 11.224 183.427 10.872C183.187 10.52 182.779 10.344 182.203 10.344C181.819 10.344 181.483 10.424 181.195 10.584C180.907 10.744 180.683 10.976 180.523 11.28C180.363 11.584 180.283 11.952 180.283 12.384V19.104H176.635V8.064H180.283V9.72C180.603 9.112 181.035 8.64 181.579 8.304C182.139 7.968 182.827 7.8 183.643 7.8C185.019 7.8 186.019 8.168 186.643 8.904C187.267 9.64 187.579 10.672 187.579 12V19.104H183.811V12.384ZM196.056 19.344C194.776 19.344 193.664 19.112 192.72 18.648C191.792 18.168 191.072 17.496 190.56 16.632C190.048 15.768 189.792 14.752 189.792 13.584C189.792 12.4 190.04 11.376 190.536 10.512C191.032 9.648 191.744 8.984 192.672 8.52C193.616 8.056 194.728 7.824 196.008 7.824C197.288 7.824 198.368 8.048 199.248 8.496C200.128 8.928 200.8 9.56 201.264 10.392C201.728 11.224 201.96 12.232 201.96 13.416C201.96 13.592 201.96 13.768 201.96 13.944C201.96 14.104 201.944 14.24 201.912 14.352H191.832V12.336H198.648L197.784 13.44C197.864 13.328 197.928 13.192 197.976 13.032C198.04 12.856 198.072 12.712 198.072 12.6C198.072 12.12 197.984 11.704 197.808 11.352C197.632 11 197.384 10.728 197.064 10.536C196.744 10.344 196.368 10.248 195.936 10.248C195.392 10.248 194.936 10.368 194.568 10.608C194.2 10.848 193.92 11.216 193.728 11.712C193.552 12.192 193.456 12.8 193.44 13.536C193.44 14.208 193.536 14.784 193.728 15.264C193.92 15.744 194.208 16.112 194.592 16.368C194.976 16.608 195.448 16.728 196.008 16.728C196.648 16.728 197.192 16.608 197.64 16.368C198.104 16.128 198.472 15.768 198.744 15.288L201.984 16.08C201.408 17.168 200.624 17.984 199.632 18.528C198.656 19.072 197.464 19.344 196.056 19.344ZM223.345 2.304H227.257V19.944L215.641 9.648V19.104H211.753V1.464L223.345 11.76V2.304ZM234.24 14.784C234.24 15.424 234.36 15.928 234.6 16.296C234.84 16.648 235.256 16.824 235.848 16.824C236.248 16.824 236.584 16.744 236.856 16.584C237.144 16.424 237.368 16.192 237.528 15.888C237.688 15.584 237.768 15.216 237.768 14.784V8.064H241.392V19.104H237.768V17.448C237.432 18.04 236.992 18.512 236.448 18.864C235.904 19.2 235.224 19.368 234.408 19.368C233.032 19.368 232.024 19 231.384 18.264C230.76 17.512 230.448 16.48 230.448 15.168V8.064H234.24V14.784ZM261.101 12V19.104H257.453V12.384C257.453 11.712 257.341 11.208 257.117 10.872C256.909 10.52 256.557 10.344 256.061 10.344C255.741 10.344 255.453 10.424 255.197 10.584C254.957 10.728 254.765 10.952 254.621 11.256C254.493 11.56 254.429 11.936 254.429 12.384V19.104H250.781V12.384C250.781 11.712 250.669 11.208 250.445 10.872C250.237 10.52 249.885 10.344 249.389 10.344C249.069 10.344 248.781 10.424 248.525 10.584C248.285 10.728 248.093 10.952 247.949 11.256C247.821 11.56 247.757 11.936 247.757 12.384V19.104H244.253V8.064H247.757V9.696C248.061 9.104 248.477 8.64 249.005 8.304C249.549 7.968 250.197 7.8 250.949 7.8C251.813 7.8 252.501 7.96 253.013 8.28C253.525 8.584 253.893 9.032 254.117 9.624C254.517 9.048 255.013 8.6 255.605 8.28C256.197 7.96 256.869 7.8 257.621 7.8C258.485 7.8 259.165 7.968 259.661 8.304C260.173 8.624 260.541 9.096 260.765 9.72C260.989 10.344 261.101 11.104 261.101 12ZM267.54 0.383999V19.104H263.916V0.383999H267.54ZM276.564 13.584C276.564 14.816 276.308 15.864 275.796 16.728C275.3 17.576 274.652 18.224 273.852 18.672C273.068 19.12 272.22 19.344 271.308 19.344C270.396 19.344 269.58 19.112 268.86 18.648C268.14 18.184 267.572 17.52 267.156 16.656C266.74 15.792 266.532 14.768 266.532 13.584C266.532 12.384 266.74 11.36 267.156 10.512C267.572 9.648 268.14 8.984 268.86 8.52C269.58 8.056 270.396 7.824 271.308 7.824C272.22 7.824 273.068 8.048 273.852 8.496C274.652 8.944 275.3 9.592 275.796 10.44C276.308 11.288 276.564 12.336 276.564 13.584ZM272.748 13.584C272.748 13.008 272.628 12.512 272.388 12.096C272.148 11.664 271.828 11.336 271.428 11.112C271.028 10.872 270.588 10.752 270.108 10.752C269.692 10.752 269.284 10.864 268.884 11.088C268.5 11.312 268.18 11.64 267.924 12.072C267.668 12.488 267.54 12.992 267.54 13.584C267.54 14.176 267.668 14.688 267.924 15.12C268.18 15.536 268.5 15.856 268.884 16.08C269.284 16.304 269.692 16.416 270.108 16.416C270.588 16.416 271.028 16.304 271.428 16.08C271.828 15.84 272.148 15.512 272.388 15.096C272.628 14.664 272.748 14.16 272.748 13.584ZM284.369 19.344C283.089 19.344 281.977 19.112 281.033 18.648C280.105 18.168 279.385 17.496 278.873 16.632C278.361 15.768 278.105 14.752 278.105 13.584C278.105 12.4 278.353 11.376 278.849 10.512C279.345 9.648 280.057 8.984 280.985 8.52C281.929 8.056 283.041 7.824 284.321 7.824C285.601 7.824 286.681 8.048 287.561 8.496C288.441 8.928 289.113 9.56 289.577 10.392C290.041 11.224 290.273 12.232 290.273 13.416C290.273 13.592 290.273 13.768 290.273 13.944C290.273 14.104 290.257 14.24 290.225 14.352H280.145V12.336H286.961L286.097 13.44C286.177 13.328 286.241 13.192 286.289 13.032C286.353 12.856 286.385 12.712 286.385 12.6C286.385 12.12 286.297 11.704 286.121 11.352C285.945 11 285.697 10.728 285.377 10.536C285.057 10.344 284.681 10.248 284.249 10.248C283.705 10.248 283.249 10.368 282.881 10.608C282.513 10.848 282.233 11.216 282.041 11.712C281.865 12.192 281.769 12.8 281.753 13.536C281.753 14.208 281.849 14.784 282.041 15.264C282.233 15.744 282.521 16.112 282.905 16.368C283.289 16.608 283.761 16.728 284.321 16.728C284.961 16.728 285.505 16.608 285.953 16.368C286.417 16.128 286.785 15.768 287.057 15.288L290.297 16.08C289.721 17.168 288.937 17.984 287.945 18.528C286.969 19.072 285.777 19.344 284.369 19.344ZM296.086 8.064V19.104H292.51V8.064H296.086ZM299.278 11.808C299.086 11.616 298.878 11.464 298.654 11.352C298.446 11.24 298.182 11.184 297.862 11.184C297.51 11.184 297.198 11.28 296.926 11.472C296.654 11.664 296.446 11.944 296.302 12.312C296.158 12.68 296.086 13.128 296.086 13.656L295.222 12.384C295.222 11.504 295.39 10.72 295.726 10.032C296.078 9.344 296.534 8.8 297.094 8.4C297.654 8 298.238 7.8 298.846 7.8C299.246 7.8 299.63 7.88 299.998 8.04C300.366 8.2 300.646 8.424 300.838 8.712L299.278 11.808Z" fill="#343030"/>
</svg>
