<svg width="229" height="71" viewBox="0 0 229 71" fill="none" xmlns="http://www.w3.org/2000/svg">
<rect x="1" y="1" width="227" height="69" rx="34.5" fill="url(#paint0_linear_3_6)" stroke="url(#paint1_linear_3_6)" stroke-width="2"/>
<path d="M47.245 29.2803C47.0675 28.705 46.8224 28.1901 46.5099 27.7356C46.2045 27.2739 45.8352 26.8797 45.402 26.553C44.9759 26.2263 44.4858 25.9813 43.9318 25.818C43.3778 25.6475 42.7741 25.5623 42.1207 25.5623C40.9489 25.5623 39.9048 25.857 38.9886 26.4465C38.0724 27.036 37.3516 27.9025 36.826 29.0459C36.3075 30.1823 36.0483 31.5672 36.0483 33.2008C36.0483 34.8485 36.3075 36.2441 36.826 37.3876C37.3445 38.531 38.0653 39.4011 38.9886 39.9976C39.9119 40.5871 40.9844 40.8819 42.206 40.8819C43.3139 40.8819 44.2727 40.6688 45.0824 40.2427C45.8991 39.8165 46.5277 39.2128 46.968 38.4316C47.4084 37.6432 47.6286 36.7199 47.6286 35.6617L48.5234 35.8002H42.6001V32.7107H51.4531V35.3314C51.4531 37.1993 51.0554 38.8151 50.2599 40.1787C49.4645 41.5424 48.3707 42.5935 46.9787 43.3322C45.5866 44.0637 43.9886 44.4295 42.1847 44.4295C40.1747 44.4295 38.4098 43.9785 36.8899 43.0765C35.3771 42.1674 34.1946 40.8783 33.3423 39.2093C32.4972 37.5332 32.0746 35.5445 32.0746 33.2434C32.0746 31.482 32.3232 29.9089 32.8203 28.5239C33.3246 27.139 34.0277 25.9636 34.9297 24.9976C35.8317 24.0246 36.8899 23.286 38.1044 22.7817C39.3189 22.2704 40.6399 22.0147 42.0675 22.0147C43.2749 22.0147 44.4006 22.1922 45.4446 22.5474C46.4886 22.8954 47.4155 23.3925 48.2251 24.0388C49.0419 24.6851 49.7131 25.4522 50.2386 26.34C50.7642 27.2278 51.1087 28.2079 51.272 29.2803H47.245ZM62.3489 44.4508C60.7083 44.4508 59.2914 44.1099 58.0982 43.428C56.9121 42.7391 55.9995 41.7661 55.3603 40.509C54.7211 39.2448 54.4015 37.7569 54.4015 36.0452C54.4015 34.362 54.7211 32.8847 55.3603 31.6134C56.0066 30.335 56.9086 29.3407 58.0662 28.6305C59.2239 27.9131 60.584 27.5545 62.1465 27.5545C63.155 27.5545 64.1067 27.7178 65.0016 28.0445C65.9036 28.3641 66.699 28.8613 67.388 29.536C68.084 30.2107 68.6309 31.0701 69.0286 32.1141C69.4263 33.1511 69.6252 34.3868 69.6252 35.8215V37.004H56.2125V34.4046H65.9284C65.9213 33.666 65.7615 33.009 65.449 32.4337C65.1365 31.8513 64.6998 31.3932 64.1387 31.0594C63.5847 30.7256 62.9384 30.5587 62.1998 30.5587C61.4114 30.5587 60.7189 30.7505 60.1223 31.134C59.5257 31.5104 59.0605 32.0076 58.7267 32.6255C58.4 33.2363 58.2331 33.9074 58.226 34.639V36.9082C58.226 37.8599 58.4 38.6766 58.748 39.3584C59.0961 40.0332 59.5826 40.5516 60.2076 40.9138C60.8326 41.2689 61.5641 41.4465 62.4022 41.4465C62.9632 41.4465 63.4711 41.3684 63.9256 41.2121C64.3801 41.0488 64.7743 40.8109 65.1081 40.4984C65.4419 40.1859 65.6941 39.7988 65.8645 39.3371L69.4654 39.742C69.2381 40.6937 68.8049 41.5246 68.1657 42.2349C67.5336 42.938 66.7239 43.4849 65.7367 43.8755C64.7495 44.259 63.6202 44.4508 62.3489 44.4508ZM81.0589 27.7675V30.7505H71.652V27.7675H81.0589ZM73.9744 23.8471H77.831V39.2093C77.831 39.7278 77.9091 40.1255 78.0653 40.4025C78.2287 40.6724 78.4418 40.857 78.7045 40.9564C78.9673 41.0559 79.2585 41.1056 79.5781 41.1056C79.8196 41.1056 80.0398 41.0878 80.2386 41.0523C80.4446 41.0168 80.6009 40.9849 80.7074 40.9564L81.3572 43.9714C81.1513 44.0424 80.8565 44.1205 80.473 44.2057C80.0966 44.291 79.6349 44.3407 79.0881 44.3549C78.1222 44.3833 77.2521 44.2377 76.478 43.9181C75.7038 43.5914 75.0895 43.0871 74.6349 42.4053C74.1875 41.7235 73.9673 40.8712 73.9744 39.8485V23.8471ZM103.753 28.3109C103.654 27.3805 103.235 26.656 102.496 26.1376C101.765 25.6191 100.813 25.3599 99.6412 25.3599C98.8173 25.3599 98.1106 25.4841 97.5211 25.7327C96.9316 25.9813 96.4806 26.3187 96.1681 26.7448C95.8556 27.1709 95.6958 27.6574 95.6887 28.2043C95.6887 28.6589 95.7917 29.053 95.9977 29.3868C96.2108 29.7207 96.4984 30.0047 96.8606 30.2391C97.2228 30.4664 97.6241 30.6582 98.0645 30.8144C98.5048 30.9707 98.9487 31.102 99.3961 31.2086L101.442 31.7199C102.265 31.9117 103.057 32.1709 103.817 32.4976C104.584 32.8243 105.27 33.2363 105.873 33.7334C106.484 34.2306 106.967 34.8307 107.322 35.5339C107.677 36.237 107.855 37.0609 107.855 38.0055C107.855 39.2839 107.528 40.4096 106.875 41.3826C106.221 42.3485 105.277 43.1049 104.041 43.6518C102.812 44.1915 101.324 44.4614 99.5772 44.4614C97.8798 44.4614 96.4061 44.1986 95.1561 43.6731C93.9132 43.1475 92.9402 42.3805 92.237 41.3719C91.541 40.3634 91.1646 39.1347 91.1078 37.6859H94.9963C95.0531 38.4458 95.2875 39.0779 95.6994 39.5822C96.1113 40.0864 96.6475 40.4628 97.3081 40.7114C97.9757 40.96 98.7214 41.0843 99.5453 41.0843C100.405 41.0843 101.157 40.9564 101.804 40.7008C102.457 40.438 102.969 40.0758 103.338 39.6141C103.707 39.1454 103.895 38.5985 103.903 37.9735C103.895 37.4053 103.729 36.9366 103.402 36.5672C103.075 36.1908 102.617 35.8783 102.028 35.6297C101.445 35.3741 100.763 35.1468 99.9821 34.9479L97.4998 34.3087C95.7029 33.8471 94.2825 33.1475 93.2385 32.21C92.2015 31.2654 91.6831 30.0118 91.6831 28.4493C91.6831 27.1638 92.0311 26.0381 92.7271 25.0722C93.4302 24.1063 94.3855 23.357 95.5929 22.8243C96.8002 22.2846 98.1674 22.0147 99.6944 22.0147C101.243 22.0147 102.599 22.2846 103.764 22.8243C104.936 23.357 105.856 24.0992 106.523 25.0509C107.191 25.9955 107.535 27.0822 107.557 28.3109H103.753ZM119.379 27.7675V30.7505H109.972V27.7675H119.379ZM112.295 23.8471H116.151V39.2093C116.151 39.7278 116.229 40.1255 116.386 40.4025C116.549 40.6724 116.762 40.857 117.025 40.9564C117.288 41.0559 117.579 41.1056 117.898 41.1056C118.14 41.1056 118.36 41.0878 118.559 41.0523C118.765 41.0168 118.921 40.9849 119.028 40.9564L119.678 43.9714C119.472 44.0424 119.177 44.1205 118.793 44.2057C118.417 44.291 117.955 44.3407 117.408 44.3549C116.442 44.3833 115.572 44.2377 114.798 43.9181C114.024 43.5914 113.41 43.0871 112.955 42.4053C112.508 41.7235 112.288 40.8712 112.295 39.8485V23.8471ZM127.313 44.4614C126.276 44.4614 125.343 44.2768 124.512 43.9074C123.688 43.531 123.034 42.977 122.551 42.2455C122.075 41.514 121.838 40.612 121.838 39.5395C121.838 38.6162 122.008 37.8528 122.349 37.2491C122.69 36.6454 123.155 36.1624 123.744 35.8002C124.334 35.438 124.998 35.1645 125.737 34.9799C126.482 34.7881 127.253 34.6496 128.048 34.5644C129.007 34.465 129.785 34.3762 130.382 34.2981C130.978 34.2128 131.411 34.085 131.681 33.9145C131.958 33.737 132.097 33.4636 132.097 33.0942V33.0303C132.097 32.2278 131.859 31.6063 131.383 31.166C130.907 30.7256 130.222 30.5055 129.327 30.5055C128.382 30.5055 127.633 30.7114 127.079 31.1234C126.532 31.5353 126.163 32.0218 125.971 32.5829L122.37 32.0715C122.654 31.0772 123.123 30.2462 123.776 29.5786C124.43 28.9039 125.229 28.3996 126.173 28.0658C127.118 27.7249 128.162 27.5545 129.306 27.5545C130.094 27.5545 130.879 27.6468 131.66 27.8314C132.441 28.0161 133.155 28.3215 133.801 28.7476C134.448 29.1667 134.966 29.7384 135.357 30.4628C135.754 31.1873 135.953 32.0928 135.953 33.1795V44.1312H132.246V41.8833H132.118C131.884 42.3378 131.553 42.764 131.127 43.1617C130.708 43.5523 130.179 43.8684 129.54 44.1099C128.908 44.3442 128.166 44.4614 127.313 44.4614ZM128.315 41.6276C129.089 41.6276 129.76 41.4749 130.328 41.1695C130.896 40.857 131.333 40.4451 131.639 39.9337C131.951 39.4224 132.107 38.8648 132.107 38.2611V36.3329C131.987 36.4323 131.781 36.5246 131.49 36.6099C131.205 36.6951 130.886 36.7697 130.531 36.8336C130.176 36.8975 129.824 36.9543 129.476 37.004C129.128 37.0537 128.826 37.0964 128.57 37.1319C127.995 37.21 127.48 37.3378 127.026 37.5154C126.571 37.693 126.213 37.9415 125.95 38.2611C125.687 38.5736 125.556 38.9785 125.556 39.4756C125.556 40.1859 125.815 40.7221 126.333 41.0843C126.852 41.4465 127.512 41.6276 128.315 41.6276ZM139.831 44.1312V27.7675H143.57V30.4948H143.741C144.039 29.5502 144.551 28.8222 145.275 28.3109C146.007 27.7924 146.841 27.5332 147.779 27.5332C147.992 27.5332 148.23 27.5438 148.492 27.5651C148.762 27.5793 148.986 27.6042 149.164 27.6397V31.1873C149 31.1305 148.741 31.0807 148.386 31.0381C148.038 30.9884 147.7 30.9636 147.374 30.9636C146.671 30.9636 146.039 31.1162 145.477 31.4216C144.923 31.7199 144.487 32.1354 144.167 32.6681C143.847 33.2008 143.688 33.8151 143.688 34.5111V44.1312H139.831ZM160.776 27.7675V30.7505H151.369V27.7675H160.776ZM153.691 23.8471H157.548V39.2093C157.548 39.7278 157.626 40.1255 157.782 40.4025C157.945 40.6724 158.159 40.857 158.421 40.9564C158.684 41.0559 158.975 41.1056 159.295 41.1056C159.536 41.1056 159.757 41.0878 159.955 41.0523C160.161 41.0168 160.318 40.9849 160.424 40.9564L161.074 43.9714C160.868 44.0424 160.573 44.1205 160.19 44.2057C159.813 44.291 159.352 44.3407 158.805 44.3549C157.839 44.3833 156.969 44.2377 156.195 43.9181C155.421 43.5914 154.806 43.0871 154.352 42.4053C153.904 41.7235 153.684 40.8712 153.691 39.8485V23.8471ZM171.07 44.4508C169.429 44.4508 168.012 44.1099 166.819 43.428C165.633 42.7391 164.72 41.7661 164.081 40.509C163.442 39.2448 163.122 37.7569 163.122 36.0452C163.122 34.362 163.442 32.8847 164.081 31.6134C164.727 30.335 165.629 29.3407 166.787 28.6305C167.945 27.9131 169.305 27.5545 170.867 27.5545C171.876 27.5545 172.827 27.7178 173.722 28.0445C174.624 28.3641 175.42 28.8613 176.109 29.536C176.805 30.2107 177.352 31.0701 177.749 32.1141C178.147 33.1511 178.346 34.3868 178.346 35.8215V37.004H164.933V34.4046H174.649C174.642 33.666 174.482 33.009 174.17 32.4337C173.857 31.8513 173.42 31.3932 172.859 31.0594C172.305 30.7256 171.659 30.5587 170.92 30.5587C170.132 30.5587 169.44 30.7505 168.843 31.134C168.246 31.5104 167.781 32.0076 167.447 32.6255C167.121 33.2363 166.954 33.9074 166.947 34.639V36.9082C166.947 37.8599 167.121 38.6766 167.469 39.3584C167.817 40.0332 168.303 40.5516 168.928 40.9138C169.553 41.2689 170.285 41.4465 171.123 41.4465C171.684 41.4465 172.192 41.3684 172.646 41.2121C173.101 41.0488 173.495 40.8109 173.829 40.4984C174.163 40.1859 174.415 39.7988 174.585 39.3371L178.186 39.742C177.959 40.6937 177.526 41.5246 176.886 42.2349C176.254 42.938 175.445 43.4849 174.457 43.8755C173.47 44.259 172.341 44.4508 171.07 44.4508ZM187.681 44.4188C186.395 44.4188 185.245 44.0886 184.229 43.428C183.214 42.7675 182.411 41.8087 181.822 40.5516C181.232 39.2945 180.937 37.7675 180.937 35.9707C180.937 34.1525 181.236 32.6184 181.832 31.3684C182.436 30.1113 183.249 29.1631 184.272 28.5239C185.295 27.8776 186.434 27.5545 187.692 27.5545C188.65 27.5545 189.439 27.7178 190.057 28.0445C190.675 28.3641 191.165 28.7512 191.527 29.2057C191.889 29.6532 192.17 30.0758 192.368 30.4735H192.528V22.313H196.395V44.1312H192.603V41.553H192.368C192.17 41.9508 191.882 42.3734 191.506 42.8208C191.129 43.2611 190.632 43.6376 190.014 43.9501C189.396 44.2626 188.618 44.4188 187.681 44.4188ZM188.757 41.2547C189.574 41.2547 190.27 41.0346 190.845 40.5942C191.42 40.1468 191.857 39.5253 192.155 38.7299C192.454 37.9344 192.603 37.0076 192.603 35.9493C192.603 34.8911 192.454 33.9714 192.155 33.1901C191.864 32.4089 191.431 31.8016 190.856 31.3684C190.287 30.9351 189.588 30.7185 188.757 30.7185C187.898 30.7185 187.18 30.9422 186.605 31.3897C186.03 31.8371 185.596 32.455 185.305 33.2434C185.014 34.0317 184.868 34.9337 184.868 35.9493C184.868 36.9721 185.014 37.8847 185.305 38.6873C185.604 39.4827 186.04 40.1113 186.616 40.5729C187.198 41.0275 187.912 41.2547 188.757 41.2547Z" fill="#F9F5F5"/>
<defs>
<linearGradient id="paint0_linear_3_6" x1="86.5" y1="-57.6148" x2="218.796" y2="51.1181" gradientUnits="userSpaceOnUse">
<stop stop-color="#DFB5B5"/>
<stop offset="0.0769231" stop-color="#E60D11"/>
<stop offset="0.923077" stop-color="#E21F22"/>
<stop offset="1" stop-color="#F2D9DA"/>
</linearGradient>
<linearGradient id="paint1_linear_3_6" x1="29.1185" y1="-2.55729e-07" x2="206.74" y2="64.3284" gradientUnits="userSpaceOnUse">
<stop/>
<stop offset="1" stop-color="#403E3E"/>
</linearGradient>
</defs>
</svg>
