<svg width="60" height="53" viewBox="0 0 60 53" fill="none" xmlns="http://www.w3.org/2000/svg">
<g clip-path="url(#clip0_90_97)">
<path d="M56.6458 29.7711C58.4167 29.7711 59.9792 28.3219 59.9792 26.4482C60.0833 25.5166 59.6667 24.6885 58.8333 23.9639L32.2396 0.724609C31.6146 0.207031 30.7813 0 30.0521 0C29.3229 0 28.4896 0.103516 27.7604 0.828125L1.04167 23.9639C0.3125 24.6885 0 25.5166 0 26.4482C0 28.3115 1.45833 29.7711 3.33333 29.7711H6.66667V46.375C6.66667 50.0291 9.65625 53 13.3333 53H46.7083C50.4063 53 53.3958 50.0188 53.375 46.3439L53.3021 29.7607H56.6354L56.6458 29.7711ZM26.6667 21.5312C26.6667 20.6203 27.4167 19.875 28.3333 19.875H31.6667C32.5833 19.875 33.3333 20.6203 33.3333 21.5312V26.5H38.3333C39.25 26.5 40 27.2453 40 28.1562V31.4688C40 32.3797 39.25 33.125 38.3333 33.125H33.3333V38.0938C33.3333 39.0047 32.5833 39.75 31.6667 39.75H28.3333C27.4167 39.75 26.6667 39.0047 26.6667 38.0938V33.125H21.6667C20.75 33.125 20 32.3797 20 31.4688V28.1562C20 27.2453 20.75 26.5 21.6667 26.5H26.6667V21.5312Z" fill="black"/>
</g>
<defs>
<clipPath id="clip0_90_97">
<rect width="60" height="53" fill="white"/>
</clipPath>
</defs>
</svg>
