<svg width="60" height="60" viewBox="0 0 60 60" fill="none" xmlns="http://www.w3.org/2000/svg">
<path d="M30 4.99999C32.265 4.99999 34.4575 5.30499 36.5425 5.86999C35.2333 8.52742 34.7402 11.513 35.1255 14.4503C35.5108 17.3876 36.7573 20.145 38.7077 22.3749C40.6581 24.6047 43.2251 26.207 46.0849 26.9799C48.9448 27.7527 51.9695 27.6614 54.7775 26.7175C54.9225 27.7925 54.9967 28.8867 55 30C55 43.8075 43.8075 55 30 55C25.8935 55.0058 21.8492 53.9958 18.2275 52.06L5.00002 55L7.94002 41.7725C6.00424 38.1508 4.99426 34.1066 5.00002 30C5.00002 16.1925 16.1925 4.99999 30 4.99999ZM48.825 3.29999C48.9197 3.06594 49.0821 2.86549 49.2915 2.72435C49.5008 2.58322 49.7475 2.50781 50 2.50781C50.2525 2.50781 50.4992 2.58322 50.7086 2.72435C50.9179 2.86549 51.0803 3.06594 51.175 3.29999L51.81 4.82499C52.8713 7.41268 54.8845 9.49482 57.435 10.6425L59.2275 11.4425C59.457 11.5487 59.6513 11.7183 59.7875 11.9314C59.9237 12.1445 59.9961 12.3921 59.9961 12.645C59.9961 12.8979 59.9237 13.1455 59.7875 13.3586C59.6513 13.5716 59.457 13.7413 59.2275 13.8475L57.3325 14.6925C54.8441 15.8073 52.8638 17.8143 51.7825 20.3175L51.1675 21.7325C51.0714 21.9629 50.9093 22.1597 50.7015 22.2982C50.4938 22.4366 50.2497 22.5105 50 22.5105C49.7504 22.5105 49.5063 22.4366 49.2985 22.2982C49.0908 22.1597 48.9286 21.9629 48.8325 21.7325L48.215 20.32C47.1348 17.8163 45.1555 15.8084 42.6675 14.6925L40.7675 13.8475C40.5373 13.7416 40.3423 13.5719 40.2056 13.3586C40.0689 13.1452 39.9962 12.8971 39.9962 12.6437C39.9962 12.3903 40.0689 12.1423 40.2056 11.9289C40.3423 11.7156 40.5373 11.5459 40.7675 11.44L42.5625 10.64C45.1131 9.49403 47.1271 7.41375 48.19 4.82749L48.825 3.29999Z" fill="black"/>
</svg>
