<svg width="320" height="170" viewBox="0 0 320 170" fill="none" xmlns="http://www.w3.org/2000/svg">
<path d="M0.0893665 167.691L5.76213 167.438C20.452 166.781 33.2586 157.238 38.0894 143.35L45.0962 127.449C48.9811 118.634 55.6871 111.361 64.1589 106.774C73.7587 101.577 84.9638 100.187 95.5427 102.88L99.9164 103.993C104.348 105.121 108.903 105.691 113.475 105.691L129.589 105.691L142.589 105.691L155.589 105.691L169.089 105.691L182.089 105.691L196.589 105.691L209.589 105.691L251.259 101.723C264.6 100.452 270.937 84.6456 262.168 74.5113C254.366 65.4931 258.417 51.4301 269.822 47.9453L288.786 42.1507C295.74 40.0257 301.661 35.399 305.403 29.1641L308.827 23.4601C310.332 20.9531 311.598 18.3105 312.609 15.5669L318.089 0.691406" stroke="#534C4C" stroke-opacity="0.74" stroke-width="4"/>
</svg>
